solid OpenSCAD_Model
  facet normal -1 0 0
    outer loop
      vertex 75 0.459999 0
      vertex 75 0.959999 15
      vertex 75 0.959999 0
    endloop
  endfacet
  facet normal -1 -0 0
    outer loop
      vertex 75 0.959999 15
      vertex 75 0.459999 0
      vertex 75 0.459999 15
    endloop
  endfacet
  facet normal 0 0 1
    outer loop
      vertex 75.46 14.86 15
      vertex 75 14.4 15
      vertex 75.46 13.44 15
    endloop
  endfacet
  facet normal -0 0 1
    outer loop
      vertex 0 14.86 15
      vertex 75 14.4 15
      vertex 75.46 14.86 15
    endloop
  endfacet
  facet normal 0 0 1
    outer loop
      vertex 75 14.4 15
      vertex 0 14.86 15
      vertex 0 14.4 15
    endloop
  endfacet
  facet normal -0 0 1
    outer loop
      vertex 75 13.9 15
      vertex 75.46 13.44 15
      vertex 75 14.4 15
    endloop
  endfacet
  facet normal 0 0 1
    outer loop
      vertex 75 13.9 15
      vertex 0.459999 13.44 15
      vertex 75.46 13.44 15
    endloop
  endfacet
  facet normal 0 0 1
    outer loop
      vertex 0.459999 13.44 15
      vertex 0 13.9 15
      vertex 0.459999 12.94 15
    endloop
  endfacet
  facet normal -0 0 1
    outer loop
      vertex 0 13.9 15
      vertex 0.459999 13.44 15
      vertex 75 13.9 15
    endloop
  endfacet
  facet normal 0 0 1
    outer loop
      vertex 75.46 12.94 15
      vertex 75 12.48 15
      vertex 75.46 11.52 15
    endloop
  endfacet
  facet normal -0 0 1
    outer loop
      vertex 0.459999 12.94 15
      vertex 75 12.48 15
      vertex 75.46 12.94 15
    endloop
  endfacet
  facet normal 0 0 1
    outer loop
      vertex 0.459999 12.94 15
      vertex 0 12.48 15
      vertex 75 12.48 15
    endloop
  endfacet
  facet normal 0 0 1
    outer loop
      vertex 0 12.48 15
      vertex 0.459999 12.94 15
      vertex 0 13.9 15
    endloop
  endfacet
  facet normal -0 0 1
    outer loop
      vertex 75 11.98 15
      vertex 75.46 11.52 15
      vertex 75 12.48 15
    endloop
  endfacet
  facet normal 0 0 1
    outer loop
      vertex 75 11.98 15
      vertex 0.459999 11.52 15
      vertex 75.46 11.52 15
    endloop
  endfacet
  facet normal 0 0 1
    outer loop
      vertex 0.459999 11.52 15
      vertex 0 11.98 15
      vertex 0.459999 11.02 15
    endloop
  endfacet
  facet normal -0 0 1
    outer loop
      vertex 0 11.98 15
      vertex 0.459999 11.52 15
      vertex 75 11.98 15
    endloop
  endfacet
  facet normal 0 0 1
    outer loop
      vertex 75.46 11.02 15
      vertex 75 10.56 15
      vertex 75.46 9.6 15
    endloop
  endfacet
  facet normal -0 0 1
    outer loop
      vertex 0.459999 11.02 15
      vertex 75 10.56 15
      vertex 75.46 11.02 15
    endloop
  endfacet
  facet normal 0 0 1
    outer loop
      vertex 0.459999 11.02 15
      vertex 0 10.56 15
      vertex 75 10.56 15
    endloop
  endfacet
  facet normal 0 0 1
    outer loop
      vertex 0 10.56 15
      vertex 0.459999 11.02 15
      vertex 0 11.98 15
    endloop
  endfacet
  facet normal -0 0 1
    outer loop
      vertex 75 10.06 15
      vertex 75.46 9.6 15
      vertex 75 10.56 15
    endloop
  endfacet
  facet normal 0 0 1
    outer loop
      vertex 75 10.06 15
      vertex 0.459999 9.6 15
      vertex 75.46 9.6 15
    endloop
  endfacet
  facet normal 0 0 1
    outer loop
      vertex 0.459999 9.6 15
      vertex 0 10.06 15
      vertex 0.459999 9.1 15
    endloop
  endfacet
  facet normal -0 0 1
    outer loop
      vertex 0 10.06 15
      vertex 0.459999 9.6 15
      vertex 75 10.06 15
    endloop
  endfacet
  facet normal 0 0 1
    outer loop
      vertex 75.46 9.1 15
      vertex 75 8.64 15
      vertex 75.46 7.68 15
    endloop
  endfacet
  facet normal -0 0 1
    outer loop
      vertex 0.459999 9.1 15
      vertex 75 8.64 15
      vertex 75.46 9.1 15
    endloop
  endfacet
  facet normal 0 0 1
    outer loop
      vertex 0.459999 9.1 15
      vertex 0 8.64 15
      vertex 75 8.64 15
    endloop
  endfacet
  facet normal 0 0 1
    outer loop
      vertex 0 8.64 15
      vertex 0.459999 9.1 15
      vertex 0 10.06 15
    endloop
  endfacet
  facet normal -0 0 1
    outer loop
      vertex 75 8.14 15
      vertex 75.46 7.68 15
      vertex 75 8.64 15
    endloop
  endfacet
  facet normal 0 0 1
    outer loop
      vertex 75 8.14 15
      vertex 0.459999 7.68 15
      vertex 75.46 7.68 15
    endloop
  endfacet
  facet normal 0 0 1
    outer loop
      vertex 0.459999 7.68 15
      vertex 0 8.14 15
      vertex 0.459999 7.18 15
    endloop
  endfacet
  facet normal -0 0 1
    outer loop
      vertex 0 8.14 15
      vertex 0.459999 7.68 15
      vertex 75 8.14 15
    endloop
  endfacet
  facet normal 0 0 1
    outer loop
      vertex 75.46 7.18 15
      vertex 75 6.72 15
      vertex 75.46 5.76 15
    endloop
  endfacet
  facet normal -0 0 1
    outer loop
      vertex 0.459999 7.18 15
      vertex 75 6.72 15
      vertex 75.46 7.18 15
    endloop
  endfacet
  facet normal 0 0 1
    outer loop
      vertex 0.459999 7.18 15
      vertex 0 6.72 15
      vertex 75 6.72 15
    endloop
  endfacet
  facet normal 0 0 1
    outer loop
      vertex 0 6.72 15
      vertex 0.459999 7.18 15
      vertex 0 8.14 15
    endloop
  endfacet
  facet normal -0 0 1
    outer loop
      vertex 75 6.22 15
      vertex 75.46 5.76 15
      vertex 75 6.72 15
    endloop
  endfacet
  facet normal 0 0 1
    outer loop
      vertex 75 6.22 15
      vertex 0.459999 5.76 15
      vertex 75.46 5.76 15
    endloop
  endfacet
  facet normal 0 0 1
    outer loop
      vertex 0.459999 5.76 15
      vertex 0 6.22 15
      vertex 0.459999 5.26 15
    endloop
  endfacet
  facet normal -0 0 1
    outer loop
      vertex 0 6.22 15
      vertex 0.459999 5.76 15
      vertex 75 6.22 15
    endloop
  endfacet
  facet normal 0 0 1
    outer loop
      vertex 75.46 5.26 15
      vertex 75 4.8 15
      vertex 75.46 3.84 15
    endloop
  endfacet
  facet normal -0 0 1
    outer loop
      vertex 0.459999 5.26 15
      vertex 75 4.8 15
      vertex 75.46 5.26 15
    endloop
  endfacet
  facet normal 0 0 1
    outer loop
      vertex 0.459999 5.26 15
      vertex 0 4.8 15
      vertex 75 4.8 15
    endloop
  endfacet
  facet normal 0 0 1
    outer loop
      vertex 0 4.8 15
      vertex 0.459999 5.26 15
      vertex 0 6.22 15
    endloop
  endfacet
  facet normal -0 0 1
    outer loop
      vertex 75 4.3 15
      vertex 75.46 3.84 15
      vertex 75 4.8 15
    endloop
  endfacet
  facet normal 0 0 1
    outer loop
      vertex 75 4.3 15
      vertex 0.459999 3.84 15
      vertex 75.46 3.84 15
    endloop
  endfacet
  facet normal 0 0 1
    outer loop
      vertex 0.459999 3.84 15
      vertex 0 4.3 15
      vertex 0.459999 3.34 15
    endloop
  endfacet
  facet normal -0 0 1
    outer loop
      vertex 0 4.3 15
      vertex 0.459999 3.84 15
      vertex 75 4.3 15
    endloop
  endfacet
  facet normal 0 0 1
    outer loop
      vertex 75.46 3.34 15
      vertex 75 2.88 15
      vertex 75.46 1.92 15
    endloop
  endfacet
  facet normal -0 0 1
    outer loop
      vertex 0.459999 3.34 15
      vertex 75 2.88 15
      vertex 75.46 3.34 15
    endloop
  endfacet
  facet normal 0 0 1
    outer loop
      vertex 0.459999 3.34 15
      vertex 0 2.88 15
      vertex 75 2.88 15
    endloop
  endfacet
  facet normal 0 0 1
    outer loop
      vertex 0 2.88 15
      vertex 0.459999 3.34 15
      vertex 0 4.3 15
    endloop
  endfacet
  facet normal -0 0 1
    outer loop
      vertex 75 2.38 15
      vertex 75.46 1.92 15
      vertex 75 2.88 15
    endloop
  endfacet
  facet normal 0 0 1
    outer loop
      vertex 75 2.38 15
      vertex 0.459999 1.92 15
      vertex 75.46 1.92 15
    endloop
  endfacet
  facet normal 0 0 1
    outer loop
      vertex 0.459999 1.92 15
      vertex 0 2.38 15
      vertex 0.459999 1.42 15
    endloop
  endfacet
  facet normal -0 0 1
    outer loop
      vertex 0 2.38 15
      vertex 0.459999 1.92 15
      vertex 75 2.38 15
    endloop
  endfacet
  facet normal 0 0 1
    outer loop
      vertex 75.46 1.42 15
      vertex 75 0.959999 15
      vertex 75.46 0 15
    endloop
  endfacet
  facet normal -0 0 1
    outer loop
      vertex 0.459999 1.42 15
      vertex 75 0.959999 15
      vertex 75.46 1.42 15
    endloop
  endfacet
  facet normal 0 0 1
    outer loop
      vertex 0.459999 1.42 15
      vertex 0 0.959999 15
      vertex 75 0.959999 15
    endloop
  endfacet
  facet normal 0 0 1
    outer loop
      vertex 0 0.959999 15
      vertex 0.459999 1.42 15
      vertex 0 2.38 15
    endloop
  endfacet
  facet normal -0 0 1
    outer loop
      vertex 75 0.459999 15
      vertex 75.46 0 15
      vertex 75 0.959999 15
    endloop
  endfacet
  facet normal 0 0 1
    outer loop
      vertex 0 0 15
      vertex 75 0.459999 15
      vertex 0 0.459999 15
    endloop
  endfacet
  facet normal 0 0 1
    outer loop
      vertex 75 0.459999 15
      vertex 0 0 15
      vertex 75.46 0 15
    endloop
  endfacet
  facet normal 0 0 -1
    outer loop
      vertex 75.46 0 0
      vertex 75 0.459999 0
      vertex 75.46 1.42 0
    endloop
  endfacet
  facet normal 0 0 -1
    outer loop
      vertex 0 0 0
      vertex 75 0.459999 0
      vertex 75.46 0 0
    endloop
  endfacet
  facet normal -0 0 -1
    outer loop
      vertex 75 0.459999 0
      vertex 0 0 0
      vertex 0 0.459999 0
    endloop
  endfacet
  facet normal 0 0 -1
    outer loop
      vertex 75 0.959999 0
      vertex 75.46 1.42 0
      vertex 75 0.459999 0
    endloop
  endfacet
  facet normal 0 0 -1
    outer loop
      vertex 75 0.959999 0
      vertex 0.459999 1.42 0
      vertex 75.46 1.42 0
    endloop
  endfacet
  facet normal -0 0 -1
    outer loop
      vertex 0.459999 1.42 0
      vertex 0 0.959999 0
      vertex 0.459999 1.92 0
    endloop
  endfacet
  facet normal 0 0 -1
    outer loop
      vertex 0 0.959999 0
      vertex 0.459999 1.42 0
      vertex 75 0.959999 0
    endloop
  endfacet
  facet normal 0 0 -1
    outer loop
      vertex 75.46 1.92 0
      vertex 75 2.38 0
      vertex 75.46 3.34 0
    endloop
  endfacet
  facet normal 0 0 -1
    outer loop
      vertex 0.459999 1.92 0
      vertex 75 2.38 0
      vertex 75.46 1.92 0
    endloop
  endfacet
  facet normal 0 0 -1
    outer loop
      vertex 0.459999 1.92 0
      vertex 0 2.38 0
      vertex 75 2.38 0
    endloop
  endfacet
  facet normal 0 0 -1
    outer loop
      vertex 0 2.38 0
      vertex 0.459999 1.92 0
      vertex 0 0.959999 0
    endloop
  endfacet
  facet normal 0 0 -1
    outer loop
      vertex 75 2.88 0
      vertex 75.46 3.34 0
      vertex 75 2.38 0
    endloop
  endfacet
  facet normal 0 0 -1
    outer loop
      vertex 75 2.88 0
      vertex 0.459999 3.34 0
      vertex 75.46 3.34 0
    endloop
  endfacet
  facet normal -0 0 -1
    outer loop
      vertex 0.459999 3.34 0
      vertex 0 2.88 0
      vertex 0.459999 3.84 0
    endloop
  endfacet
  facet normal 0 0 -1
    outer loop
      vertex 0 2.88 0
      vertex 0.459999 3.34 0
      vertex 75 2.88 0
    endloop
  endfacet
  facet normal 0 0 -1
    outer loop
      vertex 75.46 3.84 0
      vertex 75 4.3 0
      vertex 75.46 5.26 0
    endloop
  endfacet
  facet normal 0 0 -1
    outer loop
      vertex 0.459999 3.84 0
      vertex 75 4.3 0
      vertex 75.46 3.84 0
    endloop
  endfacet
  facet normal 0 0 -1
    outer loop
      vertex 0.459999 3.84 0
      vertex 0 4.3 0
      vertex 75 4.3 0
    endloop
  endfacet
  facet normal 0 0 -1
    outer loop
      vertex 0 4.3 0
      vertex 0.459999 3.84 0
      vertex 0 2.88 0
    endloop
  endfacet
  facet normal 0 0 -1
    outer loop
      vertex 75 4.8 0
      vertex 75.46 5.26 0
      vertex 75 4.3 0
    endloop
  endfacet
  facet normal 0 0 -1
    outer loop
      vertex 75 4.8 0
      vertex 0.459999 5.26 0
      vertex 75.46 5.26 0
    endloop
  endfacet
  facet normal -0 0 -1
    outer loop
      vertex 0.459999 5.26 0
      vertex 0 4.8 0
      vertex 0.459999 5.76 0
    endloop
  endfacet
  facet normal 0 0 -1
    outer loop
      vertex 0 4.8 0
      vertex 0.459999 5.26 0
      vertex 75 4.8 0
    endloop
  endfacet
  facet normal 0 0 -1
    outer loop
      vertex 75.46 5.76 0
      vertex 75 6.22 0
      vertex 75.46 7.18 0
    endloop
  endfacet
  facet normal 0 0 -1
    outer loop
      vertex 0.459999 5.76 0
      vertex 75 6.22 0
      vertex 75.46 5.76 0
    endloop
  endfacet
  facet normal 0 0 -1
    outer loop
      vertex 0.459999 5.76 0
      vertex 0 6.22 0
      vertex 75 6.22 0
    endloop
  endfacet
  facet normal 0 0 -1
    outer loop
      vertex 0 6.22 0
      vertex 0.459999 5.76 0
      vertex 0 4.8 0
    endloop
  endfacet
  facet normal 0 0 -1
    outer loop
      vertex 75 6.72 0
      vertex 75.46 7.18 0
      vertex 75 6.22 0
    endloop
  endfacet
  facet normal 0 0 -1
    outer loop
      vertex 75 6.72 0
      vertex 0.459999 7.18 0
      vertex 75.46 7.18 0
    endloop
  endfacet
  facet normal -0 0 -1
    outer loop
      vertex 0.459999 7.18 0
      vertex 0 6.72 0
      vertex 0.459999 7.68 0
    endloop
  endfacet
  facet normal 0 0 -1
    outer loop
      vertex 0 6.72 0
      vertex 0.459999 7.18 0
      vertex 75 6.72 0
    endloop
  endfacet
  facet normal 0 0 -1
    outer loop
      vertex 75.46 7.68 0
      vertex 75 8.14 0
      vertex 75.46 9.1 0
    endloop
  endfacet
  facet normal 0 0 -1
    outer loop
      vertex 0.459999 7.68 0
      vertex 75 8.14 0
      vertex 75.46 7.68 0
    endloop
  endfacet
  facet normal 0 0 -1
    outer loop
      vertex 0.459999 7.68 0
      vertex 0 8.14 0
      vertex 75 8.14 0
    endloop
  endfacet
  facet normal 0 0 -1
    outer loop
      vertex 0 8.14 0
      vertex 0.459999 7.68 0
      vertex 0 6.72 0
    endloop
  endfacet
  facet normal 0 0 -1
    outer loop
      vertex 75 8.64 0
      vertex 75.46 9.1 0
      vertex 75 8.14 0
    endloop
  endfacet
  facet normal 0 0 -1
    outer loop
      vertex 75 8.64 0
      vertex 0.459999 9.1 0
      vertex 75.46 9.1 0
    endloop
  endfacet
  facet normal -0 0 -1
    outer loop
      vertex 0.459999 9.1 0
      vertex 0 8.64 0
      vertex 0.459999 9.6 0
    endloop
  endfacet
  facet normal 0 0 -1
    outer loop
      vertex 0 8.64 0
      vertex 0.459999 9.1 0
      vertex 75 8.64 0
    endloop
  endfacet
  facet normal 0 0 -1
    outer loop
      vertex 75.46 9.6 0
      vertex 75 10.06 0
      vertex 75.46 11.02 0
    endloop
  endfacet
  facet normal 0 0 -1
    outer loop
      vertex 0.459999 9.6 0
      vertex 75 10.06 0
      vertex 75.46 9.6 0
    endloop
  endfacet
  facet normal 0 0 -1
    outer loop
      vertex 0.459999 9.6 0
      vertex 0 10.06 0
      vertex 75 10.06 0
    endloop
  endfacet
  facet normal 0 0 -1
    outer loop
      vertex 0 10.06 0
      vertex 0.459999 9.6 0
      vertex 0 8.64 0
    endloop
  endfacet
  facet normal 0 0 -1
    outer loop
      vertex 75 10.56 0
      vertex 75.46 11.02 0
      vertex 75 10.06 0
    endloop
  endfacet
  facet normal 0 0 -1
    outer loop
      vertex 75 10.56 0
      vertex 0.459999 11.02 0
      vertex 75.46 11.02 0
    endloop
  endfacet
  facet normal -0 0 -1
    outer loop
      vertex 0.459999 11.02 0
      vertex 0 10.56 0
      vertex 0.459999 11.52 0
    endloop
  endfacet
  facet normal 0 0 -1
    outer loop
      vertex 0 10.56 0
      vertex 0.459999 11.02 0
      vertex 75 10.56 0
    endloop
  endfacet
  facet normal 0 0 -1
    outer loop
      vertex 75.46 11.52 0
      vertex 75 11.98 0
      vertex 75.46 12.94 0
    endloop
  endfacet
  facet normal 0 0 -1
    outer loop
      vertex 0.459999 11.52 0
      vertex 75 11.98 0
      vertex 75.46 11.52 0
    endloop
  endfacet
  facet normal 0 0 -1
    outer loop
      vertex 0.459999 11.52 0
      vertex 0 11.98 0
      vertex 75 11.98 0
    endloop
  endfacet
  facet normal 0 0 -1
    outer loop
      vertex 0 11.98 0
      vertex 0.459999 11.52 0
      vertex 0 10.56 0
    endloop
  endfacet
  facet normal 0 0 -1
    outer loop
      vertex 75 12.48 0
      vertex 75.46 12.94 0
      vertex 75 11.98 0
    endloop
  endfacet
  facet normal 0 0 -1
    outer loop
      vertex 75 12.48 0
      vertex 0.459999 12.94 0
      vertex 75.46 12.94 0
    endloop
  endfacet
  facet normal -0 0 -1
    outer loop
      vertex 0.459999 12.94 0
      vertex 0 12.48 0
      vertex 0.459999 13.44 0
    endloop
  endfacet
  facet normal 0 0 -1
    outer loop
      vertex 0 12.48 0
      vertex 0.459999 12.94 0
      vertex 75 12.48 0
    endloop
  endfacet
  facet normal 0 0 -1
    outer loop
      vertex 75.46 13.44 0
      vertex 75 13.9 0
      vertex 75.46 14.86 0
    endloop
  endfacet
  facet normal 0 0 -1
    outer loop
      vertex 0.459999 13.44 0
      vertex 75 13.9 0
      vertex 75.46 13.44 0
    endloop
  endfacet
  facet normal 0 0 -1
    outer loop
      vertex 0.459999 13.44 0
      vertex 0 13.9 0
      vertex 75 13.9 0
    endloop
  endfacet
  facet normal 0 0 -1
    outer loop
      vertex 0 13.9 0
      vertex 0.459999 13.44 0
      vertex 0 12.48 0
    endloop
  endfacet
  facet normal 0 0 -1
    outer loop
      vertex 75 14.4 0
      vertex 75.46 14.86 0
      vertex 75 13.9 0
    endloop
  endfacet
  facet normal 0 0 -1
    outer loop
      vertex 0 14.86 0
      vertex 75 14.4 0
      vertex 0 14.4 0
    endloop
  endfacet
  facet normal 0 0 -1
    outer loop
      vertex 75 14.4 0
      vertex 0 14.86 0
      vertex 75.46 14.86 0
    endloop
  endfacet
  facet normal -1 0 0
    outer loop
      vertex 0 0.959999 0
      vertex 0 2.38 15
      vertex 0 2.38 0
    endloop
  endfacet
  facet normal -1 -0 0
    outer loop
      vertex 0 2.38 15
      vertex 0 0.959999 0
      vertex 0 0.959999 15
    endloop
  endfacet
  facet normal 0 1 -0
    outer loop
      vertex 75.46 1.42 0
      vertex 0.459999 1.42 15
      vertex 75.46 1.42 15
    endloop
  endfacet
  facet normal 0 1 0
    outer loop
      vertex 0.459999 1.42 15
      vertex 75.46 1.42 0
      vertex 0.459999 1.42 0
    endloop
  endfacet
  facet normal 0 -1 0
    outer loop
      vertex 0 0.959999 0
      vertex 75 0.959999 15
      vertex 0 0.959999 15
    endloop
  endfacet
  facet normal 0 -1 -0
    outer loop
      vertex 75 0.959999 15
      vertex 0 0.959999 0
      vertex 75 0.959999 0
    endloop
  endfacet
  facet normal 1 -0 0
    outer loop
      vertex 75.46 0 15
      vertex 75.46 1.42 0
      vertex 75.46 1.42 15
    endloop
  endfacet
  facet normal 1 0 0
    outer loop
      vertex 75.46 1.42 0
      vertex 75.46 0 15
      vertex 75.46 0 0
    endloop
  endfacet
  facet normal 0 -1 0
    outer loop
      vertex 0 0 0
      vertex 75.46 0 15
      vertex 0 0 15
    endloop
  endfacet
  facet normal 0 -1 -0
    outer loop
      vertex 75.46 0 15
      vertex 0 0 0
      vertex 75.46 0 0
    endloop
  endfacet
  facet normal -1 0 0
    outer loop
      vertex 0 0 0
      vertex 0 0.459999 15
      vertex 0 0.459999 0
    endloop
  endfacet
  facet normal -1 -0 0
    outer loop
      vertex 0 0.459999 15
      vertex 0 0 0
      vertex 0 0 15
    endloop
  endfacet
  facet normal 0 1 -0
    outer loop
      vertex 75 0.459999 0
      vertex 0 0.459999 15
      vertex 75 0.459999 15
    endloop
  endfacet
  facet normal 0 1 0
    outer loop
      vertex 0 0.459999 15
      vertex 75 0.459999 0
      vertex 0 0.459999 0
    endloop
  endfacet
  facet normal 1 -0 0
    outer loop
      vertex 0.459999 1.42 15
      vertex 0.459999 1.92 0
      vertex 0.459999 1.92 15
    endloop
  endfacet
  facet normal 1 0 0
    outer loop
      vertex 0.459999 1.92 0
      vertex 0.459999 1.42 15
      vertex 0.459999 1.42 0
    endloop
  endfacet
  facet normal 0 -1 0
    outer loop
      vertex 0.459999 1.92 0
      vertex 75.46 1.92 15
      vertex 0.459999 1.92 15
    endloop
  endfacet
  facet normal 0 -1 -0
    outer loop
      vertex 75.46 1.92 15
      vertex 0.459999 1.92 0
      vertex 75.46 1.92 0
    endloop
  endfacet
  facet normal -1 0 0
    outer loop
      vertex 75 2.38 0
      vertex 75 2.88 15
      vertex 75 2.88 0
    endloop
  endfacet
  facet normal -1 -0 0
    outer loop
      vertex 75 2.88 15
      vertex 75 2.38 0
      vertex 75 2.38 15
    endloop
  endfacet
  facet normal -1 0 0
    outer loop
      vertex 0 2.88 0
      vertex 0 4.3 15
      vertex 0 4.3 0
    endloop
  endfacet
  facet normal -1 -0 0
    outer loop
      vertex 0 4.3 15
      vertex 0 2.88 0
      vertex 0 2.88 15
    endloop
  endfacet
  facet normal 0 1 -0
    outer loop
      vertex 75.46 3.34 0
      vertex 0.459999 3.34 15
      vertex 75.46 3.34 15
    endloop
  endfacet
  facet normal 0 1 0
    outer loop
      vertex 0.459999 3.34 15
      vertex 75.46 3.34 0
      vertex 0.459999 3.34 0
    endloop
  endfacet
  facet normal 0 -1 0
    outer loop
      vertex 0 2.88 0
      vertex 75 2.88 15
      vertex 0 2.88 15
    endloop
  endfacet
  facet normal 0 -1 -0
    outer loop
      vertex 75 2.88 15
      vertex 0 2.88 0
      vertex 75 2.88 0
    endloop
  endfacet
  facet normal 1 -0 0
    outer loop
      vertex 75.46 1.92 15
      vertex 75.46 3.34 0
      vertex 75.46 3.34 15
    endloop
  endfacet
  facet normal 1 0 0
    outer loop
      vertex 75.46 3.34 0
      vertex 75.46 1.92 15
      vertex 75.46 1.92 0
    endloop
  endfacet
  facet normal 0 1 -0
    outer loop
      vertex 75 2.38 0
      vertex 0 2.38 15
      vertex 75 2.38 15
    endloop
  endfacet
  facet normal 0 1 0
    outer loop
      vertex 0 2.38 15
      vertex 75 2.38 0
      vertex 0 2.38 0
    endloop
  endfacet
  facet normal 1 -0 0
    outer loop
      vertex 0.459999 3.34 15
      vertex 0.459999 3.84 0
      vertex 0.459999 3.84 15
    endloop
  endfacet
  facet normal 1 0 0
    outer loop
      vertex 0.459999 3.84 0
      vertex 0.459999 3.34 15
      vertex 0.459999 3.34 0
    endloop
  endfacet
  facet normal 0 -1 0
    outer loop
      vertex 0.459999 3.84 0
      vertex 75.46 3.84 15
      vertex 0.459999 3.84 15
    endloop
  endfacet
  facet normal 0 -1 -0
    outer loop
      vertex 75.46 3.84 15
      vertex 0.459999 3.84 0
      vertex 75.46 3.84 0
    endloop
  endfacet
  facet normal -1 0 0
    outer loop
      vertex 75 4.3 0
      vertex 75 4.8 15
      vertex 75 4.8 0
    endloop
  endfacet
  facet normal -1 -0 0
    outer loop
      vertex 75 4.8 15
      vertex 75 4.3 0
      vertex 75 4.3 15
    endloop
  endfacet
  facet normal -1 0 0
    outer loop
      vertex 0 4.8 0
      vertex 0 6.22 15
      vertex 0 6.22 0
    endloop
  endfacet
  facet normal -1 -0 0
    outer loop
      vertex 0 6.22 15
      vertex 0 4.8 0
      vertex 0 4.8 15
    endloop
  endfacet
  facet normal 0 1 -0
    outer loop
      vertex 75.46 5.26 0
      vertex 0.459999 5.26 15
      vertex 75.46 5.26 15
    endloop
  endfacet
  facet normal 0 1 0
    outer loop
      vertex 0.459999 5.26 15
      vertex 75.46 5.26 0
      vertex 0.459999 5.26 0
    endloop
  endfacet
  facet normal 0 -1 0
    outer loop
      vertex 0 4.8 0
      vertex 75 4.8 15
      vertex 0 4.8 15
    endloop
  endfacet
  facet normal 0 -1 -0
    outer loop
      vertex 75 4.8 15
      vertex 0 4.8 0
      vertex 75 4.8 0
    endloop
  endfacet
  facet normal 1 -0 0
    outer loop
      vertex 75.46 3.84 15
      vertex 75.46 5.26 0
      vertex 75.46 5.26 15
    endloop
  endfacet
  facet normal 1 0 0
    outer loop
      vertex 75.46 5.26 0
      vertex 75.46 3.84 15
      vertex 75.46 3.84 0
    endloop
  endfacet
  facet normal 0 1 -0
    outer loop
      vertex 75 4.3 0
      vertex 0 4.3 15
      vertex 75 4.3 15
    endloop
  endfacet
  facet normal 0 1 0
    outer loop
      vertex 0 4.3 15
      vertex 75 4.3 0
      vertex 0 4.3 0
    endloop
  endfacet
  facet normal 1 -0 0
    outer loop
      vertex 0.459999 5.26 15
      vertex 0.459999 5.76 0
      vertex 0.459999 5.76 15
    endloop
  endfacet
  facet normal 1 0 0
    outer loop
      vertex 0.459999 5.76 0
      vertex 0.459999 5.26 15
      vertex 0.459999 5.26 0
    endloop
  endfacet
  facet normal 0 -1 0
    outer loop
      vertex 0.459999 5.76 0
      vertex 75.46 5.76 15
      vertex 0.459999 5.76 15
    endloop
  endfacet
  facet normal 0 -1 -0
    outer loop
      vertex 75.46 5.76 15
      vertex 0.459999 5.76 0
      vertex 75.46 5.76 0
    endloop
  endfacet
  facet normal -1 0 0
    outer loop
      vertex 75 6.22 0
      vertex 75 6.72 15
      vertex 75 6.72 0
    endloop
  endfacet
  facet normal -1 -0 0
    outer loop
      vertex 75 6.72 15
      vertex 75 6.22 0
      vertex 75 6.22 15
    endloop
  endfacet
  facet normal -1 0 0
    outer loop
      vertex 0 6.72 0
      vertex 0 8.14 15
      vertex 0 8.14 0
    endloop
  endfacet
  facet normal -1 -0 0
    outer loop
      vertex 0 8.14 15
      vertex 0 6.72 0
      vertex 0 6.72 15
    endloop
  endfacet
  facet normal 0 1 -0
    outer loop
      vertex 75.46 7.18 0
      vertex 0.459999 7.18 15
      vertex 75.46 7.18 15
    endloop
  endfacet
  facet normal 0 1 0
    outer loop
      vertex 0.459999 7.18 15
      vertex 75.46 7.18 0
      vertex 0.459999 7.18 0
    endloop
  endfacet
  facet normal 0 -1 0
    outer loop
      vertex 0 6.72 0
      vertex 75 6.72 15
      vertex 0 6.72 15
    endloop
  endfacet
  facet normal 0 -1 -0
    outer loop
      vertex 75 6.72 15
      vertex 0 6.72 0
      vertex 75 6.72 0
    endloop
  endfacet
  facet normal 1 -0 0
    outer loop
      vertex 75.46 5.76 15
      vertex 75.46 7.18 0
      vertex 75.46 7.18 15
    endloop
  endfacet
  facet normal 1 0 0
    outer loop
      vertex 75.46 7.18 0
      vertex 75.46 5.76 15
      vertex 75.46 5.76 0
    endloop
  endfacet
  facet normal 0 1 -0
    outer loop
      vertex 75 6.22 0
      vertex 0 6.22 15
      vertex 75 6.22 15
    endloop
  endfacet
  facet normal 0 1 0
    outer loop
      vertex 0 6.22 15
      vertex 75 6.22 0
      vertex 0 6.22 0
    endloop
  endfacet
  facet normal 1 -0 0
    outer loop
      vertex 0.459999 7.18 15
      vertex 0.459999 7.68 0
      vertex 0.459999 7.68 15
    endloop
  endfacet
  facet normal 1 0 0
    outer loop
      vertex 0.459999 7.68 0
      vertex 0.459999 7.18 15
      vertex 0.459999 7.18 0
    endloop
  endfacet
  facet normal 0 -1 0
    outer loop
      vertex 0.459999 7.68 0
      vertex 75.46 7.68 15
      vertex 0.459999 7.68 15
    endloop
  endfacet
  facet normal 0 -1 -0
    outer loop
      vertex 75.46 7.68 15
      vertex 0.459999 7.68 0
      vertex 75.46 7.68 0
    endloop
  endfacet
  facet normal -1 0 0
    outer loop
      vertex 75 8.14 0
      vertex 75 8.64 15
      vertex 75 8.64 0
    endloop
  endfacet
  facet normal -1 -0 0
    outer loop
      vertex 75 8.64 15
      vertex 75 8.14 0
      vertex 75 8.14 15
    endloop
  endfacet
  facet normal -1 0 0
    outer loop
      vertex 0 8.64 0
      vertex 0 10.06 15
      vertex 0 10.06 0
    endloop
  endfacet
  facet normal -1 -0 0
    outer loop
      vertex 0 10.06 15
      vertex 0 8.64 0
      vertex 0 8.64 15
    endloop
  endfacet
  facet normal 0 1 -0
    outer loop
      vertex 75.46 9.1 0
      vertex 0.459999 9.1 15
      vertex 75.46 9.1 15
    endloop
  endfacet
  facet normal 0 1 0
    outer loop
      vertex 0.459999 9.1 15
      vertex 75.46 9.1 0
      vertex 0.459999 9.1 0
    endloop
  endfacet
  facet normal 0 -1 0
    outer loop
      vertex 0 8.64 0
      vertex 75 8.64 15
      vertex 0 8.64 15
    endloop
  endfacet
  facet normal 0 -1 -0
    outer loop
      vertex 75 8.64 15
      vertex 0 8.64 0
      vertex 75 8.64 0
    endloop
  endfacet
  facet normal 1 -0 0
    outer loop
      vertex 75.46 7.68 15
      vertex 75.46 9.1 0
      vertex 75.46 9.1 15
    endloop
  endfacet
  facet normal 1 0 0
    outer loop
      vertex 75.46 9.1 0
      vertex 75.46 7.68 15
      vertex 75.46 7.68 0
    endloop
  endfacet
  facet normal 0 1 -0
    outer loop
      vertex 75 8.14 0
      vertex 0 8.14 15
      vertex 75 8.14 15
    endloop
  endfacet
  facet normal 0 1 0
    outer loop
      vertex 0 8.14 15
      vertex 75 8.14 0
      vertex 0 8.14 0
    endloop
  endfacet
  facet normal 1 -0 0
    outer loop
      vertex 0.459999 9.1 15
      vertex 0.459999 9.6 0
      vertex 0.459999 9.6 15
    endloop
  endfacet
  facet normal 1 0 0
    outer loop
      vertex 0.459999 9.6 0
      vertex 0.459999 9.1 15
      vertex 0.459999 9.1 0
    endloop
  endfacet
  facet normal 0 -1 0
    outer loop
      vertex 0.459999 9.6 0
      vertex 75.46 9.6 15
      vertex 0.459999 9.6 15
    endloop
  endfacet
  facet normal 0 -1 -0
    outer loop
      vertex 75.46 9.6 15
      vertex 0.459999 9.6 0
      vertex 75.46 9.6 0
    endloop
  endfacet
  facet normal -1 0 0
    outer loop
      vertex 75 10.06 0
      vertex 75 10.56 15
      vertex 75 10.56 0
    endloop
  endfacet
  facet normal -1 -0 0
    outer loop
      vertex 75 10.56 15
      vertex 75 10.06 0
      vertex 75 10.06 15
    endloop
  endfacet
  facet normal -1 0 0
    outer loop
      vertex 0 10.56 0
      vertex 0 11.98 15
      vertex 0 11.98 0
    endloop
  endfacet
  facet normal -1 -0 0
    outer loop
      vertex 0 11.98 15
      vertex 0 10.56 0
      vertex 0 10.56 15
    endloop
  endfacet
  facet normal 0 1 -0
    outer loop
      vertex 75.46 11.02 0
      vertex 0.459999 11.02 15
      vertex 75.46 11.02 15
    endloop
  endfacet
  facet normal 0 1 0
    outer loop
      vertex 0.459999 11.02 15
      vertex 75.46 11.02 0
      vertex 0.459999 11.02 0
    endloop
  endfacet
  facet normal 0 -1 0
    outer loop
      vertex 0 10.56 0
      vertex 75 10.56 15
      vertex 0 10.56 15
    endloop
  endfacet
  facet normal 0 -1 -0
    outer loop
      vertex 75 10.56 15
      vertex 0 10.56 0
      vertex 75 10.56 0
    endloop
  endfacet
  facet normal 1 -0 0
    outer loop
      vertex 75.46 9.6 15
      vertex 75.46 11.02 0
      vertex 75.46 11.02 15
    endloop
  endfacet
  facet normal 1 0 0
    outer loop
      vertex 75.46 11.02 0
      vertex 75.46 9.6 15
      vertex 75.46 9.6 0
    endloop
  endfacet
  facet normal 0 1 -0
    outer loop
      vertex 75 10.06 0
      vertex 0 10.06 15
      vertex 75 10.06 15
    endloop
  endfacet
  facet normal 0 1 0
    outer loop
      vertex 0 10.06 15
      vertex 75 10.06 0
      vertex 0 10.06 0
    endloop
  endfacet
  facet normal 1 -0 0
    outer loop
      vertex 0.459999 11.02 15
      vertex 0.459999 11.52 0
      vertex 0.459999 11.52 15
    endloop
  endfacet
  facet normal 1 0 0
    outer loop
      vertex 0.459999 11.52 0
      vertex 0.459999 11.02 15
      vertex 0.459999 11.02 0
    endloop
  endfacet
  facet normal 0 -1 0
    outer loop
      vertex 0.459999 11.52 0
      vertex 75.46 11.52 15
      vertex 0.459999 11.52 15
    endloop
  endfacet
  facet normal 0 -1 -0
    outer loop
      vertex 75.46 11.52 15
      vertex 0.459999 11.52 0
      vertex 75.46 11.52 0
    endloop
  endfacet
  facet normal -1 0 0
    outer loop
      vertex 75 11.98 0
      vertex 75 12.48 15
      vertex 75 12.48 0
    endloop
  endfacet
  facet normal -1 -0 0
    outer loop
      vertex 75 12.48 15
      vertex 75 11.98 0
      vertex 75 11.98 15
    endloop
  endfacet
  facet normal -1 0 0
    outer loop
      vertex 0 12.48 0
      vertex 0 13.9 15
      vertex 0 13.9 0
    endloop
  endfacet
  facet normal -1 -0 0
    outer loop
      vertex 0 13.9 15
      vertex 0 12.48 0
      vertex 0 12.48 15
    endloop
  endfacet
  facet normal 0 1 -0
    outer loop
      vertex 75.46 12.94 0
      vertex 0.459999 12.94 15
      vertex 75.46 12.94 15
    endloop
  endfacet
  facet normal 0 1 0
    outer loop
      vertex 0.459999 12.94 15
      vertex 75.46 12.94 0
      vertex 0.459999 12.94 0
    endloop
  endfacet
  facet normal 0 -1 0
    outer loop
      vertex 0 12.48 0
      vertex 75 12.48 15
      vertex 0 12.48 15
    endloop
  endfacet
  facet normal 0 -1 -0
    outer loop
      vertex 75 12.48 15
      vertex 0 12.48 0
      vertex 75 12.48 0
    endloop
  endfacet
  facet normal 1 -0 0
    outer loop
      vertex 75.46 11.52 15
      vertex 75.46 12.94 0
      vertex 75.46 12.94 15
    endloop
  endfacet
  facet normal 1 0 0
    outer loop
      vertex 75.46 12.94 0
      vertex 75.46 11.52 15
      vertex 75.46 11.52 0
    endloop
  endfacet
  facet normal 0 1 -0
    outer loop
      vertex 75 11.98 0
      vertex 0 11.98 15
      vertex 75 11.98 15
    endloop
  endfacet
  facet normal 0 1 0
    outer loop
      vertex 0 11.98 15
      vertex 75 11.98 0
      vertex 0 11.98 0
    endloop
  endfacet
  facet normal 1 -0 0
    outer loop
      vertex 0.459999 12.94 15
      vertex 0.459999 13.44 0
      vertex 0.459999 13.44 15
    endloop
  endfacet
  facet normal 1 0 0
    outer loop
      vertex 0.459999 13.44 0
      vertex 0.459999 12.94 15
      vertex 0.459999 12.94 0
    endloop
  endfacet
  facet normal 0 -1 0
    outer loop
      vertex 0.459999 13.44 0
      vertex 75.46 13.44 15
      vertex 0.459999 13.44 15
    endloop
  endfacet
  facet normal 0 -1 -0
    outer loop
      vertex 75.46 13.44 15
      vertex 0.459999 13.44 0
      vertex 75.46 13.44 0
    endloop
  endfacet
  facet normal -1 0 0
    outer loop
      vertex 75 13.9 0
      vertex 75 14.4 15
      vertex 75 14.4 0
    endloop
  endfacet
  facet normal -1 -0 0
    outer loop
      vertex 75 14.4 15
      vertex 75 13.9 0
      vertex 75 13.9 15
    endloop
  endfacet
  facet normal -1 0 0
    outer loop
      vertex 0 14.4 0
      vertex 0 14.86 15
      vertex 0 14.86 0
    endloop
  endfacet
  facet normal -1 -0 0
    outer loop
      vertex 0 14.86 15
      vertex 0 14.4 0
      vertex 0 14.4 15
    endloop
  endfacet
  facet normal 0 1 -0
    outer loop
      vertex 75.46 14.86 0
      vertex 0 14.86 15
      vertex 75.46 14.86 15
    endloop
  endfacet
  facet normal 0 1 0
    outer loop
      vertex 0 14.86 15
      vertex 75.46 14.86 0
      vertex 0 14.86 0
    endloop
  endfacet
  facet normal 0 -1 0
    outer loop
      vertex 0 14.4 0
      vertex 75 14.4 15
      vertex 0 14.4 15
    endloop
  endfacet
  facet normal 0 -1 -0
    outer loop
      vertex 75 14.4 15
      vertex 0 14.4 0
      vertex 75 14.4 0
    endloop
  endfacet
  facet normal 1 -0 0
    outer loop
      vertex 75.46 13.44 15
      vertex 75.46 14.86 0
      vertex 75.46 14.86 15
    endloop
  endfacet
  facet normal 1 0 0
    outer loop
      vertex 75.46 14.86 0
      vertex 75.46 13.44 15
      vertex 75.46 13.44 0
    endloop
  endfacet
  facet normal 0 1 -0
    outer loop
      vertex 75 13.9 0
      vertex 0 13.9 15
      vertex 75 13.9 15
    endloop
  endfacet
  facet normal 0 1 0
    outer loop
      vertex 0 13.9 15
      vertex 75 13.9 0
      vertex 0 13.9 0
    endloop
  endfacet
endsolid OpenSCAD_Model
