0
SECTION
2
HEADER
9
$INSUNITS
70
4
9
$ACADVER
1
AC1014
9
$HANDSEED
5
FFFF
0
ENDSEC
0
SECTION
2
TABLES
0
TABLE
2
VPORT
5
8
100
AcDbSymbolTable
0
ENDTAB
0
TABLE
2
LTYPE
5
5
100
AcDbSymbolTable
0
LTYPE
5
14
100
AcDbSymbolTableRecord
100
AcDbLinetypeTableRecord
2
BYBLOCK
70
0
0
LTYPE
5
15
100
AcDbSymbolTableRecord
100
AcDbLinetypeTableRecord
2
BYLAYER
70
0
0
ENDTAB
0
TABLE
2
LAYER
5
2
100
AcDbSymbolTable
70
2
0
LAYER
5
50
100
AcDbSymbolTableRecord
100
AcDbLayerTableRecord
2
0
70
0
6
CONTINUOUS
0
ENDTAB
0
TABLE
2
STYLE
5
3
100
AcDbSymbolTable
70
1
0
STYLE
5
11
100
AcDbSymbolTableRecord
100
AcDbTextStyleTableRecord
2
STANDARD
70
0
0
ENDTAB
0
TABLE
2
VIEW
5
6
100
AcDbSymbolTable
70
0
0
ENDTAB
0
TABLE
2
UCS
5
7
100
AcDbSymbolTable
70
0
0
ENDTAB
0
TABLE
2
APPID
5
9
100
AcDbSymbolTable
70
2
0
APPID
5
12
100
AcDbSymbolTableRecord
100
AcDbRegAppTableRecord
2
ACAD
70
0
0
ENDTAB
0
TABLE
2
DIMSTYLE
5
A
100
AcDbSymbolTable
70
1
0
ENDTAB
0
TABLE
2
BLOCK_RECORD
5
1
100
AcDbSymbolTable
70
1
0
BLOCK_RECORD
5
1F
100
AcDbSymbolTableRecord
100
AcDbBlockTableRecord
2
*MODEL_SPACE
0
BLOCK_RECORD
5
1B
100
AcDbSymbolTableRecord
100
AcDbBlockTableRecord
2
*PAPER_SPACE
0
ENDTAB
0
ENDSEC
0
SECTION
2
BLOCKS
0
BLOCK
5
20
100
AcDbEntity
100
AcDbBlockBegin
2
*MODEL_SPACE
0
ENDBLK
5
21
100
AcDbEntity
100
AcDbBlockEnd
0
BLOCK
5
1C
100
AcDbEntity
100
AcDbBlockBegin
2
*PAPER_SPACE
0
ENDBLK
5
1D
100
AcDbEntity
100
AcDbBlockEnd
0
ENDSEC
0
SECTION
2
ENTITIES
0
LWPOLYLINE
5
100
100
AcDbEntity
8
0
100
AcDbPolyline
90
8
70
1
43
0.0
10
490
20
5.0000000000000009
42
-0.41421356237310347
10
485
20
0
10
5
20
-2.2204460492503131e-15
42
-0.41421356237309476
10
0
20
5
10
-1.1102230246251565e-15
20
440
42
-0.41421356237310342
10
5
20
445
10
485
20
445
42
-0.41421356237310336
10
490
20
440
0
CIRCLE
5
101
100
AcDbEntity
8
0
100
AcDbCircle
10
-482.5
20
7.4999999999999476
30
-9.1574714035286016e-42
40
3.5000000000000089
210
-3.8893845486632136e-62
220
0
230
-1
0
CIRCLE
5
102
100
AcDbEntity
8
0
100
AcDbCircle
10
-7.5000000000000018
20
7.499999999999992
30
-1.423441150807555e-43
40
3.4999999999999991
210
-3.8893845486632136e-62
220
0
230
-1
0
CIRCLE
5
103
100
AcDbEntity
8
0
100
AcDbCircle
10
-482.50000000000006
20
437.50000000000006
30
-9.1574714035286028e-42
40
3.4999999999999516
210
-3.8893845486632136e-62
220
0
230
-1
0
CIRCLE
5
104
100
AcDbEntity
8
0
100
AcDbCircle
10
-7.5000000000000355
20
437.49999999999989
30
-1.4234411508075614e-43
40
3.4999999999999707
210
-3.8893845486632136e-62
220
0
230
-1
0
CIRCLE
5
105
100
AcDbEntity
8
0
100
AcDbCircle
10
-147.50000000000003
20
7.4999999999999991
30
-2.7994342632548578e-42
40
1.7500000000000073
210
-3.8893845486632136e-62
220
0
230
-1
0
CIRCLE
5
106
100
AcDbEntity
8
0
100
AcDbCircle
10
-482.50000000000006
20
136.25
30
-9.1574714035286028e-42
40
1.7500000000000437
210
-3.8893845486632136e-62
220
0
230
-1
0
CIRCLE
5
107
100
AcDbEntity
8
0
100
AcDbCircle
10
-342.5
20
7.4999999999999822
30
-6.5003812553545003e-42
40
1.7499999999999758
210
-3.8893845486632136e-62
220
0
230
-1
0
CIRCLE
5
108
100
AcDbEntity
8
0
100
AcDbCircle
10
-7.499999999999984
20
222.49999999999994
30
-1.4234411508075518e-43
40
1.7499999999999809
210
-3.8893845486632136e-62
220
0
230
-1
0
CIRCLE
5
109
100
AcDbEntity
8
0
100
AcDbCircle
10
-342.50000000000006
20
437.5
30
-6.5003812553545015e-42
40
1.7500000000000335
210
-3.8893845486632136e-62
220
0
230
-1
0
CIRCLE
5
110
100
AcDbEntity
8
0
100
AcDbCircle
10
-440
20
7.4999999999999822
30
-8.3508547514043204e-42
40
1.7499999999999758
210
-3.8893845486632136e-62
220
0
230
-1
0
CIRCLE
5
111
100
AcDbEntity
8
0
100
AcDbCircle
10
-244.99999999999997
20
7.4999999999999307
30
-4.6499077593046776e-42
40
1.7499999999999394
210
-3.8893845486632136e-62
220
0
230
-1
0
CIRCLE
5
112
100
AcDbEntity
8
0
100
AcDbCircle
10
-7.4999999999999929
20
395
30
-1.4234411508075534e-43
40
1.7499999999999885
210
-3.8893845486632136e-62
220
0
230
-1
0
CIRCLE
5
113
100
AcDbEntity
8
0
100
AcDbCircle
10
-482.50000000000006
20
222.49999999999997
30
-9.1574714035286028e-42
40
1.750000000000054
210
-3.8893845486632136e-62
220
0
230
-1
0
CIRCLE
5
114
100
AcDbEntity
8
0
100
AcDbCircle
10
-482.50000000000006
20
50.000000000000369
30
-9.1574714035286028e-42
40
1.75000000000004
210
-3.8893845486632136e-62
220
0
230
-1
0
CIRCLE
5
115
100
AcDbEntity
8
0
100
AcDbCircle
10
-482.50000000000006
20
395
30
-9.1574714035286028e-42
40
1.7500000000000335
210
-3.8893845486632136e-62
220
0
230
-1
0
CIRCLE
5
116
100
AcDbEntity
8
0
100
AcDbCircle
10
-482.5
20
308.74999999999994
30
-9.1574714035286016e-42
40
1.7499999999999758
210
-3.8893845486632136e-62
220
0
230
-1
0
CIRCLE
5
117
100
AcDbEntity
8
0
100
AcDbCircle
10
-440.00000000000006
20
437.50000000000006
30
-8.3508547514043216e-42
40
1.7500000000000502
210
-3.8893845486632136e-62
220
0
230
-1
0
CIRCLE
5
118
100
AcDbEntity
8
0
100
AcDbCircle
10
-50.000000000000007
20
7.5000000000000338
30
-9.4896076720503657e-43
40
1.7500000000000067
210
-3.8893845486632136e-62
220
0
230
-1
0
CIRCLE
5
119
100
AcDbEntity
8
0
100
AcDbCircle
10
-7.4999999999999991
20
308.75
30
-1.4234411508075544e-43
40
1.7499999999999711
210
-3.8893845486632136e-62
220
0
230
-1
0
CIRCLE
5
120
100
AcDbEntity
8
0
100
AcDbCircle
10
-7.5000000000000009
20
50.000000000000007
30
-1.423441150807555e-43
40
1.7499999999999993
210
-3.8893845486632136e-62
220
0
230
-1
0
CIRCLE
5
121
100
AcDbEntity
8
0
100
AcDbCircle
10
-7.5000000000000036
20
136.24999999999997
30
-1.4234411508075552e-43
40
1.7500000000000062
210
-3.8893845486632136e-62
220
0
230
-1
0
CIRCLE
5
122
100
AcDbEntity
8
0
100
AcDbCircle
10
-50.000000000000036
20
437.50000000000011
30
-9.489607672050372e-43
40
1.7500000000000191
210
-3.8893845486632136e-62
220
0
230
-1
0
CIRCLE
5
123
100
AcDbEntity
8
0
100
AcDbCircle
10
-147.50000000000003
20
437.50000000000006
30
-2.7994342632548578e-42
40
1.7500000000000047
210
-3.8893845486632136e-62
220
0
230
-1
0
CIRCLE
5
124
100
AcDbEntity
8
0
100
AcDbCircle
10
-245
20
437.50000000000006
30
-4.6499077593046789e-42
40
1.7499999999999758
210
-3.8893845486632136e-62
220
0
230
-1
0
LWPOLYLINE
5
125
100
AcDbEntity
8
0
100
AcDbPolyline
90
8
70
1
43
0.0
10
490
20
5.0000000000000009
42
-0.41421356237310419
10
485
20
0
10
5
20
-3.3306690738754696e-15
42
-0.41421356237309459
10
0
20
5
10
-1.5543122344752192e-14
20
440
42
-0.41421356237310425
10
5
20
445
10
485
20
445
42
-0.41421356237310336
10
490
20
440
0
CIRCLE
5
126
100
AcDbEntity
8
0
100
AcDbCircle
10
482.5
20
7.4999999999999476
30
0
40
3.5000000000000089
210
7.2324951567488512e-61
220
-1.0128903711733918e-60
230
1
0
CIRCLE
5
127
100
AcDbEntity
8
0
100
AcDbCircle
10
7.5000000000000018
20
7.499999999999992
30
0
40
3.4999999999999991
210
-7.2324951567487462e-61
220
1.0128903711733994e-60
230
1
0
CIRCLE
5
128
100
AcDbEntity
8
0
100
AcDbCircle
10
482.50000000000006
20
437.50000000000006
30
0
40
3.4999999999999516
210
-0
220
0
230
1
0
CIRCLE
5
129
100
AcDbEntity
8
0
100
AcDbCircle
10
7.5000000000000355
20
437.49999999999989
30
0
40
3.4999999999999702
210
-0
220
0
230
1
0
CIRCLE
5
130
100
AcDbEntity
8
0
100
AcDbCircle
10
147.50000000000003
20
7.4999999999999991
30
0
40
1.7500000000000073
210
-2.025780742346805e-60
220
1.4464990313497398e-60
230
1
0
CIRCLE
5
131
100
AcDbEntity
8
0
100
AcDbCircle
10
482.50000000000006
20
136.25
30
0
40
1.7500000000000437
210
7.2324951567484657e-61
220
1.0128903711734198e-60
230
1
0
CIRCLE
5
132
100
AcDbEntity
8
0
100
AcDbCircle
10
342.5
20
7.4999999999999822
30
0
40
1.7499999999999758
210
0
220
0
230
1
0
CIRCLE
5
133
100
AcDbEntity
8
0
100
AcDbCircle
10
7.499999999999984
20
222.49999999999994
30
0
40
1.7499999999999809
210
2.0257807423467834e-60
220
-1.44649903134977e-60
230
1
0
CIRCLE
5
134
100
AcDbEntity
8
0
100
AcDbCircle
10
342.50000000000006
20
437.5
30
0
40
1.7500000000000335
210
7.2324951567483786e-61
220
1.0128903711734253e-60
230
1
0
CIRCLE
5
135
100
AcDbEntity
8
0
100
AcDbCircle
10
440
20
7.4999999999999822
30
0
40
1.7499999999999758
210
0
220
0
230
1
0
CIRCLE
5
136
100
AcDbEntity
8
0
100
AcDbCircle
10
244.99999999999997
20
7.4999999999999307
30
0
40
1.7499999999999394
210
7.2324951567493845e-61
220
1.0128903711733537e-60
230
1
0
CIRCLE
5
137
100
AcDbEntity
8
0
100
AcDbCircle
10
7.4999999999999929
20
395
30
0
40
1.7499999999999885
210
0
220
0
230
1
0
CIRCLE
5
138
100
AcDbEntity
8
0
100
AcDbCircle
10
482.50000000000006
20
222.49999999999997
30
0
40
1.750000000000054
210
-2.0257807423468271e-60
220
1.4464990313497094e-60
230
1
0
CIRCLE
5
139
100
AcDbEntity
8
0
100
AcDbCircle
10
482.50000000000006
20
50.000000000000369
30
0
40
1.75000000000004
210
-2.0257807423469451e-60
220
1.4464990313495442e-60
230
1
0
CIRCLE
5
140
100
AcDbEntity
8
0
100
AcDbCircle
10
482.50000000000006
20
395
30
0
40
1.7500000000000335
210
7.2324951567483786e-61
220
1.0128903711734253e-60
230
1
0
CIRCLE
5
141
100
AcDbEntity
8
0
100
AcDbCircle
10
482.5
20
308.74999999999994
30
0
40
1.7499999999999758
210
0
220
0
230
1
0
CIRCLE
5
142
100
AcDbEntity
8
0
100
AcDbCircle
10
440.00000000000006
20
437.50000000000006
30
0
40
1.7500000000000502
210
0
220
0
230
1
0
CIRCLE
5
143
100
AcDbEntity
8
0
100
AcDbCircle
10
50.000000000000007
20
7.5000000000000338
30
0
40
1.7500000000000067
210
7.232495156748514e-61
220
1.0128903711734156e-60
230
1
0
CIRCLE
5
144
100
AcDbEntity
8
0
100
AcDbCircle
10
7.4999999999999991
20
308.75
30
0
40
1.7499999999999714
210
0
220
0
230
1
0
CIRCLE
5
145
100
AcDbEntity
8
0
100
AcDbCircle
10
7.5000000000000009
20
50.000000000000007
30
0
40
1.7499999999999993
210
-7.2324951567487102e-61
220
-1.0128903711734018e-60
230
1
0
CIRCLE
5
146
100
AcDbEntity
8
0
100
AcDbCircle
10
7.5000000000000036
20
136.24999999999997
30
0
40
1.7500000000000062
210
0
220
0
230
1
0
CIRCLE
5
147
100
AcDbEntity
8
0
100
AcDbCircle
10
50.000000000000036
20
437.50000000000011
30
0
40
1.7500000000000191
210
7.2324951567484394e-61
220
1.0128903711734213e-60
230
1
0
CIRCLE
5
148
100
AcDbEntity
8
0
100
AcDbCircle
10
147.50000000000003
20
437.50000000000006
30
0
40
1.7500000000000047
210
7.2324951567484988e-61
220
1.012890371173417e-60
230
1
0
CIRCLE
5
149
100
AcDbEntity
8
0
100
AcDbCircle
10
245
20
437.50000000000006
30
0
40
1.7499999999999758
210
0
220
0
230
1
0
ENDSEC
0
SECTION
2
OBJECTS
0
DICTIONARY
5
C
100
AcDbDictionary
3
ACAD_GROUP
350
D
3
ACAD_MLINESTYLE
350
17
0
DICTIONARY
5
D
100
AcDbDictionary
0
DICTIONARY
5
1A
330
C
100
AcDbDictionary
0
DICTIONARY
5
17
100
AcDbDictionary
0
ENDSEC
0
EOF
