0
SECTION
2
HEADER
9
$INSUNITS
70
4
9
$ACADVER
1
AC1014
9
$HANDSEED
5
FFFF
0
ENDSEC
0
SECTION
2
TABLES
0
TABLE
2
VPORT
5
8
100
AcDbSymbolTable
0
ENDTAB
0
TABLE
2
LTYPE
5
5
100
AcDbSymbolTable
0
LTYPE
5
14
100
AcDbSymbolTableRecord
100
AcDbLinetypeTableRecord
2
BYBLOCK
70
0
0
LTYPE
5
15
100
AcDbSymbolTableRecord
100
AcDbLinetypeTableRecord
2
BYLAYER
70
0
0
ENDTAB
0
TABLE
2
LAYER
5
2
100
AcDbSymbolTable
70
2
0
LAYER
5
50
100
AcDbSymbolTableRecord
100
AcDbLayerTableRecord
2
0
70
0
6
CONTINUOUS
0
ENDTAB
0
TABLE
2
STYLE
5
3
100
AcDbSymbolTable
70
1
0
STYLE
5
11
100
AcDbSymbolTableRecord
100
AcDbTextStyleTableRecord
2
STANDARD
70
0
0
ENDTAB
0
TABLE
2
VIEW
5
6
100
AcDbSymbolTable
70
0
0
ENDTAB
0
TABLE
2
UCS
5
7
100
AcDbSymbolTable
70
0
0
ENDTAB
0
TABLE
2
APPID
5
9
100
AcDbSymbolTable
70
2
0
APPID
5
12
100
AcDbSymbolTableRecord
100
AcDbRegAppTableRecord
2
ACAD
70
0
0
ENDTAB
0
TABLE
2
DIMSTYLE
5
A
100
AcDbSymbolTable
70
1
0
ENDTAB
0
TABLE
2
BLOCK_RECORD
5
1
100
AcDbSymbolTable
70
1
0
BLOCK_RECORD
5
1F
100
AcDbSymbolTableRecord
100
AcDbBlockTableRecord
2
*MODEL_SPACE
0
BLOCK_RECORD
5
1B
100
AcDbSymbolTableRecord
100
AcDbBlockTableRecord
2
*PAPER_SPACE
0
ENDTAB
0
ENDSEC
0
SECTION
2
BLOCKS
0
BLOCK
5
20
100
AcDbEntity
100
AcDbBlockBegin
2
*MODEL_SPACE
0
ENDBLK
5
21
100
AcDbEntity
100
AcDbBlockEnd
0
BLOCK
5
1C
100
AcDbEntity
100
AcDbBlockBegin
2
*PAPER_SPACE
0
ENDBLK
5
1D
100
AcDbEntity
100
AcDbBlockEnd
0
ENDSEC
0
SECTION
2
ENTITIES
0
LWPOLYLINE
5
100
100
AcDbEntity
8
0
100
AcDbPolyline
90
8
70
1
43
0.0
10
490
20
5.0000000000000009
42
-0.41421356237310347
10
485
20
0
10
5
20
-2.2204460492503131e-15
42
-0.41421356237309476
10
0
20
5
10
6.9944050551384862e-14
20
740
42
-0.41421356237310758
10
5
20
745
10
485
20
745
42
-0.41421356237310752
10
490
20
740
0
LWPOLYLINE
5
101
100
AcDbEntity
8
0
100
AcDbPolyline
90
8
70
1
43
0.0
10
40
20
685
10
40
20
60
42
0.41421356237309609
10
50
20
50
10
440
20
49.999999999999986
42
0.4142135623730997
10
450
20
60
10
450
20
685
42
0.41421356237311169
10
440
20
695
10
50
20
695
42
0.41421356237310364
0
CIRCLE
5
102
100
AcDbEntity
8
0
100
AcDbCircle
10
-7.5000000000000302
20
737.49999999999989
30
1.8488927466117525e-31
40
3.4999999999999383
210
-1.6192816040802084e-78
220
0
230
-1
0
CIRCLE
5
103
100
AcDbEntity
8
0
100
AcDbCircle
10
-7.5
20
7.4999999999999982
30
1.8488927466117451e-31
40
3.5000000000000009
210
-1.6192816040802084e-78
220
0
230
-1
0
CIRCLE
5
104
100
AcDbEntity
8
0
100
AcDbCircle
10
-482.5
20
737.50000000000011
30
1.189454333653556e-29
40
3.5000000000000093
210
-1.6192816040802084e-78
220
0
230
-1
0
CIRCLE
5
105
100
AcDbEntity
8
0
100
AcDbCircle
10
-482.5
20
7.4999999999999476
30
1.189454333653556e-29
40
3.5000000000000089
210
-1.6192816040802084e-78
220
0
230
-1
0
CIRCLE
5
106
100
AcDbEntity
8
0
100
AcDbCircle
10
-7.5000000000000009
20
50.000000000000007
30
1.8488927466117453e-31
40
1.7499999999999993
210
-1.6192816040802084e-78
220
0
230
-1
0
CIRCLE
5
107
100
AcDbEntity
8
0
100
AcDbCircle
10
-50.000000000000007
20
7.5000000000000338
30
1.2325951644078302e-30
40
1.7500000000000067
210
-1.6192816040802084e-78
220
0
230
-1
0
CIRCLE
5
108
100
AcDbEntity
8
0
100
AcDbCircle
10
-244.99999999999997
20
7.4999999999999307
30
6.039716305598366e-30
40
1.7499999999999394
210
-1.6192816040802084e-78
220
0
230
-1
0
CIRCLE
5
109
100
AcDbEntity
8
0
100
AcDbCircle
10
-342.5
20
7.4999999999999822
30
8.443276876193635e-30
40
1.7499999999999758
210
-1.6192816040802084e-78
220
0
230
-1
0
CIRCLE
5
110
100
AcDbEntity
8
0
100
AcDbCircle
10
-147.50000000000003
20
7.5000000000000071
30
3.6361557350030992e-30
40
1.7500000000000073
210
-1.6192816040802084e-78
220
0
230
-1
0
CIRCLE
5
111
100
AcDbEntity
8
0
100
AcDbCircle
10
-482.50000000000006
20
695.00000000000011
30
1.1894543336535562e-29
40
1.7500000000000089
210
-1.6192816040802084e-78
220
0
230
-1
0
CIRCLE
5
112
100
AcDbEntity
8
0
100
AcDbCircle
10
-482.5
20
264.99999999999994
30
1.189454333653556e-29
40
1.7499999999999758
210
-1.6192816040802084e-78
220
0
230
-1
0
CIRCLE
5
113
100
AcDbEntity
8
0
100
AcDbCircle
10
-7.4999999999999893
20
587.50000715255715
30
1.8488927466117423e-31
40
1.7499999999999793
210
-1.6192816040802084e-78
220
0
230
-1
0
CIRCLE
5
114
100
AcDbEntity
8
0
100
AcDbCircle
10
-482.50000000000006
20
480.00000715255692
30
1.1894543336535562e-29
40
1.7500000000000335
210
-1.6192816040802084e-78
220
0
230
-1
0
CIRCLE
5
115
100
AcDbEntity
8
0
100
AcDbCircle
10
-482.50000000000006
20
50.000000000000369
30
1.1894543336535562e-29
40
1.75000000000004
210
-1.6192816040802084e-78
220
0
230
-1
0
CIRCLE
5
116
100
AcDbEntity
8
0
100
AcDbCircle
10
-482.50000000000006
20
587.50000715255715
30
1.1894543336535562e-29
40
1.7500000000000335
210
-1.6192816040802084e-78
220
0
230
-1
0
CIRCLE
5
117
100
AcDbEntity
8
0
100
AcDbCircle
10
-7.5000000000000009
20
265
30
1.8488927466117453e-31
40
1.7500000000000171
210
-1.6192816040802084e-78
220
0
230
-1
0
CIRCLE
5
118
100
AcDbEntity
8
0
100
AcDbCircle
10
-440
20
7.4999999999999822
30
1.0846837446788904e-29
40
1.7499999999999758
210
-1.6192816040802084e-78
220
0
230
-1
0
CIRCLE
5
119
100
AcDbEntity
8
0
100
AcDbCircle
10
-482.50000000000006
20
157.5
30
1.1894543336535562e-29
40
1.7500000000000437
210
-1.6192816040802084e-78
220
0
230
-1
0
CIRCLE
5
120
100
AcDbEntity
8
0
100
AcDbCircle
10
-7.4999999999999956
20
480.0000071525568
30
1.848892746611744e-31
40
1.7500000000000324
210
-1.6192816040802084e-78
220
0
230
-1
0
CIRCLE
5
121
100
AcDbEntity
8
0
100
AcDbCircle
10
-482.50000000000006
20
372.50000000000006
30
1.1894543336535562e-29
40
1.7500000000000335
210
-1.6192816040802084e-78
220
0
230
-1
0
CIRCLE
5
122
100
AcDbEntity
8
0
100
AcDbCircle
10
-7.5000000000000036
20
157.49999999999997
30
1.848892746611746e-31
40
1.7500000000000062
210
-1.6192816040802084e-78
220
0
230
-1
0
CIRCLE
5
123
100
AcDbEntity
8
0
100
AcDbCircle
10
-147.50000000000003
20
737.5
30
3.6361557350030992e-30
40
1.7500000000000047
210
-1.6192816040802084e-78
220
0
230
-1
0
CIRCLE
5
124
100
AcDbEntity
8
0
100
AcDbCircle
10
-342.5
20
737.5
30
8.443276876193635e-30
40
1.7499999999999758
210
-1.6192816040802084e-78
220
0
230
-1
0
CIRCLE
5
125
100
AcDbEntity
8
0
100
AcDbCircle
10
-245
20
737.49999999999989
30
6.0397163055983674e-30
40
1.7499999999999469
210
-1.6192816040802084e-78
220
0
230
-1
0
CIRCLE
5
126
100
AcDbEntity
8
0
100
AcDbCircle
10
-50
20
737.5
30
1.2325951644078301e-30
40
1.7499999999999758
210
-1.6192816040802084e-78
220
0
230
-1
0
CIRCLE
5
127
100
AcDbEntity
8
0
100
AcDbCircle
10
-7.5000000000000133
20
372.50000000000006
30
1.8488927466117484e-31
40
1.7499999999999991
210
-1.6192816040802084e-78
220
0
230
-1
0
CIRCLE
5
128
100
AcDbEntity
8
0
100
AcDbCircle
10
-7.4999999999999991
20
695
30
1.8488927466117447e-31
40
1.7499999999999758
210
-1.6192816040802084e-78
220
0
230
-1
0
CIRCLE
5
129
100
AcDbEntity
8
0
100
AcDbCircle
10
-440.00000000000006
20
737.50000000000011
30
1.0846837446788905e-29
40
1.7500000000000089
210
-1.6192816040802084e-78
220
0
230
-1
0
LWPOLYLINE
5
130
100
AcDbEntity
8
0
100
AcDbPolyline
90
8
70
1
43
0.0
10
490
20
5.0000000000000009
42
-0.41421356237310419
10
485
20
0
10
5
20
-3.3306690738754696e-15
42
-0.41421356237309459
10
0
20
5
10
4.9960036108132044e-14
20
740
42
-0.41421356237310875
10
5
20
745
10
485
20
745
42
-0.41421356237310752
10
490
20
740
0
CIRCLE
5
131
100
AcDbEntity
8
0
100
AcDbCircle
10
7.5000000000000302
20
737.49999999999989
30
0
40
3.4999999999999392
210
-0
220
0
230
1
0
CIRCLE
5
132
100
AcDbEntity
8
0
100
AcDbCircle
10
7.5
20
7.4999999999999982
30
0
40
3.5000000000000013
210
-0
220
0
230
1
0
CIRCLE
5
133
100
AcDbEntity
8
0
100
AcDbCircle
10
482.5
20
737.50000000000011
30
0
40
3.5000000000000093
210
-0
220
0
230
1
0
CIRCLE
5
134
100
AcDbEntity
8
0
100
AcDbCircle
10
482.5
20
7.4999999999999476
30
0
40
3.5000000000000089
210
-0
220
0
230
1
0
LWPOLYLINE
5
135
100
AcDbEntity
8
0
100
AcDbPolyline
90
8
70
1
43
0.0
10
40
20
685
10
40
20
60
42
0.41421356237309609
10
50
20
50
10
440
20
49.999999999999986
42
0.4142135623730997
10
450
20
60
10
450
20
685
42
0.41421356237311169
10
440
20
695
10
50
20
695
42
0.41421356237310364
0
CIRCLE
5
136
100
AcDbEntity
8
0
100
AcDbCircle
10
7.5000000000000009
20
50.000000000000007
30
0
40
1.7499999999999993
210
0
220
0
230
1
0
CIRCLE
5
137
100
AcDbEntity
8
0
100
AcDbCircle
10
50.000000000000007
20
7.5000000000000338
30
0
40
1.7500000000000067
210
0
220
0
230
1
0
CIRCLE
5
138
100
AcDbEntity
8
0
100
AcDbCircle
10
244.99999999999997
20
7.4999999999999307
30
0
40
1.7499999999999394
210
0
220
0
230
1
0
CIRCLE
5
139
100
AcDbEntity
8
0
100
AcDbCircle
10
342.5
20
7.4999999999999822
30
0
40
1.7499999999999758
210
0
220
0
230
1
0
CIRCLE
5
140
100
AcDbEntity
8
0
100
AcDbCircle
10
147.50000000000003
20
7.5000000000000071
30
0
40
1.7500000000000073
210
0
220
0
230
1
0
CIRCLE
5
141
100
AcDbEntity
8
0
100
AcDbCircle
10
482.50000000000006
20
695.00000000000011
30
0
40
1.7500000000000089
210
0
220
0
230
1
0
CIRCLE
5
142
100
AcDbEntity
8
0
100
AcDbCircle
10
482.5
20
264.99999999999994
30
0
40
1.7499999999999758
210
0
220
0
230
1
0
CIRCLE
5
143
100
AcDbEntity
8
0
100
AcDbCircle
10
7.4999999999999893
20
587.50000715255715
30
0
40
1.7499999999999793
210
0
220
0
230
1
0
CIRCLE
5
144
100
AcDbEntity
8
0
100
AcDbCircle
10
482.50000000000006
20
480.00000715255692
30
0
40
1.7500000000000335
210
0
220
0
230
1
0
CIRCLE
5
145
100
AcDbEntity
8
0
100
AcDbCircle
10
482.50000000000006
20
50.000000000000369
30
0
40
1.75000000000004
210
0
220
0
230
1
0
CIRCLE
5
146
100
AcDbEntity
8
0
100
AcDbCircle
10
482.50000000000006
20
587.50000715255715
30
0
40
1.7500000000000335
210
0
220
0
230
1
0
CIRCLE
5
147
100
AcDbEntity
8
0
100
AcDbCircle
10
7.5000000000000009
20
265
30
0
40
1.7500000000000171
210
1.59044250453576e-48
220
2.2273694815350095e-48
230
1
0
CIRCLE
5
148
100
AcDbEntity
8
0
100
AcDbCircle
10
440
20
7.4999999999999822
30
0
40
1.7499999999999758
210
0
220
0
230
1
0
CIRCLE
5
149
100
AcDbEntity
8
0
100
AcDbCircle
10
482.50000000000006
20
157.5
30
0
40
1.7500000000000437
210
-2.2273694815350472e-48
220
1.5904425045357083e-48
230
1
0
CIRCLE
5
150
100
AcDbEntity
8
0
100
AcDbCircle
10
7.4999999999999956
20
480.0000071525568
30
0
40
1.7500000000000324
210
0
220
0
230
1
0
CIRCLE
5
151
100
AcDbEntity
8
0
100
AcDbCircle
10
482.50000000000006
20
372.50000000000006
30
0
40
1.7500000000000335
210
0
220
0
230
1
0
CIRCLE
5
152
100
AcDbEntity
8
0
100
AcDbCircle
10
7.5000000000000036
20
157.49999999999997
30
0
40
1.7500000000000062
210
0
220
0
230
1
0
CIRCLE
5
153
100
AcDbEntity
8
0
100
AcDbCircle
10
147.50000000000003
20
737.5
30
0
40
1.7500000000000047
210
0
220
0
230
1
0
CIRCLE
5
154
100
AcDbEntity
8
0
100
AcDbCircle
10
342.5
20
737.5
30
0
40
1.7499999999999758
210
0
220
0
230
1
0
CIRCLE
5
155
100
AcDbEntity
8
0
100
AcDbCircle
10
245
20
737.49999999999989
30
0
40
1.7499999999999472
210
0
220
0
230
1
0
CIRCLE
5
156
100
AcDbEntity
8
0
100
AcDbCircle
10
50
20
737.5
30
0
40
1.7499999999999758
210
0
220
0
230
1
0
CIRCLE
5
157
100
AcDbEntity
8
0
100
AcDbCircle
10
7.5000000000000133
20
372.50000000000006
30
0
40
1.7499999999999991
210
1.5904425045357208e-48
220
2.2273694815350374e-48
230
1
0
CIRCLE
5
158
100
AcDbEntity
8
0
100
AcDbCircle
10
7.4999999999999991
20
695
30
0
40
1.7499999999999758
210
0
220
0
230
1
0
CIRCLE
5
159
100
AcDbEntity
8
0
100
AcDbCircle
10
440.00000000000006
20
737.50000000000011
30
0
40
1.7500000000000089
210
0
220
0
230
1
0
ENDSEC
0
SECTION
2
OBJECTS
0
DICTIONARY
5
C
100
AcDbDictionary
3
ACAD_GROUP
350
D
3
ACAD_MLINESTYLE
350
17
0
DICTIONARY
5
D
100
AcDbDictionary
0
DICTIONARY
5
1A
330
C
100
AcDbDictionary
0
DICTIONARY
5
17
100
AcDbDictionary
0
ENDSEC
0
EOF
