0
SECTION
2
HEADER
9
$INSUNITS
70
4
9
$ACADVER
1
AC1014
9
$HANDSEED
5
FFFF
0
ENDSEC
0
SECTION
2
TABLES
0
TABLE
2
VPORT
5
8
100
AcDbSymbolTable
0
ENDTAB
0
TABLE
2
LTYPE
5
5
100
AcDbSymbolTable
0
LTYPE
5
14
100
AcDbSymbolTableRecord
100
AcDbLinetypeTableRecord
2
BYBLOCK
70
0
0
LTYPE
5
15
100
AcDbSymbolTableRecord
100
AcDbLinetypeTableRecord
2
BYLAYER
70
0
0
ENDTAB
0
TABLE
2
LAYER
5
2
100
AcDbSymbolTable
70
2
0
LAYER
5
50
100
AcDbSymbolTableRecord
100
AcDbLayerTableRecord
2
0
70
0
6
CONTINUOUS
0
ENDTAB
0
TABLE
2
STYLE
5
3
100
AcDbSymbolTable
70
1
0
STYLE
5
11
100
AcDbSymbolTableRecord
100
AcDbTextStyleTableRecord
2
STANDARD
70
0
0
ENDTAB
0
TABLE
2
VIEW
5
6
100
AcDbSymbolTable
70
0
0
ENDTAB
0
TABLE
2
UCS
5
7
100
AcDbSymbolTable
70
0
0
ENDTAB
0
TABLE
2
APPID
5
9
100
AcDbSymbolTable
70
2
0
APPID
5
12
100
AcDbSymbolTableRecord
100
AcDbRegAppTableRecord
2
ACAD
70
0
0
ENDTAB
0
TABLE
2
DIMSTYLE
5
A
100
AcDbSymbolTable
70
1
0
ENDTAB
0
TABLE
2
BLOCK_RECORD
5
1
100
AcDbSymbolTable
70
1
0
BLOCK_RECORD
5
1F
100
AcDbSymbolTableRecord
100
AcDbBlockTableRecord
2
*MODEL_SPACE
0
BLOCK_RECORD
5
1B
100
AcDbSymbolTableRecord
100
AcDbBlockTableRecord
2
*PAPER_SPACE
0
ENDTAB
0
ENDSEC
0
SECTION
2
BLOCKS
0
BLOCK
5
20
100
AcDbEntity
100
AcDbBlockBegin
2
*MODEL_SPACE
0
ENDBLK
5
21
100
AcDbEntity
100
AcDbBlockEnd
0
BLOCK
5
1C
100
AcDbEntity
100
AcDbBlockBegin
2
*PAPER_SPACE
0
ENDBLK
5
1D
100
AcDbEntity
100
AcDbBlockEnd
0
ENDSEC
0
SECTION
2
ENTITIES
0
LWPOLYLINE
5
100
100
AcDbEntity
8
0
100
AcDbPolyline
90
8
70
1
43
0.0
10
-240.00000000000318
20
-7.4999999999976978
42
-0.41421356237310336
10
-245.00000000000318
20
-2.4999999999977263
10
-245.00000000000327
20
442.50000000000193
42
-0.41421356237310336
10
-240.00000000000327
20
447.50000000000193
10
239.99999999999673
20
447.50000000000199
42
-0.41421356237308876
10
244.99999999999673
20
442.50000000000199
10
244.99999999999682
20
-2.4999999999976015
42
-0.41421356237309492
10
239.99999999999682
20
-7.4999999999975984
0
CIRCLE
5
101
100
AcDbEntity
8
0
100
AcDbCircle
10
169.99999999999628
20
121.25000000000229
30
1.6986412276764895e-13
40
1.7500000000000075
210
5.7615396792729921e-17
220
-8.0688724123427407e-17
230
1
0
CIRCLE
5
102
100
AcDbEntity
8
0
100
AcDbCircle
10
-170.00000000000426
20
22.500000000002331
30
-1.5432100042289676e-13
40
1.7500000000000437
210
-2.5546156644259811e-15
220
-1.8809790121018463e-15
230
1
0
CIRCLE
5
103
100
AcDbEntity
8
0
100
AcDbCircle
10
169.99999999999625
20
417.50000000000205
30
-2.19824158875781e-13
40
1.7500000000000191
210
0
220
0
230
1
0
CIRCLE
5
104
100
AcDbEntity
8
0
100
AcDbCircle
10
-170.00000000000364
20
121.25000000000178
30
-2.3980817331903381e-13
40
1.750000000000407
210
0
220
0
230
1
0
CIRCLE
5
105
100
AcDbEntity
8
0
100
AcDbCircle
10
-170.00000000000335
20
318.75000000000216
30
-4.0412118096355698e-13
40
1.7500000000000335
210
-2.555261638825548e-15
220
3.0338388649265766e-16
230
1
0
CIRCLE
5
106
100
AcDbEntity
8
0
100
AcDbCircle
10
169.99999999999628
20
220.00000000000213
30
2.2426505097428162e-13
40
1.7500000000000036
210
-3.7613576930472952e-15
220
1.992487098530595e-15
230
1
0
CIRCLE
5
107
100
AcDbEntity
8
0
100
AcDbCircle
10
169.99999999999625
20
22.500000000002359
30
2.5646151868841116e-13
40
1.7500000000000515
210
-2.5546156644259306e-15
220
-1.8809790121018913e-15
230
1
0
CIRCLE
5
108
100
AcDbEntity
8
0
100
AcDbCircle
10
-170.00000000000364
20
220.00000000000173
30
-1.8429702208777599e-13
40
1.7500000000003968
210
-2.5837463500214074e-15
220
-7.4845320074323159e-16
230
1
0
CIRCLE
5
109
100
AcDbEntity
8
0
100
AcDbCircle
10
-170.00000000000335
20
417.50000000000205
30
-6.2949645496246376e-13
40
1.7500000000000335
210
-5.7615396792725607e-17
220
8.0688724123425287e-17
230
1
0
CIRCLE
5
110
100
AcDbEntity
8
0
100
AcDbCircle
10
169.99999999999625
20
318.75000000000216
30
0
40
1.7500000000000191
210
2.848471119655784e-17
220
1.0518370872355863e-15
230
1
0
CIRCLE
5
111
100
AcDbEntity
8
0
100
AcDbCircle
10
-225.60674707806834
20
319.62487203008612
30
1.9984014443252818e-14
40
1.7500000000000502
210
0
220
0
230
1
0
CIRCLE
5
112
100
AcDbEntity
8
0
100
AcDbCircle
10
-225.60674707806825
20
64.581931081280914
30
1.9984014443252818e-14
40
1.7500000000000386
210
-2.913068559613437e-17
220
1.1325258113589544e-15
230
1
0
CIRCLE
5
113
100
AcDbEntity
8
0
100
AcDbCircle
10
-194.60674707806822
20
95.581931081281198
30
1.8873791418627661e-14
40
1.7500000000000437
210
-6.0304802711080509e-16
220
8.4455160601900752e-16
230
1
0
CIRCLE
5
114
100
AcDbEntity
8
0
100
AcDbCircle
10
-225.60674707806834
20
350.62487203008618
30
1.9984014443252818e-14
40
1.7500000000000502
210
0
220
0
230
1
0
CIRCLE
5
115
100
AcDbEntity
8
0
100
AcDbCircle
10
-194.60674707806831
20
319.62487203008612
30
1.9984014443252818e-14
40
1.7500000000000335
210
0
220
0
230
1
0
CIRCLE
5
116
100
AcDbEntity
8
0
100
AcDbCircle
10
-194.60674707806822
20
64.581931081281013
30
1.9984014443252818e-14
40
1.75000000000004
210
-2.9130685596081023e-17
220
1.1325258113589906e-15
230
1
0
CIRCLE
5
117
100
AcDbEntity
8
0
100
AcDbCircle
10
-225.60674707806825
20
95.581931081281297
30
1.8873791418627661e-14
40
1.75000000000004
210
-6.0304802711076653e-16
220
8.4455160601908453e-16
230
1
0
CIRCLE
5
118
100
AcDbEntity
8
0
100
AcDbCircle
10
-194.60674707806831
20
350.62487203008607
30
1.9984014443252818e-14
40
1.7500000000000335
210
0
220
0
230
1
0
CIRCLE
5
119
100
AcDbEntity
8
0
100
AcDbCircle
10
237.49999999999676
20
440.00000000000193
30
1.9984014443252818e-14
40
3.5000000000000271
210
1.4565342798076303e-17
220
-5.6626290567947432e-16
230
1
0
CIRCLE
5
120
100
AcDbEntity
8
0
100
AcDbCircle
10
237.49999999999682
20
2.3958612871410878e-12
30
1.8873791418627661e-14
40
3.7499999999999996
210
2.8142241265170644e-16
220
-3.941240828088445e-16
230
1
0
CIRCLE
5
121
100
AcDbEntity
8
0
100
AcDbCircle
10
-237.50000000000335
20
440.00000000000205
30
1.8873791418627661e-14
40
3.4999999999999347
210
3.0152401355541965e-16
220
-4.2227580300948877e-16
230
1
0
CIRCLE
5
122
100
AcDbEntity
8
0
100
AcDbCircle
10
-237.50000000000327
20
2.4735768988648488e-12
30
1.8873791418627661e-14
40
3.4999999999999485
210
3.0152401355541694e-16
220
-4.2227580300944888e-16
230
1
0
CIRCLE
5
123
100
AcDbEntity
8
0
100
AcDbCircle
10
194.39325292193138
20
223.08193108128529
30
1.9984014443252818e-14
40
1.7499999999999614
210
0
220
0
230
1
0
CIRCLE
5
124
100
AcDbEntity
8
0
100
AcDbCircle
10
225.39325292193138
20
223.08193108128518
30
1.8873791418627661e-14
40
1.7499999999999927
210
-6.0304802711081712e-16
220
8.4455160601896502e-16
230
1
0
CIRCLE
5
125
100
AcDbEntity
8
0
100
AcDbCircle
10
194.39325292193138
20
192.08193108128523
30
1.9984014443252818e-14
40
1.7499999999999902
210
0
220
0
230
1
0
CIRCLE
5
126
100
AcDbEntity
8
0
100
AcDbCircle
10
225.39325292193138
20
192.08193108128518
30
1.8873791418627661e-14
40
1.7499999999999891
210
-6.0304802711081643e-16
220
8.4455160601896137e-16
230
1
0
CIRCLE
5
127
100
AcDbEntity
8
0
100
AcDbCircle
10
-210.00022838775828
20
335.29778900447815
30
1.9984014443252818e-14
40
12.499999999999984
210
-4.0782959834627765e-18
220
1.5855361359025877e-16
230
1
0
CIRCLE
5
128
100
AcDbEntity
8
0
100
AcDbCircle
10
-210.00015089203231
20
80.254848055673108
30
1.8873791418627661e-14
40
12.500000000000073
210
-8.4426723795508334e-17
220
1.1823722484265157e-16
230
1
0
CIRCLE
5
129
100
AcDbEntity
8
0
100
AcDbCircle
10
209.99989609518559
20
207.7548480556772
30
1.9984014443252818e-14
40
12.5
210
-4.0782959834639837e-18
220
1.5855361359025734e-16
230
1
0
CIRCLE
5
130
100
AcDbEntity
8
0
100
AcDbCircle
10
-237.50000000000327
20
131.25000000000219
30
1.9984014443252818e-14
40
1.7500000000000437
210
0
220
0
230
1
0
CIRCLE
5
131
100
AcDbEntity
8
0
100
AcDbCircle
10
-237.50000000000327
20
220.00000000000205
30
1.9984014443252818e-14
40
1.750000000000054
210
0
220
0
230
1
0
CIRCLE
5
132
100
AcDbEntity
8
0
100
AcDbCircle
10
0
20
0
30
0
40
1.7499999999999682
210
-6.0304802711083112e-16
220
8.445516060189027e-16
230
1
0
CIRCLE
5
133
100
AcDbEntity
8
0
100
AcDbCircle
10
-237.50000000000327
20
308.75000000000205
30
1.8873791418627661e-14
40
1.7499999999999758
210
-6.0304802711081081e-16
220
8.4455160601898839e-16
230
1
0
CIRCLE
5
134
100
AcDbEntity
8
0
100
AcDbCircle
10
-237.50000000000335
20
397.50000000000205
30
1.9984014443252818e-14
40
1.7500000000000335
210
0
220
0
230
1
0
CIRCLE
5
135
100
AcDbEntity
8
0
100
AcDbCircle
10
-97.500000000003197
20
2.3225865675158275e-12
30
1.9984014443252818e-14
40
1.7499999999999758
210
0
220
0
230
1
0
CIRCLE
5
136
100
AcDbEntity
8
0
100
AcDbCircle
10
237.49999999999682
20
42.500000000002359
30
1.9984014443252818e-14
40
1.7499999999999993
210
-5.7615396792731129e-17
220
8.0688724123427444e-17
230
1
0
CIRCLE
5
137
100
AcDbEntity
8
0
100
AcDbCircle
10
194.99999999999682
20
2.4191759706582161e-12
30
1.9984014443252818e-14
40
1.7500000000000067
210
-5.826137119230128e-17
220
2.2650516227179647e-15
230
1
0
CIRCLE
5
138
100
AcDbEntity
8
0
100
AcDbCircle
10
-195.00000000000335
20
440.00000000000205
30
1.9984014443252818e-14
40
1.7500000000000502
210
0
220
0
230
1
0
CIRCLE
5
139
100
AcDbEntity
8
0
100
AcDbCircle
10
237.49999999999673
20
397.50000000000216
30
1.9984014443252818e-14
40
1.7500000000000047
210
-2.9130685596131812e-17
220
1.1325258113589599e-15
230
1
0
CIRCLE
5
140
100
AcDbEntity
8
0
100
AcDbCircle
10
-195.00000000000318
20
2.2992718839986992e-12
30
1.9984014443252818e-14
40
1.7499999999999758
210
0
220
0
230
1
0
CIRCLE
5
141
100
AcDbEntity
8
0
100
AcDbCircle
10
-237.50000000000327
20
42.500000000002572
30
1.9984014443252818e-14
40
1.75000000000004
210
-2.9130685596109718e-17
220
1.1325258113590309e-15
230
1
0
CIRCLE
5
142
100
AcDbEntity
8
0
100
AcDbCircle
10
237.49999999999676
20
131.2500000000023
30
1.9984014443252818e-14
40
1.7500000000000098
210
2.913068559615912e-17
220
-1.1325258113589577e-15
230
1
0
CIRCLE
5
143
100
AcDbEntity
8
0
100
AcDbCircle
10
97.499999999996788
20
2.3736568266485847e-12
30
1.9984014443252818e-14
40
1.7500000000000073
210
-5.8261371192330073e-17
220
2.265051622717945e-15
230
1
0
CIRCLE
5
144
100
AcDbEntity
8
0
100
AcDbCircle
10
194.9999999999967
20
440.00000000000205
30
1.9984014443252818e-14
40
1.7500000000000191
210
-2.9130685596134474e-17
220
1.1325258113589642e-15
230
1
0
CIRCLE
5
145
100
AcDbEntity
8
0
100
AcDbCircle
10
97.499999999996703
20
440.00000000000216
30
1.9984014443252818e-14
40
1.7500000000000191
210
0
220
0
230
1
0
CIRCLE
5
146
100
AcDbEntity
8
0
100
AcDbCircle
10
-3.3040237212844659e-12
20
440.00000000000199
30
1.9984014443252818e-14
40
1.7500000000000047
210
-5.7615396792730402e-17
220
8.0688724123429983e-17
230
1
0
CIRCLE
5
147
100
AcDbEntity
8
0
100
AcDbCircle
10
-97.50000000000334
20
440.00000000000199
30
1.9984014443252818e-14
40
1.7500000000000335
210
0
220
0
230
1
0
CIRCLE
5
148
100
AcDbEntity
8
0
100
AcDbCircle
10
237.49999999999676
20
308.7500000000021
30
1.8873791418627661e-14
40
1.7499999999999667
210
-6.0304802711082648e-16
220
8.4455160601900367e-16
230
1
0
CIRCLE
5
149
100
AcDbEntity
8
0
100
AcDbCircle
10
237.49999999999676
20
220.00000000000222
30
1.9984014443252818e-14
40
1.7499999999999847
210
-2.9130685596165622e-17
220
1.1325258113589658e-15
230
1
0
LWPOLYLINE
5
150
100
AcDbEntity
8
0
100
AcDbPolyline
90
8
70
1
43
0.0
10
-240.00000000000318
20
-7.4999999999977103
42
-0.41421356237310408
10
-245.00000000000318
20
-2.4999999999977263
10
-245.0000000000033
20
442.50000000000233
42
-0.41421356237310542
10
-240.00000000000327
20
447.50000000000233
10
239.99999999999673
20
447.50000000000239
42
-0.41421356237308671
10
244.99999999999673
20
442.50000000000239
10
244.99999999999682
20
-2.4999999999976028
42
-0.41421356237309431
10
239.99999999999682
20
-7.4999999999976055
0
CIRCLE
5
151
100
AcDbEntity
8
0
100
AcDbCircle
10
169.99999999999628
20
121.2500000000024
30
0
40
1.7500000000000075
210
2.9465985959931648e-33
220
-4.1266275067044594e-33
230
1
0
CIRCLE
5
152
100
AcDbEntity
8
0
100
AcDbCircle
10
-170.00000000000426
20
22.500000000002352
30
0
40
1.7500000000000437
210
2.2527044825997399e-31
220
1.6544097235646268e-31
230
1
0
CIRCLE
5
153
100
AcDbEntity
8
0
100
AcDbCircle
10
169.99999999999625
20
417.50000000000239
30
0
40
1.7500000000000191
210
1.1958098849126896e-39
220
8.5386231789364694e-40
230
1
0
CIRCLE
5
154
100
AcDbEntity
8
0
100
AcDbCircle
10
-170.00000000000364
20
121.25000000000188
30
0
40
1.750000000000407
210
8.538623178938303e-40
220
-1.1958098849125582e-39
230
1
0
CIRCLE
5
155
100
AcDbEntity
8
0
100
AcDbCircle
10
-170.00000000000335
20
318.75000000000239
30
0
40
1.7500000000000335
210
6.249719224837907e-32
220
-9.1424817048285094e-32
230
1
0
CIRCLE
5
156
100
AcDbEntity
8
0
100
AcDbCircle
10
169.99999999999628
20
220.0000000000023
30
0
40
1.7500000000000036
210
-1.0122229203978229e-31
220
1.3785883371840413e-31
230
1
0
CIRCLE
5
157
100
AcDbEntity
8
0
100
AcDbCircle
10
169.99999999999625
20
22.50000000000238
30
0
40
1.7500000000000517
210
2.2527050358904324e-31
220
1.6544088728399503e-31
230
1
0
CIRCLE
5
158
100
AcDbEntity
8
0
100
AcDbCircle
10
-170.00000000000364
20
220.00000000000193
30
0
40
1.7500000000003968
210
-1.935982636982693e-32
220
2.3215095591702411e-32
230
1
0
CIRCLE
5
159
100
AcDbEntity
8
0
100
AcDbCircle
10
-170.00000000000335
20
417.50000000000239
30
0
40
1.7500000000000335
210
2.9465340444044763e-33
220
-4.1265345754810712e-33
230
1
0
CIRCLE
5
160
100
AcDbEntity
8
0
100
AcDbCircle
10
169.99999999999625
20
318.75000000000239
30
0
40
1.7500000000000191
210
-1.9362535606805772e-32
220
2.321717290875565e-32
230
1
0
CIRCLE
5
161
100
AcDbEntity
8
0
100
AcDbCircle
10
-225.60674707806834
20
319.62487203008641
30
0
40
1.7500000000000502
210
-0
220
0
230
1
0
CIRCLE
5
162
100
AcDbEntity
8
0
100
AcDbCircle
10
-225.60674707806825
20
64.58193108128097
30
0
40
1.7500000000000386
210
-1.9362385632747767e-32
220
2.321718791619785e-32
230
1
0
CIRCLE
5
163
100
AcDbEntity
8
0
100
AcDbCircle
10
-194.60674707806822
20
95.581931081281283
30
0
40
1.7500000000000437
210
-1.7518294764469129e-32
220
2.4533870915865156e-32
230
1
0
CIRCLE
5
164
100
AcDbEntity
8
0
100
AcDbCircle
10
-225.60674707806834
20
350.62487203008641
30
0
40
1.7500000000000502
210
-0
220
0
230
1
0
CIRCLE
5
165
100
AcDbEntity
8
0
100
AcDbCircle
10
-194.60674707806831
20
319.62487203008641
30
0
40
1.7500000000000335
210
1.1958098849126946e-39
220
8.5386231789363993e-40
230
1
0
CIRCLE
5
166
100
AcDbEntity
8
0
100
AcDbCircle
10
-194.60674707806822
20
64.58193108128107
30
0
40
1.75000000000004
210
-1.9362322117924705e-32
220
2.3218092689595337e-32
230
1
0
CIRCLE
5
167
100
AcDbEntity
8
0
100
AcDbCircle
10
-225.60674707806825
20
95.581931081281382
30
0
40
1.75000000000004
210
-1.7518738430925063e-32
220
2.4534494786678795e-32
230
1
0
CIRCLE
5
168
100
AcDbEntity
8
0
100
AcDbCircle
10
-194.60674707806831
20
350.62487203008635
30
0
40
1.7500000000000335
210
1.1958098849126946e-39
220
8.5386231789363993e-40
230
1
0
CIRCLE
5
169
100
AcDbEntity
8
0
100
AcDbCircle
10
237.49999999999676
20
440.00000000000233
30
0
40
3.5000000000000271
210
-1.936259766727002e-32
220
2.3216819853221489e-32
230
1
0
CIRCLE
5
170
100
AcDbEntity
8
0
100
AcDbCircle
10
237.49999999999682
20
2.3958612871410878e-12
30
0
40
3.7499999999999991
210
1.5225587858883569e-32
220
-2.1323002647748011e-32
230
1
0
CIRCLE
5
171
100
AcDbEntity
8
0
100
AcDbCircle
10
-237.50000000000335
20
440.0000000000025
30
0
40
3.4999999999999347
210
-1.7518245240455758e-32
220
2.4533801558891064e-32
230
1
0
CIRCLE
5
172
100
AcDbEntity
8
0
100
AcDbCircle
10
-237.50000000000327
20
2.4735768988648488e-12
30
0
40
3.4999999999999485
210
-1.7517984982416977e-32
220
2.4533442132029746e-32
230
1
0
CIRCLE
5
173
100
AcDbEntity
8
0
100
AcDbCircle
10
194.39325292193138
20
223.08193108128546
30
0
40
1.7499999999999614
210
-0
220
0
230
1
0
CIRCLE
5
174
100
AcDbEntity
8
0
100
AcDbCircle
10
225.39325292193138
20
223.08193108128535
30
0
40
1.7499999999999927
210
-1.7518236359884759e-32
220
2.4533791650464597e-32
230
1
0
CIRCLE
5
175
100
AcDbEntity
8
0
100
AcDbCircle
10
194.39325292193138
20
192.08193108128538
30
0
40
1.7499999999999902
210
1.1958098849126794e-39
220
8.5386231789366097e-40
230
1
0
CIRCLE
5
176
100
AcDbEntity
8
0
100
AcDbCircle
10
225.39325292193138
20
192.08193108128535
30
0
40
1.7499999999999891
210
-1.7518239263419315e-32
220
2.4533793188222023e-32
230
1
0
CIRCLE
5
177
100
AcDbEntity
8
0
100
AcDbCircle
10
-210.00022838775828
20
335.29778900447843
30
0
40
12.499999999999982
210
8.7993143041554426e-33
220
-1.6783814301871337e-33
230
1
0
CIRCLE
5
178
100
AcDbEntity
8
0
100
AcDbCircle
10
-210.00015089203231
20
80.254848055673179
30
0
40
12.500000000000073
210
3.7651938385708639e-33
220
-5.273046855940592e-33
230
1
0
CIRCLE
5
179
100
AcDbEntity
8
0
100
AcDbCircle
10
209.99989609518559
20
207.75484805567737
30
0
40
12.5
210
8.7993214508299828e-33
220
-1.6785532667440863e-33
230
1
0
CIRCLE
5
180
100
AcDbEntity
8
0
100
AcDbCircle
10
-237.50000000000327
20
131.2500000000023
30
0
40
1.7500000000000437
210
-1.1958098849126878e-39
220
-8.5386231789365004e-40
230
1
0
CIRCLE
5
181
100
AcDbEntity
8
0
100
AcDbCircle
10
-237.50000000000327
20
220.00000000000225
30
0
40
1.750000000000054
210
-0
220
0
230
1
0
CIRCLE
5
182
100
AcDbEntity
8
0
100
AcDbCircle
10
-3.1974423109204508e-12
20
2.2859492077031973e-12
30
0
40
1.7499999999999682
210
-1.7518034336464108e-32
220
2.4533506193848868e-32
230
1
0
CIRCLE
5
183
100
AcDbEntity
8
0
100
AcDbCircle
10
-237.50000000000327
20
308.75000000000227
30
0
40
1.7499999999999758
210
-1.7518388005429335e-32
220
2.453400655429663e-32
230
1
0
CIRCLE
5
184
100
AcDbEntity
8
0
100
AcDbCircle
10
-237.50000000000335
20
397.50000000000239
30
0
40
1.7500000000000335
210
1.1958098849126946e-39
220
8.5386231789363993e-40
230
1
0
CIRCLE
5
185
100
AcDbEntity
8
0
100
AcDbCircle
10
-97.500000000003197
20
2.3225865675158275e-12
30
0
40
1.7499999999999758
210
1.1958098849126744e-39
220
8.5386231789366815e-40
230
1
0
CIRCLE
5
186
100
AcDbEntity
8
0
100
AcDbCircle
10
237.49999999999682
20
42.500000000002409
30
0
40
1.7499999999999991
210
2.9466318966236022e-33
220
-4.1266741432899425e-33
230
1
0
CIRCLE
5
187
100
AcDbEntity
8
0
100
AcDbCircle
10
194.99999999999682
20
2.4191759706582161e-12
30
0
40
1.7500000000000067
210
6.2496978538345265e-32
220
-9.1424980479947748e-32
230
1
0
CIRCLE
5
188
100
AcDbEntity
8
0
100
AcDbCircle
10
-195.00000000000335
20
440.0000000000025
30
0
40
1.7500000000000502
210
-0
220
0
230
1
0
CIRCLE
5
189
100
AcDbEntity
8
0
100
AcDbCircle
10
237.49999999999673
20
397.5000000000025
30
0
40
1.7500000000000047
210
-1.9362649548679343e-32
220
2.3217102382143916e-32
230
1
0
CIRCLE
5
190
100
AcDbEntity
8
0
100
AcDbCircle
10
-195.00000000000318
20
2.2992718839986992e-12
30
0
40
1.7499999999999758
210
1.1958098849126744e-39
220
8.5386231789366815e-40
230
1
0
CIRCLE
5
191
100
AcDbEntity
8
0
100
AcDbCircle
10
-237.50000000000327
20
42.500000000002615
30
0
40
1.75000000000004
210
-1.9362322117924705e-32
220
2.3218092689595337e-32
230
1
0
CIRCLE
5
192
100
AcDbEntity
8
0
100
AcDbCircle
10
237.49999999999676
20
131.25000000000242
30
0
40
1.7500000000000098
210
-1.9362629270241816e-32
220
2.3216800898283283e-32
230
1
0
CIRCLE
5
193
100
AcDbEntity
8
0
100
AcDbCircle
10
97.499999999996788
20
2.3736568266485847e-12
30
0
40
1.7500000000000073
210
6.2496970301407323e-32
220
-9.1425219271791204e-32
230
1
0
CIRCLE
5
194
100
AcDbEntity
8
0
100
AcDbCircle
10
194.9999999999967
20
440.0000000000025
30
0
40
1.7500000000000191
210
-1.9362535606805772e-32
220
2.321717290875565e-32
230
1
0
CIRCLE
5
195
100
AcDbEntity
8
0
100
AcDbCircle
10
97.499999999996703
20
440.00000000000256
30
0
40
1.7500000000000191
210
1.1958098849126896e-39
220
8.5386231789364694e-40
230
1
0
CIRCLE
5
196
100
AcDbEntity
8
0
100
AcDbCircle
10
-3.3040237212844659e-12
20
440.00000000000239
30
0
40
1.7500000000000047
210
2.9465234561091431e-33
220
-4.1265222754346198e-33
230
1
0
CIRCLE
5
197
100
AcDbEntity
8
0
100
AcDbCircle
10
-97.50000000000334
20
440.00000000000239
30
0
40
1.7500000000000335
210
1.1958098849126946e-39
220
8.5386231789363993e-40
230
1
0
CIRCLE
5
198
100
AcDbEntity
8
0
100
AcDbCircle
10
237.49999999999676
20
308.75000000000233
30
0
40
1.7499999999999667
210
-1.7518393812498467e-32
220
2.4534009629811471e-32
230
1
0
CIRCLE
5
199
100
AcDbEntity
8
0
100
AcDbCircle
10
237.49999999999676
20
220.00000000000239
30
0
40
1.7499999999999847
210
-1.9362824697154846e-32
220
2.3216677604188141e-32
230
1
0
ENDSEC
0
SECTION
2
OBJECTS
0
DICTIONARY
5
C
100
AcDbDictionary
3
ACAD_GROUP
350
D
3
ACAD_MLINESTYLE
350
17
0
DICTIONARY
5
D
100
AcDbDictionary
0
DICTIONARY
5
1A
330
C
100
AcDbDictionary
0
DICTIONARY
5
17
100
AcDbDictionary
0
ENDSEC
0
EOF
