0
SECTION
2
HEADER
9
$INSUNITS
70
4
9
$ACADVER
1
AC1014
9
$HANDSEED
5
FFFF
0
ENDSEC
0
SECTION
2
TABLES
0
TABLE
2
VPORT
5
8
100
AcDbSymbolTable
0
ENDTAB
0
TABLE
2
LTYPE
5
5
100
AcDbSymbolTable
0
LTYPE
5
14
100
AcDbSymbolTableRecord
100
AcDbLinetypeTableRecord
2
BYBLOCK
70
0
0
LTYPE
5
15
100
AcDbSymbolTableRecord
100
AcDbLinetypeTableRecord
2
BYLAYER
70
0
0
ENDTAB
0
TABLE
2
LAYER
5
2
100
AcDbSymbolTable
70
2
0
LAYER
5
50
100
AcDbSymbolTableRecord
100
AcDbLayerTableRecord
2
0
70
0
6
CONTINUOUS
0
ENDTAB
0
TABLE
2
STYLE
5
3
100
AcDbSymbolTable
70
1
0
STYLE
5
11
100
AcDbSymbolTableRecord
100
AcDbTextStyleTableRecord
2
STANDARD
70
0
0
ENDTAB
0
TABLE
2
VIEW
5
6
100
AcDbSymbolTable
70
0
0
ENDTAB
0
TABLE
2
UCS
5
7
100
AcDbSymbolTable
70
0
0
ENDTAB
0
TABLE
2
APPID
5
9
100
AcDbSymbolTable
70
2
0
APPID
5
12
100
AcDbSymbolTableRecord
100
AcDbRegAppTableRecord
2
ACAD
70
0
0
ENDTAB
0
TABLE
2
DIMSTYLE
5
A
100
AcDbSymbolTable
70
1
0
ENDTAB
0
TABLE
2
BLOCK_RECORD
5
1
100
AcDbSymbolTable
70
1
0
BLOCK_RECORD
5
1F
100
AcDbSymbolTableRecord
100
AcDbBlockTableRecord
2
*MODEL_SPACE
0
BLOCK_RECORD
5
1B
100
AcDbSymbolTableRecord
100
AcDbBlockTableRecord
2
*PAPER_SPACE
0
ENDTAB
0
ENDSEC
0
SECTION
2
BLOCKS
0
BLOCK
5
20
100
AcDbEntity
100
AcDbBlockBegin
2
*MODEL_SPACE
0
ENDBLK
5
21
100
AcDbEntity
100
AcDbBlockEnd
0
BLOCK
5
1C
100
AcDbEntity
100
AcDbBlockBegin
2
*PAPER_SPACE
0
ENDBLK
5
1D
100
AcDbEntity
100
AcDbBlockEnd
0
ENDSEC
0
SECTION
2
ENTITIES
0
CIRCLE
5
100
100
AcDbEntity
8
0
100
AcDbCircle
10
19.534569546618531
20
3.9998489814603104
30
0
40
1.5000000000000002
0
CIRCLE
5
101
100
AcDbEntity
8
0
100
AcDbCircle
10
-2.324514178358839
20
-3.8243322372425603
30
0
40
1.5000000000000002
0
CIRCLE
5
102
100
AcDbEntity
8
0
100
AcDbCircle
10
-2.3249298072023192
20
11.824463952574852
30
0
40
1.5000000000000002
0
CIRCLE
5
103
100
AcDbEntity
8
0
100
AcDbCircle
10
26.250000581145283
20
-6.999998776907316
30
0
40
3.0000000000000027
0
LINE
5
104
100
AcDbEntity
8
0
100
AcDbLine
10
13.500000581145283
20
16.000000238418327
30
0
11
13.500000581145283
21
23.500000872588682
31
0
0
LINE
5
105
100
AcDbEntity
8
0
100
AcDbLine
10
13.500000581145283
20
23.500000872588682
30
0
11
39.000000581145287
21
23.500000872588679
31
0
0
LINE
5
106
100
AcDbEntity
8
0
100
AcDbLine
10
39.000000581145287
20
23.500000872588679
30
0
11
39.000000581145287
21
-37.499998426403309
31
0
0
LINE
5
107
100
AcDbEntity
8
0
100
AcDbLine
10
39.000000581145287
20
-37.499998426403309
30
0
11
13.500000581145283
21
-37.499998426403309
31
0
0
LINE
5
108
100
AcDbEntity
8
0
100
AcDbLine
10
13.500000581145283
20
-37.499998426403309
30
0
11
13.500000581145281
21
-30.000000447035088
31
0
0
LINE
5
109
100
AcDbEntity
8
0
100
AcDbLine
10
13.500000581145281
20
-30.000000447035088
30
0
11
-17.000000253319737
21
-30.000000447034317
31
0
0
LINE
5
110
100
AcDbEntity
8
0
100
AcDbLine
10
-17.000000253319737
20
-30.000000447034317
30
0
11
-17.00000025331974
21
16.000000238419098
31
0
0
LINE
5
111
100
AcDbEntity
8
0
100
AcDbLine
10
-17.00000025331974
20
16.000000238419098
30
0
11
13.500000581145283
21
16.000000238418327
31
0
0
CIRCLE
5
112
100
AcDbEntity
8
0
100
AcDbCircle
10
-12.15160703315026
20
-24.47567678112302
30
0
40
1.4999999999999991
0
CIRCLE
5
113
100
AcDbEntity
8
0
100
AcDbCircle
10
20.916570994486033
20
-33.502322469079374
30
0
40
1.6500000000000001
0
CIRCLE
5
114
100
AcDbEntity
8
0
100
AcDbCircle
10
31.422616279076738
20
-33.501995866394353
30
0
40
1.6500000000000001
0
CIRCLE
5
115
100
AcDbEntity
8
0
100
AcDbCircle
10
21.000000581145279
20
19.500000312924136
30
0
40
1.6500000000000001
0
CIRCLE
5
116
100
AcDbEntity
8
0
100
AcDbCircle
10
31.500000581145287
20
19.500000872588679
30
0
40
1.6500000000000001
0
CIRCLE
5
117
100
AcDbEntity
8
0
100
AcDbCircle
10
17.84839296684974
20
-24.47567678112302
30
0
40
1.5000000000000002
0
CIRCLE
5
118
100
AcDbEntity
8
0
100
AcDbCircle
10
32.611207962036133
20
7.5578451156616211
30
0
40
1.5000000000000002
0
CIRCLE
5
119
100
AcDbEntity
8
0
100
AcDbCircle
10
32.632784056801356
20
-7.9310241003716371
30
0
40
1.5000000000000002
0
CIRCLE
5
120
100
AcDbEntity
8
0
100
AcDbCircle
10
32.617599619158234
20
-23.488917134071841
30
0
40
1.5000000000000002
0
CIRCLE
5
121
100
AcDbEntity
8
0
100
AcDbCircle
10
2.8483929668497399
20
-24.47567678112302
30
0
40
1.5000000000000002
0
CIRCLE
5
122
100
AcDbEntity
8
0
100
AcDbCircle
10
-11.511656539955979
20
12.184097970884547
30
0
40
1.5000000000000002
0
CIRCLE
5
123
100
AcDbEntity
8
0
100
AcDbCircle
10
-11.519450061240084
20
-3.0147852882222539
30
0
40
1.5000000000000002
0
CIRCLE
5
124
100
AcDbEntity
8
0
100
AcDbCircle
10
-9.9999999999998739
20
2.5585673715241137
30
0
40
3.0000000000000009
0
CIRCLE
5
125
100
AcDbEntity
8
0
100
AcDbCircle
10
-9.9999999999998295
20
-17.441432628476036
30
0
40
3.0000000000000004
0
CIRCLE
5
126
100
AcDbEntity
8
0
100
AcDbCircle
10
10.000000000000281
20
2.5585673715241581
30
0
40
3.0000000000000009
0
CIRCLE
5
127
100
AcDbEntity
8
0
100
AcDbCircle
10
10.000000000000323
20
-17.44143262847599
30
0
40
3.0000000000000004
0
CIRCLE
5
128
100
AcDbEntity
8
0
100
AcDbCircle
10
26.250000581145283
20
-6.9999987769074128
30
0
40
1.6500000000000001
0
CIRCLE
5
129
100
AcDbEntity
8
0
100
AcDbCircle
10
26.250000581145283
20
-6.9999987769074128
30
0
40
3.0000000000000027
0
CIRCLE
5
130
100
AcDbEntity
8
0
100
AcDbCircle
10
10.000000000000281
20
2.5585673715240302
30
0
40
1.6500000000000001
0
CIRCLE
5
131
100
AcDbEntity
8
0
100
AcDbCircle
10
10.000000000000281
20
2.5585673715240298
30
0
40
3.0000000000000009
0
CIRCLE
5
132
100
AcDbEntity
8
0
100
AcDbCircle
10
10.000000000000323
20
-17.441432628476118
30
0
40
3.0000000000000004
0
CIRCLE
5
133
100
AcDbEntity
8
0
100
AcDbCircle
10
10.000000000000323
20
-17.441432628476118
30
0
40
1.6500000000000001
0
CIRCLE
5
134
100
AcDbEntity
8
0
100
AcDbCircle
10
-9.9999999999998739
20
2.5585673715239858
30
0
40
1.6500000000000001
0
CIRCLE
5
135
100
AcDbEntity
8
0
100
AcDbCircle
10
-9.9999999999998739
20
2.5585673715239854
30
0
40
3.0000000000000009
0
CIRCLE
5
136
100
AcDbEntity
8
0
100
AcDbCircle
10
-9.9999999999998295
20
-17.441432628476164
30
0
40
3.0000000000000004
0
CIRCLE
5
137
100
AcDbEntity
8
0
100
AcDbCircle
10
-9.9999999999998295
20
-17.441432628476164
30
0
40
1.6500000000000001
0
CIRCLE
5
138
100
AcDbEntity
8
0
100
AcDbCircle
10
-20.000000268220901
20
-23.974583426367744
30
0
40
1.5000000000000002
0
CIRCLE
5
139
100
AcDbEntity
8
0
100
AcDbCircle
10
-20.000000268220901
20
10.886592846909064
30
0
40
1.5000000000000002
0
LINE
5
140
100
AcDbEntity
8
0
100
AcDbLine
10
-22.500000268220901
20
-30.000000447035156
30
0
11
-22.500000268220901
21
16.000000238418259
31
0
0
LINE
5
141
100
AcDbEntity
8
0
100
AcDbLine
10
-22.500000268220901
20
16.000000238418259
30
0
11
-17.00000025331974
21
16.000000238419098
31
0
0
LINE
5
142
100
AcDbEntity
8
0
100
AcDbLine
10
-17.00000025331974
20
16.000000238419098
30
0
11
-17.000000253319737
21
-30.000000447034317
31
0
0
LINE
5
143
100
AcDbEntity
8
0
100
AcDbLine
10
-17.000000253319737
20
-30.000000447034317
30
0
11
-22.500000268220901
21
-30.000000447035156
31
0
0
ENDSEC
0
SECTION
2
OBJECTS
0
DICTIONARY
5
C
100
AcDbDictionary
3
ACAD_GROUP
350
D
3
ACAD_MLINESTYLE
350
17
0
DICTIONARY
5
D
100
AcDbDictionary
0
DICTIONARY
5
1A
330
C
100
AcDbDictionary
0
DICTIONARY
5
17
100
AcDbDictionary
0
ENDSEC
0
EOF
