  0
SECTION
  2
BLOCKS
  0
ENDSEC
  0
SECTION
  2
ENTITIES
  0
LINE
  8
0
 10
167.413
 20
-149.873
 11
168.861
 21
-149.644
  0
LINE
  8
0
 10
168.861
 20
-149.644
 11
170.276
 21
-149.265
  0
LINE
  8
0
 10
170.276
 20
-149.265
 11
171.644
 21
-148.74
  0
LINE
  8
0
 10
171.644
 20
-148.74
 11
172.95
 21
-148.074
  0
LINE
  8
0
 10
172.95
 20
-148.074
 11
174.179
 21
-147.276
  0
LINE
  8
0
 10
174.179
 20
-147.276
 11
175.318
 21
-146.354
  0
LINE
  8
0
 10
175.318
 20
-146.354
 11
176.354
 21
-145.318
  0
LINE
  8
0
 10
176.354
 20
-145.318
 11
177.276
 21
-144.179
  0
LINE
  8
0
 10
177.276
 20
-144.179
 11
178.074
 21
-142.95
  0
LINE
  8
0
 10
178.074
 20
-142.95
 11
178.74
 21
-141.644
  0
LINE
  8
0
 10
178.74
 20
-141.644
 11
179.265
 21
-140.276
  0
LINE
  8
0
 10
179.265
 20
-140.276
 11
179.644
 21
-138.861
  0
LINE
  8
0
 10
179.644
 20
-138.861
 11
179.873
 21
-137.413
  0
LINE
  8
0
 10
179.873
 20
-137.413
 11
179.95
 21
-135.95
  0
LINE
  8
0
 10
179.95
 20
-135.95
 11
179.95
 21
135.95
  0
LINE
  8
0
 10
179.95
 20
135.95
 11
179.873
 21
137.413
  0
LINE
  8
0
 10
179.873
 20
137.413
 11
179.644
 21
138.861
  0
LINE
  8
0
 10
179.644
 20
138.861
 11
179.265
 21
140.276
  0
LINE
  8
0
 10
179.265
 20
140.276
 11
178.74
 21
141.644
  0
LINE
  8
0
 10
178.74
 20
141.644
 11
178.074
 21
142.95
  0
LINE
  8
0
 10
178.074
 20
142.95
 11
177.276
 21
144.179
  0
LINE
  8
0
 10
177.276
 20
144.179
 11
176.354
 21
145.318
  0
LINE
  8
0
 10
176.354
 20
145.318
 11
175.318
 21
146.354
  0
LINE
  8
0
 10
175.318
 20
146.354
 11
174.179
 21
147.276
  0
LINE
  8
0
 10
174.179
 20
147.276
 11
172.95
 21
148.074
  0
LINE
  8
0
 10
172.95
 20
148.074
 11
171.644
 21
148.74
  0
LINE
  8
0
 10
171.644
 20
148.74
 11
170.276
 21
149.265
  0
LINE
  8
0
 10
170.276
 20
149.265
 11
168.861
 21
149.644
  0
LINE
  8
0
 10
168.861
 20
149.644
 11
167.413
 21
149.873
  0
LINE
  8
0
 10
167.413
 20
149.873
 11
165.95
 21
149.95
  0
LINE
  8
0
 10
165.95
 20
149.95
 11
-165.95
 21
149.95
  0
LINE
  8
0
 10
-165.95
 20
149.95
 11
-167.413
 21
149.873
  0
LINE
  8
0
 10
-167.413
 20
149.873
 11
-168.861
 21
149.644
  0
LINE
  8
0
 10
-168.861
 20
149.644
 11
-170.276
 21
149.265
  0
LINE
  8
0
 10
-170.276
 20
149.265
 11
-171.644
 21
148.74
  0
LINE
  8
0
 10
-171.644
 20
148.74
 11
-172.95
 21
148.074
  0
LINE
  8
0
 10
-172.95
 20
148.074
 11
-174.179
 21
147.276
  0
LINE
  8
0
 10
-174.179
 20
147.276
 11
-175.318
 21
146.354
  0
LINE
  8
0
 10
-175.318
 20
146.354
 11
-176.354
 21
145.318
  0
LINE
  8
0
 10
-176.354
 20
145.318
 11
-177.276
 21
144.179
  0
LINE
  8
0
 10
-177.276
 20
144.179
 11
-178.074
 21
142.95
  0
LINE
  8
0
 10
-178.074
 20
142.95
 11
-178.74
 21
141.644
  0
LINE
  8
0
 10
-178.74
 20
141.644
 11
-179.265
 21
140.276
  0
LINE
  8
0
 10
-179.265
 20
140.276
 11
-179.644
 21
138.861
  0
LINE
  8
0
 10
-179.644
 20
138.861
 11
-179.873
 21
137.413
  0
LINE
  8
0
 10
-179.873
 20
137.413
 11
-179.95
 21
135.95
  0
LINE
  8
0
 10
-179.95
 20
135.95
 11
-179.95
 21
-135.95
  0
LINE
  8
0
 10
-179.95
 20
-135.95
 11
-179.873
 21
-137.413
  0
LINE
  8
0
 10
-179.873
 20
-137.413
 11
-179.644
 21
-138.861
  0
LINE
  8
0
 10
-179.644
 20
-138.861
 11
-179.265
 21
-140.276
  0
LINE
  8
0
 10
-179.265
 20
-140.276
 11
-178.74
 21
-141.644
  0
LINE
  8
0
 10
-178.74
 20
-141.644
 11
-178.074
 21
-142.95
  0
LINE
  8
0
 10
-178.074
 20
-142.95
 11
-177.276
 21
-144.179
  0
LINE
  8
0
 10
-177.276
 20
-144.179
 11
-176.354
 21
-145.318
  0
LINE
  8
0
 10
-176.354
 20
-145.318
 11
-175.318
 21
-146.354
  0
LINE
  8
0
 10
-175.318
 20
-146.354
 11
-174.179
 21
-147.276
  0
LINE
  8
0
 10
-174.179
 20
-147.276
 11
-172.95
 21
-148.074
  0
LINE
  8
0
 10
-172.95
 20
-148.074
 11
-171.644
 21
-148.74
  0
LINE
  8
0
 10
-171.644
 20
-148.74
 11
-170.276
 21
-149.265
  0
LINE
  8
0
 10
-170.276
 20
-149.265
 11
-168.861
 21
-149.644
  0
LINE
  8
0
 10
-168.861
 20
-149.644
 11
-167.413
 21
-149.873
  0
LINE
  8
0
 10
-167.413
 20
-149.873
 11
-165.95
 21
-149.95
  0
LINE
  8
0
 10
-165.95
 20
-149.95
 11
165.95
 21
-149.95
  0
LINE
  8
0
 10
165.95
 20
-149.95
 11
167.413
 21
-149.873
  0
LINE
  8
0
 10
159.826
 20
128.455
 11
159.582
 21
128.496
  0
LINE
  8
0
 10
159.582
 20
128.496
 11
159.347
 21
128.576
  0
LINE
  8
0
 10
159.347
 20
128.576
 11
159.13
 21
128.694
  0
LINE
  8
0
 10
159.13
 20
128.694
 11
158.934
 21
128.846
  0
LINE
  8
0
 10
158.934
 20
128.846
 11
158.766
 21
129.029
  0
LINE
  8
0
 10
158.766
 20
129.029
 11
158.631
 21
129.236
  0
LINE
  8
0
 10
158.631
 20
129.236
 11
158.531
 21
129.463
  0
LINE
  8
0
 10
158.531
 20
129.463
 11
158.47
 21
129.703
  0
LINE
  8
0
 10
158.47
 20
129.703
 11
158.45
 21
129.95
  0
LINE
  8
0
 10
158.45
 20
129.95
 11
158.47
 21
130.197
  0
LINE
  8
0
 10
158.47
 20
130.197
 11
158.531
 21
130.437
  0
LINE
  8
0
 10
158.531
 20
130.437
 11
158.631
 21
130.664
  0
LINE
  8
0
 10
158.631
 20
130.664
 11
158.766
 21
130.871
  0
LINE
  8
0
 10
158.766
 20
130.871
 11
158.934
 21
131.054
  0
LINE
  8
0
 10
158.934
 20
131.054
 11
159.13
 21
131.206
  0
LINE
  8
0
 10
159.13
 20
131.206
 11
159.347
 21
131.324
  0
LINE
  8
0
 10
159.347
 20
131.324
 11
159.582
 21
131.404
  0
LINE
  8
0
 10
159.582
 20
131.404
 11
159.826
 21
131.445
  0
LINE
  8
0
 10
159.826
 20
131.445
 11
160.074
 21
131.445
  0
LINE
  8
0
 10
160.074
 20
131.445
 11
160.318
 21
131.404
  0
LINE
  8
0
 10
160.318
 20
131.404
 11
160.553
 21
131.324
  0
LINE
  8
0
 10
160.553
 20
131.324
 11
160.77
 21
131.206
  0
LINE
  8
0
 10
160.77
 20
131.206
 11
160.966
 21
131.054
  0
LINE
  8
0
 10
160.966
 20
131.054
 11
161.134
 21
130.871
  0
LINE
  8
0
 10
161.134
 20
130.871
 11
161.269
 21
130.664
  0
LINE
  8
0
 10
161.269
 20
130.664
 11
161.369
 21
130.437
  0
LINE
  8
0
 10
161.369
 20
130.437
 11
161.43
 21
130.197
  0
LINE
  8
0
 10
161.43
 20
130.197
 11
161.45
 21
129.95
  0
LINE
  8
0
 10
161.45
 20
129.95
 11
161.43
 21
129.703
  0
LINE
  8
0
 10
161.43
 20
129.703
 11
161.369
 21
129.463
  0
LINE
  8
0
 10
161.369
 20
129.463
 11
161.269
 21
129.236
  0
LINE
  8
0
 10
161.269
 20
129.236
 11
161.134
 21
129.029
  0
LINE
  8
0
 10
161.134
 20
129.029
 11
160.966
 21
128.846
  0
LINE
  8
0
 10
160.966
 20
128.846
 11
160.77
 21
128.694
  0
LINE
  8
0
 10
160.77
 20
128.694
 11
160.553
 21
128.576
  0
LINE
  8
0
 10
160.553
 20
128.576
 11
160.318
 21
128.496
  0
LINE
  8
0
 10
160.318
 20
128.496
 11
160.074
 21
128.455
  0
LINE
  8
0
 10
160.074
 20
128.455
 11
159.826
 21
128.455
  0
LINE
  8
0
 10
-160.074
 20
128.455
 11
-160.318
 21
128.496
  0
LINE
  8
0
 10
-160.318
 20
128.496
 11
-160.553
 21
128.576
  0
LINE
  8
0
 10
-160.553
 20
128.576
 11
-160.77
 21
128.694
  0
LINE
  8
0
 10
-160.77
 20
128.694
 11
-160.966
 21
128.846
  0
LINE
  8
0
 10
-160.966
 20
128.846
 11
-161.134
 21
129.029
  0
LINE
  8
0
 10
-161.134
 20
129.029
 11
-161.269
 21
129.236
  0
LINE
  8
0
 10
-161.269
 20
129.236
 11
-161.369
 21
129.463
  0
LINE
  8
0
 10
-161.369
 20
129.463
 11
-161.43
 21
129.703
  0
LINE
  8
0
 10
-161.43
 20
129.703
 11
-161.45
 21
129.95
  0
LINE
  8
0
 10
-161.45
 20
129.95
 11
-161.43
 21
130.197
  0
LINE
  8
0
 10
-161.43
 20
130.197
 11
-161.369
 21
130.437
  0
LINE
  8
0
 10
-161.369
 20
130.437
 11
-161.269
 21
130.664
  0
LINE
  8
0
 10
-161.269
 20
130.664
 11
-161.134
 21
130.871
  0
LINE
  8
0
 10
-161.134
 20
130.871
 11
-160.966
 21
131.054
  0
LINE
  8
0
 10
-160.966
 20
131.054
 11
-160.77
 21
131.206
  0
LINE
  8
0
 10
-160.77
 20
131.206
 11
-160.553
 21
131.324
  0
LINE
  8
0
 10
-160.553
 20
131.324
 11
-160.318
 21
131.404
  0
LINE
  8
0
 10
-160.318
 20
131.404
 11
-160.074
 21
131.445
  0
LINE
  8
0
 10
-160.074
 20
131.445
 11
-159.826
 21
131.445
  0
LINE
  8
0
 10
-159.826
 20
131.445
 11
-159.582
 21
131.404
  0
LINE
  8
0
 10
-159.582
 20
131.404
 11
-159.347
 21
131.324
  0
LINE
  8
0
 10
-159.347
 20
131.324
 11
-159.13
 21
131.206
  0
LINE
  8
0
 10
-159.13
 20
131.206
 11
-158.934
 21
131.054
  0
LINE
  8
0
 10
-158.934
 20
131.054
 11
-158.766
 21
130.871
  0
LINE
  8
0
 10
-158.766
 20
130.871
 11
-158.631
 21
130.664
  0
LINE
  8
0
 10
-158.631
 20
130.664
 11
-158.531
 21
130.437
  0
LINE
  8
0
 10
-158.531
 20
130.437
 11
-158.47
 21
130.197
  0
LINE
  8
0
 10
-158.47
 20
130.197
 11
-158.45
 21
129.95
  0
LINE
  8
0
 10
-158.45
 20
129.95
 11
-158.47
 21
129.703
  0
LINE
  8
0
 10
-158.47
 20
129.703
 11
-158.531
 21
129.463
  0
LINE
  8
0
 10
-158.531
 20
129.463
 11
-158.631
 21
129.236
  0
LINE
  8
0
 10
-158.631
 20
129.236
 11
-158.766
 21
129.029
  0
LINE
  8
0
 10
-158.766
 20
129.029
 11
-158.934
 21
128.846
  0
LINE
  8
0
 10
-158.934
 20
128.846
 11
-159.13
 21
128.694
  0
LINE
  8
0
 10
-159.13
 20
128.694
 11
-159.347
 21
128.576
  0
LINE
  8
0
 10
-159.347
 20
128.576
 11
-159.582
 21
128.496
  0
LINE
  8
0
 10
-159.582
 20
128.496
 11
-159.826
 21
128.455
  0
LINE
  8
0
 10
-159.826
 20
128.455
 11
-160.074
 21
128.455
  0
LINE
  8
0
 10
49.8761
 20
118.505
 11
49.6318
 21
118.546
  0
LINE
  8
0
 10
49.6318
 20
118.546
 11
49.3974
 21
118.626
  0
LINE
  8
0
 10
49.3974
 20
118.626
 11
49.1796
 21
118.744
  0
LINE
  8
0
 10
49.1796
 20
118.744
 11
48.9841
 21
118.896
  0
LINE
  8
0
 10
48.9841
 20
118.896
 11
48.8163
 21
119.079
  0
LINE
  8
0
 10
48.8163
 20
119.079
 11
48.6808
 21
119.286
  0
LINE
  8
0
 10
48.6808
 20
119.286
 11
48.5813
 21
119.513
  0
LINE
  8
0
 10
48.5813
 20
119.513
 11
48.5204
 21
119.753
  0
LINE
  8
0
 10
48.5204
 20
119.753
 11
48.5
 21
120
  0
LINE
  8
0
 10
48.5
 20
120
 11
48.5204
 21
120.247
  0
LINE
  8
0
 10
48.5204
 20
120.247
 11
48.5813
 21
120.487
  0
LINE
  8
0
 10
48.5813
 20
120.487
 11
48.6808
 21
120.714
  0
LINE
  8
0
 10
48.6808
 20
120.714
 11
48.8163
 21
120.921
  0
LINE
  8
0
 10
48.8163
 20
120.921
 11
48.9841
 21
121.104
  0
LINE
  8
0
 10
48.9841
 20
121.104
 11
49.1796
 21
121.256
  0
LINE
  8
0
 10
49.1796
 20
121.256
 11
49.3974
 21
121.374
  0
LINE
  8
0
 10
49.3974
 20
121.374
 11
49.6318
 21
121.454
  0
LINE
  8
0
 10
49.6318
 20
121.454
 11
49.8761
 21
121.495
  0
LINE
  8
0
 10
49.8761
 20
121.495
 11
128.124
 21
121.495
  0
LINE
  8
0
 10
128.124
 20
121.495
 11
128.368
 21
121.454
  0
LINE
  8
0
 10
128.368
 20
121.454
 11
128.603
 21
121.374
  0
LINE
  8
0
 10
128.603
 20
121.374
 11
128.82
 21
121.256
  0
LINE
  8
0
 10
128.82
 20
121.256
 11
129.016
 21
121.104
  0
LINE
  8
0
 10
129.016
 20
121.104
 11
129.184
 21
120.921
  0
LINE
  8
0
 10
129.184
 20
120.921
 11
129.319
 21
120.714
  0
LINE
  8
0
 10
129.319
 20
120.714
 11
129.419
 21
120.487
  0
LINE
  8
0
 10
129.419
 20
120.487
 11
129.48
 21
120.247
  0
LINE
  8
0
 10
129.48
 20
120.247
 11
129.5
 21
120
  0
LINE
  8
0
 10
129.5
 20
120
 11
129.48
 21
119.753
  0
LINE
  8
0
 10
129.48
 20
119.753
 11
129.419
 21
119.513
  0
LINE
  8
0
 10
129.419
 20
119.513
 11
129.319
 21
119.286
  0
LINE
  8
0
 10
129.319
 20
119.286
 11
129.184
 21
119.079
  0
LINE
  8
0
 10
129.184
 20
119.079
 11
129.016
 21
118.896
  0
LINE
  8
0
 10
129.016
 20
118.896
 11
128.82
 21
118.744
  0
LINE
  8
0
 10
128.82
 20
118.744
 11
128.603
 21
118.626
  0
LINE
  8
0
 10
128.603
 20
118.626
 11
128.368
 21
118.546
  0
LINE
  8
0
 10
128.368
 20
118.546
 11
128.124
 21
118.505
  0
LINE
  8
0
 10
128.124
 20
118.505
 11
49.8761
 21
118.505
  0
LINE
  8
0
 10
49.8761
 20
111.005
 11
49.6318
 21
111.046
  0
LINE
  8
0
 10
49.6318
 20
111.046
 11
49.3974
 21
111.126
  0
LINE
  8
0
 10
49.3974
 20
111.126
 11
49.1796
 21
111.244
  0
LINE
  8
0
 10
49.1796
 20
111.244
 11
48.9841
 21
111.396
  0
LINE
  8
0
 10
48.9841
 20
111.396
 11
48.8163
 21
111.579
  0
LINE
  8
0
 10
48.8163
 20
111.579
 11
48.6808
 21
111.786
  0
LINE
  8
0
 10
48.6808
 20
111.786
 11
48.5813
 21
112.013
  0
LINE
  8
0
 10
48.5813
 20
112.013
 11
48.5204
 21
112.253
  0
LINE
  8
0
 10
48.5204
 20
112.253
 11
48.5
 21
112.5
  0
LINE
  8
0
 10
48.5
 20
112.5
 11
48.5204
 21
112.747
  0
LINE
  8
0
 10
48.5204
 20
112.747
 11
48.5813
 21
112.987
  0
LINE
  8
0
 10
48.5813
 20
112.987
 11
48.6808
 21
113.214
  0
LINE
  8
0
 10
48.6808
 20
113.214
 11
48.8163
 21
113.421
  0
LINE
  8
0
 10
48.8163
 20
113.421
 11
48.9841
 21
113.604
  0
LINE
  8
0
 10
48.9841
 20
113.604
 11
49.1796
 21
113.756
  0
LINE
  8
0
 10
49.1796
 20
113.756
 11
49.3974
 21
113.874
  0
LINE
  8
0
 10
49.3974
 20
113.874
 11
49.6318
 21
113.954
  0
LINE
  8
0
 10
49.6318
 20
113.954
 11
49.8761
 21
113.995
  0
LINE
  8
0
 10
49.8761
 20
113.995
 11
128.124
 21
113.995
  0
LINE
  8
0
 10
128.124
 20
113.995
 11
128.368
 21
113.954
  0
LINE
  8
0
 10
128.368
 20
113.954
 11
128.603
 21
113.874
  0
LINE
  8
0
 10
128.603
 20
113.874
 11
128.82
 21
113.756
  0
LINE
  8
0
 10
128.82
 20
113.756
 11
129.016
 21
113.604
  0
LINE
  8
0
 10
129.016
 20
113.604
 11
129.184
 21
113.421
  0
LINE
  8
0
 10
129.184
 20
113.421
 11
129.319
 21
113.214
  0
LINE
  8
0
 10
129.319
 20
113.214
 11
129.419
 21
112.987
  0
LINE
  8
0
 10
129.419
 20
112.987
 11
129.48
 21
112.747
  0
LINE
  8
0
 10
129.48
 20
112.747
 11
129.5
 21
112.5
  0
LINE
  8
0
 10
129.5
 20
112.5
 11
129.48
 21
112.253
  0
LINE
  8
0
 10
129.48
 20
112.253
 11
129.419
 21
112.013
  0
LINE
  8
0
 10
129.419
 20
112.013
 11
129.319
 21
111.786
  0
LINE
  8
0
 10
129.319
 20
111.786
 11
129.184
 21
111.579
  0
LINE
  8
0
 10
129.184
 20
111.579
 11
129.016
 21
111.396
  0
LINE
  8
0
 10
129.016
 20
111.396
 11
128.82
 21
111.244
  0
LINE
  8
0
 10
128.82
 20
111.244
 11
128.603
 21
111.126
  0
LINE
  8
0
 10
128.603
 20
111.126
 11
128.368
 21
111.046
  0
LINE
  8
0
 10
128.368
 20
111.046
 11
128.124
 21
111.005
  0
LINE
  8
0
 10
128.124
 20
111.005
 11
49.8761
 21
111.005
  0
LINE
  8
0
 10
49.8761
 20
103.505
 11
49.6318
 21
103.546
  0
LINE
  8
0
 10
49.6318
 20
103.546
 11
49.3974
 21
103.626
  0
LINE
  8
0
 10
49.3974
 20
103.626
 11
49.1796
 21
103.744
  0
LINE
  8
0
 10
49.1796
 20
103.744
 11
48.9841
 21
103.896
  0
LINE
  8
0
 10
48.9841
 20
103.896
 11
48.8163
 21
104.079
  0
LINE
  8
0
 10
48.8163
 20
104.079
 11
48.6808
 21
104.286
  0
LINE
  8
0
 10
48.6808
 20
104.286
 11
48.5813
 21
104.513
  0
LINE
  8
0
 10
48.5813
 20
104.513
 11
48.5204
 21
104.753
  0
LINE
  8
0
 10
48.5204
 20
104.753
 11
48.5
 21
105
  0
LINE
  8
0
 10
48.5
 20
105
 11
48.5204
 21
105.247
  0
LINE
  8
0
 10
48.5204
 20
105.247
 11
48.5813
 21
105.487
  0
LINE
  8
0
 10
48.5813
 20
105.487
 11
48.6808
 21
105.714
  0
LINE
  8
0
 10
48.6808
 20
105.714
 11
48.8163
 21
105.921
  0
LINE
  8
0
 10
48.8163
 20
105.921
 11
48.9841
 21
106.104
  0
LINE
  8
0
 10
48.9841
 20
106.104
 11
49.1796
 21
106.256
  0
LINE
  8
0
 10
49.1796
 20
106.256
 11
49.3974
 21
106.374
  0
LINE
  8
0
 10
49.3974
 20
106.374
 11
49.6318
 21
106.454
  0
LINE
  8
0
 10
49.6318
 20
106.454
 11
49.8761
 21
106.495
  0
LINE
  8
0
 10
49.8761
 20
106.495
 11
128.124
 21
106.495
  0
LINE
  8
0
 10
128.124
 20
106.495
 11
128.368
 21
106.454
  0
LINE
  8
0
 10
128.368
 20
106.454
 11
128.603
 21
106.374
  0
LINE
  8
0
 10
128.603
 20
106.374
 11
128.82
 21
106.256
  0
LINE
  8
0
 10
128.82
 20
106.256
 11
129.016
 21
106.104
  0
LINE
  8
0
 10
129.016
 20
106.104
 11
129.184
 21
105.921
  0
LINE
  8
0
 10
129.184
 20
105.921
 11
129.319
 21
105.714
  0
LINE
  8
0
 10
129.319
 20
105.714
 11
129.419
 21
105.487
  0
LINE
  8
0
 10
129.419
 20
105.487
 11
129.48
 21
105.247
  0
LINE
  8
0
 10
129.48
 20
105.247
 11
129.5
 21
105
  0
LINE
  8
0
 10
129.5
 20
105
 11
129.48
 21
104.753
  0
LINE
  8
0
 10
129.48
 20
104.753
 11
129.419
 21
104.513
  0
LINE
  8
0
 10
129.419
 20
104.513
 11
129.319
 21
104.286
  0
LINE
  8
0
 10
129.319
 20
104.286
 11
129.184
 21
104.079
  0
LINE
  8
0
 10
129.184
 20
104.079
 11
129.016
 21
103.896
  0
LINE
  8
0
 10
129.016
 20
103.896
 11
128.82
 21
103.744
  0
LINE
  8
0
 10
128.82
 20
103.744
 11
128.603
 21
103.626
  0
LINE
  8
0
 10
128.603
 20
103.626
 11
128.368
 21
103.546
  0
LINE
  8
0
 10
128.368
 20
103.546
 11
128.124
 21
103.505
  0
LINE
  8
0
 10
128.124
 20
103.505
 11
49.8761
 21
103.505
  0
LINE
  8
0
 10
49.8761
 20
96.0051
 11
49.6318
 21
96.0459
  0
LINE
  8
0
 10
49.6318
 20
96.0459
 11
49.3974
 21
96.1263
  0
LINE
  8
0
 10
49.3974
 20
96.1263
 11
49.1796
 21
96.2442
  0
LINE
  8
0
 10
49.1796
 20
96.2442
 11
48.9841
 21
96.3964
  0
LINE
  8
0
 10
48.9841
 20
96.3964
 11
48.8163
 21
96.5787
  0
LINE
  8
0
 10
48.8163
 20
96.5787
 11
48.6808
 21
96.7861
  0
LINE
  8
0
 10
48.6808
 20
96.7861
 11
48.5813
 21
97.013
  0
LINE
  8
0
 10
48.5813
 20
97.013
 11
48.5204
 21
97.2531
  0
LINE
  8
0
 10
48.5204
 20
97.2531
 11
48.5
 21
97.5
  0
LINE
  8
0
 10
48.5
 20
97.5
 11
48.5204
 21
97.7469
  0
LINE
  8
0
 10
48.5204
 20
97.7469
 11
48.5813
 21
97.987
  0
LINE
  8
0
 10
48.5813
 20
97.987
 11
48.6808
 21
98.2139
  0
LINE
  8
0
 10
48.6808
 20
98.2139
 11
48.8163
 21
98.4213
  0
LINE
  8
0
 10
48.8163
 20
98.4213
 11
48.9841
 21
98.6036
  0
LINE
  8
0
 10
48.9841
 20
98.6036
 11
49.1796
 21
98.7558
  0
LINE
  8
0
 10
49.1796
 20
98.7558
 11
49.3974
 21
98.8737
  0
LINE
  8
0
 10
49.3974
 20
98.8737
 11
49.6318
 21
98.9541
  0
LINE
  8
0
 10
49.6318
 20
98.9541
 11
49.8761
 21
98.9949
  0
LINE
  8
0
 10
49.8761
 20
98.9949
 11
128.124
 21
98.9949
  0
LINE
  8
0
 10
128.124
 20
98.9949
 11
128.368
 21
98.9541
  0
LINE
  8
0
 10
128.368
 20
98.9541
 11
128.603
 21
98.8737
  0
LINE
  8
0
 10
128.603
 20
98.8737
 11
128.82
 21
98.7558
  0
LINE
  8
0
 10
128.82
 20
98.7558
 11
129.016
 21
98.6036
  0
LINE
  8
0
 10
129.016
 20
98.6036
 11
129.184
 21
98.4213
  0
LINE
  8
0
 10
129.184
 20
98.4213
 11
129.319
 21
98.2139
  0
LINE
  8
0
 10
129.319
 20
98.2139
 11
129.419
 21
97.987
  0
LINE
  8
0
 10
129.419
 20
97.987
 11
129.48
 21
97.7469
  0
LINE
  8
0
 10
129.48
 20
97.7469
 11
129.5
 21
97.5
  0
LINE
  8
0
 10
129.5
 20
97.5
 11
129.48
 21
97.2531
  0
LINE
  8
0
 10
129.48
 20
97.2531
 11
129.419
 21
97.013
  0
LINE
  8
0
 10
129.419
 20
97.013
 11
129.319
 21
96.7861
  0
LINE
  8
0
 10
129.319
 20
96.7861
 11
129.184
 21
96.5787
  0
LINE
  8
0
 10
129.184
 20
96.5787
 11
129.016
 21
96.3964
  0
LINE
  8
0
 10
129.016
 20
96.3964
 11
128.82
 21
96.2442
  0
LINE
  8
0
 10
128.82
 20
96.2442
 11
128.603
 21
96.1263
  0
LINE
  8
0
 10
128.603
 20
96.1263
 11
128.368
 21
96.0459
  0
LINE
  8
0
 10
128.368
 20
96.0459
 11
128.124
 21
96.0051
  0
LINE
  8
0
 10
128.124
 20
96.0051
 11
49.8761
 21
96.0051
  0
LINE
  8
0
 10
49.8761
 20
88.5051
 11
49.6318
 21
88.5459
  0
LINE
  8
0
 10
49.6318
 20
88.5459
 11
49.3974
 21
88.6263
  0
LINE
  8
0
 10
49.3974
 20
88.6263
 11
49.1796
 21
88.7442
  0
LINE
  8
0
 10
49.1796
 20
88.7442
 11
48.9841
 21
88.8964
  0
LINE
  8
0
 10
48.9841
 20
88.8964
 11
48.8163
 21
89.0787
  0
LINE
  8
0
 10
48.8163
 20
89.0787
 11
48.6808
 21
89.2861
  0
LINE
  8
0
 10
48.6808
 20
89.2861
 11
48.5813
 21
89.513
  0
LINE
  8
0
 10
48.5813
 20
89.513
 11
48.5204
 21
89.7531
  0
LINE
  8
0
 10
48.5204
 20
89.7531
 11
48.5
 21
90
  0
LINE
  8
0
 10
48.5
 20
90
 11
48.5204
 21
90.2469
  0
LINE
  8
0
 10
48.5204
 20
90.2469
 11
48.5813
 21
90.487
  0
LINE
  8
0
 10
48.5813
 20
90.487
 11
48.6808
 21
90.7139
  0
LINE
  8
0
 10
48.6808
 20
90.7139
 11
48.8163
 21
90.9213
  0
LINE
  8
0
 10
48.8163
 20
90.9213
 11
48.9841
 21
91.1036
  0
LINE
  8
0
 10
48.9841
 20
91.1036
 11
49.1796
 21
91.2558
  0
LINE
  8
0
 10
49.1796
 20
91.2558
 11
49.3974
 21
91.3737
  0
LINE
  8
0
 10
49.3974
 20
91.3737
 11
49.6318
 21
91.4541
  0
LINE
  8
0
 10
49.6318
 20
91.4541
 11
49.8761
 21
91.4949
  0
LINE
  8
0
 10
49.8761
 20
91.4949
 11
128.124
 21
91.4949
  0
LINE
  8
0
 10
128.124
 20
91.4949
 11
128.368
 21
91.4541
  0
LINE
  8
0
 10
128.368
 20
91.4541
 11
128.603
 21
91.3737
  0
LINE
  8
0
 10
128.603
 20
91.3737
 11
128.82
 21
91.2558
  0
LINE
  8
0
 10
128.82
 20
91.2558
 11
129.016
 21
91.1036
  0
LINE
  8
0
 10
129.016
 20
91.1036
 11
129.184
 21
90.9213
  0
LINE
  8
0
 10
129.184
 20
90.9213
 11
129.319
 21
90.7139
  0
LINE
  8
0
 10
129.319
 20
90.7139
 11
129.419
 21
90.487
  0
LINE
  8
0
 10
129.419
 20
90.487
 11
129.48
 21
90.2469
  0
LINE
  8
0
 10
129.48
 20
90.2469
 11
129.5
 21
90
  0
LINE
  8
0
 10
129.5
 20
90
 11
129.48
 21
89.7531
  0
LINE
  8
0
 10
129.48
 20
89.7531
 11
129.419
 21
89.513
  0
LINE
  8
0
 10
129.419
 20
89.513
 11
129.319
 21
89.2861
  0
LINE
  8
0
 10
129.319
 20
89.2861
 11
129.184
 21
89.0787
  0
LINE
  8
0
 10
129.184
 20
89.0787
 11
129.016
 21
88.8964
  0
LINE
  8
0
 10
129.016
 20
88.8964
 11
128.82
 21
88.7442
  0
LINE
  8
0
 10
128.82
 20
88.7442
 11
128.603
 21
88.6263
  0
LINE
  8
0
 10
128.603
 20
88.6263
 11
128.368
 21
88.5459
  0
LINE
  8
0
 10
128.368
 20
88.5459
 11
128.124
 21
88.5051
  0
LINE
  8
0
 10
128.124
 20
88.5051
 11
49.8761
 21
88.5051
  0
LINE
  8
0
 10
49.8761
 20
81.0051
 11
49.6318
 21
81.0459
  0
LINE
  8
0
 10
49.6318
 20
81.0459
 11
49.3974
 21
81.1263
  0
LINE
  8
0
 10
49.3974
 20
81.1263
 11
49.1796
 21
81.2442
  0
LINE
  8
0
 10
49.1796
 20
81.2442
 11
48.9841
 21
81.3964
  0
LINE
  8
0
 10
48.9841
 20
81.3964
 11
48.8163
 21
81.5787
  0
LINE
  8
0
 10
48.8163
 20
81.5787
 11
48.6808
 21
81.7861
  0
LINE
  8
0
 10
48.6808
 20
81.7861
 11
48.5813
 21
82.013
  0
LINE
  8
0
 10
48.5813
 20
82.013
 11
48.5204
 21
82.2531
  0
LINE
  8
0
 10
48.5204
 20
82.2531
 11
48.5
 21
82.5
  0
LINE
  8
0
 10
48.5
 20
82.5
 11
48.5204
 21
82.7469
  0
LINE
  8
0
 10
48.5204
 20
82.7469
 11
48.5813
 21
82.987
  0
LINE
  8
0
 10
48.5813
 20
82.987
 11
48.6808
 21
83.2139
  0
LINE
  8
0
 10
48.6808
 20
83.2139
 11
48.8163
 21
83.4213
  0
LINE
  8
0
 10
48.8163
 20
83.4213
 11
48.9841
 21
83.6036
  0
LINE
  8
0
 10
48.9841
 20
83.6036
 11
49.1796
 21
83.7558
  0
LINE
  8
0
 10
49.1796
 20
83.7558
 11
49.3974
 21
83.8737
  0
LINE
  8
0
 10
49.3974
 20
83.8737
 11
49.6318
 21
83.9541
  0
LINE
  8
0
 10
49.6318
 20
83.9541
 11
49.8761
 21
83.9949
  0
LINE
  8
0
 10
49.8761
 20
83.9949
 11
128.124
 21
83.9949
  0
LINE
  8
0
 10
128.124
 20
83.9949
 11
128.368
 21
83.9541
  0
LINE
  8
0
 10
128.368
 20
83.9541
 11
128.603
 21
83.8737
  0
LINE
  8
0
 10
128.603
 20
83.8737
 11
128.82
 21
83.7558
  0
LINE
  8
0
 10
128.82
 20
83.7558
 11
129.016
 21
83.6036
  0
LINE
  8
0
 10
129.016
 20
83.6036
 11
129.184
 21
83.4213
  0
LINE
  8
0
 10
129.184
 20
83.4213
 11
129.319
 21
83.2139
  0
LINE
  8
0
 10
129.319
 20
83.2139
 11
129.419
 21
82.987
  0
LINE
  8
0
 10
129.419
 20
82.987
 11
129.48
 21
82.7469
  0
LINE
  8
0
 10
129.48
 20
82.7469
 11
129.5
 21
82.5
  0
LINE
  8
0
 10
129.5
 20
82.5
 11
129.48
 21
82.2531
  0
LINE
  8
0
 10
129.48
 20
82.2531
 11
129.419
 21
82.013
  0
LINE
  8
0
 10
129.419
 20
82.013
 11
129.319
 21
81.7861
  0
LINE
  8
0
 10
129.319
 20
81.7861
 11
129.184
 21
81.5787
  0
LINE
  8
0
 10
129.184
 20
81.5787
 11
129.016
 21
81.3964
  0
LINE
  8
0
 10
129.016
 20
81.3964
 11
128.82
 21
81.2442
  0
LINE
  8
0
 10
128.82
 20
81.2442
 11
128.603
 21
81.1263
  0
LINE
  8
0
 10
128.603
 20
81.1263
 11
128.368
 21
81.0459
  0
LINE
  8
0
 10
128.368
 20
81.0459
 11
128.124
 21
81.0051
  0
LINE
  8
0
 10
128.124
 20
81.0051
 11
49.8761
 21
81.0051
  0
LINE
  8
0
 10
49.8761
 20
73.5051
 11
49.6318
 21
73.5459
  0
LINE
  8
0
 10
49.6318
 20
73.5459
 11
49.3974
 21
73.6263
  0
LINE
  8
0
 10
49.3974
 20
73.6263
 11
49.1796
 21
73.7442
  0
LINE
  8
0
 10
49.1796
 20
73.7442
 11
48.9841
 21
73.8964
  0
LINE
  8
0
 10
48.9841
 20
73.8964
 11
48.8163
 21
74.0787
  0
LINE
  8
0
 10
48.8163
 20
74.0787
 11
48.6808
 21
74.2861
  0
LINE
  8
0
 10
48.6808
 20
74.2861
 11
48.5813
 21
74.513
  0
LINE
  8
0
 10
48.5813
 20
74.513
 11
48.5204
 21
74.7531
  0
LINE
  8
0
 10
48.5204
 20
74.7531
 11
48.5
 21
75
  0
LINE
  8
0
 10
48.5
 20
75
 11
48.5204
 21
75.2469
  0
LINE
  8
0
 10
48.5204
 20
75.2469
 11
48.5813
 21
75.487
  0
LINE
  8
0
 10
48.5813
 20
75.487
 11
48.6808
 21
75.7139
  0
LINE
  8
0
 10
48.6808
 20
75.7139
 11
48.8163
 21
75.9213
  0
LINE
  8
0
 10
48.8163
 20
75.9213
 11
48.9841
 21
76.1036
  0
LINE
  8
0
 10
48.9841
 20
76.1036
 11
49.1796
 21
76.2558
  0
LINE
  8
0
 10
49.1796
 20
76.2558
 11
49.3974
 21
76.3737
  0
LINE
  8
0
 10
49.3974
 20
76.3737
 11
49.6318
 21
76.4541
  0
LINE
  8
0
 10
49.6318
 20
76.4541
 11
49.8761
 21
76.4949
  0
LINE
  8
0
 10
49.8761
 20
76.4949
 11
128.124
 21
76.4949
  0
LINE
  8
0
 10
128.124
 20
76.4949
 11
128.368
 21
76.4541
  0
LINE
  8
0
 10
128.368
 20
76.4541
 11
128.603
 21
76.3737
  0
LINE
  8
0
 10
128.603
 20
76.3737
 11
128.82
 21
76.2558
  0
LINE
  8
0
 10
128.82
 20
76.2558
 11
129.016
 21
76.1036
  0
LINE
  8
0
 10
129.016
 20
76.1036
 11
129.184
 21
75.9213
  0
LINE
  8
0
 10
129.184
 20
75.9213
 11
129.319
 21
75.7139
  0
LINE
  8
0
 10
129.319
 20
75.7139
 11
129.419
 21
75.487
  0
LINE
  8
0
 10
129.419
 20
75.487
 11
129.48
 21
75.2469
  0
LINE
  8
0
 10
129.48
 20
75.2469
 11
129.5
 21
75
  0
LINE
  8
0
 10
129.5
 20
75
 11
129.48
 21
74.7531
  0
LINE
  8
0
 10
129.48
 20
74.7531
 11
129.419
 21
74.513
  0
LINE
  8
0
 10
129.419
 20
74.513
 11
129.319
 21
74.2861
  0
LINE
  8
0
 10
129.319
 20
74.2861
 11
129.184
 21
74.0787
  0
LINE
  8
0
 10
129.184
 20
74.0787
 11
129.016
 21
73.8964
  0
LINE
  8
0
 10
129.016
 20
73.8964
 11
128.82
 21
73.7442
  0
LINE
  8
0
 10
128.82
 20
73.7442
 11
128.603
 21
73.6263
  0
LINE
  8
0
 10
128.603
 20
73.6263
 11
128.368
 21
73.5459
  0
LINE
  8
0
 10
128.368
 20
73.5459
 11
128.124
 21
73.5051
  0
LINE
  8
0
 10
128.124
 20
73.5051
 11
49.8761
 21
73.5051
  0
LINE
  8
0
 10
49.8761
 20
66.0051
 11
49.6318
 21
66.0459
  0
LINE
  8
0
 10
49.6318
 20
66.0459
 11
49.3974
 21
66.1263
  0
LINE
  8
0
 10
49.3974
 20
66.1263
 11
49.1796
 21
66.2442
  0
LINE
  8
0
 10
49.1796
 20
66.2442
 11
48.9841
 21
66.3964
  0
LINE
  8
0
 10
48.9841
 20
66.3964
 11
48.8163
 21
66.5787
  0
LINE
  8
0
 10
48.8163
 20
66.5787
 11
48.6808
 21
66.7861
  0
LINE
  8
0
 10
48.6808
 20
66.7861
 11
48.5813
 21
67.013
  0
LINE
  8
0
 10
48.5813
 20
67.013
 11
48.5204
 21
67.2531
  0
LINE
  8
0
 10
48.5204
 20
67.2531
 11
48.5
 21
67.5
  0
LINE
  8
0
 10
48.5
 20
67.5
 11
48.5204
 21
67.7469
  0
LINE
  8
0
 10
48.5204
 20
67.7469
 11
48.5813
 21
67.987
  0
LINE
  8
0
 10
48.5813
 20
67.987
 11
48.6808
 21
68.2139
  0
LINE
  8
0
 10
48.6808
 20
68.2139
 11
48.8163
 21
68.4213
  0
LINE
  8
0
 10
48.8163
 20
68.4213
 11
48.9841
 21
68.6036
  0
LINE
  8
0
 10
48.9841
 20
68.6036
 11
49.1796
 21
68.7558
  0
LINE
  8
0
 10
49.1796
 20
68.7558
 11
49.3974
 21
68.8737
  0
LINE
  8
0
 10
49.3974
 20
68.8737
 11
49.6318
 21
68.9541
  0
LINE
  8
0
 10
49.6318
 20
68.9541
 11
49.8761
 21
68.9949
  0
LINE
  8
0
 10
49.8761
 20
68.9949
 11
128.124
 21
68.9949
  0
LINE
  8
0
 10
128.124
 20
68.9949
 11
128.368
 21
68.9541
  0
LINE
  8
0
 10
128.368
 20
68.9541
 11
128.603
 21
68.8737
  0
LINE
  8
0
 10
128.603
 20
68.8737
 11
128.82
 21
68.7558
  0
LINE
  8
0
 10
128.82
 20
68.7558
 11
129.016
 21
68.6036
  0
LINE
  8
0
 10
129.016
 20
68.6036
 11
129.184
 21
68.4213
  0
LINE
  8
0
 10
129.184
 20
68.4213
 11
129.319
 21
68.2139
  0
LINE
  8
0
 10
129.319
 20
68.2139
 11
129.419
 21
67.987
  0
LINE
  8
0
 10
129.419
 20
67.987
 11
129.48
 21
67.7469
  0
LINE
  8
0
 10
129.48
 20
67.7469
 11
129.5
 21
67.5
  0
LINE
  8
0
 10
129.5
 20
67.5
 11
129.48
 21
67.2531
  0
LINE
  8
0
 10
129.48
 20
67.2531
 11
129.419
 21
67.013
  0
LINE
  8
0
 10
129.419
 20
67.013
 11
129.319
 21
66.7861
  0
LINE
  8
0
 10
129.319
 20
66.7861
 11
129.184
 21
66.5787
  0
LINE
  8
0
 10
129.184
 20
66.5787
 11
129.016
 21
66.3964
  0
LINE
  8
0
 10
129.016
 20
66.3964
 11
128.82
 21
66.2442
  0
LINE
  8
0
 10
128.82
 20
66.2442
 11
128.603
 21
66.1263
  0
LINE
  8
0
 10
128.603
 20
66.1263
 11
128.368
 21
66.0459
  0
LINE
  8
0
 10
128.368
 20
66.0459
 11
128.124
 21
66.0051
  0
LINE
  8
0
 10
128.124
 20
66.0051
 11
49.8761
 21
66.0051
  0
LINE
  8
0
 10
49.8761
 20
58.5051
 11
49.6318
 21
58.5459
  0
LINE
  8
0
 10
49.6318
 20
58.5459
 11
49.3974
 21
58.6263
  0
LINE
  8
0
 10
49.3974
 20
58.6263
 11
49.1796
 21
58.7442
  0
LINE
  8
0
 10
49.1796
 20
58.7442
 11
48.9841
 21
58.8964
  0
LINE
  8
0
 10
48.9841
 20
58.8964
 11
48.8163
 21
59.0787
  0
LINE
  8
0
 10
48.8163
 20
59.0787
 11
48.6808
 21
59.2861
  0
LINE
  8
0
 10
48.6808
 20
59.2861
 11
48.5813
 21
59.5129
  0
LINE
  8
0
 10
48.5813
 20
59.5129
 11
48.5204
 21
59.7531
  0
LINE
  8
0
 10
48.5204
 20
59.7531
 11
48.5
 21
60
  0
LINE
  8
0
 10
48.5
 20
60
 11
48.5204
 21
60.2469
  0
LINE
  8
0
 10
48.5204
 20
60.2469
 11
48.5813
 21
60.487
  0
LINE
  8
0
 10
48.5813
 20
60.487
 11
48.6808
 21
60.7139
  0
LINE
  8
0
 10
48.6808
 20
60.7139
 11
48.8163
 21
60.9213
  0
LINE
  8
0
 10
48.8163
 20
60.9213
 11
48.9841
 21
61.1036
  0
LINE
  8
0
 10
48.9841
 20
61.1036
 11
49.1796
 21
61.2558
  0
LINE
  8
0
 10
49.1796
 20
61.2558
 11
49.3974
 21
61.3737
  0
LINE
  8
0
 10
49.3974
 20
61.3737
 11
49.6318
 21
61.4541
  0
LINE
  8
0
 10
49.6318
 20
61.4541
 11
49.8761
 21
61.4949
  0
LINE
  8
0
 10
49.8761
 20
61.4949
 11
128.124
 21
61.4949
  0
LINE
  8
0
 10
128.124
 20
61.4949
 11
128.368
 21
61.4541
  0
LINE
  8
0
 10
128.368
 20
61.4541
 11
128.603
 21
61.3737
  0
LINE
  8
0
 10
128.603
 20
61.3737
 11
128.82
 21
61.2558
  0
LINE
  8
0
 10
128.82
 20
61.2558
 11
129.016
 21
61.1036
  0
LINE
  8
0
 10
129.016
 20
61.1036
 11
129.184
 21
60.9213
  0
LINE
  8
0
 10
129.184
 20
60.9213
 11
129.319
 21
60.7139
  0
LINE
  8
0
 10
129.319
 20
60.7139
 11
129.419
 21
60.487
  0
LINE
  8
0
 10
129.419
 20
60.487
 11
129.48
 21
60.2469
  0
LINE
  8
0
 10
129.48
 20
60.2469
 11
129.5
 21
60
  0
LINE
  8
0
 10
129.5
 20
60
 11
129.48
 21
59.7531
  0
LINE
  8
0
 10
129.48
 20
59.7531
 11
129.419
 21
59.5129
  0
LINE
  8
0
 10
129.419
 20
59.5129
 11
129.319
 21
59.2861
  0
LINE
  8
0
 10
129.319
 20
59.2861
 11
129.184
 21
59.0787
  0
LINE
  8
0
 10
129.184
 20
59.0787
 11
129.016
 21
58.8964
  0
LINE
  8
0
 10
129.016
 20
58.8964
 11
128.82
 21
58.7442
  0
LINE
  8
0
 10
128.82
 20
58.7442
 11
128.603
 21
58.6263
  0
LINE
  8
0
 10
128.603
 20
58.6263
 11
128.368
 21
58.5459
  0
LINE
  8
0
 10
128.368
 20
58.5459
 11
128.124
 21
58.5051
  0
LINE
  8
0
 10
128.124
 20
58.5051
 11
49.8761
 21
58.5051
  0
LINE
  8
0
 10
49.8761
 20
51.0051
 11
49.6318
 21
51.0459
  0
LINE
  8
0
 10
49.6318
 20
51.0459
 11
49.3974
 21
51.1263
  0
LINE
  8
0
 10
49.3974
 20
51.1263
 11
49.1796
 21
51.2442
  0
LINE
  8
0
 10
49.1796
 20
51.2442
 11
48.9841
 21
51.3964
  0
LINE
  8
0
 10
48.9841
 20
51.3964
 11
48.8163
 21
51.5787
  0
LINE
  8
0
 10
48.8163
 20
51.5787
 11
48.6808
 21
51.7861
  0
LINE
  8
0
 10
48.6808
 20
51.7861
 11
48.5813
 21
52.0129
  0
LINE
  8
0
 10
48.5813
 20
52.0129
 11
48.5204
 21
52.2531
  0
LINE
  8
0
 10
48.5204
 20
52.2531
 11
48.5
 21
52.5
  0
LINE
  8
0
 10
48.5
 20
52.5
 11
48.5204
 21
52.7469
  0
LINE
  8
0
 10
48.5204
 20
52.7469
 11
48.5813
 21
52.987
  0
LINE
  8
0
 10
48.5813
 20
52.987
 11
48.6808
 21
53.2139
  0
LINE
  8
0
 10
48.6808
 20
53.2139
 11
48.8163
 21
53.4213
  0
LINE
  8
0
 10
48.8163
 20
53.4213
 11
48.9841
 21
53.6036
  0
LINE
  8
0
 10
48.9841
 20
53.6036
 11
49.1796
 21
53.7558
  0
LINE
  8
0
 10
49.1796
 20
53.7558
 11
49.3974
 21
53.8737
  0
LINE
  8
0
 10
49.3974
 20
53.8737
 11
49.6318
 21
53.9541
  0
LINE
  8
0
 10
49.6318
 20
53.9541
 11
49.8761
 21
53.9949
  0
LINE
  8
0
 10
49.8761
 20
53.9949
 11
128.124
 21
53.9949
  0
LINE
  8
0
 10
128.124
 20
53.9949
 11
128.368
 21
53.9541
  0
LINE
  8
0
 10
128.368
 20
53.9541
 11
128.603
 21
53.8737
  0
LINE
  8
0
 10
128.603
 20
53.8737
 11
128.82
 21
53.7558
  0
LINE
  8
0
 10
128.82
 20
53.7558
 11
129.016
 21
53.6036
  0
LINE
  8
0
 10
129.016
 20
53.6036
 11
129.184
 21
53.4213
  0
LINE
  8
0
 10
129.184
 20
53.4213
 11
129.319
 21
53.2139
  0
LINE
  8
0
 10
129.319
 20
53.2139
 11
129.419
 21
52.987
  0
LINE
  8
0
 10
129.419
 20
52.987
 11
129.48
 21
52.7469
  0
LINE
  8
0
 10
129.48
 20
52.7469
 11
129.5
 21
52.5
  0
LINE
  8
0
 10
129.5
 20
52.5
 11
129.48
 21
52.2531
  0
LINE
  8
0
 10
129.48
 20
52.2531
 11
129.419
 21
52.0129
  0
LINE
  8
0
 10
129.419
 20
52.0129
 11
129.319
 21
51.7861
  0
LINE
  8
0
 10
129.319
 20
51.7861
 11
129.184
 21
51.5787
  0
LINE
  8
0
 10
129.184
 20
51.5787
 11
129.016
 21
51.3964
  0
LINE
  8
0
 10
129.016
 20
51.3964
 11
128.82
 21
51.2442
  0
LINE
  8
0
 10
128.82
 20
51.2442
 11
128.603
 21
51.1263
  0
LINE
  8
0
 10
128.603
 20
51.1263
 11
128.368
 21
51.0459
  0
LINE
  8
0
 10
128.368
 20
51.0459
 11
128.124
 21
51.0051
  0
LINE
  8
0
 10
128.124
 20
51.0051
 11
49.8761
 21
51.0051
  0
LINE
  8
0
 10
49.8761
 20
43.5051
 11
49.6318
 21
43.5459
  0
LINE
  8
0
 10
49.6318
 20
43.5459
 11
49.3974
 21
43.6263
  0
LINE
  8
0
 10
49.3974
 20
43.6263
 11
49.1796
 21
43.7442
  0
LINE
  8
0
 10
49.1796
 20
43.7442
 11
48.9841
 21
43.8964
  0
LINE
  8
0
 10
48.9841
 20
43.8964
 11
48.8163
 21
44.0787
  0
LINE
  8
0
 10
48.8163
 20
44.0787
 11
48.6808
 21
44.2861
  0
LINE
  8
0
 10
48.6808
 20
44.2861
 11
48.5813
 21
44.5129
  0
LINE
  8
0
 10
48.5813
 20
44.5129
 11
48.5204
 21
44.7531
  0
LINE
  8
0
 10
48.5204
 20
44.7531
 11
48.5
 21
45
  0
LINE
  8
0
 10
48.5
 20
45
 11
48.5204
 21
45.2469
  0
LINE
  8
0
 10
48.5204
 20
45.2469
 11
48.5813
 21
45.487
  0
LINE
  8
0
 10
48.5813
 20
45.487
 11
48.6808
 21
45.7139
  0
LINE
  8
0
 10
48.6808
 20
45.7139
 11
48.8163
 21
45.9213
  0
LINE
  8
0
 10
48.8163
 20
45.9213
 11
48.9841
 21
46.1036
  0
LINE
  8
0
 10
48.9841
 20
46.1036
 11
49.1796
 21
46.2558
  0
LINE
  8
0
 10
49.1796
 20
46.2558
 11
49.3974
 21
46.3737
  0
LINE
  8
0
 10
49.3974
 20
46.3737
 11
49.6318
 21
46.4541
  0
LINE
  8
0
 10
49.6318
 20
46.4541
 11
49.8761
 21
46.4949
  0
LINE
  8
0
 10
49.8761
 20
46.4949
 11
128.124
 21
46.4949
  0
LINE
  8
0
 10
128.124
 20
46.4949
 11
128.368
 21
46.4541
  0
LINE
  8
0
 10
128.368
 20
46.4541
 11
128.603
 21
46.3737
  0
LINE
  8
0
 10
128.603
 20
46.3737
 11
128.82
 21
46.2558
  0
LINE
  8
0
 10
128.82
 20
46.2558
 11
129.016
 21
46.1036
  0
LINE
  8
0
 10
129.016
 20
46.1036
 11
129.184
 21
45.9213
  0
LINE
  8
0
 10
129.184
 20
45.9213
 11
129.319
 21
45.7139
  0
LINE
  8
0
 10
129.319
 20
45.7139
 11
129.419
 21
45.487
  0
LINE
  8
0
 10
129.419
 20
45.487
 11
129.48
 21
45.2469
  0
LINE
  8
0
 10
129.48
 20
45.2469
 11
129.5
 21
45
  0
LINE
  8
0
 10
129.5
 20
45
 11
129.48
 21
44.7531
  0
LINE
  8
0
 10
129.48
 20
44.7531
 11
129.419
 21
44.5129
  0
LINE
  8
0
 10
129.419
 20
44.5129
 11
129.319
 21
44.2861
  0
LINE
  8
0
 10
129.319
 20
44.2861
 11
129.184
 21
44.0787
  0
LINE
  8
0
 10
129.184
 20
44.0787
 11
129.016
 21
43.8964
  0
LINE
  8
0
 10
129.016
 20
43.8964
 11
128.82
 21
43.7442
  0
LINE
  8
0
 10
128.82
 20
43.7442
 11
128.603
 21
43.6263
  0
LINE
  8
0
 10
128.603
 20
43.6263
 11
128.368
 21
43.5459
  0
LINE
  8
0
 10
128.368
 20
43.5459
 11
128.124
 21
43.5051
  0
LINE
  8
0
 10
128.124
 20
43.5051
 11
49.8761
 21
43.5051
  0
LINE
  8
0
 10
49.8761
 20
36.0051
 11
49.6318
 21
36.0459
  0
LINE
  8
0
 10
49.6318
 20
36.0459
 11
49.3974
 21
36.1263
  0
LINE
  8
0
 10
49.3974
 20
36.1263
 11
49.1796
 21
36.2442
  0
LINE
  8
0
 10
49.1796
 20
36.2442
 11
48.9841
 21
36.3964
  0
LINE
  8
0
 10
48.9841
 20
36.3964
 11
48.8163
 21
36.5787
  0
LINE
  8
0
 10
48.8163
 20
36.5787
 11
48.6808
 21
36.7861
  0
LINE
  8
0
 10
48.6808
 20
36.7861
 11
48.5813
 21
37.0129
  0
LINE
  8
0
 10
48.5813
 20
37.0129
 11
48.5204
 21
37.2531
  0
LINE
  8
0
 10
48.5204
 20
37.2531
 11
48.5
 21
37.5
  0
LINE
  8
0
 10
48.5
 20
37.5
 11
48.5204
 21
37.7469
  0
LINE
  8
0
 10
48.5204
 20
37.7469
 11
48.5813
 21
37.987
  0
LINE
  8
0
 10
48.5813
 20
37.987
 11
48.6808
 21
38.2139
  0
LINE
  8
0
 10
48.6808
 20
38.2139
 11
48.8163
 21
38.4213
  0
LINE
  8
0
 10
48.8163
 20
38.4213
 11
48.9841
 21
38.6036
  0
LINE
  8
0
 10
48.9841
 20
38.6036
 11
49.1796
 21
38.7558
  0
LINE
  8
0
 10
49.1796
 20
38.7558
 11
49.3974
 21
38.8737
  0
LINE
  8
0
 10
49.3974
 20
38.8737
 11
49.6318
 21
38.9541
  0
LINE
  8
0
 10
49.6318
 20
38.9541
 11
49.8761
 21
38.9949
  0
LINE
  8
0
 10
49.8761
 20
38.9949
 11
128.124
 21
38.9949
  0
LINE
  8
0
 10
128.124
 20
38.9949
 11
128.368
 21
38.9541
  0
LINE
  8
0
 10
128.368
 20
38.9541
 11
128.603
 21
38.8737
  0
LINE
  8
0
 10
128.603
 20
38.8737
 11
128.82
 21
38.7558
  0
LINE
  8
0
 10
128.82
 20
38.7558
 11
129.016
 21
38.6036
  0
LINE
  8
0
 10
129.016
 20
38.6036
 11
129.184
 21
38.4213
  0
LINE
  8
0
 10
129.184
 20
38.4213
 11
129.319
 21
38.2139
  0
LINE
  8
0
 10
129.319
 20
38.2139
 11
129.419
 21
37.987
  0
LINE
  8
0
 10
129.419
 20
37.987
 11
129.48
 21
37.7469
  0
LINE
  8
0
 10
129.48
 20
37.7469
 11
129.5
 21
37.5
  0
LINE
  8
0
 10
129.5
 20
37.5
 11
129.48
 21
37.2531
  0
LINE
  8
0
 10
129.48
 20
37.2531
 11
129.419
 21
37.0129
  0
LINE
  8
0
 10
129.419
 20
37.0129
 11
129.319
 21
36.7861
  0
LINE
  8
0
 10
129.319
 20
36.7861
 11
129.184
 21
36.5787
  0
LINE
  8
0
 10
129.184
 20
36.5787
 11
129.016
 21
36.3964
  0
LINE
  8
0
 10
129.016
 20
36.3964
 11
128.82
 21
36.2442
  0
LINE
  8
0
 10
128.82
 20
36.2442
 11
128.603
 21
36.1263
  0
LINE
  8
0
 10
128.603
 20
36.1263
 11
128.368
 21
36.0459
  0
LINE
  8
0
 10
128.368
 20
36.0459
 11
128.124
 21
36.0051
  0
LINE
  8
0
 10
128.124
 20
36.0051
 11
49.8761
 21
36.0051
  0
LINE
  8
0
 10
49.8761
 20
28.5051
 11
49.6318
 21
28.5459
  0
LINE
  8
0
 10
49.6318
 20
28.5459
 11
49.3974
 21
28.6263
  0
LINE
  8
0
 10
49.3974
 20
28.6263
 11
49.1796
 21
28.7442
  0
LINE
  8
0
 10
49.1796
 20
28.7442
 11
48.9841
 21
28.8964
  0
LINE
  8
0
 10
48.9841
 20
28.8964
 11
48.8163
 21
29.0787
  0
LINE
  8
0
 10
48.8163
 20
29.0787
 11
48.6808
 21
29.2861
  0
LINE
  8
0
 10
48.6808
 20
29.2861
 11
48.5813
 21
29.5129
  0
LINE
  8
0
 10
48.5813
 20
29.5129
 11
48.5204
 21
29.7531
  0
LINE
  8
0
 10
48.5204
 20
29.7531
 11
48.5
 21
30
  0
LINE
  8
0
 10
48.5
 20
30
 11
48.5204
 21
30.2469
  0
LINE
  8
0
 10
48.5204
 20
30.2469
 11
48.5813
 21
30.487
  0
LINE
  8
0
 10
48.5813
 20
30.487
 11
48.6808
 21
30.7139
  0
LINE
  8
0
 10
48.6808
 20
30.7139
 11
48.8163
 21
30.9213
  0
LINE
  8
0
 10
48.8163
 20
30.9213
 11
48.9841
 21
31.1036
  0
LINE
  8
0
 10
48.9841
 20
31.1036
 11
49.1796
 21
31.2557
  0
LINE
  8
0
 10
49.1796
 20
31.2557
 11
49.3974
 21
31.3737
  0
LINE
  8
0
 10
49.3974
 20
31.3737
 11
49.6318
 21
31.4541
  0
LINE
  8
0
 10
49.6318
 20
31.4541
 11
49.8761
 21
31.4949
  0
LINE
  8
0
 10
49.8761
 20
31.4949
 11
128.124
 21
31.4949
  0
LINE
  8
0
 10
128.124
 20
31.4949
 11
128.368
 21
31.4541
  0
LINE
  8
0
 10
128.368
 20
31.4541
 11
128.603
 21
31.3737
  0
LINE
  8
0
 10
128.603
 20
31.3737
 11
128.82
 21
31.2557
  0
LINE
  8
0
 10
128.82
 20
31.2557
 11
129.016
 21
31.1036
  0
LINE
  8
0
 10
129.016
 20
31.1036
 11
129.184
 21
30.9213
  0
LINE
  8
0
 10
129.184
 20
30.9213
 11
129.319
 21
30.7139
  0
LINE
  8
0
 10
129.319
 20
30.7139
 11
129.419
 21
30.487
  0
LINE
  8
0
 10
129.419
 20
30.487
 11
129.48
 21
30.2469
  0
LINE
  8
0
 10
129.48
 20
30.2469
 11
129.5
 21
30
  0
LINE
  8
0
 10
129.5
 20
30
 11
129.48
 21
29.7531
  0
LINE
  8
0
 10
129.48
 20
29.7531
 11
129.419
 21
29.5129
  0
LINE
  8
0
 10
129.419
 20
29.5129
 11
129.319
 21
29.2861
  0
LINE
  8
0
 10
129.319
 20
29.2861
 11
129.184
 21
29.0787
  0
LINE
  8
0
 10
129.184
 20
29.0787
 11
129.016
 21
28.8964
  0
LINE
  8
0
 10
129.016
 20
28.8964
 11
128.82
 21
28.7442
  0
LINE
  8
0
 10
128.82
 20
28.7442
 11
128.603
 21
28.6263
  0
LINE
  8
0
 10
128.603
 20
28.6263
 11
128.368
 21
28.5459
  0
LINE
  8
0
 10
128.368
 20
28.5459
 11
128.124
 21
28.5051
  0
LINE
  8
0
 10
128.124
 20
28.5051
 11
49.8761
 21
28.5051
  0
LINE
  8
0
 10
49.8761
 20
21.0051
 11
49.6318
 21
21.0459
  0
LINE
  8
0
 10
49.6318
 20
21.0459
 11
49.3974
 21
21.1263
  0
LINE
  8
0
 10
49.3974
 20
21.1263
 11
49.1796
 21
21.2442
  0
LINE
  8
0
 10
49.1796
 20
21.2442
 11
48.9841
 21
21.3964
  0
LINE
  8
0
 10
48.9841
 20
21.3964
 11
48.8163
 21
21.5787
  0
LINE
  8
0
 10
48.8163
 20
21.5787
 11
48.6808
 21
21.7861
  0
LINE
  8
0
 10
48.6808
 20
21.7861
 11
48.5813
 21
22.0129
  0
LINE
  8
0
 10
48.5813
 20
22.0129
 11
48.5204
 21
22.2531
  0
LINE
  8
0
 10
48.5204
 20
22.2531
 11
48.5
 21
22.5
  0
LINE
  8
0
 10
48.5
 20
22.5
 11
48.5204
 21
22.7469
  0
LINE
  8
0
 10
48.5204
 20
22.7469
 11
48.5813
 21
22.987
  0
LINE
  8
0
 10
48.5813
 20
22.987
 11
48.6808
 21
23.2139
  0
LINE
  8
0
 10
48.6808
 20
23.2139
 11
48.8163
 21
23.4213
  0
LINE
  8
0
 10
48.8163
 20
23.4213
 11
48.9841
 21
23.6036
  0
LINE
  8
0
 10
48.9841
 20
23.6036
 11
49.1796
 21
23.7557
  0
LINE
  8
0
 10
49.1796
 20
23.7557
 11
49.3974
 21
23.8737
  0
LINE
  8
0
 10
49.3974
 20
23.8737
 11
49.6318
 21
23.9541
  0
LINE
  8
0
 10
49.6318
 20
23.9541
 11
49.8761
 21
23.9949
  0
LINE
  8
0
 10
49.8761
 20
23.9949
 11
128.124
 21
23.9949
  0
LINE
  8
0
 10
128.124
 20
23.9949
 11
128.368
 21
23.9541
  0
LINE
  8
0
 10
128.368
 20
23.9541
 11
128.603
 21
23.8737
  0
LINE
  8
0
 10
128.603
 20
23.8737
 11
128.82
 21
23.7557
  0
LINE
  8
0
 10
128.82
 20
23.7557
 11
129.016
 21
23.6036
  0
LINE
  8
0
 10
129.016
 20
23.6036
 11
129.184
 21
23.4213
  0
LINE
  8
0
 10
129.184
 20
23.4213
 11
129.319
 21
23.2139
  0
LINE
  8
0
 10
129.319
 20
23.2139
 11
129.419
 21
22.987
  0
LINE
  8
0
 10
129.419
 20
22.987
 11
129.48
 21
22.7469
  0
LINE
  8
0
 10
129.48
 20
22.7469
 11
129.5
 21
22.5
  0
LINE
  8
0
 10
129.5
 20
22.5
 11
129.48
 21
22.2531
  0
LINE
  8
0
 10
129.48
 20
22.2531
 11
129.419
 21
22.0129
  0
LINE
  8
0
 10
129.419
 20
22.0129
 11
129.319
 21
21.7861
  0
LINE
  8
0
 10
129.319
 20
21.7861
 11
129.184
 21
21.5787
  0
LINE
  8
0
 10
129.184
 20
21.5787
 11
129.016
 21
21.3964
  0
LINE
  8
0
 10
129.016
 20
21.3964
 11
128.82
 21
21.2442
  0
LINE
  8
0
 10
128.82
 20
21.2442
 11
128.603
 21
21.1263
  0
LINE
  8
0
 10
128.603
 20
21.1263
 11
128.368
 21
21.0459
  0
LINE
  8
0
 10
128.368
 20
21.0459
 11
128.124
 21
21.0051
  0
LINE
  8
0
 10
128.124
 20
21.0051
 11
49.8761
 21
21.0051
  0
LINE
  8
0
 10
49.8761
 20
13.5051
 11
49.6318
 21
13.5459
  0
LINE
  8
0
 10
49.6318
 20
13.5459
 11
49.3974
 21
13.6263
  0
LINE
  8
0
 10
49.3974
 20
13.6263
 11
49.1796
 21
13.7442
  0
LINE
  8
0
 10
49.1796
 20
13.7442
 11
48.9841
 21
13.8964
  0
LINE
  8
0
 10
48.9841
 20
13.8964
 11
48.8163
 21
14.0787
  0
LINE
  8
0
 10
48.8163
 20
14.0787
 11
48.6808
 21
14.2861
  0
LINE
  8
0
 10
48.6808
 20
14.2861
 11
48.5813
 21
14.5129
  0
LINE
  8
0
 10
48.5813
 20
14.5129
 11
48.5204
 21
14.7531
  0
LINE
  8
0
 10
48.5204
 20
14.7531
 11
48.5
 21
15
  0
LINE
  8
0
 10
48.5
 20
15
 11
48.5204
 21
15.2469
  0
LINE
  8
0
 10
48.5204
 20
15.2469
 11
48.5813
 21
15.487
  0
LINE
  8
0
 10
48.5813
 20
15.487
 11
48.6808
 21
15.7139
  0
LINE
  8
0
 10
48.6808
 20
15.7139
 11
48.8163
 21
15.9213
  0
LINE
  8
0
 10
48.8163
 20
15.9213
 11
48.9841
 21
16.1036
  0
LINE
  8
0
 10
48.9841
 20
16.1036
 11
49.1796
 21
16.2557
  0
LINE
  8
0
 10
49.1796
 20
16.2557
 11
49.3974
 21
16.3737
  0
LINE
  8
0
 10
49.3974
 20
16.3737
 11
49.6318
 21
16.4541
  0
LINE
  8
0
 10
49.6318
 20
16.4541
 11
49.8761
 21
16.4949
  0
LINE
  8
0
 10
49.8761
 20
16.4949
 11
128.124
 21
16.4949
  0
LINE
  8
0
 10
128.124
 20
16.4949
 11
128.368
 21
16.4541
  0
LINE
  8
0
 10
128.368
 20
16.4541
 11
128.603
 21
16.3737
  0
LINE
  8
0
 10
128.603
 20
16.3737
 11
128.82
 21
16.2557
  0
LINE
  8
0
 10
128.82
 20
16.2557
 11
129.016
 21
16.1036
  0
LINE
  8
0
 10
129.016
 20
16.1036
 11
129.184
 21
15.9213
  0
LINE
  8
0
 10
129.184
 20
15.9213
 11
129.319
 21
15.7139
  0
LINE
  8
0
 10
129.319
 20
15.7139
 11
129.419
 21
15.487
  0
LINE
  8
0
 10
129.419
 20
15.487
 11
129.48
 21
15.2469
  0
LINE
  8
0
 10
129.48
 20
15.2469
 11
129.5
 21
15
  0
LINE
  8
0
 10
129.5
 20
15
 11
129.48
 21
14.7531
  0
LINE
  8
0
 10
129.48
 20
14.7531
 11
129.419
 21
14.5129
  0
LINE
  8
0
 10
129.419
 20
14.5129
 11
129.319
 21
14.2861
  0
LINE
  8
0
 10
129.319
 20
14.2861
 11
129.184
 21
14.0787
  0
LINE
  8
0
 10
129.184
 20
14.0787
 11
129.016
 21
13.8964
  0
LINE
  8
0
 10
129.016
 20
13.8964
 11
128.82
 21
13.7442
  0
LINE
  8
0
 10
128.82
 20
13.7442
 11
128.603
 21
13.6263
  0
LINE
  8
0
 10
128.603
 20
13.6263
 11
128.368
 21
13.5459
  0
LINE
  8
0
 10
128.368
 20
13.5459
 11
128.124
 21
13.5051
  0
LINE
  8
0
 10
128.124
 20
13.5051
 11
49.8761
 21
13.5051
  0
LINE
  8
0
 10
49.8761
 20
6.00511
 11
49.6318
 21
6.0459
  0
LINE
  8
0
 10
49.6318
 20
6.0459
 11
49.3974
 21
6.12633
  0
LINE
  8
0
 10
49.3974
 20
6.12633
 11
49.1796
 21
6.24425
  0
LINE
  8
0
 10
49.1796
 20
6.24425
 11
48.9841
 21
6.39641
  0
LINE
  8
0
 10
48.9841
 20
6.39641
 11
48.8163
 21
6.57867
  0
LINE
  8
0
 10
48.8163
 20
6.57867
 11
48.6808
 21
6.78607
  0
LINE
  8
0
 10
48.6808
 20
6.78607
 11
48.5813
 21
7.01294
  0
LINE
  8
0
 10
48.5813
 20
7.01294
 11
48.5204
 21
7.2531
  0
LINE
  8
0
 10
48.5204
 20
7.2531
 11
48.5
 21
7.5
  0
LINE
  8
0
 10
48.5
 20
7.5
 11
48.5204
 21
7.74689
  0
LINE
  8
0
 10
48.5204
 20
7.74689
 11
48.5813
 21
7.98705
  0
LINE
  8
0
 10
48.5813
 20
7.98705
 11
48.6808
 21
8.21391
  0
LINE
  8
0
 10
48.6808
 20
8.21391
 11
48.8163
 21
8.42131
  0
LINE
  8
0
 10
48.8163
 20
8.42131
 11
48.9841
 21
8.60358
  0
LINE
  8
0
 10
48.9841
 20
8.60358
 11
49.1796
 21
8.75574
  0
LINE
  8
0
 10
49.1796
 20
8.75574
 11
49.3974
 21
8.87366
  0
LINE
  8
0
 10
49.3974
 20
8.87366
 11
49.6318
 21
8.95409
  0
LINE
  8
0
 10
49.6318
 20
8.95409
 11
49.8761
 21
8.99487
  0
LINE
  8
0
 10
49.8761
 20
8.99487
 11
128.124
 21
8.99487
  0
LINE
  8
0
 10
128.124
 20
8.99487
 11
128.368
 21
8.95409
  0
LINE
  8
0
 10
128.368
 20
8.95409
 11
128.603
 21
8.87366
  0
LINE
  8
0
 10
128.603
 20
8.87366
 11
128.82
 21
8.75574
  0
LINE
  8
0
 10
128.82
 20
8.75574
 11
129.016
 21
8.60358
  0
LINE
  8
0
 10
129.016
 20
8.60358
 11
129.184
 21
8.42131
  0
LINE
  8
0
 10
129.184
 20
8.42131
 11
129.319
 21
8.21391
  0
LINE
  8
0
 10
129.319
 20
8.21391
 11
129.419
 21
7.98705
  0
LINE
  8
0
 10
129.419
 20
7.98705
 11
129.48
 21
7.74689
  0
LINE
  8
0
 10
129.48
 20
7.74689
 11
129.5
 21
7.5
  0
LINE
  8
0
 10
129.5
 20
7.5
 11
129.48
 21
7.2531
  0
LINE
  8
0
 10
129.48
 20
7.2531
 11
129.419
 21
7.01294
  0
LINE
  8
0
 10
129.419
 20
7.01294
 11
129.319
 21
6.78607
  0
LINE
  8
0
 10
129.319
 20
6.78607
 11
129.184
 21
6.57867
  0
LINE
  8
0
 10
129.184
 20
6.57867
 11
129.016
 21
6.39641
  0
LINE
  8
0
 10
129.016
 20
6.39641
 11
128.82
 21
6.24425
  0
LINE
  8
0
 10
128.82
 20
6.24425
 11
128.603
 21
6.12633
  0
LINE
  8
0
 10
128.603
 20
6.12633
 11
128.368
 21
6.0459
  0
LINE
  8
0
 10
128.368
 20
6.0459
 11
128.124
 21
6.00511
  0
LINE
  8
0
 10
128.124
 20
6.00511
 11
49.8761
 21
6.00511
  0
LINE
  8
0
 10
49.8761
 20
-1.49487
 11
49.6318
 21
-1.45409
  0
LINE
  8
0
 10
49.6318
 20
-1.45409
 11
49.3974
 21
-1.37366
  0
LINE
  8
0
 10
49.3974
 20
-1.37366
 11
49.1796
 21
-1.25574
  0
LINE
  8
0
 10
49.1796
 20
-1.25574
 11
48.9841
 21
-1.10358
  0
LINE
  8
0
 10
48.9841
 20
-1.10358
 11
48.8163
 21
-0.92131
  0
LINE
  8
0
 10
48.8163
 20
-0.92131
 11
48.6808
 21
-0.713913
  0
LINE
  8
0
 10
48.6808
 20
-0.713913
 11
48.5813
 21
-0.487045
  0
LINE
  8
0
 10
48.5813
 20
-0.487045
 11
48.5204
 21
-0.246887
  0
LINE
  8
0
 10
48.5204
 20
-0.246887
 11
48.5
 21
0
  0
LINE
  8
0
 10
48.5
 20
0
 11
48.5204
 21
0.246887
  0
LINE
  8
0
 10
48.5204
 20
0.246887
 11
48.5813
 21
0.487045
  0
LINE
  8
0
 10
48.5813
 20
0.487045
 11
48.6808
 21
0.713913
  0
LINE
  8
0
 10
48.6808
 20
0.713913
 11
48.8163
 21
0.92131
  0
LINE
  8
0
 10
48.8163
 20
0.92131
 11
48.9841
 21
1.10358
  0
LINE
  8
0
 10
48.9841
 20
1.10358
 11
49.1796
 21
1.25574
  0
LINE
  8
0
 10
49.1796
 20
1.25574
 11
49.3974
 21
1.37366
  0
LINE
  8
0
 10
49.3974
 20
1.37366
 11
49.6318
 21
1.45409
  0
LINE
  8
0
 10
49.6318
 20
1.45409
 11
49.8761
 21
1.49487
  0
LINE
  8
0
 10
49.8761
 20
1.49487
 11
128.124
 21
1.49487
  0
LINE
  8
0
 10
128.124
 20
1.49487
 11
128.368
 21
1.45409
  0
LINE
  8
0
 10
128.368
 20
1.45409
 11
128.603
 21
1.37366
  0
LINE
  8
0
 10
128.603
 20
1.37366
 11
128.82
 21
1.25574
  0
LINE
  8
0
 10
128.82
 20
1.25574
 11
129.016
 21
1.10358
  0
LINE
  8
0
 10
129.016
 20
1.10358
 11
129.184
 21
0.92131
  0
LINE
  8
0
 10
129.184
 20
0.92131
 11
129.319
 21
0.713913
  0
LINE
  8
0
 10
129.319
 20
0.713913
 11
129.419
 21
0.487045
  0
LINE
  8
0
 10
129.419
 20
0.487045
 11
129.48
 21
0.246887
  0
LINE
  8
0
 10
129.48
 20
0.246887
 11
129.5
 21
0
  0
LINE
  8
0
 10
129.5
 20
0
 11
129.48
 21
-0.246887
  0
LINE
  8
0
 10
129.48
 20
-0.246887
 11
129.419
 21
-0.487045
  0
LINE
  8
0
 10
129.419
 20
-0.487045
 11
129.319
 21
-0.713913
  0
LINE
  8
0
 10
129.319
 20
-0.713913
 11
129.184
 21
-0.92131
  0
LINE
  8
0
 10
129.184
 20
-0.92131
 11
129.016
 21
-1.10358
  0
LINE
  8
0
 10
129.016
 20
-1.10358
 11
128.82
 21
-1.25574
  0
LINE
  8
0
 10
128.82
 20
-1.25574
 11
128.603
 21
-1.37366
  0
LINE
  8
0
 10
128.603
 20
-1.37366
 11
128.368
 21
-1.45409
  0
LINE
  8
0
 10
128.368
 20
-1.45409
 11
128.124
 21
-1.49487
  0
LINE
  8
0
 10
128.124
 20
-1.49487
 11
49.8761
 21
-1.49487
  0
LINE
  8
0
 10
49.8761
 20
-8.99487
 11
49.6318
 21
-8.95409
  0
LINE
  8
0
 10
49.6318
 20
-8.95409
 11
49.3974
 21
-8.87366
  0
LINE
  8
0
 10
49.3974
 20
-8.87366
 11
49.1796
 21
-8.75574
  0
LINE
  8
0
 10
49.1796
 20
-8.75574
 11
48.9841
 21
-8.60358
  0
LINE
  8
0
 10
48.9841
 20
-8.60358
 11
48.8163
 21
-8.42131
  0
LINE
  8
0
 10
48.8163
 20
-8.42131
 11
48.6808
 21
-8.21391
  0
LINE
  8
0
 10
48.6808
 20
-8.21391
 11
48.5813
 21
-7.98705
  0
LINE
  8
0
 10
48.5813
 20
-7.98705
 11
48.5204
 21
-7.74689
  0
LINE
  8
0
 10
48.5204
 20
-7.74689
 11
48.5
 21
-7.5
  0
LINE
  8
0
 10
48.5
 20
-7.5
 11
48.5204
 21
-7.2531
  0
LINE
  8
0
 10
48.5204
 20
-7.2531
 11
48.5813
 21
-7.01294
  0
LINE
  8
0
 10
48.5813
 20
-7.01294
 11
48.6808
 21
-6.78607
  0
LINE
  8
0
 10
48.6808
 20
-6.78607
 11
48.8163
 21
-6.57867
  0
LINE
  8
0
 10
48.8163
 20
-6.57867
 11
48.9841
 21
-6.39641
  0
LINE
  8
0
 10
48.9841
 20
-6.39641
 11
49.1796
 21
-6.24425
  0
LINE
  8
0
 10
49.1796
 20
-6.24425
 11
49.3974
 21
-6.12633
  0
LINE
  8
0
 10
49.3974
 20
-6.12633
 11
49.6318
 21
-6.0459
  0
LINE
  8
0
 10
49.6318
 20
-6.0459
 11
49.8761
 21
-6.00511
  0
LINE
  8
0
 10
49.8761
 20
-6.00511
 11
128.124
 21
-6.00511
  0
LINE
  8
0
 10
128.124
 20
-6.00511
 11
128.368
 21
-6.0459
  0
LINE
  8
0
 10
128.368
 20
-6.0459
 11
128.603
 21
-6.12633
  0
LINE
  8
0
 10
128.603
 20
-6.12633
 11
128.82
 21
-6.24425
  0
LINE
  8
0
 10
128.82
 20
-6.24425
 11
129.016
 21
-6.39641
  0
LINE
  8
0
 10
129.016
 20
-6.39641
 11
129.184
 21
-6.57867
  0
LINE
  8
0
 10
129.184
 20
-6.57867
 11
129.319
 21
-6.78607
  0
LINE
  8
0
 10
129.319
 20
-6.78607
 11
129.419
 21
-7.01294
  0
LINE
  8
0
 10
129.419
 20
-7.01294
 11
129.48
 21
-7.2531
  0
LINE
  8
0
 10
129.48
 20
-7.2531
 11
129.5
 21
-7.5
  0
LINE
  8
0
 10
129.5
 20
-7.5
 11
129.48
 21
-7.74689
  0
LINE
  8
0
 10
129.48
 20
-7.74689
 11
129.419
 21
-7.98705
  0
LINE
  8
0
 10
129.419
 20
-7.98705
 11
129.319
 21
-8.21391
  0
LINE
  8
0
 10
129.319
 20
-8.21391
 11
129.184
 21
-8.42131
  0
LINE
  8
0
 10
129.184
 20
-8.42131
 11
129.016
 21
-8.60358
  0
LINE
  8
0
 10
129.016
 20
-8.60358
 11
128.82
 21
-8.75574
  0
LINE
  8
0
 10
128.82
 20
-8.75574
 11
128.603
 21
-8.87366
  0
LINE
  8
0
 10
128.603
 20
-8.87366
 11
128.368
 21
-8.95409
  0
LINE
  8
0
 10
128.368
 20
-8.95409
 11
128.124
 21
-8.99487
  0
LINE
  8
0
 10
128.124
 20
-8.99487
 11
49.8761
 21
-8.99487
  0
LINE
  8
0
 10
49.8761
 20
-16.4949
 11
49.6318
 21
-16.4541
  0
LINE
  8
0
 10
49.6318
 20
-16.4541
 11
49.3974
 21
-16.3737
  0
LINE
  8
0
 10
49.3974
 20
-16.3737
 11
49.1796
 21
-16.2557
  0
LINE
  8
0
 10
49.1796
 20
-16.2557
 11
48.9841
 21
-16.1036
  0
LINE
  8
0
 10
48.9841
 20
-16.1036
 11
48.8163
 21
-15.9213
  0
LINE
  8
0
 10
48.8163
 20
-15.9213
 11
48.6808
 21
-15.7139
  0
LINE
  8
0
 10
48.6808
 20
-15.7139
 11
48.5813
 21
-15.487
  0
LINE
  8
0
 10
48.5813
 20
-15.487
 11
48.5204
 21
-15.2469
  0
LINE
  8
0
 10
48.5204
 20
-15.2469
 11
48.5
 21
-15
  0
LINE
  8
0
 10
48.5
 20
-15
 11
48.5204
 21
-14.7531
  0
LINE
  8
0
 10
48.5204
 20
-14.7531
 11
48.5813
 21
-14.5129
  0
LINE
  8
0
 10
48.5813
 20
-14.5129
 11
48.6808
 21
-14.2861
  0
LINE
  8
0
 10
48.6808
 20
-14.2861
 11
48.8163
 21
-14.0787
  0
LINE
  8
0
 10
48.8163
 20
-14.0787
 11
48.9841
 21
-13.8964
  0
LINE
  8
0
 10
48.9841
 20
-13.8964
 11
49.1796
 21
-13.7442
  0
LINE
  8
0
 10
49.1796
 20
-13.7442
 11
49.3974
 21
-13.6263
  0
LINE
  8
0
 10
49.3974
 20
-13.6263
 11
49.6318
 21
-13.5459
  0
LINE
  8
0
 10
49.6318
 20
-13.5459
 11
49.8761
 21
-13.5051
  0
LINE
  8
0
 10
49.8761
 20
-13.5051
 11
128.124
 21
-13.5051
  0
LINE
  8
0
 10
128.124
 20
-13.5051
 11
128.368
 21
-13.5459
  0
LINE
  8
0
 10
128.368
 20
-13.5459
 11
128.603
 21
-13.6263
  0
LINE
  8
0
 10
128.603
 20
-13.6263
 11
128.82
 21
-13.7442
  0
LINE
  8
0
 10
128.82
 20
-13.7442
 11
129.016
 21
-13.8964
  0
LINE
  8
0
 10
129.016
 20
-13.8964
 11
129.184
 21
-14.0787
  0
LINE
  8
0
 10
129.184
 20
-14.0787
 11
129.319
 21
-14.2861
  0
LINE
  8
0
 10
129.319
 20
-14.2861
 11
129.419
 21
-14.5129
  0
LINE
  8
0
 10
129.419
 20
-14.5129
 11
129.48
 21
-14.7531
  0
LINE
  8
0
 10
129.48
 20
-14.7531
 11
129.5
 21
-15
  0
LINE
  8
0
 10
129.5
 20
-15
 11
129.48
 21
-15.2469
  0
LINE
  8
0
 10
129.48
 20
-15.2469
 11
129.419
 21
-15.487
  0
LINE
  8
0
 10
129.419
 20
-15.487
 11
129.319
 21
-15.7139
  0
LINE
  8
0
 10
129.319
 20
-15.7139
 11
129.184
 21
-15.9213
  0
LINE
  8
0
 10
129.184
 20
-15.9213
 11
129.016
 21
-16.1036
  0
LINE
  8
0
 10
129.016
 20
-16.1036
 11
128.82
 21
-16.2557
  0
LINE
  8
0
 10
128.82
 20
-16.2557
 11
128.603
 21
-16.3737
  0
LINE
  8
0
 10
128.603
 20
-16.3737
 11
128.368
 21
-16.4541
  0
LINE
  8
0
 10
128.368
 20
-16.4541
 11
128.124
 21
-16.4949
  0
LINE
  8
0
 10
128.124
 20
-16.4949
 11
49.8761
 21
-16.4949
  0
LINE
  8
0
 10
49.8761
 20
-23.9949
 11
49.6318
 21
-23.9541
  0
LINE
  8
0
 10
49.6318
 20
-23.9541
 11
49.3974
 21
-23.8737
  0
LINE
  8
0
 10
49.3974
 20
-23.8737
 11
49.1796
 21
-23.7557
  0
LINE
  8
0
 10
49.1796
 20
-23.7557
 11
48.9841
 21
-23.6036
  0
LINE
  8
0
 10
48.9841
 20
-23.6036
 11
48.8163
 21
-23.4213
  0
LINE
  8
0
 10
48.8163
 20
-23.4213
 11
48.6808
 21
-23.2139
  0
LINE
  8
0
 10
48.6808
 20
-23.2139
 11
48.5813
 21
-22.987
  0
LINE
  8
0
 10
48.5813
 20
-22.987
 11
48.5204
 21
-22.7469
  0
LINE
  8
0
 10
48.5204
 20
-22.7469
 11
48.5
 21
-22.5
  0
LINE
  8
0
 10
48.5
 20
-22.5
 11
48.5204
 21
-22.2531
  0
LINE
  8
0
 10
48.5204
 20
-22.2531
 11
48.5813
 21
-22.0129
  0
LINE
  8
0
 10
48.5813
 20
-22.0129
 11
48.6808
 21
-21.7861
  0
LINE
  8
0
 10
48.6808
 20
-21.7861
 11
48.8163
 21
-21.5787
  0
LINE
  8
0
 10
48.8163
 20
-21.5787
 11
48.9841
 21
-21.3964
  0
LINE
  8
0
 10
48.9841
 20
-21.3964
 11
49.1796
 21
-21.2442
  0
LINE
  8
0
 10
49.1796
 20
-21.2442
 11
49.3974
 21
-21.1263
  0
LINE
  8
0
 10
49.3974
 20
-21.1263
 11
49.6318
 21
-21.0459
  0
LINE
  8
0
 10
49.6318
 20
-21.0459
 11
49.8761
 21
-21.0051
  0
LINE
  8
0
 10
49.8761
 20
-21.0051
 11
128.124
 21
-21.0051
  0
LINE
  8
0
 10
128.124
 20
-21.0051
 11
128.368
 21
-21.0459
  0
LINE
  8
0
 10
128.368
 20
-21.0459
 11
128.603
 21
-21.1263
  0
LINE
  8
0
 10
128.603
 20
-21.1263
 11
128.82
 21
-21.2442
  0
LINE
  8
0
 10
128.82
 20
-21.2442
 11
129.016
 21
-21.3964
  0
LINE
  8
0
 10
129.016
 20
-21.3964
 11
129.184
 21
-21.5787
  0
LINE
  8
0
 10
129.184
 20
-21.5787
 11
129.319
 21
-21.7861
  0
LINE
  8
0
 10
129.319
 20
-21.7861
 11
129.419
 21
-22.0129
  0
LINE
  8
0
 10
129.419
 20
-22.0129
 11
129.48
 21
-22.2531
  0
LINE
  8
0
 10
129.48
 20
-22.2531
 11
129.5
 21
-22.5
  0
LINE
  8
0
 10
129.5
 20
-22.5
 11
129.48
 21
-22.7469
  0
LINE
  8
0
 10
129.48
 20
-22.7469
 11
129.419
 21
-22.987
  0
LINE
  8
0
 10
129.419
 20
-22.987
 11
129.319
 21
-23.2139
  0
LINE
  8
0
 10
129.319
 20
-23.2139
 11
129.184
 21
-23.4213
  0
LINE
  8
0
 10
129.184
 20
-23.4213
 11
129.016
 21
-23.6036
  0
LINE
  8
0
 10
129.016
 20
-23.6036
 11
128.82
 21
-23.7557
  0
LINE
  8
0
 10
128.82
 20
-23.7557
 11
128.603
 21
-23.8737
  0
LINE
  8
0
 10
128.603
 20
-23.8737
 11
128.368
 21
-23.9541
  0
LINE
  8
0
 10
128.368
 20
-23.9541
 11
128.124
 21
-23.9949
  0
LINE
  8
0
 10
128.124
 20
-23.9949
 11
49.8761
 21
-23.9949
  0
LINE
  8
0
 10
49.8761
 20
-31.4949
 11
49.6318
 21
-31.4541
  0
LINE
  8
0
 10
49.6318
 20
-31.4541
 11
49.3974
 21
-31.3737
  0
LINE
  8
0
 10
49.3974
 20
-31.3737
 11
49.1796
 21
-31.2557
  0
LINE
  8
0
 10
49.1796
 20
-31.2557
 11
48.9841
 21
-31.1036
  0
LINE
  8
0
 10
48.9841
 20
-31.1036
 11
48.8163
 21
-30.9213
  0
LINE
  8
0
 10
48.8163
 20
-30.9213
 11
48.6808
 21
-30.7139
  0
LINE
  8
0
 10
48.6808
 20
-30.7139
 11
48.5813
 21
-30.487
  0
LINE
  8
0
 10
48.5813
 20
-30.487
 11
48.5204
 21
-30.2469
  0
LINE
  8
0
 10
48.5204
 20
-30.2469
 11
48.5
 21
-30
  0
LINE
  8
0
 10
48.5
 20
-30
 11
48.5204
 21
-29.7531
  0
LINE
  8
0
 10
48.5204
 20
-29.7531
 11
48.5813
 21
-29.5129
  0
LINE
  8
0
 10
48.5813
 20
-29.5129
 11
48.6808
 21
-29.2861
  0
LINE
  8
0
 10
48.6808
 20
-29.2861
 11
48.8163
 21
-29.0787
  0
LINE
  8
0
 10
48.8163
 20
-29.0787
 11
48.9841
 21
-28.8964
  0
LINE
  8
0
 10
48.9841
 20
-28.8964
 11
49.1796
 21
-28.7442
  0
LINE
  8
0
 10
49.1796
 20
-28.7442
 11
49.3974
 21
-28.6263
  0
LINE
  8
0
 10
49.3974
 20
-28.6263
 11
49.6318
 21
-28.5459
  0
LINE
  8
0
 10
49.6318
 20
-28.5459
 11
49.8761
 21
-28.5051
  0
LINE
  8
0
 10
49.8761
 20
-28.5051
 11
128.124
 21
-28.5051
  0
LINE
  8
0
 10
128.124
 20
-28.5051
 11
128.368
 21
-28.5459
  0
LINE
  8
0
 10
128.368
 20
-28.5459
 11
128.603
 21
-28.6263
  0
LINE
  8
0
 10
128.603
 20
-28.6263
 11
128.82
 21
-28.7442
  0
LINE
  8
0
 10
128.82
 20
-28.7442
 11
129.016
 21
-28.8964
  0
LINE
  8
0
 10
129.016
 20
-28.8964
 11
129.184
 21
-29.0787
  0
LINE
  8
0
 10
129.184
 20
-29.0787
 11
129.319
 21
-29.2861
  0
LINE
  8
0
 10
129.319
 20
-29.2861
 11
129.419
 21
-29.5129
  0
LINE
  8
0
 10
129.419
 20
-29.5129
 11
129.48
 21
-29.7531
  0
LINE
  8
0
 10
129.48
 20
-29.7531
 11
129.5
 21
-30
  0
LINE
  8
0
 10
129.5
 20
-30
 11
129.48
 21
-30.2469
  0
LINE
  8
0
 10
129.48
 20
-30.2469
 11
129.419
 21
-30.487
  0
LINE
  8
0
 10
129.419
 20
-30.487
 11
129.319
 21
-30.7139
  0
LINE
  8
0
 10
129.319
 20
-30.7139
 11
129.184
 21
-30.9213
  0
LINE
  8
0
 10
129.184
 20
-30.9213
 11
129.016
 21
-31.1036
  0
LINE
  8
0
 10
129.016
 20
-31.1036
 11
128.82
 21
-31.2557
  0
LINE
  8
0
 10
128.82
 20
-31.2557
 11
128.603
 21
-31.3737
  0
LINE
  8
0
 10
128.603
 20
-31.3737
 11
128.368
 21
-31.4541
  0
LINE
  8
0
 10
128.368
 20
-31.4541
 11
128.124
 21
-31.4949
  0
LINE
  8
0
 10
128.124
 20
-31.4949
 11
49.8761
 21
-31.4949
  0
LINE
  8
0
 10
49.8761
 20
-38.9949
 11
49.6318
 21
-38.9541
  0
LINE
  8
0
 10
49.6318
 20
-38.9541
 11
49.3974
 21
-38.8737
  0
LINE
  8
0
 10
49.3974
 20
-38.8737
 11
49.1796
 21
-38.7557
  0
LINE
  8
0
 10
49.1796
 20
-38.7557
 11
48.9841
 21
-38.6036
  0
LINE
  8
0
 10
48.9841
 20
-38.6036
 11
48.8163
 21
-38.4213
  0
LINE
  8
0
 10
48.8163
 20
-38.4213
 11
48.6808
 21
-38.2139
  0
LINE
  8
0
 10
48.6808
 20
-38.2139
 11
48.5813
 21
-37.987
  0
LINE
  8
0
 10
48.5813
 20
-37.987
 11
48.5204
 21
-37.7469
  0
LINE
  8
0
 10
48.5204
 20
-37.7469
 11
48.5
 21
-37.5
  0
LINE
  8
0
 10
48.5
 20
-37.5
 11
48.5204
 21
-37.2531
  0
LINE
  8
0
 10
48.5204
 20
-37.2531
 11
48.5813
 21
-37.0129
  0
LINE
  8
0
 10
48.5813
 20
-37.0129
 11
48.6808
 21
-36.7861
  0
LINE
  8
0
 10
48.6808
 20
-36.7861
 11
48.8163
 21
-36.5787
  0
LINE
  8
0
 10
48.8163
 20
-36.5787
 11
48.9841
 21
-36.3964
  0
LINE
  8
0
 10
48.9841
 20
-36.3964
 11
49.1796
 21
-36.2442
  0
LINE
  8
0
 10
49.1796
 20
-36.2442
 11
49.3974
 21
-36.1263
  0
LINE
  8
0
 10
49.3974
 20
-36.1263
 11
49.6318
 21
-36.0459
  0
LINE
  8
0
 10
49.6318
 20
-36.0459
 11
49.8761
 21
-36.0051
  0
LINE
  8
0
 10
49.8761
 20
-36.0051
 11
128.124
 21
-36.0051
  0
LINE
  8
0
 10
128.124
 20
-36.0051
 11
128.368
 21
-36.0459
  0
LINE
  8
0
 10
128.368
 20
-36.0459
 11
128.603
 21
-36.1263
  0
LINE
  8
0
 10
128.603
 20
-36.1263
 11
128.82
 21
-36.2442
  0
LINE
  8
0
 10
128.82
 20
-36.2442
 11
129.016
 21
-36.3964
  0
LINE
  8
0
 10
129.016
 20
-36.3964
 11
129.184
 21
-36.5787
  0
LINE
  8
0
 10
129.184
 20
-36.5787
 11
129.319
 21
-36.7861
  0
LINE
  8
0
 10
129.319
 20
-36.7861
 11
129.419
 21
-37.0129
  0
LINE
  8
0
 10
129.419
 20
-37.0129
 11
129.48
 21
-37.2531
  0
LINE
  8
0
 10
129.48
 20
-37.2531
 11
129.5
 21
-37.5
  0
LINE
  8
0
 10
129.5
 20
-37.5
 11
129.48
 21
-37.7469
  0
LINE
  8
0
 10
129.48
 20
-37.7469
 11
129.419
 21
-37.987
  0
LINE
  8
0
 10
129.419
 20
-37.987
 11
129.319
 21
-38.2139
  0
LINE
  8
0
 10
129.319
 20
-38.2139
 11
129.184
 21
-38.4213
  0
LINE
  8
0
 10
129.184
 20
-38.4213
 11
129.016
 21
-38.6036
  0
LINE
  8
0
 10
129.016
 20
-38.6036
 11
128.82
 21
-38.7557
  0
LINE
  8
0
 10
128.82
 20
-38.7557
 11
128.603
 21
-38.8737
  0
LINE
  8
0
 10
128.603
 20
-38.8737
 11
128.368
 21
-38.9541
  0
LINE
  8
0
 10
128.368
 20
-38.9541
 11
128.124
 21
-38.9949
  0
LINE
  8
0
 10
128.124
 20
-38.9949
 11
49.8761
 21
-38.9949
  0
LINE
  8
0
 10
49.8761
 20
-46.4949
 11
49.6318
 21
-46.4541
  0
LINE
  8
0
 10
49.6318
 20
-46.4541
 11
49.3974
 21
-46.3737
  0
LINE
  8
0
 10
49.3974
 20
-46.3737
 11
49.1796
 21
-46.2557
  0
LINE
  8
0
 10
49.1796
 20
-46.2557
 11
48.9841
 21
-46.1036
  0
LINE
  8
0
 10
48.9841
 20
-46.1036
 11
48.8163
 21
-45.9213
  0
LINE
  8
0
 10
48.8163
 20
-45.9213
 11
48.6808
 21
-45.7139
  0
LINE
  8
0
 10
48.6808
 20
-45.7139
 11
48.5813
 21
-45.487
  0
LINE
  8
0
 10
48.5813
 20
-45.487
 11
48.5204
 21
-45.2469
  0
LINE
  8
0
 10
48.5204
 20
-45.2469
 11
48.5
 21
-45
  0
LINE
  8
0
 10
48.5
 20
-45
 11
48.5204
 21
-44.7531
  0
LINE
  8
0
 10
48.5204
 20
-44.7531
 11
48.5813
 21
-44.5129
  0
LINE
  8
0
 10
48.5813
 20
-44.5129
 11
48.6808
 21
-44.2861
  0
LINE
  8
0
 10
48.6808
 20
-44.2861
 11
48.8163
 21
-44.0787
  0
LINE
  8
0
 10
48.8163
 20
-44.0787
 11
48.9841
 21
-43.8964
  0
LINE
  8
0
 10
48.9841
 20
-43.8964
 11
49.1796
 21
-43.7442
  0
LINE
  8
0
 10
49.1796
 20
-43.7442
 11
49.3974
 21
-43.6263
  0
LINE
  8
0
 10
49.3974
 20
-43.6263
 11
49.6318
 21
-43.5459
  0
LINE
  8
0
 10
49.6318
 20
-43.5459
 11
49.8761
 21
-43.5051
  0
LINE
  8
0
 10
49.8761
 20
-43.5051
 11
128.124
 21
-43.5051
  0
LINE
  8
0
 10
128.124
 20
-43.5051
 11
128.368
 21
-43.5459
  0
LINE
  8
0
 10
128.368
 20
-43.5459
 11
128.603
 21
-43.6263
  0
LINE
  8
0
 10
128.603
 20
-43.6263
 11
128.82
 21
-43.7442
  0
LINE
  8
0
 10
128.82
 20
-43.7442
 11
129.016
 21
-43.8964
  0
LINE
  8
0
 10
129.016
 20
-43.8964
 11
129.184
 21
-44.0787
  0
LINE
  8
0
 10
129.184
 20
-44.0787
 11
129.319
 21
-44.2861
  0
LINE
  8
0
 10
129.319
 20
-44.2861
 11
129.419
 21
-44.5129
  0
LINE
  8
0
 10
129.419
 20
-44.5129
 11
129.48
 21
-44.7531
  0
LINE
  8
0
 10
129.48
 20
-44.7531
 11
129.5
 21
-45
  0
LINE
  8
0
 10
129.5
 20
-45
 11
129.48
 21
-45.2469
  0
LINE
  8
0
 10
129.48
 20
-45.2469
 11
129.419
 21
-45.487
  0
LINE
  8
0
 10
129.419
 20
-45.487
 11
129.319
 21
-45.7139
  0
LINE
  8
0
 10
129.319
 20
-45.7139
 11
129.184
 21
-45.9213
  0
LINE
  8
0
 10
129.184
 20
-45.9213
 11
129.016
 21
-46.1036
  0
LINE
  8
0
 10
129.016
 20
-46.1036
 11
128.82
 21
-46.2557
  0
LINE
  8
0
 10
128.82
 20
-46.2557
 11
128.603
 21
-46.3737
  0
LINE
  8
0
 10
128.603
 20
-46.3737
 11
128.368
 21
-46.4541
  0
LINE
  8
0
 10
128.368
 20
-46.4541
 11
128.124
 21
-46.4949
  0
LINE
  8
0
 10
128.124
 20
-46.4949
 11
49.8761
 21
-46.4949
  0
LINE
  8
0
 10
49.8761
 20
-53.9949
 11
49.6318
 21
-53.9541
  0
LINE
  8
0
 10
49.6318
 20
-53.9541
 11
49.3974
 21
-53.8737
  0
LINE
  8
0
 10
49.3974
 20
-53.8737
 11
49.1796
 21
-53.7557
  0
LINE
  8
0
 10
49.1796
 20
-53.7557
 11
48.9841
 21
-53.6036
  0
LINE
  8
0
 10
48.9841
 20
-53.6036
 11
48.8163
 21
-53.4213
  0
LINE
  8
0
 10
48.8163
 20
-53.4213
 11
48.6808
 21
-53.2139
  0
LINE
  8
0
 10
48.6808
 20
-53.2139
 11
48.5813
 21
-52.987
  0
LINE
  8
0
 10
48.5813
 20
-52.987
 11
48.5204
 21
-52.7469
  0
LINE
  8
0
 10
48.5204
 20
-52.7469
 11
48.5
 21
-52.5
  0
LINE
  8
0
 10
48.5
 20
-52.5
 11
48.5204
 21
-52.2531
  0
LINE
  8
0
 10
48.5204
 20
-52.2531
 11
48.5813
 21
-52.0129
  0
LINE
  8
0
 10
48.5813
 20
-52.0129
 11
48.6808
 21
-51.7861
  0
LINE
  8
0
 10
48.6808
 20
-51.7861
 11
48.8163
 21
-51.5787
  0
LINE
  8
0
 10
48.8163
 20
-51.5787
 11
48.9841
 21
-51.3964
  0
LINE
  8
0
 10
48.9841
 20
-51.3964
 11
49.1796
 21
-51.2442
  0
LINE
  8
0
 10
49.1796
 20
-51.2442
 11
49.3974
 21
-51.1263
  0
LINE
  8
0
 10
49.3974
 20
-51.1263
 11
49.6318
 21
-51.0459
  0
LINE
  8
0
 10
49.6318
 20
-51.0459
 11
49.8761
 21
-51.0051
  0
LINE
  8
0
 10
49.8761
 20
-51.0051
 11
128.124
 21
-51.0051
  0
LINE
  8
0
 10
128.124
 20
-51.0051
 11
128.368
 21
-51.0459
  0
LINE
  8
0
 10
128.368
 20
-51.0459
 11
128.603
 21
-51.1263
  0
LINE
  8
0
 10
128.603
 20
-51.1263
 11
128.82
 21
-51.2442
  0
LINE
  8
0
 10
128.82
 20
-51.2442
 11
129.016
 21
-51.3964
  0
LINE
  8
0
 10
129.016
 20
-51.3964
 11
129.184
 21
-51.5787
  0
LINE
  8
0
 10
129.184
 20
-51.5787
 11
129.319
 21
-51.7861
  0
LINE
  8
0
 10
129.319
 20
-51.7861
 11
129.419
 21
-52.0129
  0
LINE
  8
0
 10
129.419
 20
-52.0129
 11
129.48
 21
-52.2531
  0
LINE
  8
0
 10
129.48
 20
-52.2531
 11
129.5
 21
-52.5
  0
LINE
  8
0
 10
129.5
 20
-52.5
 11
129.48
 21
-52.7469
  0
LINE
  8
0
 10
129.48
 20
-52.7469
 11
129.419
 21
-52.987
  0
LINE
  8
0
 10
129.419
 20
-52.987
 11
129.319
 21
-53.2139
  0
LINE
  8
0
 10
129.319
 20
-53.2139
 11
129.184
 21
-53.4213
  0
LINE
  8
0
 10
129.184
 20
-53.4213
 11
129.016
 21
-53.6036
  0
LINE
  8
0
 10
129.016
 20
-53.6036
 11
128.82
 21
-53.7557
  0
LINE
  8
0
 10
128.82
 20
-53.7557
 11
128.603
 21
-53.8737
  0
LINE
  8
0
 10
128.603
 20
-53.8737
 11
128.368
 21
-53.9541
  0
LINE
  8
0
 10
128.368
 20
-53.9541
 11
128.124
 21
-53.9949
  0
LINE
  8
0
 10
128.124
 20
-53.9949
 11
49.8761
 21
-53.9949
  0
LINE
  8
0
 10
-160.074
 20
-131.445
 11
-160.318
 21
-131.404
  0
LINE
  8
0
 10
-160.318
 20
-131.404
 11
-160.553
 21
-131.324
  0
LINE
  8
0
 10
-160.553
 20
-131.324
 11
-160.77
 21
-131.206
  0
LINE
  8
0
 10
-160.77
 20
-131.206
 11
-160.966
 21
-131.054
  0
LINE
  8
0
 10
-160.966
 20
-131.054
 11
-161.134
 21
-130.871
  0
LINE
  8
0
 10
-161.134
 20
-130.871
 11
-161.269
 21
-130.664
  0
LINE
  8
0
 10
-161.269
 20
-130.664
 11
-161.369
 21
-130.437
  0
LINE
  8
0
 10
-161.369
 20
-130.437
 11
-161.43
 21
-130.197
  0
LINE
  8
0
 10
-161.43
 20
-130.197
 11
-161.45
 21
-129.95
  0
LINE
  8
0
 10
-161.45
 20
-129.95
 11
-161.43
 21
-129.703
  0
LINE
  8
0
 10
-161.43
 20
-129.703
 11
-161.369
 21
-129.463
  0
LINE
  8
0
 10
-161.369
 20
-129.463
 11
-161.269
 21
-129.236
  0
LINE
  8
0
 10
-161.269
 20
-129.236
 11
-161.134
 21
-129.029
  0
LINE
  8
0
 10
-161.134
 20
-129.029
 11
-160.966
 21
-128.846
  0
LINE
  8
0
 10
-160.966
 20
-128.846
 11
-160.77
 21
-128.694
  0
LINE
  8
0
 10
-160.77
 20
-128.694
 11
-160.553
 21
-128.576
  0
LINE
  8
0
 10
-160.553
 20
-128.576
 11
-160.318
 21
-128.496
  0
LINE
  8
0
 10
-160.318
 20
-128.496
 11
-160.074
 21
-128.455
  0
LINE
  8
0
 10
-160.074
 20
-128.455
 11
-159.826
 21
-128.455
  0
LINE
  8
0
 10
-159.826
 20
-128.455
 11
-159.582
 21
-128.496
  0
LINE
  8
0
 10
-159.582
 20
-128.496
 11
-159.347
 21
-128.576
  0
LINE
  8
0
 10
-159.347
 20
-128.576
 11
-159.13
 21
-128.694
  0
LINE
  8
0
 10
-159.13
 20
-128.694
 11
-158.934
 21
-128.846
  0
LINE
  8
0
 10
-158.934
 20
-128.846
 11
-158.766
 21
-129.029
  0
LINE
  8
0
 10
-158.766
 20
-129.029
 11
-158.631
 21
-129.236
  0
LINE
  8
0
 10
-158.631
 20
-129.236
 11
-158.531
 21
-129.463
  0
LINE
  8
0
 10
-158.531
 20
-129.463
 11
-158.47
 21
-129.703
  0
LINE
  8
0
 10
-158.47
 20
-129.703
 11
-158.45
 21
-129.95
  0
LINE
  8
0
 10
-158.45
 20
-129.95
 11
-158.47
 21
-130.197
  0
LINE
  8
0
 10
-158.47
 20
-130.197
 11
-158.531
 21
-130.437
  0
LINE
  8
0
 10
-158.531
 20
-130.437
 11
-158.631
 21
-130.664
  0
LINE
  8
0
 10
-158.631
 20
-130.664
 11
-158.766
 21
-130.871
  0
LINE
  8
0
 10
-158.766
 20
-130.871
 11
-158.934
 21
-131.054
  0
LINE
  8
0
 10
-158.934
 20
-131.054
 11
-159.13
 21
-131.206
  0
LINE
  8
0
 10
-159.13
 20
-131.206
 11
-159.347
 21
-131.324
  0
LINE
  8
0
 10
-159.347
 20
-131.324
 11
-159.582
 21
-131.404
  0
LINE
  8
0
 10
-159.582
 20
-131.404
 11
-159.826
 21
-131.445
  0
LINE
  8
0
 10
-159.826
 20
-131.445
 11
-160.074
 21
-131.445
  0
LINE
  8
0
 10
159.826
 20
-131.445
 11
159.582
 21
-131.404
  0
LINE
  8
0
 10
159.582
 20
-131.404
 11
159.347
 21
-131.324
  0
LINE
  8
0
 10
159.347
 20
-131.324
 11
159.13
 21
-131.206
  0
LINE
  8
0
 10
159.13
 20
-131.206
 11
158.934
 21
-131.054
  0
LINE
  8
0
 10
158.934
 20
-131.054
 11
158.766
 21
-130.871
  0
LINE
  8
0
 10
158.766
 20
-130.871
 11
158.631
 21
-130.664
  0
LINE
  8
0
 10
158.631
 20
-130.664
 11
158.531
 21
-130.437
  0
LINE
  8
0
 10
158.531
 20
-130.437
 11
158.47
 21
-130.197
  0
LINE
  8
0
 10
158.47
 20
-130.197
 11
158.45
 21
-129.95
  0
LINE
  8
0
 10
158.45
 20
-129.95
 11
158.47
 21
-129.703
  0
LINE
  8
0
 10
158.47
 20
-129.703
 11
158.531
 21
-129.463
  0
LINE
  8
0
 10
158.531
 20
-129.463
 11
158.631
 21
-129.236
  0
LINE
  8
0
 10
158.631
 20
-129.236
 11
158.766
 21
-129.029
  0
LINE
  8
0
 10
158.766
 20
-129.029
 11
158.934
 21
-128.846
  0
LINE
  8
0
 10
158.934
 20
-128.846
 11
159.13
 21
-128.694
  0
LINE
  8
0
 10
159.13
 20
-128.694
 11
159.347
 21
-128.576
  0
LINE
  8
0
 10
159.347
 20
-128.576
 11
159.582
 21
-128.496
  0
LINE
  8
0
 10
159.582
 20
-128.496
 11
159.826
 21
-128.455
  0
LINE
  8
0
 10
159.826
 20
-128.455
 11
160.074
 21
-128.455
  0
LINE
  8
0
 10
160.074
 20
-128.455
 11
160.318
 21
-128.496
  0
LINE
  8
0
 10
160.318
 20
-128.496
 11
160.553
 21
-128.576
  0
LINE
  8
0
 10
160.553
 20
-128.576
 11
160.77
 21
-128.694
  0
LINE
  8
0
 10
160.77
 20
-128.694
 11
160.966
 21
-128.846
  0
LINE
  8
0
 10
160.966
 20
-128.846
 11
161.134
 21
-129.029
  0
LINE
  8
0
 10
161.134
 20
-129.029
 11
161.269
 21
-129.236
  0
LINE
  8
0
 10
161.269
 20
-129.236
 11
161.369
 21
-129.463
  0
LINE
  8
0
 10
161.369
 20
-129.463
 11
161.43
 21
-129.703
  0
LINE
  8
0
 10
161.43
 20
-129.703
 11
161.45
 21
-129.95
  0
LINE
  8
0
 10
161.45
 20
-129.95
 11
161.43
 21
-130.197
  0
LINE
  8
0
 10
161.43
 20
-130.197
 11
161.369
 21
-130.437
  0
LINE
  8
0
 10
161.369
 20
-130.437
 11
161.269
 21
-130.664
  0
LINE
  8
0
 10
161.269
 20
-130.664
 11
161.134
 21
-130.871
  0
LINE
  8
0
 10
161.134
 20
-130.871
 11
160.966
 21
-131.054
  0
LINE
  8
0
 10
160.966
 20
-131.054
 11
160.77
 21
-131.206
  0
LINE
  8
0
 10
160.77
 20
-131.206
 11
160.553
 21
-131.324
  0
LINE
  8
0
 10
160.553
 20
-131.324
 11
160.318
 21
-131.404
  0
LINE
  8
0
 10
160.318
 20
-131.404
 11
160.074
 21
-131.445
  0
LINE
  8
0
 10
160.074
 20
-131.445
 11
159.826
 21
-131.445
  0
ENDSEC
  0
SECTION
  2
OBJECTS
  0
DICTIONARY
  0
ENDSEC
  0
EOF
