  0
SECTION
  2
HEADER
  9
$ACADVER
  1
AC1009
  9
$EXTMAX
 10
306.0
 20
275.0
 30
0.0
  9
$EXTMIN
 10
0.0
 20
0.0
 30
0.0
  9
$INSUNITS
 70
     4
  9
$LUNITS
 70
     2
  9
$LUPREC
 70
     4
  9
$MEASUREMENT
 70
     1
  0
ENDSEC
  0
SECTION
  2
TABLES
  0
TABLE
  2
LAYER
 70
     1
  0
LAYER
  2
0
 70
     0
 62
     7
  6
Continuous
  0
LAYER
  2
ZL_Bed_v1
 70
     0
 62
    33
  6
Continuous
  0
ENDTAB
  0
TABLE
  2
APPID
 70
     1
  0
APPID
  2
ACAD
 70
     0
  0
ENDTAB
  0
ENDSEC
  0
SECTION
  2
ENTITIES
  0
LINE
  8
ZL_Bed_v1
 10
306.0
 20
134.3
 30
6.35
 11
306.0
 21
135.8
 31
4.85
  0
LINE
  8
ZL_Bed_v1
 10
306.0
 20
135.8
 30
4.85
 11
295.0
 21
135.8
 31
4.85
  0
ARC
  8
ZL_Bed_v1
 10
295.0
 20
137.5
 30
4.85
 40
1.7
 50
90.0
 51
270.0
  0
LINE
  8
ZL_Bed_v1
 10
306.0
 20
139.2
 30
4.85
 11
306.0
 21
140.7
 31
6.35
  0
LINE
  8
ZL_Bed_v1
 10
295.0
 20
139.2
 30
4.85
 11
306.0
 21
139.2
 31
4.85
  0
LINE
  8
ZL_Bed_v1
 10
295.0
 20
135.8
 30
4.85
 11
295.0
 21
135.8
 31
0.0
  0
ARC
  8
ZL_Bed_v1
 10
295.0
 20
137.5
 30
0.0
 40
1.7
 50
90.0
 51
270.0
  0
LINE
  8
ZL_Bed_v1
 10
295.0
 20
139.2
 30
0.0
 11
295.0
 21
139.2
 31
4.85
  0
LINE
  8
ZL_Bed_v1
 10
306.0
 20
135.8
 30
4.85
 11
306.0
 21
135.8
 31
0.0
  0
LINE
  8
ZL_Bed_v1
 10
306.0
 20
135.8
 30
0.0
 11
295.0
 21
135.8
 31
0.0
  0
LINE
  8
ZL_Bed_v1
 10
306.0
 20
134.3
 30
6.35
 11
306.0
 21
133.3
 31
6.35
  0
LINE
  8
ZL_Bed_v1
 10
306.0
 20
133.3
 30
6.35
 11
306.0
 21
133.3
 31
0.0
  0
LINE
  8
ZL_Bed_v1
 10
306.0
 20
133.3
 30
0.0
 11
306.0
 21
135.8
 31
0.0
  0
LINE
  8
ZL_Bed_v1
 10
0.0
 20
38.2
 30
6.35
 11
0.0
 21
36.7
 31
4.85
  0
LINE
  8
ZL_Bed_v1
 10
0.0
 20
36.7
 30
4.85
 11
11.0
 21
36.7
 31
4.85
  0
ARC
  8
ZL_Bed_v1
 10
11.0
 20
35.0
 30
4.85
 40
1.7
 50
-90.0
 51
90.0
  0
LINE
  8
ZL_Bed_v1
 10
0.0
 20
33.3
 30
4.85
 11
0.0
 21
31.8
 31
6.35
  0
LINE
  8
ZL_Bed_v1
 10
11.0
 20
33.3
 30
4.85
 11
0.0
 21
33.3
 31
4.85
  0
LINE
  8
ZL_Bed_v1
 10
11.0
 20
36.7
 30
4.85
 11
11.0
 21
36.7
 31
0.0
  0
ARC
  8
ZL_Bed_v1
 10
11.0
 20
35.0
 30
0.0
 40
1.7
 50
270.0
 51
450.0
  0
LINE
  8
ZL_Bed_v1
 10
11.0
 20
33.3
 30
0.0
 11
11.0
 21
33.3
 31
4.85
  0
LINE
  8
ZL_Bed_v1
 10
0.0
 20
36.7
 30
4.85
 11
0.0
 21
36.7
 31
0.0
  0
LINE
  8
ZL_Bed_v1
 10
0.0
 20
36.7
 30
0.0
 11
11.0
 21
36.7
 31
0.0
  0
LINE
  8
ZL_Bed_v1
 10
0.0
 20
38.2
 30
6.35
 11
0.0
 21
39.2
 31
6.35
  0
LINE
  8
ZL_Bed_v1
 10
0.0
 20
39.2
 30
6.35
 11
0.0
 21
39.2
 31
0.0
  0
LINE
  8
ZL_Bed_v1
 10
0.0
 20
39.2
 30
0.0
 11
0.0
 21
36.7
 31
0.0
  0
LINE
  8
ZL_Bed_v1
 10
0.0
 20
243.2
 30
6.35
 11
0.0
 21
241.7
 31
4.85
  0
LINE
  8
ZL_Bed_v1
 10
0.0
 20
241.7
 30
4.85
 11
11.0
 21
241.7
 31
4.85
  0
ARC
  8
ZL_Bed_v1
 10
11.0
 20
240.0
 30
4.85
 40
1.7
 50
-90.0
 51
90.0
  0
LINE
  8
ZL_Bed_v1
 10
0.0
 20
238.3
 30
4.85
 11
0.0
 21
236.8
 31
6.35
  0
LINE
  8
ZL_Bed_v1
 10
11.0
 20
238.3
 30
4.85
 11
0.0
 21
238.3
 31
4.85
  0
LINE
  8
ZL_Bed_v1
 10
11.0
 20
241.7
 30
4.85
 11
11.0
 21
241.7
 31
0.0
  0
ARC
  8
ZL_Bed_v1
 10
11.0
 20
240.0
 30
0.0
 40
1.7
 50
270.0
 51
450.0
  0
LINE
  8
ZL_Bed_v1
 10
11.0
 20
238.3
 30
0.0
 11
11.0
 21
238.3
 31
4.85
  0
LINE
  8
ZL_Bed_v1
 10
0.0
 20
241.7
 30
4.85
 11
0.0
 21
241.7
 31
0.0
  0
LINE
  8
ZL_Bed_v1
 10
0.0
 20
241.7
 30
0.0
 11
11.0
 21
241.7
 31
0.0
  0
LINE
  8
ZL_Bed_v1
 10
0.0
 20
243.2
 30
6.35
 11
0.0
 21
244.2
 31
6.35
  0
LINE
  8
ZL_Bed_v1
 10
0.0
 20
244.2
 30
6.35
 11
0.0
 21
244.2
 31
0.0
  0
LINE
  8
ZL_Bed_v1
 10
0.0
 20
244.2
 30
0.0
 11
0.0
 21
241.7
 31
0.0
  0
LINE
  8
ZL_Bed_v1
 10
293.5
 20
154.0
 30
4.35
 11
293.5
 21
154.0
 31
6.35
  0
LINE
  8
ZL_Bed_v1
 10
293.5
 20
151.0
 30
6.35
 11
293.5
 21
151.0
 31
4.35
  0
LINE
  8
ZL_Bed_v1
 10
293.5
 20
151.0
 30
4.35
 11
293.5
 21
154.0
 31
4.35
  0
LINE
  8
ZL_Bed_v1
 10
306.0
 20
140.7
 30
6.35
 11
306.0
 21
141.7
 31
6.35
  0
ARC
  8
ZL_Bed_v1
 10
298.5
 20
141.7
 30
6.35
 40
7.5
 50
-0.0000000000002
 51
90.0000000000001
  0
LINE
  8
ZL_Bed_v1
 10
298.5
 20
149.2
 30
6.35
 11
293.5
 21
149.2
 31
6.35
  0
LINE
  8
ZL_Bed_v1
 10
293.5
 20
149.2
 30
6.35
 11
293.5
 21
151.0
 31
6.35
  0
LINE
  8
ZL_Bed_v1
 10
293.5
 20
154.0
 30
6.35
 11
293.5
 21
267.5
 31
6.35
  0
ARC
  8
ZL_Bed_v1
 10
286.0
 20
267.5
 30
6.35
 40
7.5000000000001
 50
0.0000000000003
 51
89.9999999999997
  0
LINE
  8
ZL_Bed_v1
 10
286.0
 20
275.0
 30
6.35
 11
20.0
 21
275.0
 31
6.35
  0
ARC
  8
ZL_Bed_v1
 10
20.0
 20
267.5
 30
6.35
 40
7.5
 50
89.9999999999998
 51
180.0
  0
LINE
  8
ZL_Bed_v1
 10
12.5
 20
267.5
 30
6.35
 11
12.5
 21
251.7
 31
6.35
  0
LINE
  8
ZL_Bed_v1
 10
12.5
 20
251.7
 30
6.35
 11
7.5
 21
251.7
 31
6.35
  0
ARC
  8
ZL_Bed_v1
 10
7.5
 20
244.2
 30
6.35
 40
7.5
 50
90.0
 51
180.0
  0
LINE
  8
ZL_Bed_v1
 10
0.0
 20
236.8
 30
6.35
 11
0.0
 21
235.8
 31
6.35
  0
ARC
  8
ZL_Bed_v1
 10
7.5
 20
235.8
 30
6.35
 40
7.5
 50
180.0
 51
270.0
  0
LINE
  8
ZL_Bed_v1
 10
7.5
 20
228.3
 30
6.35
 11
12.5
 21
228.3
 31
6.35
  0
LINE
  8
ZL_Bed_v1
 10
12.5
 20
228.3
 30
6.35
 11
12.5
 21
46.7
 31
6.35
  0
LINE
  8
ZL_Bed_v1
 10
12.5
 20
46.7
 30
6.35
 11
7.5
 21
46.7
 31
6.35
  0
ARC
  8
ZL_Bed_v1
 10
7.5
 20
39.2
 30
6.35
 40
7.5
 50
90.0
 51
180.0
  0
LINE
  8
ZL_Bed_v1
 10
0.0
 20
31.8
 30
6.35
 11
0.0
 21
30.8
 31
6.35
  0
ARC
  8
ZL_Bed_v1
 10
7.5
 20
30.8
 30
6.35
 40
7.5
 50
180.0
 51
270.0
  0
LINE
  8
ZL_Bed_v1
 10
7.5
 20
23.3
 30
6.35
 11
12.5
 21
23.3
 31
6.35
  0
LINE
  8
ZL_Bed_v1
 10
12.5
 20
23.3
 30
6.35
 11
12.5
 21
7.5
 31
6.35
  0
ARC
  8
ZL_Bed_v1
 10
20.0
 20
7.5
 30
6.35
 40
7.5
 50
180.0
 51
270.0
  0
LINE
  8
ZL_Bed_v1
 10
20.0
 20
0.0
 30
6.35
 11
286.0
 21
0.0
 31
6.35
  0
ARC
  8
ZL_Bed_v1
 10
286.0
 20
7.5
 30
6.35
 40
7.5
 50
270.0
 51
360.0
  0
LINE
  8
ZL_Bed_v1
 10
293.5
 20
7.5
 30
6.35
 11
293.5
 21
125.8
 31
6.35
  0
LINE
  8
ZL_Bed_v1
 10
293.5
 20
125.8
 30
6.35
 11
298.5
 21
125.8
 31
6.35
  0
ARC
  8
ZL_Bed_v1
 10
298.5
 20
133.3
 30
6.35
 40
7.5
 50
270.0
 51
360.0
  0
LINE
  8
ZL_Bed_v1
 10
298.5
 20
125.8
 30
6.35
 11
298.5
 21
125.8
 31
0.0
  0
ARC
  8
ZL_Bed_v1
 10
298.5
 20
133.3
 30
0.0
 40
7.5
 50
270.0
 51
360.0
  0
LINE
  8
ZL_Bed_v1
 10
298.5
 20
125.8
 30
0.0
 11
293.5
 21
125.8
 31
0.0
  0
LINE
  8
ZL_Bed_v1
 10
293.5
 20
125.8
 30
0.0
 11
293.5
 21
7.5
 31
0.0
  0
ARC
  8
ZL_Bed_v1
 10
286.0
 20
7.5
 30
0.0
 40
7.5
 50
270.0
 51
360.0
  0
LINE
  8
ZL_Bed_v1
 10
286.0
 20
0.0
 30
0.0
 11
20.0
 21
0.0
 31
0.0
  0
ARC
  8
ZL_Bed_v1
 10
20.0
 20
7.5
 30
0.0
 40
7.5
 50
180.0
 51
270.0
  0
LINE
  8
ZL_Bed_v1
 10
12.5
 20
7.5
 30
0.0
 11
12.5
 21
23.3
 31
0.0
  0
LINE
  8
ZL_Bed_v1
 10
12.5
 20
23.3
 30
0.0
 11
7.5
 21
23.3
 31
0.0
  0
ARC
  8
ZL_Bed_v1
 10
7.5
 20
30.8
 30
0.0
 40
7.5
 50
180.0
 51
270.0
  0
LINE
  8
ZL_Bed_v1
 10
0.0
 20
30.8
 30
0.0
 11
0.0
 21
33.3
 31
0.0
  0
LINE
  8
ZL_Bed_v1
 10
0.0
 20
33.3
 30
0.0
 11
11.0
 21
33.3
 31
0.0
  0
ARC
  8
ZL_Bed_v1
 10
7.5
 20
39.2
 30
0.0
 40
7.5
 50
90.0
 51
180.0
  0
LINE
  8
ZL_Bed_v1
 10
7.5
 20
46.7
 30
0.0
 11
12.5
 21
46.7
 31
0.0
  0
LINE
  8
ZL_Bed_v1
 10
12.5
 20
46.7
 30
0.0
 11
12.5
 21
228.3
 31
0.0
  0
LINE
  8
ZL_Bed_v1
 10
12.5
 20
228.3
 30
0.0
 11
7.5
 21
228.3
 31
0.0
  0
ARC
  8
ZL_Bed_v1
 10
7.5
 20
235.8
 30
0.0
 40
7.5
 50
180.0
 51
270.0
  0
LINE
  8
ZL_Bed_v1
 10
0.0
 20
235.8
 30
0.0
 11
0.0
 21
238.3
 31
0.0
  0
LINE
  8
ZL_Bed_v1
 10
0.0
 20
238.3
 30
0.0
 11
11.0
 21
238.3
 31
0.0
  0
ARC
  8
ZL_Bed_v1
 10
7.5
 20
244.2
 30
0.0
 40
7.5
 50
90.0
 51
180.0
  0
LINE
  8
ZL_Bed_v1
 10
7.5
 20
251.7
 30
0.0
 11
12.5
 21
251.7
 31
0.0
  0
LINE
  8
ZL_Bed_v1
 10
12.5
 20
251.7
 30
0.0
 11
12.5
 21
267.5
 31
0.0
  0
ARC
  8
ZL_Bed_v1
 10
20.0
 20
267.5
 30
0.0
 40
7.5
 50
89.9999999999998
 51
180.0
  0
LINE
  8
ZL_Bed_v1
 10
20.0
 20
275.0
 30
0.0
 11
286.0
 21
275.0
 31
0.0
  0
ARC
  8
ZL_Bed_v1
 10
286.0
 20
267.5
 30
0.0
 40
7.5
 50
0.0000000000003
 51
89.9999999999997
  0
LINE
  8
ZL_Bed_v1
 10
293.5
 20
267.5
 30
0.0
 11
293.5
 21
149.2
 31
0.0
  0
LINE
  8
ZL_Bed_v1
 10
293.5
 20
149.2
 30
0.0
 11
298.5
 21
149.2
 31
0.0
  0
ARC
  8
ZL_Bed_v1
 10
298.5
 20
141.7
 30
0.0
 40
7.5
 50
360.0
 51
450.0
  0
LINE
  8
ZL_Bed_v1
 10
306.0
 20
141.7
 30
0.0
 11
306.0
 21
139.2
 31
0.0
  0
LINE
  8
ZL_Bed_v1
 10
306.0
 20
139.2
 30
0.0
 11
295.0
 21
139.2
 31
0.0
  0
LINE
  8
ZL_Bed_v1
 10
306.0
 20
141.7
 30
6.35
 11
306.0
 21
141.7
 31
0.0
  0
LINE
  8
ZL_Bed_v1
 10
298.5
 20
149.2
 30
0.0
 11
298.5
 21
149.2
 31
6.35
  0
LINE
  8
ZL_Bed_v1
 10
293.5
 20
149.2
 30
0.0
 11
293.5
 21
149.2
 31
6.35
  0
LINE
  8
ZL_Bed_v1
 10
0.0
 20
30.8
 30
6.35
 11
0.0
 21
30.8
 31
0.0
  0
LINE
  8
ZL_Bed_v1
 10
7.5
 20
23.3
 30
0.0
 11
7.5
 21
23.3
 31
6.35
  0
LINE
  8
ZL_Bed_v1
 10
12.5
 20
23.3
 30
0.0
 11
12.5
 21
23.3
 31
6.35
  0
LINE
  8
ZL_Bed_v1
 10
7.5
 20
46.7
 30
6.35
 11
7.5
 21
46.7
 31
0.0
  0
LINE
  8
ZL_Bed_v1
 10
0.0
 20
235.8
 30
6.35
 11
0.0
 21
235.8
 31
0.0
  0
LINE
  8
ZL_Bed_v1
 10
7.5
 20
228.3
 30
0.0
 11
7.5
 21
228.3
 31
6.35
  0
LINE
  8
ZL_Bed_v1
 10
12.5
 20
228.3
 30
0.0
 11
12.5
 21
228.3
 31
6.35
  0
LINE
  8
ZL_Bed_v1
 10
7.5
 20
251.7
 30
6.35
 11
7.5
 21
251.7
 31
0.0
  0
LINE
  8
ZL_Bed_v1
 10
20.0
 20
275.0
 30
6.35
 11
20.0
 21
275.0
 31
0.0
  0
LINE
  8
ZL_Bed_v1
 10
12.5
 20
267.5
 30
0.0
 11
12.5
 21
267.5
 31
6.35
  0
LINE
  8
ZL_Bed_v1
 10
286.0
 20
275.0
 30
6.35
 11
286.0
 21
275.0
 31
0.0
  0
LINE
  8
ZL_Bed_v1
 10
293.5
 20
267.5
 30
6.35
 11
293.5
 21
267.5
 31
0.0
  0
LINE
  8
ZL_Bed_v1
 10
286.0
 20
0.0
 30
6.35
 11
286.0
 21
0.0
 31
0.0
  0
LINE
  8
ZL_Bed_v1
 10
293.5
 20
7.5
 30
0.0
 11
293.5
 21
7.5
 31
6.35
  0
LINE
  8
ZL_Bed_v1
 10
293.5
 20
125.8
 30
0.0
 11
293.5
 21
125.8
 31
6.35
  0
LINE
  8
ZL_Bed_v1
 10
12.5
 20
7.5
 30
6.35
 11
12.5
 21
7.5
 31
0.0
  0
LINE
  8
ZL_Bed_v1
 10
20.0
 20
0.0
 30
0.0
 11
20.0
 21
0.0
 31
6.35
  0
LINE
  8
ZL_Bed_v1
 10
12.5
 20
46.7
 30
6.35
 11
12.5
 21
46.7
 31
0.0
  0
LINE
  8
ZL_Bed_v1
 10
0.0
 20
238.3
 30
4.85
 11
0.0
 21
238.3
 31
0.0
  0
LINE
  8
ZL_Bed_v1
 10
12.5
 20
251.7
 30
6.35
 11
12.5
 21
251.7
 31
0.0
  0
LINE
  8
ZL_Bed_v1
 10
306.0
 20
139.2
 30
4.85
 11
306.0
 21
139.2
 31
0.0
  0
LINE
  8
ZL_Bed_v1
 10
0.0
 20
33.3
 30
4.85
 11
0.0
 21
33.3
 31
0.0
  0
ENDSEC
  0
EOF
