  0
SECTION
  2
HEADER
  9
$ACADVER
  1
AC1009
  9
$EXTMAX
 10
175.0
 20
171.0
 30
0.0
  9
$EXTMIN
 10
-175.0
 20
-171.0
 30
0.0
  9
$INSUNITS
 70
     4
  9
$LUNITS
 70
     2
  9
$LUPREC
 70
     4
  9
$MEASUREMENT
 70
     1
  0
ENDSEC
  0
SECTION
  2
TABLES
  0
TABLE
  2
LAYER
 70
     1
  0
LAYER
  2
0
 70
     0
 62
    70
  6
Continuous
  0
ENDTAB
  0
TABLE
  2
APPID
 70
     1
  0
APPID
  2
ACAD
 70
     0
  0
ENDTAB
  0
ENDSEC
  0
SECTION
  2
ENTITIES
  0
POLYLINE
  8
0
 66
     1
 10
0.0
 20
0.0
 30
0.0
 70
     1
  0
VERTEX
  8
0
 10
155.784
 20
-170.959
 42
0.0
  0
VERTEX
  8
0
 10
156.559
 20
-170.836
 42
0.0
  0
VERTEX
  8
0
 10
157.318
 20
-170.633
 42
0.0
  0
VERTEX
  8
0
 10
158.051
 20
-170.352
 42
0.0
  0
VERTEX
  8
0
 10
158.75
 20
-169.995
 42
0.0
  0
VERTEX
  8
0
 10
159.408
 20
-169.568
 42
0.0
  0
VERTEX
  8
0
 10
160.018
 20
-169.074
 42
0.0
  0
VERTEX
  8
0
 10
160.574
 20
-168.518
 42
0.0
  0
VERTEX
  8
0
 10
161.068
 20
-167.908
 42
0.0
  0
VERTEX
  8
0
 10
161.495
 20
-167.25
 42
0.0
  0
VERTEX
  8
0
 10
161.852
 20
-166.551
 42
0.0
  0
VERTEX
  8
0
 10
162.133
 20
-165.818
 42
0.0
  0
VERTEX
  8
0
 10
162.336
 20
-165.059
 42
0.0
  0
VERTEX
  8
0
 10
162.459
 20
-164.284
 42
0.0
  0
VERTEX
  8
0
 10
162.5
 20
-163.5
 42
0.0
  0
VERTEX
  8
0
 10
162.5
 20
-16.7
 42
0.0
  0
VERTEX
  8
0
 10
162.527
 20
-16.1774
 42
0.0
  0
VERTEX
  8
0
 10
162.609
 20
-15.6604
 42
0.0
  0
VERTEX
  8
0
 10
162.745
 20
-15.1549
 42
0.0
  0
VERTEX
  8
0
 10
162.932
 20
-14.6663
 42
0.0
  0
VERTEX
  8
0
 10
163.17
 20
-14.2
 42
0.0
  0
VERTEX
  8
0
 10
163.455
 20
-13.7611
 42
0.0
  0
VERTEX
  8
0
 10
163.784
 20
-13.3544
 42
0.0
  0
VERTEX
  8
0
 10
164.154
 20
-12.9843
 42
0.0
  0
VERTEX
  8
0
 10
164.561
 20
-12.6549
 42
0.0
  0
VERTEX
  8
0
 10
165.0
 20
-12.3699
 42
0.0
  0
VERTEX
  8
0
 10
165.466
 20
-12.1323
 42
0.0
  0
VERTEX
  8
0
 10
165.955
 20
-11.9447
 42
0.0
  0
VERTEX
  8
0
 10
166.46
 20
-11.8093
 42
0.0
  0
VERTEX
  8
0
 10
166.977
 20
-11.7274
 42
0.0
  0
VERTEX
  8
0
 10
168.284
 20
-11.6589
 42
0.0
  0
VERTEX
  8
0
 10
169.059
 20
-11.5361
 42
0.0
  0
VERTEX
  8
0
 10
169.818
 20
-11.3329
 42
0.0
  0
VERTEX
  8
0
 10
170.551
 20
-11.0516
 42
0.0
  0
VERTEX
  8
0
 10
171.25
 20
-10.6952
 42
0.0
  0
VERTEX
  8
0
 10
171.908
 20
-10.2676
 42
0.0
  0
VERTEX
  8
0
 10
172.518
 20
-9.77357
 42
0.0
  0
VERTEX
  8
0
 10
173.074
 20
-9.21848
 42
0.0
  0
VERTEX
  8
0
 10
173.568
 20
-8.60838
 42
0.0
  0
VERTEX
  8
0
 10
173.995
 20
-7.95
 42
0.0
  0
VERTEX
  8
0
 10
174.352
 20
-7.25052
 42
0.0
  0
VERTEX
  8
0
 10
174.633
 20
-6.51762
 42
0.0
  0
VERTEX
  8
0
 10
174.836
 20
-5.75932
 42
0.0
  0
VERTEX
  8
0
 10
174.959
 20
-4.98396
 42
0.0
  0
VERTEX
  8
0
 10
175.0
 20
-4.2
 42
0.0
  0
VERTEX
  8
0
 10
175.0
 20
-1.69885
 42
0.0
  0
VERTEX
  8
0
 10
167.438
 20
-1.69885
 42
0.0
  0
VERTEX
  8
0
 10
167.191
 20
-1.67171
 42
0.0
  0
VERTEX
  8
0
 10
166.951
 20
-1.60893
 42
0.0
  0
VERTEX
  8
0
 10
166.723
 20
-1.51187
 42
0.0
  0
VERTEX
  8
0
 10
166.511
 20
-1.38258
 42
0.0
  0
VERTEX
  8
0
 10
166.32
 20
-1.22383
 42
0.0
  0
VERTEX
  8
0
 10
166.154
 20
-1.03899
 42
0.0
  0
VERTEX
  8
0
 10
166.018
 20
-0.832001
 42
0.0
  0
VERTEX
  8
0
 10
165.912
 20
-0.607285
 42
0.0
  0
VERTEX
  8
0
 10
165.841
 20
-0.369629
 42
0.0
  0
VERTEX
  8
0
 10
165.805
 20
-0.124084
 42
0.0
  0
VERTEX
  8
0
 10
165.805
 20
0.124084
 42
0.0
  0
VERTEX
  8
0
 10
165.841
 20
0.369629
 42
0.0
  0
VERTEX
  8
0
 10
165.912
 20
0.607285
 42
0.0
  0
VERTEX
  8
0
 10
166.018
 20
0.832001
 42
0.0
  0
VERTEX
  8
0
 10
166.154
 20
1.03899
 42
0.0
  0
VERTEX
  8
0
 10
166.32
 20
1.22383
 42
0.0
  0
VERTEX
  8
0
 10
166.511
 20
1.38258
 42
0.0
  0
VERTEX
  8
0
 10
166.723
 20
1.51187
 42
0.0
  0
VERTEX
  8
0
 10
166.951
 20
1.60893
 42
0.0
  0
VERTEX
  8
0
 10
167.191
 20
1.67171
 42
0.0
  0
VERTEX
  8
0
 10
167.438
 20
1.69885
 42
0.0
  0
VERTEX
  8
0
 10
175.0
 20
1.69885
 42
0.0
  0
VERTEX
  8
0
 10
175.0
 20
4.2
 42
0.0
  0
VERTEX
  8
0
 10
174.959
 20
4.98396
 42
0.0
  0
VERTEX
  8
0
 10
174.836
 20
5.75932
 42
0.0
  0
VERTEX
  8
0
 10
174.633
 20
6.51762
 42
0.0
  0
VERTEX
  8
0
 10
174.352
 20
7.25052
 42
0.0
  0
VERTEX
  8
0
 10
173.995
 20
7.95
 42
0.0
  0
VERTEX
  8
0
 10
173.568
 20
8.60838
 42
0.0
  0
VERTEX
  8
0
 10
173.074
 20
9.21848
 42
0.0
  0
VERTEX
  8
0
 10
172.518
 20
9.77357
 42
0.0
  0
VERTEX
  8
0
 10
171.908
 20
10.2676
 42
0.0
  0
VERTEX
  8
0
 10
171.25
 20
10.6952
 42
0.0
  0
VERTEX
  8
0
 10
170.551
 20
11.0516
 42
0.0
  0
VERTEX
  8
0
 10
169.818
 20
11.3329
 42
0.0
  0
VERTEX
  8
0
 10
169.059
 20
11.5361
 42
0.0
  0
VERTEX
  8
0
 10
168.284
 20
11.6589
 42
0.0
  0
VERTEX
  8
0
 10
166.977
 20
11.7274
 42
0.0
  0
VERTEX
  8
0
 10
166.46
 20
11.8093
 42
0.0
  0
VERTEX
  8
0
 10
165.955
 20
11.9447
 42
0.0
  0
VERTEX
  8
0
 10
165.466
 20
12.1323
 42
0.0
  0
VERTEX
  8
0
 10
165.0
 20
12.3699
 42
0.0
  0
VERTEX
  8
0
 10
164.561
 20
12.6549
 42
0.0
  0
VERTEX
  8
0
 10
164.154
 20
12.9843
 42
0.0
  0
VERTEX
  8
0
 10
163.784
 20
13.3544
 42
0.0
  0
VERTEX
  8
0
 10
163.455
 20
13.7611
 42
0.0
  0
VERTEX
  8
0
 10
163.17
 20
14.2
 42
0.0
  0
VERTEX
  8
0
 10
162.932
 20
14.6663
 42
0.0
  0
VERTEX
  8
0
 10
162.745
 20
15.1549
 42
0.0
  0
VERTEX
  8
0
 10
162.609
 20
15.6604
 42
0.0
  0
VERTEX
  8
0
 10
162.527
 20
16.1774
 42
0.0
  0
VERTEX
  8
0
 10
162.5
 20
16.7
 42
0.0
  0
VERTEX
  8
0
 10
162.5
 20
163.5
 42
0.0
  0
VERTEX
  8
0
 10
162.459
 20
164.284
 42
0.0
  0
VERTEX
  8
0
 10
162.336
 20
165.059
 42
0.0
  0
VERTEX
  8
0
 10
162.133
 20
165.818
 42
0.0
  0
VERTEX
  8
0
 10
161.852
 20
166.551
 42
0.0
  0
VERTEX
  8
0
 10
161.495
 20
167.25
 42
0.0
  0
VERTEX
  8
0
 10
161.068
 20
167.908
 42
0.0
  0
VERTEX
  8
0
 10
160.574
 20
168.518
 42
0.0
  0
VERTEX
  8
0
 10
160.018
 20
169.074
 42
0.0
  0
VERTEX
  8
0
 10
159.408
 20
169.568
 42
0.0
  0
VERTEX
  8
0
 10
158.75
 20
169.995
 42
0.0
  0
VERTEX
  8
0
 10
158.051
 20
170.352
 42
0.0
  0
VERTEX
  8
0
 10
157.318
 20
170.633
 42
0.0
  0
VERTEX
  8
0
 10
156.559
 20
170.836
 42
0.0
  0
VERTEX
  8
0
 10
155.784
 20
170.959
 42
0.0
  0
VERTEX
  8
0
 10
155.0
 20
171.0
 42
0.0
  0
VERTEX
  8
0
 10
-155.0
 20
171.0
 42
0.0
  0
VERTEX
  8
0
 10
-155.784
 20
170.959
 42
0.0
  0
VERTEX
  8
0
 10
-156.559
 20
170.836
 42
0.0
  0
VERTEX
  8
0
 10
-157.318
 20
170.633
 42
0.0
  0
VERTEX
  8
0
 10
-158.051
 20
170.352
 42
0.0
  0
VERTEX
  8
0
 10
-158.75
 20
169.995
 42
0.0
  0
VERTEX
  8
0
 10
-159.408
 20
169.568
 42
0.0
  0
VERTEX
  8
0
 10
-160.018
 20
169.074
 42
0.0
  0
VERTEX
  8
0
 10
-160.574
 20
168.518
 42
0.0
  0
VERTEX
  8
0
 10
-161.068
 20
167.908
 42
0.0
  0
VERTEX
  8
0
 10
-161.495
 20
167.25
 42
0.0
  0
VERTEX
  8
0
 10
-161.852
 20
166.551
 42
0.0
  0
VERTEX
  8
0
 10
-162.133
 20
165.818
 42
0.0
  0
VERTEX
  8
0
 10
-162.336
 20
165.059
 42
0.0
  0
VERTEX
  8
0
 10
-162.459
 20
164.284
 42
0.0
  0
VERTEX
  8
0
 10
-162.5
 20
163.5
 42
0.0
  0
VERTEX
  8
0
 10
-162.5
 20
144.2
 42
0.0
  0
VERTEX
  8
0
 10
-162.527
 20
143.677
 42
0.0
  0
VERTEX
  8
0
 10
-162.609
 20
143.16
 42
0.0
  0
VERTEX
  8
0
 10
-162.745
 20
142.655
 42
0.0
  0
VERTEX
  8
0
 10
-162.932
 20
142.166
 42
0.0
  0
VERTEX
  8
0
 10
-163.17
 20
141.7
 42
0.0
  0
VERTEX
  8
0
 10
-163.455
 20
141.261
 42
0.0
  0
VERTEX
  8
0
 10
-163.784
 20
140.854
 42
0.0
  0
VERTEX
  8
0
 10
-164.154
 20
140.484
 42
0.0
  0
VERTEX
  8
0
 10
-164.561
 20
140.155
 42
0.0
  0
VERTEX
  8
0
 10
-165.0
 20
139.87
 42
0.0
  0
VERTEX
  8
0
 10
-165.466
 20
139.632
 42
0.0
  0
VERTEX
  8
0
 10
-165.955
 20
139.445
 42
0.0
  0
VERTEX
  8
0
 10
-166.46
 20
139.309
 42
0.0
  0
VERTEX
  8
0
 10
-166.977
 20
139.227
 42
0.0
  0
VERTEX
  8
0
 10
-168.284
 20
139.159
 42
0.0
  0
VERTEX
  8
0
 10
-169.059
 20
139.036
 42
0.0
  0
VERTEX
  8
0
 10
-169.818
 20
138.833
 42
0.0
  0
VERTEX
  8
0
 10
-170.551
 20
138.552
 42
0.0
  0
VERTEX
  8
0
 10
-171.25
 20
138.195
 42
0.0
  0
VERTEX
  8
0
 10
-171.908
 20
137.768
 42
0.0
  0
VERTEX
  8
0
 10
-172.518
 20
137.274
 42
0.0
  0
VERTEX
  8
0
 10
-173.074
 20
136.718
 42
0.0
  0
VERTEX
  8
0
 10
-173.568
 20
136.108
 42
0.0
  0
VERTEX
  8
0
 10
-173.995
 20
135.45
 42
0.0
  0
VERTEX
  8
0
 10
-174.352
 20
134.751
 42
0.0
  0
VERTEX
  8
0
 10
-174.633
 20
134.018
 42
0.0
  0
VERTEX
  8
0
 10
-174.836
 20
133.259
 42
0.0
  0
VERTEX
  8
0
 10
-174.959
 20
132.484
 42
0.0
  0
VERTEX
  8
0
 10
-175.0
 20
131.7
 42
0.0
  0
VERTEX
  8
0
 10
-175.0
 20
129.199
 42
0.0
  0
VERTEX
  8
0
 10
-167.438
 20
129.199
 42
0.0
  0
VERTEX
  8
0
 10
-167.191
 20
129.172
 42
0.0
  0
VERTEX
  8
0
 10
-166.951
 20
129.109
 42
0.0
  0
VERTEX
  8
0
 10
-166.723
 20
129.012
 42
0.0
  0
VERTEX
  8
0
 10
-166.511
 20
128.883
 42
0.0
  0
VERTEX
  8
0
 10
-166.32
 20
128.724
 42
0.0
  0
VERTEX
  8
0
 10
-166.154
 20
128.539
 42
0.0
  0
VERTEX
  8
0
 10
-166.018
 20
128.332
 42
0.0
  0
VERTEX
  8
0
 10
-165.912
 20
128.107
 42
0.0
  0
VERTEX
  8
0
 10
-165.841
 20
127.87
 42
0.0
  0
VERTEX
  8
0
 10
-165.805
 20
127.624
 42
0.0
  0
VERTEX
  8
0
 10
-165.805
 20
127.376
 42
0.0
  0
VERTEX
  8
0
 10
-165.841
 20
127.13
 42
0.0
  0
VERTEX
  8
0
 10
-165.912
 20
126.893
 42
0.0
  0
VERTEX
  8
0
 10
-166.018
 20
126.668
 42
0.0
  0
VERTEX
  8
0
 10
-166.154
 20
126.461
 42
0.0
  0
VERTEX
  8
0
 10
-166.32
 20
126.276
 42
0.0
  0
VERTEX
  8
0
 10
-166.511
 20
126.117
 42
0.0
  0
VERTEX
  8
0
 10
-166.723
 20
125.988
 42
0.0
  0
VERTEX
  8
0
 10
-166.951
 20
125.891
 42
0.0
  0
VERTEX
  8
0
 10
-167.191
 20
125.828
 42
0.0
  0
VERTEX
  8
0
 10
-167.438
 20
125.801
 42
0.0
  0
VERTEX
  8
0
 10
-175.0
 20
125.801
 42
0.0
  0
VERTEX
  8
0
 10
-175.0
 20
123.3
 42
0.0
  0
VERTEX
  8
0
 10
-174.959
 20
122.516
 42
0.0
  0
VERTEX
  8
0
 10
-174.836
 20
121.741
 42
0.0
  0
VERTEX
  8
0
 10
-174.633
 20
120.982
 42
0.0
  0
VERTEX
  8
0
 10
-174.352
 20
120.249
 42
0.0
  0
VERTEX
  8
0
 10
-173.995
 20
119.55
 42
0.0
  0
VERTEX
  8
0
 10
-173.568
 20
118.892
 42
0.0
  0
VERTEX
  8
0
 10
-173.074
 20
118.282
 42
0.0
  0
VERTEX
  8
0
 10
-172.518
 20
117.726
 42
0.0
  0
VERTEX
  8
0
 10
-171.908
 20
117.232
 42
0.0
  0
VERTEX
  8
0
 10
-171.25
 20
116.805
 42
0.0
  0
VERTEX
  8
0
 10
-170.551
 20
116.448
 42
0.0
  0
VERTEX
  8
0
 10
-169.818
 20
116.167
 42
0.0
  0
VERTEX
  8
0
 10
-169.059
 20
115.964
 42
0.0
  0
VERTEX
  8
0
 10
-168.284
 20
115.841
 42
0.0
  0
VERTEX
  8
0
 10
-166.977
 20
115.773
 42
0.0
  0
VERTEX
  8
0
 10
-166.46
 20
115.691
 42
0.0
  0
VERTEX
  8
0
 10
-165.955
 20
115.555
 42
0.0
  0
VERTEX
  8
0
 10
-165.466
 20
115.368
 42
0.0
  0
VERTEX
  8
0
 10
-165.0
 20
115.13
 42
0.0
  0
VERTEX
  8
0
 10
-164.561
 20
114.845
 42
0.0
  0
VERTEX
  8
0
 10
-164.154
 20
114.516
 42
0.0
  0
VERTEX
  8
0
 10
-163.784
 20
114.146
 42
0.0
  0
VERTEX
  8
0
 10
-163.455
 20
113.739
 42
0.0
  0
VERTEX
  8
0
 10
-163.17
 20
113.3
 42
0.0
  0
VERTEX
  8
0
 10
-162.932
 20
112.834
 42
0.0
  0
VERTEX
  8
0
 10
-162.745
 20
112.345
 42
0.0
  0
VERTEX
  8
0
 10
-162.609
 20
111.84
 42
0.0
  0
VERTEX
  8
0
 10
-162.527
 20
111.323
 42
0.0
  0
VERTEX
  8
0
 10
-162.5
 20
110.8
 42
0.0
  0
VERTEX
  8
0
 10
-162.5
 20
-110.8
 42
0.0
  0
VERTEX
  8
0
 10
-162.527
 20
-111.323
 42
0.0
  0
VERTEX
  8
0
 10
-162.609
 20
-111.84
 42
0.0
  0
VERTEX
  8
0
 10
-162.745
 20
-112.345
 42
0.0
  0
VERTEX
  8
0
 10
-162.932
 20
-112.834
 42
0.0
  0
VERTEX
  8
0
 10
-163.17
 20
-113.3
 42
0.0
  0
VERTEX
  8
0
 10
-163.455
 20
-113.739
 42
0.0
  0
VERTEX
  8
0
 10
-163.784
 20
-114.146
 42
0.0
  0
VERTEX
  8
0
 10
-164.154
 20
-114.516
 42
0.0
  0
VERTEX
  8
0
 10
-164.561
 20
-114.845
 42
0.0
  0
VERTEX
  8
0
 10
-165.0
 20
-115.13
 42
0.0
  0
VERTEX
  8
0
 10
-165.466
 20
-115.368
 42
0.0
  0
VERTEX
  8
0
 10
-165.955
 20
-115.555
 42
0.0
  0
VERTEX
  8
0
 10
-166.46
 20
-115.691
 42
0.0
  0
VERTEX
  8
0
 10
-166.977
 20
-115.773
 42
0.0
  0
VERTEX
  8
0
 10
-168.284
 20
-115.841
 42
0.0
  0
VERTEX
  8
0
 10
-169.059
 20
-115.964
 42
0.0
  0
VERTEX
  8
0
 10
-169.818
 20
-116.167
 42
0.0
  0
VERTEX
  8
0
 10
-170.551
 20
-116.448
 42
0.0
  0
VERTEX
  8
0
 10
-171.25
 20
-116.805
 42
0.0
  0
VERTEX
  8
0
 10
-171.908
 20
-117.232
 42
0.0
  0
VERTEX
  8
0
 10
-172.518
 20
-117.726
 42
0.0
  0
VERTEX
  8
0
 10
-173.074
 20
-118.282
 42
0.0
  0
VERTEX
  8
0
 10
-173.568
 20
-118.892
 42
0.0
  0
VERTEX
  8
0
 10
-173.995
 20
-119.55
 42
0.0
  0
VERTEX
  8
0
 10
-174.352
 20
-120.249
 42
0.0
  0
VERTEX
  8
0
 10
-174.633
 20
-120.982
 42
0.0
  0
VERTEX
  8
0
 10
-174.836
 20
-121.741
 42
0.0
  0
VERTEX
  8
0
 10
-174.959
 20
-122.516
 42
0.0
  0
VERTEX
  8
0
 10
-175.0
 20
-123.3
 42
0.0
  0
VERTEX
  8
0
 10
-175.0
 20
-125.801
 42
0.0
  0
VERTEX
  8
0
 10
-167.438
 20
-125.801
 42
0.0
  0
VERTEX
  8
0
 10
-167.191
 20
-125.828
 42
0.0
  0
VERTEX
  8
0
 10
-166.951
 20
-125.891
 42
0.0
  0
VERTEX
  8
0
 10
-166.723
 20
-125.988
 42
0.0
  0
VERTEX
  8
0
 10
-166.511
 20
-126.117
 42
0.0
  0
VERTEX
  8
0
 10
-166.32
 20
-126.276
 42
0.0
  0
VERTEX
  8
0
 10
-166.154
 20
-126.461
 42
0.0
  0
VERTEX
  8
0
 10
-166.018
 20
-126.668
 42
0.0
  0
VERTEX
  8
0
 10
-165.912
 20
-126.893
 42
0.0
  0
VERTEX
  8
0
 10
-165.841
 20
-127.13
 42
0.0
  0
VERTEX
  8
0
 10
-165.805
 20
-127.376
 42
0.0
  0
VERTEX
  8
0
 10
-165.805
 20
-127.624
 42
0.0
  0
VERTEX
  8
0
 10
-165.841
 20
-127.87
 42
0.0
  0
VERTEX
  8
0
 10
-165.912
 20
-128.107
 42
0.0
  0
VERTEX
  8
0
 10
-166.018
 20
-128.332
 42
0.0
  0
VERTEX
  8
0
 10
-166.154
 20
-128.539
 42
0.0
  0
VERTEX
  8
0
 10
-166.32
 20
-128.724
 42
0.0
  0
VERTEX
  8
0
 10
-166.511
 20
-128.883
 42
0.0
  0
VERTEX
  8
0
 10
-166.723
 20
-129.012
 42
0.0
  0
VERTEX
  8
0
 10
-166.951
 20
-129.109
 42
0.0
  0
VERTEX
  8
0
 10
-167.191
 20
-129.172
 42
0.0
  0
VERTEX
  8
0
 10
-167.438
 20
-129.199
 42
0.0
  0
VERTEX
  8
0
 10
-175.0
 20
-129.199
 42
0.0
  0
VERTEX
  8
0
 10
-175.0
 20
-131.7
 42
0.0
  0
VERTEX
  8
0
 10
-174.959
 20
-132.484
 42
0.0
  0
VERTEX
  8
0
 10
-174.836
 20
-133.259
 42
0.0
  0
VERTEX
  8
0
 10
-174.633
 20
-134.018
 42
0.0
  0
VERTEX
  8
0
 10
-174.352
 20
-134.751
 42
0.0
  0
VERTEX
  8
0
 10
-173.995
 20
-135.45
 42
0.0
  0
VERTEX
  8
0
 10
-173.568
 20
-136.108
 42
0.0
  0
VERTEX
  8
0
 10
-173.074
 20
-136.718
 42
0.0
  0
VERTEX
  8
0
 10
-172.518
 20
-137.274
 42
0.0
  0
VERTEX
  8
0
 10
-171.908
 20
-137.768
 42
0.0
  0
VERTEX
  8
0
 10
-171.25
 20
-138.195
 42
0.0
  0
VERTEX
  8
0
 10
-170.551
 20
-138.552
 42
0.0
  0
VERTEX
  8
0
 10
-169.818
 20
-138.833
 42
0.0
  0
VERTEX
  8
0
 10
-169.059
 20
-139.036
 42
0.0
  0
VERTEX
  8
0
 10
-168.284
 20
-139.159
 42
0.0
  0
VERTEX
  8
0
 10
-166.977
 20
-139.227
 42
0.0
  0
VERTEX
  8
0
 10
-166.46
 20
-139.309
 42
0.0
  0
VERTEX
  8
0
 10
-165.955
 20
-139.445
 42
0.0
  0
VERTEX
  8
0
 10
-165.466
 20
-139.632
 42
0.0
  0
VERTEX
  8
0
 10
-165.0
 20
-139.87
 42
0.0
  0
VERTEX
  8
0
 10
-164.561
 20
-140.155
 42
0.0
  0
VERTEX
  8
0
 10
-164.154
 20
-140.484
 42
0.0
  0
VERTEX
  8
0
 10
-163.784
 20
-140.854
 42
0.0
  0
VERTEX
  8
0
 10
-163.455
 20
-141.261
 42
0.0
  0
VERTEX
  8
0
 10
-163.17
 20
-141.7
 42
0.0
  0
VERTEX
  8
0
 10
-162.932
 20
-142.166
 42
0.0
  0
VERTEX
  8
0
 10
-162.745
 20
-142.655
 42
0.0
  0
VERTEX
  8
0
 10
-162.609
 20
-143.16
 42
0.0
  0
VERTEX
  8
0
 10
-162.527
 20
-143.677
 42
0.0
  0
VERTEX
  8
0
 10
-162.5
 20
-144.2
 42
0.0
  0
VERTEX
  8
0
 10
-162.5
 20
-163.5
 42
0.0
  0
VERTEX
  8
0
 10
-162.459
 20
-164.284
 42
0.0
  0
VERTEX
  8
0
 10
-162.336
 20
-165.059
 42
0.0
  0
VERTEX
  8
0
 10
-162.133
 20
-165.818
 42
0.0
  0
VERTEX
  8
0
 10
-161.852
 20
-166.551
 42
0.0
  0
VERTEX
  8
0
 10
-161.495
 20
-167.25
 42
0.0
  0
VERTEX
  8
0
 10
-161.068
 20
-167.908
 42
0.0
  0
VERTEX
  8
0
 10
-160.574
 20
-168.518
 42
0.0
  0
VERTEX
  8
0
 10
-160.018
 20
-169.074
 42
0.0
  0
VERTEX
  8
0
 10
-159.408
 20
-169.568
 42
0.0
  0
VERTEX
  8
0
 10
-158.75
 20
-169.995
 42
0.0
  0
VERTEX
  8
0
 10
-158.051
 20
-170.352
 42
0.0
  0
VERTEX
  8
0
 10
-157.318
 20
-170.633
 42
0.0
  0
VERTEX
  8
0
 10
-156.559
 20
-170.836
 42
0.0
  0
VERTEX
  8
0
 10
-155.784
 20
-170.959
 42
0.0
  0
VERTEX
  8
0
 10
-155.0
 20
-171.0
 42
0.0
  0
VERTEX
  8
0
 10
155.0
 20
-171.0
 42
0.0
  0
SEQEND
  0
POLYLINE
  8
0
 66
     1
 10
0.0
 20
0.0
 30
0.0
 70
     1
  0
VERTEX
  8
0
 10
157.317
 20
-36.5894
 42
0.0
  0
VERTEX
  8
0
 10
157.076
 20
-36.5428
 42
0.0
  0
VERTEX
  8
0
 10
156.845
 20
-36.46
 42
0.0
  0
VERTEX
  8
0
 10
156.63
 20
-36.343
 42
0.0
  0
VERTEX
  8
0
 10
156.435
 20
-36.1945
 42
0.0
  0
VERTEX
  8
0
 10
156.266
 20
-36.018
 42
0.0
  0
VERTEX
  8
0
 10
156.125
 20
-35.8176
 42
0.0
  0
VERTEX
  8
0
 10
156.016
 20
-35.5981
 42
0.0
  0
VERTEX
  8
0
 10
155.942
 20
-35.3646
 42
0.0
  0
VERTEX
  8
0
 10
155.905
 20
-35.1225
 42
0.0
  0
VERTEX
  8
0
 10
155.905
 20
-34.8775
 42
0.0
  0
VERTEX
  8
0
 10
155.942
 20
-34.6354
 42
0.0
  0
VERTEX
  8
0
 10
156.016
 20
-34.4019
 42
0.0
  0
VERTEX
  8
0
 10
156.125
 20
-34.1824
 42
0.0
  0
VERTEX
  8
0
 10
156.266
 20
-33.982
 42
0.0
  0
VERTEX
  8
0
 10
156.435
 20
-33.8055
 42
0.0
  0
VERTEX
  8
0
 10
156.63
 20
-33.657
 42
0.0
  0
VERTEX
  8
0
 10
156.845
 20
-33.54
 42
0.0
  0
VERTEX
  8
0
 10
157.076
 20
-33.4572
 42
0.0
  0
VERTEX
  8
0
 10
157.317
 20
-33.4106
 42
0.0
  0
VERTEX
  8
0
 10
157.561
 20
-33.4012
 42
0.0
  0
VERTEX
  8
0
 10
157.805
 20
-33.4293
 42
0.0
  0
VERTEX
  8
0
 10
158.041
 20
-33.4942
 42
0.0
  0
VERTEX
  8
0
 10
158.264
 20
-33.5944
 42
0.0
  0
VERTEX
  8
0
 10
158.47
 20
-33.7275
 42
0.0
  0
VERTEX
  8
0
 10
158.653
 20
-33.8905
 42
0.0
  0
VERTEX
  8
0
 10
158.809
 20
-34.0795
 42
0.0
  0
VERTEX
  8
0
 10
158.934
 20
-34.29
 42
0.0
  0
VERTEX
  8
0
 10
159.025
 20
-34.5172
 42
0.0
  0
VERTEX
  8
0
 10
159.081
 20
-34.7558
 42
0.0
  0
VERTEX
  8
0
 10
159.1
 20
-35.0
 42
0.0
  0
VERTEX
  8
0
 10
159.081
 20
-35.2442
 42
0.0
  0
VERTEX
  8
0
 10
159.025
 20
-35.4827
 42
0.0
  0
VERTEX
  8
0
 10
158.934
 20
-35.7099
 42
0.0
  0
VERTEX
  8
0
 10
158.809
 20
-35.9205
 42
0.0
  0
VERTEX
  8
0
 10
158.653
 20
-36.1095
 42
0.0
  0
VERTEX
  8
0
 10
158.47
 20
-36.2725
 42
0.0
  0
VERTEX
  8
0
 10
158.264
 20
-36.4056
 42
0.0
  0
VERTEX
  8
0
 10
158.041
 20
-36.5058
 42
0.0
  0
VERTEX
  8
0
 10
157.805
 20
-36.5707
 42
0.0
  0
VERTEX
  8
0
 10
157.561
 20
-36.5988
 42
0.0
  0
SEQEND
  0
POLYLINE
  8
0
 66
     1
 10
0.0
 20
0.0
 30
0.0
 70
     1
  0
VERTEX
  8
0
 10
157.317
 20
-56.5894
 42
0.0
  0
VERTEX
  8
0
 10
157.076
 20
-56.5428
 42
0.0
  0
VERTEX
  8
0
 10
156.845
 20
-56.46
 42
0.0
  0
VERTEX
  8
0
 10
156.63
 20
-56.343
 42
0.0
  0
VERTEX
  8
0
 10
156.435
 20
-56.1945
 42
0.0
  0
VERTEX
  8
0
 10
156.266
 20
-56.018
 42
0.0
  0
VERTEX
  8
0
 10
156.125
 20
-55.8176
 42
0.0
  0
VERTEX
  8
0
 10
156.016
 20
-55.5981
 42
0.0
  0
VERTEX
  8
0
 10
155.942
 20
-55.3646
 42
0.0
  0
VERTEX
  8
0
 10
155.905
 20
-55.1225
 42
0.0
  0
VERTEX
  8
0
 10
155.905
 20
-54.8775
 42
0.0
  0
VERTEX
  8
0
 10
155.942
 20
-54.6354
 42
0.0
  0
VERTEX
  8
0
 10
156.016
 20
-54.4019
 42
0.0
  0
VERTEX
  8
0
 10
156.125
 20
-54.1824
 42
0.0
  0
VERTEX
  8
0
 10
156.266
 20
-53.982
 42
0.0
  0
VERTEX
  8
0
 10
156.435
 20
-53.8055
 42
0.0
  0
VERTEX
  8
0
 10
156.63
 20
-53.657
 42
0.0
  0
VERTEX
  8
0
 10
156.845
 20
-53.54
 42
0.0
  0
VERTEX
  8
0
 10
157.076
 20
-53.4572
 42
0.0
  0
VERTEX
  8
0
 10
157.317
 20
-53.4106
 42
0.0
  0
VERTEX
  8
0
 10
157.561
 20
-53.4012
 42
0.0
  0
VERTEX
  8
0
 10
157.805
 20
-53.4293
 42
0.0
  0
VERTEX
  8
0
 10
158.041
 20
-53.4942
 42
0.0
  0
VERTEX
  8
0
 10
158.264
 20
-53.5944
 42
0.0
  0
VERTEX
  8
0
 10
158.47
 20
-53.7275
 42
0.0
  0
VERTEX
  8
0
 10
158.653
 20
-53.8905
 42
0.0
  0
VERTEX
  8
0
 10
158.809
 20
-54.0795
 42
0.0
  0
VERTEX
  8
0
 10
158.934
 20
-54.29
 42
0.0
  0
VERTEX
  8
0
 10
159.025
 20
-54.5172
 42
0.0
  0
VERTEX
  8
0
 10
159.081
 20
-54.7558
 42
0.0
  0
VERTEX
  8
0
 10
159.1
 20
-55.0
 42
0.0
  0
VERTEX
  8
0
 10
159.081
 20
-55.2442
 42
0.0
  0
VERTEX
  8
0
 10
159.025
 20
-55.4827
 42
0.0
  0
VERTEX
  8
0
 10
158.934
 20
-55.7099
 42
0.0
  0
VERTEX
  8
0
 10
158.809
 20
-55.9205
 42
0.0
  0
VERTEX
  8
0
 10
158.653
 20
-56.1095
 42
0.0
  0
VERTEX
  8
0
 10
158.47
 20
-56.2725
 42
0.0
  0
VERTEX
  8
0
 10
158.264
 20
-56.4056
 42
0.0
  0
VERTEX
  8
0
 10
158.041
 20
-56.5058
 42
0.0
  0
VERTEX
  8
0
 10
157.805
 20
-56.5707
 42
0.0
  0
VERTEX
  8
0
 10
157.561
 20
-56.5988
 42
0.0
  0
SEQEND
  0
ENDSEC
  0
EOF
