solid OpenSCAD_Model
  facet normal 0.707107 0.707107 0
    outer loop
      vertex 138.582 57.4025 25
      vertex 57.4025 138.582 0
      vertex 57.4025 138.582 25
    endloop
  endfacet
  facet normal 0.707107 0.707107 0
    outer loop
      vertex 57.4025 138.582 0
      vertex 138.582 57.4025 25
      vertex 138.582 57.4025 0
    endloop
  endfacet
  facet normal 0 1 -0
    outer loop
      vertex 57.4025 138.582 0
      vertex -57.4025 138.582 25
      vertex 57.4025 138.582 25
    endloop
  endfacet
  facet normal 0 1 0
    outer loop
      vertex -57.4025 138.582 25
      vertex 57.4025 138.582 0
      vertex -57.4025 138.582 0
    endloop
  endfacet
  facet normal -0.707107 0.707107 0
    outer loop
      vertex -138.582 57.4025 0
      vertex -57.4025 138.582 25
      vertex -57.4025 138.582 0
    endloop
  endfacet
  facet normal -0.707107 0.707107 0
    outer loop
      vertex -57.4025 138.582 25
      vertex -138.582 57.4025 0
      vertex -138.582 57.4025 25
    endloop
  endfacet
  facet normal -1 0 0
    outer loop
      vertex -138.582 -57.4025 0
      vertex -138.582 57.4025 25
      vertex -138.582 57.4025 0
    endloop
  endfacet
  facet normal -1 -0 0
    outer loop
      vertex -138.582 57.4025 25
      vertex -138.582 -57.4025 0
      vertex -138.582 -57.4025 25
    endloop
  endfacet
  facet normal -0.707107 -0.707107 0
    outer loop
      vertex -57.4025 -138.582 0
      vertex -138.582 -57.4025 25
      vertex -138.582 -57.4025 0
    endloop
  endfacet
  facet normal -0.707107 -0.707107 0
    outer loop
      vertex -138.582 -57.4025 25
      vertex -57.4025 -138.582 0
      vertex -57.4025 -138.582 25
    endloop
  endfacet
  facet normal 0 -1 0
    outer loop
      vertex -57.4025 -138.582 0
      vertex 57.4025 -138.582 25
      vertex -57.4025 -138.582 25
    endloop
  endfacet
  facet normal 0 -1 -0
    outer loop
      vertex 57.4025 -138.582 25
      vertex -57.4025 -138.582 0
      vertex 57.4025 -138.582 0
    endloop
  endfacet
  facet normal 0.707107 -0.707107 0
    outer loop
      vertex 57.4025 -138.582 25
      vertex 138.582 -57.4025 0
      vertex 138.582 -57.4025 25
    endloop
  endfacet
  facet normal 0.707107 -0.707107 0
    outer loop
      vertex 138.582 -57.4025 0
      vertex 57.4025 -138.582 25
      vertex 57.4025 -138.582 0
    endloop
  endfacet
  facet normal 1 -0 0
    outer loop
      vertex 138.582 -57.4025 25
      vertex 138.582 57.4025 0
      vertex 138.582 57.4025 25
    endloop
  endfacet
  facet normal 1 0 0
    outer loop
      vertex 138.582 57.4025 0
      vertex 138.582 -57.4025 25
      vertex 138.582 -57.4025 0
    endloop
  endfacet
  facet normal 0 0 -1
    outer loop
      vertex 57.4025 -138.582 0
      vertex 138.582 57.4025 0
      vertex 138.582 -57.4025 0
    endloop
  endfacet
  facet normal 0 0 -1
    outer loop
      vertex 57.4025 -138.582 0
      vertex 57.4025 138.582 0
      vertex 138.582 57.4025 0
    endloop
  endfacet
  facet normal 0 0 -1
    outer loop
      vertex -57.4025 -138.582 0
      vertex 57.4025 138.582 0
      vertex 57.4025 -138.582 0
    endloop
  endfacet
  facet normal 0 0 -1
    outer loop
      vertex -57.4025 -138.582 0
      vertex -57.4025 138.582 0
      vertex 57.4025 138.582 0
    endloop
  endfacet
  facet normal 0 0 -1
    outer loop
      vertex -138.582 -57.4025 0
      vertex -57.4025 138.582 0
      vertex -57.4025 -138.582 0
    endloop
  endfacet
  facet normal 0 0 -1
    outer loop
      vertex -57.4025 138.582 0
      vertex -138.582 -57.4025 0
      vertex -138.582 57.4025 0
    endloop
  endfacet
  facet normal 0 0 1
    outer loop
      vertex 57.4025 138.582 25
      vertex 138.582 -57.4025 25
      vertex 138.582 57.4025 25
    endloop
  endfacet
  facet normal 0 0 1
    outer loop
      vertex 57.4025 138.582 25
      vertex 57.4025 -138.582 25
      vertex 138.582 -57.4025 25
    endloop
  endfacet
  facet normal -0 0 1
    outer loop
      vertex -57.4025 138.582 25
      vertex 57.4025 -138.582 25
      vertex 57.4025 138.582 25
    endloop
  endfacet
  facet normal 0 0 1
    outer loop
      vertex -57.4025 138.582 25
      vertex -57.4025 -138.582 25
      vertex 57.4025 -138.582 25
    endloop
  endfacet
  facet normal -0 0 1
    outer loop
      vertex -138.582 57.4025 25
      vertex -57.4025 -138.582 25
      vertex -57.4025 138.582 25
    endloop
  endfacet
  facet normal 0 0 1
    outer loop
      vertex -57.4025 -138.582 25
      vertex -138.582 57.4025 25
      vertex -138.582 -57.4025 25
    endloop
  endfacet
endsolid OpenSCAD_Model
