  0
SECTION
  2
HEADER
  9
$ACADVER
  1
AC1009
  9
$EXTMAX
 10
5.5103859901428
 20
13.1214447021484
 30
0.0
  9
$EXTMIN
 10
-8.6628427505493
 20
-6.563591003418
 30
0.0
  9
$INSUNITS
 70
     4
  9
$LUNITS
 70
     2
  9
$LUPREC
 70
     4
  9
$MEASUREMENT
 70
     1
  0
ENDSEC
  0
SECTION
  2
TABLES
  0
TABLE
  2
LAYER
 70
     1
  0
LAYER
  2
0
 70
     0
 62
     7
  6
Continuous
  0
LAYER
  2
LAYER_1
 70
     0
 62
    70
  6
Continuous
  0
ENDTAB
  0
TABLE
  2
APPID
 70
     1
  0
APPID
  2
ACAD
 70
     0
  0
ENDTAB
  0
ENDSEC
  0
SECTION
  2
ENTITIES
  0
POLYLINE
  8
LAYER_1
 66
     1
 10
0.0
 20
0.0
 30
0.0
 70
     0
  0
VERTEX
  8
LAYER_1
 10
-8.662843
 20
12.530894
 42
0.0
  0
VERTEX
  8
LAYER_1
 10
-8.662843
 20
-5.973039
 42
0.0
  0
SEQEND
  0
POLYLINE
  8
LAYER_1
 66
     1
 10
0.0
 20
0.0
 30
0.0
 70
     1
  0
VERTEX
  8
LAYER_1
 10
2.813535
 20
6.222008
 42
0.0
  0
VERTEX
  8
LAYER_1
 10
-0.257331
 20
6.222008
 42
-1.0000568527504
  0
VERTEX
  8
LAYER_1
 10
-0.257331
 20
6.340118
 42
0.0
  0
VERTEX
  8
LAYER_1
 10
2.813535
 20
6.340118
 42
-1.0000568527456
  0
SEQEND
  0
POLYLINE
  8
LAYER_1
 66
     1
 10
0.0
 20
0.0
 30
0.0
 70
     1
  0
VERTEX
  8
LAYER_1
 10
-5.048417
 20
8.53752
 42
0.0
  0
VERTEX
  8
LAYER_1
 10
-5.110484
 20
8.475591
 42
0.0617801768483
  0
VERTEX
  8
LAYER_1
 10
-5.129843
 20
8.475661
 42
0.0
  0
VERTEX
  8
LAYER_1
 10
-5.191882
 20
8.537835
 42
-0.2409524192291
  0
SEQEND
  0
POLYLINE
  8
LAYER_1
 66
     1
 10
0.0
 20
0.0
 30
0.0
 70
     1
  0
VERTEX
  8
LAYER_1
 10
-5.261256
 20
8.46802
 42
0.0
  0
VERTEX
  8
LAYER_1
 10
-5.198795
 20
8.405421
 42
0.0
  0
VERTEX
  8
LAYER_1
 10
-5.198583
 20
8.387681
 42
0.0
  0
VERTEX
  8
LAYER_1
 10
-5.26065
 20
8.325752
 42
-0.2386959253027
  0
SEQEND
  0
POLYLINE
  8
LAYER_1
 66
     1
 10
0.0
 20
0.0
 30
0.0
 70
     1
  0
VERTEX
  8
LAYER_1
 10
-5.190673
 20
8.256528
 42
0.0
  0
VERTEX
  8
LAYER_1
 10
-5.127961
 20
8.319106
 42
0.0
  0
VERTEX
  8
LAYER_1
 10
-5.112697
 20
8.31913
 42
0.0
  0
VERTEX
  8
LAYER_1
 10
-5.050232
 20
8.256531
 42
-0.2352867215755
  0
SEQEND
  0
POLYLINE
  8
LAYER_1
 66
     1
 10
0.0
 20
0.0
 30
0.0
 70
     1
  0
VERTEX
  8
LAYER_1
 10
-4.980264
 20
8.32576
 42
0.0
  0
VERTEX
  8
LAYER_1
 10
-5.042303
 20
8.387929
 42
0.0
  0
VERTEX
  8
LAYER_1
 10
-5.042063
 20
8.404819
 42
0.0
  0
VERTEX
  8
LAYER_1
 10
-4.97935
 20
8.467394
 42
-0.2374584690025
  0
SEQEND
  0
POLYLINE
  8
LAYER_1
 66
     1
 10
0.0
 20
0.0
 30
0.0
 70
     1
  0
VERTEX
  8
LAYER_1
 10
-5.681933
 20
9.538768
 42
19.6736065609606
  0
VERTEX
  8
LAYER_1
 10
-5.683335
 20
9.524882
 42
0.0
  0
SEQEND
  0
POLYLINE
  8
LAYER_1
 66
     1
 10
0.0
 20
0.0
 30
0.0
 70
     1
  0
VERTEX
  8
LAYER_1
 10
-7.94435
 20
12.334039
 42
-19.6641705002466
  0
VERTEX
  8
LAYER_1
 10
-7.942949
 20
12.320154
 42
0.0
  0
SEQEND
  0
POLYLINE
  8
LAYER_1
 66
     1
 10
0.0
 20
0.0
 30
0.0
 70
     1
  0
VERTEX
  8
LAYER_1
 10
4.654083
 20
12.334043
 42
-19.6863640119679
  0
VERTEX
  8
LAYER_1
 10
4.655488
 20
12.320154
 42
0.0
  0
VERTEX
  8
LAYER_1
 10
4.654087
 20
12.334039
 42
0.0
  0
SEQEND
  0
POLYLINE
  8
LAYER_1
 66
     1
 10
0.0
 20
0.0
 30
0.0
 70
     1
  0
VERTEX
  8
LAYER_1
 10
-7.944339
 20
-5.756504
 42
-19.6890728274426
  0
VERTEX
  8
LAYER_1
 10
-7.942933
 20
-5.770394
 42
0.0
  0
VERTEX
  8
LAYER_1
 10
-7.944335
 20
-5.756508
 42
0.0
  0
SEQEND
  0
POLYLINE
  8
LAYER_1
 66
     1
 10
0.0
 20
0.0
 30
0.0
 70
     1
  0
VERTEX
  8
LAYER_1
 10
4.654087
 20
-5.776189
 42
-19.6543283887764
  0
VERTEX
  8
LAYER_1
 10
4.655488
 20
-5.790079
 42
0.0
  0
VERTEX
  8
LAYER_1
 10
4.654087
 20
-5.776193
 42
0.0
  0
SEQEND
  0
POLYLINE
  8
LAYER_1
 66
     1
 10
0.0
 20
0.0
 30
0.0
 70
     1
  0
VERTEX
  8
LAYER_1
 10
2.813535
 20
8.696701
 42
0.0
  0
VERTEX
  8
LAYER_1
 10
-0.257331
 20
8.696701
 42
-1.0000591060262
  0
VERTEX
  8
LAYER_1
 10
-0.257331
 20
8.814807
 42
0.0
  0
VERTEX
  8
LAYER_1
 10
2.813535
 20
8.814807
 42
-1.0001858252058
  0
SEQEND
  0
POLYLINE
  8
LAYER_1
 66
     1
 10
0.0
 20
0.0
 30
0.0
 70
     1
  0
VERTEX
  8
LAYER_1
 10
2.813535
 20
10.552713
 42
0.0
  0
VERTEX
  8
LAYER_1
 10
-0.257331
 20
10.552713
 42
-1.0000568527503
  0
VERTEX
  8
LAYER_1
 10
-0.257331
 20
10.670823
 42
0.0
  0
VERTEX
  8
LAYER_1
 10
2.813535
 20
10.670823
 42
-1.000183571694
  0
SEQEND
  0
POLYLINE
  8
LAYER_1
 66
     1
 10
0.0
 20
0.0
 30
0.0
 70
     1
  0
VERTEX
  8
LAYER_1
 10
-4.42072
 20
9.025583
 42
19.666874573765
  0
VERTEX
  8
LAYER_1
 10
-4.422122
 20
9.011697
 42
0.0
  0
SEQEND
  0
POLYLINE
  8
LAYER_1
 66
     1
 10
0.0
 20
0.0
 30
0.0
 70
     1
  0
VERTEX
  8
LAYER_1
 10
2.813535
 20
6.531346
 42
0.0
  0
VERTEX
  8
LAYER_1
 10
-0.257331
 20
6.531346
 42
-1.0000562894553
  0
VERTEX
  8
LAYER_1
 10
-0.257331
 20
6.649457
 42
0.0
  0
VERTEX
  8
LAYER_1
 10
2.813535
 20
6.649457
 42
-1.0000562894605
  0
SEQEND
  0
POLYLINE
  8
LAYER_1
 66
     1
 10
0.0
 20
0.0
 30
0.0
 70
     1
  0
VERTEX
  8
LAYER_1
 10
2.813535
 20
10.243378
 42
0.0
  0
VERTEX
  8
LAYER_1
 10
-0.257331
 20
10.243378
 42
-1.0001835716903
  0
VERTEX
  8
LAYER_1
 10
-0.257331
 20
10.361488
 42
0.0
  0
VERTEX
  8
LAYER_1
 10
2.813535
 20
10.361488
 42
-1.0000568527517
  0
SEQEND
  0
POLYLINE
  8
LAYER_1
 66
     1
 10
0.0
 20
0.0
 30
0.0
 70
     1
  0
VERTEX
  8
LAYER_1
 10
2.813535
 20
9.934039
 42
0.0
  0
VERTEX
  8
LAYER_1
 10
-0.257331
 20
9.934039
 42
-1.0000562894553
  0
VERTEX
  8
LAYER_1
 10
-0.257331
 20
10.05215
 42
0.0
  0
VERTEX
  8
LAYER_1
 10
2.813535
 20
10.05215
 42
-1.0000562894553
  0
SEQEND
  0
POLYLINE
  8
LAYER_1
 66
     1
 10
0.0
 20
0.0
 30
0.0
 70
     1
  0
VERTEX
  8
LAYER_1
 10
-5.681933
 20
7.767114
 42
19.6736065536971
  0
VERTEX
  8
LAYER_1
 10
-5.683335
 20
7.753228
 42
0.0
  0
SEQEND
  0
POLYLINE
  8
LAYER_1
 66
     1
 10
0.0
 20
0.0
 30
0.0
 70
     1
  0
VERTEX
  8
LAYER_1
 10
2.813535
 20
7.768689
 42
0.0
  0
VERTEX
  8
LAYER_1
 10
-0.257331
 20
7.768689
 42
-1.0001835716897
  0
VERTEX
  8
LAYER_1
 10
-0.257331
 20
7.886799
 42
0.0
  0
VERTEX
  8
LAYER_1
 10
2.813535
 20
7.886799
 42
-1.0000568527541
  0
SEQEND
  0
POLYLINE
  8
LAYER_1
 66
     1
 10
0.0
 20
0.0
 30
0.0
 70
     1
  0
VERTEX
  8
LAYER_1
 10
2.813535
 20
9.006031
 42
0.0
  0
VERTEX
  8
LAYER_1
 10
-0.257331
 20
9.006031
 42
-1.0000562894548
  0
VERTEX
  8
LAYER_1
 10
-0.257331
 20
9.124142
 42
0.0
  0
VERTEX
  8
LAYER_1
 10
2.813535
 20
9.124142
 42
-1.0000562894582
  0
SEQEND
  0
POLYLINE
  8
LAYER_1
 66
     1
 10
0.0
 20
0.0
 30
0.0
 70
     1
  0
VERTEX
  8
LAYER_1
 10
2.813535
 20
7.459354
 42
0.0
  0
VERTEX
  8
LAYER_1
 10
-0.257331
 20
7.459354
 42
-1.0000562894562
  0
VERTEX
  8
LAYER_1
 10
-0.257331
 20
7.577465
 42
0.0
  0
VERTEX
  8
LAYER_1
 10
2.813535
 20
7.577465
 42
-1.0000562894503
  0
SEQEND
  0
POLYLINE
  8
LAYER_1
 66
     1
 10
0.0
 20
0.0
 30
0.0
 70
     1
  0
VERTEX
  8
LAYER_1
 10
2.813535
 20
9.315366
 42
0.0
  0
VERTEX
  8
LAYER_1
 10
-0.257331
 20
9.315366
 42
-1.0001835716892
  0
VERTEX
  8
LAYER_1
 10
-0.257331
 20
9.433476
 42
0.0
  0
VERTEX
  8
LAYER_1
 10
2.813535
 20
9.433476
 42
-1.0000568527565
  0
SEQEND
  0
POLYLINE
  8
LAYER_1
 66
     1
 10
0.0
 20
0.0
 30
0.0
 70
     1
  0
VERTEX
  8
LAYER_1
 10
2.813535
 20
8.078028
 42
0.0
  0
VERTEX
  8
LAYER_1
 10
-0.257331
 20
8.078028
 42
-1.0000568527507
  0
VERTEX
  8
LAYER_1
 10
-0.257331
 20
8.196138
 42
0.0
  0
VERTEX
  8
LAYER_1
 10
2.813535
 20
8.196138
 42
-1.0001835716929
  0
SEQEND
  0
POLYLINE
  8
LAYER_1
 66
     1
 10
0.0
 20
0.0
 30
0.0
 70
     1
  0
VERTEX
  8
LAYER_1
 10
2.813535
 20
8.387362
 42
0.0
  0
VERTEX
  8
LAYER_1
 10
-0.257331
 20
8.387362
 42
-1.0001835716899
  0
VERTEX
  8
LAYER_1
 10
-0.257331
 20
8.505472
 42
0.0
  0
VERTEX
  8
LAYER_1
 10
2.813535
 20
8.505472
 42
-1.0000568527494
  0
SEQEND
  0
POLYLINE
  8
LAYER_1
 66
     1
 10
0.0
 20
0.0
 30
0.0
 70
     1
  0
VERTEX
  8
LAYER_1
 10
2.813535
 20
7.150016
 42
0.0
  0
VERTEX
  8
LAYER_1
 10
-0.257331
 20
7.150016
 42
-1.0000568527502
  0
VERTEX
  8
LAYER_1
 10
-0.257331
 20
7.268126
 42
0.0
  0
VERTEX
  8
LAYER_1
 10
2.813535
 20
7.268126
 42
-1.0001835716945
  0
SEQEND
  0
POLYLINE
  8
LAYER_1
 66
     1
 10
0.0
 20
0.0
 30
0.0
 70
     1
  0
VERTEX
  8
LAYER_1
 10
2.813535
 20
6.840681
 42
0.0
  0
VERTEX
  8
LAYER_1
 10
-0.257331
 20
6.840681
 42
-1.0001835716896
  0
VERTEX
  8
LAYER_1
 10
-0.257331
 20
6.958791
 42
0.0
  0
VERTEX
  8
LAYER_1
 10
2.813535
 20
6.958791
 42
-1.0000568527487
  0
SEQEND
  0
POLYLINE
  8
LAYER_1
 66
     1
 10
0.0
 20
0.0
 30
0.0
 70
     1
  0
VERTEX
  8
LAYER_1
 10
2.813535
 20
9.624705
 42
0.0
  0
VERTEX
  8
LAYER_1
 10
-0.257331
 20
9.624705
 42
-1.0000568527495
  0
VERTEX
  8
LAYER_1
 10
-0.257331
 20
9.742815
 42
0.0
  0
VERTEX
  8
LAYER_1
 10
2.813535
 20
9.742815
 42
-1.0001835716858
  0
SEQEND
  0
POLYLINE
  8
LAYER_1
 66
     1
 10
0.0
 20
0.0
 30
0.0
 70
     1
  0
VERTEX
  8
LAYER_1
 10
-0.257331
 20
10.980161
 42
0.0
  0
VERTEX
  8
LAYER_1
 10
2.813535
 20
10.980161
 42
-1.0000568527515
  0
VERTEX
  8
LAYER_1
 10
2.813535
 20
10.862051
 42
0.0
  0
VERTEX
  8
LAYER_1
 10
-0.257331
 20
10.862051
 42
-1.00018357169
  0
SEQEND
  0
POLYLINE
  8
LAYER_1
 66
     1
 10
0.0
 20
0.0
 30
0.0
 70
     1
  0
VERTEX
  8
LAYER_1
 10
-5.048417
 20
10.309173
 42
0.0
  0
VERTEX
  8
LAYER_1
 10
-5.110484
 20
10.247244
 42
0.0618318217937
  0
VERTEX
  8
LAYER_1
 10
-5.129843
 20
10.247315
 42
0.0
  0
VERTEX
  8
LAYER_1
 10
-5.191882
 20
10.309488
 42
-0.2409822982041
  0
SEQEND
  0
POLYLINE
  8
LAYER_1
 66
     1
 10
0.0
 20
0.0
 30
0.0
 70
     1
  0
VERTEX
  8
LAYER_1
 10
-5.261256
 20
10.239673
 42
0.0
  0
VERTEX
  8
LAYER_1
 10
-5.198795
 20
10.177075
 42
0.0
  0
VERTEX
  8
LAYER_1
 10
-5.198583
 20
10.159335
 42
0.0
  0
VERTEX
  8
LAYER_1
 10
-5.26065
 20
10.097406
 42
-0.2387070874469
  0
SEQEND
  0
POLYLINE
  8
LAYER_1
 66
     1
 10
0.0
 20
0.0
 30
0.0
 70
     1
  0
VERTEX
  8
LAYER_1
 10
-4.42072
 20
10.797236
 42
19.6668745743054
  0
VERTEX
  8
LAYER_1
 10
-4.422122
 20
10.78335
 42
0.0
  0
SEQEND
  0
POLYLINE
  8
LAYER_1
 66
     1
 10
0.0
 20
0.0
 30
0.0
 70
     1
  0
VERTEX
  8
LAYER_1
 10
-4.980264
 20
10.097413
 42
0.0
  0
VERTEX
  8
LAYER_1
 10
-5.042303
 20
10.159583
 42
0.0
  0
VERTEX
  8
LAYER_1
 10
-5.042063
 20
10.176472
 42
0.0
  0
VERTEX
  8
LAYER_1
 10
-4.97935
 20
10.239047
 42
-0.237458469003
  0
SEQEND
  0
POLYLINE
  8
LAYER_1
 66
     1
 10
0.0
 20
0.0
 30
0.0
 70
     1
  0
VERTEX
  8
LAYER_1
 10
-5.190673
 20
10.028181
 42
0.0
  0
VERTEX
  8
LAYER_1
 10
-5.127961
 20
10.09076
 42
0.0
  0
VERTEX
  8
LAYER_1
 10
-5.112697
 20
10.090783
 42
0.0
  0
VERTEX
  8
LAYER_1
 10
-5.050232
 20
10.028185
 42
-0.2352603364071
  0
SEQEND
  0
POLYLINE
  8
LAYER_1
 66
     1
 10
0.0
 20
0.0
 30
0.0
 70
     1
  0
VERTEX
  8
LAYER_1
 10
-4.754142
 20
8.099142
 42
0.0
  0
VERTEX
  8
LAYER_1
 10
-4.810114
 20
8.155236
 42
0.3428126518571
  0
VERTEX
  8
LAYER_1
 10
-4.808594
 20
8.637776
 42
0.0
  0
VERTEX
  8
LAYER_1
 10
-4.752476
 20
8.693776
 42
-0.3541562177511
  0
SEQEND
  0
POLYLINE
  8
LAYER_1
 66
     1
 10
0.0
 20
0.0
 30
0.0
 70
     1
  0
VERTEX
  8
LAYER_1
 10
-4.821854
 20
8.763591
 42
0.0
  0
VERTEX
  8
LAYER_1
 10
-4.877945
 20
8.707622
 42
0.3442237175604
  0
VERTEX
  8
LAYER_1
 10
-5.362031
 20
8.708358
 42
0.0
  0
VERTEX
  8
LAYER_1
 10
-5.418004
 20
8.764453
 42
-0.3553253590589
  0
SEQEND
  0
POLYLINE
  8
LAYER_1
 66
     1
 10
0.0
 20
0.0
 30
0.0
 70
     1
  0
VERTEX
  8
LAYER_1
 10
-5.417547
 20
8.03015
 42
0.0
  0
VERTEX
  8
LAYER_1
 10
-5.361429
 20
8.086146
 42
0.3419110620258
  0
VERTEX
  8
LAYER_1
 10
-4.879902
 20
8.085831
 42
0.0
  0
VERTEX
  8
LAYER_1
 10
-4.823909
 20
8.029713
 42
-0.3534163370618
  0
SEQEND
  0
POLYLINE
  8
LAYER_1
 66
     1
 10
0.0
 20
0.0
 30
0.0
 70
     1
  0
VERTEX
  8
LAYER_1
 10
-4.642465
 20
7.98722
 42
0.0
  0
VERTEX
  8
LAYER_1
 10
-4.698272
 20
8.04315
 42
0.363213719258
  0
VERTEX
  8
LAYER_1
 10
-4.696465
 20
8.749661
 42
0.0
  0
VERTEX
  8
LAYER_1
 10
-4.640524
 20
8.80548
 42
-0.369030499733
  0
SEQEND
  0
POLYLINE
  8
LAYER_1
 66
     1
 10
0.0
 20
0.0
 30
0.0
 70
     1
  0
VERTEX
  8
LAYER_1
 10
-5.487583
 20
8.694839
 42
0.0
  0
VERTEX
  8
LAYER_1
 10
-5.431591
 20
8.63872
 42
0.3433104199845
  0
VERTEX
  8
LAYER_1
 10
-5.431122
 20
8.155646
 42
0.0
  0
VERTEX
  8
LAYER_1
 10
-5.487213
 20
8.099681
 42
-0.354542720069
  0
SEQEND
  0
POLYLINE
  8
LAYER_1
 66
     1
 10
0.0
 20
0.0
 30
0.0
 70
     1
  0
VERTEX
  8
LAYER_1
 10
-5.473874
 20
8.820445
 42
0.0
  0
VERTEX
  8
LAYER_1
 10
-5.529681
 20
8.876374
 42
-0.369906214669
  0
VERTEX
  8
LAYER_1
 10
-4.709937
 20
8.875264
 42
0.0
  0
VERTEX
  8
LAYER_1
 10
-4.765862
 20
8.819457
 42
0.3642231414588
  0
SEQEND
  0
POLYLINE
  8
LAYER_1
 66
     1
 10
0.0
 20
0.0
 30
0.0
 70
     1
  0
VERTEX
  8
LAYER_1
 10
-5.59913
 20
7.988008
 42
-0.3693466958335
  0
VERTEX
  8
LAYER_1
 10
-5.599283
 20
8.806783
 42
0.0
  0
VERTEX
  8
LAYER_1
 10
-5.543469
 20
8.750843
 42
0.3635674058048
  0
VERTEX
  8
LAYER_1
 10
-5.543201
 20
8.043811
 42
0.0
  0
SEQEND
  0
POLYLINE
  8
LAYER_1
 66
     1
 10
0.0
 20
0.0
 30
0.0
 70
     1
  0
VERTEX
  8
LAYER_1
 10
-4.712205
 20
7.917768
 42
-0.3684479586083
  0
VERTEX
  8
LAYER_1
 10
-5.5295
 20
7.918441
 42
0.0
  0
VERTEX
  8
LAYER_1
 10
-5.473559
 20
7.974264
 42
0.3625513427397
  0
VERTEX
  8
LAYER_1
 10
-4.768024
 20
7.973709
 42
0.0
  0
SEQEND
  0
POLYLINE
  8
LAYER_1
 66
     1
 10
0.0
 20
0.0
 30
0.0
 70
     1
  0
VERTEX
  8
LAYER_1
 10
-4.754142
 20
9.870795
 42
0.0
  0
VERTEX
  8
LAYER_1
 10
-4.810114
 20
9.92689
 42
0.3428172134367
  0
VERTEX
  8
LAYER_1
 10
-4.808594
 20
10.409429
 42
0.0
  0
VERTEX
  8
LAYER_1
 10
-4.752476
 20
10.465429
 42
-0.3541524668546
  0
SEQEND
  0
POLYLINE
  8
LAYER_1
 66
     1
 10
0.0
 20
0.0
 30
0.0
 70
     1
  0
VERTEX
  8
LAYER_1
 10
-4.642465
 20
9.758874
 42
0.0
  0
VERTEX
  8
LAYER_1
 10
-4.698272
 20
9.814803
 42
0.3632104444421
  0
VERTEX
  8
LAYER_1
 10
-4.696465
 20
10.521315
 42
0.0
  0
VERTEX
  8
LAYER_1
 10
-4.640524
 20
10.577134
 42
-0.369033317283
  0
SEQEND
  0
POLYLINE
  8
LAYER_1
 66
     1
 10
0.0
 20
0.0
 30
0.0
 70
     1
  0
VERTEX
  8
LAYER_1
 10
-5.473874
 20
10.592098
 42
0.0
  0
VERTEX
  8
LAYER_1
 10
-5.529681
 20
10.648028
 42
-0.3699054385981
  0
VERTEX
  8
LAYER_1
 10
-4.709937
 20
10.646917
 42
0.0
  0
VERTEX
  8
LAYER_1
 10
-4.765862
 20
10.59111
 42
0.3642231414587
  0
SEQEND
  0
POLYLINE
  8
LAYER_1
 66
     1
 10
0.0
 20
0.0
 30
0.0
 70
     1
  0
VERTEX
  8
LAYER_1
 10
-5.59913
 20
9.759661
 42
-0.3693438195822
  0
VERTEX
  8
LAYER_1
 10
-5.599283
 20
10.578437
 42
0.0
  0
VERTEX
  8
LAYER_1
 10
-5.543469
 20
10.522496
 42
0.3635674859058
  0
VERTEX
  8
LAYER_1
 10
-5.543201
 20
9.815465
 42
0.0
  0
SEQEND
  0
POLYLINE
  8
LAYER_1
 66
     1
 10
0.0
 20
0.0
 30
0.0
 70
     1
  0
VERTEX
  8
LAYER_1
 10
-4.712205
 20
9.689421
 42
-0.3684479586083
  0
VERTEX
  8
LAYER_1
 10
-5.5295
 20
9.690094
 42
0.0
  0
VERTEX
  8
LAYER_1
 10
-5.473559
 20
9.745917
 42
0.3625457037119
  0
VERTEX
  8
LAYER_1
 10
-4.768024
 20
9.745362
 42
0.0
  0
SEQEND
  0
POLYLINE
  8
LAYER_1
 66
     1
 10
0.0
 20
0.0
 30
0.0
 70
     1
  0
VERTEX
  8
LAYER_1
 10
-4.821854
 20
10.535244
 42
0.0
  0
VERTEX
  8
LAYER_1
 10
-4.877945
 20
10.479276
 42
0.3442153880222
  0
VERTEX
  8
LAYER_1
 10
-5.362031
 20
10.480012
 42
0.0
  0
VERTEX
  8
LAYER_1
 10
-5.418004
 20
10.536106
 42
-0.3553320608343
  0
SEQEND
  0
POLYLINE
  8
LAYER_1
 66
     1
 10
0.0
 20
0.0
 30
0.0
 70
     1
  0
VERTEX
  8
LAYER_1
 10
-5.487583
 20
10.466492
 42
0.0
  0
VERTEX
  8
LAYER_1
 10
-5.431591
 20
10.410374
 42
0.3433103110708
  0
VERTEX
  8
LAYER_1
 10
-5.431122
 20
9.927299
 42
0.0
  0
VERTEX
  8
LAYER_1
 10
-5.487213
 20
9.871335
 42
-0.354546541492
  0
SEQEND
  0
POLYLINE
  8
LAYER_1
 66
     1
 10
0.0
 20
0.0
 30
0.0
 70
     1
  0
VERTEX
  8
LAYER_1
 10
-5.417547
 20
9.801803
 42
0.0
  0
VERTEX
  8
LAYER_1
 10
-5.361429
 20
9.857799
 42
0.3419026788523
  0
VERTEX
  8
LAYER_1
 10
-4.879902
 20
9.857484
 42
0.0
  0
VERTEX
  8
LAYER_1
 10
-4.823909
 20
9.801366
 42
-0.3534095949758
  0
SEQEND
  0
POLYLINE
  8
LAYER_1
 66
     1
 10
0.0
 20
0.0
 30
0.0
 70
     1
  0
VERTEX
  8
LAYER_1
 10
-5.375406
 20
8.582417
 42
0.0
  0
VERTEX
  8
LAYER_1
 10
-5.318839
 20
8.525724
 42
0.2966252371189
  0
VERTEX
  8
LAYER_1
 10
-5.31822
 20
8.268303
 42
0.0
  0
VERTEX
  8
LAYER_1
 10
-5.374854
 20
8.211795
 42
-0.3253309824304
  0
SEQEND
  0
POLYLINE
  8
LAYER_1
 66
     1
 10
0.0
 20
0.0
 30
0.0
 70
     1
  0
VERTEX
  8
LAYER_1
 10
-4.934213
 20
8.651476
 42
0.0
  0
VERTEX
  8
LAYER_1
 10
-4.990843
 20
8.594969
 42
0.2981857090076
  0
VERTEX
  8
LAYER_1
 10
-5.249354
 20
8.595437
 42
0.0
  0
VERTEX
  8
LAYER_1
 10
-5.305878
 20
8.652079
 42
-0.3264641290283
  0
SEQEND
  0
POLYLINE
  8
LAYER_1
 66
     1
 10
0.0
 20
0.0
 30
0.0
 70
     1
  0
VERTEX
  8
LAYER_1
 10
-5.305114
 20
8.142339
 42
0.0
  0
VERTEX
  8
LAYER_1
 10
-5.248409
 20
8.198921
 42
0.2943601378392
  0
VERTEX
  8
LAYER_1
 10
-4.992654
 20
8.198827
 42
0.0
  0
VERTEX
  8
LAYER_1
 10
-4.936083
 20
8.142134
 42
-0.3235879528992
  0
SEQEND
  0
POLYLINE
  8
LAYER_1
 66
     1
 10
0.0
 20
0.0
 30
0.0
 70
     1
  0
VERTEX
  8
LAYER_1
 10
-4.866268
 20
8.211512
 42
0.0
  0
VERTEX
  8
LAYER_1
 10
-4.922787
 20
8.268157
 42
0.2958412712712
  0
VERTEX
  8
LAYER_1
 10
-4.921614
 20
8.525004
 42
0.0
  0
VERTEX
  8
LAYER_1
 10
-4.864909
 20
8.581587
 42
-0.324705866441
  0
SEQEND
  0
POLYLINE
  8
LAYER_1
 66
     1
 10
0.0
 20
0.0
 30
0.0
 70
     1
  0
VERTEX
  8
LAYER_1
 10
-5.818354
 20
10.79861
 42
-19.6821143421595
  0
VERTEX
  8
LAYER_1
 10
-5.816949
 20
10.78472
 42
0.3564650545478
  0
SEQEND
  0
POLYLINE
  8
LAYER_1
 66
     1
 10
0.0
 20
0.0
 30
0.0
 70
     1
  0
VERTEX
  8
LAYER_1
 10
-5.81835
 20
9.026957
 42
0.0
  0
VERTEX
  8
LAYER_1
 10
-5.81835
 20
9.026953
 42
0.0
  0
SEQEND
  0
POLYLINE
  8
LAYER_1
 66
     1
 10
0.0
 20
0.0
 30
0.0
 70
     1
  0
VERTEX
  8
LAYER_1
 10
-4.422091
 20
7.765744
 42
19.6877359706211
  0
VERTEX
  8
LAYER_1
 10
-4.423496
 20
7.751858
 42
-0.9041192143589
  0
SEQEND
  0
POLYLINE
  8
LAYER_1
 66
     1
 10
0.0
 20
0.0
 30
0.0
 70
     1
  0
VERTEX
  8
LAYER_1
 10
-4.866268
 20
9.983165
 42
0.0
  0
VERTEX
  8
LAYER_1
 10
-4.922787
 20
10.039811
 42
0.2958487859012
  0
VERTEX
  8
LAYER_1
 10
-4.921614
 20
10.296657
 42
0.0
  0
VERTEX
  8
LAYER_1
 10
-4.864909
 20
10.35324
 42
-0.3247002537374
  0
SEQEND
  0
POLYLINE
  8
LAYER_1
 66
     1
 10
0.0
 20
0.0
 30
0.0
 70
     1
  0
VERTEX
  8
LAYER_1
 10
-4.934213
 20
10.42313
 42
0.0
  0
VERTEX
  8
LAYER_1
 10
-4.990843
 20
10.366622
 42
0.2981880829118
  0
VERTEX
  8
LAYER_1
 10
-5.249354
 20
10.367091
 42
0.0
  0
VERTEX
  8
LAYER_1
 10
-5.305878
 20
10.423732
 42
-0.3264548367557
  0
SEQEND
  0
POLYLINE
  8
LAYER_1
 66
     1
 10
0.0
 20
0.0
 30
0.0
 70
     1
  0
VERTEX
  8
LAYER_1
 10
-4.422091
 20
9.537398
 42
19.687735964729
  0
VERTEX
  8
LAYER_1
 10
-4.423496
 20
9.523512
 42
-0.9041190771236
  0
SEQEND
  0
POLYLINE
  8
LAYER_1
 66
     1
 10
0.0
 20
0.0
 30
0.0
 70
     1
  0
VERTEX
  8
LAYER_1
 10
-5.375406
 20
10.354071
 42
0.0
  0
VERTEX
  8
LAYER_1
 10
-5.318839
 20
10.297378
 42
0.2966326795502
  0
VERTEX
  8
LAYER_1
 10
-5.31822
 20
10.039957
 42
0.0
  0
VERTEX
  8
LAYER_1
 10
-5.374854
 20
9.983449
 42
-0.325325425343
  0
SEQEND
  0
POLYLINE
  8
LAYER_1
 66
     1
 10
0.0
 20
0.0
 30
0.0
 70
     1
  0
VERTEX
  8
LAYER_1
 10
-5.305114
 20
9.913992
 42
0.0
  0
VERTEX
  8
LAYER_1
 10
-5.248409
 20
9.970575
 42
0.2943462557965
  0
VERTEX
  8
LAYER_1
 10
-4.992654
 20
9.97048
 42
0.0
  0
VERTEX
  8
LAYER_1
 10
-4.936083
 20
9.913787
 42
-0.323587952899
  0
SEQEND
  0
POLYLINE
  8
LAYER_1
 66
     1
 10
0.0
 20
0.0
 30
0.0
 70
     0
  0
VERTEX
  8
LAYER_1
 10
-8.662843
 20
12.530894
 42
-0.414613584473
  0
VERTEX
  8
LAYER_1
 10
-8.072291
 20
13.121445
 42
0.0
  0
VERTEX
  8
LAYER_1
 10
4.919835
 20
13.121445
 42
-0.4145507628434
  0
VERTEX
  8
LAYER_1
 10
5.510386
 20
12.530894
 42
0.0
  0
VERTEX
  8
LAYER_1
 10
5.510386
 20
-5.973039
 42
-0.4146041183768
  0
VERTEX
  8
LAYER_1
 10
4.919835
 20
-6.563591
 42
0.0
  0
VERTEX
  8
LAYER_1
 10
-8.072291
 20
-6.563591
 42
-0.4146035705569
  0
VERTEX
  8
LAYER_1
 10
-8.662843
 20
-5.973039
 42
0.0
  0
SEQEND
  0
ENDSEC
  0
EOF
