  0
SECTION
  2
HEADER
  9
$ACADVER
  1
AC1009
  9
$EXTMAX
 10
-0.5
 20
202.5
 30
0.0
  9
$EXTMIN
 10
-220.0
 20
-202.5
 30
0.0
  9
$INSUNITS
 70
     4
  9
$LUNITS
 70
     2
  9
$LUPREC
 70
     4
  9
$MEASUREMENT
 70
     1
  0
ENDSEC
  0
SECTION
  2
TABLES
  0
TABLE
  2
LAYER
 70
     1
  0
LAYER
  2
0
 70
     0
 62
    70
  6
Continuous
  0
ENDTAB
  0
TABLE
  2
APPID
 70
     1
  0
APPID
  2
ACAD
 70
     0
  0
ENDTAB
  0
ENDSEC
  0
SECTION
  2
ENTITIES
  0
POLYLINE
  8
0
 66
     1
 10
0.0
 20
0.0
 30
0.0
 70
     1
  0
VERTEX
  8
0
 10
-197.634
 20
-135.875
 42
0.0
  0
VERTEX
  8
0
 10
-199.366
 20
-135.875
 42
0.0
  0
VERTEX
  8
0
 10
-200.232
 20
-134.375
 42
0.0
  0
VERTEX
  8
0
 10
-199.366
 20
-132.875
 42
0.0
  0
VERTEX
  8
0
 10
-197.634
 20
-132.875
 42
0.0
  0
VERTEX
  8
0
 10
-196.768
 20
-134.375
 42
0.0
  0
SEQEND
  0
POLYLINE
  8
0
 66
     1
 10
0.0
 20
0.0
 30
0.0
 70
     1
  0
VERTEX
  8
0
 10
-197.634
 20
-110.875
 42
0.0
  0
VERTEX
  8
0
 10
-199.366
 20
-110.875
 42
0.0
  0
VERTEX
  8
0
 10
-200.232
 20
-109.375
 42
0.0
  0
VERTEX
  8
0
 10
-199.366
 20
-107.875
 42
0.0
  0
VERTEX
  8
0
 10
-197.634
 20
-107.875
 42
0.0
  0
VERTEX
  8
0
 10
-196.768
 20
-109.375
 42
0.0
  0
SEQEND
  0
POLYLINE
  8
0
 66
     1
 10
0.0
 20
0.0
 30
0.0
 70
     1
  0
VERTEX
  8
0
 10
-197.634
 20
-160.875
 42
0.0
  0
VERTEX
  8
0
 10
-199.366
 20
-160.875
 42
0.0
  0
VERTEX
  8
0
 10
-200.232
 20
-159.375
 42
0.0
  0
VERTEX
  8
0
 10
-199.366
 20
-157.875
 42
0.0
  0
VERTEX
  8
0
 10
-197.634
 20
-157.875
 42
0.0
  0
VERTEX
  8
0
 10
-196.768
 20
-159.375
 42
0.0
  0
SEQEND
  0
POLYLINE
  8
0
 66
     1
 10
0.0
 20
0.0
 30
0.0
 70
     1
  0
VERTEX
  8
0
 10
-197.634
 20
97.875
 42
0.0
  0
VERTEX
  8
0
 10
-199.366
 20
97.875
 42
0.0
  0
VERTEX
  8
0
 10
-200.232
 20
99.375
 42
0.0
  0
VERTEX
  8
0
 10
-199.366
 20
100.875
 42
0.0
  0
VERTEX
  8
0
 10
-197.634
 20
100.875
 42
0.0
  0
VERTEX
  8
0
 10
-196.768
 20
99.375
 42
0.0
  0
SEQEND
  0
POLYLINE
  8
0
 66
     1
 10
0.0
 20
0.0
 30
0.0
 70
     1
  0
VERTEX
  8
0
 10
-197.634
 20
122.875
 42
0.0
  0
VERTEX
  8
0
 10
-199.366
 20
122.875
 42
0.0
  0
VERTEX
  8
0
 10
-200.232
 20
124.375
 42
0.0
  0
VERTEX
  8
0
 10
-199.366
 20
125.875
 42
0.0
  0
VERTEX
  8
0
 10
-197.634
 20
125.875
 42
0.0
  0
VERTEX
  8
0
 10
-196.768
 20
124.375
 42
0.0
  0
SEQEND
  0
POLYLINE
  8
0
 66
     1
 10
0.0
 20
0.0
 30
0.0
 70
     1
  0
VERTEX
  8
0
 10
-197.634
 20
147.875
 42
0.0
  0
VERTEX
  8
0
 10
-199.366
 20
147.875
 42
0.0
  0
VERTEX
  8
0
 10
-200.232
 20
149.375
 42
0.0
  0
VERTEX
  8
0
 10
-199.366
 20
150.875
 42
0.0
  0
VERTEX
  8
0
 10
-197.634
 20
150.875
 42
0.0
  0
VERTEX
  8
0
 10
-196.768
 20
149.375
 42
0.0
  0
SEQEND
  0
POLYLINE
  8
0
 66
     1
 10
0.0
 20
0.0
 30
0.0
 70
     1
  0
VERTEX
  8
0
 10
-18.6808
 20
181.786
 42
-24.275877960507
  0
VERTEX
  8
0
 10
-18.5813
 20
182.013
 42
0.0
  0
SEQEND
  0
POLYLINE
  8
0
 66
     1
 10
0.0
 20
0.0
 30
0.0
 70
     1
  0
VERTEX
  8
0
 10
-38.6808
 20
181.786
 42
-24.2758779603433
  0
VERTEX
  8
0
 10
-38.5813
 20
182.013
 42
0.0
  0
SEQEND
  0
POLYLINE
  8
0
 66
     1
 10
0.0
 20
0.0
 30
0.0
 70
     1
  0
VERTEX
  8
0
 10
-2.73868
 20
-202.486
 42
0.3838443484529
  0
VERTEX
  8
0
 10
-0.5
 20
-200.0
 42
0.0
  0
VERTEX
  8
0
 10
-0.5
 20
200.0
 42
0.4134965508078
  0
VERTEX
  8
0
 10
-3.0
 20
202.5
 42
0.0
  0
VERTEX
  8
0
 10
-200.0
 20
202.5
 42
0.4140981254491
  0
VERTEX
  8
0
 10
-220.0
 20
182.5
 42
0.0
  0
VERTEX
  8
0
 10
-220.0
 20
-182.5
 42
0.4140981254491
  0
VERTEX
  8
0
 10
-200.0
 20
-202.5
 42
0.0
  0
VERTEX
  8
0
 10
-3.0
 20
-202.5
 42
0.0259534946096
  0
SEQEND
  0
ENDSEC
  0
EOF
