  0
SECTION
  2
HEADER
  9
$ACADVER
  1
AC1009
  9
$EXTMAX
 10
220.0
 20
202.5
 30
0.0
  9
$EXTMIN
 10
0.5
 20
-202.5
 30
0.0
  9
$INSUNITS
 70
     4
  9
$LUNITS
 70
     2
  9
$LUPREC
 70
     4
  9
$MEASUREMENT
 70
     1
  0
ENDSEC
  0
SECTION
  2
TABLES
  0
TABLE
  2
LAYER
 70
     1
  0
LAYER
  2
0
 70
     0
 62
    70
  6
Continuous
  0
ENDTAB
  0
TABLE
  2
APPID
 70
     1
  0
APPID
  2
ACAD
 70
     0
  0
ENDTAB
  0
ENDSEC
  0
SECTION
  2
ENTITIES
  0
POLYLINE
  8
0
 66
     1
 10
0.0
 20
0.0
 30
0.0
 70
     1
  0
VERTEX
  8
0
 10
199.366
 20
-135.875
 42
0.0
  0
VERTEX
  8
0
 10
197.634
 20
-135.875
 42
0.0
  0
VERTEX
  8
0
 10
196.768
 20
-134.375
 42
0.0
  0
VERTEX
  8
0
 10
197.634
 20
-132.875
 42
0.0
  0
VERTEX
  8
0
 10
199.366
 20
-132.875
 42
0.0
  0
VERTEX
  8
0
 10
200.232
 20
-134.375
 42
0.0
  0
SEQEND
  0
POLYLINE
  8
0
 66
     1
 10
0.0
 20
0.0
 30
0.0
 70
     1
  0
VERTEX
  8
0
 10
199.366
 20
-110.875
 42
0.0
  0
VERTEX
  8
0
 10
197.634
 20
-110.875
 42
0.0
  0
VERTEX
  8
0
 10
196.768
 20
-109.375
 42
0.0
  0
VERTEX
  8
0
 10
197.634
 20
-107.875
 42
0.0
  0
VERTEX
  8
0
 10
199.366
 20
-107.875
 42
0.0
  0
VERTEX
  8
0
 10
200.232
 20
-109.375
 42
0.0
  0
SEQEND
  0
POLYLINE
  8
0
 66
     1
 10
0.0
 20
0.0
 30
0.0
 70
     1
  0
VERTEX
  8
0
 10
199.366
 20
-160.875
 42
0.0
  0
VERTEX
  8
0
 10
197.634
 20
-160.875
 42
0.0
  0
VERTEX
  8
0
 10
196.768
 20
-159.375
 42
0.0
  0
VERTEX
  8
0
 10
197.634
 20
-157.875
 42
0.0
  0
VERTEX
  8
0
 10
199.366
 20
-157.875
 42
0.0
  0
VERTEX
  8
0
 10
200.232
 20
-159.375
 42
0.0
  0
SEQEND
  0
POLYLINE
  8
0
 66
     1
 10
0.0
 20
0.0
 30
0.0
 70
     1
  0
VERTEX
  8
0
 10
199.366
 20
97.875
 42
0.0
  0
VERTEX
  8
0
 10
197.634
 20
97.875
 42
0.0
  0
VERTEX
  8
0
 10
196.768
 20
99.375
 42
0.0
  0
VERTEX
  8
0
 10
197.634
 20
100.875
 42
0.0
  0
VERTEX
  8
0
 10
199.366
 20
100.875
 42
0.0
  0
VERTEX
  8
0
 10
200.232
 20
99.375
 42
0.0
  0
SEQEND
  0
POLYLINE
  8
0
 66
     1
 10
0.0
 20
0.0
 30
0.0
 70
     1
  0
VERTEX
  8
0
 10
199.366
 20
122.875
 42
0.0
  0
VERTEX
  8
0
 10
197.634
 20
122.875
 42
0.0
  0
VERTEX
  8
0
 10
196.768
 20
124.375
 42
0.0
  0
VERTEX
  8
0
 10
197.634
 20
125.875
 42
0.0
  0
VERTEX
  8
0
 10
199.366
 20
125.875
 42
0.0
  0
VERTEX
  8
0
 10
200.232
 20
124.375
 42
0.0
  0
SEQEND
  0
POLYLINE
  8
0
 66
     1
 10
0.0
 20
0.0
 30
0.0
 70
     1
  0
VERTEX
  8
0
 10
199.366
 20
147.875
 42
0.0
  0
VERTEX
  8
0
 10
197.634
 20
147.875
 42
0.0
  0
VERTEX
  8
0
 10
196.768
 20
149.375
 42
0.0
  0
VERTEX
  8
0
 10
197.634
 20
150.875
 42
0.0
  0
VERTEX
  8
0
 10
199.366
 20
150.875
 42
0.0
  0
VERTEX
  8
0
 10
200.232
 20
149.375
 42
0.0
  0
SEQEND
  0
POLYLINE
  8
0
 66
     1
 10
0.0
 20
0.0
 30
0.0
 70
     1
  0
VERTEX
  8
0
 10
21.3192
 20
181.786
 42
0.0
  0
VERTEX
  8
0
 10
21.1837
 20
181.579
 42
0.0
  0
VERTEX
  8
0
 10
21.0159
 20
181.396
 42
0.0
  0
VERTEX
  8
0
 10
20.8204
 20
181.244
 42
0.0
  0
VERTEX
  8
0
 10
20.6025
 20
181.126
 42
0.0
  0
VERTEX
  8
0
 10
20.3682
 20
181.046
 42
0.0
  0
VERTEX
  8
0
 10
20.1239
 20
181.005
 42
0.0
  0
VERTEX
  8
0
 10
19.8761
 20
181.005
 42
0.0
  0
VERTEX
  8
0
 10
19.6318
 20
181.046
 42
0.0
  0
VERTEX
  8
0
 10
19.3974
 20
181.126
 42
0.0
  0
VERTEX
  8
0
 10
19.1796
 20
181.244
 42
0.0
  0
VERTEX
  8
0
 10
18.9841
 20
181.396
 42
0.0
  0
VERTEX
  8
0
 10
18.8163
 20
181.579
 42
0.0
  0
VERTEX
  8
0
 10
18.6808
 20
181.786
 42
0.0
  0
VERTEX
  8
0
 10
18.5813
 20
182.013
 42
0.0
  0
VERTEX
  8
0
 10
18.5204
 20
182.253
 42
0.0
  0
VERTEX
  8
0
 10
18.5
 20
182.5
 42
0.0
  0
VERTEX
  8
0
 10
18.5204
 20
182.747
 42
0.0
  0
VERTEX
  8
0
 10
18.5813
 20
182.987
 42
0.0
  0
VERTEX
  8
0
 10
18.6808
 20
183.214
 42
0.0
  0
VERTEX
  8
0
 10
18.8163
 20
183.421
 42
0.0
  0
VERTEX
  8
0
 10
18.9841
 20
183.604
 42
0.0
  0
VERTEX
  8
0
 10
19.1796
 20
183.756
 42
0.0
  0
VERTEX
  8
0
 10
19.3974
 20
183.874
 42
0.0
  0
VERTEX
  8
0
 10
19.6318
 20
183.954
 42
0.0
  0
VERTEX
  8
0
 10
19.8761
 20
183.995
 42
0.0
  0
VERTEX
  8
0
 10
20.1239
 20
183.995
 42
0.0
  0
VERTEX
  8
0
 10
20.3682
 20
183.954
 42
0.0
  0
VERTEX
  8
0
 10
20.6025
 20
183.874
 42
0.0
  0
VERTEX
  8
0
 10
20.8204
 20
183.756
 42
0.0
  0
VERTEX
  8
0
 10
21.0159
 20
183.604
 42
0.0
  0
VERTEX
  8
0
 10
21.1837
 20
183.421
 42
0.0
  0
VERTEX
  8
0
 10
21.3192
 20
183.214
 42
0.0
  0
VERTEX
  8
0
 10
21.4187
 20
182.987
 42
0.0
  0
VERTEX
  8
0
 10
21.4795
 20
182.747
 42
0.0
  0
VERTEX
  8
0
 10
21.5
 20
182.5
 42
0.0
  0
VERTEX
  8
0
 10
21.4795
 20
182.253
 42
0.0
  0
VERTEX
  8
0
 10
21.4187
 20
182.013
 42
0.0
  0
SEQEND
  0
POLYLINE
  8
0
 66
     1
 10
0.0
 20
0.0
 30
0.0
 70
     1
  0
VERTEX
  8
0
 10
41.3192
 20
181.786
 42
0.0
  0
VERTEX
  8
0
 10
41.1837
 20
181.579
 42
0.0
  0
VERTEX
  8
0
 10
41.0159
 20
181.396
 42
0.0
  0
VERTEX
  8
0
 10
40.8204
 20
181.244
 42
0.0
  0
VERTEX
  8
0
 10
40.6025
 20
181.126
 42
0.0
  0
VERTEX
  8
0
 10
40.3682
 20
181.046
 42
0.0
  0
VERTEX
  8
0
 10
40.1239
 20
181.005
 42
0.0
  0
VERTEX
  8
0
 10
39.8761
 20
181.005
 42
0.0
  0
VERTEX
  8
0
 10
39.6318
 20
181.046
 42
0.0
  0
VERTEX
  8
0
 10
39.3974
 20
181.126
 42
0.0
  0
VERTEX
  8
0
 10
39.1796
 20
181.244
 42
0.0
  0
VERTEX
  8
0
 10
38.9841
 20
181.396
 42
0.0
  0
VERTEX
  8
0
 10
38.8163
 20
181.579
 42
0.0
  0
VERTEX
  8
0
 10
38.6808
 20
181.786
 42
0.0
  0
VERTEX
  8
0
 10
38.5813
 20
182.013
 42
0.0
  0
VERTEX
  8
0
 10
38.5204
 20
182.253
 42
0.0
  0
VERTEX
  8
0
 10
38.5
 20
182.5
 42
0.0
  0
VERTEX
  8
0
 10
38.5204
 20
182.747
 42
0.0
  0
VERTEX
  8
0
 10
38.5813
 20
182.987
 42
0.0
  0
VERTEX
  8
0
 10
38.6808
 20
183.214
 42
0.0
  0
VERTEX
  8
0
 10
38.8163
 20
183.421
 42
0.0
  0
VERTEX
  8
0
 10
38.9841
 20
183.604
 42
0.0
  0
VERTEX
  8
0
 10
39.1796
 20
183.756
 42
0.0
  0
VERTEX
  8
0
 10
39.3974
 20
183.874
 42
0.0
  0
VERTEX
  8
0
 10
39.6318
 20
183.954
 42
0.0
  0
VERTEX
  8
0
 10
39.8761
 20
183.995
 42
0.0
  0
VERTEX
  8
0
 10
40.1239
 20
183.995
 42
0.0
  0
VERTEX
  8
0
 10
40.3682
 20
183.954
 42
0.0
  0
VERTEX
  8
0
 10
40.6025
 20
183.874
 42
0.0
  0
VERTEX
  8
0
 10
40.8204
 20
183.756
 42
0.0
  0
VERTEX
  8
0
 10
41.0159
 20
183.604
 42
0.0
  0
VERTEX
  8
0
 10
41.1837
 20
183.421
 42
0.0
  0
VERTEX
  8
0
 10
41.3192
 20
183.214
 42
0.0
  0
VERTEX
  8
0
 10
41.4187
 20
182.987
 42
0.0
  0
VERTEX
  8
0
 10
41.4795
 20
182.747
 42
0.0
  0
VERTEX
  8
0
 10
41.5
 20
182.5
 42
0.0
  0
VERTEX
  8
0
 10
41.4795
 20
182.253
 42
0.0
  0
VERTEX
  8
0
 10
41.4187
 20
182.013
 42
0.0
  0
SEQEND
  0
POLYLINE
  8
0
 66
     1
 10
0.0
 20
0.0
 30
0.0
 70
     1
  0
VERTEX
  8
0
 10
202.091
 20
-202.39
 42
0.0
  0
VERTEX
  8
0
 10
204.158
 20
-202.063
 42
0.0
  0
VERTEX
  8
0
 10
206.18
 20
-201.521
 42
0.0
  0
VERTEX
  8
0
 10
208.135
 20
-200.771
 42
0.0
  0
VERTEX
  8
0
 10
210.0
 20
-199.82
 42
0.0
  0
VERTEX
  8
0
 10
211.756
 20
-198.68
 42
0.0
  0
VERTEX
  8
0
 10
213.383
 20
-197.363
 42
0.0
  0
VERTEX
  8
0
 10
214.863
 20
-195.883
 42
0.0
  0
VERTEX
  8
0
 10
216.18
 20
-194.256
 42
0.0
  0
VERTEX
  8
0
 10
217.32
 20
-192.5
 42
0.0
  0
VERTEX
  8
0
 10
218.271
 20
-190.635
 42
0.0
  0
VERTEX
  8
0
 10
219.021
 20
-188.68
 42
0.0
  0
VERTEX
  8
0
 10
219.563
 20
-186.658
 42
0.0
  0
VERTEX
  8
0
 10
219.89
 20
-184.591
 42
0.0
  0
VERTEX
  8
0
 10
220.0
 20
-182.5
 42
0.0
  0
VERTEX
  8
0
 10
220.0
 20
182.5
 42
0.0
  0
VERTEX
  8
0
 10
219.89
 20
184.591
 42
0.0
  0
VERTEX
  8
0
 10
219.563
 20
186.658
 42
0.0
  0
VERTEX
  8
0
 10
219.021
 20
188.68
 42
0.0
  0
VERTEX
  8
0
 10
218.271
 20
190.635
 42
0.0
  0
VERTEX
  8
0
 10
217.32
 20
192.5
 42
0.0
  0
VERTEX
  8
0
 10
216.18
 20
194.256
 42
0.0
  0
VERTEX
  8
0
 10
214.863
 20
195.883
 42
0.0
  0
VERTEX
  8
0
 10
213.383
 20
197.363
 42
0.0
  0
VERTEX
  8
0
 10
211.756
 20
198.68
 42
0.0
  0
VERTEX
  8
0
 10
210.0
 20
199.82
 42
0.0
  0
VERTEX
  8
0
 10
208.135
 20
200.771
 42
0.0
  0
VERTEX
  8
0
 10
206.18
 20
201.521
 42
0.0
  0
VERTEX
  8
0
 10
204.158
 20
202.063
 42
0.0
  0
VERTEX
  8
0
 10
202.091
 20
202.39
 42
0.0
  0
VERTEX
  8
0
 10
200.0
 20
202.5
 42
0.0
  0
VERTEX
  8
0
 10
3.0
 20
202.5
 42
0.0
  0
VERTEX
  8
0
 10
2.73868
 20
202.486
 42
0.0
  0
VERTEX
  8
0
 10
2.48021
 20
202.445
 42
0.0
  0
VERTEX
  8
0
 10
2.22745
 20
202.378
 42
0.0
  0
VERTEX
  8
0
 10
1.98315
 20
202.284
 42
0.0
  0
VERTEX
  8
0
 10
1.75
 20
202.165
 42
0.0
  0
VERTEX
  8
0
 10
1.53053
 20
202.023
 42
0.0
  0
VERTEX
  8
0
 10
1.32716
 20
201.858
 42
0.0
  0
VERTEX
  8
0
 10
1.14214
 20
201.673
 42
0.0
  0
VERTEX
  8
0
 10
0.977448
 20
201.469
 42
0.0
  0
VERTEX
  8
0
 10
0.83493
 20
201.25
 42
0.0
  0
VERTEX
  8
0
 10
0.716125
 20
201.017
 42
0.0
  0
VERTEX
  8
0
 10
0.622345
 20
200.773
 42
0.0
  0
VERTEX
  8
0
 10
0.554626
 20
200.52
 42
0.0
  0
VERTEX
  8
0
 10
0.513687
 20
200.261
 42
0.0
  0
VERTEX
  8
0
 10
0.5
 20
200.0
 42
0.0
  0
VERTEX
  8
0
 10
0.5
 20
-200.0
 42
0.0
  0
VERTEX
  8
0
 10
0.513687
 20
-200.261
 42
0.0
  0
VERTEX
  8
0
 10
0.554626
 20
-200.52
 42
0.0
  0
VERTEX
  8
0
 10
0.622345
 20
-200.773
 42
0.0
  0
VERTEX
  8
0
 10
0.716125
 20
-201.017
 42
0.0
  0
VERTEX
  8
0
 10
0.83493
 20
-201.25
 42
0.0
  0
VERTEX
  8
0
 10
0.977448
 20
-201.469
 42
0.0
  0
VERTEX
  8
0
 10
1.14214
 20
-201.673
 42
0.0
  0
VERTEX
  8
0
 10
1.32716
 20
-201.858
 42
0.0
  0
VERTEX
  8
0
 10
1.53053
 20
-202.023
 42
0.0
  0
VERTEX
  8
0
 10
1.75
 20
-202.165
 42
0.0
  0
VERTEX
  8
0
 10
1.98315
 20
-202.284
 42
0.0
  0
VERTEX
  8
0
 10
2.22745
 20
-202.378
 42
0.0
  0
VERTEX
  8
0
 10
2.48021
 20
-202.445
 42
0.0
  0
VERTEX
  8
0
 10
2.73868
 20
-202.486
 42
0.0
  0
VERTEX
  8
0
 10
3.0
 20
-202.5
 42
0.0
  0
VERTEX
  8
0
 10
200.0
 20
-202.5
 42
0.0
  0
SEQEND
  0
ENDSEC
  0
EOF
