  0
SECTION
  2
HEADER
  9
$ACADVER
  1
AC1009
  9
$EXTMAX
 10
204.875
 20
174.875
 30
0.0
  9
$EXTMIN
 10
-204.875
 20
-174.875
 30
0.0
  9
$INSUNITS
 70
     4
  9
$LUNITS
 70
     2
  9
$LUPREC
 70
     4
  9
$MEASUREMENT
 70
     1
  0
ENDSEC
  0
SECTION
  2
TABLES
  0
TABLE
  2
LAYER
 70
     1
  0
LAYER
  2
0
 70
     0
 62
    70
  6
Continuous
  0
ENDTAB
  0
TABLE
  2
APPID
 70
     1
  0
APPID
  2
ACAD
 70
     0
  0
ENDTAB
  0
ENDSEC
  0
SECTION
  2
ENTITIES
  0
POLYLINE
  8
0
 66
     1
 10
0.0
 20
0.0
 30
0.0
 70
     1
  0
VERTEX
  8
0
 10
108.82
 20
-8.74425
 42
-0.7137872461983
  0
VERTEX
  8
0
 10
108.124
 20
-11.4949
 42
0.0
  0
VERTEX
  8
0
 10
29.8761
 20
-11.4949
 42
-0.92045925072
  0
VERTEX
  8
0
 10
29.8761
 20
-8.50511
 42
0.0
  0
VERTEX
  8
0
 10
108.124
 20
-8.50511
 42
-0.1239998709394
  0
SEQEND
  0
POLYLINE
  8
0
 66
     1
 10
0.0
 20
0.0
 30
0.0
 70
     1
  0
VERTEX
  8
0
 10
108.82
 20
78.7442
 42
-0.1245130433114
  0
VERTEX
  8
0
 10
108.124
 20
78.5051
 42
0.0
  0
VERTEX
  8
0
 10
29.8761
 20
78.5051
 42
-0.9204224701287
  0
VERTEX
  8
0
 10
29.8761
 20
81.4949
 42
0.0
  0
VERTEX
  8
0
 10
108.124
 20
81.4949
 42
-0.7128163213686
  0
SEQEND
  0
POLYLINE
  8
0
 66
     1
 10
0.0
 20
0.0
 30
0.0
 70
     1
  0
VERTEX
  8
0
 10
108.82
 20
-1.24425
 42
-0.7138469784346
  0
VERTEX
  8
0
 10
108.124
 20
-3.99487
 42
0.0
  0
VERTEX
  8
0
 10
29.8761
 20
-3.99487
 42
-0.9204600237992
  0
VERTEX
  8
0
 10
29.8761
 20
-1.00511
 42
0.0
  0
VERTEX
  8
0
 10
108.124
 20
-1.00511
 42
-0.1239998709392
  0
SEQEND
  0
POLYLINE
  8
0
 66
     1
 10
0.0
 20
0.0
 30
0.0
 70
     1
  0
VERTEX
  8
0
 10
108.82
 20
86.2442
 42
-0.1245130433079
  0
VERTEX
  8
0
 10
108.124
 20
86.0051
 42
0.0
  0
VERTEX
  8
0
 10
29.8761
 20
86.0051
 42
-0.9204224701287
  0
VERTEX
  8
0
 10
29.8761
 20
88.9949
 42
0.0
  0
VERTEX
  8
0
 10
108.124
 20
88.9949
 42
-0.7128163213702
  0
SEQEND
  0
POLYLINE
  8
0
 66
     1
 10
0.0
 20
0.0
 30
0.0
 70
     1
  0
VERTEX
  8
0
 10
108.82
 20
108.744
 42
-0.1238256075648
  0
VERTEX
  8
0
 10
108.124
 20
108.505
 42
0.0
  0
VERTEX
  8
0
 10
29.8761
 20
108.505
 42
-0.9196872440795
  0
VERTEX
  8
0
 10
29.8761
 20
111.495
 42
0.0
  0
VERTEX
  8
0
 10
108.124
 20
111.495
 42
-0.7125310411276
  0
SEQEND
  0
POLYLINE
  8
0
 66
     1
 10
0.0
 20
0.0
 30
0.0
 70
     1
  0
VERTEX
  8
0
 10
108.82
 20
3.74425
 42
-0.1245803870599
  0
VERTEX
  8
0
 10
108.124
 20
3.50511
 42
0.0
  0
VERTEX
  8
0
 10
29.8761
 20
3.50511
 42
-0.9204965485516
  0
VERTEX
  8
0
 10
29.8761
 20
6.49487
 42
0.0
  0
VERTEX
  8
0
 10
108.124
 20
6.49487
 42
-0.7127652285139
  0
SEQEND
  0
POLYLINE
  8
0
 66
     1
 10
0.0
 20
0.0
 30
0.0
 70
     1
  0
VERTEX
  8
0
 10
108.82
 20
93.7442
 42
-0.1245130433127
  0
VERTEX
  8
0
 10
108.124
 20
93.5051
 42
0.0
  0
VERTEX
  8
0
 10
29.8761
 20
93.5051
 42
-0.9204224701287
  0
VERTEX
  8
0
 10
29.8761
 20
96.4949
 42
0.0
  0
VERTEX
  8
0
 10
108.124
 20
96.4949
 42
-0.7128163213683
  0
SEQEND
  0
POLYLINE
  8
0
 66
     1
 10
0.0
 20
0.0
 30
0.0
 70
     1
  0
VERTEX
  8
0
 10
-183.75
 20
-159.469
 42
-3.7373469444533
  0
VERTEX
  8
0
 10
-187.25
 20
-159.469
 42
0.0
  0
VERTEX
  8
0
 10
-187.199
 20
-159.443
 42
0.0
  0
VERTEX
  8
0
 10
-187.199
 20
-155.438
 42
-0.9648855982428
  0
VERTEX
  8
0
 10
-183.801
 20
-155.438
 42
0.0
  0
VERTEX
  8
0
 10
-183.801
 20
-159.443
 42
-0.0070043951213
  0
SEQEND
  0
POLYLINE
  8
0
 66
     1
 10
0.0
 20
0.0
 30
0.0
 70
     1
  0
VERTEX
  8
0
 10
108.82
 20
101.244
 42
-0.123825607567
  0
VERTEX
  8
0
 10
108.124
 20
101.005
 42
0.0
  0
VERTEX
  8
0
 10
29.8761
 20
101.005
 42
-0.9196872440791
  0
VERTEX
  8
0
 10
29.8761
 20
103.995
 42
0.0
  0
VERTEX
  8
0
 10
108.124
 20
103.995
 42
-0.7125310411272
  0
SEQEND
  0
POLYLINE
  8
0
 66
     1
 10
0.0
 20
0.0
 30
0.0
 70
     1
  0
VERTEX
  8
0
 10
108.82
 20
21.2557
 42
-0.713784986199
  0
VERTEX
  8
0
 10
108.124
 20
18.5051
 42
0.0
  0
VERTEX
  8
0
 10
29.8761
 20
18.5051
 42
-0.920422470129
  0
VERTEX
  8
0
 10
29.8761
 20
21.4949
 42
0.0
  0
VERTEX
  8
0
 10
108.124
 20
21.4949
 42
-0.123902886129
  0
SEQEND
  0
POLYLINE
  8
0
 66
     1
 10
0.0
 20
0.0
 30
0.0
 70
     1
  0
VERTEX
  8
0
 10
108.82
 20
-63.7557
 42
-0.1246072397091
  0
VERTEX
  8
0
 10
108.124
 20
-63.9949
 42
0.0
  0
VERTEX
  8
0
 10
29.8761
 20
-63.9949
 42
-0.9204224701291
  0
VERTEX
  8
0
 10
29.8761
 20
-61.0051
 42
0.0
  0
VERTEX
  8
0
 10
108.124
 20
-61.0051
 42
-0.7125481153795
  0
SEQEND
  0
POLYLINE
  8
0
 66
     1
 10
0.0
 20
0.0
 30
0.0
 70
     1
  0
VERTEX
  8
0
 10
-183.75
 20
152.531
 42
-3.737346944474
  0
VERTEX
  8
0
 10
-187.25
 20
152.531
 42
0.0
  0
VERTEX
  8
0
 10
-187.199
 20
152.557
 42
0.0
  0
VERTEX
  8
0
 10
-187.199
 20
156.562
 42
-0.9648855982404
  0
VERTEX
  8
0
 10
-183.801
 20
156.562
 42
0.0
  0
VERTEX
  8
0
 10
-183.801
 20
152.557
 42
-0.007004395122
  0
SEQEND
  0
POLYLINE
  8
0
 66
     1
 10
0.0
 20
0.0
 30
0.0
 70
     1
  0
VERTEX
  8
0
 10
108.82
 20
28.7557
 42
-0.7137849861985
  0
VERTEX
  8
0
 10
108.124
 20
26.0051
 42
0.0
  0
VERTEX
  8
0
 10
29.8761
 20
26.0051
 42
-0.9204224701289
  0
VERTEX
  8
0
 10
29.8761
 20
28.9949
 42
0.0
  0
VERTEX
  8
0
 10
108.124
 20
28.9949
 42
-0.123902886129
  0
SEQEND
  0
POLYLINE
  8
0
 66
     1
 10
0.0
 20
0.0
 30
0.0
 70
     1
  0
VERTEX
  8
0
 10
108.82
 20
-56.2557
 42
-0.124607239711
  0
VERTEX
  8
0
 10
108.124
 20
-56.4949
 42
0.0
  0
VERTEX
  8
0
 10
29.8761
 20
-56.4949
 42
-0.9204224701285
  0
VERTEX
  8
0
 10
29.8761
 20
-53.5051
 42
0.0
  0
VERTEX
  8
0
 10
108.124
 20
-53.5051
 42
-0.7125481153783
  0
SEQEND
  0
POLYLINE
  8
0
 66
     1
 10
0.0
 20
0.0
 30
0.0
 70
     1
  0
VERTEX
  8
0
 10
108.82
 20
33.7442
 42
-0.1245130433105
  0
VERTEX
  8
0
 10
108.124
 20
33.5051
 42
0.0
  0
VERTEX
  8
0
 10
29.8761
 20
33.5051
 42
-0.9204224701288
  0
VERTEX
  8
0
 10
29.8761
 20
36.4949
 42
0.0
  0
VERTEX
  8
0
 10
108.124
 20
36.4949
 42
-0.71281632137
  0
SEQEND
  0
POLYLINE
  8
0
 66
     1
 10
0.0
 20
0.0
 30
0.0
 70
     1
  0
VERTEX
  8
0
 10
108.82
 20
-48.7557
 42
-0.1246072397101
  0
VERTEX
  8
0
 10
108.124
 20
-48.9949
 42
0.0
  0
VERTEX
  8
0
 10
29.8761
 20
-48.9949
 42
-0.920422470129
  0
VERTEX
  8
0
 10
29.8761
 20
-46.0051
 42
0.0
  0
VERTEX
  8
0
 10
108.124
 20
-46.0051
 42
-0.7125481153788
  0
SEQEND
  0
POLYLINE
  8
0
 66
     1
 10
0.0
 20
0.0
 30
0.0
 70
     1
  0
VERTEX
  8
0
 10
108.82
 20
41.2442
 42
-0.1245130433113
  0
VERTEX
  8
0
 10
108.124
 20
41.0051
 42
0.0
  0
VERTEX
  8
0
 10
29.8761
 20
41.0051
 42
-0.9204224701289
  0
VERTEX
  8
0
 10
29.8761
 20
43.9949
 42
0.0
  0
VERTEX
  8
0
 10
108.124
 20
43.9949
 42
-0.7128163213692
  0
SEQEND
  0
POLYLINE
  8
0
 66
     1
 10
0.0
 20
0.0
 30
0.0
 70
     1
  0
VERTEX
  8
0
 10
108.82
 20
-41.2557
 42
-0.1246072397106
  0
VERTEX
  8
0
 10
108.124
 20
-41.4949
 42
0.0
  0
VERTEX
  8
0
 10
29.8761
 20
-41.4949
 42
-0.9204224701284
  0
VERTEX
  8
0
 10
29.8761
 20
-38.5051
 42
0.0
  0
VERTEX
  8
0
 10
108.124
 20
-38.5051
 42
-0.7125481153791
  0
SEQEND
  0
POLYLINE
  8
0
 66
     1
 10
0.0
 20
0.0
 30
0.0
 70
     1
  0
VERTEX
  8
0
 10
108.82
 20
48.7442
 42
-0.1245130433092
  0
VERTEX
  8
0
 10
108.124
 20
48.5051
 42
0.0
  0
VERTEX
  8
0
 10
29.8761
 20
48.5051
 42
-0.9204224701288
  0
VERTEX
  8
0
 10
29.8761
 20
51.4949
 42
0.0
  0
VERTEX
  8
0
 10
108.124
 20
51.4949
 42
-0.7128163213696
  0
SEQEND
  0
POLYLINE
  8
0
 66
     1
 10
0.0
 20
0.0
 30
0.0
 70
     1
  0
VERTEX
  8
0
 10
187.25
 20
152.531
 42
-3.7373469444642
  0
VERTEX
  8
0
 10
183.75
 20
152.531
 42
0.0
  0
VERTEX
  8
0
 10
183.801
 20
152.557
 42
0.0
  0
VERTEX
  8
0
 10
183.801
 20
156.562
 42
-0.9648855982373
  0
VERTEX
  8
0
 10
187.199
 20
156.562
 42
0.0
  0
VERTEX
  8
0
 10
187.199
 20
152.557
 42
-0.0070043951215
  0
SEQEND
  0
POLYLINE
  8
0
 66
     1
 10
0.0
 20
0.0
 30
0.0
 70
     1
  0
VERTEX
  8
0
 10
108.82
 20
-33.7557
 42
-0.12460723971
  0
VERTEX
  8
0
 10
108.124
 20
-33.9949
 42
0.0
  0
VERTEX
  8
0
 10
29.8761
 20
-33.9949
 42
-0.9204224701287
  0
VERTEX
  8
0
 10
29.8761
 20
-31.0051
 42
0.0
  0
VERTEX
  8
0
 10
108.124
 20
-31.0051
 42
-0.7125481153788
  0
SEQEND
  0
POLYLINE
  8
0
 66
     1
 10
0.0
 20
0.0
 30
0.0
 70
     1
  0
VERTEX
  8
0
 10
108.82
 20
56.2442
 42
-0.1245130433103
  0
VERTEX
  8
0
 10
108.124
 20
56.0051
 42
0.0
  0
VERTEX
  8
0
 10
29.8761
 20
56.0051
 42
-0.9204224701288
  0
VERTEX
  8
0
 10
29.8761
 20
58.9949
 42
0.0
  0
VERTEX
  8
0
 10
108.124
 20
58.9949
 42
-0.712816321368
  0
SEQEND
  0
POLYLINE
  8
0
 66
     1
 10
0.0
 20
0.0
 30
0.0
 70
     1
  0
VERTEX
  8
0
 10
108.82
 20
-26.2557
 42
-0.1246072397106
  0
VERTEX
  8
0
 10
108.124
 20
-26.4949
 42
0.0
  0
VERTEX
  8
0
 10
29.8761
 20
-26.4949
 42
-0.9204224701286
  0
VERTEX
  8
0
 10
29.8761
 20
-23.5051
 42
0.0
  0
VERTEX
  8
0
 10
108.124
 20
-23.5051
 42
-0.7125481153784
  0
SEQEND
  0
POLYLINE
  8
0
 66
     1
 10
0.0
 20
0.0
 30
0.0
 70
     1
  0
VERTEX
  8
0
 10
108.82
 20
13.7557
 42
-0.713784986199
  0
VERTEX
  8
0
 10
108.124
 20
11.0051
 42
0.0
  0
VERTEX
  8
0
 10
29.8761
 20
11.0051
 42
-0.9204224701289
  0
VERTEX
  8
0
 10
29.8761
 20
13.9949
 42
0.0
  0
VERTEX
  8
0
 10
108.124
 20
13.9949
 42
-0.1239028861289
  0
SEQEND
  0
POLYLINE
  8
0
 66
     1
 10
0.0
 20
0.0
 30
0.0
 70
     1
  0
VERTEX
  8
0
 10
187.25
 20
-159.469
 42
-3.7373469444834
  0
VERTEX
  8
0
 10
183.75
 20
-159.469
 42
0.0
  0
VERTEX
  8
0
 10
183.801
 20
-159.443
 42
0.0
  0
VERTEX
  8
0
 10
183.801
 20
-155.438
 42
-0.9648855982383
  0
VERTEX
  8
0
 10
187.199
 20
-155.438
 42
0.0
  0
VERTEX
  8
0
 10
187.199
 20
-159.443
 42
-0.0070043951211
  0
SEQEND
  0
POLYLINE
  8
0
 66
     1
 10
0.0
 20
0.0
 30
0.0
 70
     1
  0
VERTEX
  8
0
 10
108.82
 20
-18.7557
 42
-0.1246072397101
  0
VERTEX
  8
0
 10
108.124
 20
-18.9949
 42
0.0
  0
VERTEX
  8
0
 10
29.8761
 20
-18.9949
 42
-0.9204224701288
  0
VERTEX
  8
0
 10
29.8761
 20
-16.0051
 42
0.0
  0
VERTEX
  8
0
 10
108.124
 20
-16.0051
 42
-0.7125481153784
  0
SEQEND
  0
POLYLINE
  8
0
 66
     1
 10
0.0
 20
0.0
 30
0.0
 70
     1
  0
VERTEX
  8
0
 10
108.82
 20
66.2558
 42
-0.7137895061218
  0
VERTEX
  8
0
 10
108.124
 20
63.5051
 42
0.0
  0
VERTEX
  8
0
 10
29.8761
 20
63.5051
 42
-0.9204224701293
  0
VERTEX
  8
0
 10
29.8761
 20
66.4949
 42
0.0
  0
VERTEX
  8
0
 10
108.124
 20
66.4949
 42
-0.1240645127778
  0
SEQEND
  0
POLYLINE
  8
0
 66
     1
 10
0.0
 20
0.0
 30
0.0
 70
     1
  0
VERTEX
  8
0
 10
108.82
 20
71.2442
 42
-0.1245130433103
  0
VERTEX
  8
0
 10
108.124
 20
71.0051
 42
0.0
  0
VERTEX
  8
0
 10
29.8761
 20
71.0051
 42
-0.9204224701287
  0
VERTEX
  8
0
 10
29.8761
 20
73.9949
 42
0.0
  0
VERTEX
  8
0
 10
108.124
 20
73.9949
 42
-0.7128163213701
  0
SEQEND
  0
POLYLINE
  8
0
 66
     1
 10
0.0
 20
0.0
 30
0.0
 70
     1
  0
VERTEX
  8
0
 10
192.338
 20
-174.798
 42
0.3837360052304
  0
VERTEX
  8
0
 10
204.875
 20
-160.875
 42
0.0
  0
VERTEX
  8
0
 10
204.875
 20
160.875
 42
0.4140671599467
  0
VERTEX
  8
0
 10
190.875
 20
174.875
 42
0.0
  0
VERTEX
  8
0
 10
-190.875
 20
174.875
 42
0.4140671599468
  0
VERTEX
  8
0
 10
-204.875
 20
160.875
 42
0.0
  0
VERTEX
  8
0
 10
-204.875
 20
-160.875
 42
0.4140671599467
  0
VERTEX
  8
0
 10
-190.875
 20
-174.875
 42
0.0
  0
VERTEX
  8
0
 10
190.875
 20
-174.875
 42
0.0260640161221
  0
SEQEND
  0
ENDSEC
  0
EOF
