0
SECTION
2
HEADER
9
$INSUNITS
70
4
9
$ACADVER
1
AC1014
9
$HANDSEED
5
FFFF
0
ENDSEC
0
SECTION
2
TABLES
0
TABLE
2
VPORT
5
8
100
AcDbSymbolTable
0
ENDTAB
0
TABLE
2
LTYPE
5
5
100
AcDbSymbolTable
0
LTYPE
5
14
100
AcDbSymbolTableRecord
100
AcDbLinetypeTableRecord
2
BYBLOCK
70
0
0
LTYPE
5
15
100
AcDbSymbolTableRecord
100
AcDbLinetypeTableRecord
2
BYLAYER
70
0
0
ENDTAB
0
TABLE
2
LAYER
5
2
100
AcDbSymbolTable
70
2
0
LAYER
5
50
100
AcDbSymbolTableRecord
100
AcDbLayerTableRecord
2
0
70
0
6
CONTINUOUS
0
ENDTAB
0
TABLE
2
STYLE
5
3
100
AcDbSymbolTable
70
1
0
STYLE
5
11
100
AcDbSymbolTableRecord
100
AcDbTextStyleTableRecord
2
STANDARD
70
0
0
ENDTAB
0
TABLE
2
VIEW
5
6
100
AcDbSymbolTable
70
0
0
ENDTAB
0
TABLE
2
UCS
5
7
100
AcDbSymbolTable
70
0
0
ENDTAB
0
TABLE
2
APPID
5
9
100
AcDbSymbolTable
70
2
0
APPID
5
12
100
AcDbSymbolTableRecord
100
AcDbRegAppTableRecord
2
ACAD
70
0
0
ENDTAB
0
TABLE
2
DIMSTYLE
5
A
100
AcDbSymbolTable
70
1
0
ENDTAB
0
TABLE
2
BLOCK_RECORD
5
1
100
AcDbSymbolTable
70
1
0
BLOCK_RECORD
5
1F
100
AcDbSymbolTableRecord
100
AcDbBlockTableRecord
2
*MODEL_SPACE
0
BLOCK_RECORD
5
1B
100
AcDbSymbolTableRecord
100
AcDbBlockTableRecord
2
*PAPER_SPACE
0
ENDTAB
0
ENDSEC
0
SECTION
2
BLOCKS
0
BLOCK
5
20
100
AcDbEntity
100
AcDbBlockBegin
2
*MODEL_SPACE
0
ENDBLK
5
21
100
AcDbEntity
100
AcDbBlockEnd
0
BLOCK
5
1C
100
AcDbEntity
100
AcDbBlockBegin
2
*PAPER_SPACE
0
ENDBLK
5
1D
100
AcDbEntity
100
AcDbBlockEnd
0
ENDSEC
0
SECTION
2
ENTITIES
0
LWPOLYLINE
5
100
100
AcDbEntity
8
0
100
AcDbPolyline
90
8
70
1
43
0.0
10
-440
20
-2.2204460492503131e-15
42
-0.41421356237310342
10
-445
20
5
10
-445
20
450
42
-0.41421356237310336
10
-440
20
455
10
-5
20
455
42
-0.41421356237308815
10
0
20
450
10
2.2204460492503131e-15
20
4.9999999999999991
42
-0.41421356237309476
10
-5
20
-1.1102230246251565e-15
0
CIRCLE
5
101
100
AcDbEntity
8
0
100
AcDbCircle
10
-7.5
20
7.4999999999999991
30
-1.5543122344752192e-14
40
3.5000000000000009
210
2.9130685596168519e-17
220
-1.1325258113589778e-15
230
1
0
CIRCLE
5
102
100
AcDbEntity
8
0
100
AcDbCircle
10
-7.4999999999999778
20
447.49999999999994
30
-1.5543122344752192e-14
40
3.5000000000000182
210
1.4565342798076673e-17
220
-5.662629056794755e-16
230
1
0
CIRCLE
5
103
100
AcDbEntity
8
0
100
AcDbCircle
10
-437.5
20
447.5
30
-1.5543122344752192e-14
40
3.5000000000000093
210
1.4565342798084167e-17
220
-5.6626290567950617e-16
230
1
0
CIRCLE
5
104
100
AcDbEntity
8
0
100
AcDbCircle
10
-437.50000000000006
20
7.5000000000001599
30
-1.5543122344752192e-14
40
3.4999999999999423
210
1.4565342798103445e-17
220
-5.6626290567948053e-16
230
1
0
CIRCLE
5
105
100
AcDbEntity
8
0
100
AcDbCircle
10
-437.50000000000006
20
138.74999999999991
30
-1.5543122344752192e-14
40
1.7500000000000377
210
2.4558085256763665e-87
220
-1.9472483622217884e-43
230
1
0
CIRCLE
5
106
100
AcDbEntity
8
0
100
AcDbCircle
10
-437.50000000000006
20
405
30
-1.5543122344752192e-14
40
1.7500000000000171
210
2.4558085256763665e-87
220
-1.9472483622217884e-43
230
1
0
CIRCLE
5
107
100
AcDbEntity
8
0
100
AcDbCircle
10
-7.500000000000008
20
138.75000000000003
30
-1.5543122344752192e-14
40
1.7500000000000098
210
2.913068559615896e-17
220
-1.1325258113589587e-15
230
1
0
CIRCLE
5
108
100
AcDbEntity
8
0
100
AcDbCircle
10
-136.25
20
7.5000000000000346
30
-1.5543122344752192e-14
40
1.7499999999999907
210
-5.8261371192299986e-17
220
2.2650516227179695e-15
230
1
0
CIRCLE
5
109
100
AcDbEntity
8
0
100
AcDbCircle
10
-395.00000000000006
20
447.50000000000006
30
-1.5543122344752192e-14
40
1.7500000000000335
210
2.4558085256763665e-87
220
-1.9472483622217884e-43
230
1
0
CIRCLE
5
110
100
AcDbEntity
8
0
100
AcDbCircle
10
-50.000000000000007
20
7.500000000000032
30
-1.5543122344752192e-14
40
1.7500000000000067
210
-5.8261371192300959e-17
220
2.2650516227179667e-15
230
1
0
CIRCLE
5
111
100
AcDbEntity
8
0
100
AcDbCircle
10
-222.50000000000003
20
447.50000000000011
30
-1.5543122344752192e-14
40
1.749999999999992
210
-5.7615396792724103e-17
220
8.0688724123428923e-17
230
1
0
CIRCLE
5
112
100
AcDbEntity
8
0
100
AcDbCircle
10
-50.000000000000036
20
447.50000000000006
30
-1.5543122344752192e-14
40
1.7500000000000191
210
-2.9130685596134314e-17
220
1.1325258113589652e-15
230
1
0
CIRCLE
5
113
100
AcDbEntity
8
0
100
AcDbCircle
10
-222.5
20
7.4999999999999778
30
-1.6653345369377348e-14
40
1.7499999999999694
210
-6.0304802711081672e-16
220
8.4455160601894431e-16
230
1
0
CIRCLE
5
114
100
AcDbEntity
8
0
100
AcDbCircle
10
-308.74999999999994
20
7.4999999999999298
30
-1.6653345369377348e-14
40
1.7499999999999394
210
-6.0304802711084275e-16
220
8.4455160601889905e-16
230
1
0
CIRCLE
5
115
100
AcDbEntity
8
0
100
AcDbCircle
10
-395
20
7.4999999999999876
30
-1.5543122344752192e-14
40
1.7499999999999758
210
2.4558085256763665e-87
220
-1.9472483622217884e-43
230
1
0
CIRCLE
5
116
100
AcDbEntity
8
0
100
AcDbCircle
10
-437.50000000000006
20
227.49999999999989
30
-1.5543122344752192e-14
40
1.7500000000000377
210
2.4558085256763665e-87
220
-1.9472483622217884e-43
230
1
0
CIRCLE
5
117
100
AcDbEntity
8
0
100
AcDbCircle
10
-437.5
20
316.25
30
-1.6653345369377348e-14
40
1.7499999999999758
210
-6.0304802711081071e-16
220
8.4455160601898928e-16
230
1
0
CIRCLE
5
118
100
AcDbEntity
8
0
100
AcDbCircle
10
-437.5
20
50.00000000000022
30
-1.5543122344752192e-14
40
1.7499999999999758
210
-2.9130685596159952e-17
220
1.1325258113589993e-15
230
1
0
CIRCLE
5
119
100
AcDbEntity
8
0
100
AcDbCircle
10
-7.5000000000000009
20
50.000000000000007
30
-1.5543122344752192e-14
40
1.7499999999999993
210
-5.7615396792731117e-17
220
8.068872412342753e-17
230
1
0
CIRCLE
5
120
100
AcDbEntity
8
0
100
AcDbCircle
10
-308.75000000000006
20
447.50000000000006
30
-1.5543122344752192e-14
40
1.7500000000000047
210
-5.7615396792730944e-17
220
8.0688724123430858e-17
230
1
0
CIRCLE
5
121
100
AcDbEntity
8
0
100
AcDbCircle
10
-7.5000000000000133
20
405.00000000000006
30
-1.5543122344752192e-14
40
1.7500000000000047
210
-2.9130685596131652e-17
220
1.1325258113589609e-15
230
1
0
CIRCLE
5
122
100
AcDbEntity
8
0
100
AcDbCircle
10
-7.4999999999999929
20
316.24999999999994
30
-1.6653345369377348e-14
40
1.7499999999999667
210
-6.0304802711082639e-16
220
8.4455160601900456e-16
230
1
0
CIRCLE
5
123
100
AcDbEntity
8
0
100
AcDbCircle
10
-7.4999999999999893
20
227.5
30
-1.5543122344752192e-14
40
1.7499999999999847
210
-2.9130685596165462e-17
220
1.1325258113589668e-15
230
1
0
CIRCLE
5
124
100
AcDbEntity
8
0
100
AcDbCircle
10
-136.25000000000003
20
447.50000000000011
30
-1.5543122344752192e-14
40
1.7500000000000047
210
2.4558085256763665e-87
220
-1.9472483622217884e-43
230
1
0
LWPOLYLINE
5
125
100
AcDbEntity
8
0
100
AcDbPolyline
90
8
70
1
43
0.0
10
-440
20
-1.4432899320127035e-14
42
-0.41421356237310414
10
-445
20
5
10
-445
20
450
42
-0.41421356237310336
10
-440
20
455
10
-5
20
455
42
-0.41421356237308515
10
0
20
450
10
2.2204460492503131e-15
20
4.9999999999999991
42
-0.4142135623730947
10
-5
20
-2.2204460492503131e-15
0
CIRCLE
5
126
100
AcDbEntity
8
0
100
AcDbCircle
10
-7.5
20
7.4999999999999982
30
0
40
3.5000000000000013
210
-0
220
3.89449672444358e-43
230
1
0
CIRCLE
5
127
100
AcDbEntity
8
0
100
AcDbCircle
10
-7.4999999999999778
20
447.49999999999994
30
0
40
3.5000000000000187
210
-0
220
3.89449672444358e-43
230
1
0
CIRCLE
5
128
100
AcDbEntity
8
0
100
AcDbCircle
10
-437.5
20
447.5
30
0
40
3.5000000000000093
210
-0
220
3.89449672444358e-43
230
1
0
CIRCLE
5
129
100
AcDbEntity
8
0
100
AcDbCircle
10
-437.50000000000006
20
7.500000000000159
30
0
40
3.4999999999999423
210
-0
220
3.89449672444358e-43
230
1
0
CIRCLE
5
130
100
AcDbEntity
8
0
100
AcDbCircle
10
-437.50000000000006
20
138.74999999999991
30
0
40
1.7500000000000377
210
3.241249187754792e-59
220
2.3143984501597186e-59
230
1
0
CIRCLE
5
131
100
AcDbEntity
8
0
100
AcDbCircle
10
-437.50000000000006
20
405
30
0
40
1.7500000000000173
210
-2.3143984501596651e-59
220
3.2412491877548305e-59
230
1
0
CIRCLE
5
132
100
AcDbEntity
8
0
100
AcDbCircle
10
-7.500000000000008
20
138.75000000000003
30
0
40
1.7500000000000098
210
-0
220
3.89449672444358e-43
230
1
0
CIRCLE
5
133
100
AcDbEntity
8
0
100
AcDbCircle
10
-136.25
20
7.5000000000000338
30
0
40
1.7499999999999907
210
-0
220
3.89449672444358e-43
230
1
0
CIRCLE
5
134
100
AcDbEntity
8
0
100
AcDbCircle
10
-395.00000000000006
20
447.50000000000006
30
0
40
1.7500000000000335
210
-0
220
0
230
1
0
CIRCLE
5
135
100
AcDbEntity
8
0
100
AcDbCircle
10
-50.000000000000007
20
7.5000000000000311
30
0
40
1.7500000000000067
210
-0
220
3.8944967244435792e-43
230
1
0
CIRCLE
5
136
100
AcDbEntity
8
0
100
AcDbCircle
10
-222.50000000000003
20
447.50000000000011
30
0
40
1.749999999999992
210
-1.8417904268352523e-43
220
2.5793750961869511e-43
230
1
0
CIRCLE
5
137
100
AcDbEntity
8
0
100
AcDbCircle
10
-50.000000000000036
20
447.50000000000006
30
0
40
1.7500000000000191
210
-0
220
3.89449672444358e-43
230
1
0
CIRCLE
5
138
100
AcDbEntity
8
0
100
AcDbCircle
10
-222.5
20
7.4999999999999769
30
0
40
1.7499999999999694
210
-1.8417904268353614e-43
220
2.5793750961866329e-43
230
1
0
CIRCLE
5
139
100
AcDbEntity
8
0
100
AcDbCircle
10
-308.74999999999994
20
7.4999999999999289
30
0
40
1.7499999999999394
210
-1.8417904268354203e-43
220
2.5793750961864636e-43
230
1
0
CIRCLE
5
140
100
AcDbEntity
8
0
100
AcDbCircle
10
-395
20
7.4999999999999867
30
0
40
1.7499999999999758
210
-2.3143984501595581e-59
220
3.241249187754907e-59
230
1
0
CIRCLE
5
141
100
AcDbEntity
8
0
100
AcDbCircle
10
-437.50000000000006
20
227.49999999999989
30
0
40
1.7500000000000377
210
3.241249187754792e-59
220
2.3143984501597186e-59
230
1
0
CIRCLE
5
142
100
AcDbEntity
8
0
100
AcDbCircle
10
-437.5
20
316.25
30
0
40
1.7499999999999758
210
-1.8417904268353244e-43
220
2.5793750961867428e-43
230
1
0
CIRCLE
5
143
100
AcDbEntity
8
0
100
AcDbCircle
10
-437.5
20
50.00000000000022
30
0
40
1.7499999999999758
210
-0
220
3.89449672444358e-43
230
1
0
CIRCLE
5
144
100
AcDbEntity
8
0
100
AcDbCircle
10
-7.5000000000000009
20
50.000000000000007
30
0
40
1.7499999999999993
210
-1.8417904268353355e-43
220
2.579375096186709e-43
230
1
0
CIRCLE
5
145
100
AcDbEntity
8
0
100
AcDbCircle
10
-308.75000000000006
20
447.50000000000006
30
0
40
1.7500000000000047
210
-1.8417904268353092e-43
220
2.5793750961867862e-43
230
1
0
CIRCLE
5
146
100
AcDbEntity
8
0
100
AcDbCircle
10
-7.5000000000000133
20
405.00000000000006
30
0
40
1.7500000000000047
210
-0
220
3.89449672444358e-43
230
1
0
CIRCLE
5
147
100
AcDbEntity
8
0
100
AcDbCircle
10
-7.4999999999999929
20
316.24999999999994
30
0
40
1.7499999999999667
210
-1.8417904268353291e-43
220
2.5793750961867293e-43
230
1
0
CIRCLE
5
148
100
AcDbEntity
8
0
100
AcDbCircle
10
-7.4999999999999893
20
227.5
30
0
40
1.7499999999999847
210
-0
220
3.89449672444358e-43
230
1
0
CIRCLE
5
149
100
AcDbEntity
8
0
100
AcDbCircle
10
-136.25000000000003
20
447.50000000000011
30
0
40
1.7500000000000047
210
-2.3143984501595196e-59
220
3.2412491877549344e-59
230
1
0
ENDSEC
0
SECTION
2
OBJECTS
0
DICTIONARY
5
C
100
AcDbDictionary
3
ACAD_GROUP
350
D
3
ACAD_MLINESTYLE
350
17
0
DICTIONARY
5
D
100
AcDbDictionary
0
DICTIONARY
5
1A
330
C
100
AcDbDictionary
0
DICTIONARY
5
17
100
AcDbDictionary
0
ENDSEC
0
EOF
