  0
SECTION
  2
HEADER
  9
$ACADVER
  1
AC1009
  9
$EXTMAX
 10
455.0
 20
25.0
 30
0.0
  9
$EXTMIN
 10
-50.0
 20
0.0
 30
0.0
  9
$INSUNITS
 70
     4
  9
$LUNITS
 70
     2
  9
$LUPREC
 70
     4
  9
$MEASUREMENT
 70
     1
  0
ENDSEC
  0
SECTION
  2
TABLES
  0
TABLE
  2
LAYER
 70
     1
  0
LAYER
  2
0
 70
     0
 62
    70
  6
Continuous
  0
ENDTAB
  0
TABLE
  2
APPID
 70
     1
  0
APPID
  2
ACAD
 70
     0
  0
ENDTAB
  0
ENDSEC
  0
SECTION
  2
ENTITIES
  0
POLYLINE
  8
0
 66
     1
 10
0.0
 20
0.0
 30
0.0
 70
     1
  0
VERTEX
  8
0
 10
175.597
 20
11.5405
 42
0.0
  0
VERTEX
  8
0
 10
175.597
 20
10.2003
 42
0.0
  0
VERTEX
  8
0
 10
172.031
 20
10.2003
 42
0.0
  0
VERTEX
  8
0
 10
173.039
 20
11.5405
 42
0.0
  0
SEQEND
  0
POLYLINE
  8
0
 66
     1
 10
0.0
 20
0.0
 30
0.0
 70
     1
  0
VERTEX
  8
0
 10
97.6146
 20
11.0962
 42
0.0
  0
VERTEX
  8
0
 10
98.7895
 20
12.655
 42
0.0
  0
VERTEX
  8
0
 10
100.639
 20
10.2042
 42
0.0
  0
VERTEX
  8
0
 10
98.2979
 20
10.2042
 42
0.0
  0
SEQEND
  0
POLYLINE
  8
0
 66
     1
 10
0.0
 20
0.0
 30
0.0
 70
     1
  0
VERTEX
  8
0
 10
443.773
 20
8.00952
 42
0.0
  0
VERTEX
  8
0
 10
444.464
 20
8.91805
 42
0.0
  0
VERTEX
  8
0
 10
446.922
 20
8.91805
 42
0.0
  0
VERTEX
  8
0
 10
444.139
 20
5.81744
 42
0.0
  0
VERTEX
  8
0
 10
444.139
 20
3.2003
 42
0.0
  0
VERTEX
  8
0
 10
441.865
 20
3.2003
 42
0.0
  0
VERTEX
  8
0
 10
441.865
 20
5.45906
 42
0.0
  0
VERTEX
  8
0
 10
443.781
 20
8.00952
 42
0.0
  0
SEQEND
  0
POLYLINE
  8
0
 66
     1
 10
0.0
 20
0.0
 30
0.0
 70
     1
  0
VERTEX
  8
0
 10
292.615
 20
11.0962
 42
0.0
  0
VERTEX
  8
0
 10
293.79
 20
12.655
 42
0.0
  0
VERTEX
  8
0
 10
295.639
 20
10.2042
 42
0.0
  0
VERTEX
  8
0
 10
293.298
 20
10.2042
 42
0.0
  0
SEQEND
  0
POLYLINE
  8
0
 66
     1
 10
0.0
 20
0.0
 30
0.0
 70
     1
  0
VERTEX
  8
0
 10
317.023
 20
13.5095
 42
0.0
  0
VERTEX
  8
0
 10
317.714
 20
14.418
 42
0.0
  0
VERTEX
  8
0
 10
320.172
 20
14.418
 42
0.0
  0
VERTEX
  8
0
 10
317.389
 20
11.3174
 42
0.0
  0
VERTEX
  8
0
 10
317.389
 20
8.7003
 42
0.0
  0
VERTEX
  8
0
 10
315.115
 20
8.7003
 42
0.0
  0
VERTEX
  8
0
 10
315.115
 20
10.9591
 42
0.0
  0
VERTEX
  8
0
 10
317.031
 20
13.5095
 42
0.0
  0
SEQEND
  0
POLYLINE
  8
0
 66
     1
 10
0.0
 20
0.0
 30
0.0
 70
     1
  0
VERTEX
  8
0
 10
405.773
 20
13.5095
 42
0.0
  0
VERTEX
  8
0
 10
406.464
 20
14.418
 42
0.0
  0
VERTEX
  8
0
 10
408.922
 20
14.418
 42
0.0
  0
VERTEX
  8
0
 10
406.139
 20
11.3174
 42
0.0
  0
VERTEX
  8
0
 10
406.139
 20
8.7003
 42
0.0
  0
VERTEX
  8
0
 10
403.865
 20
8.7003
 42
0.0
  0
VERTEX
  8
0
 10
403.865
 20
10.9591
 42
0.0
  0
VERTEX
  8
0
 10
405.781
 20
13.5095
 42
0.0
  0
SEQEND
  0
POLYLINE
  8
0
 66
     1
 10
0.0
 20
0.0
 30
0.0
 70
     1
  0
VERTEX
  8
0
 10
89.3471
 20
11.5405
 42
0.0
  0
VERTEX
  8
0
 10
89.3471
 20
10.2003
 42
0.0
  0
VERTEX
  8
0
 10
85.7807
 20
10.2003
 42
0.0
  0
VERTEX
  8
0
 10
86.7889
 20
11.5405
 42
0.0
  0
SEQEND
  0
POLYLINE
  8
0
 66
     1
 10
0.0
 20
0.0
 30
0.0
 70
     1
  0
VERTEX
  8
0
 10
390.115
 20
11.0962
 42
0.0
  0
VERTEX
  8
0
 10
391.29
 20
12.655
 42
0.0
  0
VERTEX
  8
0
 10
393.139
 20
10.2042
 42
0.0
  0
VERTEX
  8
0
 10
390.798
 20
10.2042
 42
0.0
  0
SEQEND
  0
POLYLINE
  8
0
 66
     1
 10
0.0
 20
0.0
 30
0.0
 70
     1
  0
VERTEX
  8
0
 10
228.273
 20
13.5095
 42
0.0
  0
VERTEX
  8
0
 10
228.964
 20
14.418
 42
0.0
  0
VERTEX
  8
0
 10
231.422
 20
14.418
 42
0.0
  0
VERTEX
  8
0
 10
228.639
 20
11.3174
 42
0.0
  0
VERTEX
  8
0
 10
228.639
 20
8.7003
 42
0.0
  0
VERTEX
  8
0
 10
226.365
 20
8.7003
 42
0.0
  0
VERTEX
  8
0
 10
226.365
 20
10.9591
 42
0.0
  0
VERTEX
  8
0
 10
228.281
 20
13.5095
 42
0.0
  0
SEQEND
  0
POLYLINE
  8
0
 66
     1
 10
0.0
 20
0.0
 30
0.0
 70
     1
  0
VERTEX
  8
0
 10
261.847
 20
11.5405
 42
0.0
  0
VERTEX
  8
0
 10
261.847
 20
10.2003
 42
0.0
  0
VERTEX
  8
0
 10
258.281
 20
10.2003
 42
0.0
  0
VERTEX
  8
0
 10
259.289
 20
11.5405
 42
0.0
  0
SEQEND
  0
POLYLINE
  8
0
 66
     1
 10
0.0
 20
0.0
 30
0.0
 70
     1
  0
VERTEX
  8
0
 10
195.115
 20
11.0962
 42
0.0
  0
VERTEX
  8
0
 10
196.29
 20
12.655
 42
0.0
  0
VERTEX
  8
0
 10
198.139
 20
10.2042
 42
0.0
  0
VERTEX
  8
0
 10
195.798
 20
10.2042
 42
0.0
  0
SEQEND
  0
POLYLINE
  8
0
 66
     1
 10
0.0
 20
0.0
 30
0.0
 70
     1
  0
VERTEX
  8
0
 10
7.09712
 20
11.5405
 42
0.0
  0
VERTEX
  8
0
 10
7.09712
 20
10.2003
 42
0.0
  0
VERTEX
  8
0
 10
3.53067
 20
10.2003
 42
0.0
  0
VERTEX
  8
0
 10
4.53891
 20
11.5405
 42
0.0
  0
SEQEND
  0
POLYLINE
  8
0
 66
     1
 10
0.0
 20
0.0
 30
0.0
 70
     1
  0
VERTEX
  8
0
 10
-38.4937
 20
8.01399
 42
0.0
  0
VERTEX
  8
0
 10
-39.652
 20
6.4552
 42
0.0
  0
VERTEX
  8
0
 10
-41.5018
 20
8.91429
 42
0.0
  0
VERTEX
  8
0
 10
-39.1687
 20
8.91429
 42
0.0
  0
SEQEND
  0
POLYLINE
  8
0
 66
     1
 10
0.0
 20
0.0
 30
0.0
 70
     1
  0
VERTEX
  8
0
 10
100.639
 20
15.9143
 42
0.0
  0
VERTEX
  8
0
 10
96.3397
 20
10.2042
 42
0.0
  0
VERTEX
  8
0
 10
93.9982
 20
10.2042
 42
0.0
  0
VERTEX
  8
0
 10
98.3062
 20
15.9143
 42
0.0
  0
SEQEND
  0
POLYLINE
  8
0
 66
     1
 10
0.0
 20
0.0
 30
0.0
 70
     1
  0
VERTEX
  8
0
 10
198.139
 20
15.9143
 42
0.0
  0
VERTEX
  8
0
 10
193.84
 20
10.2042
 42
0.0
  0
VERTEX
  8
0
 10
191.498
 20
10.2042
 42
0.0
  0
VERTEX
  8
0
 10
195.806
 20
15.9143
 42
0.0
  0
SEQEND
  0
POLYLINE
  8
0
 66
     1
 10
0.0
 20
0.0
 30
0.0
 70
     1
  0
VERTEX
  8
0
 10
389.506
 20
15.014
 42
0.0
  0
VERTEX
  8
0
 10
388.348
 20
13.4552
 42
0.0
  0
VERTEX
  8
0
 10
386.498
 20
15.9143
 42
0.0
  0
VERTEX
  8
0
 10
388.831
 20
15.9143
 42
0.0
  0
SEQEND
  0
POLYLINE
  8
0
 66
     1
 10
0.0
 20
0.0
 30
0.0
 70
     1
  0
VERTEX
  8
0
 10
172.439
 20
11.5405
 42
0.0
  0
VERTEX
  8
0
 10
171.439
 20
10.2003
 42
0.0
  0
VERTEX
  8
0
 10
169.089
 20
10.2003
 42
0.0
  0
VERTEX
  8
0
 10
172.381
 20
14.5779
 42
0.0
  0
VERTEX
  8
0
 10
172.372
 20
14.5779
 42
0.0
  0
VERTEX
  8
0
 10
173.381
 20
15.918
 42
0.0
  0
VERTEX
  8
0
 10
175.73
 20
15.918
 42
0.0
  0
VERTEX
  8
0
 10
172.431
 20
11.5405
 42
0.0
  0
SEQEND
  0
POLYLINE
  8
0
 66
     1
 10
0.0
 20
0.0
 30
0.0
 70
     1
  0
VERTEX
  8
0
 10
292.006
 20
15.014
 42
0.0
  0
VERTEX
  8
0
 10
290.848
 20
13.4552
 42
0.0
  0
VERTEX
  8
0
 10
288.998
 20
15.9143
 42
0.0
  0
VERTEX
  8
0
 10
291.331
 20
15.9143
 42
0.0
  0
SEQEND
  0
POLYLINE
  8
0
 66
     1
 10
0.0
 20
0.0
 30
0.0
 70
     1
  0
VERTEX
  8
0
 10
83.2892
 20
14.5779
 42
0.0
  0
VERTEX
  8
0
 10
83.2892
 20
15.918
 42
0.0
  0
VERTEX
  8
0
 10
86.5306
 20
15.918
 42
0.0
  0
VERTEX
  8
0
 10
85.5307
 20
14.5779
 42
0.0
  0
SEQEND
  0
POLYLINE
  8
0
 66
     1
 10
0.0
 20
0.0
 30
0.0
 70
     1
  0
VERTEX
  8
0
 10
295.639
 20
15.9143
 42
0.0
  0
VERTEX
  8
0
 10
291.34
 20
10.2042
 42
0.0
  0
VERTEX
  8
0
 10
288.998
 20
10.2042
 42
0.0
  0
VERTEX
  8
0
 10
293.306
 20
15.9143
 42
0.0
  0
SEQEND
  0
POLYLINE
  8
0
 66
     1
 10
0.0
 20
0.0
 30
0.0
 70
     1
  0
VERTEX
  8
0
 10
97.0063
 20
15.014
 42
0.0
  0
VERTEX
  8
0
 10
95.848
 20
13.4552
 42
0.0
  0
VERTEX
  8
0
 10
93.9982
 20
15.9143
 42
0.0
  0
VERTEX
  8
0
 10
96.3313
 20
15.9143
 42
0.0
  0
SEQEND
  0
POLYLINE
  8
0
 66
     1
 10
0.0
 20
0.0
 30
0.0
 70
     1
  0
VERTEX
  8
0
 10
393.139
 20
15.9143
 42
0.0
  0
VERTEX
  8
0
 10
388.84
 20
10.2042
 42
0.0
  0
VERTEX
  8
0
 10
386.498
 20
10.2042
 42
0.0
  0
VERTEX
  8
0
 10
390.806
 20
15.9143
 42
0.0
  0
SEQEND
  0
POLYLINE
  8
0
 66
     1
 10
0.0
 20
0.0
 30
0.0
 70
     1
  0
VERTEX
  8
0
 10
194.506
 20
15.014
 42
0.0
  0
VERTEX
  8
0
 10
193.348
 20
13.4552
 42
0.0
  0
VERTEX
  8
0
 10
191.498
 20
15.9143
 42
0.0
  0
VERTEX
  8
0
 10
193.831
 20
15.9143
 42
0.0
  0
SEQEND
  0
POLYLINE
  8
0
 66
     1
 10
0.0
 20
0.0
 30
0.0
 70
     1
  0
VERTEX
  8
0
 10
169.539
 20
14.5779
 42
0.0
  0
VERTEX
  8
0
 10
169.539
 20
15.918
 42
0.0
  0
VERTEX
  8
0
 10
172.781
 20
15.918
 42
0.0
  0
VERTEX
  8
0
 10
171.781
 20
14.5779
 42
0.0
  0
SEQEND
  0
POLYLINE
  8
0
 66
     1
 10
0.0
 20
0.0
 30
0.0
 70
     1
  0
VERTEX
  8
0
 10
139.523
 20
13.5095
 42
0.0
  0
VERTEX
  8
0
 10
140.214
 20
14.418
 42
0.0
  0
VERTEX
  8
0
 10
142.672
 20
14.418
 42
0.0
  0
VERTEX
  8
0
 10
139.889
 20
11.3174
 42
0.0
  0
VERTEX
  8
0
 10
139.889
 20
8.7003
 42
0.0
  0
VERTEX
  8
0
 10
137.615
 20
8.7003
 42
0.0
  0
VERTEX
  8
0
 10
137.615
 20
10.9591
 42
0.0
  0
VERTEX
  8
0
 10
139.531
 20
13.5095
 42
0.0
  0
SEQEND
  0
POLYLINE
  8
0
 66
     1
 10
0.0
 20
0.0
 30
0.0
 70
     1
  0
VERTEX
  8
0
 10
86.189
 20
11.5405
 42
0.0
  0
VERTEX
  8
0
 10
85.189
 20
10.2003
 42
0.0
  0
VERTEX
  8
0
 10
82.8392
 20
10.2003
 42
0.0
  0
VERTEX
  8
0
 10
86.1307
 20
14.5779
 42
0.0
  0
VERTEX
  8
0
 10
86.1223
 20
14.5779
 42
0.0
  0
VERTEX
  8
0
 10
87.1305
 20
15.918
 42
0.0
  0
VERTEX
  8
0
 10
89.4804
 20
15.918
 42
0.0
  0
VERTEX
  8
0
 10
86.1806
 20
11.5405
 42
0.0
  0
SEQEND
  0
POLYLINE
  8
0
 66
     1
 10
0.0
 20
0.0
 30
0.0
 70
     1
  0
VERTEX
  8
0
 10
255.789
 20
14.5779
 42
0.0
  0
VERTEX
  8
0
 10
255.789
 20
15.918
 42
0.0
  0
VERTEX
  8
0
 10
259.031
 20
15.918
 42
0.0
  0
VERTEX
  8
0
 10
258.031
 20
14.5779
 42
0.0
  0
SEQEND
  0
POLYLINE
  8
0
 66
     1
 10
0.0
 20
0.0
 30
0.0
 70
     1
  0
VERTEX
  8
0
 10
258.689
 20
11.5405
 42
0.0
  0
VERTEX
  8
0
 10
257.689
 20
10.2003
 42
0.0
  0
VERTEX
  8
0
 10
255.339
 20
10.2003
 42
0.0
  0
VERTEX
  8
0
 10
258.631
 20
14.5779
 42
0.0
  0
VERTEX
  8
0
 10
258.622
 20
14.5779
 42
0.0
  0
VERTEX
  8
0
 10
259.631
 20
15.918
 42
0.0
  0
VERTEX
  8
0
 10
261.98
 20
15.918
 42
0.0
  0
VERTEX
  8
0
 10
258.681
 20
11.5405
 42
0.0
  0
SEQEND
  0
POLYLINE
  8
0
 66
     1
 10
0.0
 20
0.0
 30
0.0
 70
     1
  0
VERTEX
  8
0
 10
344.939
 20
11.5405
 42
0.0
  0
VERTEX
  8
0
 10
343.939
 20
10.2003
 42
0.0
  0
VERTEX
  8
0
 10
341.589
 20
10.2003
 42
0.0
  0
VERTEX
  8
0
 10
344.881
 20
14.5779
 42
0.0
  0
VERTEX
  8
0
 10
344.872
 20
14.5779
 42
0.0
  0
VERTEX
  8
0
 10
345.881
 20
15.918
 42
0.0
  0
VERTEX
  8
0
 10
348.23
 20
15.918
 42
0.0
  0
VERTEX
  8
0
 10
344.931
 20
11.5405
 42
0.0
  0
SEQEND
  0
POLYLINE
  8
0
 66
     1
 10
0.0
 20
0.0
 30
0.0
 70
     1
  0
VERTEX
  8
0
 10
3.9389801
 20
11.5405
 42
0.0
  0
VERTEX
  8
0
 10
2.93901
 20
10.2003
 42
0.0
  0
VERTEX
  8
0
 10
0.58917
 20
10.2003
 42
0.0
  0
VERTEX
  8
0
 10
3.880661
 20
14.5779
 42
0.0
  0
VERTEX
  8
0
 10
3.872314
 20
14.5779
 42
0.0
  0
VERTEX
  8
0
 10
4.880539
 20
15.918
 42
0.0
  0
VERTEX
  8
0
 10
7.23044
 20
15.918
 42
0.0
  0
VERTEX
  8
0
 10
3.9306335
 20
11.5405
 42
0.0
  0
SEQEND
  0
POLYLINE
  8
0
 66
     1
 10
0.0
 20
0.0
 30
0.0
 70
     1
  0
VERTEX
  8
0
 10
50.7727
 20
13.5095
 42
0.0
  0
VERTEX
  8
0
 10
51.4643
 20
14.418
 42
0.0
  0
VERTEX
  8
0
 10
53.9225
 20
14.418
 42
0.0
  0
VERTEX
  8
0
 10
51.1393
 20
11.3174
 42
0.0
  0
VERTEX
  8
0
 10
51.1393
 20
8.7003
 42
0.0
  0
VERTEX
  8
0
 10
48.8645
 20
8.7003
 42
0.0
  0
VERTEX
  8
0
 10
48.8645
 20
10.9591
 42
0.0
  0
VERTEX
  8
0
 10
50.7811
 20
13.5095
 42
0.0
  0
SEQEND
  0
POLYLINE
  8
0
 66
     1
 10
0.0
 20
0.0
 30
0.0
 70
     1
  0
VERTEX
  8
0
 10
-33.9608
 20
7.57788
 42
0.0
  0
VERTEX
  8
0
 10
-33.9608
 20
8.91805
 42
0.0
  0
VERTEX
  8
0
 10
-30.7194
 20
8.91805
 42
0.0
  0
VERTEX
  8
0
 10
-31.7193
 20
7.57788
 42
0.0
  0
SEQEND
  0
POLYLINE
  8
0
 66
     1
 10
0.0
 20
0.0
 30
0.0
 70
     1
  0
VERTEX
  8
0
 10
342.039
 20
14.5779
 42
0.0
  0
VERTEX
  8
0
 10
342.039
 20
15.918
 42
0.0
  0
VERTEX
  8
0
 10
345.281
 20
15.918
 42
0.0
  0
VERTEX
  8
0
 10
344.281
 20
14.5779
 42
0.0
  0
SEQEND
  0
POLYLINE
  8
0
 66
     1
 10
0.0
 20
0.0
 30
0.0
 70
     1
  0
VERTEX
  8
0
 10
-27.9029
 20
4.54047
 42
0.0
  0
VERTEX
  8
0
 10
-27.9029
 20
3.2003
 42
0.0
  0
VERTEX
  8
0
 10
-31.4693
 20
3.2003
 42
0.0
  0
VERTEX
  8
0
 10
-30.4611
 20
4.54047
 42
0.0
  0
SEQEND
  0
POLYLINE
  8
0
 66
     1
 10
0.0
 20
0.0
 30
0.0
 70
     1
  0
VERTEX
  8
0
 10
-31.061
 20
4.54047
 42
0.0
  0
VERTEX
  8
0
 10
-32.061
 20
3.2003
 42
0.0
  0
VERTEX
  8
0
 10
-34.4108
 20
3.2003
 42
0.0
  0
VERTEX
  8
0
 10
-31.1193
 20
7.57788
 42
0.0
  0
VERTEX
  8
0
 10
-31.1277
 20
7.57788
 42
0.0
  0
VERTEX
  8
0
 10
-30.1195
 20
8.91805
 42
0.0
  0
VERTEX
  8
0
 10
-27.7696
 20
8.91805
 42
0.0
  0
VERTEX
  8
0
 10
-31.0694
 20
4.54047
 42
0.0
  0
SEQEND
  0
POLYLINE
  8
0
 66
     1
 10
0.0
 20
0.0
 30
0.0
 70
     1
  0
VERTEX
  8
0
 10
1.03918
 20
14.5779
 42
0.0
  0
VERTEX
  8
0
 10
1.03918
 20
15.918
 42
0.0
  0
VERTEX
  8
0
 10
4.280609
 20
15.918
 42
0.0
  0
VERTEX
  8
0
 10
3.280655
 20
14.5779
 42
0.0
  0
SEQEND
  0
POLYLINE
  8
0
 66
     1
 10
0.0
 20
0.0
 30
0.0
 70
     1
  0
VERTEX
  8
0
 10
-37.8854
 20
4.09619
 42
0.0
  0
VERTEX
  8
0
 10
-36.7105
 20
5.655
 42
0.0
  0
VERTEX
  8
0
 10
-34.8606
 20
3.20424
 42
0.0
  0
VERTEX
  8
0
 10
-37.2021
 20
3.20424
 42
0.0
  0
SEQEND
  0
POLYLINE
  8
0
 66
     1
 10
0.0
 20
0.0
 30
0.0
 70
     1
  0
VERTEX
  8
0
 10
-34.8606
 20
8.91429
 42
0.0
  0
VERTEX
  8
0
 10
-39.1603
 20
3.20424
 42
0.0
  0
VERTEX
  8
0
 10
-41.5018
 20
3.20424
 42
0.0
  0
VERTEX
  8
0
 10
-37.1938
 20
8.91429
 42
0.0
  0
SEQEND
  0
POLYLINE
  8
0
 66
     1
 10
0.0
 20
0.0
 30
0.0
 70
     1
  0
VERTEX
  8
0
 10
348.097
 20
11.5405
 42
0.0
  0
VERTEX
  8
0
 10
348.097
 20
10.2003
 42
0.0
  0
VERTEX
  8
0
 10
344.531
 20
10.2003
 42
0.0
  0
VERTEX
  8
0
 10
345.539
 20
11.5405
 42
0.0
  0
SEQEND
  0
POLYLINE
  8
0
 66
     1
 10
0.0
 20
0.0
 30
0.0
 70
     1
  0
VERTEX
  8
0
 10
441.681
 20
6.01825
 42
0.0001265990401
  0
VERTEX
  8
0
 10
439.081
 20
8.91805
 42
0.0
  0
VERTEX
  8
0
 10
441.531
 20
8.91805
 42
0.0
  0
VERTEX
  8
0
 10
442.706
 20
7.37653
 42
0.0
  0
SEQEND
  0
POLYLINE
  8
0
 66
     1
 10
0.0
 20
0.0
 30
0.0
 70
     1
  0
VERTEX
  8
0
 10
450.39
 20
8.09772
 42
0.0
  0
VERTEX
  8
0
 10
450.278
 20
8.20654
 42
0.0
  0
VERTEX
  8
0
 10
450.287
 20
9.97311
 42
-0.3435743283966
  0
VERTEX
  8
0
 10
452.741
 20
7.83987
 42
-0.1416852564567
  0
VERTEX
  8
0
 10
452.609
 20
3.84607
 42
-0.3146986018041
  0
VERTEX
  8
0
 10
450.27
 20
2.18178
 42
0.0
  0
VERTEX
  8
0
 10
450.27
 20
3.94002
 42
0.1276089454478
  0
VERTEX
  8
0
 10
450.562
 20
5.34
 42
0.1004594306688
  0
VERTEX
  8
0
 10
450.469
 20
7.93797
 42
0.0910564373736
  0
SEQEND
  0
POLYLINE
  8
0
 66
     1
 10
0.0
 20
0.0
 30
0.0
 70
     1
  0
VERTEX
  8
0
 10
403.681
 20
11.5182
 42
0.0001541142746
  0
VERTEX
  8
0
 10
401.081
 20
14.418
 42
0.0
  0
VERTEX
  8
0
 10
403.531
 20
14.418
 42
0.0
  0
VERTEX
  8
0
 10
404.706
 20
12.8765
 42
0.0
  0
SEQEND
  0
POLYLINE
  8
0
 66
     1
 10
0.0
 20
0.0
 30
0.0
 70
     1
  0
VERTEX
  8
0
 10
314.931
 20
11.5182
 42
0.0001541142746
  0
VERTEX
  8
0
 10
312.331
 20
14.418
 42
0.0
  0
VERTEX
  8
0
 10
314.781
 20
14.418
 42
0.0
  0
VERTEX
  8
0
 10
315.956
 20
12.8765
 42
0.0
  0
SEQEND
  0
POLYLINE
  8
0
 66
     1
 10
0.0
 20
0.0
 30
0.0
 70
     1
  0
VERTEX
  8
0
 10
137.431
 20
11.5182
 42
0.0001541142746
  0
VERTEX
  8
0
 10
134.831
 20
14.418
 42
0.0
  0
VERTEX
  8
0
 10
137.281
 20
14.418
 42
0.0
  0
VERTEX
  8
0
 10
138.456
 20
12.8765
 42
0.0
  0
SEQEND
  0
POLYLINE
  8
0
 66
     1
 10
0.0
 20
0.0
 30
0.0
 70
     1
  0
VERTEX
  8
0
 10
48.6812
 20
11.5182
 42
0.0001360390296
  0
VERTEX
  8
0
 10
46.0813
 20
14.418
 42
0.0
  0
VERTEX
  8
0
 10
48.5312
 20
14.418
 42
0.0
  0
VERTEX
  8
0
 10
49.7061
 20
12.8765
 42
0.0
  0
SEQEND
  0
POLYLINE
  8
0
 66
     1
 10
0.0
 20
0.0
 30
0.0
 70
     1
  0
VERTEX
  8
0
 10
449.695
 20
4.06595
 42
0.0
  0
VERTEX
  8
0
 10
449.762
 20
3.99005
 42
0.0
  0
VERTEX
  8
0
 10
449.762
 20
2.18178
 42
-0.3379705687471
  0
VERTEX
  8
0
 10
447.291
 20
4.32335
 42
-0.1481189494427
  0
VERTEX
  8
0
 10
447.428
 20
8.27965
 42
-0.3019252449357
  0
VERTEX
  8
0
 10
449.77
 20
9.97311
 42
0.0
  0
VERTEX
  8
0
 10
449.77
 20
8.16484
 42
0.0753888423869
  0
VERTEX
  8
0
 10
449.463
 20
5.81216
 42
0.1439309764933
  0
VERTEX
  8
0
 10
449.639
 20
4.16037
 42
0.0489121746145
  0
SEQEND
  0
POLYLINE
  8
0
 66
     1
 10
0.0
 20
0.0
 30
0.0
 70
     1
  0
VERTEX
  8
0
 10
-44.6102
 20
8.09772
 42
0.0
  0
VERTEX
  8
0
 10
-44.7217
 20
8.20654
 42
0.0
  0
VERTEX
  8
0
 10
-44.7134
 20
9.97311
 42
-0.3443243135095
  0
VERTEX
  8
0
 10
-42.2594
 20
7.83987
 42
-0.1410664172271
  0
VERTEX
  8
0
 10
-42.3908
 20
3.84607
 42
-0.3147086948444
  0
VERTEX
  8
0
 10
-44.7301
 20
2.18178
 42
0.0
  0
VERTEX
  8
0
 10
-44.7301
 20
3.94002
 42
0.1272848694931
  0
VERTEX
  8
0
 10
-44.4384
 20
5.34
 42
0.1000448976234
  0
VERTEX
  8
0
 10
-44.531
 20
7.93797
 42
0.0903032315367
  0
SEQEND
  0
POLYLINE
  8
0
 66
     1
 10
0.0
 20
0.0
 30
0.0
 70
     1
  0
VERTEX
  8
0
 10
226.181
 20
11.5182
 42
0.0001541142746
  0
VERTEX
  8
0
 10
223.581
 20
14.418
 42
0.0
  0
VERTEX
  8
0
 10
226.031
 20
14.418
 42
0.0
  0
VERTEX
  8
0
 10
227.206
 20
12.8765
 42
0.0
  0
SEQEND
  0
POLYLINE
  8
0
 66
     1
 10
0.0
 20
0.0
 30
0.0
 70
     1
  0
VERTEX
  8
0
 10
-45.305
 20
4.06595
 42
0.0
  0
VERTEX
  8
0
 10
-45.2384
 20
3.99005
 42
0.0
  0
VERTEX
  8
0
 10
-45.2384
 20
2.18178
 42
-0.3379252314859
  0
VERTEX
  8
0
 10
-47.709
 20
4.32335
 42
-0.1915781040737
  0
VERTEX
  8
0
 10
-47.3979
 20
8.67548
 42
-0.2548991433004
  0
VERTEX
  8
0
 10
-45.23
 20
9.97311
 42
0.0
  0
VERTEX
  8
0
 10
-45.23
 20
8.16484
 42
0.0752730612007
  0
VERTEX
  8
0
 10
-45.5374
 20
5.81216
 42
0.1457583711974
  0
VERTEX
  8
0
 10
-45.3605
 20
4.16037
 42
0.0491687347634
  0
SEQEND
  0
POLYLINE
  8
0
 66
     1
 10
0.0
 20
0.0
 30
0.0
 70
     1
  0
VERTEX
  8
0
 10
-1.54497
 20
1.52609
 42
0.0
  0
VERTEX
  8
0
 10
-1.54497
 20
7.62471
 42
-0.9605206815638
  0
VERTEX
  8
0
 10
1.54999
 20
7.5
 42
0.0
  0
VERTEX
  8
0
 10
1.54999
 20
1.52107
 42
0.0
  0
VERTEX
  8
0
 10
3.07106
 20
0.0
 42
0.0
  0
VERTEX
  8
0
 10
83.1789
 20
0.0
 42
0.0
  0
VERTEX
  8
0
 10
84.705
 20
1.52609
 42
0.0
  0
VERTEX
  8
0
 10
84.705
 20
7.62471
 42
-0.9604053228285
  0
VERTEX
  8
0
 10
87.8
 20
7.5
 42
0.0
  0
VERTEX
  8
0
 10
87.8
 20
1.52107
 42
0.0
  0
VERTEX
  8
0
 10
89.3211
 20
0.0
 42
0.0
  0
VERTEX
  8
0
 10
94.4289
 20
0.0
 42
0.0
  0
VERTEX
  8
0
 10
95.955
 20
1.52609
 42
0.0
  0
VERTEX
  8
0
 10
95.955
 20
7.62471
 42
-0.9604053228284
  0
VERTEX
  8
0
 10
99.05
 20
7.5
 42
0.0
  0
VERTEX
  8
0
 10
99.05
 20
1.52107
 42
0.0
  0
VERTEX
  8
0
 10
100.571
 20
0.0
 42
0.0
  0
VERTEX
  8
0
 10
169.429
 20
0.0
 42
0.0
  0
VERTEX
  8
0
 10
170.955
 20
1.52609
 42
0.0
  0
VERTEX
  8
0
 10
170.955
 20
7.62471
 42
-0.9607882347761
  0
VERTEX
  8
0
 10
174.05
 20
7.5
 42
0.0
  0
VERTEX
  8
0
 10
174.05
 20
1.52107
 42
0.0
  0
VERTEX
  8
0
 10
175.571
 20
0.0
 42
0.0
  0
VERTEX
  8
0
 10
191.929
 20
0.0
 42
0.0
  0
VERTEX
  8
0
 10
193.455
 20
1.52609
 42
0.0
  0
VERTEX
  8
0
 10
193.455
 20
7.62471
 42
-0.9607882347766
  0
VERTEX
  8
0
 10
196.55
 20
7.5
 42
0.0
  0
VERTEX
  8
0
 10
196.55
 20
1.52107
 42
0.0
  0
VERTEX
  8
0
 10
198.071
 20
0.0
 42
0.0
  0
VERTEX
  8
0
 10
255.679
 20
0.0
 42
0.0
  0
VERTEX
  8
0
 10
257.205
 20
1.52609
 42
0.0
  0
VERTEX
  8
0
 10
257.205
 20
7.62471
 42
-0.9607882347758
  0
VERTEX
  8
0
 10
260.3
 20
7.5
 42
0.0
  0
VERTEX
  8
0
 10
260.3
 20
1.52107
 42
0.0
  0
VERTEX
  8
0
 10
261.821
 20
0.0
 42
0.0
  0
VERTEX
  8
0
 10
289.429
 20
0.0
 42
0.0
  0
VERTEX
  8
0
 10
290.955
 20
1.52609
 42
0.0
  0
VERTEX
  8
0
 10
290.955
 20
7.62471
 42
-0.9607882347759
  0
VERTEX
  8
0
 10
294.05
 20
7.5
 42
0.0
  0
VERTEX
  8
0
 10
294.05
 20
1.52107
 42
0.0
  0
VERTEX
  8
0
 10
295.571
 20
0.0
 42
0.0
  0
VERTEX
  8
0
 10
341.929
 20
0.0
 42
0.0
  0
VERTEX
  8
0
 10
343.455
 20
1.52609
 42
0.0
  0
VERTEX
  8
0
 10
343.455
 20
7.62471
 42
-0.9607882347759
  0
VERTEX
  8
0
 10
346.55
 20
7.5
 42
0.0
  0
VERTEX
  8
0
 10
346.55
 20
1.52107
 42
0.0
  0
VERTEX
  8
0
 10
348.071
 20
0.0
 42
0.0
  0
VERTEX
  8
0
 10
386.929
 20
0.0
 42
0.0
  0
VERTEX
  8
0
 10
388.455
 20
1.52609
 42
0.0
  0
VERTEX
  8
0
 10
388.455
 20
7.62471
 42
-0.9607882347766
  0
VERTEX
  8
0
 10
391.55
 20
7.5
 42
0.0
  0
VERTEX
  8
0
 10
391.55
 20
1.52107
 42
0.0
  0
VERTEX
  8
0
 10
393.071
 20
0.0
 42
0.0
  0
VERTEX
  8
0
 10
450.0
 20
0.0
 42
0.4146727508956
  0
VERTEX
  8
0
 10
455.0
 20
5.0
 42
0.0
  0
VERTEX
  8
0
 10
455.0
 20
20.0
 42
0.4142466315382
  0
VERTEX
  8
0
 10
450.0
 20
25.0
 42
0.0
  0
VERTEX
  8
0
 10
408.5
 20
25.0
 42
0.0
  0
VERTEX
  8
0
 10
406.55
 20
23.05
 42
0.0
  0
VERTEX
  8
0
 10
406.55
 20
17.5
 42
-0.9605426900965
  0
VERTEX
  8
0
 10
403.455
 20
17.3753
 42
0.0
  0
VERTEX
  8
0
 10
403.455
 20
23.045
 42
0.0
  0
VERTEX
  8
0
 10
401.5
 20
25.0
 42
0.0
  0
VERTEX
  8
0
 10
319.75
 20
25.0
 42
0.0
  0
VERTEX
  8
0
 10
317.8
 20
23.05
 42
0.0
  0
VERTEX
  8
0
 10
317.8
 20
17.5
 42
-0.960542690096
  0
VERTEX
  8
0
 10
314.705
 20
17.3753
 42
0.0
  0
VERTEX
  8
0
 10
314.705
 20
23.045
 42
0.0
  0
VERTEX
  8
0
 10
312.75
 20
25.0
 42
0.0
  0
VERTEX
  8
0
 10
231.0
 20
25.0
 42
0.0
  0
VERTEX
  8
0
 10
229.05
 20
23.05
 42
0.0
  0
VERTEX
  8
0
 10
229.05
 20
17.5
 42
-0.9605426900958
  0
VERTEX
  8
0
 10
225.955
 20
17.3753
 42
0.0
  0
VERTEX
  8
0
 10
225.955
 20
23.045
 42
0.0
  0
VERTEX
  8
0
 10
224.0
 20
25.0
 42
0.0
  0
VERTEX
  8
0
 10
142.25
 20
25.0
 42
0.0
  0
VERTEX
  8
0
 10
140.3
 20
23.05
 42
0.0
  0
VERTEX
  8
0
 10
140.3
 20
17.5
 42
-0.9605426900958
  0
VERTEX
  8
0
 10
137.205
 20
17.3753
 42
0.0
  0
VERTEX
  8
0
 10
137.205
 20
23.045
 42
0.0
  0
VERTEX
  8
0
 10
135.25
 20
25.0
 42
0.0
  0
VERTEX
  8
0
 10
53.5
 20
25.0
 42
0.0
  0
VERTEX
  8
0
 10
51.55
 20
23.05
 42
0.0
  0
VERTEX
  8
0
 10
51.55
 20
17.5
 42
-0.9605426900961
  0
VERTEX
  8
0
 10
48.455
 20
17.3753
 42
0.0
  0
VERTEX
  8
0
 10
48.455
 20
23.045
 42
0.0
  0
VERTEX
  8
0
 10
46.5
 20
25.0
 42
0.0
  0
VERTEX
  8
0
 10
-45.0
 20
25.0
 42
0.4141971817253
  0
VERTEX
  8
0
 10
-50.0
 20
20.0
 42
0.0
  0
VERTEX
  8
0
 10
-50.0
 20
5.0
 42
0.414209533993
  0
VERTEX
  8
0
 10
-45.0
 20
0.0
 42
0.0
  0
VERTEX
  8
0
 10
-3.07106
 20
0.0
 42
0.0
  0
SEQEND
  0
POLYLINE
  8
0
 66
     1
 10
0.0
 20
0.0
 30
0.0
 70
     1
  0
VERTEX
  8
0
 10
-2.885406
 20
11.0962
 42
0.0
  0
VERTEX
  8
0
 10
-1.71048
 20
12.655
 42
0.0
  0
VERTEX
  8
0
 10
0.13937
 20
10.2042
 42
0.0
  0
VERTEX
  8
0
 10
-2.202118
 20
10.2042
 42
0.0
  0
SEQEND
  0
POLYLINE
  8
0
 66
     1
 10
0.0
 20
0.0
 30
0.0
 70
     1
  0
VERTEX
  8
0
 10
0.13937
 20
15.9143
 42
0.0
  0
VERTEX
  8
0
 10
-4.16032
 20
10.2042
 42
0.0
  0
VERTEX
  8
0
 10
-6.50183
 20
10.2042
 42
0.0
  0
VERTEX
  8
0
 10
-2.193787
 20
15.9143
 42
0.0
  0
SEQEND
  0
POLYLINE
  8
0
 66
     1
 10
0.0
 20
0.0
 30
0.0
 70
     1
  0
VERTEX
  8
0
 10
-3.493729
 20
15.014
 42
0.0
  0
VERTEX
  8
0
 10
-4.65196
 20
13.4552
 42
0.0
  0
VERTEX
  8
0
 10
-6.50183
 20
15.9143
 42
0.0
  0
VERTEX
  8
0
 10
-4.16867
 20
15.9143
 42
0.0
  0
SEQEND
  0
ENDSEC
  0
EOF
