  0
SECTION
  2
BLOCKS
  0
ENDSEC
  0
SECTION
  2
ENTITIES
  0
LINE
  8
0
 10
298.9
 20
59
 11
0
 21
59
  0
LINE
  8
0
 10
0
 20
59
 11
0
 21
0
  0
LINE
  8
0
 10
0
 20
0
 11
298.9
 21
0
  0
LINE
  8
0
 10
298.9
 20
0
 11
298.9
 21
59
  0
LINE
  8
0
 10
294.091
 20
42.3283
 11
293.851
 21
42.3911
  0
LINE
  8
0
 10
293.851
 20
42.3911
 11
293.623
 21
42.4881
  0
LINE
  8
0
 10
293.623
 20
42.4881
 11
293.411
 21
42.6174
  0
LINE
  8
0
 10
293.411
 20
42.6174
 11
293.22
 21
42.7762
  0
LINE
  8
0
 10
293.22
 20
42.7762
 11
293.054
 21
42.961
  0
LINE
  8
0
 10
293.054
 20
42.961
 11
292.918
 21
43.168
  0
LINE
  8
0
 10
292.918
 20
43.168
 11
292.812
 21
43.3927
  0
LINE
  8
0
 10
292.812
 20
43.3927
 11
292.741
 21
43.6304
  0
LINE
  8
0
 10
292.741
 20
43.6304
 11
292.705
 21
43.8759
  0
LINE
  8
0
 10
292.705
 20
43.8759
 11
292.705
 21
44.1241
  0
LINE
  8
0
 10
292.705
 20
44.1241
 11
292.741
 21
44.3696
  0
LINE
  8
0
 10
292.741
 20
44.3696
 11
292.812
 21
44.6073
  0
LINE
  8
0
 10
292.812
 20
44.6073
 11
292.918
 21
44.832
  0
LINE
  8
0
 10
292.918
 20
44.832
 11
293.054
 21
45.039
  0
LINE
  8
0
 10
293.054
 20
45.039
 11
293.22
 21
45.2238
  0
LINE
  8
0
 10
293.22
 20
45.2238
 11
293.411
 21
45.3826
  0
LINE
  8
0
 10
293.411
 20
45.3826
 11
293.623
 21
45.5119
  0
LINE
  8
0
 10
293.623
 20
45.5119
 11
293.851
 21
45.6089
  0
LINE
  8
0
 10
293.851
 20
45.6089
 11
294.091
 21
45.6717
  0
LINE
  8
0
 10
294.091
 20
45.6717
 11
294.338
 21
45.6989
  0
LINE
  8
0
 10
294.338
 20
45.6989
 11
294.586
 21
45.6898
  0
LINE
  8
0
 10
294.586
 20
45.6898
 11
294.83
 21
45.6447
  0
LINE
  8
0
 10
294.83
 20
45.6447
 11
295.065
 21
45.5646
  0
LINE
  8
0
 10
295.065
 20
45.5646
 11
295.286
 21
45.4511
  0
LINE
  8
0
 10
295.286
 20
45.4511
 11
295.487
 21
45.3067
  0
LINE
  8
0
 10
295.487
 20
45.3067
 11
295.666
 21
45.1344
  0
LINE
  8
0
 10
295.666
 20
45.1344
 11
295.818
 21
44.938
  0
LINE
  8
0
 10
295.818
 20
44.938
 11
295.939
 21
44.7216
  0
LINE
  8
0
 10
295.939
 20
44.7216
 11
296.028
 21
44.4898
  0
LINE
  8
0
 10
296.028
 20
44.4898
 11
296.082
 21
44.2475
  0
LINE
  8
0
 10
296.082
 20
44.2475
 11
296.1
 21
44
  0
LINE
  8
0
 10
296.1
 20
44
 11
296.082
 21
43.7525
  0
LINE
  8
0
 10
296.082
 20
43.7525
 11
296.028
 21
43.5102
  0
LINE
  8
0
 10
296.028
 20
43.5102
 11
295.939
 21
43.2784
  0
LINE
  8
0
 10
295.939
 20
43.2784
 11
295.818
 21
43.062
  0
LINE
  8
0
 10
295.818
 20
43.062
 11
295.666
 21
42.8656
  0
LINE
  8
0
 10
295.666
 20
42.8656
 11
295.487
 21
42.6933
  0
LINE
  8
0
 10
295.487
 20
42.6933
 11
295.286
 21
42.5489
  0
LINE
  8
0
 10
295.286
 20
42.5489
 11
295.065
 21
42.4354
  0
LINE
  8
0
 10
295.065
 20
42.4354
 11
294.83
 21
42.3553
  0
LINE
  8
0
 10
294.83
 20
42.3553
 11
294.586
 21
42.3102
  0
LINE
  8
0
 10
294.586
 20
42.3102
 11
294.338
 21
42.3011
  0
LINE
  8
0
 10
294.338
 20
42.3011
 11
294.091
 21
42.3283
  0
LINE
  8
0
 10
4.31406
 20
42.3102
 11
4.07001
 21
42.3553
  0
LINE
  8
0
 10
4.07001
 20
42.3553
 11
3.83511
 21
42.4354
  0
LINE
  8
0
 10
3.83511
 20
42.4354
 11
3.6144
 21
42.5489
  0
LINE
  8
0
 10
3.6144
 20
42.5489
 11
3.41255
 21
42.6933
  0
LINE
  8
0
 10
3.41255
 20
42.6933
 11
3.23389
 21
42.8656
  0
LINE
  8
0
 10
3.23389
 20
42.8656
 11
3.0822
 21
43.062
  0
LINE
  8
0
 10
3.0822
 20
43.062
 11
2.96072
 21
43.2784
  0
LINE
  8
0
 10
2.96072
 20
43.2784
 11
2.87207
 21
43.5102
  0
LINE
  8
0
 10
2.87207
 20
43.5102
 11
2.81812
 21
43.7525
  0
LINE
  8
0
 10
2.81812
 20
43.7525
 11
2.79999
 21
44
  0
LINE
  8
0
 10
2.79999
 20
44
 11
2.81812
 21
44.2475
  0
LINE
  8
0
 10
2.81812
 20
44.2475
 11
2.87207
 21
44.4898
  0
LINE
  8
0
 10
2.87207
 20
44.4898
 11
2.96072
 21
44.7216
  0
LINE
  8
0
 10
2.96072
 20
44.7216
 11
3.0822
 21
44.938
  0
LINE
  8
0
 10
3.0822
 20
44.938
 11
3.23389
 21
45.1344
  0
LINE
  8
0
 10
3.23389
 20
45.1344
 11
3.41255
 21
45.3067
  0
LINE
  8
0
 10
3.41255
 20
45.3067
 11
3.6144
 21
45.4511
  0
LINE
  8
0
 10
3.6144
 20
45.4511
 11
3.83511
 21
45.5646
  0
LINE
  8
0
 10
3.83511
 20
45.5646
 11
4.07001
 21
45.6447
  0
LINE
  8
0
 10
4.07001
 20
45.6447
 11
4.31406
 21
45.6898
  0
LINE
  8
0
 10
4.31406
 20
45.6898
 11
4.56209
 21
45.6989
  0
LINE
  8
0
 10
4.56209
 20
45.6989
 11
4.80878
 21
45.6717
  0
LINE
  8
0
 10
4.80878
 20
45.6717
 11
5.04889
 21
45.6089
  0
LINE
  8
0
 10
5.04889
 20
45.6089
 11
5.2773
 21
45.5119
  0
LINE
  8
0
 10
5.2773
 20
45.5119
 11
5.48915
 21
45.3826
  0
LINE
  8
0
 10
5.48915
 20
45.3826
 11
5.67992
 21
45.2238
  0
LINE
  8
0
 10
5.67992
 20
45.2238
 11
5.84554
 21
45.039
  0
LINE
  8
0
 10
5.84554
 20
45.039
 11
5.98248
 21
44.832
  0
LINE
  8
0
 10
5.98248
 20
44.832
 11
6.08781
 21
44.6073
  0
LINE
  8
0
 10
6.08781
 20
44.6073
 11
6.15932
 21
44.3696
  0
LINE
  8
0
 10
6.15932
 20
44.3696
 11
6.19547
 21
44.1241
  0
LINE
  8
0
 10
6.19547
 20
44.1241
 11
6.19547
 21
43.8759
  0
LINE
  8
0
 10
6.19547
 20
43.8759
 11
6.15932
 21
43.6304
  0
LINE
  8
0
 10
6.15932
 20
43.6304
 11
6.08781
 21
43.3927
  0
LINE
  8
0
 10
6.08781
 20
43.3927
 11
5.98248
 21
43.168
  0
LINE
  8
0
 10
5.98248
 20
43.168
 11
5.84554
 21
42.961
  0
LINE
  8
0
 10
5.84554
 20
42.961
 11
5.67992
 21
42.7762
  0
LINE
  8
0
 10
5.67992
 20
42.7762
 11
5.48915
 21
42.6174
  0
LINE
  8
0
 10
5.48915
 20
42.6174
 11
5.2773
 21
42.4881
  0
LINE
  8
0
 10
5.2773
 20
42.4881
 11
5.04889
 21
42.3911
  0
LINE
  8
0
 10
5.04889
 20
42.3911
 11
4.80878
 21
42.3283
  0
LINE
  8
0
 10
4.80878
 20
42.3283
 11
4.56209
 21
42.3011
  0
LINE
  8
0
 10
4.56209
 20
42.3011
 11
4.31406
 21
42.3102
  0
LINE
  8
0
 10
4.31406
 20
13.3102
 11
4.07001
 21
13.3553
  0
LINE
  8
0
 10
4.07001
 20
13.3553
 11
3.83511
 21
13.4354
  0
LINE
  8
0
 10
3.83511
 20
13.4354
 11
3.6144
 21
13.5489
  0
LINE
  8
0
 10
3.6144
 20
13.5489
 11
3.41255
 21
13.6933
  0
LINE
  8
0
 10
3.41255
 20
13.6933
 11
3.23389
 21
13.8656
  0
LINE
  8
0
 10
3.23389
 20
13.8656
 11
3.0822
 21
14.062
  0
LINE
  8
0
 10
3.0822
 20
14.062
 11
2.96072
 21
14.2784
  0
LINE
  8
0
 10
2.96072
 20
14.2784
 11
2.87207
 21
14.5102
  0
LINE
  8
0
 10
2.87207
 20
14.5102
 11
2.81812
 21
14.7525
  0
LINE
  8
0
 10
2.81812
 20
14.7525
 11
2.79999
 21
15
  0
LINE
  8
0
 10
2.79999
 20
15
 11
2.81812
 21
15.2475
  0
LINE
  8
0
 10
2.81812
 20
15.2475
 11
2.87207
 21
15.4898
  0
LINE
  8
0
 10
2.87207
 20
15.4898
 11
2.96072
 21
15.7216
  0
LINE
  8
0
 10
2.96072
 20
15.7216
 11
3.0822
 21
15.938
  0
LINE
  8
0
 10
3.0822
 20
15.938
 11
3.23389
 21
16.1344
  0
LINE
  8
0
 10
3.23389
 20
16.1344
 11
3.41255
 21
16.3067
  0
LINE
  8
0
 10
3.41255
 20
16.3067
 11
3.6144
 21
16.4511
  0
LINE
  8
0
 10
3.6144
 20
16.4511
 11
3.83511
 21
16.5646
  0
LINE
  8
0
 10
3.83511
 20
16.5646
 11
4.07001
 21
16.6447
  0
LINE
  8
0
 10
4.07001
 20
16.6447
 11
4.31406
 21
16.6898
  0
LINE
  8
0
 10
4.31406
 20
16.6898
 11
4.56209
 21
16.6989
  0
LINE
  8
0
 10
4.56209
 20
16.6989
 11
4.80878
 21
16.6717
  0
LINE
  8
0
 10
4.80878
 20
16.6717
 11
5.04889
 21
16.6089
  0
LINE
  8
0
 10
5.04889
 20
16.6089
 11
5.2773
 21
16.5119
  0
LINE
  8
0
 10
5.2773
 20
16.5119
 11
5.48915
 21
16.3826
  0
LINE
  8
0
 10
5.48915
 20
16.3826
 11
5.67992
 21
16.2238
  0
LINE
  8
0
 10
5.67992
 20
16.2238
 11
5.84554
 21
16.039
  0
LINE
  8
0
 10
5.84554
 20
16.039
 11
5.98248
 21
15.832
  0
LINE
  8
0
 10
5.98248
 20
15.832
 11
6.08781
 21
15.6073
  0
LINE
  8
0
 10
6.08781
 20
15.6073
 11
6.15932
 21
15.3696
  0
LINE
  8
0
 10
6.15932
 20
15.3696
 11
6.19547
 21
15.1241
  0
LINE
  8
0
 10
6.19547
 20
15.1241
 11
6.19547
 21
14.8759
  0
LINE
  8
0
 10
6.19547
 20
14.8759
 11
6.15932
 21
14.6304
  0
LINE
  8
0
 10
6.15932
 20
14.6304
 11
6.08781
 21
14.3927
  0
LINE
  8
0
 10
6.08781
 20
14.3927
 11
5.98248
 21
14.168
  0
LINE
  8
0
 10
5.98248
 20
14.168
 11
5.84554
 21
13.961
  0
LINE
  8
0
 10
5.84554
 20
13.961
 11
5.67992
 21
13.7762
  0
LINE
  8
0
 10
5.67992
 20
13.7762
 11
5.48915
 21
13.6174
  0
LINE
  8
0
 10
5.48915
 20
13.6174
 11
5.2773
 21
13.4881
  0
LINE
  8
0
 10
5.2773
 20
13.4881
 11
5.04889
 21
13.3911
  0
LINE
  8
0
 10
5.04889
 20
13.3911
 11
4.80878
 21
13.3283
  0
LINE
  8
0
 10
4.80878
 20
13.3283
 11
4.56209
 21
13.3011
  0
LINE
  8
0
 10
4.56209
 20
13.3011
 11
4.31406
 21
13.3102
  0
LINE
  8
0
 10
294.091
 20
13.3283
 11
293.851
 21
13.3911
  0
LINE
  8
0
 10
293.851
 20
13.3911
 11
293.623
 21
13.4881
  0
LINE
  8
0
 10
293.623
 20
13.4881
 11
293.411
 21
13.6174
  0
LINE
  8
0
 10
293.411
 20
13.6174
 11
293.22
 21
13.7762
  0
LINE
  8
0
 10
293.22
 20
13.7762
 11
293.054
 21
13.961
  0
LINE
  8
0
 10
293.054
 20
13.961
 11
292.918
 21
14.168
  0
LINE
  8
0
 10
292.918
 20
14.168
 11
292.812
 21
14.3927
  0
LINE
  8
0
 10
292.812
 20
14.3927
 11
292.741
 21
14.6304
  0
LINE
  8
0
 10
292.741
 20
14.6304
 11
292.705
 21
14.8759
  0
LINE
  8
0
 10
292.705
 20
14.8759
 11
292.705
 21
15.1241
  0
LINE
  8
0
 10
292.705
 20
15.1241
 11
292.741
 21
15.3696
  0
LINE
  8
0
 10
292.741
 20
15.3696
 11
292.812
 21
15.6073
  0
LINE
  8
0
 10
292.812
 20
15.6073
 11
292.918
 21
15.832
  0
LINE
  8
0
 10
292.918
 20
15.832
 11
293.054
 21
16.039
  0
LINE
  8
0
 10
293.054
 20
16.039
 11
293.22
 21
16.2238
  0
LINE
  8
0
 10
293.22
 20
16.2238
 11
293.411
 21
16.3826
  0
LINE
  8
0
 10
293.411
 20
16.3826
 11
293.623
 21
16.5119
  0
LINE
  8
0
 10
293.623
 20
16.5119
 11
293.851
 21
16.6089
  0
LINE
  8
0
 10
293.851
 20
16.6089
 11
294.091
 21
16.6717
  0
LINE
  8
0
 10
294.091
 20
16.6717
 11
294.338
 21
16.6989
  0
LINE
  8
0
 10
294.338
 20
16.6989
 11
294.586
 21
16.6898
  0
LINE
  8
0
 10
294.586
 20
16.6898
 11
294.83
 21
16.6447
  0
LINE
  8
0
 10
294.83
 20
16.6447
 11
295.065
 21
16.5646
  0
LINE
  8
0
 10
295.065
 20
16.5646
 11
295.286
 21
16.4511
  0
LINE
  8
0
 10
295.286
 20
16.4511
 11
295.487
 21
16.3067
  0
LINE
  8
0
 10
295.487
 20
16.3067
 11
295.666
 21
16.1344
  0
LINE
  8
0
 10
295.666
 20
16.1344
 11
295.818
 21
15.938
  0
LINE
  8
0
 10
295.818
 20
15.938
 11
295.939
 21
15.7216
  0
LINE
  8
0
 10
295.939
 20
15.7216
 11
296.028
 21
15.4898
  0
LINE
  8
0
 10
296.028
 20
15.4898
 11
296.082
 21
15.2475
  0
LINE
  8
0
 10
296.082
 20
15.2475
 11
296.1
 21
15
  0
LINE
  8
0
 10
296.1
 20
15
 11
296.082
 21
14.7525
  0
LINE
  8
0
 10
296.082
 20
14.7525
 11
296.028
 21
14.5102
  0
LINE
  8
0
 10
296.028
 20
14.5102
 11
295.939
 21
14.2784
  0
LINE
  8
0
 10
295.939
 20
14.2784
 11
295.818
 21
14.062
  0
LINE
  8
0
 10
295.818
 20
14.062
 11
295.666
 21
13.8656
  0
LINE
  8
0
 10
295.666
 20
13.8656
 11
295.487
 21
13.6933
  0
LINE
  8
0
 10
295.487
 20
13.6933
 11
295.286
 21
13.5489
  0
LINE
  8
0
 10
295.286
 20
13.5489
 11
295.065
 21
13.4354
  0
LINE
  8
0
 10
295.065
 20
13.4354
 11
294.83
 21
13.3553
  0
LINE
  8
0
 10
294.83
 20
13.3553
 11
294.586
 21
13.3102
  0
LINE
  8
0
 10
294.586
 20
13.3102
 11
294.338
 21
13.3011
  0
LINE
  8
0
 10
294.338
 20
13.3011
 11
294.091
 21
13.3283
  0
ENDSEC
  0
SECTION
  2
OBJECTS
  0
DICTIONARY
  0
ENDSEC
  0
EOF
