0
SECTION
2
HEADER
9
$INSUNITS
70
4
9
$ACADVER
1
AC1014
9
$HANDSEED
5
FFFF
0
ENDSEC
0
SECTION
2
TABLES
0
TABLE
2
VPORT
5
8
100
AcDbSymbolTable
0
ENDTAB
0
TABLE
2
LTYPE
5
5
100
AcDbSymbolTable
0
LTYPE
5
14
100
AcDbSymbolTableRecord
100
AcDbLinetypeTableRecord
2
BYBLOCK
70
0
0
LTYPE
5
15
100
AcDbSymbolTableRecord
100
AcDbLinetypeTableRecord
2
BYLAYER
70
0
0
ENDTAB
0
TABLE
2
LAYER
5
2
100
AcDbSymbolTable
70
2
0
LAYER
5
50
100
AcDbSymbolTableRecord
100
AcDbLayerTableRecord
2
0
70
0
6
CONTINUOUS
0
ENDTAB
0
TABLE
2
STYLE
5
3
100
AcDbSymbolTable
70
1
0
STYLE
5
11
100
AcDbSymbolTableRecord
100
AcDbTextStyleTableRecord
2
STANDARD
70
0
0
ENDTAB
0
TABLE
2
VIEW
5
6
100
AcDbSymbolTable
70
0
0
ENDTAB
0
TABLE
2
UCS
5
7
100
AcDbSymbolTable
70
0
0
ENDTAB
0
TABLE
2
APPID
5
9
100
AcDbSymbolTable
70
2
0
APPID
5
12
100
AcDbSymbolTableRecord
100
AcDbRegAppTableRecord
2
ACAD
70
0
0
ENDTAB
0
TABLE
2
DIMSTYLE
5
A
100
AcDbSymbolTable
70
1
0
ENDTAB
0
TABLE
2
BLOCK_RECORD
5
1
100
AcDbSymbolTable
70
1
0
BLOCK_RECORD
5
1F
100
AcDbSymbolTableRecord
100
AcDbBlockTableRecord
2
*MODEL_SPACE
0
BLOCK_RECORD
5
1B
100
AcDbSymbolTableRecord
100
AcDbBlockTableRecord
2
*PAPER_SPACE
0
ENDTAB
0
ENDSEC
0
SECTION
2
BLOCKS
0
BLOCK
5
20
100
AcDbEntity
100
AcDbBlockBegin
2
*MODEL_SPACE
0
ENDBLK
5
21
100
AcDbEntity
100
AcDbBlockEnd
0
BLOCK
5
1C
100
AcDbEntity
100
AcDbBlockBegin
2
*PAPER_SPACE
0
ENDBLK
5
1D
100
AcDbEntity
100
AcDbBlockEnd
0
ENDSEC
0
SECTION
2
ENTITIES
0
CIRCLE
5
100
100
AcDbEntity
8
0
100
AcDbCircle
10
-388.60520578277465
20
-61.232327283255188
30
0
40
2.0000000000000284
210
0
220
-0
230
1
0
CIRCLE
5
101
100
AcDbEntity
8
0
100
AcDbCircle
10
-83.455205782774655
20
42.767672716744798
30
0
40
1.7500000000000071
210
0
220
-0
230
1
0
CIRCLE
5
102
100
AcDbEntity
8
0
100
AcDbCircle
10
-83.455205782774655
20
129.01767271674481
30
0
40
1.7500000000000071
210
0
220
-0
230
1
0
CIRCLE
5
103
100
AcDbEntity
8
0
100
AcDbCircle
10
-83.455205782774655
20
-43.482327283255202
30
0
40
1.7499999999999893
210
0
220
-0
230
1
0
CIRCLE
5
104
100
AcDbEntity
8
0
100
AcDbCircle
10
-125.95520578277466
20
257.76767271674481
30
0
40
1.7499999999999893
210
0
220
-0
230
1
0
CIRCLE
5
105
100
AcDbEntity
8
0
100
AcDbCircle
10
-169.53420578277468
20
98.517672716744869
30
0
40
1.7500000000000071
210
0
220
-0
230
1
0
CIRCLE
5
106
100
AcDbEntity
8
0
100
AcDbCircle
10
-392.20520578277467
20
257.76767271674481
30
0
40
1.7499999999999716
210
0
220
-0
230
1
0
CIRCLE
5
107
100
AcDbEntity
8
0
100
AcDbCircle
10
-214.70520578277467
20
257.76767271674481
30
0
40
1.7500000000000071
210
0
220
-0
230
1
0
CIRCLE
5
108
100
AcDbEntity
8
0
100
AcDbCircle
10
-161.13420578277467
20
-53.732327283255188
30
0
40
1.7500000000000071
210
0
220
-0
230
1
0
CIRCLE
5
109
100
AcDbEntity
8
0
100
AcDbCircle
10
-143.45520578277467
20
-84.732327283255202
30
0
40
1.7499999999999893
210
0
220
-0
230
1
0
CIRCLE
5
110
100
AcDbEntity
8
0
100
AcDbCircle
10
-338.60520578277465
20
88.767672716744812
30
0
40
2.0000000000000284
210
0
220
-0
230
1
0
CIRCLE
5
111
100
AcDbEntity
8
0
100
AcDbCircle
10
-463.45520578277467
20
-84.732327283255202
30
0
40
1.7499999999999716
210
0
220
-0
230
1
0
CIRCLE
5
112
100
AcDbEntity
8
0
100
AcDbCircle
10
-276.13420578277464
20
-53.732327283255188
30
0
40
1.7500000000000071
210
0
220
-0
230
1
0
CIRCLE
5
113
100
AcDbEntity
8
0
100
AcDbCircle
10
-276.13420578277464
20
38.267672716744848
30
0
40
1.7500000000000071
210
0
220
-0
230
1
0
CIRCLE
5
114
100
AcDbEntity
8
0
100
AcDbCircle
10
-161.13420578277467
20
38.267672716744848
30
0
40
1.7499999999999716
210
0
220
-0
230
1
0
CIRCLE
5
115
100
AcDbEntity
8
0
100
AcDbCircle
10
-143.45520578277467
20
175.26767271674481
30
0
40
1.7500000000000071
210
0
220
-0
230
1
0
CIRCLE
5
116
100
AcDbEntity
8
0
100
AcDbCircle
10
-83.455205782774655
20
-172.23232728325519
30
0
40
3.499999999999996
210
0
220
-0
230
1
0
CIRCLE
5
117
100
AcDbEntity
8
0
100
AcDbCircle
10
-444.35520578277465
20
-0.98232728325520213
30
0
40
2.0000000000000284
210
0
220
-0
230
1
0
CIRCLE
5
118
100
AcDbEntity
8
0
100
AcDbCircle
10
-224.45520578277467
20
-78.732327283255188
30
0
40
12.699999999999996
210
0
220
-0
230
1
0
CIRCLE
5
119
100
AcDbEntity
8
0
100
AcDbCircle
10
-125.95520578277466
20
-172.23232728325519
30
0
40
1.7500000000000071
210
0
220
-0
230
1
0
CIRCLE
5
120
100
AcDbEntity
8
0
100
AcDbCircle
10
-463.45520578277467
20
175.26767271674481
30
0
40
1.7500000000000426
210
0
220
-0
230
1
0
CIRCLE
5
121
100
AcDbEntity
8
0
100
AcDbCircle
10
-161.13420578277467
20
56.267672716744855
30
0
40
1.7500000000000071
210
0
220
-0
230
1
0
CIRCLE
5
122
100
AcDbEntity
8
0
100
AcDbCircle
10
-83.455205782774655
20
257.76767271674481
30
0
40
3.499999999999996
210
0
220
-0
230
1
0
CIRCLE
5
123
100
AcDbEntity
8
0
100
AcDbCircle
10
-523.45520578277467
20
-172.23232728325519
30
0
40
3.5000000000000142
210
0
220
-0
230
1
0
CIRCLE
5
124
100
AcDbEntity
8
0
100
AcDbCircle
10
-303.45520578277467
20
-172.23232728325519
30
0
40
1.7500000000000071
210
0
220
-0
230
1
0
CIRCLE
5
125
100
AcDbEntity
8
0
100
AcDbCircle
10
-523.45520578277467
20
-43.482327283255202
30
0
40
1.7499999999999716
210
0
220
-0
230
1
0
CIRCLE
5
126
100
AcDbEntity
8
0
100
AcDbCircle
10
-480.95520578277467
20
-172.23232728325519
30
0
40
1.7499999999999716
210
0
220
-0
230
1
0
CIRCLE
5
127
100
AcDbEntity
8
0
100
AcDbCircle
10
-276.13420578277464
20
148.26767271674487
30
0
40
1.7500000000000071
210
0
220
-0
230
1
0
CIRCLE
5
128
100
AcDbEntity
8
0
100
AcDbCircle
10
-480.95520578277467
20
257.76767271674481
30
0
40
1.7499999999999716
210
0
220
-0
230
1
0
CIRCLE
5
129
100
AcDbEntity
8
0
100
AcDbCircle
10
-523.45520578277467
20
-129.73232728325519
30
0
40
1.7499999999999716
210
0
220
-0
230
1
0
CIRCLE
5
130
100
AcDbEntity
8
0
100
AcDbCircle
10
-303.45520578277467
20
257.76767271674481
30
0
40
1.7500000000000071
210
0
220
-0
230
1
0
CIRCLE
5
131
100
AcDbEntity
8
0
100
AcDbCircle
10
-523.45520578277467
20
129.01767271674481
30
0
40
1.7499999999999716
210
0
220
-0
230
1
0
CIRCLE
5
132
100
AcDbEntity
8
0
100
AcDbCircle
10
-523.45520578277467
20
215.26767271674481
30
0
40
1.7499999999999716
210
0
220
-0
230
1
0
CIRCLE
5
133
100
AcDbEntity
8
0
100
AcDbCircle
10
-227.53420578277468
20
147.51767271674487
30
0
40
1.7500000000000071
210
0
220
-0
230
1
0
CIRCLE
5
134
100
AcDbEntity
8
0
100
AcDbCircle
10
-392.20520578277467
20
-172.23232728325519
30
0
40
1.7499999999999716
210
0
220
-0
230
1
0
CIRCLE
5
135
100
AcDbEntity
8
0
100
AcDbCircle
10
-276.13420578277464
20
70.267672716744812
30
0
40
1.7500000000000071
210
0
220
-0
230
1
0
CIRCLE
5
136
100
AcDbEntity
8
0
100
AcDbCircle
10
-276.13420578277464
20
56.267672716744848
30
0
40
1.7500000000000071
210
0
220
-0
230
1
0
CIRCLE
5
137
100
AcDbEntity
8
0
100
AcDbCircle
10
-214.70520578277467
20
-172.23232728325519
30
0
40
1.7499999999999716
210
0
220
-0
230
1
0
CIRCLE
5
138
100
AcDbEntity
8
0
100
AcDbCircle
10
-523.45520578277467
20
42.767672716744798
30
0
40
1.7500000000000426
210
0
220
-0
230
1
0
CIRCLE
5
139
100
AcDbEntity
8
0
100
AcDbCircle
10
-83.455205782774655
20
215.26767271674481
30
0
40
1.7500000000000071
210
0
220
-0
230
1
0
CIRCLE
5
140
100
AcDbEntity
8
0
100
AcDbCircle
10
-161.13420578277467
20
148.26767271674487
30
0
40
1.7500000000000071
210
0
220
-0
230
1
0
CIRCLE
5
141
100
AcDbEntity
8
0
100
AcDbCircle
10
-146.13420578277467
20
70.267672716744812
30
0
40
1.7500000000000071
210
0
220
-0
230
1
0
CIRCLE
5
142
100
AcDbEntity
8
0
100
AcDbCircle
10
-227.53420578277468
20
98.517672716744869
30
0
40
1.7500000000000071
210
0
220
-0
230
1
0
CIRCLE
5
143
100
AcDbEntity
8
0
100
AcDbCircle
10
-169.53420578277468
20
147.51767271674487
30
0
40
1.7500000000000071
210
0
220
-0
230
1
0
CIRCLE
5
144
100
AcDbEntity
8
0
100
AcDbCircle
10
-83.455205782774655
20
-129.73232728325519
30
0
40
1.7499999999999893
210
0
220
-0
230
1
0
CIRCLE
5
145
100
AcDbEntity
8
0
100
AcDbCircle
10
-523.45520578277467
20
257.76767271674481
30
0
40
3.5000000000000142
210
0
220
-0
230
1
0
CIRCLE
5
146
100
AcDbEntity
8
0
100
AcDbCircle
10
-146.13420578277467
20
-53.732327283255188
30
0
40
1.7500000000000071
210
0
220
-0
230
1
0
CIRCLE
5
147
100
AcDbEntity
8
0
100
AcDbCircle
10
-388.60520578277465
20
88.767672716744812
30
0
40
1.9999999999999574
210
0
220
-0
230
1
0
CIRCLE
5
148
100
AcDbEntity
8
0
100
AcDbCircle
10
-338.60520578277465
20
-61.232327283255188
30
0
40
1.9999999999999574
210
0
220
-0
230
1
0
CIRCLE
5
149
100
AcDbEntity
8
0
100
AcDbCircle
10
-444.35520578277465
20
-48.482327283255202
30
0
40
2.0000000000000284
210
0
220
-0
230
1
0
LWPOLYLINE
5
150
100
AcDbEntity
8
0
100
AcDbPolyline
90
8
70
1
43
0.0
10
-525.95520578277467
20
-179.73232728325519
42
-0.41421356237310336
10
-530.95520578277467
20
-174.73232728325519
10
-530.95520578277467
20
260.26767271674481
42
-0.41421356237310336
10
-525.95520578277467
20
265.26767271674481
10
-80.955205782774655
20
265.26767271674481
42
-0.41421356237309398
10
-75.955205782774655
20
260.26767271674481
10
-75.955205782774669
20
-174.73232728325519
42
-0.41421356237309398
10
-80.955205782774655
20
-179.73232728325519
0
ENDSEC
0
SECTION
2
OBJECTS
0
DICTIONARY
5
C
100
AcDbDictionary
3
ACAD_GROUP
350
D
3
ACAD_MLINESTYLE
350
17
0
DICTIONARY
5
D
100
AcDbDictionary
0
DICTIONARY
5
1A
330
C
100
AcDbDictionary
0
DICTIONARY
5
17
100
AcDbDictionary
0
ENDSEC
0
EOF
