0
SECTION
2
HEADER
9
$INSUNITS
70
4
9
$ACADVER
1
AC1014
9
$HANDSEED
5
FFFF
0
ENDSEC
0
SECTION
2
TABLES
0
TABLE
2
VPORT
5
8
100
AcDbSymbolTable
0
ENDTAB
0
TABLE
2
LTYPE
5
5
100
AcDbSymbolTable
0
LTYPE
5
14
100
AcDbSymbolTableRecord
100
AcDbLinetypeTableRecord
2
BYBLOCK
70
0
0
LTYPE
5
15
100
AcDbSymbolTableRecord
100
AcDbLinetypeTableRecord
2
BYLAYER
70
0
0
ENDTAB
0
TABLE
2
LAYER
5
2
100
AcDbSymbolTable
70
2
0
LAYER
5
50
100
AcDbSymbolTableRecord
100
AcDbLayerTableRecord
2
0
70
0
6
CONTINUOUS
0
ENDTAB
0
TABLE
2
STYLE
5
3
100
AcDbSymbolTable
70
1
0
STYLE
5
11
100
AcDbSymbolTableRecord
100
AcDbTextStyleTableRecord
2
STANDARD
70
0
0
ENDTAB
0
TABLE
2
VIEW
5
6
100
AcDbSymbolTable
70
0
0
ENDTAB
0
TABLE
2
UCS
5
7
100
AcDbSymbolTable
70
0
0
ENDTAB
0
TABLE
2
APPID
5
9
100
AcDbSymbolTable
70
2
0
APPID
5
12
100
AcDbSymbolTableRecord
100
AcDbRegAppTableRecord
2
ACAD
70
0
0
ENDTAB
0
TABLE
2
DIMSTYLE
5
A
100
AcDbSymbolTable
70
1
0
ENDTAB
0
TABLE
2
BLOCK_RECORD
5
1
100
AcDbSymbolTable
70
1
0
BLOCK_RECORD
5
1F
100
AcDbSymbolTableRecord
100
AcDbBlockTableRecord
2
*MODEL_SPACE
0
BLOCK_RECORD
5
1B
100
AcDbSymbolTableRecord
100
AcDbBlockTableRecord
2
*PAPER_SPACE
0
ENDTAB
0
ENDSEC
0
SECTION
2
BLOCKS
0
BLOCK
5
20
100
AcDbEntity
100
AcDbBlockBegin
2
*MODEL_SPACE
0
ENDBLK
5
21
100
AcDbEntity
100
AcDbBlockEnd
0
BLOCK
5
1C
100
AcDbEntity
100
AcDbBlockBegin
2
*PAPER_SPACE
0
ENDBLK
5
1D
100
AcDbEntity
100
AcDbBlockEnd
0
ENDSEC
0
SECTION
2
ENTITIES
0
LWPOLYLINE
5
100
100
AcDbEntity
8
0
100
AcDbPolyline
90
28
70
1
43
0.0
10
452.46787992347009
20
-56.45940484710507
42
-0.20531690985959478
10
441.72498851358455
20
-61.390887199478655
42
0.4068093037117122
10
436.85170360590826
20
-66.389281270115532
10
436.85170360590826
20
-396.10212870502085
42
0.40680930371170604
10
441.72498851358449
20
-401.10052277565774
42
-0.20531690985960821
10
452.46787992347015
20
-406.03200512803136
10
465.45781185101242
20
-420.38929831110414
42
-0.18596010763500428
10
469.8517036059082
20
-431.7948248185794
10
469.85170360590826
20
-439.944011961012
42
-0.30207184983650881
10
459.43061777847112
20
-455.6194031302955
10
436.85170360590826
20
-465.09570498756818
10
-116.84829639409173
20
-465.09570498756818
42
-0.41421356237310125
10
-121.84829639409173
20
-460.09570498756818
10
-121.8482963940917
20
-413.39570498756814
42
-0.41421356237310125
10
-116.84829639409173
20
-408.39570498756814
10
-70.848296394091719
20
-408.39570498756814
42
0.41421356237309503
10
-65.848296394091719
20
-403.39570498756814
10
-65.848296394091719
20
-59.095704987568212
42
0.41421356237309709
10
-70.848296394091719
20
-54.095704987568183
10
-116.84829639409173
20
-54.095704987568183
42
-0.41421356237309503
10
-121.84829639409173
20
-49.095704987568183
10
-121.84829639409173
20
-2.3957049875681773
42
-0.41421356237309326
10
-116.84829639409173
20
2.604295012431824
10
436.85170360590826
20
2.6042950124318054
10
459.43061777847112
20
-6.8720068448408256
42
-0.30207184983650509
10
469.8517036059082
20
-22.547398014124287
10
469.8517036059082
20
-30.696585156556928
42
-0.18596010763500428
10
465.45781185101237
20
-42.102111664032059
0
LWPOLYLINE
5
101
100
AcDbEntity
8
0
100
AcDbPolyline
90
4
70
1
43
0.0
10
-30.848296394091793
20
-452.99570498756839
42
-0.99999999999999989
10
-30.848296394091719
20
-449.49570498756827
10
89.151703605908352
20
-449.49570498756827
42
-0.99999999999999989
10
89.151703605908281
20
-452.99570498756839
0
LWPOLYLINE
5
102
100
AcDbEntity
8
0
100
AcDbPolyline
90
4
70
1
43
0.0
10
401.85170360590826
20
-449.49570498756816
42
-0.99999999999999989
10
401.85170360590826
20
-452.99570498756805
10
281.85170360590831
20
-452.99570498756805
42
-0.99999999999999989
10
281.85170360590831
20
-449.49570498756839
0
LWPOLYLINE
5
103
100
AcDbEntity
8
0
100
AcDbPolyline
90
4
70
1
43
0.0
10
-30.848296394091719
20
-12.995704987568132
42
-0.99999999999999989
10
-30.848296394091719
20
-9.4957049875681001
10
89.151703605908324
20
-9.495704987568125
42
-0.99999999999999989
10
89.151703605908281
20
-12.995704987568166
0
LWPOLYLINE
5
104
100
AcDbEntity
8
0
100
AcDbPolyline
90
4
70
1
43
0.0
10
245.50170360590829
20
-9.4957049875681889
42
-0.99999999999999989
10
245.50170360590829
20
-12.995704987568161
10
125.50170360590832
20
-12.995704987568157
42
-0.99999999999999989
10
125.50170360590832
20
-9.4957049875681303
0
LWPOLYLINE
5
105
100
AcDbEntity
8
0
100
AcDbPolyline
90
4
70
1
43
0.0
10
-112.34829639409176
20
-42.995704987568139
42
-0.99999999999999989
10
-112.34829639409169
20
-39.49570498756821
10
-106.3482963940917
20
-39.495704987568239
42
-0.99999999999999989
10
-106.3482963940917
20
-42.995704987568132
0
LWPOLYLINE
5
106
100
AcDbEntity
8
0
100
AcDbPolyline
90
4
70
1
43
0.0
10
-112.34829639409169
20
-11.9957049875682
42
-0.99999999999999989
10
-112.34829639409172
20
-8.4957049875681392
10
-106.34829639409175
20
-8.4957049875681374
42
-0.99999999999999989
10
-106.3482963940917
20
-11.995704987568201
0
LWPOLYLINE
5
107
100
AcDbEntity
8
0
100
AcDbPolyline
90
4
70
1
43
0.0
10
-90.848296394091719
20
-423.49570498756827
42
-0.99999999999999989
10
-90.848296394091719
20
-449.99570498756805
10
-96.848296394091719
20
-449.99570498756805
42
-0.99999999999999989
10
-96.848296394091747
20
-423.49570498756827
0
LWPOLYLINE
5
108
100
AcDbEntity
8
0
100
AcDbPolyline
90
4
70
1
43
0.0
10
-75.348296394091648
20
-450.49570498756799
42
-0.99999999999999989
10
-75.34829639409179
20
-453.9957049875681
10
-81.348296394091776
20
-453.99570498756805
42
-0.99999999999999989
10
-81.348296394091676
20
-450.49570498756822
0
LWPOLYLINE
5
109
100
AcDbEntity
8
0
100
AcDbPolyline
90
4
70
1
43
0.0
10
-75.348296394091719
20
-8.4957049875677235
42
-0.99999999999999989
10
-75.348296394091719
20
-11.995704987568608
10
-81.348296394091733
20
-11.995704987568597
42
-0.99999999999999989
10
-81.348296394091733
20
-8.4957049875677324
0
LWPOLYLINE
5
110
100
AcDbEntity
8
0
100
AcDbPolyline
90
4
70
1
43
0.0
10
-75.348296394091506
20
-419.49570498756833
42
-0.99999999999999989
10
-75.348296394091847
20
-422.99570498756788
10
-81.348296394091776
20
-422.99570498756742
42
-0.99999999999999989
10
-81.348296394091605
20
-419.49570498756879
0
CIRCLE
5
111
100
AcDbEntity
8
0
100
AcDbCircle
10
448.00170360590823
20
-37.245704987568182
30
0
40
1.7000000000000171
0
LWPOLYLINE
5
112
100
AcDbEntity
8
0
100
AcDbPolyline
90
4
70
1
43
0.0
10
-112.34829639409176
20
-453.99570498756839
42
-0.99999999999999989
10
-112.34829639409172
20
-450.49570498756788
10
-106.34829639409178
20
-450.49570498756793
42
-0.99999999999999989
10
-106.34829639409175
20
-453.99570498756827
0
LWPOLYLINE
5
113
100
AcDbEntity
8
0
100
AcDbPolyline
90
4
70
1
43
0.0
10
-90.848296394091591
20
-12.495704987568166
42
-0.99999999999999989
10
-90.848296394091705
20
-38.995704987568175
10
-96.848296394091719
20
-38.995704987568168
42
-0.99999999999999989
10
-96.848296394091719
20
-12.495704987568168
0
LWPOLYLINE
5
114
100
AcDbEntity
8
0
100
AcDbPolyline
90
8
70
1
43
0.0
10
415.50170360590823
20
-438.74570498756816
10
415.50170360590823
20
-23.745704987568175
42
0.41421356237309453
10
410.50170360590823
20
-18.745704987568182
10
-39.498296394091739
20
-18.745704987568175
42
0.4142135623730937
10
-44.498296394091724
20
-23.745704987568175
10
-44.498296394091703
20
-438.74570498756816
42
0.41421356237309293
10
-39.498296394091739
20
-443.74570498756816
10
410.50170360590823
20
-443.74570498756816
42
0.41421356237309503
0
LWPOLYLINE
5
115
100
AcDbEntity
8
0
100
AcDbPolyline
90
4
70
1
43
0.0
10
401.85170360590826
20
-9.4957049875681871
42
-0.99999999999999989
10
401.85170360590826
20
-12.995704987568139
10
281.8517036059082
20
-12.995704987568143
42
-0.99999999999999989
10
281.85170360590826
20
-9.4957049875681285
0
LWPOLYLINE
5
116
100
AcDbEntity
8
0
100
AcDbPolyline
90
4
70
1
43
0.0
10
-112.34829639409172
20
-422.99570498756805
42
-0.99999999999999989
10
-112.34829639409179
20
-419.49570498756816
10
-106.34829639409188
20
-419.49570498756793
42
-0.99999999999999989
10
-106.34829639409162
20
-422.99570498756827
0
LWPOLYLINE
5
117
100
AcDbEntity
8
0
100
AcDbPolyline
90
4
70
1
43
0.0
10
-50.248296394091696
20
-286.24570498756827
42
-0.99999999999999989
10
-53.748296394091795
20
-286.2457049875681
10
-53.748296394091682
20
-176.24570498756822
42
-0.99999999999999989
10
-50.248296394091774
20
-176.24570498756813
0
LWPOLYLINE
5
118
100
AcDbEntity
8
0
100
AcDbPolyline
90
4
70
1
43
0.0
10
245.50170360590835
20
-449.49570498756862
42
-0.99999999999999989
10
245.50170360590835
20
-452.99570498756799
10
125.5017036059084
20
-452.99570498756799
42
-0.99999999999999989
10
125.50170360590833
20
-449.4957049875685
0
LWPOLYLINE
5
119
100
AcDbEntity
8
0
100
AcDbPolyline
90
4
70
1
43
0.0
10
424.75170360590744
20
-286.24570498756833
42
-0.99999999999999989
10
421.25170360590909
20
-286.24570498756805
10
421.25170360590914
20
-176.24570498756822
42
-0.99999999999999989
10
424.75170360590738
20
-176.24570498756813
0
LWPOLYLINE
5
120
100
AcDbEntity
8
0
100
AcDbPolyline
90
4
70
1
43
0.0
10
421.25170360590835
20
-32.395704987568116
42
-0.99999999999999989
10
424.75170360590818
20
-32.395704987568195
10
424.75170360590818
20
-142.39570498756825
42
-0.99999999999999989
10
421.25170360590835
20
-142.39570498756819
0
LWPOLYLINE
5
121
100
AcDbEntity
8
0
100
AcDbPolyline
90
4
70
1
43
0.0
10
-50.248296394091753
20
-430.09570498756818
42
-0.99999999999999989
10
-53.748296394091724
20
-430.09570498756818
10
-53.748296394091739
20
-320.09570498756818
42
-0.99999999999999989
10
-50.248296394091724
20
-320.09570498756818
0
LWPOLYLINE
5
122
100
AcDbEntity
8
0
100
AcDbPolyline
90
4
70
1
43
0.0
10
424.75170360590835
20
-430.09570498756818
42
-0.99999999999999989
10
421.25170360590812
20
-430.09570498756818
10
421.25170360590812
20
-320.09570498756818
42
-0.99999999999999989
10
424.75170360590835
20
-320.09570498756818
0
LWPOLYLINE
5
123
100
AcDbEntity
8
0
100
AcDbPolyline
90
4
70
1
43
0.0
10
-53.748296394091767
20
-32.39570498756818
42
-0.99999999999999989
10
-50.24829639409171
20
-32.39570498756818
10
-50.24829639409171
20
-142.39570498756819
42
-0.99999999999999989
10
-53.748296394091767
20
-142.39570498756819
0
CIRCLE
5
124
100
AcDbEntity
8
0
100
AcDbCircle
10
448.00170360590823
20
-425.24570498756816
30
0
40
1.7000000000000171
0
LWPOLYLINE
5
125
100
AcDbEntity
8
0
100
AcDbPolyline
90
4
70
1
43
0.0
10
-75.348296394091676
20
-39.495704987567855
42
-0.99999999999999989
10
-75.348296394091705
20
-42.995704987568509
10
-81.348296394091747
20
-42.995704987568516
42
-0.99999999999999989
10
-81.348296394091705
20
-39.495704987567855
0
CIRCLE
5
126
100
AcDbEntity
8
0
100
AcDbCircle
10
423.00170360590823
20
-451.24570498756816
30
0
40
3.75
0
CIRCLE
5
127
100
AcDbEntity
8
0
100
AcDbCircle
10
-51.998296394091724
20
-451.24570498756833
30
0
40
3.7500000000000089
0
CIRCLE
5
128
100
AcDbEntity
8
0
100
AcDbCircle
10
423.00170360590823
20
-11.245704987568136
30
0
40
3.75
0
CIRCLE
5
129
100
AcDbEntity
8
0
100
AcDbCircle
10
463.00170360590823
20
-440.24570498756816
30
0
40
1.7000000000000171
0
CIRCLE
5
130
100
AcDbEntity
8
0
100
AcDbCircle
10
463.00170360590823
20
-22.245704987568161
30
0
40
1.7000000000000171
0
CIRCLE
5
131
100
AcDbEntity
8
0
100
AcDbCircle
10
-51.998296394091746
20
-11.245704987568159
30
0
40
3.75
0
ENDSEC
0
SECTION
2
OBJECTS
0
DICTIONARY
5
C
100
AcDbDictionary
3
ACAD_GROUP
350
D
3
ACAD_MLINESTYLE
350
17
0
DICTIONARY
5
D
100
AcDbDictionary
0
DICTIONARY
5
1A
330
C
100
AcDbDictionary
0
DICTIONARY
5
17
100
AcDbDictionary
0
ENDSEC
0
EOF
