0
SECTION
2
HEADER
9
$INSUNITS
70
4
9
$ACADVER
1
AC1014
9
$HANDSEED
5
FFFF
0
ENDSEC
0
SECTION
2
TABLES
0
TABLE
2
VPORT
5
8
100
AcDbSymbolTable
0
ENDTAB
0
TABLE
2
LTYPE
5
5
100
AcDbSymbolTable
0
LTYPE
5
14
100
AcDbSymbolTableRecord
100
AcDbLinetypeTableRecord
2
BYBLOCK
70
0
0
LTYPE
5
15
100
AcDbSymbolTableRecord
100
AcDbLinetypeTableRecord
2
BYLAYER
70
0
0
ENDTAB
0
TABLE
2
LAYER
5
2
100
AcDbSymbolTable
70
2
0
LAYER
5
50
100
AcDbSymbolTableRecord
100
AcDbLayerTableRecord
2
0
70
0
6
CONTINUOUS
0
ENDTAB
0
TABLE
2
STYLE
5
3
100
AcDbSymbolTable
70
1
0
STYLE
5
11
100
AcDbSymbolTableRecord
100
AcDbTextStyleTableRecord
2
STANDARD
70
0
0
ENDTAB
0
TABLE
2
VIEW
5
6
100
AcDbSymbolTable
70
0
0
ENDTAB
0
TABLE
2
UCS
5
7
100
AcDbSymbolTable
70
0
0
ENDTAB
0
TABLE
2
APPID
5
9
100
AcDbSymbolTable
70
2
0
APPID
5
12
100
AcDbSymbolTableRecord
100
AcDbRegAppTableRecord
2
ACAD
70
0
0
ENDTAB
0
TABLE
2
DIMSTYLE
5
A
100
AcDbSymbolTable
70
1
0
ENDTAB
0
TABLE
2
BLOCK_RECORD
5
1
100
AcDbSymbolTable
70
1
0
BLOCK_RECORD
5
1F
100
AcDbSymbolTableRecord
100
AcDbBlockTableRecord
2
*MODEL_SPACE
0
BLOCK_RECORD
5
1B
100
AcDbSymbolTableRecord
100
AcDbBlockTableRecord
2
*PAPER_SPACE
0
ENDTAB
0
ENDSEC
0
SECTION
2
BLOCKS
0
BLOCK
5
20
100
AcDbEntity
100
AcDbBlockBegin
2
*MODEL_SPACE
0
ENDBLK
5
21
100
AcDbEntity
100
AcDbBlockEnd
0
BLOCK
5
1C
100
AcDbEntity
100
AcDbBlockBegin
2
*PAPER_SPACE
0
ENDBLK
5
1D
100
AcDbEntity
100
AcDbBlockEnd
0
ENDSEC
0
SECTION
2
ENTITIES
0
CIRCLE
5
100
100
AcDbEntity
8
0
100
AcDbCircle
10
-77.5
20
0
30
0
40
1.6000000000000014
0
SPLINE
5
101
100
AcDbEntity
8
0
100
AcDbSpline
70
1064
71
3
72
12
73
8
74
0
42
0.000000001
43
0.0000000001
44
0.0000000001
40
-3.7541500742659504
40
-3.7541500742659504
40
-3.7541500742659504
40
-3.7541500742659504
40
-3.4556570475934851
40
-3.4556570475934851
40
-2.9780682049175407
40
-2.9780682049175407
40
-2.5290352329135573
40
-2.5290352329135573
40
-2.5290352329135573
40
-2.5290352329135573
10
93.286272500080329
20
152.92144503800472
30
0
10
93.372083539437014
20
152.79933448453966
30
0
10
93.439524586932023
20
152.66433877547382
30
0
10
93.559400817554419
20
152.29527854148131
30
0
10
93.577866482282843
20
152.05041624027726
30
0
10
93.502441022460729
20
151.59328606530431
30
0
10
93.415335714767735
20
151.38021885739127
30
0
10
93.286272500080258
20
151.19655973036495
30
0
0
ARC
5
102
100
AcDbEntity
8
0
100
AcDbCircle
10
92.059002086164909
20
152.05900238418485
30
0
40
1.4999999999999869
100
AcDbArc
50
35.096954914165778
51
324.90304508583205
0
SPLINE
5
103
100
AcDbEntity
8
0
100
AcDbSpline
70
1064
71
3
72
12
73
8
74
0
42
0.000000001
43
0.0000000001
44
0.0000000001
40
-3.7541500742654641
40
-3.7541500742654641
40
-3.7541500742654641
40
-3.7541500742654641
40
-3.4556570475929949
40
-3.4556570475929949
40
-2.9780682049170442
40
-2.9780682049170442
40
-2.5290352329140378
40
-2.5290352329140378
40
-2.5290352329140378
40
-2.5290352329140378
10
93.286266539615994
20
-126.19655246605383
30
0
10
93.372077578972608
20
-126.31866301951895
30
0
10
93.439518626467546
20
-126.45365872858477
30
0
10
93.559394857089728
20
-126.82271896257738
30
0
10
93.577860521818081
20
-127.06758126378148
30
0
10
93.502435061995826
20
-127.5247114387539
30
0
10
93.415329754303116
20
-127.73777864666641
30
0
10
93.286266539615923
20
-127.92143777369233
30
0
0
ARC
5
104
100
AcDbEntity
8
0
100
AcDbCircle
10
92.058996125700077
20
-127.05899511987298
30
0
40
1.4999999999999853
100
AcDbArc
50
35.096954914132212
51
324.90304508585984
0
SPLINE
5
105
100
AcDbEntity
8
0
100
AcDbSpline
70
1064
71
3
72
12
73
8
74
0
42
0.000000001
43
0.0000000001
44
0.0000000001
40
-3.754150074265957
40
-3.754150074265957
40
-3.754150074265957
40
-3.754150074265957
40
-3.4556570475934922
40
-3.4556570475934922
40
-2.9780682049175486
40
-2.9780682049175486
40
-2.529035232913559
40
-2.529035232913559
40
-2.529035232913559
40
-2.529035232913559
10
93.286266539615568
20
-151.19655283858222
30
0
10
93.372077578972252
20
-151.31866339204726
30
0
10
93.439518626467262
20
-151.45365910111309
30
0
10
93.559394857089657
20
-151.82271933510563
30
0
10
93.577860521818081
20
-152.06758163630965
30
0
10
93.502435061995968
20
-152.52471181128257
30
0
10
93.415329754303045
20
-152.73777901919559
30
0
10
93.286266539615497
20
-152.92143814622193
30
0
0
ARC
5
106
100
AcDbEntity
8
0
100
AcDbCircle
10
92.058996125700148
20
-152.05899549240206
30
0
40
1.4999999999999869
100
AcDbArc
50
35.096954914164911
51
324.90304508583301
0
SPLINE
5
107
100
AcDbEntity
8
0
100
AcDbSpline
70
1064
71
3
72
12
73
8
74
0
42
0.000000001
43
0.0000000001
44
0.0000000001
40
-3.7541500742664531
40
-3.7541500742664531
40
-3.7541500742664531
40
-3.7541500742664531
40
-3.4556570475939923
40
-3.4556570475939923
40
-2.9780682049180549
40
-2.9780682049180549
40
-2.5290352329130621
40
-2.5290352329130621
40
-2.5290352329130621
40
-2.5290352329130621
10
93.286266539615141
20
-176.19655522276673
30
0
10
93.372077578971897
20
-176.3186657762318
30
0
10
93.439518626466906
20
-176.4536614852976
30
0
10
93.559394857089515
20
-176.82272171929
30
0
10
93.577860521818081
20
-177.06758402049411
30
0
10
93.502435061996181
20
-177.5247141954676
30
0
10
93.415329754302974
20
-177.73778140338109
30
0
10
93.28626653961507
20
-177.92144053040772
30
0
0
ARC
5
108
100
AcDbEntity
8
0
100
AcDbCircle
10
92.058996125700077
20
-177.05899787658723
30
0
40
1.5000000000000637
100
AcDbArc
50
35.096954914193127
51
324.90304508580471
0
SPLINE
5
109
100
AcDbEntity
8
0
100
AcDbSpline
70
1064
71
3
72
12
73
8
74
0
42
0.000000001
43
0.0000000001
44
0.0000000001
40
-3.7541500742654472
40
-3.7541500742654472
40
-3.7541500742654472
40
-3.7541500742654472
40
-3.455657047592978
40
-3.455657047592978
40
-2.9780682049170273
40
-2.9780682049170273
40
-2.5290352329140164
40
-2.5290352329140164
40
-2.5290352329140164
40
-2.5290352329140164
10
93.286272500080756
20
177.92144541053312
30
0
10
93.372083539437369
20
177.799334857068
30
0
10
93.439524586932308
20
177.66433914800214
30
0
10
93.55940081755449
20
177.2952789140096
30
0
10
93.577866482282843
20
177.05041661280552
30
0
10
93.502441022460587
20
176.59328643783309
30
0
10
93.415335714767878
20
176.38021922992056
30
0
10
93.286272500080685
20
176.19656010289458
30
0
0
ARC
5
110
100
AcDbEntity
8
0
100
AcDbCircle
10
92.059002086164838
20
177.05900275671397
30
0
40
1.4999999999999853
100
AcDbArc
50
35.09695491413266
51
324.90304508585723
0
SPLINE
5
111
100
AcDbEntity
8
0
100
AcDbSpline
70
1064
71
3
72
12
73
8
74
0
42
0.000000001
43
0.0000000001
44
0.0000000001
40
-3.754150074266446
40
-3.754150074266446
40
-3.754150074266446
40
-3.754150074266446
40
-3.4556570475939852
40
-3.4556570475939852
40
-2.9780682049180478
40
-2.9780682049180478
40
-2.5290352329130497
40
-2.5290352329130497
40
-2.5290352329130497
40
-2.5290352329130497
10
93.286272500079903
20
127.92144265382015
30
0
10
93.372083539436659
20
127.79933210035514
30
0
10
93.439524586931668
20
127.66433639128931
30
0
10
93.559400817554277
20
127.29527615729688
30
0
10
93.577866482282843
20
127.05041385609285
30
0
10
93.502441022460943
20
126.59328368111936
30
0
10
93.415335714767735
20
126.38021647320586
30
0
10
93.286272500079832
20
126.19655734617916
30
0
0
ARC
5
112
100
AcDbEntity
8
0
100
AcDbCircle
10
92.059002086164838
20
127.05899999999977
30
0
40
1.5000000000000024
100
AcDbArc
50
35.096954914189574
51
324.90304508580203
0
LWPOLYLINE
5
113
100
AcDbEntity
8
0
100
AcDbPolyline
90
6
70
1
43
0.0
10
92.5
20
197.5
42
-0.41421356237309509
10
107.5
20
182.5
10
107.5
20
-182.5
42
-0.41421356237309509
10
92.5
20
-197.5
10
-107
20
-197.5
10
-107
20
197.5
0
ENDSEC
0
SECTION
2
OBJECTS
0
DICTIONARY
5
C
100
AcDbDictionary
3
ACAD_GROUP
350
D
3
ACAD_MLINESTYLE
350
17
0
DICTIONARY
5
D
100
AcDbDictionary
0
DICTIONARY
5
1A
330
C
100
AcDbDictionary
0
DICTIONARY
5
17
100
AcDbDictionary
0
ENDSEC
0
EOF
