0
SECTION
2
HEADER
9
$INSUNITS
70
4
9
$ACADVER
1
AC1014
9
$HANDSEED
5
FFFF
0
ENDSEC
0
SECTION
2
TABLES
0
TABLE
2
VPORT
5
8
100
AcDbSymbolTable
0
ENDTAB
0
TABLE
2
LTYPE
5
5
100
AcDbSymbolTable
0
LTYPE
5
14
100
AcDbSymbolTableRecord
100
AcDbLinetypeTableRecord
2
BYBLOCK
70
0
0
LTYPE
5
15
100
AcDbSymbolTableRecord
100
AcDbLinetypeTableRecord
2
BYLAYER
70
0
0
ENDTAB
0
TABLE
2
LAYER
5
2
100
AcDbSymbolTable
70
2
0
LAYER
5
50
100
AcDbSymbolTableRecord
100
AcDbLayerTableRecord
2
0
70
0
6
CONTINUOUS
0
ENDTAB
0
TABLE
2
STYLE
5
3
100
AcDbSymbolTable
70
1
0
STYLE
5
11
100
AcDbSymbolTableRecord
100
AcDbTextStyleTableRecord
2
STANDARD
70
0
0
ENDTAB
0
TABLE
2
VIEW
5
6
100
AcDbSymbolTable
70
0
0
ENDTAB
0
TABLE
2
UCS
5
7
100
AcDbSymbolTable
70
0
0
ENDTAB
0
TABLE
2
APPID
5
9
100
AcDbSymbolTable
70
2
0
APPID
5
12
100
AcDbSymbolTableRecord
100
AcDbRegAppTableRecord
2
ACAD
70
0
0
ENDTAB
0
TABLE
2
DIMSTYLE
5
A
100
AcDbSymbolTable
70
1
0
ENDTAB
0
TABLE
2
BLOCK_RECORD
5
1
100
AcDbSymbolTable
70
1
0
BLOCK_RECORD
5
1F
100
AcDbSymbolTableRecord
100
AcDbBlockTableRecord
2
*MODEL_SPACE
0
BLOCK_RECORD
5
1B
100
AcDbSymbolTableRecord
100
AcDbBlockTableRecord
2
*PAPER_SPACE
0
ENDTAB
0
ENDSEC
0
SECTION
2
BLOCKS
0
BLOCK
5
20
100
AcDbEntity
100
AcDbBlockBegin
2
*MODEL_SPACE
0
ENDBLK
5
21
100
AcDbEntity
100
AcDbBlockEnd
0
BLOCK
5
1C
100
AcDbEntity
100
AcDbBlockBegin
2
*PAPER_SPACE
0
ENDBLK
5
1D
100
AcDbEntity
100
AcDbBlockEnd
0
ENDSEC
0
SECTION
2
ENTITIES
0
LWPOLYLINE
5
100
100
AcDbEntity
8
0
100
AcDbPolyline
90
8
70
1
43
0.0
10
-439.99999503008542
20
-8.1002426988163734e-11
42
-0.41421356237310342
10
-444.99999503008542
20
4.9999999999189981
10
-444.99999503008542
20
449.999999999919
42
-0.41421356237310336
10
-439.99999503008542
20
454.999999999919
10
-4.9999950300853522
20
454.999999999919
42
-0.41421356237308798
10
4.969914648711441e-06
20
449.999999999919
10
4.9699146453807685e-06
20
4.999999999918999
42
-0.41421356237309481
10
-4.9999950300853868
20
-8.1001871876624085e-11
0
CIRCLE
5
101
100
AcDbEntity
8
0
100
AcDbCircle
10
-195.0421199881996
20
200.17298630197456
30
-1.1057155191451784e-10
40
1.7500000000000071
210
-4.9288157924364421e-17
220
-1.4935067484953666e-28
230
1
0
CIRCLE
5
102
100
AcDbEntity
8
0
100
AcDbCircle
10
-166.74211998819857
20
93.572986301974979
30
-1.1041723091409494e-10
40
1.7500000000000426
210
1.5257057382562078e-16
220
-1.4935067484953673e-28
230
1
0
CIRCLE
5
103
100
AcDbEntity
8
0
100
AcDbCircle
10
-117.74211998819881
20
151.57298630197474
30
-1.1055600879217309e-10
40
1.7500000000000071
210
5.5628803732567266e-16
220
-1.4935067484953684e-28
230
1
0
CIRCLE
5
104
100
AcDbEntity
8
0
100
AcDbCircle
10
-117.74211998819892
20
93.572986301975121
30
-1.1046719095020308e-10
40
1.7499999999999716
210
5.562880373256839e-16
220
-1.4935067484953684e-28
230
1
0
CIRCLE
5
105
100
AcDbEntity
8
0
100
AcDbCircle
10
-195.04211998819966
20
70.1729863019753
30
-1.1037171177008531e-10
40
1.7499999999999716
210
-4.928815792436542e-17
220
-1.4935067484953666e-28
230
1
0
CIRCLE
5
106
100
AcDbEntity
8
0
100
AcDbCircle
10
-166.7421199881984
20
151.57298630197471
30
-1.1050715897908958e-10
40
1.7500000000000071
210
1.5257057382562388e-16
220
-1.4935067484953673e-28
230
1
0
CIRCLE
5
107
100
AcDbEntity
8
0
100
AcDbCircle
10
-319.04211998819886
20
70.172986301975229
30
-1.103184210649033e-10
40
1.7500000000000426
210
5.5628803732569741e-16
220
-1.4935067484953684e-28
230
1
0
CIRCLE
5
108
100
AcDbEntity
8
0
100
AcDbCircle
10
-7.4999950300853477
20
7.4999999999189937
30
-1.1148637568680897e-10
40
3.5000000000000053
210
5.6626563741056864e-16
220
1.4565342797934416e-17
230
1
0
CIRCLE
5
109
100
AcDbEntity
8
0
100
AcDbCircle
10
-7.4999950300853317
20
447.499999999919
30
-1.109667913112844e-10
40
3.4999999999999432
210
2.7317310806120698e-21
220
-1.4935067484953668e-28
230
1
0
CIRCLE
5
110
100
AcDbEntity
8
0
100
AcDbCircle
10
-176.49999672882035
20
262.64023283694797
30
-1.1104672736905741e-10
40
1.9999999999999929
210
2.7317310806120698e-21
220
-1.4935067484953668e-28
230
1
0
CIRCLE
5
111
100
AcDbEntity
8
0
100
AcDbCircle
10
-326.49999672882046
20
312.64023283694809
30
-1.1120881993065268e-10
40
2.0000000000000995
210
-1.3401550099234489e-15
220
1.1102230246249045e-15
230
1
0
CIRCLE
5
112
100
AcDbEntity
8
0
100
AcDbCircle
10
-313.74999672882035
20
368.40223405520703
30
-1.1114664744127367e-10
40
2.0000000000000284
210
-2.2993198529821891e-16
220
-1.452662137761738e-28
230
1
0
CIRCLE
5
113
100
AcDbEntity
8
0
100
AcDbCircle
10
-266.24999672882063
20
368.40223405520732
30
-1.1085687923184651e-10
40
2.0000000000003126
210
2.7317310806120698e-21
220
-1.4935067484953668e-28
230
1
0
CIRCLE
5
114
100
AcDbEntity
8
0
100
AcDbCircle
10
-326.49999672882024
20
262.64023283694797
30
-1.1129652754959807e-10
40
1.9999999999999929
210
2.7317310806120698e-21
220
-1.4935067484953668e-28
230
1
0
CIRCLE
5
115
100
AcDbEntity
8
0
100
AcDbCircle
10
-176.49999672882035
20
312.64023283694797
30
-1.1095568908103814e-10
40
1.9999999999999929
210
2.7317310806120698e-21
220
-1.4935067484953668e-28
230
1
0
CIRCLE
5
116
100
AcDbEntity
8
0
100
AcDbCircle
10
-349.99999503008746
20
387.499999999919
30
-1.109667913112844e-10
40
1.7499999999999758
210
2.7317310806120698e-21
220
-1.4935067484953668e-28
230
1
0
CIRCLE
5
117
100
AcDbEntity
8
0
100
AcDbCircle
10
-437.49999503008547
20
447.49999999991917
30
-1.1096790153430902e-10
40
3.4999999999999347
210
3.0152674528649982e-16
220
-4.2227580300963801e-16
230
1
0
CIRCLE
5
118
100
AcDbEntity
8
0
100
AcDbCircle
10
-437.49999503008547
20
7.4999999999191589
30
-1.109667913112844e-10
40
3.4999999999999423
210
1.4568074529184057e-17
220
-5.6626290567962992e-16
230
1
0
CIRCLE
5
119
100
AcDbEntity
8
0
100
AcDbCircle
10
-89.999995030085373
20
67.499999999919012
30
-1.109667913112844e-10
40
1.7499999999999871
210
2.7317310806120698e-21
220
-1.4935067484953668e-28
230
1
0
CIRCLE
5
120
100
AcDbEntity
8
0
100
AcDbCircle
10
-208.99999672882035
20
85.178999999922894
30
-1.109667913112844e-10
40
1.7500000000000067
210
2.9133417327249926e-17
220
-1.1325258113591027e-15
230
1
0
CIRCLE
5
121
100
AcDbEntity
8
0
100
AcDbCircle
10
-208.99999672882035
20
200.17899999992301
30
-1.1096790153430902e-10
40
1.7500000000000171
210
6.0305075884187387e-16
220
-8.4455160601905524e-16
230
1
0
CIRCLE
5
122
100
AcDbEntity
8
0
100
AcDbCircle
10
-318.99999672882029
20
200.17899999992295
30
-1.1096790153430902e-10
40
1.7500000000000047
210
6.030507588418504e-16
220
-8.4455160601910248e-16
230
1
0
CIRCLE
5
123
100
AcDbEntity
8
0
100
AcDbCircle
10
-117.00040258615934
20
200.17899999992295
30
-1.109667913112844e-10
40
1.7500000000000251
210
2.9133417327211081e-17
220
-1.1325258113590689e-15
230
1
0
CIRCLE
5
124
100
AcDbEntity
8
0
100
AcDbCircle
10
-226.99999672882035
20
85.178999999922951
30
-1.109667913112844e-10
40
1.7500000000000089
210
2.9133417327279218e-17
220
-1.1325258113590831e-15
230
1
0
CIRCLE
5
125
100
AcDbEntity
8
0
100
AcDbCircle
10
-349.99999503008746
20
67.499999999919083
30
-1.109667913112844e-10
40
1.7499999999999747
210
2.7317310806120698e-21
220
-1.4935067484953668e-28
230
1
0
CIRCLE
5
126
100
AcDbEntity
8
0
100
AcDbCircle
10
-116.99999672882038
20
85.178999999923221
30
-1.109667913112844e-10
40
1.749999999999992
210
2.7317310806120698e-21
220
-1.4935067484953668e-28
230
1
0
CIRCLE
5
127
100
AcDbEntity
8
0
100
AcDbCircle
10
-226.99999672882035
20
200.17899999992301
30
-1.1096790153430902e-10
40
1.7500000000000171
210
6.0305075884187495e-16
220
-8.4455160601905663e-16
230
1
0
CIRCLE
5
128
100
AcDbEntity
8
0
100
AcDbCircle
10
-343.99999503008542
20
148.49999999991917
30
-1.1096790153430902e-10
40
12.69999999999996
210
8.3099900821152559e-17
220
-1.1637522130197196e-16
230
1
0
CIRCLE
5
129
100
AcDbEntity
8
0
100
AcDbCircle
10
-89.999995030085373
20
387.49999999991905
30
-1.109667913112844e-10
40
1.7500000000000027
210
5.7618128523815155e-17
220
-8.0688724123576588e-17
230
1
0
CIRCLE
5
130
100
AcDbEntity
8
0
100
AcDbCircle
10
-318.99999672882029
20
85.178999999922581
30
-1.109667913112844e-10
40
1.7500000000000047
210
2.7317310806120698e-21
220
-1.4935067484953668e-28
230
1
0
CIRCLE
5
131
100
AcDbEntity
8
0
100
AcDbCircle
10
-437.49999503008542
20
316.249999999919
30
-1.1096790153430902e-10
40
1.7499999999999758
210
-6.030452953797301e-16
220
8.4455160601883989e-16
230
1
0
CIRCLE
5
132
100
AcDbEntity
8
0
100
AcDbCircle
10
-437.49999503008547
20
138.74999999991891
30
-1.109667913112844e-10
40
1.7500000000000377
210
2.7317310806120698e-21
220
-1.4935067484953668e-28
230
1
0
CIRCLE
5
133
100
AcDbEntity
8
0
100
AcDbCircle
10
-437.49999503008547
20
404.999999999919
30
-1.109667913112844e-10
40
1.7500000000000171
210
2.7317310806120698e-21
220
-1.4935067484953668e-28
230
1
0
CIRCLE
5
134
100
AcDbEntity
8
0
100
AcDbCircle
10
-49.999995030085387
20
447.49999999991905
30
-1.109667913112844e-10
40
1.7500000000000191
210
-2.9127953865053702e-17
220
1.1325258113588159e-15
230
1
0
CIRCLE
5
135
100
AcDbEntity
8
0
100
AcDbCircle
10
-136.24999503008539
20
447.49999999991917
30
-1.109667913112844e-10
40
1.7500000000000047
210
2.7317310806120698e-21
220
-1.4935067484953668e-28
230
1
0
CIRCLE
5
136
100
AcDbEntity
8
0
100
AcDbCircle
10
-308.74999503008536
20
447.499999999919
30
-1.109667913112844e-10
40
1.7499999999999758
210
-2.9127953865086144e-17
220
1.1325258113588595e-15
230
1
0
CIRCLE
5
137
100
AcDbEntity
8
0
100
AcDbCircle
10
-308.74999503008542
20
7.4999999999190434
30
-1.109667913112844e-10
40
1.7500000000000071
210
2.7317310806120698e-21
220
-1.4935067484953668e-28
230
1
0
CIRCLE
5
138
100
AcDbEntity
8
0
100
AcDbCircle
10
-222.49999503008539
20
7.4999999999190905
30
-1.109667913112844e-10
40
1.7500000000000089
210
2.7317310806120698e-21
220
-1.4935067484953668e-28
230
1
0
CIRCLE
5
139
100
AcDbEntity
8
0
100
AcDbCircle
10
-437.49999503008547
20
227.49999999991888
30
-1.109667913112844e-10
40
1.7500000000000377
210
2.7317310806120698e-21
220
-1.4935067484953668e-28
230
1
0
CIRCLE
5
140
100
AcDbEntity
8
0
100
AcDbCircle
10
-437.49999503008547
20
49.999999999919112
30
-1.109667913112844e-10
40
1.7500000000000377
210
2.7317310806120698e-21
220
-1.4935067484953668e-28
230
1
0
CIRCLE
5
141
100
AcDbEntity
8
0
100
AcDbCircle
10
-394.99999503008542
20
7.4999999999189848
30
-1.109667913112844e-10
40
1.7499999999999762
210
2.7317310806120698e-21
220
-1.4935067484953668e-28
230
1
0
CIRCLE
5
142
100
AcDbEntity
8
0
100
AcDbCircle
10
-7.4999950300853468
20
138.749999999919
30
-1.109667913112844e-10
40
1.7499999999999905
210
-5.8258639461252493e-17
220
2.2650516227178283e-15
230
1
0
CIRCLE
5
143
100
AcDbEntity
8
0
100
AcDbCircle
10
-7.4999950300853442
20
316.24999999991894
30
-1.1096790153430902e-10
40
1.7499999999999667
210
-6.0304529537974577e-16
220
8.4455160601885517e-16
230
1
0
CIRCLE
5
144
100
AcDbEntity
8
0
100
AcDbCircle
10
-222.49999503008539
20
447.49999999991905
30
-1.109667913112844e-10
40
1.749999999999992
210
-2.9127953865044525e-17
220
1.1325258113588826e-15
230
1
0
CIRCLE
5
145
100
AcDbEntity
8
0
100
AcDbCircle
10
-7.4999950300853646
20
404.99999999991905
30
-1.109667913112844e-10
40
1.7500000000000047
210
-2.912795386505104e-17
220
1.1325258113588116e-15
230
1
0
CIRCLE
5
146
100
AcDbEntity
8
0
100
AcDbCircle
10
-7.4999950300853406
20
227.499999999919
30
-1.109667913112844e-10
40
1.7499999999999847
210
-2.912795386508485e-17
220
1.1325258113588175e-15
230
1
0
CIRCLE
5
147
100
AcDbEntity
8
0
100
AcDbCircle
10
-7.4999950300853531
20
49.999999999919005
30
-1.109667913112844e-10
40
1.7500000000000002
210
2.7317310806120698e-21
220
-1.4935067484953668e-28
230
1
0
CIRCLE
5
148
100
AcDbEntity
8
0
100
AcDbCircle
10
-49.999995030085358
20
7.4999999999190319
30
-1.109667913112844e-10
40
1.7500000000000067
210
-5.8258639461220347e-17
220
2.2650516227178172e-15
230
1
0
CIRCLE
5
149
100
AcDbEntity
8
0
100
AcDbCircle
10
-136.24999503008536
20
7.4999999999190337
30
-1.109667913112844e-10
40
1.7499999999999907
210
-5.8258639461219374e-17
220
2.26505162271782e-15
230
1
0
CIRCLE
5
150
100
AcDbEntity
8
0
100
AcDbCircle
10
-394.99999503008547
20
447.49999999991905
30
-1.109667913112844e-10
40
1.7500000000000335
210
2.7317310806120698e-21
220
-1.4935067484953668e-28
230
1
0
CIRCLE
5
151
100
AcDbEntity
8
0
100
AcDbCircle
10
-195.0421199881996
20
200.17298630197456
30
0
40
1.7500000000000071
210
1.7717050855593517e-33
220
-2.2420775429197088e-44
230
1
0
CIRCLE
5
152
100
AcDbEntity
8
0
100
AcDbCircle
10
-166.74211998819857
20
93.572986301974979
30
0
40
1.7500000000000426
210
-6.9769821500965724e-33
220
-2.2420775429197011e-44
230
1
0
CIRCLE
5
153
100
AcDbEntity
8
0
100
AcDbCircle
10
-117.74211998819881
20
151.57298630197474
30
0
40
1.7500000000000071
210
2.8184404871699692e-32
220
-2.2420775429197322e-44
230
1
0
CIRCLE
5
154
100
AcDbEntity
8
0
100
AcDbCircle
10
-117.74211998819892
20
93.572986301975121
30
0
40
1.7499999999999716
210
2.8129485775629274e-32
220
-2.2420775429197322e-44
230
1
0
CIRCLE
5
155
100
AcDbEntity
8
0
100
AcDbCircle
10
-195.04211998819966
20
70.1729863019753
30
0
40
1.7499999999999716
210
1.7167859894889345e-33
220
-2.2420775429197088e-44
230
1
0
CIRCLE
5
156
100
AcDbEntity
8
0
100
AcDbCircle
10
-166.7421199881984
20
151.57298630197471
30
0
40
1.7500000000000071
210
-7.0322774043592528e-33
220
-2.2420775429197011e-44
230
1
0
CIRCLE
5
157
100
AcDbEntity
8
0
100
AcDbCircle
10
-319.04211998819886
20
70.172986301975229
30
0
40
1.7500000000000426
210
2.8240076284154635e-32
220
-2.2420775429197322e-44
230
1
0
LWPOLYLINE
5
158
100
AcDbEntity
8
0
100
AcDbPolyline
90
8
70
1
43
0.0
10
-439.99999503008542
20
-8.1015194552946923e-11
42
-0.41421356237310419
10
-444.99999503008542
20
4.9999999999189981
10
-444.99999503008542
20
449.999999999919
42
-0.41421356237310336
10
-439.99999503008542
20
454.999999999919
10
-4.9999950300853531
20
454.999999999919
42
-0.41421356237308521
10
4.9699146487114393e-06
20
449.999999999919
10
4.969914644825657e-06
20
4.999999999918999
42
-0.41421356237309681
10
-4.9999950300853868
20
-8.1001871876624085e-11
0
CIRCLE
5
159
100
AcDbEntity
8
0
100
AcDbCircle
10
-7.4999950300853477
20
7.4999999999189937
30
0
40
3.5000000000000058
210
-7.3542633523570325e-33
220
-1.2061934701011282e-32
230
1
0
CIRCLE
5
160
100
AcDbEntity
8
0
100
AcDbCircle
10
-7.4999950300853317
20
447.499999999919
30
0
40
3.4999999999999432
210
3.76158192263132e-37
220
-2.1477573583842816e-51
230
1
0
CIRCLE
5
161
100
AcDbEntity
8
0
100
AcDbCircle
10
-176.49999672882035
20
262.64023283694797
30
0
40
1.9999999999999929
210
-3.76158192263132e-37
220
2.0601610302024437e-60
230
1
0
CIRCLE
5
162
100
AcDbEntity
8
0
100
AcDbCircle
10
-326.49999672882046
20
312.64023283694809
30
0
40
2.0000000000000995
210
9.8743406260034561e-32
220
-3.0512766572089999e-32
230
1
0
CIRCLE
5
163
100
AcDbEntity
8
0
100
AcDbCircle
10
-313.74999672882035
20
368.40223405520703
30
0
40
2.0000000000000284
210
6.2017201158422573e-33
220
-1.1016467947218938e-46
230
1
0
CIRCLE
5
164
100
AcDbEntity
8
0
100
AcDbCircle
10
-266.24999672882063
20
368.40223405520732
30
0
40
2.0000000000003126
210
0
220
-0
230
1
0
CIRCLE
5
165
100
AcDbEntity
8
0
100
AcDbCircle
10
-326.49999672882024
20
262.64023283694797
30
0
40
1.9999999999999929
210
-3.76158192263132e-37
220
2.6727647102982215e-50
230
1
0
CIRCLE
5
166
100
AcDbEntity
8
0
100
AcDbCircle
10
-176.49999672882035
20
312.64023283694797
30
0
40
1.9999999999999929
210
-3.76158192263132e-37
220
2.0601610302024437e-60
230
1
0
CIRCLE
5
167
100
AcDbEntity
8
0
100
AcDbCircle
10
-349.99999503008746
20
387.499999999919
30
0
40
1.7499999999999758
210
0
220
-0
230
1
0
CIRCLE
5
168
100
AcDbEntity
8
0
100
AcDbCircle
10
-437.49999503008547
20
447.49999999991917
30
0
40
3.4999999999999347
210
3.2254956448869028e-33
220
-4.5172148894133934e-33
230
1
0
CIRCLE
5
169
100
AcDbEntity
8
0
100
AcDbCircle
10
-437.49999503008547
20
7.4999999999191589
30
0
40
3.4999999999999423
210
-7.4041589050792697e-33
220
-1.2214732510465976e-32
230
1
0
CIRCLE
5
170
100
AcDbEntity
8
0
100
AcDbCircle
10
-89.999995030085373
20
67.499999999919012
30
0
40
1.7499999999999873
210
1.0929437669039355e-37
220
-1.5306366526881944e-37
230
1
0
CIRCLE
5
171
100
AcDbEntity
8
0
100
AcDbCircle
10
-208.99999672882035
20
85.178999999922894
30
0
40
1.7500000000000067
210
-4.8278476669897477e-32
220
4.5219543551187941e-32
230
1
0
CIRCLE
5
172
100
AcDbEntity
8
0
100
AcDbCircle
10
-208.99999672882035
20
200.17899999992301
30
0
40
1.7500000000000173
210
-3.7672022935151957e-32
220
5.2758596399517521e-32
230
1
0
CIRCLE
5
173
100
AcDbEntity
8
0
100
AcDbCircle
10
-318.99999672882029
20
200.17899999992295
30
0
40
1.7500000000000047
210
-3.7736615911773611e-32
220
5.2849057025693086e-32
230
1
0
CIRCLE
5
174
100
AcDbEntity
8
0
100
AcDbCircle
10
-117.00040258615934
20
200.17899999992295
30
0
40
1.7500000000000251
210
-4.8249236098350488e-32
220
4.5274395045483786e-32
230
1
0
CIRCLE
5
175
100
AcDbEntity
8
0
100
AcDbCircle
10
-226.99999672882035
20
85.178999999922951
30
0
40
1.7500000000000089
210
-4.8274950684237635e-32
220
4.511945073705986e-32
230
1
0
CIRCLE
5
176
100
AcDbEntity
8
0
100
AcDbCircle
10
-349.99999503008746
20
67.499999999919083
30
0
40
1.7499999999999747
210
-1.9683295384722948e-37
220
-3.7165241864961492e-37
230
1
0
CIRCLE
5
177
100
AcDbEntity
8
0
100
AcDbCircle
10
-116.99999672882038
20
85.178999999923221
30
0
40
1.749999999999992
210
0
220
-0
230
1
0
CIRCLE
5
178
100
AcDbEntity
8
0
100
AcDbCircle
10
-226.99999672882035
20
200.17899999992301
30
0
40
1.7500000000000173
210
-3.7672022935151957e-32
220
5.2758596399517521e-32
230
1
0
CIRCLE
5
179
100
AcDbEntity
8
0
100
AcDbCircle
10
-343.99999503008542
20
148.49999999991917
30
0
40
12.69999999999996
210
-2.8888472088809412e-33
220
4.0451010206362535e-33
230
1
0
CIRCLE
5
180
100
AcDbEntity
8
0
100
AcDbCircle
10
-89.999995030085373
20
387.49999999991905
30
0
40
1.7500000000000029
210
3.2577374860106176e-33
220
-4.5623686706676606e-33
230
1
0
CIRCLE
5
181
100
AcDbEntity
8
0
100
AcDbCircle
10
-318.99999672882029
20
85.178999999922581
30
0
40
1.7500000000000047
210
1.0929437669038769e-37
220
-1.5306366526882364e-37
230
1
0
CIRCLE
5
182
100
AcDbEntity
8
0
100
AcDbCircle
10
-437.49999503008542
20
316.249999999919
30
0
40
1.7499999999999758
210
-3.7736506617397547e-32
220
5.2848903962027368e-32
230
1
0
CIRCLE
5
183
100
AcDbEntity
8
0
100
AcDbCircle
10
-437.49999503008547
20
138.74999999991891
30
0
40
1.7500000000000377
210
4.1542170722803091e-37
220
6.552508811197725e-38
230
1
0
CIRCLE
5
184
100
AcDbEntity
8
0
100
AcDbCircle
10
-437.49999503008547
20
404.999999999919
30
0
40
1.7500000000000173
210
-1.0929437669039456e-37
220
1.5306366526881873e-37
230
1
0
CIRCLE
5
185
100
AcDbEntity
8
0
100
AcDbCircle
10
-49.999995030085387
20
447.49999999991905
30
0
40
1.7500000000000191
210
9.0618781951319607e-33
220
8.6265528584937579e-32
230
1
0
CIRCLE
5
186
100
AcDbEntity
8
0
100
AcDbCircle
10
-136.24999503008539
20
447.49999999991917
30
0
40
1.7500000000000047
210
1.0929437669038769e-37
220
-1.5306366526882364e-37
230
1
0
CIRCLE
5
187
100
AcDbEntity
8
0
100
AcDbCircle
10
-308.74999503008536
20
447.499999999919
30
0
40
1.7499999999999758
210
8.9944426438349919e-33
220
8.6216914343110043e-32
230
1
0
CIRCLE
5
188
100
AcDbEntity
8
0
100
AcDbCircle
10
-308.74999503008542
20
7.4999999999190434
30
0
40
1.7500000000000073
210
-3.0612733053764677e-37
220
-2.1858875338077604e-37
230
1
0
CIRCLE
5
189
100
AcDbEntity
8
0
100
AcDbCircle
10
-222.49999503008539
20
7.4999999999190905
30
0
40
1.7500000000000091
210
-3.0612733053765404e-37
220
-2.1858875338076577e-37
230
1
0
CIRCLE
5
190
100
AcDbEntity
8
0
100
AcDbCircle
10
-437.49999503008547
20
227.49999999991888
30
0
40
1.7500000000000377
210
4.1542170722803091e-37
220
6.552508811197725e-38
230
1
0
CIRCLE
5
191
100
AcDbEntity
8
0
100
AcDbCircle
10
-437.49999503008547
20
49.999999999919112
30
0
40
1.7500000000000377
210
4.1542170722803091e-37
220
6.552508811197725e-38
230
1
0
CIRCLE
5
192
100
AcDbEntity
8
0
100
AcDbCircle
10
-394.99999503008542
20
7.4999999999189848
30
0
40
1.7499999999999762
210
-0
220
0
230
1
0
CIRCLE
5
193
100
AcDbEntity
8
0
100
AcDbCircle
10
-7.4999950300853468
20
138.749999999919
30
0
40
1.7499999999999905
210
9.0178559731408328e-33
220
8.6199660114396706e-32
230
1
0
CIRCLE
5
194
100
AcDbEntity
8
0
100
AcDbCircle
10
-7.4999950300853442
20
316.24999999991894
30
0
40
1.7499999999999667
210
-3.7736725206151119e-32
220
5.2849210089357765e-32
230
1
0
CIRCLE
5
195
100
AcDbEntity
8
0
100
AcDbCircle
10
-222.49999503008539
20
447.49999999991905
30
0
40
1.749999999999992
210
9.0201572297244698e-33
220
8.6371858651530717e-32
230
1
0
CIRCLE
5
196
100
AcDbEntity
8
0
100
AcDbCircle
10
-7.4999950300853646
20
404.99999999991905
30
0
40
1.7500000000000047
210
9.0396401943788919e-33
220
8.6249418542275568e-32
230
1
0
CIRCLE
5
197
100
AcDbEntity
8
0
100
AcDbCircle
10
-7.4999950300853406
20
227.499999999919
30
0
40
1.7499999999999847
210
9.0086229724551026e-33
220
8.6158863825406469e-32
230
1
0
CIRCLE
5
198
100
AcDbEntity
8
0
100
AcDbCircle
10
-7.4999950300853531
20
49.999999999919005
30
0
40
1.7500000000000002
210
-3.0612733053764281e-37
220
-2.1858875338078168e-37
230
1
0
CIRCLE
5
199
100
AcDbEntity
8
0
100
AcDbCircle
10
-49.999995030085358
20
7.4999999999190319
30
0
40
1.7500000000000067
210
9.0427004369260888e-33
220
8.6245132759648029e-32
230
1
0
CIRCLE
5
200
100
AcDbEntity
8
0
100
AcDbCircle
10
-136.24999503008536
20
7.4999999999190337
30
0
40
1.7499999999999907
210
9.0178611269320798e-33
220
8.6232018465203291e-32
230
1
0
CIRCLE
5
201
100
AcDbEntity
8
0
100
AcDbCircle
10
-394.99999503008547
20
447.49999999991905
30
0
40
1.7500000000000335
210
1.0929437669038587e-37
220
-1.5306366526882489e-37
230
1
0
ENDSEC
0
SECTION
2
OBJECTS
0
DICTIONARY
5
C
100
AcDbDictionary
3
ACAD_GROUP
350
D
3
ACAD_MLINESTYLE
350
17
0
DICTIONARY
5
D
100
AcDbDictionary
0
DICTIONARY
5
1A
330
C
100
AcDbDictionary
0
DICTIONARY
5
17
100
AcDbDictionary
0
ENDSEC
0
EOF
