<?xml version="1.0" encoding="UTF-8"?>
<!DOCTYPE svg PUBLIC "-//W3C//DTD SVG 1.1//EN" "http://www.w3.org/Graphics/SVG/1.1/DTD/svg11.dtd">
<!-- Creator: CorelDRAW -->
<svg xmlns="http://www.w3.org/2000/svg" xml:space="preserve" width="60in" height="40in" style="shape-rendering:geometricPrecision; text-rendering:geometricPrecision; image-rendering:optimizeQuality; fill-rule:evenodd; clip-rule:evenodd"
viewBox="0 0 60 40"
 xmlns:xlink="http://www.w3.org/1999/xlink">
 <defs>
  <style type="text/css">
   <![CDATA[
    .str2 {stroke:#373435;stroke-width:0.003;stroke-linejoin:bevel}
    .str0 {stroke:black;stroke-width:0.003;stroke-linejoin:bevel}
    .str1 {stroke:#373435;stroke-width:0.00694488}
    .fil0 {fill:none}
   ]]>
  </style>
 </defs>
 <g id="Layer_x0020_1">
  <metadata id="CorelCorpID_0Corel-Layer"/>
  <path class="fil0 str0" d="M56.8112 9.95352c0.0380512,0 0.0688976,0.0308465 0.0688976,0.0688976 0,0.0380512 -0.0308465,0.0688976 -0.0688976,0.0688976 -0.0380512,0 -0.0688976,-0.0308465 -0.0688976,-0.0688976 0,-0.0380512 0.0308465,-0.0688976 0.0688976,-0.0688976zm0 -3.54331c0.0380512,0 0.0688976,0.0308465 0.0688976,0.0688976 0,0.0380512 -0.0308465,0.0688976 -0.0688976,0.0688976 -0.0380512,0 -0.0688976,-0.0308465 -0.0688976,-0.0688976 0,-0.0380512 0.0308465,-0.0688976 0.0688976,-0.0688976zm-6.30264 3.54331c0.0380512,0 0.0688976,0.0308465 0.0688976,0.0688976 0,0.0380512 -0.0308465,0.0688976 -0.0688976,0.0688976 -0.0380512,0 -0.0688976,-0.0308465 -0.0688976,-0.0688976 0,-0.0380512 0.0308465,-0.0688976 0.0688976,-0.0688976zm0 -3.54331c0.0380512,0 0.0688976,0.0308465 0.0688976,0.0688976 0,0.0380512 -0.0308465,0.0688976 -0.0688976,0.0688976 -0.0380512,0 -0.0688976,-0.0308465 -0.0688976,-0.0688976 0,-0.0380512 0.0308465,-0.0688976 0.0688976,-0.0688976zm0.473547 0.412669c0.0380512,0 0.0688976,0.0308465 0.0688976,0.0688976 0,0.0380512 -0.0308465,0.0688976 -0.0688976,0.0688976 -0.0380512,0 -0.0688976,-0.0308465 -0.0688976,-0.0688976 0,-0.0380512 0.0308465,-0.0688976 0.0688976,-0.0688976zm5.01969 0c0.0380512,0 0.0688976,0.0308465 0.0688976,0.0688976 0,0.0380512 -0.0308465,0.0688976 -0.0688976,0.0688976 -0.0380512,0 -0.0688976,-0.0308465 -0.0688976,-0.0688976 0,-0.0380512 0.0308465,-0.0688976 0.0688976,-0.0688976zm-5.01969 2.7908c0.0380512,0 0.0688976,0.0308465 0.0688976,0.0688976 0,0.0380512 -0.0308465,0.0688976 -0.0688976,0.0688976 -0.0380512,0 -0.0688976,-0.0308465 -0.0688976,-0.0688976 0,-0.0380512 0.0308465,-0.0688976 0.0688976,-0.0688976zm5.01969 0c0.0380512,0 0.0688976,0.0308465 0.0688976,0.0688976 0,0.0380512 -0.0308465,0.0688976 -0.0688976,0.0688976 -0.0380512,0 -0.0688976,-0.0308465 -0.0688976,-0.0688976 0,-0.0380512 0.0308465,-0.0688976 0.0688976,-0.0688976zm-4.91757 -2.86363l4.80709 0 0 2.97244 -4.80709 0 0 -2.97244zm5.25 0.572835c0.0380512,0 0.0688976,0.0308465 0.0688976,0.0688976 0,0.0380512 -0.0308465,0.0688976 -0.0688976,0.0688976 -0.0380512,0 -0.0688976,-0.0308465 -0.0688976,-0.0688976 0,-0.0380512 0.0308465,-0.0688976 0.0688976,-0.0688976zm0 0.472441c0.0163071,0 0.0295276,0.0132205 0.0295276,0.0295276 0,0.0163071 -0.0132205,0.0295276 -0.0295276,0.0295276 -0.0163071,0 -0.0295276,-0.0132205 -0.0295276,-0.0295276 0,-0.0163071 0.0132205,-0.0295276 0.0295276,-0.0295276zm0 0.413386c0.0380512,0 0.0688976,0.0308465 0.0688976,0.0688976 0,0.0380512 -0.0308465,0.0688976 -0.0688976,0.0688976 -0.0380512,0 -0.0688976,-0.0308465 -0.0688976,-0.0688976 0,-0.0380512 0.0308465,-0.0688976 0.0688976,-0.0688976zm-5.48964 6.87791c-0.207106,0 -0.375,0.167894 -0.375,0.375 0,0.207106 0.167894,0.375 0.375,0.375 0.207106,0 0.375,-0.167894 0.375,-0.375 0,-0.207106 -0.167894,-0.375 -0.375,-0.375zm6.31589 -11.2513c0.0706693,0 0.127957,0.0572874 0.127957,0.127953 0,0.0706654 -0.0572874,0.127953 -0.127957,0.127953 -0.0706654,0 -0.127949,-0.0572874 -0.127949,-0.127953 0,-0.0706654 0.0572835,-0.127953 0.127949,-0.127953zm0 1.1811c0.0706693,0 0.127957,0.0572874 0.127957,0.127953 0,0.0706654 -0.0572874,0.127953 -0.127957,0.127953 -0.0706654,0 -0.127949,-0.0572874 -0.127949,-0.127953 0,-0.0706654 0.0572835,-0.127953 0.127949,-0.127953zm0 20.6346c0.0706693,0 0.127957,0.0572874 0.127957,0.127953 0,0.0706654 -0.0572874,0.127953 -0.127957,0.127953 -0.0706654,0 -0.127949,-0.0572874 -0.127949,-0.127953 0,-0.0706654 0.0572835,-0.127953 0.127949,-0.127953zm0 1.1811c0.0706693,0 0.127957,0.0572874 0.127957,0.127953 0,0.0706654 -0.0572874,0.127953 -0.127957,0.127953 -0.0706654,0 -0.127949,-0.0572874 -0.127949,-0.127953 0,-0.0706654 0.0572835,-0.127953 0.127949,-0.127953zm0.50998 -23.6236c6.29921e-005,-0.104346 -0.0413386,-0.204457 -0.115067,-0.278283 -0.0737283,-0.0738228 -0.174287,-0.11535 -0.278634,-0.115417l-7.65717 0 0 25.2937 7.65717 0c0.104346,6.69291e-005 0.204457,-0.0413346 0.278283,-0.115063 0.0738228,-0.0737283 0.11535,-0.174287 0.115417,-0.278638m0 -24.5063l0 24.5063"/>
  <path class="fil0 str0" d="M38.947 3.20846l0 24.5063m0 -24.5063c-6.29921e-005,-0.104346 0.0413386,-0.204457 0.115067,-0.278283 0.0737283,-0.0738228 0.174287,-0.11535 0.278634,-0.115417l7.65717 0 0 25.2937 -7.65717 0c-0.104346,6.69291e-005 -0.204457,-0.0413346 -0.278283,-0.115063 -0.0738228,-0.0737283 -0.11535,-0.174287 -0.115417,-0.278638m0.50998 -0.882717c-0.0706693,0 -0.127957,0.0572874 -0.127957,0.127953 0,0.0706654 0.0572874,0.127953 0.127957,0.127953 0.0706654,0 0.127949,-0.0572874 0.127949,-0.127953 0,-0.0706654 -0.0572835,-0.127953 -0.127949,-0.127953zm0 -1.1811c-0.0706693,0 -0.127957,0.0572874 -0.127957,0.127953 0,0.0706654 0.0572874,0.127953 0.127957,0.127953 0.0706654,0 0.127949,-0.0572874 0.127949,-0.127953 0,-0.0706654 -0.0572835,-0.127953 -0.127949,-0.127953zm0 -20.6346c-0.0706693,0 -0.127957,0.0572874 -0.127957,0.127953 0,0.0706654 0.0572874,0.127953 0.127957,0.127953 0.0706654,0 0.127949,-0.0572874 0.127949,-0.127953 0,-0.0706654 -0.0572835,-0.127953 -0.127949,-0.127953zm0 -1.1811c-0.0706693,0 -0.127957,0.0572874 -0.127957,0.127953 0,0.0706654 0.0572874,0.127953 0.127957,0.127953 0.0706654,0 0.127949,-0.0572874 0.127949,-0.127953 0,-0.0706654 -0.0572835,-0.127953 -0.127949,-0.127953zm6.31589 11.2513c0.207106,0 0.375,0.167894 0.375,0.375 0,0.207106 -0.167894,0.375 -0.375,0.375 -0.207106,0 -0.375,-0.167894 -0.375,-0.375 0,-0.207106 0.167894,-0.375 0.375,-0.375z"/>
  <path class="fil0 str1" d="M43.3389 31.834l6.10237 0c0.216535,0 0.393701,0.177161 0.393701,0.393701l0 3.34646c0,0.216539 -0.177165,0.393701 -0.393701,0.393701l-6.10237 0c-0.216535,0 -0.393697,-0.177161 -0.393697,-0.393701l0 -3.34646c0,-0.216539 0.177161,-0.393701 0.393697,-0.393701zm-0.0984213 0.226378c0.0380512,0 0.0688976,0.0308465 0.0688976,0.0688976 0,0.0380512 -0.0308465,0.0688976 -0.0688976,0.0688976 -0.0380512,0 -0.0688976,-0.0308465 -0.0688976,-0.0688976 0,-0.0380512 0.0308465,-0.0688976 0.0688976,-0.0688976zm0 3.54331c0.0380512,0 0.0688976,0.0308465 0.0688976,0.0688976 0,0.0380512 -0.0308465,0.0688976 -0.0688976,0.0688976 -0.0380512,0 -0.0688976,-0.0308465 -0.0688976,-0.0688976 0,-0.0380512 0.0308465,-0.0688976 0.0688976,-0.0688976zm6.30264 -3.54331c0.0380512,0 0.0688976,0.0308465 0.0688976,0.0688976 0,0.0380512 -0.0308465,0.0688976 -0.0688976,0.0688976 -0.0380512,0 -0.0688976,-0.0308465 -0.0688976,-0.0688976 0,-0.0380512 0.0308465,-0.0688976 0.0688976,-0.0688976zm0 3.54331c0.0380512,0 0.0688976,0.0308465 0.0688976,0.0688976 0,0.0380512 -0.0308465,0.0688976 -0.0688976,0.0688976 -0.0380512,0 -0.0688976,-0.0308465 -0.0688976,-0.0688976 0,-0.0380512 0.0308465,-0.0688976 0.0688976,-0.0688976z"/>
  <path class="fil0 str0" d="M57.1442 33.8392l0.295276 0 0 0.295276 -0.295276 0 0 -0.295276zm0 -0.885827l0.295276 0 0 0.295276 -0.295276 0 0 -0.295276zm0.147638 0.324803c0.141327,0 0.255906,0.114579 0.255906,0.255906 0,0.141327 -0.114579,0.255906 -0.255906,0.255906 -0.141327,0 -0.255906,-0.114579 -0.255906,-0.255906 0,-0.141327 0.114579,-0.255906 0.255906,-0.255906zm-5.25 -0.818898l4.80709 0 0 3.05454 -4.80709 0 0 -3.05454zm4.91757 2.86363c0.0380512,0 0.0688976,0.0308465 0.0688976,0.0688976 0,0.0380512 -0.0308465,0.0688976 -0.0688976,0.0688976 -0.0380512,0 -0.0688976,-0.0308465 -0.0688976,-0.0688976 0,-0.0380512 0.0308465,-0.0688976 0.0688976,-0.0688976zm-5.01969 0c0.0380512,0 0.0688976,0.0308465 0.0688976,0.0688976 0,0.0380512 -0.0308465,0.0688976 -0.0688976,0.0688976 -0.0380512,0 -0.0688976,-0.0308465 -0.0688976,-0.0688976 0,-0.0380512 0.0308465,-0.0688976 0.0688976,-0.0688976zm5.01969 -2.7908c0.0380512,0 0.0688976,0.0308465 0.0688976,0.0688976 0,0.0380512 -0.0308465,0.0688976 -0.0688976,0.0688976 -0.0380512,0 -0.0688976,-0.0308465 -0.0688976,-0.0688976 0,-0.0380512 0.0308465,-0.0688976 0.0688976,-0.0688976zm-5.01969 0c0.0380512,0 0.0688976,0.0308465 0.0688976,0.0688976 0,0.0380512 -0.0308465,0.0688976 -0.0688976,0.0688976 -0.0380512,0 -0.0688976,-0.0308465 -0.0688976,-0.0688976 0,-0.0380512 0.0308465,-0.0688976 0.0688976,-0.0688976zm-0.375126 -0.639047l6.10237 0c0.216535,0 0.393701,0.177161 0.393701,0.393701l0 3.34646c0,0.216539 -0.177165,0.393701 -0.393701,0.393701l-6.10237 0c-0.216535,0 -0.393697,-0.177161 -0.393697,-0.393701l0 -3.34646c0,-0.216539 0.177161,-0.393701 0.393697,-0.393701zm-0.0984213 0.226378c0.0380512,0 0.0688976,0.0308465 0.0688976,0.0688976 0,0.0380512 -0.0308465,0.0688976 -0.0688976,0.0688976 -0.0380512,0 -0.0688976,-0.0308465 -0.0688976,-0.0688976 0,-0.0380512 0.0308465,-0.0688976 0.0688976,-0.0688976zm0 3.54331c0.0380512,0 0.0688976,0.0308465 0.0688976,0.0688976 0,0.0380512 -0.0308465,0.0688976 -0.0688976,0.0688976 -0.0380512,0 -0.0688976,-0.0308465 -0.0688976,-0.0688976 0,-0.0380512 0.0308465,-0.0688976 0.0688976,-0.0688976zm6.30264 -3.54331c0.0380512,0 0.0688976,0.0308465 0.0688976,0.0688976 0,0.0380512 -0.0308465,0.0688976 -0.0688976,0.0688976 -0.0380512,0 -0.0688976,-0.0308465 -0.0688976,-0.0688976 0,-0.0380512 0.0308465,-0.0688976 0.0688976,-0.0688976zm0 3.54331c0.0380512,0 0.0688976,0.0308465 0.0688976,0.0688976 0,0.0380512 -0.0308465,0.0688976 -0.0688976,0.0688976 -0.0380512,0 -0.0688976,-0.0308465 -0.0688976,-0.0688976 0,-0.0380512 0.0308465,-0.0688976 0.0688976,-0.0688976z"/>
  <path class="fil0 str2" d="M34.6215 30.7881l0 -2.32283c0,0 -3.93701e-006,0 -3.93701e-006,0l-4.1339 0 0 1.575c0,0.0687559 -0.056248,0.125004 -0.125,0.125004l-3.25 0c-0.068752,0 -0.125,-0.056248 -0.125,-0.125004l0 -1.575 3.93701e-006 0 -4.13391 0 0 2.32283m11.5906 -0.501965c0.0380512,0 0.0688976,-0.0308504 0.0688976,-0.0688976 0,-0.0380512 -0.0308465,-0.0688976 -0.0688976,-0.0688976 -0.0380512,-3.93701e-006 -0.0688976,0.0308425 -0.0688976,0.0688937 0,0.0380512 0.0308465,0.0688976 0.0688976,0.0688976l0 3.93701e-006zm0 -1.1811c0.0380512,0 0.0688976,-0.0308504 0.0688976,-0.0688976 0,-0.0380512 -0.0308465,-0.0688976 -0.0688976,-0.0688976 -0.0380512,-3.93701e-006 -0.0688976,0.0308425 -0.0688976,0.0688937 0,0.0380512 0.0308465,0.0688976 0.0688976,0.0688976l0 3.93701e-006zm-11.4135 1.18109c0.0380512,0 0.0688976,-0.0308465 0.0688976,-0.0688937 0,-0.0380512 -0.0308465,-0.0688976 -0.0688976,-0.0688976 -0.0380512,-3.93701e-006 -0.0688976,0.0308425 -0.0688976,0.0688937 0,0.0380512 0.0308465,0.0688976 0.0688976,0.0688976zm0 -1.1811c0.0380512,0 0.0688976,-0.0308465 0.0688976,-0.0688937 0,-0.0380512 -0.0308465,-0.0688976 -0.0688976,-0.0688976 -0.0380512,-3.93701e-006 -0.0688976,0.0308425 -0.0688976,0.0688937 0,0.0380512 0.0308465,0.0688976 0.0688976,0.0688976zm-0.177165 1.68307l11.7678 0"/>
  <path class="fil0 str2" d="M32.8135 13.778l-3.07087 0c-0.0210945,0 -0.0405906,-0.0112559 -0.0511417,-0.0295276 -0.0105472,-0.0182717 -0.0105472,-0.0407835 0,-0.0590551 0.0105512,-0.0182717 0.0300472,-0.0295276 0.0511417,-0.0295276l3.07087 0c0.0210945,0 0.0405906,0.0112559 0.0511417,0.0295276 0.0105472,0.0182717 0.0105472,0.0407835 0,0.0590551 -0.0105512,0.0182717 -0.0300472,0.0295276 -0.0511417,0.0295276zm-7.52574 -1.69576c-0.235409,0.200524 -0.582031,0.20002 -0.817295,-0.000673228l0.0559409 -0.0558228c0.204421,0.170402 0.500996,0.170811 0.705535,0.000555118l0.0558189 0.0559409zm-0.761669 -0.902677l-0.0558071 -0.0559291c0.235925,-0.201795 0.584177,-0.201102 0.819744,0.00111024l-0.0559252 0.0558071c-0.204752,-0.171906 -0.502933,-0.1725 -0.708012,-0.000988189zm0.607606 0.608933l-0.0565197 -0.0566457c0.0509685,-0.0779488 0.0514685,-0.178461 0.00117323,-0.256846l0.0567047 -0.0565827c0.0797126,0.110567 0.0790906,0.260039 -0.00135827,0.370075zm-0.732862 0.223504c-0.201606,-0.235453 -0.201453,-0.583059 -0.000153543,-0.818776l0.055815 0.0559409c-0.170992,0.204882 -0.171063,0.502425 0.000267717,0.707031l-0.0559291 0.0558031zm0.956665 0.000787402l-0.0558071 -0.0559291c0.171307,-0.204291 0.172248,-0.5015 0.00180709,-0.706512l0.0559409 -0.0558189c0.200713,0.235882 0.199673,0.583146 -0.00194094,0.81826zm-0.111677 -0.111921l-0.0559724 -0.0560945c0.110571,-0.141764 0.111303,-0.340165 0.00151969,-0.482539l0.0561181 -0.056c0.139898,0.173602 0.139059,0.421701 -0.00166535,0.594634zm-0.226122 -0.226618l-0.0620394 -0.0621693c0.000685039,-0.0056063 0.000767717,-0.0112677 0.000240157,-0.0168898l0.0627126 -0.0625748c0.0221457,0.0446732 0.0217913,0.0972402 -0.000913386,0.141634zm-0.395142 -0.256657l0.0565669 0.0566929c-0.0506732,0.0784409 -0.0504724,0.179252 0.00061811,0.257421l-0.0566339 0.0565079c-0.0805472,-0.110268 -0.0806969,-0.260059 -0.000551181,-0.370622zm-0.112177 -0.112421l0.0559921 0.0561181c-0.110264,0.142319 -0.110177,0.341047 0.000468504,0.483075l-0.0560906 0.0559646c-0.140776,-0.173217 -0.140783,-0.421646 -0.000370079,-0.595157zm0.0700354 0.664689l0.0561181 -0.0559961c0.141839,0.109693 0.339626,0.109933 0.481528,0.000314961l0.0559921 0.0561181c-0.17313,0.139717 -0.420598,0.139394 -0.593638,-0.000437008zm0.36913 -0.50737l-0.0620669 0.0619291c-0.0064252,-0.000818898 -0.0129252,-0.00084252 -0.0193583,-7.08661e-005l-0.0620394 -0.0621732c0.0450787,-0.0229488 0.0984803,-0.0228189 0.143465,0.000314961zm0.226563 -0.226071l-0.0560906 0.0559685c-0.142244,-0.111142 -0.341591,-0.111555 -0.484087,-0.00073622l-0.0559724 -0.0560945c0.173689,-0.140953 0.422752,-0.140449 0.59615,0.000862205zm-0.112358 0.112114l-0.0566299 0.0565079c-0.0784803,-0.0514764 -0.179874,-0.0517047 -0.258512,-0.000468504l-0.0565236 -0.0566417c0.11074,-0.0807087 0.261134,-0.0803898 0.371665,0.000602362zm-0.327043 0.183457l0.0624606 0.0625984c-0.000598425,0.00590551 -0.000527559,0.0118543 0.000212598,0.0177402l-0.0620669 0.0619291c-0.0228346,-0.0446063 -0.0230433,-0.0974606 -0.000606299,-0.142268zm0.0705827 0.211492l0.0627126 -0.0625787c0.00507874,0.000488189 0.010189,0.000476378 0.0152638,-2.3622e-005l0.0624646 0.0625984c-0.0442047,0.0220315 -0.0962283,0.0220197 -0.140441,3.93701e-006zm-0.114441 0.114189l0.0567047 -0.0565827c0.0779055,0.0501732 0.177839,0.050248 0.255756,9.44882e-005l0.0565709 0.0566929c-0.110098,0.0795512 -0.258969,0.0793976 -0.369031,-0.000204724zm0.883024 0.376594c0,-0.0380512 -0.0308504,-0.0688976 -0.0688976,-0.0688976 -0.0380512,0 -0.0688976,0.0308465 -0.0688976,0.0688976 -3.93701e-006,0.0380512 0.0308425,0.0688976 0.0688937,0.0688976 0.0380512,0 0.0688976,-0.0308465 0.0688976,-0.0688976l3.93701e-006 0zm0.00137008 -1.25984c0,-0.0380512 -0.0308465,-0.0688976 -0.0688976,-0.0688976 -0.0380512,0 -0.0688976,0.0308465 -0.0688976,0.0688976 0,0.0380512 0.0308465,0.0688976 0.0688976,0.0688976 0.0380512,0 0.0688976,-0.0308465 0.0688976,-0.0688976zm-1.26121 1.25847c0,-0.0380512 -0.0308465,-0.0688976 -0.0688937,-0.0688976 -0.0380512,-3.93701e-006 -0.0688976,0.0308425 -0.0688976,0.0688937 -3.93701e-006,0.0380512 0.0308425,0.0688976 0.0688937,0.0688976 0.0380512,3.93701e-006 0.0688976,-0.0308425 0.0688976,-0.0688937zm8.49547 -2.47626l-3.07087 0c-0.0210945,0 -0.0405906,-0.0112559 -0.0511417,-0.0295276 -0.0105472,-0.0182717 -0.0105472,-0.0407835 0,-0.0590551 0.0105512,-0.0182717 0.0300472,-0.0295276 0.0511417,-0.0295276l3.07087 0c0.0210945,0 0.0405906,0.0112559 0.0511417,0.0295276 0.0105472,0.0182717 0.0105472,0.0407835 0,0.0590551 -0.0105512,0.0182717 -0.0300472,0.0295276 -0.0511417,0.0295276zm0 1.23735l-3.07087 0c-0.0210945,0 -0.0405906,-0.0112559 -0.0511417,-0.0295276 -0.0105472,-0.0182717 -0.0105472,-0.0407835 0,-0.0590551 0.0105512,-0.0182717 0.0300472,-0.0295276 0.0511417,-0.0295276l3.07087 0c0.0210945,0 0.0405906,0.0112559 0.0511417,0.0295276 0.0105472,0.0182717 0.0105472,0.0407835 0,0.0590551 -0.0105512,0.0182717 -0.0300472,0.0295276 -0.0511417,0.0295276zm0 1.23734l-3.07087 0c-0.0210945,0 -0.0405906,-0.0112559 -0.0511417,-0.0295276 -0.0105472,-0.0182717 -0.0105472,-0.0407835 0,-0.0590551 0.0105512,-0.0182717 0.0300472,-0.0295276 0.0511417,-0.0295276l3.07087 0c0.0210945,0 0.0405906,0.0112559 0.0511417,0.0295276 0.0105472,0.0182717 0.0105472,0.0407835 0,0.0590551 -0.0105512,0.0182717 -0.0300472,0.0295276 -0.0511417,0.0295276zm0 1.23734l-3.07087 0c-0.0210945,0 -0.0405906,-0.011252 -0.0511417,-0.0295276 -0.0105472,-0.0182717 -0.0105472,-0.0407795 0,-0.0590551 0.0105512,-0.0182717 0.0300472,-0.0295276 0.0511417,-0.0295276l3.07087 0c0.0210945,0 0.0405906,0.0112559 0.0511417,0.0295276 0.0105472,0.0182756 0.0105472,0.0407835 0,0.0590551 -0.0105512,0.0182756 -0.0300472,0.0295276 -0.0511417,0.0295276zm0 -0.928008l-3.07087 0c-0.0210945,0 -0.0405906,-0.0112559 -0.0511417,-0.0295276 -0.0105472,-0.0182717 -0.0105472,-0.0407835 0,-0.0590551 0.0105512,-0.0182717 0.0300472,-0.0295276 0.0511417,-0.0295276l3.07087 0c0.0210945,0 0.0405906,0.0112559 0.0511417,0.0295276 0.0105472,0.0182717 0.0105472,0.0407835 0,0.0590551 -0.0105512,0.0182717 -0.0300472,0.0295276 -0.0511417,0.0295276zm0 -1.23735l-3.07087 0c-0.0210945,0 -0.0405906,-0.011252 -0.0511417,-0.0295276 -0.0105472,-0.0182717 -0.0105472,-0.0407756 0,-0.0590512 0.0105512,-0.0182717 0.0300472,-0.0295276 0.0511417,-0.0295276l3.07087 0c0.0210945,0 0.0405906,0.0112559 0.0511417,0.0295276 0.0105472,0.0182756 0.0105472,0.0407795 0,0.0590512 -0.0105512,0.0182756 -0.0300472,0.0295276 -0.0511417,0.0295276zm0 -1.23734l-3.07087 0c-0.0210945,0 -0.0405906,-0.0112559 -0.0511417,-0.0295276 -0.0105472,-0.0182717 -0.0105472,-0.0407835 0,-0.0590551 0.0105512,-0.0182717 0.0300472,-0.0295276 0.0511417,-0.0295276l3.07087 0c0.0210945,0 0.0405906,0.0112559 0.0511417,0.0295276 0.0105472,0.0182717 0.0105472,0.0407835 0,0.0590551 -0.0105512,0.0182717 -0.0300472,0.0295276 -0.0511417,0.0295276zm0 -0.618673l-3.07087 0c-0.0210945,0 -0.0405906,-0.0112559 -0.0511417,-0.0295276 -0.0105472,-0.0182717 -0.0105472,-0.0407835 0,-0.0590551 0.0105512,-0.0182717 0.0300472,-0.0295276 0.0511417,-0.0295276l3.07087 0c0.0210945,0 0.0405906,0.0112559 0.0511417,0.0295276 0.0105472,0.0182717 0.0105472,0.0407835 0,0.0590551 -0.0105512,0.0182717 -0.0300472,0.0295276 -0.0511417,0.0295276zm0 1.23735l-3.07087 0c-0.0210945,0 -0.0405906,-0.0112559 -0.0511417,-0.0295276 -0.0105472,-0.0182717 -0.0105472,-0.0407835 0,-0.0590551 0.0105512,-0.0182717 0.0300472,-0.0295276 0.0511417,-0.0295276l3.07087 0c0.0210945,0 0.0405906,0.0112559 0.0511417,0.0295276 0.0105472,0.0182717 0.0105472,0.0407835 0,0.0590551 -0.0105512,0.0182717 -0.0300472,0.0295276 -0.0511417,0.0295276zm0 1.23734l-3.07087 0c-0.0210945,0 -0.0405906,-0.0112559 -0.0511417,-0.0295276 -0.0105472,-0.0182717 -0.0105472,-0.0407835 0,-0.0590551 0.0105512,-0.0182717 0.0300472,-0.0295276 0.0511417,-0.0295276l3.07087 0c0.0210945,0 0.0405906,0.0112559 0.0511417,0.0295276 0.0105472,0.0182717 0.0105472,0.0407835 0,0.0590551 -0.0105512,0.0182717 -0.0300472,0.0295276 -0.0511417,0.0295276zm0 1.23735l-3.07087 0c-0.0210945,0 -0.0405906,-0.0112559 -0.0511417,-0.0295276 -0.0105472,-0.0182717 -0.0105472,-0.0407835 0,-0.0590551 0.0105512,-0.0182717 0.0300472,-0.0295276 0.0511417,-0.0295276l3.07087 0c0.0210945,0 0.0405906,0.0112559 0.0511417,0.0295276 0.0105472,0.0182717 0.0105472,0.0407835 0,0.0590551 -0.0105512,0.0182717 -0.0300472,0.0295276 -0.0511417,0.0295276zm0 -0.309335l-3.07087 0c-0.0210945,0 -0.0405906,-0.0112559 -0.0511417,-0.0295276 -0.0105472,-0.0182717 -0.0105472,-0.0407835 0,-0.0590551 0.0105512,-0.0182717 0.0300472,-0.0295276 0.0511417,-0.0295276l3.07087 0c0.0210945,0 0.0405906,0.0112559 0.0511417,0.0295276 0.0105472,0.0182717 0.0105472,0.0407835 0,0.0590551 -0.0105512,0.0182717 -0.0300472,0.0295276 -0.0511417,0.0295276zm0 -1.23735l-3.07087 0c-0.0210945,0 -0.0405906,-0.0112559 -0.0511417,-0.0295276 -0.0105472,-0.0182717 -0.0105472,-0.0407835 0,-0.0590551 0.0105512,-0.0182717 0.0300472,-0.0295276 0.0511417,-0.0295276l3.07087 0c0.0210945,0 0.0405906,0.0112559 0.0511417,0.0295276 0.0105472,0.0182717 0.0105472,0.0407835 0,0.0590551 -0.0105512,0.0182717 -0.0300472,0.0295276 -0.0511417,0.0295276zm0 -1.23734l-3.07087 0c-0.0210945,0 -0.0405906,-0.0112559 -0.0511417,-0.0295276 -0.0105472,-0.0182717 -0.0105472,-0.0407835 0,-0.0590551 0.0105512,-0.0182717 0.0300472,-0.0295276 0.0511417,-0.0295276l3.07087 0c0.0210945,0 0.0405906,0.0112559 0.0511417,0.0295276 0.0105472,0.0182717 0.0105472,0.0407835 0,0.0590551 -0.0105512,0.0182717 -0.0300472,0.0295276 -0.0511417,0.0295276zm-3.07087 -1.35546l3.07087 0c0.0210945,0 0.0405906,0.0112559 0.0511417,0.0295276 0.0105472,0.0182756 0.0105472,0.0407835 0,0.0590551 -0.0105512,0.0182756 -0.0300472,0.0295276 -0.0511417,0.0295276l-3.07087 0c-0.0210945,0 -0.0405906,-0.011252 -0.0511417,-0.0295276 -0.0105472,-0.0182717 -0.0105472,-0.0407795 0,-0.0590551 0.0105512,-0.0182717 0.0300472,-0.0295276 0.0511417,-0.0295276zm-4.45487 1.29074c-0.235409,0.200524 -0.582031,0.20002 -0.817295,-0.000673228l0.0559409 -0.0558228c0.204421,0.170402 0.500996,0.170811 0.705535,0.000555118l0.0558189 0.0559409zm-0.761669 -0.902677l-0.0558071 -0.0559291c0.235925,-0.201795 0.584177,-0.201102 0.819744,0.00111024l-0.0559252 0.0558071c-0.204752,-0.171906 -0.502933,-0.1725 -0.708012,-0.000988189zm0.607606 0.608933l-0.0565197 -0.0566457c0.0509685,-0.0779488 0.0514685,-0.178461 0.00117323,-0.256846l0.0567047 -0.0565827c0.0797126,0.110567 0.0790906,0.260039 -0.00135827,0.370075zm-0.732862 0.223504c-0.201606,-0.235453 -0.201453,-0.583059 -0.000153543,-0.818776l0.055815 0.0559409c-0.170992,0.204882 -0.171063,0.502425 0.000267717,0.707031l-0.0559291 0.0558031zm0.956665 0.000787402l-0.0558071 -0.0559291c0.171307,-0.204291 0.172248,-0.5015 0.00180709,-0.706512l0.0559409 -0.0558189c0.200713,0.235882 0.199673,0.583146 -0.00194094,0.81826zm-0.111677 -0.111921l-0.0559724 -0.0560945c0.110571,-0.141764 0.111303,-0.340165 0.00151969,-0.482539l0.0561181 -0.056c0.139898,0.173602 0.139059,0.421701 -0.00166535,0.594634zm-0.226122 -0.226618l-0.0620394 -0.0621693c0.000685039,-0.0056063 0.000767717,-0.0112677 0.000240157,-0.0168898l0.0627126 -0.0625748c0.0221457,0.0446732 0.0217913,0.0972402 -0.000913386,0.141634zm-0.395142 -0.256657l0.0565669 0.0566929c-0.0506732,0.0784409 -0.0504724,0.179252 0.00061811,0.257421l-0.0566339 0.0565079c-0.0805472,-0.110268 -0.0806969,-0.260059 -0.000551181,-0.370622zm-0.112177 -0.112421l0.0559921 0.0561181c-0.110264,0.142319 -0.110177,0.341047 0.000468504,0.483075l-0.0560906 0.0559646c-0.140776,-0.173217 -0.140783,-0.421646 -0.000370079,-0.595157zm0.0700354 0.664689l0.0561181 -0.0559961c0.141839,0.109693 0.339626,0.109933 0.481528,0.000314961l0.0559921 0.0561181c-0.17313,0.139717 -0.420598,0.139394 -0.593638,-0.000437008zm0.36913 -0.50737l-0.0620669 0.0619291c-0.0064252,-0.000818898 -0.0129252,-0.00084252 -0.0193583,-7.08661e-005l-0.0620394 -0.0621732c0.0450787,-0.0229488 0.0984803,-0.0228189 0.143465,0.000314961zm0.226563 -0.226071l-0.0560906 0.0559685c-0.142244,-0.111142 -0.341591,-0.111555 -0.484087,-0.00073622l-0.0559724 -0.0560945c0.173689,-0.140953 0.422752,-0.140449 0.59615,0.000862205zm-0.112358 0.112114l-0.0566299 0.0565079c-0.0784803,-0.0514764 -0.179874,-0.0517047 -0.258512,-0.000468504l-0.0565236 -0.0566417c0.11074,-0.0807087 0.261134,-0.0803898 0.371665,0.000602362zm-0.327043 0.183457l0.0624606 0.0625984c-0.000598425,0.00590551 -0.000527559,0.0118543 0.000212598,0.0177402l-0.0620669 0.0619291c-0.0228346,-0.0446063 -0.0230433,-0.0974606 -0.000606299,-0.142268zm0.0705827 0.211492l0.0627126 -0.0625787c0.00507874,0.000488189 0.010189,0.000476378 0.0152638,-2.3622e-005l0.0624646 0.0625984c-0.0442047,0.0220315 -0.0962283,0.0220197 -0.140441,3.93701e-006zm-0.114441 0.114189l0.0567047 -0.0565827c0.0779055,0.0501732 0.177839,0.050248 0.255756,9.44882e-005l0.0565709 0.0566929c-0.110098,0.0795512 -0.258969,0.0793976 -0.369031,-0.000204724zm0.883024 0.376594c0,-0.0380512 -0.0308504,-0.0688976 -0.0688976,-0.0688976 -0.0380512,0 -0.0688976,0.0308465 -0.0688976,0.0688976 -3.93701e-006,0.0380512 0.0308425,0.0688976 0.0688937,0.0688976 0.0380512,0 0.0688976,-0.0308465 0.0688976,-0.0688976l3.93701e-006 0zm0.00137008 -1.25984c0,-0.0380512 -0.0308465,-0.0688976 -0.0688976,-0.0688976 -0.0380512,0 -0.0688976,0.0308465 -0.0688976,0.0688976 0,0.0380512 0.0308465,0.0688976 0.0688976,0.0688976 0.0380512,0 0.0688976,-0.0308465 0.0688976,-0.0688976zm-1.26121 1.25847c0,-0.0380512 -0.0308465,-0.0688976 -0.0688937,-0.0688976 -0.0380512,-3.93701e-006 -0.0688976,0.0308425 -0.0688976,0.0688937 -3.93701e-006,0.0380512 0.0308425,0.0688976 0.0688937,0.0688976 0.0380512,3.93701e-006 0.0688976,-0.0308425 0.0688976,-0.0688937zm-2.26241 15.2953c0,-0.0380472 0.0308504,-0.0688937 0.0688976,-0.0688937 0.0380512,-3.93701e-006 0.0688976,0.0308425 0.0688976,0.0688937 3.93701e-006,0.0380512 -0.0308425,0.0688976 -0.0688937,0.0688976 -0.0380512,3.93701e-006 -0.0688976,-0.0308425 -0.0688976,-0.0688937l-3.93701e-006 -3.93701e-006zm-1.1811e-005 -18.0905c0,-0.0380512 0.0308465,-0.0688976 0.0688976,-0.0688976 0.0380512,-3.93701e-006 0.0688976,0.0308425 0.0688976,0.0688937 0,0.0380512 -0.0308465,0.0688976 -0.0688976,0.0689016 -0.0380512,0 -0.0688976,-0.0308465 -0.0688976,-0.0688976zm12.5984 -3.93701e-006c0,-0.0380472 0.0308504,-0.0688937 0.0688976,-0.0688937 0.0380512,-3.93701e-006 0.0688976,0.0308425 0.0688976,0.0688937 3.93701e-006,0.0380512 -0.0308425,0.0688976 -0.0688937,0.0688976 -0.0380512,3.93701e-006 -0.0688976,-0.0308425 -0.0688976,-0.0688937l-3.93701e-006 -3.93701e-006zm-10.4724 1.53543c0,-0.0380472 0.0308504,-0.0688937 0.0688976,-0.0688937 0.0380512,-3.93701e-006 0.0688976,0.0308425 0.0688976,0.0688937 3.93701e-006,0.0380512 -0.0308425,0.0688976 -0.0688937,0.0688976 -0.0380512,3.93701e-006 -0.0688976,-0.0308425 -0.0688976,-0.0688937l-3.93701e-006 -3.93701e-006zm3.93701e-006 1.77165c0,-0.0380472 0.0308465,-0.0688937 0.0688937,-0.0688937 0.0380512,-3.93701e-006 0.0688976,0.0308425 0.0688976,0.0688937 3.93701e-006,0.0380512 -0.0308425,0.0688976 -0.0688937,0.0688976 -0.0380512,3.93701e-006 -0.0688976,-0.0308425 -0.0688976,-0.0688937l0 -3.93701e-006zm10.4724 14.8031c0,-0.0380472 0.0308465,-0.0688937 0.0688937,-0.0688937 0.0380512,-3.93701e-006 0.0688976,0.0308425 0.0688976,0.0688937 3.93701e-006,0.0380512 -0.0308425,0.0688976 -0.0688937,0.0688976 -0.0380512,3.93701e-006 -0.0688976,-0.0308425 -0.0688976,-0.0688937l0 -3.93701e-006zm-11.4806 -9.42689c-0.011815,0.0100591 -0.0191969,0.0243622 -0.0205472,0.0398189m1.28621 -0.0398189c-0.364748,-0.310524 -0.900913,-0.310524 -1.26566,0m1.28621 0.0398189c-0.00135039,-0.0154567 -0.00873228,-0.0297598 -0.0205472,-0.0398189m-0.0143701 0.377343c0.0165591,0 0.0323543,-0.00694882 0.0435394,-0.0191575 0.011189,-0.0122047 0.0167362,-0.0285472 0.0152913,-0.0450433m-1.35458 0c-0.00144488,0.0164961 0.00410236,0.0328386 0.0152913,0.0450433 0.011185,0.0122087 0.0269803,0.0191575 0.0435394,0.0191575m1.35111 0.566913c-0.00487008,0.0177677 -0.00117323,0.0367874 0.00999606,0.0514331 0.0111693,0.0146457 0.0285354,0.0232402 0.0469567,0.0232402m-0.0569528 -0.0746732c0.0310236,-0.11313 0.0354291,-0.231909 0.0128661,-0.347028m0.0579528 -0.0704173c-0.0176535,0 -0.0343819,0.0078937 -0.0455984,0.0215236 -0.0112205,0.0136299 -0.015752,0.0315669 -0.0123543,0.0488898m0.236232 -0.0212874c-0.00483858,-0.028374 -0.0294291,-0.049126 -0.0582126,-0.049126m0.0454173 0.446713c0.0309606,-0.130319 0.035311,-0.265539 0.0127992,-0.397583m-0.0702559 0.442988c0.0273583,0 0.0511339,-0.0187874 0.0574567,-0.0454055m-1.71447 -0.376299c0.00339764,-0.0173228 -0.00113386,-0.0352598 -0.0123543,-0.0488898 -0.0112165,-0.0136299 -0.0279449,-0.0215236 -0.0455984,-0.0215236m0.0579528 0.0704134c-0.022563,0.115118 -0.0181575,0.233898 0.0128661,0.347031m-0.0569528 0.0746732c0.0184213,0 0.0357874,-0.00859449 0.0469567,-0.0232402 0.0111693,-0.0146457 0.0148661,-0.0336654 0.00999606,-0.0514291m-0.236303 0.0292638c0.00632283,0.0266181 0.0300984,0.0454055 0.0574567,0.0454055m-0.070252 -0.442992c-0.0225157,0.132043 -0.0181654,0.267268 0.0127953,0.397587m0.0454173 -0.446713c-0.0287835,0 -0.053374,0.020752 -0.0582126,0.049126m0.32837 -0.536118l-0.0239134 0.273323m1.35458 0l-0.0239134 -0.273323m-1.27184 0.337524l1.23692 0m0.171142 0.641587l0.121894 0m0.0120394 -0.492122l-0.120067 0m-1.60694 0l-0.120067 0m0.0120394 0.492122l0.121894 0m9.39274 -1.01893c-0.011815,0.0100591 -0.0191969,0.0243622 -0.0205472,0.0398189m1.28621 -0.0398189c-0.364748,-0.310524 -0.900913,-0.310524 -1.26566,0m1.28621 0.0398189c-0.00135039,-0.0154567 -0.00873228,-0.0297598 -0.0205472,-0.0398189m-0.0143701 0.377343c0.0165591,0 0.0323543,-0.00694882 0.0435394,-0.0191575 0.011189,-0.0122047 0.0167362,-0.0285472 0.0152913,-0.0450433m-1.35458 0c-0.00144488,0.0164961 0.00410236,0.0328386 0.0152913,0.0450433 0.011185,0.0122087 0.0269803,0.0191575 0.0435394,0.0191575m1.35111 0.566913c-0.00487008,0.0177677 -0.00117323,0.0367874 0.00999606,0.0514331 0.0111693,0.0146457 0.0285354,0.0232402 0.0469567,0.0232402m-0.0569528 -0.0746732c0.0310236,-0.11313 0.0354291,-0.231909 0.0128661,-0.347028m0.0579528 -0.0704173c-0.0176535,0 -0.0343819,0.0078937 -0.0455984,0.0215236 -0.0112205,0.0136299 -0.015752,0.0315669 -0.0123543,0.0488898m0.236232 -0.0212874c-0.00483858,-0.028374 -0.0294291,-0.049126 -0.0582126,-0.049126m0.0454173 0.446713c0.0309606,-0.130319 0.035311,-0.265539 0.0127992,-0.397583m-0.0702559 0.442988c0.0273583,0 0.0511339,-0.0187874 0.0574567,-0.0454055m-1.71447 -0.376299c0.00339764,-0.0173228 -0.00113386,-0.0352598 -0.0123543,-0.0488898 -0.0112165,-0.0136299 -0.0279449,-0.0215236 -0.0455984,-0.0215236m0.0579528 0.0704134c-0.022563,0.115118 -0.0181575,0.233898 0.0128661,0.347031m-0.0569528 0.0746732c0.0184213,0 0.0357874,-0.00859449 0.0469567,-0.0232402 0.0111693,-0.0146457 0.0148661,-0.0336654 0.00999606,-0.0514291m-0.236303 0.0292638c0.00632283,0.0266181 0.0300984,0.0454055 0.0574567,0.0454055m-0.070252 -0.442992c-0.0225157,0.132043 -0.0181654,0.267268 0.0127953,0.397587m0.0454173 -0.446713c-0.0287835,0 -0.053374,0.020752 -0.0582126,0.049126m0.32837 -0.536118l-0.0239134 0.273323m1.35458 0l-0.0239134 -0.273323m-1.27184 0.337524l1.23692 0m0.171142 0.641587l0.121894 0m0.0120394 -0.492122l-0.120067 0m-1.60694 0l-0.120067 0m0.0120394 0.492122l0.121894 0m-10.9156 -9.89912c0.000102362,-0.15672 0.0624528,-0.306984 0.173343,-0.417736 0.11089,-0.110748 0.260488,-0.172913 0.417209,-0.172815l12.9921 0c0.15672,0.000102362 0.306984,0.0624528 0.417736,0.173343 0.110748,0.11089 0.172913,0.260488 0.172815,0.417209l0 18.5039c-0.000102362,0.156724 -0.0624528,0.306988 -0.173343,0.41774 -0.11089,0.110748 -0.260488,0.172913 -0.417209,0.172811l-12.9921 0c-0.15672,-9.84252e-005 -0.306984,-0.0624488 -0.417736,-0.173339 -0.110748,-0.11089 -0.172913,-0.260488 -0.172815,-0.417213m0 -18.5039l0 18.5039"/>
  <path class="fil0 str2" d="M5.15937 7.42003l0 10.6299m0 -10.6299c0.000102362,-0.15672 0.0624528,-0.306984 0.173343,-0.417736 0.11089,-0.110748 0.260488,-0.172913 0.417209,-0.172815l12.9921 0c0.15672,0.000102362 0.306984,0.0624528 0.417736,0.173343 0.110748,0.11089 0.172913,0.260488 0.172815,0.417209l0 10.6299c-0.000102362,0.156724 -0.0624528,0.306992 -0.173343,0.41774 -0.110886,0.110748 -0.260488,0.172913 -0.417209,0.172811l-12.9921 0c-0.15672,-9.84252e-005 -0.306988,-0.0624488 -0.417736,-0.173339 -0.110748,-0.110886 -0.172913,-0.260488 -0.172815,-0.417213m10.7937 -2.81367l0.121894 0m-0.0138661 -0.492122l-0.120067 0m1.84707 0l-0.120067 0m-0.0138661 0.492122l0.121894 0m-1.52996 -0.641587l1.23692 0m0.0588307 -0.0642008l-0.0239134 -0.273323m-1.30676 0l-0.0239134 0.273323m-0.246244 0.213669c-0.0287835,0 -0.053374,0.020752 -0.0582126,0.049126m0 0c-0.0225157,0.132043 -0.0181654,0.267268 0.0127953,0.397587m0 0c0.00632283,0.0266181 0.0300984,0.0454055 0.0574567,0.0454055m0.121894 0c0.0184213,0 0.0357874,-0.00859449 0.0469567,-0.0232402 0.0111693,-0.0146457 0.0148661,-0.0336654 0.00999606,-0.0514291m-0.0128661 -0.347035c-0.022563,0.115118 -0.0181575,0.233898 0.0128661,0.347031m-0.0128661 -0.347031c0.00339764,-0.0173228 -0.00113386,-0.0352598 -0.0123543,-0.0488898 -0.0112165,-0.0136299 -0.0279449,-0.0215236 -0.0455984,-0.0215236m1.71496 0.492118c0.0273583,0 0.0511339,-0.0187874 0.0574567,-0.0454055m0 0c0.0309606,-0.130319 0.035311,-0.265539 0.0127992,-0.397583m-3.93701e-006 -3.93701e-006c-0.00483858,-0.028374 -0.0294291,-0.049126 -0.0582126,-0.049126m-0.120067 0c-0.0176535,0 -0.0343819,0.0078937 -0.0455984,0.0215236 -0.0112205,0.0136299 -0.015752,0.0315669 -0.0123543,0.0488898m-0.0128661 0.347031c0.0310236,-0.11313 0.0354291,-0.231909 0.0128661,-0.347028m-0.0128661 0.347028c-0.00487008,0.0177677 -0.00117323,0.0367874 0.00999606,0.0514331 0.0111693,0.0146457 0.0285354,0.0232402 0.0469567,0.0232402m-1.46689 -0.705787c-0.00144488,0.0164961 0.00410236,0.0328386 0.0152913,0.0450433 0.011185,0.0122087 0.0269803,0.0191575 0.0435394,0.0191575m1.23692 0c0.0165591,0 0.0323543,-0.00694882 0.0435394,-0.0191575 0.011189,-0.0122047 0.0167362,-0.0285472 0.0152913,-0.0450433m-0.0239134 -0.273323c-0.00135039,-0.0154567 -0.00873228,-0.0297598 -0.0205472,-0.0398189m0 0c-0.364748,-0.310524 -0.900913,-0.310524 -1.26566,0m0 0c-0.011815,0.0100591 -0.0191969,0.0243622 -0.0205472,0.0398189m-9.49408 0.994787l0.121894 0m-0.0138661 -0.492122l-0.120067 0m1.84707 0l-0.120067 0m-0.0138661 0.492122l0.121894 0m-1.52996 -0.641587l1.23692 0m0.0588307 -0.0642008l-0.0239134 -0.273323m-1.30676 0l-0.0239134 0.273323m-0.246244 0.213669c-0.0287835,0 -0.053374,0.020752 -0.0582126,0.049126m0 0c-0.0225157,0.132043 -0.0181654,0.267268 0.0127953,0.397587m0 0c0.00632283,0.0266181 0.0300984,0.0454055 0.0574567,0.0454055m0.121894 0c0.0184213,0 0.0357874,-0.00859449 0.0469567,-0.0232402 0.0111693,-0.0146457 0.0148661,-0.0336654 0.00999606,-0.0514291m-0.0128661 -0.347035c-0.022563,0.115118 -0.0181575,0.233898 0.0128661,0.347031m-0.0128661 -0.347031c0.00339764,-0.0173228 -0.00113386,-0.0352598 -0.0123543,-0.0488898 -0.0112165,-0.0136299 -0.0279449,-0.0215236 -0.0455984,-0.0215236m1.71496 0.492118c0.0273583,0 0.0511339,-0.0187874 0.0574567,-0.0454055m0 0c0.0309606,-0.130319 0.035311,-0.265539 0.0127992,-0.397583m-3.93701e-006 -3.93701e-006c-0.00483858,-0.028374 -0.0294291,-0.049126 -0.0582126,-0.049126m-0.120067 0c-0.0176535,0 -0.0343819,0.0078937 -0.0455984,0.0215236 -0.0112205,0.0136299 -0.015752,0.0315669 -0.0123543,0.0488898m-0.0128661 0.347031c0.0310236,-0.11313 0.0354291,-0.231909 0.0128661,-0.347028m-0.0128661 0.347028c-0.00487008,0.0177677 -0.00117323,0.0367874 0.00999606,0.0514331 0.0111693,0.0146457 0.0285354,0.0232402 0.0469567,0.0232402m-1.46689 -0.705787c-0.00144488,0.0164961 0.00410236,0.0328386 0.0152913,0.0450433 0.011185,0.0122087 0.0269803,0.0191575 0.0435394,0.0191575m1.23692 0c0.0165591,0 0.0323543,-0.00694882 0.0435394,-0.0191575 0.011189,-0.0122047 0.0167362,-0.0285472 0.0152913,-0.0450433m-0.0239134 -0.273323c-0.00135039,-0.0154567 -0.00873228,-0.0297598 -0.0205472,-0.0398189m0 0c-0.364748,-0.310524 -0.900913,-0.310524 -1.26566,0m0 0c-0.011815,0.0100591 -0.0191969,0.0243622 -0.0205472,0.0398189m11.5011 3.58025c0,-0.0380472 0.0308465,-0.0688937 0.0688937,-0.0688937 0.0380512,-3.93701e-006 0.0688976,0.0308425 0.0688976,0.0688937 3.93701e-006,0.0380512 -0.0308425,0.0688976 -0.0688937,0.0688976 -0.0380512,3.93701e-006 -0.0688976,-0.0308425 -0.0688976,-0.0688937l0 -3.93701e-006zm-10.4724 -6.92913c0,-0.0380472 0.0308465,-0.0688937 0.0688937,-0.0688937 0.0380512,-3.93701e-006 0.0688976,0.0308425 0.0688976,0.0688937 3.93701e-006,0.0380512 -0.0308425,0.0688976 -0.0688937,0.0688976 -0.0380512,3.93701e-006 -0.0688976,-0.0308425 -0.0688976,-0.0688937l0 -3.93701e-006zm-3.93701e-006 -1.77165c0,-0.0380472 0.0308504,-0.0688937 0.0688976,-0.0688937 0.0380512,-3.93701e-006 0.0688976,0.0308425 0.0688976,0.0688937 3.93701e-006,0.0380512 -0.0308425,0.0688976 -0.0688937,0.0688976 -0.0380512,3.93701e-006 -0.0688976,-0.0308425 -0.0688976,-0.0688937l-3.93701e-006 -3.93701e-006zm10.4724 -1.53543c0,-0.0380472 0.0308504,-0.0688937 0.0688976,-0.0688937 0.0380512,-3.93701e-006 0.0688976,0.0308425 0.0688976,0.0688937 3.93701e-006,0.0380512 -0.0308425,0.0688976 -0.0688937,0.0688976 -0.0380512,3.93701e-006 -0.0688976,-0.0308425 -0.0688976,-0.0688937l-3.93701e-006 -3.93701e-006zm-12.5984 3.93701e-006c0,-0.0380512 0.0308465,-0.0688976 0.0688976,-0.0688976 0.0380512,-3.93701e-006 0.0688976,0.0308425 0.0688976,0.0688937 0,0.0380512 -0.0308465,0.0688976 -0.0688976,0.0689016 -0.0380512,0 -0.0688976,-0.0308465 -0.0688976,-0.0688976zm1.1811e-005 10.2165c0,-0.0380472 0.0308504,-0.0688937 0.0688976,-0.0688937 0.0380512,-3.93701e-006 0.0688976,0.0308425 0.0688976,0.0688937 3.93701e-006,0.0380512 -0.0308425,0.0688976 -0.0688937,0.0688976 -0.0380512,3.93701e-006 -0.0688976,-0.0308425 -0.0688976,-0.0688937l-3.93701e-006 -3.93701e-006zm2.26241 -7.42126c0,-0.0380512 -0.0308465,-0.0688976 -0.0688937,-0.0688976 -0.0380512,-3.93701e-006 -0.0688976,0.0308425 -0.0688976,0.0688937 -3.93701e-006,0.0380512 0.0308425,0.0688976 0.0688937,0.0688976 0.0380512,3.93701e-006 0.0688976,-0.0308425 0.0688976,-0.0688937zm1.26121 -1.25847c0,-0.0380512 -0.0308465,-0.0688976 -0.0688976,-0.0688976 -0.0380512,0 -0.0688976,0.0308465 -0.0688976,0.0688976 0,0.0380512 0.0308465,0.0688976 0.0688976,0.0688976 0.0380512,0 0.0688976,-0.0308465 0.0688976,-0.0688976zm-0.00137008 1.25984c0,-0.0380512 -0.0308504,-0.0688976 -0.0688976,-0.0688976 -0.0380512,0 -0.0688976,0.0308465 -0.0688976,0.0688976 -3.93701e-006,0.0380512 0.0308425,0.0688976 0.0688937,0.0688976 0.0380512,0 0.0688976,-0.0308465 0.0688976,-0.0688976l3.93701e-006 0zm-0.883024 -0.376594l0.0567047 -0.0565827c0.0779055,0.0501732 0.177839,0.050248 0.255756,9.44882e-005l0.0565709 0.0566929c-0.110098,0.0795512 -0.258969,0.0793976 -0.369031,-0.000204724zm0.114441 -0.114189l0.0627126 -0.0625787c0.00507874,0.000488189 0.010189,0.000476378 0.0152638,-2.3622e-005l0.0624646 0.0625984c-0.0442047,0.0220315 -0.0962283,0.0220197 -0.140441,3.93701e-006zm-0.0705827 -0.211492l0.0624606 0.0625984c-0.000598425,0.00590551 -0.000527559,0.0118543 0.000212598,0.0177402l-0.0620669 0.0619291c-0.0228346,-0.0446063 -0.0230433,-0.0974606 -0.000606299,-0.142268zm0.327043 -0.183457l-0.0566299 0.0565079c-0.0784803,-0.0514764 -0.179874,-0.0517047 -0.258512,-0.000468504l-0.0565236 -0.0566417c0.11074,-0.0807087 0.261134,-0.0803898 0.371665,0.000602362zm0.112358 -0.112114l-0.0560906 0.0559685c-0.142244,-0.111142 -0.341591,-0.111555 -0.484087,-0.00073622l-0.0559724 -0.0560945c0.173689,-0.140953 0.422752,-0.140449 0.59615,0.000862205zm-0.226563 0.226071l-0.0620669 0.0619291c-0.0064252,-0.000818898 -0.0129252,-0.00084252 -0.0193583,-7.08661e-005l-0.0620394 -0.0621732c0.0450787,-0.0229488 0.0984803,-0.0228189 0.143465,0.000314961zm-0.36913 0.50737l0.0561181 -0.0559961c0.141839,0.109693 0.339626,0.109933 0.481528,0.000314961l0.0559921 0.0561181c-0.17313,0.139717 -0.420598,0.139394 -0.593638,-0.000437008zm-0.0700354 -0.664689l0.0559921 0.0561181c-0.110264,0.142319 -0.110177,0.341047 0.000468504,0.483075l-0.0560906 0.0559646c-0.140776,-0.173217 -0.140783,-0.421646 -0.000370079,-0.595157zm0.112177 0.112421l0.0565669 0.0566929c-0.0506732,0.0784409 -0.0504724,0.179252 0.00061811,0.257421l-0.0566339 0.0565079c-0.0805472,-0.110268 -0.0806969,-0.260059 -0.000551181,-0.370622zm0.395142 0.256657l-0.0620394 -0.0621693c0.000685039,-0.0056063 0.000767717,-0.0112677 0.000240157,-0.0168898l0.0627126 -0.0625748c0.0221457,0.0446732 0.0217913,0.0972402 -0.000913386,0.141634zm0.226122 0.226618l-0.0559724 -0.0560945c0.110571,-0.141764 0.111303,-0.340165 0.00151969,-0.482539l0.0561181 -0.056c0.139898,0.173602 0.139059,0.421701 -0.00166535,0.594634zm0.111677 0.111921l-0.0558071 -0.0559291c0.171307,-0.204291 0.172248,-0.5015 0.00180709,-0.706512l0.0559409 -0.0558189c0.200713,0.235882 0.199673,0.583146 -0.00194094,0.81826zm-0.956665 -0.000787402c-0.201606,-0.235453 -0.201453,-0.583059 -0.000153543,-0.818776l0.055815 0.0559409c-0.170992,0.204882 -0.171063,0.502425 0.000267717,0.707031l-0.0559291 0.0558031zm0.732862 -0.223504l-0.0565197 -0.0566457c0.0509685,-0.0779488 0.0514685,-0.178461 0.00117323,-0.256846l0.0567047 -0.0565827c0.0797126,0.110567 0.0790906,0.260039 -0.00135827,0.370075zm-0.607606 -0.608933l-0.0558071 -0.0559291c0.235925,-0.201795 0.584177,-0.201102 0.819744,0.00111024l-0.0559252 0.0558071c-0.204752,-0.171906 -0.502933,-0.1725 -0.708012,-0.000988189zm0.761669 0.902677c-0.235409,0.200524 -0.582031,0.20002 -0.817295,-0.000673228l0.0559409 -0.0558228c0.204421,0.170402 0.500996,0.170811 0.705535,0.000555118l0.0558189 0.0559409zm4.45487 -1.29074l3.07087 0c0.0210945,0 0.0405906,0.0112559 0.0511417,0.0295276 0.0105472,0.0182756 0.0105472,0.0407835 0,0.0590551 -0.0105512,0.0182756 -0.0300472,0.0295276 -0.0511417,0.0295276l-3.07087 0c-0.0210945,0 -0.0405906,-0.011252 -0.0511417,-0.0295276 -0.0105472,-0.0182717 -0.0105472,-0.0407795 0,-0.0590551 0.0105512,-0.0182717 0.0300472,-0.0295276 0.0511417,-0.0295276zm3.07087 1.35546l-3.07087 0c-0.0210945,0 -0.0405906,-0.0112559 -0.0511417,-0.0295276 -0.0105472,-0.0182717 -0.0105472,-0.0407835 0,-0.0590551 0.0105512,-0.0182717 0.0300472,-0.0295276 0.0511417,-0.0295276l3.07087 0c0.0210945,0 0.0405906,0.0112559 0.0511417,0.0295276 0.0105472,0.0182717 0.0105472,0.0407835 0,0.0590551 -0.0105512,0.0182717 -0.0300472,0.0295276 -0.0511417,0.0295276zm0 1.23734l-3.07087 0c-0.0210945,0 -0.0405906,-0.0112559 -0.0511417,-0.0295276 -0.0105472,-0.0182717 -0.0105472,-0.0407835 0,-0.0590551 0.0105512,-0.0182717 0.0300472,-0.0295276 0.0511417,-0.0295276l3.07087 0c0.0210945,0 0.0405906,0.0112559 0.0511417,0.0295276 0.0105472,0.0182717 0.0105472,0.0407835 0,0.0590551 -0.0105512,0.0182717 -0.0300472,0.0295276 -0.0511417,0.0295276zm0 1.23735l-3.07087 0c-0.0210945,0 -0.0405906,-0.0112559 -0.0511417,-0.0295276 -0.0105472,-0.0182717 -0.0105472,-0.0407835 0,-0.0590551 0.0105512,-0.0182717 0.0300472,-0.0295276 0.0511417,-0.0295276l3.07087 0c0.0210945,0 0.0405906,0.0112559 0.0511417,0.0295276 0.0105472,0.0182717 0.0105472,0.0407835 0,0.0590551 -0.0105512,0.0182717 -0.0300472,0.0295276 -0.0511417,0.0295276zm0 -0.928012l-3.07087 0c-0.0210945,0 -0.0405906,-0.0112559 -0.0511417,-0.0295276 -0.0105472,-0.0182717 -0.0105472,-0.0407835 0,-0.0590551 0.0105512,-0.0182717 0.0300472,-0.0295276 0.0511417,-0.0295276l3.07087 0c0.0210945,0 0.0405906,0.0112559 0.0511417,0.0295276 0.0105472,0.0182717 0.0105472,0.0407835 0,0.0590551 -0.0105512,0.0182717 -0.0300472,0.0295276 -0.0511417,0.0295276zm0 -1.23734l-3.07087 0c-0.0210945,0 -0.0405906,-0.0112559 -0.0511417,-0.0295276 -0.0105472,-0.0182717 -0.0105472,-0.0407835 0,-0.0590551 0.0105512,-0.0182717 0.0300472,-0.0295276 0.0511417,-0.0295276l3.07087 0c0.0210945,0 0.0405906,0.0112559 0.0511417,0.0295276 0.0105472,0.0182717 0.0105472,0.0407835 0,0.0590551 -0.0105512,0.0182717 -0.0300472,0.0295276 -0.0511417,0.0295276zm0 -1.23735l-3.07087 0c-0.0210945,0 -0.0405906,-0.0112559 -0.0511417,-0.0295276 -0.0105472,-0.0182717 -0.0105472,-0.0407835 0,-0.0590551 0.0105512,-0.0182717 0.0300472,-0.0295276 0.0511417,-0.0295276l3.07087 0c0.0210945,0 0.0405906,0.0112559 0.0511417,0.0295276 0.0105472,0.0182717 0.0105472,0.0407835 0,0.0590551 -0.0105512,0.0182717 -0.0300472,0.0295276 -0.0511417,0.0295276zm0 0.618673l-3.07087 0c-0.0210945,0 -0.0405906,-0.0112559 -0.0511417,-0.0295276 -0.0105472,-0.0182717 -0.0105472,-0.0407835 0,-0.0590551 0.0105512,-0.0182717 0.0300472,-0.0295276 0.0511417,-0.0295276l3.07087 0c0.0210945,0 0.0405906,0.0112559 0.0511417,0.0295276 0.0105472,0.0182717 0.0105472,0.0407835 0,0.0590551 -0.0105512,0.0182717 -0.0300472,0.0295276 -0.0511417,0.0295276zm0 1.23734l-3.07087 0c-0.0210945,0 -0.0405906,-0.011252 -0.0511417,-0.0295276 -0.0105472,-0.0182717 -0.0105472,-0.0407756 0,-0.0590512 0.0105512,-0.0182717 0.0300472,-0.0295276 0.0511417,-0.0295276l3.07087 0c0.0210945,0 0.0405906,0.0112559 0.0511417,0.0295276 0.0105472,0.0182756 0.0105472,0.0407795 0,0.0590512 -0.0105512,0.0182756 -0.0300472,0.0295276 -0.0511417,0.0295276zm0 1.23735l-3.07087 0c-0.0210945,0 -0.0405906,-0.0112559 -0.0511417,-0.0295276 -0.0105472,-0.0182717 -0.0105472,-0.0407835 0,-0.0590551 0.0105512,-0.0182717 0.0300472,-0.0295276 0.0511417,-0.0295276l3.07087 0c0.0210945,0 0.0405906,0.0112559 0.0511417,0.0295276 0.0105472,0.0182717 0.0105472,0.0407835 0,0.0590551 -0.0105512,0.0182717 -0.0300472,0.0295276 -0.0511417,0.0295276zm0 -0.309335l-3.07087 0c-0.0210945,0 -0.0405906,-0.0112559 -0.0511417,-0.0295276 -0.0105472,-0.0182717 -0.0105472,-0.0407835 0,-0.0590551 0.0105512,-0.0182717 0.0300472,-0.0295276 0.0511417,-0.0295276l3.07087 0c0.0210945,0 0.0405906,0.0112559 0.0511417,0.0295276 0.0105472,0.0182717 0.0105472,0.0407835 0,0.0590551 -0.0105512,0.0182717 -0.0300472,0.0295276 -0.0511417,0.0295276zm0 -1.23734l-3.07087 0c-0.0210945,0 -0.0405906,-0.0112559 -0.0511417,-0.0295276 -0.0105472,-0.0182717 -0.0105472,-0.0407835 0,-0.0590551 0.0105512,-0.0182717 0.0300472,-0.0295276 0.0511417,-0.0295276l3.07087 0c0.0210945,0 0.0405906,0.0112559 0.0511417,0.0295276 0.0105472,0.0182717 0.0105472,0.0407835 0,0.0590551 -0.0105512,0.0182717 -0.0300472,0.0295276 -0.0511417,0.0295276zm0 -1.23735l-3.07087 0c-0.0210945,0 -0.0405906,-0.0112559 -0.0511417,-0.0295276 -0.0105472,-0.0182717 -0.0105472,-0.0407835 0,-0.0590551 0.0105512,-0.0182717 0.0300472,-0.0295276 0.0511417,-0.0295276l3.07087 0c0.0210945,0 0.0405906,0.0112559 0.0511417,0.0295276 0.0105472,0.0182717 0.0105472,0.0407835 0,0.0590551 -0.0105512,0.0182717 -0.0300472,0.0295276 -0.0511417,0.0295276zm-8.49547 2.47626c0,-0.0380512 -0.0308465,-0.0688976 -0.0688937,-0.0688976 -0.0380512,-3.93701e-006 -0.0688976,0.0308425 -0.0688976,0.0688937 -3.93701e-006,0.0380512 0.0308425,0.0688976 0.0688937,0.0688976 0.0380512,3.93701e-006 0.0688976,-0.0308425 0.0688976,-0.0688937zm1.26121 -1.25847c0,-0.0380512 -0.0308465,-0.0688976 -0.0688976,-0.0688976 -0.0380512,0 -0.0688976,0.0308465 -0.0688976,0.0688976 0,0.0380512 0.0308465,0.0688976 0.0688976,0.0688976 0.0380512,0 0.0688976,-0.0308465 0.0688976,-0.0688976zm-0.00137008 1.25984c0,-0.0380512 -0.0308504,-0.0688976 -0.0688976,-0.0688976 -0.0380512,0 -0.0688976,0.0308465 -0.0688976,0.0688976 -3.93701e-006,0.0380512 0.0308425,0.0688976 0.0688937,0.0688976 0.0380512,0 0.0688976,-0.0308465 0.0688976,-0.0688976l3.93701e-006 0zm-0.883024 -0.376594l0.0567047 -0.0565827c0.0779055,0.0501732 0.177839,0.050248 0.255756,9.44882e-005l0.0565709 0.0566929c-0.110098,0.0795512 -0.258969,0.0793976 -0.369031,-0.000204724zm0.114441 -0.114189l0.0627126 -0.0625787c0.00507874,0.000488189 0.010189,0.000476378 0.0152638,-2.3622e-005l0.0624646 0.0625984c-0.0442047,0.0220315 -0.0962283,0.0220197 -0.140441,3.93701e-006zm-0.0705827 -0.211492l0.0624606 0.0625984c-0.000598425,0.00590551 -0.000527559,0.0118543 0.000212598,0.0177402l-0.0620669 0.0619291c-0.0228346,-0.0446063 -0.0230433,-0.0974606 -0.000606299,-0.142268zm0.327043 -0.183457l-0.0566299 0.0565079c-0.0784803,-0.0514764 -0.179874,-0.0517047 -0.258512,-0.000468504l-0.0565236 -0.0566417c0.11074,-0.0807087 0.261134,-0.0803898 0.371665,0.000602362zm0.112358 -0.112114l-0.0560906 0.0559685c-0.142244,-0.111142 -0.341591,-0.111555 -0.484087,-0.00073622l-0.0559724 -0.0560945c0.173689,-0.140953 0.422752,-0.140449 0.59615,0.000862205zm-0.226563 0.226071l-0.0620669 0.0619291c-0.0064252,-0.000818898 -0.0129252,-0.00084252 -0.0193583,-7.08661e-005l-0.0620394 -0.0621732c0.0450787,-0.0229488 0.0984803,-0.0228189 0.143465,0.000314961zm-0.36913 0.50737l0.0561181 -0.0559961c0.141839,0.109693 0.339626,0.109933 0.481528,0.000314961l0.0559921 0.0561181c-0.17313,0.139717 -0.420598,0.139394 -0.593638,-0.000437008zm-0.0700354 -0.664689l0.0559921 0.0561181c-0.110264,0.142319 -0.110177,0.341047 0.000468504,0.483075l-0.0560906 0.0559646c-0.140776,-0.173217 -0.140783,-0.421646 -0.000370079,-0.595157zm0.112177 0.112421l0.0565669 0.0566929c-0.0506732,0.0784409 -0.0504724,0.179252 0.00061811,0.257421l-0.0566339 0.0565079c-0.0805472,-0.110268 -0.0806969,-0.260059 -0.000551181,-0.370622zm0.395142 0.256657l-0.0620394 -0.0621693c0.000685039,-0.0056063 0.000767717,-0.0112677 0.000240157,-0.0168898l0.0627126 -0.0625748c0.0221457,0.0446732 0.0217913,0.0972402 -0.000913386,0.141634zm0.226122 0.226618l-0.0559724 -0.0560945c0.110571,-0.141764 0.111303,-0.340165 0.00151969,-0.482539l0.0561181 -0.056c0.139898,0.173602 0.139059,0.421701 -0.00166535,0.594634zm0.111677 0.111921l-0.0558071 -0.0559291c0.171307,-0.204291 0.172248,-0.5015 0.00180709,-0.706512l0.0559409 -0.0558189c0.200713,0.235882 0.199673,0.583146 -0.00194094,0.81826zm-0.956665 -0.000787402c-0.201606,-0.235453 -0.201453,-0.583059 -0.000153543,-0.818776l0.055815 0.0559409c-0.170992,0.204882 -0.171063,0.502425 0.000267717,0.707031l-0.0559291 0.0558031zm0.732862 -0.223504l-0.0565197 -0.0566457c0.0509685,-0.0779488 0.0514685,-0.178461 0.00117323,-0.256846l0.0567047 -0.0565827c0.0797126,0.110567 0.0790906,0.260039 -0.00135827,0.370075zm-0.607606 -0.608933l-0.0558071 -0.0559291c0.235925,-0.201795 0.584177,-0.201102 0.819744,0.00111024l-0.0559252 0.0558071c-0.204752,-0.171906 -0.502933,-0.1725 -0.708012,-0.000988189zm0.761669 0.902677c-0.235409,0.200524 -0.582031,0.20002 -0.817295,-0.000673228l0.0559409 -0.0558228c0.204421,0.170402 0.500996,0.170811 0.705535,0.000555118l0.0558189 0.0559409z"/>
  <path class="fil0 str0" d="M10.6877 32.0408c0.207106,0 0.375,0.167894 0.375,0.375 0,0.207106 -0.167894,0.375 -0.375,0.375 -0.207106,0 -0.375,-0.167894 -0.375,-0.375 0,-0.207106 0.167894,-0.375 0.375,-0.375zm-6.31589 -11.2513c-0.0706693,0 -0.127957,0.0572874 -0.127957,0.127953 0,0.0706654 0.0572874,0.127953 0.127957,0.127953 0.0706654,0 0.127949,-0.0572874 0.127949,-0.127953 0,-0.0706654 -0.0572835,-0.127953 -0.127949,-0.127953zm0 1.1811c-0.0706693,0 -0.127957,0.0572874 -0.127957,0.127953 0,0.0706654 0.0572874,0.127953 0.127957,0.127953 0.0706654,0 0.127949,-0.0572874 0.127949,-0.127953 0,-0.0706654 -0.0572835,-0.127953 -0.127949,-0.127953zm0 10.2646c-0.0706693,0 -0.127957,0.0572874 -0.127957,0.127953 0,0.0706654 0.0572874,0.127953 0.127957,0.127953 0.0706654,0 0.127949,-0.0572874 0.127949,-0.127953 0,-0.0706654 -0.0572835,-0.127953 -0.127949,-0.127953zm0 1.1811c-0.0706693,0 -0.127957,0.0572874 -0.127957,0.127953 0,0.0706654 0.0572874,0.127953 0.127957,0.127953 0.0706654,0 0.127949,-0.0572874 0.127949,-0.127953 0,-0.0706654 -0.0572835,-0.127953 -0.127949,-0.127953zm-0.50998 -13.2536c-6.29921e-005,-0.104346 0.0413386,-0.204457 0.115067,-0.278283 0.0737283,-0.0738228 0.174287,-0.11535 0.278634,-0.115417l7.65717 0 0 14.9237 -7.65717 0c-0.104346,6.69291e-005 -0.204484,-0.0413622 -0.278283,-0.115063 -0.0737953,-0.0737008 -0.11535,-0.174287 -0.115417,-0.278638m0 -14.1363l0 14.1363"/>
  <path class="fil0 str0" d="M20.4848 20.1627l0 14.1363m0 -14.1363c6.29921e-005,-0.104346 -0.0413386,-0.204457 -0.115067,-0.278283 -0.0737283,-0.0738228 -0.174287,-0.11535 -0.278634,-0.115417l-7.65717 0 0 14.9237 7.65717 0c0.104346,6.69291e-005 0.204484,-0.0413622 0.278283,-0.115063 0.0737953,-0.0737008 0.11535,-0.174287 0.115417,-0.278638m-0.50998 -0.882717c0.0706693,0 0.127957,0.0572874 0.127957,0.127953 0,0.0706654 -0.0572874,0.127953 -0.127957,0.127953 -0.0706654,0 -0.127949,-0.0572874 -0.127949,-0.127953 0,-0.0706654 0.0572835,-0.127953 0.127949,-0.127953zm0 -1.1811c0.0706693,0 0.127957,0.0572874 0.127957,0.127953 0,0.0706654 -0.0572874,0.127953 -0.127957,0.127953 -0.0706654,0 -0.127949,-0.0572874 -0.127949,-0.127953 0,-0.0706654 0.0572835,-0.127953 0.127949,-0.127953zm0 -10.2646c0.0706693,0 0.127957,0.0572874 0.127957,0.127953 0,0.0706654 -0.0572874,0.127953 -0.127957,0.127953 -0.0706654,0 -0.127949,-0.0572874 -0.127949,-0.127953 0,-0.0706654 0.0572835,-0.127953 0.127949,-0.127953zm0 -1.1811c0.0706693,0 0.127957,0.0572874 0.127957,0.127953 0,0.0706654 -0.0572874,0.127953 -0.127957,0.127953 -0.0706654,0 -0.127949,-0.0572874 -0.127949,-0.127953 0,-0.0706654 0.0572835,-0.127953 0.127949,-0.127953zm-6.31589 11.2513c-0.207106,0 -0.375,0.167894 -0.375,0.375 0,0.207106 0.167894,0.375 0.375,0.375 0.207106,0 0.375,-0.167894 0.375,-0.375 0,-0.207106 -0.167894,-0.375 -0.375,-0.375zm5.48964 -6.87791c0.0380512,0 0.0688976,0.0308465 0.0688976,0.0688976 0,0.0380512 -0.0308465,0.0688976 -0.0688976,0.0688976 -0.0380512,0 -0.0688976,-0.0308465 -0.0688976,-0.0688976 0,-0.0380512 0.0308465,-0.0688976 0.0688976,-0.0688976zm0 -0.413386c0.0163071,0 0.0295276,0.0132205 0.0295276,0.0295276 0,0.0163071 -0.0132205,0.0295276 -0.0295276,0.0295276 -0.0163071,0 -0.0295276,-0.0132205 -0.0295276,-0.0295276 0,-0.0163071 0.0132205,-0.0295276 0.0295276,-0.0295276zm0 -0.472441c0.0380512,0 0.0688976,0.0308465 0.0688976,0.0688976 0,0.0380512 -0.0308465,0.0688976 -0.0688976,0.0688976 -0.0380512,0 -0.0688976,-0.0308465 -0.0688976,-0.0688976 0,-0.0380512 0.0308465,-0.0688976 0.0688976,-0.0688976zm-5.25 -0.572835l4.80709 0 0 2.97244 -4.80709 0 0 -2.97244zm4.91757 2.86363c0.0380512,0 0.0688976,0.0308465 0.0688976,0.0688976 0,0.0380512 -0.0308465,0.0688976 -0.0688976,0.0688976 -0.0380512,0 -0.0688976,-0.0308465 -0.0688976,-0.0688976 0,-0.0380512 0.0308465,-0.0688976 0.0688976,-0.0688976zm-5.01969 0c0.0380512,0 0.0688976,0.0308465 0.0688976,0.0688976 0,0.0380512 -0.0308465,0.0688976 -0.0688976,0.0688976 -0.0380512,0 -0.0688976,-0.0308465 -0.0688976,-0.0688976 0,-0.0380512 0.0308465,-0.0688976 0.0688976,-0.0688976zm5.01969 -2.7908c0.0380512,0 0.0688976,0.0308465 0.0688976,0.0688976 0,0.0380512 -0.0308465,0.0688976 -0.0688976,0.0688976 -0.0380512,0 -0.0688976,-0.0308465 -0.0688976,-0.0688976 0,-0.0380512 0.0308465,-0.0688976 0.0688976,-0.0688976zm-5.01969 0c0.0380512,0 0.0688976,0.0308465 0.0688976,0.0688976 0,0.0380512 -0.0308465,0.0688976 -0.0688976,0.0688976 -0.0380512,0 -0.0688976,-0.0308465 -0.0688976,-0.0688976 0,-0.0380512 0.0308465,-0.0688976 0.0688976,-0.0688976zm-0.473547 -0.412669c0.0380512,0 0.0688976,0.0308465 0.0688976,0.0688976 0,0.0380512 -0.0308465,0.0688976 -0.0688976,0.0688976 -0.0380512,0 -0.0688976,-0.0308465 -0.0688976,-0.0688976 0,-0.0380512 0.0308465,-0.0688976 0.0688976,-0.0688976zm0 3.54331c0.0380512,0 0.0688976,0.0308465 0.0688976,0.0688976 0,0.0380512 -0.0308465,0.0688976 -0.0688976,0.0688976 -0.0380512,0 -0.0688976,-0.0308465 -0.0688976,-0.0688976 0,-0.0380512 0.0308465,-0.0688976 0.0688976,-0.0688976zm6.30264 -3.54331c0.0380512,0 0.0688976,0.0308465 0.0688976,0.0688976 0,0.0380512 -0.0308465,0.0688976 -0.0688976,0.0688976 -0.0380512,0 -0.0688976,-0.0308465 -0.0688976,-0.0688976 0,-0.0380512 0.0308465,-0.0688976 0.0688976,-0.0688976zm0 3.54331c0.0380512,0 0.0688976,0.0308465 0.0688976,0.0688976 0,0.0380512 -0.0308465,0.0688976 -0.0688976,0.0688976 -0.0380512,0 -0.0688976,-0.0308465 -0.0688976,-0.0688976 0,-0.0380512 0.0308465,-0.0688976 0.0688976,-0.0688976z"/>
 </g>
</svg>
