  0
SECTION
  2
HEADER
  9
$ACADVER
  1
AC1009
  9
$EXTMAX
 10
227.375
 20
222.375
 30
0.0
  9
$EXTMIN
 10
-227.375
 20
-222.375
 30
0.0
  9
$INSUNITS
 70
     4
  9
$LUNITS
 70
     2
  9
$LUPREC
 70
     4
  9
$MEASUREMENT
 70
     1
  0
ENDSEC
  0
SECTION
  2
TABLES
  0
TABLE
  2
LAYER
 70
     1
  0
LAYER
  2
0
 70
     0
 62
    70
  6
Continuous
  0
ENDTAB
  0
TABLE
  2
APPID
 70
     1
  0
APPID
  2
ACAD
 70
     0
  0
ENDTAB
  0
ENDSEC
  0
SECTION
  2
ENTITIES
  0
POLYLINE
  8
0
 66
     1
 10
0.0
 20
0.0
 30
0.0
 70
     1
  0
VERTEX
  8
0
 10
-25.9444
 20
89.4444
 42
-35.6336593026126
  0
VERTEX
  8
0
 10
-25.78
 20
89.6283
 42
0.0
  0
SEQEND
  0
POLYLINE
  8
0
 66
     1
 10
0.0
 20
0.0
 30
0.0
 70
     1
  0
VERTEX
  8
0
 10
-87.3322
 20
214.062
 42
-27.1187408552419
  0
VERTEX
  8
0
 10
-87.2107
 20
214.278
 42
0.0
  0
SEQEND
  0
POLYLINE
  8
0
 66
     1
 10
0.0
 20
0.0
 30
0.0
 70
     1
  0
VERTEX
  8
0
 10
-184.68
 20
-181.756
 42
-23.7465248892277
  0
VERTEX
  8
0
 10
-184.484
 20
-181.604
 42
0.0
  0
SEQEND
  0
POLYLINE
  8
0
 66
     1
 10
0.0
 20
0.0
 30
0.0
 70
     1
  0
VERTEX
  8
0
 10
-44.4821
 20
-110.045
 42
-35.7074977036245
  0
VERTEX
  8
0
 10
-44.5765
 20
-110.273
 42
0.0
  0
SEQEND
  0
POLYLINE
  8
0
 66
     1
 10
0.0
 20
0.0
 30
0.0
 70
     1
  0
VERTEX
  8
0
 10
90.1678
 20
214.062
 42
-27.1187408641414
  0
VERTEX
  8
0
 10
90.2893
 20
214.278
 42
0.0
  0
SEQEND
  0
POLYLINE
  8
0
 66
     1
 10
0.0
 20
0.0
 30
0.0
 70
     1
  0
VERTEX
  8
0
 10
-219.451
 20
-87.8589
 42
-27.5228952219352
  0
VERTEX
  8
0
 10
-219.223
 20
-87.7619
 42
0.0
  0
SEQEND
  0
POLYLINE
  8
0
 66
     1
 10
0.0
 20
0.0
 30
0.0
 70
     1
  0
VERTEX
  8
0
 10
41.8999
 20
-125.428
 42
-23.3320444535435
  0
VERTEX
  8
0
 10
41.7
 20
-125.288
 42
0.0
  0
SEQEND
  0
POLYLINE
  8
0
 66
     1
 10
0.0
 20
0.0
 30
0.0
 70
     1
  0
VERTEX
  8
0
 10
1.41779
 20
-215.938
 42
-27.1746320409454
  0
VERTEX
  8
0
 10
1.53926
 20
-215.722
 42
0.0
  0
SEQEND
  0
POLYLINE
  8
0
 66
     1
 10
0.0
 20
0.0
 30
0.0
 70
     1
  0
VERTEX
  8
0
 10
99.8999
 20
-176.572
 42
-22.8858614355783
  0
VERTEX
  8
0
 10
100.072
 20
-176.4
 42
0.0
  0
SEQEND
  0
POLYLINE
  8
0
 66
     1
 10
0.0
 20
0.0
 30
0.0
 70
     1
  0
VERTEX
  8
0
 10
-176.082
 20
214.062
 42
-27.7543847556751
  0
VERTEX
  8
0
 10
-175.961
 20
214.278
 42
0.0
  0
SEQEND
  0
POLYLINE
  8
0
 66
     1
 10
0.0
 20
0.0
 30
0.0
 70
     1
  0
VERTEX
  8
0
 10
-176.082
 20
-215.938
 42
-27.7543847781352
  0
VERTEX
  8
0
 10
-175.961
 20
-215.722
 42
0.0
  0
SEQEND
  0
POLYLINE
  8
0
 66
     1
 10
0.0
 20
0.0
 30
0.0
 70
     1
  0
VERTEX
  8
0
 10
-41.1283
 20
0.720016
 42
-35.5820559466406
  0
VERTEX
  8
0
 10
-41.3295
 20
0.862793
 42
0.0
  0
SEQEND
  0
POLYLINE
  8
0
 66
     1
 10
0.0
 20
0.0
 30
0.0
 70
     1
  0
VERTEX
  8
0
 10
41.8999
 20
-176.572
 42
-22.6350735383549
  0
VERTEX
  8
0
 10
42.0725
 20
-176.4
 42
0.0
  0
SEQEND
  0
POLYLINE
  8
0
 66
     1
 10
0.0
 20
0.0
 30
0.0
 70
     1
  0
VERTEX
  8
0
 10
-25.4444
 20
-57.0556
 42
-35.6336593020238
  0
VERTEX
  8
0
 10
-25.28
 20
-56.8717
 42
0.0
  0
SEQEND
  0
POLYLINE
  8
0
 66
     1
 10
0.0
 20
0.0
 30
0.0
 70
     1
  0
VERTEX
  8
0
 10
-117.045
 20
-57.4821
 42
-17.8342148874213
  0
VERTEX
  8
0
 10
-116.628
 20
-57.22
 42
-0.0562477788209
  0
SEQEND
  0
POLYLINE
  8
0
 66
     1
 10
0.0
 20
0.0
 30
0.0
 70
     1
  0
VERTEX
  8
0
 10
-156.545
 20
0.982132
 42
-35.6977211033132
  0
VERTEX
  8
0
 10
-156.773
 20
1.07654
 42
0.0
  0
SEQEND
  0
POLYLINE
  8
0
 66
     1
 10
0.0
 20
0.0
 30
0.0
 70
     1
  0
VERTEX
  8
0
 10
178.918
 20
214.062
 42
-27.7543847861043
  0
VERTEX
  8
0
 10
179.039
 20
214.278
 42
0.0
  0
SEQEND
  0
POLYLINE
  8
0
 66
     1
 10
0.0
 20
0.0
 30
0.0
 70
     1
  0
VERTEX
  8
0
 10
221.159
 20
211.434
 42
-38.0748149894206
  0
VERTEX
  8
0
 10
221.525
 20
211.574
 42
0.0
  0
SEQEND
  0
POLYLINE
  8
0
 66
     1
 10
0.0
 20
0.0
 30
0.0
 70
     1
  0
VERTEX
  8
0
 10
221.418
 20
-173.438
 42
-27.754384773054
  0
VERTEX
  8
0
 10
221.539
 20
-173.222
 42
0.0
  0
SEQEND
  0
POLYLINE
  8
0
 66
     1
 10
0.0
 20
0.0
 30
0.0
 70
     1
  0
VERTEX
  8
0
 10
-156.545
 20
92.9821
 42
-35.707497710573
  0
VERTEX
  8
0
 10
-156.773
 20
93.0765
 42
0.0
  0
SEQEND
  0
POLYLINE
  8
0
 66
     1
 10
0.0
 20
0.0
 30
0.0
 70
     1
  0
VERTEX
  8
0
 10
-87.3322
 20
-215.938
 42
-27.1187408664372
  0
VERTEX
  8
0
 10
-87.2107
 20
-215.722
 42
0.0
  0
SEQEND
  0
POLYLINE
  8
0
 66
     1
 10
0.0
 20
0.0
 30
0.0
 70
     1
  0
VERTEX
  8
0
 10
72.9344
 20
119.376
 42
-38.041847208793
  0
VERTEX
  8
0
 10
72.9836
 20
119.686
 42
0.0
  0
SEQEND
  0
POLYLINE
  8
0
 66
     1
 10
0.0
 20
0.0
 30
0.0
 70
     1
  0
VERTEX
  8
0
 10
219.451
 20
1.60893
 42
-27.5700954138713
  0
VERTEX
  8
0
 10
219.223
 20
1.51187
 42
0.0
  0
SEQEND
  0
POLYLINE
  8
0
 66
     1
 10
0.0
 20
0.0
 30
0.0
 70
     1
  0
VERTEX
  8
0
 10
90.1678
 20
-215.938
 42
-27.1187408633876
  0
VERTEX
  8
0
 10
90.2893
 20
-215.722
 42
0.0
  0
SEQEND
  0
POLYLINE
  8
0
 66
     1
 10
0.0
 20
0.0
 30
0.0
 70
     1
  0
VERTEX
  8
0
 10
160.0
 20
18.75
 42
-38.44913863122
  0
VERTEX
  8
0
 10
160.261
 20
18.7637
 42
0.0
  0
SEQEND
  0
POLYLINE
  8
0
 66
     1
 10
0.0
 20
0.0
 30
0.0
 70
     1
  0
VERTEX
  8
0
 10
-184.68
 20
129.244
 42
-23.7465248945059
  0
VERTEX
  8
0
 10
-184.484
 20
129.396
 42
0.0
  0
SEQEND
  0
POLYLINE
  8
0
 66
     1
 10
0.0
 20
0.0
 30
0.0
 70
     1
  0
VERTEX
  8
0
 10
-156.545
 20
-34.9821
 42
-17.8342148882368
  0
VERTEX
  8
0
 10
-156.128
 20
-34.72
 42
-0.0562477788205
  0
SEQEND
  0
POLYLINE
  8
0
 66
     1
 10
0.0
 20
0.0
 30
0.0
 70
     1
  0
VERTEX
  8
0
 10
-28.9821
 20
-145.545
 42
-35.7074977076442
  0
VERTEX
  8
0
 10
-29.0765
 20
-145.773
 42
0.0
  0
SEQEND
  0
POLYLINE
  8
0
 66
     1
 10
0.0
 20
0.0
 30
0.0
 70
     1
  0
VERTEX
  8
0
 10
178.918
 20
-215.938
 42
-27.7543847667482
  0
VERTEX
  8
0
 10
179.039
 20
-215.722
 42
0.0
  0
SEQEND
  0
POLYLINE
  8
0
 66
     1
 10
0.0
 20
0.0
 30
0.0
 70
     1
  0
VERTEX
  8
0
 10
186.32
 20
129.244
 42
-23.7465249090923
  0
VERTEX
  8
0
 10
186.516
 20
129.396
 42
0.0
  0
SEQEND
  0
POLYLINE
  8
0
 66
     1
 10
0.0
 20
0.0
 30
0.0
 70
     1
  0
VERTEX
  8
0
 10
-116.018
 20
-147.455
 42
-17.5736850266853
  0
VERTEX
  8
0
 10
-115.855
 20
-146.99
 42
-0.0562583642393
  0
SEQEND
  0
POLYLINE
  8
0
 66
     1
 10
0.0
 20
0.0
 30
0.0
 70
     1
  0
VERTEX
  8
0
 10
-221.418
 20
-171.562
 42
-27.7543847546703
  0
VERTEX
  8
0
 10
-221.539
 20
-171.778
 42
0.0
  0
SEQEND
  0
POLYLINE
  8
0
 66
     1
 10
0.0
 20
0.0
 30
0.0
 70
     1
  0
VERTEX
  8
0
 10
160.0
 20
66.25
 42
-38.4491386346276
  0
VERTEX
  8
0
 10
160.261
 20
66.2637
 42
0.0
  0
SEQEND
  0
POLYLINE
  8
0
 66
     1
 10
0.0
 20
0.0
 30
0.0
 70
     1
  0
VERTEX
  8
0
 10
1.41779
 20
214.062
 42
-27.1746320407764
  0
VERTEX
  8
0
 10
1.53926
 20
214.278
 42
0.0
  0
SEQEND
  0
POLYLINE
  8
0
 66
     1
 10
0.0
 20
0.0
 30
0.0
 70
     1
  0
VERTEX
  8
0
 10
221.159
 20
-218.566
 42
-38.0748149677147
  0
VERTEX
  8
0
 10
221.525
 20
-218.426
 42
0.0
  0
SEQEND
  0
POLYLINE
  8
0
 66
     1
 10
0.0
 20
0.0
 30
0.0
 70
     1
  0
VERTEX
  8
0
 10
-218.841
 20
211.434
 42
-38.0748149804509
  0
VERTEX
  8
0
 10
-218.475
 20
211.574
 42
0.0
  0
SEQEND
  0
POLYLINE
  8
0
 66
     1
 10
0.0
 20
0.0
 30
0.0
 70
     1
  0
VERTEX
  8
0
 10
-25.9444
 20
-31.4444
 42
-35.6336593031479
  0
VERTEX
  8
0
 10
-26.1283
 20
-31.28
 42
0.0
  0
SEQEND
  0
POLYLINE
  8
0
 66
     1
 10
0.0
 20
0.0
 30
0.0
 70
     1
  0
VERTEX
  8
0
 10
-219.451
 20
-1.60893
 42
-27.5700954135735
  0
VERTEX
  8
0
 10
-219.223
 20
-1.51187
 42
0.0
  0
SEQEND
  0
POLYLINE
  8
0
 66
     1
 10
0.0
 20
0.0
 30
0.0
 70
     1
  0
VERTEX
  8
0
 10
-72.7417
 20
128.0
 42
-19.0577506649636
  0
VERTEX
  8
0
 10
-74.3391
 20
130.199
 42
-0.052331299725
  0
SEQEND
  0
POLYLINE
  8
0
 66
     1
 10
0.0
 20
0.0
 30
0.0
 70
     1
  0
VERTEX
  8
0
 10
-40.9444
 20
89.4444
 42
-35.6336593014837
  0
VERTEX
  8
0
 10
-40.78
 20
89.6283
 42
0.0
  0
SEQEND
  0
POLYLINE
  8
0
 66
     1
 10
0.0
 20
0.0
 30
0.0
 70
     1
  0
VERTEX
  8
0
 10
99.8999
 20
-127.572
 42
-22.8858614430888
  0
VERTEX
  8
0
 10
100.072
 20
-127.4
 42
0.0
  0
SEQEND
  0
POLYLINE
  8
0
 66
     1
 10
0.0
 20
0.0
 30
0.0
 70
     1
  0
VERTEX
  8
0
 10
219.451
 20
-84.6411
 42
-27.5228952268841
  0
VERTEX
  8
0
 10
219.223
 20
-84.7381
 42
0.0
  0
SEQEND
  0
POLYLINE
  8
0
 66
     1
 10
0.0
 20
0.0
 30
0.0
 70
     1
  0
VERTEX
  8
0
 10
-218.841
 20
-218.566
 42
-38.0748149814759
  0
VERTEX
  8
0
 10
-218.475
 20
-218.426
 42
0.0
  0
SEQEND
  0
POLYLINE
  8
0
 66
     1
 10
0.0
 20
0.0
 30
0.0
 70
     1
  0
VERTEX
  8
0
 10
-156.545
 20
-20.9821
 42
-17.8342148887263
  0
VERTEX
  8
0
 10
-156.128
 20
-20.72
 42
-0.0562477788205
  0
SEQEND
  0
POLYLINE
  8
0
 66
     1
 10
0.0
 20
0.0
 30
0.0
 70
     1
  0
VERTEX
  8
0
 10
-156.545
 20
-112.982
 42
-36.3179773819841
  0
VERTEX
  8
0
 10
-156.33
 20
-112.863
 42
0.0
  0
SEQEND
  0
POLYLINE
  8
0
 66
     1
 10
0.0
 20
0.0
 30
0.0
 70
     1
  0
VERTEX
  8
0
 10
-219.451
 20
84.6411
 42
-27.5228952274039
  0
VERTEX
  8
0
 10
-219.223
 20
84.7381
 42
0.0
  0
SEQEND
  0
POLYLINE
  8
0
 66
     1
 10
0.0
 20
0.0
 30
0.0
 70
     1
  0
VERTEX
  8
0
 10
-221.418
 20
173.438
 42
-27.7543847730538
  0
VERTEX
  8
0
 10
-221.539
 20
173.222
 42
0.0
  0
SEQEND
  0
POLYLINE
  8
0
 66
     1
 10
0.0
 20
0.0
 30
0.0
 70
     1
  0
VERTEX
  8
0
 10
186.32
 20
-181.756
 42
-23.7465248941655
  0
VERTEX
  8
0
 10
186.516
 20
-181.604
 42
0.0
  0
SEQEND
  0
POLYLINE
  8
0
 66
     1
 10
0.0
 20
0.0
 30
0.0
 70
     1
  0
VERTEX
  8
0
 10
-40.9444
 20
-20.5556
 42
-35.6336593023917
  0
VERTEX
  8
0
 10
-40.78
 20
-20.3717
 42
0.0
  0
SEQEND
  0
POLYLINE
  8
0
 66
     1
 10
0.0
 20
0.0
 30
0.0
 70
     1
  0
VERTEX
  8
0
 10
219.451
 20
87.8589
 42
-27.5228952229735
  0
VERTEX
  8
0
 10
219.223
 20
87.7619
 42
0.0
  0
SEQEND
  0
POLYLINE
  8
0
 66
     1
 10
0.0
 20
0.0
 30
0.0
 70
     1
  0
VERTEX
  8
0
 10
221.418
 20
171.562
 42
-27.7543847546703
  0
VERTEX
  8
0
 10
221.539
 20
171.778
 42
0.0
  0
SEQEND
  0
POLYLINE
  8
0
 66
     1
 10
0.0
 20
0.0
 30
0.0
 70
     1
  0
VERTEX
  8
0
 10
222.898
 20
-222.348
 42
0.3843118151426
  0
VERTEX
  8
0
 10
227.375
 20
-217.375
 42
0.0
  0
VERTEX
  8
0
 10
227.375
 20
217.375
 42
0.4147169626947
  0
VERTEX
  8
0
 10
222.375
 20
222.375
 42
0.0
  0
VERTEX
  8
0
 10
-222.375
 20
222.375
 42
0.414716962696
  0
VERTEX
  8
0
 10
-227.375
 20
217.375
 42
0.0
  0
VERTEX
  8
0
 10
-227.375
 20
-217.375
 42
0.4147169626944
  0
VERTEX
  8
0
 10
-222.375
 20
-222.375
 42
0.0
  0
VERTEX
  8
0
 10
222.375
 20
-222.375
 42
0.026441477994
  0
SEQEND
  0
ENDSEC
  0
EOF
