  0
SECTION
  2
HEADER
  9
$ACADVER
  1
AC1009
  9
$EXTMAX
 10
244.875
 20
227.375
 30
0.0
  9
$EXTMIN
 10
-244.875
 20
-227.375
 30
0.0
  9
$INSUNITS
 70
     4
  9
$LUNITS
 70
     2
  9
$LUPREC
 70
     4
  9
$MEASUREMENT
 70
     1
  0
ENDSEC
  0
SECTION
  2
TABLES
  0
TABLE
  2
LAYER
 70
     1
  0
LAYER
  2
0
 70
     0
 62
    70
  6
Continuous
  0
ENDTAB
  0
TABLE
  2
APPID
 70
     1
  0
APPID
  2
ACAD
 70
     0
  0
ENDTAB
  0
ENDSEC
  0
SECTION
  2
ENTITIES
  0
POLYLINE
  8
0
 66
     1
 10
0.0
 20
0.0
 30
0.0
 70
     1
  0
VERTEX
  8
0
 10
236.951
 20
-87.1411
 42
-27.5228952161537
  0
VERTEX
  8
0
 10
236.723
 20
-87.2381
 42
0.0
  0
SEQEND
  0
POLYLINE
  8
0
 66
     1
 10
0.0
 20
0.0
 30
0.0
 70
     1
  0
VERTEX
  8
0
 10
-225.377
 20
-101.145
 42
-26.0660583624592
  0
VERTEX
  8
0
 10
-225.133
 20
-101.109
 42
0.0
  0
SEQEND
  0
POLYLINE
  8
0
 66
     1
 10
0.0
 20
0.0
 30
0.0
 70
     1
  0
VERTEX
  8
0
 10
196.418
 20
-220.938
 42
-27.754384796735
  0
VERTEX
  8
0
 10
196.539
 20
-220.722
 42
0.0
  0
SEQEND
  0
POLYLINE
  8
0
 66
     1
 10
0.0
 20
0.0
 30
0.0
 70
     1
  0
VERTEX
  8
0
 10
194.623
 20
26.3546
 42
-26.8189636545369
  0
VERTEX
  8
0
 10
194.867
 20
26.3914
 42
0.0
  0
SEQEND
  0
POLYLINE
  8
0
 66
     1
 10
0.0
 20
0.0
 30
0.0
 70
     1
  0
VERTEX
  8
0
 10
-193.582
 20
219.062
 42
-27.7543847968955
  0
VERTEX
  8
0
 10
-193.461
 20
219.278
 42
0.0
  0
SEQEND
  0
POLYLINE
  8
0
 66
     1
 10
0.0
 20
0.0
 30
0.0
 70
     1
  0
VERTEX
  8
0
 10
-194.377
 20
-101.145
 42
-26.0660583535628
  0
VERTEX
  8
0
 10
-194.133
 20
-101.109
 42
0.0
  0
SEQEND
  0
POLYLINE
  8
0
 66
     1
 10
0.0
 20
0.0
 30
0.0
 70
     1
  0
VERTEX
  8
0
 10
-193.582
 20
-220.938
 42
-27.754384765818
  0
VERTEX
  8
0
 10
-193.461
 20
-220.722
 42
0.0
  0
SEQEND
  0
POLYLINE
  8
0
 66
     1
 10
0.0
 20
0.0
 30
0.0
 70
     1
  0
VERTEX
  8
0
 10
-96.0822
 20
-220.938
 42
-27.118740856593
  0
VERTEX
  8
0
 10
-95.9607
 20
-220.722
 42
0.0
  0
SEQEND
  0
POLYLINE
  8
0
 66
     1
 10
0.0
 20
0.0
 30
0.0
 70
     1
  0
VERTEX
  8
0
 10
236.951
 20
90.3589
 42
-27.5228952405239
  0
VERTEX
  8
0
 10
236.723
 20
90.2619
 42
0.0
  0
SEQEND
  0
POLYLINE
  8
0
 66
     1
 10
0.0
 20
0.0
 30
0.0
 70
     1
  0
VERTEX
  8
0
 10
238.659
 20
-223.566
 42
-38.0748149819072
  0
VERTEX
  8
0
 10
239.025
 20
-223.426
 42
0.0
  0
SEQEND
  0
POLYLINE
  8
0
 66
     1
 10
0.0
 20
0.0
 30
0.0
 70
     1
  0
VERTEX
  8
0
 10
-236.951
 20
87.1411
 42
-27.5228952149701
  0
VERTEX
  8
0
 10
-236.723
 20
87.2381
 42
0.0
  0
SEQEND
  0
POLYLINE
  8
0
 66
     1
 10
0.0
 20
0.0
 30
0.0
 70
     1
  0
VERTEX
  8
0
 10
98.9178
 20
219.062
 42
-27.1187408577653
  0
VERTEX
  8
0
 10
99.0393
 20
219.278
 42
0.0
  0
SEQEND
  0
POLYLINE
  8
0
 66
     1
 10
0.0
 20
0.0
 30
0.0
 70
     1
  0
VERTEX
  8
0
 10
-236.951
 20
-90.3589
 42
-27.5228952431366
  0
VERTEX
  8
0
 10
-236.723
 20
-90.2619
 42
0.0
  0
SEQEND
  0
POLYLINE
  8
0
 66
     1
 10
0.0
 20
0.0
 30
0.0
 70
     1
  0
VERTEX
  8
0
 10
-194.377
 20
122.855
 42
-26.0660583641414
  0
VERTEX
  8
0
 10
-194.133
 20
122.891
 42
0.0
  0
SEQEND
  0
POLYLINE
  8
0
 66
     1
 10
0.0
 20
0.0
 30
0.0
 70
     1
  0
VERTEX
  8
0
 10
-236.341
 20
-223.566
 42
-38.0748149731997
  0
VERTEX
  8
0
 10
-235.975
 20
-223.426
 42
0.0
  0
SEQEND
  0
POLYLINE
  8
0
 66
     1
 10
0.0
 20
0.0
 30
0.0
 70
     1
  0
VERTEX
  8
0
 10
-206.446
 20
-125.937
 42
-12.6644962670279
  0
VERTEX
  8
0
 10
-203.24
 20
-124.304
 42
-0.0785307152336
  0
SEQEND
  0
POLYLINE
  8
0
 66
     1
 10
0.0
 20
0.0
 30
0.0
 70
     1
  0
VERTEX
  8
0
 10
194.623
 20
-4.64539
 42
-26.790467239771
  0
VERTEX
  8
0
 10
194.867
 20
-4.60863
 42
0.0
  0
SEQEND
  0
POLYLINE
  8
0
 66
     1
 10
0.0
 20
0.0
 30
0.0
 70
     1
  0
VERTEX
  8
0
 10
-225.377
 20
122.855
 42
-26.0660583647027
  0
VERTEX
  8
0
 10
-225.133
 20
122.891
 42
0.0
  0
SEQEND
  0
POLYLINE
  8
0
 66
     1
 10
0.0
 20
0.0
 30
0.0
 70
     1
  0
VERTEX
  8
0
 10
196.418
 20
219.062
 42
-27.7543847791794
  0
VERTEX
  8
0
 10
196.539
 20
219.278
 42
0.0
  0
SEQEND
  0
POLYLINE
  8
0
 66
     1
 10
0.0
 20
0.0
 30
0.0
 70
     1
  0
VERTEX
  8
0
 10
225.623
 20
-4.64539
 42
-26.7904672390765
  0
VERTEX
  8
0
 10
225.867
 20
-4.60863
 42
0.0
  0
SEQEND
  0
POLYLINE
  8
0
 66
     1
 10
0.0
 20
0.0
 30
0.0
 70
     1
  0
VERTEX
  8
0
 10
-206.446
 20
129.063
 42
-12.6644962670789
  0
VERTEX
  8
0
 10
-203.24
 20
130.696
 42
-0.0785307152337
  0
SEQEND
  0
POLYLINE
  8
0
 66
     1
 10
0.0
 20
0.0
 30
0.0
 70
     1
  0
VERTEX
  8
0
 10
-238.918
 20
-176.562
 42
-27.7543847618836
  0
VERTEX
  8
0
 10
-239.039
 20
-176.778
 42
0.0
  0
SEQEND
  0
POLYLINE
  8
0
 66
     1
 10
0.0
 20
0.0
 30
0.0
 70
     1
  0
VERTEX
  8
0
 10
-236.341
 20
216.434
 42
-38.0748149827892
  0
VERTEX
  8
0
 10
-235.975
 20
216.574
 42
0.0
  0
SEQEND
  0
POLYLINE
  8
0
 66
     1
 10
0.0
 20
0.0
 30
0.0
 70
     1
  0
VERTEX
  8
0
 10
238.918
 20
-178.438
 42
-27.7543847799997
  0
VERTEX
  8
0
 10
239.039
 20
-178.222
 42
0.0
  0
SEQEND
  0
POLYLINE
  8
0
 66
     1
 10
0.0
 20
0.0
 30
0.0
 70
     1
  0
VERTEX
  8
0
 10
-236.951
 20
-1.60893
 42
-27.570095413938
  0
VERTEX
  8
0
 10
-236.723
 20
-1.51187
 42
0.0
  0
SEQEND
  0
POLYLINE
  8
0
 66
     1
 10
0.0
 20
0.0
 30
0.0
 70
     1
  0
VERTEX
  8
0
 10
-194.377
 20
153.855
 42
-26.0660583683392
  0
VERTEX
  8
0
 10
-194.133
 20
153.891
 42
0.0
  0
SEQEND
  0
POLYLINE
  8
0
 66
     1
 10
0.0
 20
0.0
 30
0.0
 70
     1
  0
VERTEX
  8
0
 10
-194.377
 20
-132.145
 42
-26.0660583616405
  0
VERTEX
  8
0
 10
-194.133
 20
-132.109
 42
0.0
  0
SEQEND
  0
POLYLINE
  8
0
 66
     1
 10
0.0
 20
0.0
 30
0.0
 70
     1
  0
VERTEX
  8
0
 10
-96.0822
 20
219.062
 42
-27.1187408748668
  0
VERTEX
  8
0
 10
-95.9607
 20
219.278
 42
0.0
  0
SEQEND
  0
POLYLINE
  8
0
 66
     1
 10
0.0
 20
0.0
 30
0.0
 70
     1
  0
VERTEX
  8
0
 10
238.659
 20
216.434
 42
-38.0748149888556
  0
VERTEX
  8
0
 10
239.025
 20
216.574
 42
0.0
  0
SEQEND
  0
POLYLINE
  8
0
 66
     1
 10
0.0
 20
0.0
 30
0.0
 70
     1
  0
VERTEX
  8
0
 10
1.41779
 20
-220.938
 42
-27.1746320411052
  0
VERTEX
  8
0
 10
1.53926
 20
-220.722
 42
0.0
  0
SEQEND
  0
POLYLINE
  8
0
 66
     1
 10
0.0
 20
0.0
 30
0.0
 70
     1
  0
VERTEX
  8
0
 10
236.951
 20
1.60893
 42
-27.5700954138321
  0
VERTEX
  8
0
 10
236.723
 20
1.51187
 42
0.0
  0
SEQEND
  0
POLYLINE
  8
0
 66
     1
 10
0.0
 20
0.0
 30
0.0
 70
     1
  0
VERTEX
  8
0
 10
-225.377
 20
153.855
 42
-26.0660583347456
  0
VERTEX
  8
0
 10
-225.133
 20
153.891
 42
0.0
  0
SEQEND
  0
POLYLINE
  8
0
 66
     1
 10
0.0
 20
0.0
 30
0.0
 70
     1
  0
VERTEX
  8
0
 10
-225.377
 20
-132.145
 42
-26.0660583568309
  0
VERTEX
  8
0
 10
-225.133
 20
-132.109
 42
0.0
  0
SEQEND
  0
POLYLINE
  8
0
 66
     1
 10
0.0
 20
0.0
 30
0.0
 70
     1
  0
VERTEX
  8
0
 10
217.695
 20
3.95383
 42
-12.7343534224412
  0
VERTEX
  8
0
 10
219.959
 20
6.75
 42
-0.0786374997126
  0
SEQEND
  0
POLYLINE
  8
0
 66
     1
 10
0.0
 20
0.0
 30
0.0
 70
     1
  0
VERTEX
  8
0
 10
1.41779
 20
219.062
 42
-27.1746320405814
  0
VERTEX
  8
0
 10
1.53926
 20
219.278
 42
0.0
  0
SEQEND
  0
POLYLINE
  8
0
 66
     1
 10
0.0
 20
0.0
 30
0.0
 70
     1
  0
VERTEX
  8
0
 10
98.9178
 20
-220.938
 42
-27.1187408695994
  0
VERTEX
  8
0
 10
99.0393
 20
-220.722
 42
0.0
  0
SEQEND
  0
POLYLINE
  8
0
 66
     1
 10
0.0
 20
0.0
 30
0.0
 70
     1
  0
VERTEX
  8
0
 10
-238.918
 20
178.438
 42
-27.754384784106
  0
VERTEX
  8
0
 10
-239.039
 20
178.222
 42
0.0
  0
SEQEND
  0
POLYLINE
  8
0
 66
     1
 10
0.0
 20
0.0
 30
0.0
 70
     1
  0
VERTEX
  8
0
 10
225.623
 20
26.3546
 42
-26.8189636558663
  0
VERTEX
  8
0
 10
225.867
 20
26.3914
 42
0.0
  0
SEQEND
  0
POLYLINE
  8
0
 66
     1
 10
0.0
 20
0.0
 30
0.0
 70
     1
  0
VERTEX
  8
0
 10
238.918
 20
176.562
 42
-27.7543847625909
  0
VERTEX
  8
0
 10
239.039
 20
176.778
 42
0.0
  0
SEQEND
  0
POLYLINE
  8
0
 66
     1
 10
0.0
 20
0.0
 30
0.0
 70
     1
  0
VERTEX
  8
0
 10
240.398
 20
-227.348
 42
0.3843118151414
  0
VERTEX
  8
0
 10
244.875
 20
-222.375
 42
0.0
  0
VERTEX
  8
0
 10
244.875
 20
222.375
 42
0.4147169626966
  0
VERTEX
  8
0
 10
239.875
 20
227.375
 42
0.0
  0
VERTEX
  8
0
 10
-239.875
 20
227.375
 42
0.4147169626947
  0
VERTEX
  8
0
 10
-244.875
 20
222.375
 42
0.0
  0
VERTEX
  8
0
 10
-244.875
 20
-222.375
 42
0.4147169626965
  0
VERTEX
  8
0
 10
-239.875
 20
-227.375
 42
0.0
  0
VERTEX
  8
0
 10
239.875
 20
-227.375
 42
0.0264414779951
  0
SEQEND
  0
ENDSEC
  0
EOF
