  0
SECTION
  2
HEADER
  9
$ACADVER
  1
AC1009
  9
$EXTMAX
 10
244.875
 20
222.375
 30
0.0
  9
$EXTMIN
 10
-244.875
 20
-222.375
 30
0.0
  9
$INSUNITS
 70
     4
  9
$LUNITS
 70
     2
  9
$LUPREC
 70
     4
  9
$MEASUREMENT
 70
     1
  0
ENDSEC
  0
SECTION
  2
TABLES
  0
TABLE
  2
LAYER
 70
     1
  0
LAYER
  2
0
 70
     0
 62
    70
  6
Continuous
  0
ENDTAB
  0
TABLE
  2
APPID
 70
     1
  0
APPID
  2
ACAD
 70
     0
  0
ENDTAB
  0
ENDSEC
  0
SECTION
  2
ENTITIES
  0
POLYLINE
  8
0
 66
     1
 10
0.0
 20
0.0
 30
0.0
 70
     1
  0
VERTEX
  8
0
 10
238.918
 20
-173.438
 42
-27.7543847522604
  0
VERTEX
  8
0
 10
239.039
 20
-173.222
 42
0.0
  0
SEQEND
  0
POLYLINE
  8
0
 66
     1
 10
0.0
 20
0.0
 30
0.0
 70
     1
  0
VERTEX
  8
0
 10
98.9178
 20
214.062
 42
-27.1187408634215
  0
VERTEX
  8
0
 10
99.0393
 20
214.278
 42
0.0
  0
SEQEND
  0
POLYLINE
  8
0
 66
     1
 10
0.0
 20
0.0
 30
0.0
 70
     1
  0
VERTEX
  8
0
 10
-236.951
 20
-87.8589
 42
-27.5228952322528
  0
VERTEX
  8
0
 10
-236.723
 20
-87.7619
 42
0.0
  0
SEQEND
  0
POLYLINE
  8
0
 66
     1
 10
0.0
 20
0.0
 30
0.0
 70
     1
  0
VERTEX
  8
0
 10
1.41779
 20
-215.938
 42
-27.1746320409454
  0
VERTEX
  8
0
 10
1.53926
 20
-215.722
 42
0.0
  0
SEQEND
  0
POLYLINE
  8
0
 66
     1
 10
0.0
 20
0.0
 30
0.0
 70
     1
  0
VERTEX
  8
0
 10
-96.0822
 20
214.062
 42
-27.1187408531791
  0
VERTEX
  8
0
 10
-95.9607
 20
214.278
 42
0.0
  0
SEQEND
  0
POLYLINE
  8
0
 66
     1
 10
0.0
 20
0.0
 30
0.0
 70
     1
  0
VERTEX
  8
0
 10
196.418
 20
-215.938
 42
-27.7543847827533
  0
VERTEX
  8
0
 10
196.539
 20
-215.722
 42
0.0
  0
SEQEND
  0
POLYLINE
  8
0
 66
     1
 10
0.0
 20
0.0
 30
0.0
 70
     1
  0
VERTEX
  8
0
 10
98.9178
 20
-215.938
 42
-27.11874085448
  0
VERTEX
  8
0
 10
99.0393
 20
-215.722
 42
0.0
  0
SEQEND
  0
POLYLINE
  8
0
 66
     1
 10
0.0
 20
0.0
 30
0.0
 70
     1
  0
VERTEX
  8
0
 10
196.418
 20
214.062
 42
-27.7543847710197
  0
VERTEX
  8
0
 10
196.539
 20
214.278
 42
0.0
  0
SEQEND
  0
POLYLINE
  8
0
 66
     1
 10
0.0
 20
0.0
 30
0.0
 70
     1
  0
VERTEX
  8
0
 10
238.659
 20
211.434
 42
-38.0748149936262
  0
VERTEX
  8
0
 10
239.025
 20
211.574
 42
0.0
  0
SEQEND
  0
POLYLINE
  8
0
 66
     1
 10
0.0
 20
0.0
 30
0.0
 70
     1
  0
VERTEX
  8
0
 10
-193.582
 20
214.062
 42
-27.7543847795927
  0
VERTEX
  8
0
 10
-193.461
 20
214.278
 42
0.0
  0
SEQEND
  0
POLYLINE
  8
0
 66
     1
 10
0.0
 20
0.0
 30
0.0
 70
     1
  0
VERTEX
  8
0
 10
-193.582
 20
-215.938
 42
-27.7543847709327
  0
VERTEX
  8
0
 10
-193.461
 20
-215.722
 42
0.0
  0
SEQEND
  0
POLYLINE
  8
0
 66
     1
 10
0.0
 20
0.0
 30
0.0
 70
     1
  0
VERTEX
  8
0
 10
236.951
 20
1.60893
 42
-27.5700954138321
  0
VERTEX
  8
0
 10
236.723
 20
1.51187
 42
0.0
  0
SEQEND
  0
POLYLINE
  8
0
 66
     1
 10
0.0
 20
0.0
 30
0.0
 70
     1
  0
VERTEX
  8
0
 10
1.41779
 20
214.062
 42
-27.1746320407764
  0
VERTEX
  8
0
 10
1.53926
 20
214.278
 42
0.0
  0
SEQEND
  0
POLYLINE
  8
0
 66
     1
 10
0.0
 20
0.0
 30
0.0
 70
     1
  0
VERTEX
  8
0
 10
236.951
 20
87.8589
 42
-27.5228952334198
  0
VERTEX
  8
0
 10
236.723
 20
87.7619
 42
0.0
  0
SEQEND
  0
POLYLINE
  8
0
 66
     1
 10
0.0
 20
0.0
 30
0.0
 70
     1
  0
VERTEX
  8
0
 10
-236.951
 20
84.6411
 42
-27.522895219891
  0
VERTEX
  8
0
 10
-236.723
 20
84.7381
 42
0.0
  0
SEQEND
  0
POLYLINE
  8
0
 66
     1
 10
0.0
 20
0.0
 30
0.0
 70
     1
  0
VERTEX
  8
0
 10
238.659
 20
-218.566
 42
-38.0748149833539
  0
VERTEX
  8
0
 10
239.025
 20
-218.426
 42
0.0
  0
SEQEND
  0
POLYLINE
  8
0
 66
     1
 10
0.0
 20
0.0
 30
0.0
 70
     1
  0
VERTEX
  8
0
 10
236.951
 20
-84.6411
 42
-27.522895219891
  0
VERTEX
  8
0
 10
236.723
 20
-84.7381
 42
0.0
  0
SEQEND
  0
POLYLINE
  8
0
 66
     1
 10
0.0
 20
0.0
 30
0.0
 70
     1
  0
VERTEX
  8
0
 10
-236.341
 20
211.434
 42
-38.0748149708425
  0
VERTEX
  8
0
 10
-235.975
 20
211.574
 42
0.0
  0
SEQEND
  0
POLYLINE
  8
0
 66
     1
 10
0.0
 20
0.0
 30
0.0
 70
     1
  0
VERTEX
  8
0
 10
-238.918
 20
173.438
 42
-27.7543847522604
  0
VERTEX
  8
0
 10
-239.039
 20
173.222
 42
0.0
  0
SEQEND
  0
POLYLINE
  8
0
 66
     1
 10
0.0
 20
0.0
 30
0.0
 70
     1
  0
VERTEX
  8
0
 10
-236.341
 20
-218.566
 42
-38.0748149879405
  0
VERTEX
  8
0
 10
-235.975
 20
-218.426
 42
0.0
  0
SEQEND
  0
POLYLINE
  8
0
 66
     1
 10
0.0
 20
0.0
 30
0.0
 70
     1
  0
VERTEX
  8
0
 10
-96.0822
 20
-215.938
 42
-27.1187408724103
  0
VERTEX
  8
0
 10
-95.9607
 20
-215.722
 42
0.0
  0
SEQEND
  0
POLYLINE
  8
0
 66
     1
 10
0.0
 20
0.0
 30
0.0
 70
     1
  0
VERTEX
  8
0
 10
238.918
 20
171.562
 42
-27.7543847789211
  0
VERTEX
  8
0
 10
239.039
 20
171.778
 42
0.0
  0
SEQEND
  0
POLYLINE
  8
0
 66
     1
 10
0.0
 20
0.0
 30
0.0
 70
     1
  0
VERTEX
  8
0
 10
-236.951
 20
-1.60893
 42
-27.570095413938
  0
VERTEX
  8
0
 10
-236.723
 20
-1.51187
 42
0.0
  0
SEQEND
  0
POLYLINE
  8
0
 66
     1
 10
0.0
 20
0.0
 30
0.0
 70
     1
  0
VERTEX
  8
0
 10
206.691
 20
-184.931
 42
-0.1852418797375
  0
VERTEX
  8
0
 10
200.0
 20
-187.5
 42
0.0
  0
VERTEX
  8
0
 10
-200.0
 20
-187.5
 42
-0.4140671599467
  0
VERTEX
  8
0
 10
-210.0
 20
-177.5
 42
0.0
  0
VERTEX
  8
0
 10
-210.0
 20
187.5
 42
-0.4140671599464
  0
VERTEX
  8
0
 10
-200.0
 20
197.5
 42
0.0
  0
VERTEX
  8
0
 10
200.0
 20
197.5
 42
-0.4140671599465
  0
VERTEX
  8
0
 10
210.0
 20
187.5
 42
0.0
  0
VERTEX
  8
0
 10
210.0
 20
-177.5
 42
-0.2123091676021
  0
SEQEND
  0
POLYLINE
  8
0
 66
     1
 10
0.0
 20
0.0
 30
0.0
 70
     1
  0
VERTEX
  8
0
 10
-238.918
 20
-171.562
 42
-27.7543847861846
  0
VERTEX
  8
0
 10
-239.039
 20
-171.778
 42
0.0
  0
SEQEND
  0
POLYLINE
  8
0
 66
     1
 10
0.0
 20
0.0
 30
0.0
 70
     1
  0
VERTEX
  8
0
 10
240.398
 20
-222.348
 42
0.3843118151414
  0
VERTEX
  8
0
 10
244.875
 20
-217.375
 42
0.0
  0
VERTEX
  8
0
 10
244.875
 20
217.375
 42
0.4147169626955
  0
VERTEX
  8
0
 10
239.875
 20
222.375
 42
0.0
  0
VERTEX
  8
0
 10
-239.875
 20
222.375
 42
0.4147169626951
  0
VERTEX
  8
0
 10
-244.875
 20
217.375
 42
0.0
  0
VERTEX
  8
0
 10
-244.875
 20
-217.375
 42
0.4147169626955
  0
VERTEX
  8
0
 10
-239.875
 20
-222.375
 42
0.0
  0
VERTEX
  8
0
 10
239.875
 20
-222.375
 42
0.026441477995
  0
SEQEND
  0
ENDSEC
  0
EOF
