  0
SECTION
  2
HEADER
  9
$ACADVER
  1
AC1009
  9
$EXTMAX
 10
325.0
 20
242.5
 30
0.0
  9
$EXTMIN
 10
-325.0
 20
-227.5
 30
0.0
  9
$INSUNITS
 70
     4
  9
$LUNITS
 70
     2
  9
$LUPREC
 70
     4
  9
$MEASUREMENT
 70
     1
  0
ENDSEC
  0
SECTION
  2
TABLES
  0
TABLE
  2
LAYER
 70
     1
  0
LAYER
  2
0
 70
     0
 62
    70
  6
Continuous
  0
ENDTAB
  0
TABLE
  2
APPID
 70
     1
  0
APPID
  2
ACAD
 70
     0
  0
ENDTAB
  0
ENDSEC
  0
SECTION
  2
ENTITIES
  0
POLYLINE
  8
0
 66
     1
 10
0.0
 20
0.0
 30
0.0
 70
     1
  0
VERTEX
  8
0
 10
302.824
 20
-15.0427
 42
-12.798739621839
  0
VERTEX
  8
0
 10
303.471
 20
-14.0456
 42
-0.0787132269073
  0
SEQEND
  0
POLYLINE
  8
0
 66
     1
 10
0.0
 20
0.0
 30
0.0
 70
     1
  0
VERTEX
  8
0
 10
-236.554
 20
108.528
 42
-0.5928115382316
  0
VERTEX
  8
0
 10
-239.25
 20
110.0
 42
0.0
  0
VERTEX
  8
0
 10
-239.25
 20
200.0
 42
-0.999225773276
  0
VERTEX
  8
0
 10
-235.75
 20
200.0
 42
0.0
  0
VERTEX
  8
0
 10
-235.75
 20
110.0
 42
-0.254481996884
  0
SEQEND
  0
POLYLINE
  8
0
 66
     1
 10
0.0
 20
0.0
 30
0.0
 70
     1
  0
VERTEX
  8
0
 10
238.972
 20
-5.72054
 42
-0.1434038292397
  0
VERTEX
  8
0
 10
239.25
 20
-6.66666
 42
0.0
  0
VERTEX
  8
0
 10
239.25
 20
-96.6667
 42
-0.9992257732623
  0
VERTEX
  8
0
 10
235.75
 20
-96.6667
 42
0.0
  0
VERTEX
  8
0
 10
235.75
 20
-6.66666
 42
-0.7476516520872
  0
SEQEND
  0
POLYLINE
  8
0
 66
     1
 10
0.0
 20
0.0
 30
0.0
 70
     1
  0
VERTEX
  8
0
 10
238.918
 20
-210.938
 42
-27.754384771653
  0
VERTEX
  8
0
 10
239.039
 20
-210.722
 42
0.0
  0
SEQEND
  0
POLYLINE
  8
0
 66
     1
 10
0.0
 20
0.0
 30
0.0
 70
     1
  0
VERTEX
  8
0
 10
-236.028
 20
-5.72054
 42
-0.1434038292395
  0
VERTEX
  8
0
 10
-235.75
 20
-6.66666
 42
0.0
  0
VERTEX
  8
0
 10
-235.75
 20
-96.6667
 42
-0.9992257732729
  0
VERTEX
  8
0
 10
-239.25
 20
-96.6667
 42
0.0
  0
VERTEX
  8
0
 10
-239.25
 20
-6.66666
 42
-0.7476516520874
  0
SEQEND
  0
POLYLINE
  8
0
 66
     1
 10
0.0
 20
0.0
 30
0.0
 70
     1
  0
VERTEX
  8
0
 10
-278.032
 20
204.562
 42
-27.754384762812
  0
VERTEX
  8
0
 10
-277.911
 20
204.778
 42
0.0
  0
SEQEND
  0
POLYLINE
  8
0
 66
     1
 10
0.0
 20
0.0
 30
0.0
 70
     1
  0
VERTEX
  8
0
 10
-238.918
 20
-209.062
 42
-27.7543848002627
  0
VERTEX
  8
0
 10
-239.039
 20
-209.278
 42
0.0
  0
SEQEND
  0
POLYLINE
  8
0
 66
     1
 10
0.0
 20
0.0
 30
0.0
 70
     1
  0
VERTEX
  8
0
 10
238.918
 20
209.062
 42
-27.7543848025888
  0
VERTEX
  8
0
 10
239.039
 20
209.278
 42
0.0
  0
SEQEND
  0
POLYLINE
  8
0
 66
     1
 10
0.0
 20
0.0
 30
0.0
 70
     1
  0
VERTEX
  8
0
 10
302.824
 20
15.0427
 42
-38.1935356026833
  0
VERTEX
  8
0
 10
302.543
 20
15.3239
 42
0.0
  0
SEQEND
  0
POLYLINE
  8
0
 66
     1
 10
0.0
 20
0.0
 30
0.0
 70
     1
  0
VERTEX
  8
0
 10
-278.032
 20
-206.438
 42
-27.7543847716227
  0
VERTEX
  8
0
 10
-277.911
 20
-206.222
 42
0.0
  0
SEQEND
  0
POLYLINE
  8
0
 66
     1
 10
0.0
 20
0.0
 30
0.0
 70
     1
  0
VERTEX
  8
0
 10
-238.918
 20
210.938
 42
-27.754384771653
  0
VERTEX
  8
0
 10
-239.039
 20
210.722
 42
0.0
  0
SEQEND
  0
POLYLINE
  8
0
 66
     1
 10
0.0
 20
0.0
 30
0.0
 70
     1
  0
VERTEX
  8
0
 10
-297.176
 20
15.0427
 42
-38.1935356033828
  0
VERTEX
  8
0
 10
-297.457
 20
15.3239
 42
0.0
  0
SEQEND
  0
POLYLINE
  8
0
 66
     1
 10
0.0
 20
0.0
 30
0.0
 70
     1
  0
VERTEX
  8
0
 10
229.434
 20
-212.401
 42
-0.1133145534085
  0
VERTEX
  8
0
 10
229.0
 20
-212.5
 42
0.0
  0
VERTEX
  8
0
 10
-229.0
 20
-212.5
 42
-0.4147377855236
  0
VERTEX
  8
0
 10
-230.0
 20
-211.5
 42
0.0
  0
VERTEX
  8
0
 10
-230.0
 20
211.5
 42
-0.414737785533
  0
VERTEX
  8
0
 10
-229.0
 20
212.5
 42
0.0
  0
VERTEX
  8
0
 10
229.0
 20
212.5
 42
-0.4147377855236
  0
VERTEX
  8
0
 10
230.0
 20
211.5
 42
0.0
  0
VERTEX
  8
0
 10
230.0
 20
-211.5
 42
-0.2878934417557
  0
SEQEND
  0
POLYLINE
  8
0
 66
     1
 10
0.0
 20
0.0
 30
0.0
 70
     1
  0
VERTEX
  8
0
 10
266.7
 20
-194.675
 42
-0.1319312038615
  0
VERTEX
  8
0
 10
272.95
 20
-193.0
 42
-0.0259961918381
  0
VERTEX
  8
0
 10
282.257
 20
-193.068
 42
-0.9493249740205
  0
VERTEX
  8
0
 10
280.95
 20
-218.0
 42
-0.0259961918381
  0
VERTEX
  8
0
 10
271.643
 20
-217.932
 42
-0.726578415874
  0
SEQEND
  0
POLYLINE
  8
0
 66
     1
 10
0.0
 20
0.0
 30
0.0
 70
     1
  0
VERTEX
  8
0
 10
-263.082
 20
-195.438
 42
-27.7543847435602
  0
VERTEX
  8
0
 10
-262.961
 20
-195.222
 42
0.0
  0
SEQEND
  0
POLYLINE
  8
0
 66
     1
 10
0.0
 20
0.0
 30
0.0
 70
     1
  0
VERTEX
  8
0
 10
-297.176
 20
35.0427
 42
-38.1935355991098
  0
VERTEX
  8
0
 10
-297.457
 20
35.3239
 42
0.0
  0
SEQEND
  0
POLYLINE
  8
0
 66
     1
 10
0.0
 20
0.0
 30
0.0
 70
     1
  0
VERTEX
  8
0
 10
266.7
 20
216.325
 42
-0.1319312038614
  0
VERTEX
  8
0
 10
272.95
 20
218.0
 42
-0.0259961918381
  0
VERTEX
  8
0
 10
282.257
 20
217.932
 42
-0.9493249740206
  0
VERTEX
  8
0
 10
280.95
 20
193.0
 42
-0.0259961918381
  0
VERTEX
  8
0
 10
271.643
 20
193.068
 42
-0.726578415874
  0
SEQEND
  0
POLYLINE
  8
0
 66
     1
 10
0.0
 20
0.0
 30
0.0
 70
     1
  0
VERTEX
  8
0
 10
267.313
 20
-190.929
 42
-0.2302215193749
  0
VERTEX
  8
0
 10
266.073
 20
-191.645
 42
0.0
  0
VERTEX
  8
0
 10
257.827
 20
-191.645
 42
-0.9308091961916
  0
VERTEX
  8
0
 10
257.827
 20
-188.355
 42
0.0
  0
VERTEX
  8
0
 10
266.073
 20
-188.355
 42
-0.5756362391825
  0
SEQEND
  0
POLYLINE
  8
0
 66
     1
 10
0.0
 20
0.0
 30
0.0
 70
     1
  0
VERTEX
  8
0
 10
228.918
 20
219.062
 42
-27.7543847844427
  0
VERTEX
  8
0
 10
229.039
 20
219.278
 42
0.0
  0
SEQEND
  0
POLYLINE
  8
0
 66
     1
 10
0.0
 20
0.0
 30
0.0
 70
     1
  0
VERTEX
  8
0
 10
302.824
 20
35.0427
 42
-38.1935356031122
  0
VERTEX
  8
0
 10
302.543
 20
35.3239
 42
0.0
  0
SEQEND
  0
POLYLINE
  8
0
 66
     1
 10
0.0
 20
0.0
 30
0.0
 70
     1
  0
VERTEX
  8
0
 10
301.942
 20
51.0893
 42
-19.0426677935752
  0
VERTEX
  8
0
 10
302.193
 20
51.5238
 42
-0.0522613141947
  0
SEQEND
  0
POLYLINE
  8
0
 66
     1
 10
0.0
 20
0.0
 30
0.0
 70
     1
  0
VERTEX
  8
0
 10
298.313
 20
-190.929
 42
-0.2302215193708
  0
VERTEX
  8
0
 10
297.073
 20
-191.645
 42
0.0
  0
VERTEX
  8
0
 10
288.827
 20
-191.645
 42
-0.9308091961765
  0
VERTEX
  8
0
 10
288.827
 20
-188.355
 42
0.0
  0
VERTEX
  8
0
 10
297.073
 20
-188.355
 42
-0.5756362391874
  0
SEQEND
  0
POLYLINE
  8
0
 66
     1
 10
0.0
 20
0.0
 30
0.0
 70
     1
  0
VERTEX
  8
0
 10
-298.058
 20
51.0893
 42
-19.0426677918773
  0
VERTEX
  8
0
 10
-297.807
 20
51.5238
 42
-0.0522613141947
  0
SEQEND
  0
POLYLINE
  8
0
 66
     1
 10
0.0
 20
0.0
 30
0.0
 70
     1
  0
VERTEX
  8
0
 10
-228.918
 20
220.938
 42
-27.7543847703745
  0
VERTEX
  8
0
 10
-229.039
 20
220.722
 42
0.0
  0
SEQEND
  0
POLYLINE
  8
0
 66
     1
 10
0.0
 20
0.0
 30
0.0
 70
     1
  0
VERTEX
  8
0
 10
238.446
 20
-201.472
 42
-0.5928115382424
  0
VERTEX
  8
0
 10
235.75
 20
-200.0
 42
0.0
  0
VERTEX
  8
0
 10
235.75
 20
-110.0
 42
-0.9992257732617
  0
VERTEX
  8
0
 10
239.25
 20
-110.0
 42
0.0
  0
VERTEX
  8
0
 10
239.25
 20
-200.0
 42
-0.2544819968758
  0
SEQEND
  0
POLYLINE
  8
0
 66
     1
 10
0.0
 20
0.0
 30
0.0
 70
     1
  0
VERTEX
  8
0
 10
107.972
 20
219.054
 42
-0.2548359400671
  0
VERTEX
  8
0
 10
106.5
 20
218.25
 42
0.0
  0
VERTEX
  8
0
 10
6.5
 20
218.25
 42
-0.9992544754897
  0
VERTEX
  8
0
 10
6.5
 20
221.75
 42
0.0
  0
VERTEX
  8
0
 10
106.5
 20
221.75
 42
-0.5918552955772
  0
SEQEND
  0
POLYLINE
  8
0
 66
     1
 10
0.0
 20
0.0
 30
0.0
 70
     1
  0
VERTEX
  8
0
 10
-236.554
 20
-201.472
 42
-0.5928115382361
  0
VERTEX
  8
0
 10
-239.25
 20
-200.0
 42
0.0
  0
VERTEX
  8
0
 10
-239.25
 20
-110.0
 42
-0.9992257732672
  0
VERTEX
  8
0
 10
-235.75
 20
-110.0
 42
0.0
  0
VERTEX
  8
0
 10
-235.75
 20
-200.0
 42
-0.2544819968793
  0
SEQEND
  0
POLYLINE
  8
0
 66
     1
 10
0.0
 20
0.0
 30
0.0
 70
     1
  0
VERTEX
  8
0
 10
-119.575
 20
235.727
 42
-0.5454878469456
  0
VERTEX
  8
0
 10
-121.167
 20
233.25
 42
0.0
  0
VERTEX
  8
0
 10
-219.5
 20
233.25
 42
-0.9992257732618
  0
VERTEX
  8
0
 10
-219.5
 20
236.75
 42
0.0
  0
VERTEX
  8
0
 10
-121.167
 20
236.75
 42
-0.2941680624487
  0
SEQEND
  0
POLYLINE
  8
0
 66
     1
 10
0.0
 20
0.0
 30
0.0
 70
     1
  0
VERTEX
  8
0
 10
-107.972
 20
220.946
 42
-0.2548359400647
  0
VERTEX
  8
0
 10
-106.5
 20
221.75
 42
0.0
  0
VERTEX
  8
0
 10
-6.5
 20
221.75
 42
-0.9992544754892
  0
VERTEX
  8
0
 10
-6.5
 20
218.25
 42
0.0
  0
VERTEX
  8
0
 10
-106.5
 20
218.25
 42
-0.5918552955752
  0
SEQEND
  0
POLYLINE
  8
0
 66
     1
 10
0.0
 20
0.0
 30
0.0
 70
     1
  0
VERTEX
  8
0
 10
-298.058
 20
-73.9107
 42
-19.0277474523706
  0
VERTEX
  8
0
 10
-297.807
 20
-73.4762
 42
-0.0522613141953
  0
SEQEND
  0
POLYLINE
  8
0
 66
     1
 10
0.0
 20
0.0
 30
0.0
 70
     1
  0
VERTEX
  8
0
 10
-298.058
 20
71.0893
 42
-19.0277474502264
  0
VERTEX
  8
0
 10
-297.807
 20
71.5238
 42
-0.0522613141951
  0
SEQEND
  0
POLYLINE
  8
0
 66
     1
 10
0.0
 20
0.0
 30
0.0
 70
     1
  0
VERTEX
  8
0
 10
-118.028
 20
219.054
 42
-0.2548359400692
  0
VERTEX
  8
0
 10
-119.5
 20
218.25
 42
0.0
  0
VERTEX
  8
0
 10
-219.5
 20
218.25
 42
-0.9992257732541
  0
VERTEX
  8
0
 10
-219.5
 20
221.75
 42
0.0
  0
VERTEX
  8
0
 10
-119.5
 20
221.75
 42
-0.591855295574
  0
SEQEND
  0
POLYLINE
  8
0
 66
     1
 10
0.0
 20
0.0
 30
0.0
 70
     1
  0
VERTEX
  8
0
 10
298.313
 20
-221.929
 42
-0.2302215193795
  0
VERTEX
  8
0
 10
297.073
 20
-222.645
 42
0.0
  0
VERTEX
  8
0
 10
288.827
 20
-222.645
 42
-0.93080919618
  0
VERTEX
  8
0
 10
288.827
 20
-219.355
 42
0.0
  0
VERTEX
  8
0
 10
297.073
 20
-219.355
 42
-0.5756362391764
  0
SEQEND
  0
POLYLINE
  8
0
 66
     1
 10
0.0
 20
0.0
 30
0.0
 70
     1
  0
VERTEX
  8
0
 10
106.425
 20
234.273
 42
-0.2931191509187
  0
VERTEX
  8
0
 10
104.833
 20
233.25
 42
0.0
  0
VERTEX
  8
0
 10
6.5
 20
233.25
 42
-0.9992544754892
  0
VERTEX
  8
0
 10
6.5
 20
236.75
 42
0.0
  0
VERTEX
  8
0
 10
104.833
 20
236.75
 42
-0.5448710537963
  0
SEQEND
  0
POLYLINE
  8
0
 66
     1
 10
0.0
 20
0.0
 30
0.0
 70
     1
  0
VERTEX
  8
0
 10
220.446
 20
218.528
 42
-0.143409372144
  0
VERTEX
  8
0
 10
219.5
 20
218.25
 42
0.0
  0
VERTEX
  8
0
 10
119.5
 20
218.25
 42
-0.9992257732667
  0
VERTEX
  8
0
 10
119.5
 20
221.75
 42
0.0
  0
VERTEX
  8
0
 10
219.5
 20
221.75
 42
-0.7474462352348
  0
SEQEND
  0
POLYLINE
  8
0
 66
     1
 10
0.0
 20
0.0
 30
0.0
 70
     1
  0
VERTEX
  8
0
 10
301.942
 20
-73.9107
 42
-19.027747451794
  0
VERTEX
  8
0
 10
302.193
 20
-73.4762
 42
-0.0522613141944
  0
SEQEND
  0
POLYLINE
  8
0
 66
     1
 10
0.0
 20
0.0
 30
0.0
 70
     1
  0
VERTEX
  8
0
 10
301.942
 20
71.0893
 42
-19.0277474496251
  0
VERTEX
  8
0
 10
302.193
 20
71.5238
 42
-0.052261314195
  0
SEQEND
  0
POLYLINE
  8
0
 66
     1
 10
0.0
 20
0.0
 30
0.0
 70
     1
  0
VERTEX
  8
0
 10
267.313
 20
-221.929
 42
-0.2302215193745
  0
VERTEX
  8
0
 10
266.073
 20
-222.645
 42
0.0
  0
VERTEX
  8
0
 10
257.827
 20
-222.645
 42
-0.9308091961787
  0
VERTEX
  8
0
 10
257.827
 20
-219.355
 42
0.0
  0
VERTEX
  8
0
 10
266.073
 20
-219.355
 42
-0.5756362391823
  0
SEQEND
  0
POLYLINE
  8
0
 66
     1
 10
0.0
 20
0.0
 30
0.0
 70
     1
  0
VERTEX
  8
0
 10
267.313
 20
220.071
 42
-0.2302215193823
  0
VERTEX
  8
0
 10
266.073
 20
219.355
 42
0.0
  0
VERTEX
  8
0
 10
257.827
 20
219.355
 42
-0.9308091961719
  0
VERTEX
  8
0
 10
257.827
 20
222.645
 42
0.0
  0
VERTEX
  8
0
 10
266.073
 20
222.645
 42
-0.5756362391796
  0
SEQEND
  0
POLYLINE
  8
0
 66
     1
 10
0.0
 20
0.0
 30
0.0
 70
     1
  0
VERTEX
  8
0
 10
-298.058
 20
-53.9107
 42
-19.027747453277
  0
VERTEX
  8
0
 10
-297.807
 20
-53.4762
 42
-0.0522613141938
  0
SEQEND
  0
POLYLINE
  8
0
 66
     1
 10
0.0
 20
0.0
 30
0.0
 70
     1
  0
VERTEX
  8
0
 10
238.972
 20
5.72054
 42
-0.7479915551256
  0
VERTEX
  8
0
 10
235.75
 20
6.66666
 42
0.0
  0
VERTEX
  8
0
 10
235.75
 20
96.6667
 42
-0.9992257732729
  0
VERTEX
  8
0
 10
239.25
 20
96.6667
 42
0.0
  0
VERTEX
  8
0
 10
239.25
 20
6.66666
 42
-0.1429084453233
  0
SEQEND
  0
POLYLINE
  8
0
 66
     1
 10
0.0
 20
0.0
 30
0.0
 70
     1
  0
VERTEX
  8
0
 10
-228.918
 20
-219.062
 42
-27.7543847844427
  0
VERTEX
  8
0
 10
-229.039
 20
-219.278
 42
0.0
  0
SEQEND
  0
POLYLINE
  8
0
 66
     1
 10
0.0
 20
0.0
 30
0.0
 70
     1
  0
VERTEX
  8
0
 10
298.313
 20
220.071
 42
-0.2302215193768
  0
VERTEX
  8
0
 10
297.073
 20
219.355
 42
0.0
  0
VERTEX
  8
0
 10
288.827
 20
219.355
 42
-0.9308091961909
  0
VERTEX
  8
0
 10
288.827
 20
222.645
 42
0.0
  0
VERTEX
  8
0
 10
297.073
 20
222.645
 42
-0.5756362391608
  0
SEQEND
  0
POLYLINE
  8
0
 66
     1
 10
0.0
 20
0.0
 30
0.0
 70
     1
  0
VERTEX
  8
0
 10
228.918
 20
-220.938
 42
-27.7543847698655
  0
VERTEX
  8
0
 10
229.039
 20
-220.722
 42
0.0
  0
SEQEND
  0
POLYLINE
  8
0
 66
     1
 10
0.0
 20
0.0
 30
0.0
 70
     1
  0
VERTEX
  8
0
 10
-236.028
 20
5.72054
 42
-0.747991555126
  0
VERTEX
  8
0
 10
-239.25
 20
6.66666
 42
0.0
  0
VERTEX
  8
0
 10
-239.25
 20
96.6667
 42
-0.9992257732623
  0
VERTEX
  8
0
 10
-235.75
 20
96.6667
 42
0.0
  0
VERTEX
  8
0
 10
-235.75
 20
6.66666
 42
-0.1429084453234
  0
SEQEND
  0
POLYLINE
  8
0
 66
     1
 10
0.0
 20
0.0
 30
0.0
 70
     1
  0
VERTEX
  8
0
 10
301.942
 20
-53.9107
 42
-19.0277474503137
  0
VERTEX
  8
0
 10
302.193
 20
-53.4762
 42
-0.0522613141938
  0
SEQEND
  0
POLYLINE
  8
0
 66
     1
 10
0.0
 20
0.0
 30
0.0
 70
     1
  0
VERTEX
  8
0
 10
238.659
 20
216.434
 42
-38.0748149888556
  0
VERTEX
  8
0
 10
239.025
 20
216.574
 42
0.0
  0
SEQEND
  0
POLYLINE
  8
0
 66
     1
 10
0.0
 20
0.0
 30
0.0
 70
     1
  0
VERTEX
  8
0
 10
107.972
 20
-220.946
 42
-0.2548359400647
  0
VERTEX
  8
0
 10
106.5
 20
-221.75
 42
0.0
  0
VERTEX
  8
0
 10
6.5
 20
-221.75
 42
-0.9992544754892
  0
VERTEX
  8
0
 10
6.5
 20
-218.25
 42
0.0
  0
VERTEX
  8
0
 10
106.5
 20
-218.25
 42
-0.5918552955747
  0
SEQEND
  0
POLYLINE
  8
0
 66
     1
 10
0.0
 20
0.0
 30
0.0
 70
     1
  0
VERTEX
  8
0
 10
-316.028
 20
-170.946
 42
-0.7479919886619
  0
VERTEX
  8
0
 10
-319.25
 20
-170.0
 42
0.0
  0
VERTEX
  8
0
 10
-319.25
 20
145.0
 42
-0.9992257732756
  0
VERTEX
  8
0
 10
-315.75
 20
145.0
 42
0.0
  0
VERTEX
  8
0
 10
-315.75
 20
-170.0
 42
-0.1427725027239
  0
SEQEND
  0
POLYLINE
  8
0
 66
     1
 10
0.0
 20
0.0
 30
0.0
 70
     1
  0
VERTEX
  8
0
 10
220.446
 20
-221.472
 42
-0.1434093721402
  0
VERTEX
  8
0
 10
219.5
 20
-221.75
 42
0.0
  0
VERTEX
  8
0
 10
119.5
 20
-221.75
 42
-0.9992257732704
  0
VERTEX
  8
0
 10
119.5
 20
-218.25
 42
0.0
  0
VERTEX
  8
0
 10
219.5
 20
-218.25
 42
-0.7474462352332
  0
SEQEND
  0
POLYLINE
  8
0
 66
     1
 10
0.0
 20
0.0
 30
0.0
 70
     1
  0
VERTEX
  8
0
 10
302.824
 20
-35.0427
 42
-12.7987396217323
  0
VERTEX
  8
0
 10
303.471
 20
-34.0456
 42
-0.0787132269072
  0
SEQEND
  0
POLYLINE
  8
0
 66
     1
 10
0.0
 20
0.0
 30
0.0
 70
     1
  0
VERTEX
  8
0
 10
-236.341
 20
216.434
 42
-38.0748149827892
  0
VERTEX
  8
0
 10
-235.975
 20
216.574
 42
0.0
  0
SEQEND
  0
POLYLINE
  8
0
 66
     1
 10
0.0
 20
0.0
 30
0.0
 70
     1
  0
VERTEX
  8
0
 10
318.972
 20
-170.946
 42
-0.7479919886413
  0
VERTEX
  8
0
 10
315.75
 20
-170.0
 42
0.0
  0
VERTEX
  8
0
 10
315.75
 20
145.0
 42
-0.9992257732686
  0
VERTEX
  8
0
 10
319.25
 20
145.0
 42
0.0
  0
VERTEX
  8
0
 10
319.25
 20
-170.0
 42
-0.1427725027225
  0
SEQEND
  0
POLYLINE
  8
0
 66
     1
 10
0.0
 20
0.0
 30
0.0
 70
     1
  0
VERTEX
  8
0
 10
-107.972
 20
-219.054
 42
-0.2548359400671
  0
VERTEX
  8
0
 10
-106.5
 20
-218.25
 42
0.0
  0
VERTEX
  8
0
 10
-6.5
 20
-218.25
 42
-0.9992544754897
  0
VERTEX
  8
0
 10
-6.5
 20
-221.75
 42
0.0
  0
VERTEX
  8
0
 10
-106.5
 20
-221.75
 42
-0.5918552955782
  0
SEQEND
  0
POLYLINE
  8
0
 66
     1
 10
0.0
 20
0.0
 30
0.0
 70
     1
  0
VERTEX
  8
0
 10
-297.176
 20
-35.0427
 42
-12.7987396220338
  0
VERTEX
  8
0
 10
-296.529
 20
-34.0456
 42
-0.0787132269074
  0
SEQEND
  0
POLYLINE
  8
0
 66
     1
 10
0.0
 20
0.0
 30
0.0
 70
     1
  0
VERTEX
  8
0
 10
219.425
 20
234.273
 42
-0.2931191509219
  0
VERTEX
  8
0
 10
217.833
 20
233.25
 42
0.0
  0
VERTEX
  8
0
 10
119.5
 20
233.25
 42
-0.9992257732656
  0
VERTEX
  8
0
 10
119.5
 20
236.75
 42
0.0
  0
VERTEX
  8
0
 10
217.833
 20
236.75
 42
-0.5448710537964
  0
SEQEND
  0
POLYLINE
  8
0
 66
     1
 10
0.0
 20
0.0
 30
0.0
 70
     1
  0
VERTEX
  8
0
 10
267.313
 20
189.071
 42
-0.2302215193803
  0
VERTEX
  8
0
 10
266.073
 20
188.355
 42
0.0
  0
VERTEX
  8
0
 10
257.827
 20
188.355
 42
-0.9308091961918
  0
VERTEX
  8
0
 10
257.827
 20
191.645
 42
0.0
  0
VERTEX
  8
0
 10
266.073
 20
191.645
 42
-0.5756362391765
  0
SEQEND
  0
POLYLINE
  8
0
 66
     1
 10
0.0
 20
0.0
 30
0.0
 70
     1
  0
VERTEX
  8
0
 10
-118.028
 20
-220.946
 42
-0.2548359400655
  0
VERTEX
  8
0
 10
-119.5
 20
-221.75
 42
0.0
  0
VERTEX
  8
0
 10
-219.5
 20
-221.75
 42
-0.999225773266
  0
VERTEX
  8
0
 10
-219.5
 20
-218.25
 42
0.0
  0
VERTEX
  8
0
 10
-119.5
 20
-218.25
 42
-0.5918552955768
  0
SEQEND
  0
POLYLINE
  8
0
 66
     1
 10
0.0
 20
0.0
 30
0.0
 70
     1
  0
VERTEX
  8
0
 10
298.313
 20
189.071
 42
-0.230221519376
  0
VERTEX
  8
0
 10
297.073
 20
188.355
 42
0.0
  0
VERTEX
  8
0
 10
288.827
 20
188.355
 42
-0.9308091961777
  0
VERTEX
  8
0
 10
288.827
 20
191.645
 42
0.0
  0
VERTEX
  8
0
 10
297.073
 20
191.645
 42
-0.5756362391825
  0
SEQEND
  0
POLYLINE
  8
0
 66
     1
 10
0.0
 20
0.0
 30
0.0
 70
     1
  0
VERTEX
  8
0
 10
-297.176
 20
-15.0427
 42
-12.798739621862
  0
VERTEX
  8
0
 10
-296.529
 20
-14.0456
 42
-0.0787132269075
  0
SEQEND
  0
POLYLINE
  8
0
 66
     1
 10
0.0
 20
0.0
 30
0.0
 70
     1
  0
VERTEX
  8
0
 10
-236.341
 20
-223.566
 42
-38.0748149731997
  0
VERTEX
  8
0
 10
-235.975
 20
-223.426
 42
0.0
  0
SEQEND
  0
POLYLINE
  8
0
 66
     1
 10
0.0
 20
0.0
 30
0.0
 70
     1
  0
VERTEX
  8
0
 10
-263.082
 20
193.562
 42
-27.7543847822508
  0
VERTEX
  8
0
 10
-262.961
 20
193.778
 42
0.0
  0
SEQEND
  0
POLYLINE
  8
0
 66
     1
 10
0.0
 20
0.0
 30
0.0
 70
     1
  0
VERTEX
  8
0
 10
-107.972
 20
234.054
 42
-0.5928115382316
  0
VERTEX
  8
0
 10
-106.5
 20
236.75
 42
0.0
  0
VERTEX
  8
0
 10
-8.16666
 20
236.75
 42
-0.9992602153376
  0
VERTEX
  8
0
 10
-8.16666
 20
233.25
 42
0.0
  0
VERTEX
  8
0
 10
-106.5
 20
233.25
 42
-0.2544819968821
  0
SEQEND
  0
POLYLINE
  8
0
 66
     1
 10
0.0
 20
0.0
 30
0.0
 70
     1
  0
VERTEX
  8
0
 10
238.446
 20
108.528
 42
-0.5928115382353
  0
VERTEX
  8
0
 10
235.75
 20
110.0
 42
0.0
  0
VERTEX
  8
0
 10
235.75
 20
200.0
 42
-0.9992257732699
  0
VERTEX
  8
0
 10
239.25
 20
200.0
 42
0.0
  0
VERTEX
  8
0
 10
239.25
 20
110.0
 42
-0.2544819968787
  0
SEQEND
  0
POLYLINE
  8
0
 66
     1
 10
0.0
 20
0.0
 30
0.0
 70
     1
  0
VERTEX
  8
0
 10
238.659
 20
-223.566
 42
-38.0748149819072
  0
VERTEX
  8
0
 10
239.025
 20
-223.426
 42
0.0
  0
SEQEND
  0
POLYLINE
  8
0
 66
     1
 10
0.0
 20
0.0
 30
0.0
 70
     1
  0
VERTEX
  8
0
 10
324.691
 20
-227.462
 42
0.3033254057357
  0
VERTEX
  8
0
 10
325.0
 20
-227.0
 42
0.0
  0
VERTEX
  8
0
 10
325.0
 20
242.0
 42
0.4139265819577
  0
VERTEX
  8
0
 10
324.5
 20
242.5
 42
0.0
  0
VERTEX
  8
0
 10
-324.5
 20
242.5
 42
0.4139265819094
  0
VERTEX
  8
0
 10
-325.0
 20
242.0
 42
0.0
  0
VERTEX
  8
0
 10
-325.0
 20
-227.0
 42
0.4139265819911
  0
VERTEX
  8
0
 10
-324.5
 20
-227.5
 42
0.0
  0
VERTEX
  8
0
 10
324.5
 20
-227.5
 42
0.0973005818818
  0
SEQEND
  0
ENDSEC
  0
EOF
