  0
SECTION
  2
HEADER
  9
$ACADVER
  1
AC1009
  9
$EXTMAX
 10
227.375
 20
222.375
 30
0.0
  9
$EXTMIN
 10
-227.375
 20
-222.375
 30
0.0
  9
$INSUNITS
 70
     4
  9
$LUNITS
 70
     2
  9
$LUPREC
 70
     4
  9
$MEASUREMENT
 70
     1
  0
ENDSEC
  0
SECTION
  2
TABLES
  0
TABLE
  2
LAYER
 70
     1
  0
LAYER
  2
0
 70
     0
 62
    70
  6
Continuous
  0
ENDTAB
  0
TABLE
  2
APPID
 70
     1
  0
APPID
  2
ACAD
 70
     0
  0
ENDTAB
  0
ENDSEC
  0
SECTION
  2
ENTITIES
  0
POLYLINE
  8
0
 66
     1
 10
0.0
 20
0.0
 30
0.0
 70
     1
  0
VERTEX
  8
0
 10
-219.451
 20
84.6411
 42
-27.5228952274039
  0
VERTEX
  8
0
 10
-219.223
 20
84.7381
 42
0.0
  0
SEQEND
  0
POLYLINE
  8
0
 66
     1
 10
0.0
 20
0.0
 30
0.0
 70
     1
  0
VERTEX
  8
0
 10
-90.7905
 20
-97.6223
 42
-26.6852561149351
  0
VERTEX
  8
0
 10
-90.6367
 20
-97.4295
 42
0.0
  0
SEQEND
  0
POLYLINE
  8
0
 66
     1
 10
0.0
 20
0.0
 30
0.0
 70
     1
  0
VERTEX
  8
0
 10
93.6316
 20
118.254
 42
-26.7764766483926
  0
VERTEX
  8
0
 10
93.65
 20
118.5
 42
0.0
  0
SEQEND
  0
POLYLINE
  8
0
 66
     1
 10
0.0
 20
0.0
 30
0.0
 70
     1
  0
VERTEX
  8
0
 10
219.451
 20
-84.6411
 42
-27.5228952268841
  0
VERTEX
  8
0
 10
219.223
 20
-84.7381
 42
0.0
  0
SEQEND
  0
POLYLINE
  8
0
 66
     1
 10
0.0
 20
0.0
 30
0.0
 70
     1
  0
VERTEX
  8
0
 10
178.918
 20
214.062
 42
-27.7543847861043
  0
VERTEX
  8
0
 10
179.039
 20
214.278
 42
0.0
  0
SEQEND
  0
POLYLINE
  8
0
 66
     1
 10
0.0
 20
0.0
 30
0.0
 70
     1
  0
VERTEX
  8
0
 10
-117.877
 20
116.855
 42
-26.0660583571867
  0
VERTEX
  8
0
 10
-117.633
 20
116.891
 42
0.0
  0
SEQEND
  0
POLYLINE
  8
0
 66
     1
 10
0.0
 20
0.0
 30
0.0
 70
     1
  0
VERTEX
  8
0
 10
-219.451
 20
-87.8589
 42
-27.5228952219352
  0
VERTEX
  8
0
 10
-219.223
 20
-87.7619
 42
0.0
  0
SEQEND
  0
POLYLINE
  8
0
 66
     1
 10
0.0
 20
0.0
 30
0.0
 70
     1
  0
VERTEX
  8
0
 10
-87.3322
 20
214.062
 42
-27.1187408552419
  0
VERTEX
  8
0
 10
-87.2107
 20
214.278
 42
0.0
  0
SEQEND
  0
POLYLINE
  8
0
 66
     1
 10
0.0
 20
0.0
 30
0.0
 70
     1
  0
VERTEX
  8
0
 10
-176.082
 20
-215.938
 42
-27.7543847781352
  0
VERTEX
  8
0
 10
-175.961
 20
-215.722
 42
0.0
  0
SEQEND
  0
POLYLINE
  8
0
 66
     1
 10
0.0
 20
0.0
 30
0.0
 70
     1
  0
VERTEX
  8
0
 10
1.41779
 20
214.062
 42
-27.1746320407764
  0
VERTEX
  8
0
 10
1.53926
 20
214.278
 42
0.0
  0
SEQEND
  0
POLYLINE
  8
0
 66
     1
 10
0.0
 20
0.0
 30
0.0
 70
     1
  0
VERTEX
  8
0
 10
118.123
 20
-80.1454
 42
-26.8189636600215
  0
VERTEX
  8
0
 10
118.367
 20
-80.1086
 42
0.0
  0
SEQEND
  0
POLYLINE
  8
0
 66
     1
 10
0.0
 20
0.0
 30
0.0
 70
     1
  0
VERTEX
  8
0
 10
-90.3684
 20
118.254
 42
-26.7764766456249
  0
VERTEX
  8
0
 10
-90.35
 20
118.5
 42
0.0
  0
SEQEND
  0
POLYLINE
  8
0
 66
     1
 10
0.0
 20
0.0
 30
0.0
 70
     1
  0
VERTEX
  8
0
 10
-218.841
 20
-218.566
 42
-38.0748149814759
  0
VERTEX
  8
0
 10
-218.475
 20
-218.426
 42
0.0
  0
SEQEND
  0
POLYLINE
  8
0
 66
     1
 10
0.0
 20
0.0
 30
0.0
 70
     1
  0
VERTEX
  8
0
 10
-87.3322
 20
-215.938
 42
-27.1187408664372
  0
VERTEX
  8
0
 10
-87.2107
 20
-215.722
 42
0.0
  0
SEQEND
  0
POLYLINE
  8
0
 66
     1
 10
0.0
 20
0.0
 30
0.0
 70
     1
  0
VERTEX
  8
0
 10
93.6316
 20
136.254
 42
-26.7764766468478
  0
VERTEX
  8
0
 10
93.65
 20
136.5
 42
0.0
  0
SEQEND
  0
POLYLINE
  8
0
 66
     1
 10
0.0
 20
0.0
 30
0.0
 70
     1
  0
VERTEX
  8
0
 10
118.123
 20
116.855
 42
-26.0660583566221
  0
VERTEX
  8
0
 10
118.367
 20
116.891
 42
0.0
  0
SEQEND
  0
POLYLINE
  8
0
 66
     1
 10
0.0
 20
0.0
 30
0.0
 70
     1
  0
VERTEX
  8
0
 10
-176.082
 20
214.062
 42
-27.7543847556751
  0
VERTEX
  8
0
 10
-175.961
 20
214.278
 42
0.0
  0
SEQEND
  0
POLYLINE
  8
0
 66
     1
 10
0.0
 20
0.0
 30
0.0
 70
     1
  0
VERTEX
  8
0
 10
93.2095
 20
-79.6223
 42
-26.6852561198743
  0
VERTEX
  8
0
 10
93.3633
 20
-79.4295
 42
0.0
  0
SEQEND
  0
POLYLINE
  8
0
 66
     1
 10
0.0
 20
0.0
 30
0.0
 70
     1
  0
VERTEX
  8
0
 10
90.1678
 20
-215.938
 42
-27.1187408633876
  0
VERTEX
  8
0
 10
90.2893
 20
-215.722
 42
0.0
  0
SEQEND
  0
POLYLINE
  8
0
 66
     1
 10
0.0
 20
0.0
 30
0.0
 70
     1
  0
VERTEX
  8
0
 10
221.159
 20
-218.566
 42
-38.0748149677147
  0
VERTEX
  8
0
 10
221.525
 20
-218.426
 42
0.0
  0
SEQEND
  0
POLYLINE
  8
0
 66
     1
 10
0.0
 20
0.0
 30
0.0
 70
     1
  0
VERTEX
  8
0
 10
-117.877
 20
134.855
 42
-26.0660583477642
  0
VERTEX
  8
0
 10
-117.633
 20
134.891
 42
0.0
  0
SEQEND
  0
POLYLINE
  8
0
 66
     1
 10
0.0
 20
0.0
 30
0.0
 70
     1
  0
VERTEX
  8
0
 10
90.1678
 20
214.062
 42
-27.1187408641414
  0
VERTEX
  8
0
 10
90.2893
 20
214.278
 42
0.0
  0
SEQEND
  0
POLYLINE
  8
0
 66
     1
 10
0.0
 20
0.0
 30
0.0
 70
     1
  0
VERTEX
  8
0
 10
1.41779
 20
-215.938
 42
-27.1746320409454
  0
VERTEX
  8
0
 10
1.53926
 20
-215.722
 42
0.0
  0
SEQEND
  0
POLYLINE
  8
0
 66
     1
 10
0.0
 20
0.0
 30
0.0
 70
     1
  0
VERTEX
  8
0
 10
221.159
 20
211.434
 42
-38.0748149894206
  0
VERTEX
  8
0
 10
221.525
 20
211.574
 42
0.0
  0
SEQEND
  0
POLYLINE
  8
0
 66
     1
 10
0.0
 20
0.0
 30
0.0
 70
     1
  0
VERTEX
  8
0
 10
118.123
 20
134.855
 42
-26.0660583589144
  0
VERTEX
  8
0
 10
118.367
 20
134.891
 42
0.0
  0
SEQEND
  0
POLYLINE
  8
0
 66
     1
 10
0.0
 20
0.0
 30
0.0
 70
     1
  0
VERTEX
  8
0
 10
-117.877
 20
-80.1454
 42
-26.8189636548265
  0
VERTEX
  8
0
 10
-117.633
 20
-80.1086
 42
0.0
  0
SEQEND
  0
POLYLINE
  8
0
 66
     1
 10
0.0
 20
0.0
 30
0.0
 70
     1
  0
VERTEX
  8
0
 10
221.418
 20
-173.438
 42
-27.754384773054
  0
VERTEX
  8
0
 10
221.539
 20
-173.222
 42
0.0
  0
SEQEND
  0
POLYLINE
  8
0
 66
     1
 10
0.0
 20
0.0
 30
0.0
 70
     1
  0
VERTEX
  8
0
 10
-90.3684
 20
136.254
 42
-26.7764766474778
  0
VERTEX
  8
0
 10
-90.35
 20
136.5
 42
0.0
  0
SEQEND
  0
POLYLINE
  8
0
 66
     1
 10
0.0
 20
0.0
 30
0.0
 70
     1
  0
VERTEX
  8
0
 10
-218.841
 20
211.434
 42
-38.0748149804509
  0
VERTEX
  8
0
 10
-218.475
 20
211.574
 42
0.0
  0
SEQEND
  0
POLYLINE
  8
0
 66
     1
 10
0.0
 20
0.0
 30
0.0
 70
     1
  0
VERTEX
  8
0
 10
219.451
 20
1.60893
 42
-27.5700954138713
  0
VERTEX
  8
0
 10
219.223
 20
1.51187
 42
0.0
  0
SEQEND
  0
POLYLINE
  8
0
 66
     1
 10
0.0
 20
0.0
 30
0.0
 70
     1
  0
VERTEX
  8
0
 10
-221.418
 20
-171.562
 42
-27.7543847546703
  0
VERTEX
  8
0
 10
-221.539
 20
-171.778
 42
0.0
  0
SEQEND
  0
POLYLINE
  8
0
 66
     1
 10
0.0
 20
0.0
 30
0.0
 70
     1
  0
VERTEX
  8
0
 10
-219.451
 20
-1.60893
 42
-27.5700954135735
  0
VERTEX
  8
0
 10
-219.223
 20
-1.51187
 42
0.0
  0
SEQEND
  0
POLYLINE
  8
0
 66
     1
 10
0.0
 20
0.0
 30
0.0
 70
     1
  0
VERTEX
  8
0
 10
117.877
 20
-98.1454
 42
-26.7504966543393
  0
VERTEX
  8
0
 10
118.123
 20
-98.1454
 42
0.0
  0
SEQEND
  0
POLYLINE
  8
0
 66
     1
 10
0.0
 20
0.0
 30
0.0
 70
     1
  0
VERTEX
  8
0
 10
-90.7905
 20
-79.6223
 42
-26.6852561226817
  0
VERTEX
  8
0
 10
-90.6367
 20
-79.4295
 42
0.0
  0
SEQEND
  0
POLYLINE
  8
0
 66
     1
 10
0.0
 20
0.0
 30
0.0
 70
     1
  0
VERTEX
  8
0
 10
-117.877
 20
-98.1454
 42
-26.8189636549514
  0
VERTEX
  8
0
 10
-117.633
 20
-98.1086
 42
0.0
  0
SEQEND
  0
POLYLINE
  8
0
 66
     1
 10
0.0
 20
0.0
 30
0.0
 70
     1
  0
VERTEX
  8
0
 10
93.2095
 20
-97.6223
 42
-26.6852561234085
  0
VERTEX
  8
0
 10
93.3633
 20
-97.4295
 42
0.0
  0
SEQEND
  0
POLYLINE
  8
0
 66
     1
 10
0.0
 20
0.0
 30
0.0
 70
     1
  0
VERTEX
  8
0
 10
-221.418
 20
173.438
 42
-27.7543847730538
  0
VERTEX
  8
0
 10
-221.539
 20
173.222
 42
0.0
  0
SEQEND
  0
POLYLINE
  8
0
 66
     1
 10
0.0
 20
0.0
 30
0.0
 70
     1
  0
VERTEX
  8
0
 10
178.918
 20
-215.938
 42
-27.7543847667482
  0
VERTEX
  8
0
 10
179.039
 20
-215.722
 42
0.0
  0
SEQEND
  0
POLYLINE
  8
0
 66
     1
 10
0.0
 20
0.0
 30
0.0
 70
     1
  0
VERTEX
  8
0
 10
219.451
 20
87.8589
 42
-27.5228952229735
  0
VERTEX
  8
0
 10
219.223
 20
87.7619
 42
0.0
  0
SEQEND
  0
POLYLINE
  8
0
 66
     1
 10
0.0
 20
0.0
 30
0.0
 70
     1
  0
VERTEX
  8
0
 10
221.418
 20
171.562
 42
-27.7543847546703
  0
VERTEX
  8
0
 10
221.539
 20
171.778
 42
0.0
  0
SEQEND
  0
POLYLINE
  8
0
 66
     1
 10
0.0
 20
0.0
 30
0.0
 70
     1
  0
VERTEX
  8
0
 10
222.898
 20
-222.348
 42
0.3843118151426
  0
VERTEX
  8
0
 10
227.375
 20
-217.375
 42
0.0
  0
VERTEX
  8
0
 10
227.375
 20
217.375
 42
0.4147169626947
  0
VERTEX
  8
0
 10
222.375
 20
222.375
 42
0.0
  0
VERTEX
  8
0
 10
-222.375
 20
222.375
 42
0.414716962696
  0
VERTEX
  8
0
 10
-227.375
 20
217.375
 42
0.0
  0
VERTEX
  8
0
 10
-227.375
 20
-217.375
 42
0.4147169626944
  0
VERTEX
  8
0
 10
-222.375
 20
-222.375
 42
0.0
  0
VERTEX
  8
0
 10
222.375
 20
-222.375
 42
0.026441477994
  0
SEQEND
  0
ENDSEC
  0
EOF
