  0
SECTION
  2
HEADER
  9
$ACADVER
  1
AC1009
  9
$EXTMAX
 10
244.875
 20
222.375
 30
0.0
  9
$EXTMIN
 10
-244.875
 20
-222.375
 30
0.0
  9
$INSUNITS
 70
     4
  9
$LUNITS
 70
     2
  9
$LUPREC
 70
     4
  9
$MEASUREMENT
 70
     1
  0
ENDSEC
  0
SECTION
  2
TABLES
  0
TABLE
  2
LAYER
 70
     1
  0
LAYER
  2
0
 70
     0
 62
    70
  6
Continuous
  0
ENDTAB
  0
TABLE
  2
APPID
 70
     1
  0
APPID
  2
ACAD
 70
     0
  0
ENDTAB
  0
ENDSEC
  0
SECTION
  2
ENTITIES
  0
POLYLINE
  8
0
 66
     1
 10
0.0
 20
0.0
 30
0.0
 70
     1
  0
VERTEX
  8
0
 10
196.418
 20
-215.938
 42
-27.7543847827533
  0
VERTEX
  8
0
 10
196.539
 20
-215.722
 42
0.0
  0
SEQEND
  0
POLYLINE
  8
0
 66
     1
 10
0.0
 20
0.0
 30
0.0
 70
     1
  0
VERTEX
  8
0
 10
-28.0185
 20
-119.634
 42
-0.3877002097128
  0
VERTEX
  8
0
 10
-29.5115
 20
-121.0
 42
0.0
  0
VERTEX
  8
0
 10
-35.0907
 20
-121.0
 42
-0.4295549319957
  0
VERTEX
  8
0
 10
-36.5887
 20
-119.422
 42
-0.1382630933796
  0
VERTEX
  8
0
 10
-29.6819
 20
-100.838
 42
-0.1958214915241
  0
VERTEX
  8
0
 10
-27.5013
 20
-98.4323
 42
-0.3036502844317
  0
VERTEX
  8
0
 10
-25.8647
 20
-98.7566
 42
0.0
  0
VERTEX
  8
0
 10
-21.9033
 20
-102.718
 42
-0.3839359822762
  0
VERTEX
  8
0
 10
-21.7982
 20
-104.723
 42
0.147337276478
  0
SEQEND
  0
POLYLINE
  8
0
 66
     1
 10
0.0
 20
0.0
 30
0.0
 70
     1
  0
VERTEX
  8
0
 10
54.3657
 20
-71.1723
 42
-35.6781463110575
  0
VERTEX
  8
0
 10
54.4852
 20
-70.9561
 42
0.0
  0
SEQEND
  0
POLYLINE
  8
0
 66
     1
 10
0.0
 20
0.0
 30
0.0
 70
     1
  0
VERTEX
  8
0
 10
-193.582
 20
-215.938
 42
-27.7543847709327
  0
VERTEX
  8
0
 10
-193.461
 20
-215.722
 42
0.0
  0
SEQEND
  0
POLYLINE
  8
0
 66
     1
 10
0.0
 20
0.0
 30
0.0
 70
     1
  0
VERTEX
  8
0
 10
10.3218
 20
-136.732
 42
-0.3693774299621
  0
VERTEX
  8
0
 10
12.264
 20
-136.885
 42
0.0
  0
VERTEX
  8
0
 10
16.2289
 20
-140.85
 42
-0.4442100172182
  0
VERTEX
  8
0
 10
16.1122
 20
-143.077
 42
-0.1412360621711
  0
VERTEX
  8
0
 10
3.23465
 20
-148.444
 42
-0.4610416983035
  0
VERTEX
  8
0
 10
1.5
 20
-146.963
 42
0.0
  0
VERTEX
  8
0
 10
1.5
 20
-141.322
 42
-0.3665817601543
  0
VERTEX
  8
0
 10
2.76534
 20
-139.84
 42
0.1351978726995
  0
SEQEND
  0
POLYLINE
  8
0
 66
     1
 10
0.0
 20
0.0
 30
0.0
 70
     1
  0
VERTEX
  8
0
 10
238.659
 20
-218.566
 42
-38.0748149833539
  0
VERTEX
  8
0
 10
239.025
 20
-218.426
 42
0.0
  0
SEQEND
  0
POLYLINE
  8
0
 66
     1
 10
0.0
 20
0.0
 30
0.0
 70
     1
  0
VERTEX
  8
0
 10
236.951
 20
87.8589
 42
-27.5228952334198
  0
VERTEX
  8
0
 10
236.723
 20
87.7619
 42
0.0
  0
SEQEND
  0
POLYLINE
  8
0
 66
     1
 10
0.0
 20
0.0
 30
0.0
 70
     1
  0
VERTEX
  8
0
 10
-56.4593
 20
-124.014
 42
-0.0346290530006
  0
VERTEX
  8
0
 10
-50.6782
 20
-124.0
 42
-0.3985780229976
  0
VERTEX
  8
0
 10
-49.1802
 20
-125.421
 42
0.1710112274267
  0
VERTEX
  8
0
 10
-36.8271
 20
-155.306
 42
-0.3844474010148
  0
VERTEX
  8
0
 10
-36.9322
 20
-157.311
 42
0.0
  0
VERTEX
  8
0
 10
-40.8936
 20
-161.272
 42
-0.4442284732249
  0
VERTEX
  8
0
 10
-43.12
 20
-161.156
 42
-0.1585339555306
  0
VERTEX
  8
0
 10
-57.6035
 20
-128.475
 42
-0.0413244597263
  0
VERTEX
  8
0
 10
-57.7478
 20
-125.331
 42
-0.342374562355
  0
SEQEND
  0
POLYLINE
  8
0
 66
     1
 10
0.0
 20
0.0
 30
0.0
 70
     1
  0
VERTEX
  8
0
 10
-7.82314
 20
-127.965
 42
-32.4544303852217
  0
VERTEX
  8
0
 10
-7.85716
 20
-128.209
 42
0.0
  0
SEQEND
  0
POLYLINE
  8
0
 66
     1
 10
0.0
 20
0.0
 30
0.0
 70
     1
  0
VERTEX
  8
0
 10
2.87613
 20
-64.7478
 42
-0.0283612696621
  0
VERTEX
  8
0
 10
6.1315
 20
-64.9129
 42
-0.1576873970846
  0
VERTEX
  8
0
 10
38.6556
 20
-79.38
 42
-0.4451325096749
  0
VERTEX
  8
0
 10
38.7723
 20
-81.6064
 42
0.0
  0
VERTEX
  8
0
 10
34.8109
 20
-85.5678
 42
-0.3838023271594
  0
VERTEX
  8
0
 10
32.8063
 20
-85.6729
 42
0.1574247712862
  0
VERTEX
  8
0
 10
5.11745
 20
-73.4349
 42
-0.2643139672218
  0
VERTEX
  8
0
 10
2.01799
 20
-72.9557
 42
-0.2176070785305
  0
VERTEX
  8
0
 10
1.5
 20
-71.8218
 42
0.0
  0
VERTEX
  8
0
 10
1.5
 20
-66.2426
 42
-0.3900995847478
  0
SEQEND
  0
POLYLINE
  8
0
 66
     1
 10
0.0
 20
0.0
 30
0.0
 70
     1
  0
VERTEX
  8
0
 10
28.0185
 20
-119.634
 42
0.1344417433827
  0
VERTEX
  8
0
 10
22.7626
 20
-105.914
 42
-0.2543703653239
  0
VERTEX
  8
0
 10
21.4642
 20
-103.808
 42
-0.2045782956721
  0
VERTEX
  8
0
 10
21.9033
 20
-102.718
 42
0.0
  0
VERTEX
  8
0
 10
25.8647
 20
-98.7566
 42
-0.4450957902327
  0
VERTEX
  8
0
 10
28.0911
 20
-98.8733
 42
-0.1511922822596
  0
VERTEX
  8
0
 10
36.5528
 20
-118.737
 42
-0.5403577103804
  0
VERTEX
  8
0
 10
35.0907
 20
-121.0
 42
0.0
  0
VERTEX
  8
0
 10
29.5115
 20
-121.0
 42
-0.3986877419968
  0
VERTEX
  8
0
 10
28.0219
 20
-119.634
 42
-0.0143248530249
  0
SEQEND
  0
POLYLINE
  8
0
 66
     1
 10
0.0
 20
0.0
 30
0.0
 70
     1
  0
VERTEX
  8
0
 10
14.2324
 20
-112.178
 42
-0.3679108103259
  0
VERTEX
  8
0
 10
14.3854
 20
-110.236
 42
0.0
  0
VERTEX
  8
0
 10
18.3502
 20
-106.271
 42
-0.4457219095057
  0
VERTEX
  8
0
 10
20.5766
 20
-106.388
 42
-0.14123442807
  0
VERTEX
  8
0
 10
25.9442
 20
-119.265
 42
-0.4608995817917
  0
VERTEX
  8
0
 10
24.4627
 20
-121.0
 42
0.0
  0
VERTEX
  8
0
 10
18.8217
 20
-121.0
 42
-0.3681008608854
  0
VERTEX
  8
0
 10
17.3401
 20
-119.735
 42
0.1144612137049
  0
SEQEND
  0
POLYLINE
  8
0
 66
     1
 10
0.0
 20
0.0
 30
0.0
 70
     1
  0
VERTEX
  8
0
 10
7.82314
 20
-127.965
 42
-33.1178750688502
  0
VERTEX
  8
0
 10
7.75941
 20
-127.728
 42
0.0
  0
SEQEND
  0
POLYLINE
  8
0
 66
     1
 10
0.0
 20
0.0
 30
0.0
 70
     1
  0
VERTEX
  8
0
 10
-236.341
 20
-218.566
 42
-38.0748149879405
  0
VERTEX
  8
0
 10
-235.975
 20
-218.426
 42
0.0
  0
SEQEND
  0
POLYLINE
  8
0
 66
     1
 10
0.0
 20
0.0
 30
0.0
 70
     1
  0
VERTEX
  8
0
 10
-57.9874
 20
-98.7316
 42
0.0
  0
VERTEX
  8
0
 10
-58.0
 20
-98.5379
 42
0.0
  0
VERTEX
  8
0
 10
-58.0
 20
-86.6575
 42
-0.1449560408003
  0
VERTEX
  8
0
 10
-57.758
 20
-85.8405
 42
-0.0262583791173
  0
VERTEX
  8
0
 10
-55.3682
 20
-82.1757
 42
-0.0786262687466
  0
VERTEX
  8
0
 10
-40.1973
 20
-67.0395
 42
-0.0413765414927
  0
VERTEX
  8
0
 10
-36.4413
 20
-64.6247
 42
-0.1029671472091
  0
VERTEX
  8
0
 10
-35.8425
 20
-64.5
 42
0.0
  0
VERTEX
  8
0
 10
-23.9621
 20
-64.5
 42
-0.8315839591503
  0
VERTEX
  8
0
 10
-23.4246
 20
-67.4004
 42
0.026390916789
  0
VERTEX
  8
0
 10
-24.4054
 20
-67.7813
 42
0.1851432319364
  0
VERTEX
  8
0
 10
-54.7507
 20
-98.1664
 42
-0.3546104011162
  0
VERTEX
  8
0
 10
-56.1841
 20
-100.004
 42
-0.4385728433818
  0
SEQEND
  0
POLYLINE
  8
0
 66
     1
 10
0.0
 20
0.0
 30
0.0
 70
     1
  0
VERTEX
  8
0
 10
10.3218
 20
-108.268
 42
0.1308124813781
  0
VERTEX
  8
0
 10
2.76534
 20
-105.16
 42
-0.3691220351005
  0
VERTEX
  8
0
 10
1.5
 20
-103.678
 42
0.0
  0
VERTEX
  8
0
 10
1.5
 20
-98.0373
 42
-0.4609163812539
  0
VERTEX
  8
0
 10
3.23465
 20
-96.5558
 42
-0.1274599319533
  0
VERTEX
  8
0
 10
15.4415
 20
-101.38
 42
-0.3470600121298
  0
VERTEX
  8
0
 10
16.6605
 20
-103.242
 42
-0.1726861812987
  0
VERTEX
  8
0
 10
16.2289
 20
-104.15
 42
0.0
  0
VERTEX
  8
0
 10
12.264
 20
-108.115
 42
-0.3812152388527
  0
SEQEND
  0
POLYLINE
  8
0
 66
     1
 10
0.0
 20
0.0
 30
0.0
 70
     1
  0
VERTEX
  8
0
 10
57.7522
 20
-125.376
 42
-0.0280747147443
  0
VERTEX
  8
0
 10
57.5871
 20
-128.632
 42
-0.1576867823358
  0
VERTEX
  8
0
 10
43.12
 20
-161.156
 42
-0.4449283222256
  0
VERTEX
  8
0
 10
40.8936
 20
-161.272
 42
0.0
  0
VERTEX
  8
0
 10
36.9322
 20
-157.311
 42
-0.3839359822766
  0
VERTEX
  8
0
 10
36.8271
 20
-155.306
 42
0.1573892662612
  0
VERTEX
  8
0
 10
49.0651
 20
-127.617
 42
-0.2643431973541
  0
VERTEX
  8
0
 10
49.5443
 20
-124.518
 42
-0.2167820159046
  0
VERTEX
  8
0
 10
50.6782
 20
-124.0
 42
0.0
  0
VERTEX
  8
0
 10
56.2574
 20
-124.0
 42
-0.3900372537539
  0
SEQEND
  0
POLYLINE
  8
0
 66
     1
 10
0.0
 20
0.0
 30
0.0
 70
     1
  0
VERTEX
  8
0
 10
-10.3218
 20
-108.268
 42
-0.3693774299625
  0
VERTEX
  8
0
 10
-12.264
 20
-108.115
 42
0.0
  0
VERTEX
  8
0
 10
-16.2289
 20
-104.15
 42
-0.4442100172178
  0
VERTEX
  8
0
 10
-16.1122
 20
-101.923
 42
-0.1412165772338
  0
VERTEX
  8
0
 10
-3.23465
 20
-96.5558
 42
-0.4610076022468
  0
VERTEX
  8
0
 10
-1.5
 20
-98.0373
 42
0.0
  0
VERTEX
  8
0
 10
-1.5
 20
-103.678
 42
-0.3665817601542
  0
VERTEX
  8
0
 10
-2.76534
 20
-105.16
 42
0.1351978726991
  0
SEQEND
  0
POLYLINE
  8
0
 66
     1
 10
0.0
 20
0.0
 30
0.0
 70
     1
  0
VERTEX
  8
0
 10
54.4852
 20
-175.956
 42
-35.3070096182073
  0
VERTEX
  8
0
 10
54.5798
 20
-175.728
 42
0.0
  0
SEQEND
  0
POLYLINE
  8
0
 66
     1
 10
0.0
 20
0.0
 30
0.0
 70
     1
  0
VERTEX
  8
0
 10
23.7684
 20
-64.5126
 42
0.0
  0
VERTEX
  8
0
 10
23.9621
 20
-64.5
 42
0.0
  0
VERTEX
  8
0
 10
35.8425
 20
-64.5
 42
-0.1449560407994
  0
VERTEX
  8
0
 10
36.6595
 20
-64.742
 42
-0.0262583791174
  0
VERTEX
  8
0
 10
40.3243
 20
-67.1318
 42
-0.0786262687466
  0
VERTEX
  8
0
 10
55.4605
 20
-82.3027
 42
-0.0413765414926
  0
VERTEX
  8
0
 10
57.8753
 20
-86.0587
 42
-0.1029671472088
  0
VERTEX
  8
0
 10
58.0
 20
-86.6575
 42
0.0
  0
VERTEX
  8
0
 10
58.0
 20
-98.5379
 42
-0.8315839591498
  0
VERTEX
  8
0
 10
55.0996
 20
-99.0754
 42
0.0263909167889
  0
VERTEX
  8
0
 10
54.7187
 20
-98.0946
 42
0.1851432319364
  0
VERTEX
  8
0
 10
24.3336
 20
-67.7493
 42
-0.354175392305
  0
VERTEX
  8
0
 10
22.4958
 20
-66.3159
 42
-0.4385330957011
  0
SEQEND
  0
POLYLINE
  8
0
 66
     1
 10
0.0
 20
0.0
 30
0.0
 70
     1
  0
VERTEX
  8
0
 10
47.1689
 20
-125.376
 42
-0.1705836967524
  0
VERTEX
  8
0
 10
35.6055
 20
-153.641
 42
-0.4453561870024
  0
VERTEX
  8
0
 10
33.3792
 20
-153.758
 42
0.0
  0
VERTEX
  8
0
 10
29.4178
 20
-149.796
 42
-0.3842246008115
  0
VERTEX
  8
0
 10
29.3127
 20
-147.792
 42
0.1538939217206
  0
VERTEX
  8
0
 10
38.5398
 20
-126.511
 42
-0.3032292917427
  0
VERTEX
  8
0
 10
39.1381
 20
-124.345
 42
-0.173931802892
  0
VERTEX
  8
0
 10
40.0948
 20
-124.0
 42
0.0
  0
VERTEX
  8
0
 10
45.6741
 20
-124.0
 42
-0.3900372537547
  0
SEQEND
  0
POLYLINE
  8
0
 66
     1
 10
0.0
 20
0.0
 30
0.0
 70
     1
  0
VERTEX
  8
0
 10
236.951
 20
1.60893
 42
-27.5700954138321
  0
VERTEX
  8
0
 10
236.723
 20
1.51187
 42
0.0
  0
SEQEND
  0
POLYLINE
  8
0
 66
     1
 10
0.0
 20
0.0
 30
0.0
 70
     1
  0
VERTEX
  8
0
 10
-54.4852
 20
-174.044
 42
-35.3070096116004
  0
VERTEX
  8
0
 10
-54.5798
 20
-174.272
 42
0.0
  0
SEQEND
  0
POLYLINE
  8
0
 66
     1
 10
0.0
 20
0.0
 30
0.0
 70
     1
  0
VERTEX
  8
0
 10
-236.951
 20
-1.60893
 42
-27.570095413938
  0
VERTEX
  8
0
 10
-236.723
 20
-1.51187
 42
0.0
  0
SEQEND
  0
POLYLINE
  8
0
 66
     1
 10
0.0
 20
0.0
 30
0.0
 70
     1
  0
VERTEX
  8
0
 10
-47.1689
 20
-119.624
 42
-0.1705675974177
  0
VERTEX
  8
0
 10
-35.6055
 20
-91.3589
 42
-0.4454622455971
  0
VERTEX
  8
0
 10
-33.3792
 20
-91.2422
 42
0.0
  0
VERTEX
  8
0
 10
-29.4178
 20
-95.2036
 42
-0.3839033700755
  0
VERTEX
  8
0
 10
-29.3127
 20
-97.2082
 42
0.1538956871717
  0
VERTEX
  8
0
 10
-38.5398
 20
-118.489
 42
-0.3032292917428
  0
VERTEX
  8
0
 10
-39.1381
 20
-120.655
 42
-0.173931802892
  0
VERTEX
  8
0
 10
-40.0948
 20
-121.0
 42
0.0
  0
VERTEX
  8
0
 10
-45.6741
 20
-121.0
 42
-0.3900372537541
  0
SEQEND
  0
POLYLINE
  8
0
 66
     1
 10
0.0
 20
0.0
 30
0.0
 70
     1
  0
VERTEX
  8
0
 10
45.876
 20
-120.986
 42
-0.0346290530005
  0
VERTEX
  8
0
 10
40.0948
 20
-121.0
 42
-0.3987740198495
  0
VERTEX
  8
0
 10
38.5969
 20
-119.579
 42
0.1665597284899
  0
VERTEX
  8
0
 10
29.3127
 20
-97.2082
 42
-0.3839261460585
  0
VERTEX
  8
0
 10
29.4178
 20
-95.2036
 42
0.0
  0
VERTEX
  8
0
 10
33.3792
 20
-91.2422
 42
-0.4454271192299
  0
VERTEX
  8
0
 10
35.6055
 20
-91.3589
 42
-0.1555603924081
  0
VERTEX
  8
0
 10
47.0782
 20
-117.631
 42
-0.2590238737534
  0
VERTEX
  8
0
 10
46.9044
 20
-120.358
 42
-0.2088199845929
  0
SEQEND
  0
POLYLINE
  8
0
 66
     1
 10
0.0
 20
0.0
 30
0.0
 70
     1
  0
VERTEX
  8
0
 10
238.918
 20
-173.438
 42
-27.7543847522604
  0
VERTEX
  8
0
 10
239.039
 20
-173.222
 42
0.0
  0
SEQEND
  0
POLYLINE
  8
0
 66
     1
 10
0.0
 20
0.0
 30
0.0
 70
     1
  0
VERTEX
  8
0
 10
196.418
 20
214.062
 42
-27.7543847710197
  0
VERTEX
  8
0
 10
196.539
 20
214.278
 42
0.0
  0
SEQEND
  0
POLYLINE
  8
0
 66
     1
 10
0.0
 20
0.0
 30
0.0
 70
     1
  0
VERTEX
  8
0
 10
-238.918
 20
-171.562
 42
-27.7543847861846
  0
VERTEX
  8
0
 10
-239.039
 20
-171.778
 42
0.0
  0
SEQEND
  0
POLYLINE
  8
0
 66
     1
 10
0.0
 20
0.0
 30
0.0
 70
     1
  0
VERTEX
  8
0
 10
-2.87613
 20
-180.252
 42
-0.0303752988737
  0
VERTEX
  8
0
 10
-6.1315
 20
-180.087
 42
-0.1576805980478
  0
VERTEX
  8
0
 10
-38.6556
 20
-165.62
 42
-0.4454134954325
  0
VERTEX
  8
0
 10
-38.7723
 20
-163.394
 42
0.0
  0
VERTEX
  8
0
 10
-34.8109
 20
-159.432
 42
-0.3842714102922
  0
VERTEX
  8
0
 10
-32.8063
 20
-159.327
 42
0.158727126318
  0
VERTEX
  8
0
 10
-5.11745
 20
-171.565
 42
-0.2639652127061
  0
VERTEX
  8
0
 10
-2.01799
 20
-172.044
 42
-0.2172687178057
  0
VERTEX
  8
0
 10
-1.5
 20
-173.178
 42
0.0
  0
VERTEX
  8
0
 10
-1.5
 20
-178.757
 42
-0.3904034112537
  0
SEQEND
  0
POLYLINE
  8
0
 66
     1
 10
0.0
 20
0.0
 30
0.0
 70
     1
  0
VERTEX
  8
0
 10
2.866
 20
-94.4815
 42
-0.3885020372556
  0
VERTEX
  8
0
 10
1.5
 20
-92.9885
 42
0.0
  0
VERTEX
  8
0
 10
1.5
 20
-87.4093
 42
-0.4295432175406
  0
VERTEX
  8
0
 10
3.07849
 20
-85.9113
 42
-0.1382604919592
  0
VERTEX
  8
0
 10
21.6622
 20
-92.8181
 42
-0.1957991137273
  0
VERTEX
  8
0
 10
24.0677
 20
-94.9987
 42
-0.3036502844313
  0
VERTEX
  8
0
 10
23.7434
 20
-96.6353
 42
0.0
  0
VERTEX
  8
0
 10
19.782
 20
-100.597
 42
-0.3841185049932
  0
VERTEX
  8
0
 10
17.7773
 20
-100.702
 42
0.147334788809
  0
SEQEND
  0
POLYLINE
  8
0
 66
     1
 10
0.0
 20
0.0
 30
0.0
 70
     1
  0
VERTEX
  8
0
 10
238.918
 20
171.562
 42
-27.7543847789211
  0
VERTEX
  8
0
 10
239.039
 20
171.778
 42
0.0
  0
SEQEND
  0
POLYLINE
  8
0
 66
     1
 10
0.0
 20
0.0
 30
0.0
 70
     1
  0
VERTEX
  8
0
 10
-2.866
 20
-94.4815
 42
0.1325268141794
  0
VERTEX
  8
0
 10
-16.5865
 20
-99.7374
 42
-0.2550654661068
  0
VERTEX
  8
0
 10
-18.6924
 20
-101.036
 42
-0.2024557835922
  0
VERTEX
  8
0
 10
-19.782
 20
-100.597
 42
0.0
  0
VERTEX
  8
0
 10
-23.7434
 20
-96.6353
 42
-0.4450957902329
  0
VERTEX
  8
0
 10
-23.6267
 20
-94.4089
 42
-0.1512465810056
  0
VERTEX
  8
0
 10
-3.76282
 20
-85.9472
 42
-0.5414605895467
  0
VERTEX
  8
0
 10
-1.5
 20
-87.4093
 42
0.0
  0
VERTEX
  8
0
 10
-1.5
 20
-92.9885
 42
-0.3989573261043
  0
VERTEX
  8
0
 10
-2.86635
 20
-94.4781
 42
-0.0145238568606
  0
SEQEND
  0
POLYLINE
  8
0
 66
     1
 10
0.0
 20
0.0
 30
0.0
 70
     1
  0
VERTEX
  8
0
 10
-45.876
 20
-124.014
 42
-0.0346290530006
  0
VERTEX
  8
0
 10
-40.0948
 20
-124.0
 42
-0.3987740198485
  0
VERTEX
  8
0
 10
-38.5969
 20
-125.421
 42
0.1665066568351
  0
VERTEX
  8
0
 10
-29.3127
 20
-147.792
 42
-0.3844534001576
  0
VERTEX
  8
0
 10
-29.4178
 20
-149.796
 42
0.0
  0
VERTEX
  8
0
 10
-33.3792
 20
-153.758
 42
-0.4458745710795
  0
VERTEX
  8
0
 10
-35.6055
 20
-153.641
 42
-0.155561113766
  0
VERTEX
  8
0
 10
-47.0782
 20
-127.369
 42
-0.2590238737538
  0
VERTEX
  8
0
 10
-46.9044
 20
-124.642
 42
-0.2088199845917
  0
SEQEND
  0
POLYLINE
  8
0
 66
     1
 10
0.0
 20
0.0
 30
0.0
 70
     1
  0
VERTEX
  8
0
 10
-238.918
 20
173.438
 42
-27.7543847522604
  0
VERTEX
  8
0
 10
-239.039
 20
173.222
 42
0.0
  0
SEQEND
  0
POLYLINE
  8
0
 66
     1
 10
0.0
 20
0.0
 30
0.0
 70
     1
  0
VERTEX
  8
0
 10
-236.951
 20
-87.8589
 42
-27.5228952322528
  0
VERTEX
  8
0
 10
-236.723
 20
-87.7619
 42
0.0
  0
SEQEND
  0
POLYLINE
  8
0
 66
     1
 10
0.0
 20
0.0
 30
0.0
 70
     1
  0
VERTEX
  8
0
 10
98.9178
 20
214.062
 42
-27.1187408634215
  0
VERTEX
  8
0
 10
99.0393
 20
214.278
 42
0.0
  0
SEQEND
  0
POLYLINE
  8
0
 66
     1
 10
0.0
 20
0.0
 30
0.0
 70
     1
  0
VERTEX
  8
0
 10
-28.0185
 20
-125.366
 42
0.1344417433826
  0
VERTEX
  8
0
 10
-22.7626
 20
-139.086
 42
-0.2543703653238
  0
VERTEX
  8
0
 10
-21.4642
 20
-141.192
 42
-0.2045782956721
  0
VERTEX
  8
0
 10
-21.9033
 20
-142.282
 42
0.0
  0
VERTEX
  8
0
 10
-25.8647
 20
-146.243
 42
-0.4442284732244
  0
VERTEX
  8
0
 10
-28.0911
 20
-146.127
 42
-0.1511894637061
  0
VERTEX
  8
0
 10
-36.5528
 20
-126.263
 42
-0.5403577103811
  0
VERTEX
  8
0
 10
-35.0907
 20
-124.0
 42
0.0
  0
VERTEX
  8
0
 10
-29.5115
 20
-124.0
 42
-0.3986877419961
  0
VERTEX
  8
0
 10
-28.0219
 20
-125.366
 42
-0.0143248530244
  0
SEQEND
  0
POLYLINE
  8
0
 66
     1
 10
0.0
 20
0.0
 30
0.0
 70
     1
  0
VERTEX
  8
0
 10
-2.87613
 20
-169.669
 42
-0.1705172337496
  0
VERTEX
  8
0
 10
-31.1411
 20
-158.106
 42
-0.4455641873686
  0
VERTEX
  8
0
 10
-31.2578
 20
-155.879
 42
0.0
  0
VERTEX
  8
0
 10
-27.2964
 20
-151.918
 42
-0.3841223580809
  0
VERTEX
  8
0
 10
-25.2918
 20
-151.813
 42
0.1552318860697
  0
VERTEX
  8
0
 10
-4.0112
 20
-161.04
 42
-0.3027766829339
  0
VERTEX
  8
0
 10
-1.84476
 20
-161.638
 42
-0.1747600138475
  0
VERTEX
  8
0
 10
-1.5
 20
-162.595
 42
0.0
  0
VERTEX
  8
0
 10
-1.5
 20
-168.174
 42
-0.3904034112537
  0
SEQEND
  0
POLYLINE
  8
0
 66
     1
 10
0.0
 20
0.0
 30
0.0
 70
     1
  0
VERTEX
  8
0
 10
-193.582
 20
214.062
 42
-27.7543847795927
  0
VERTEX
  8
0
 10
-193.461
 20
214.278
 42
0.0
  0
SEQEND
  0
POLYLINE
  8
0
 66
     1
 10
0.0
 20
0.0
 30
0.0
 70
     1
  0
VERTEX
  8
0
 10
-14.2324
 20
-132.822
 42
-0.3679108103262
  0
VERTEX
  8
0
 10
-14.3854
 20
-134.764
 42
0.0
  0
VERTEX
  8
0
 10
-18.3502
 20
-138.729
 42
-0.4457219095064
  0
VERTEX
  8
0
 10
-20.5766
 20
-138.612
 42
-0.1412344280699
  0
VERTEX
  8
0
 10
-25.9442
 20
-125.735
 42
-0.4608995817915
  0
VERTEX
  8
0
 10
-24.4627
 20
-124.0
 42
0.0
  0
VERTEX
  8
0
 10
-18.8217
 20
-124.0
 42
-0.368100860885
  0
VERTEX
  8
0
 10
-17.3401
 20
-125.265
 42
0.1144612137044
  0
SEQEND
  0
POLYLINE
  8
0
 66
     1
 10
0.0
 20
0.0
 30
0.0
 70
     1
  0
VERTEX
  8
0
 10
236.951
 20
-84.6411
 42
-27.522895219891
  0
VERTEX
  8
0
 10
236.723
 20
-84.7381
 42
0.0
  0
SEQEND
  0
POLYLINE
  8
0
 66
     1
 10
0.0
 20
0.0
 30
0.0
 70
     1
  0
VERTEX
  8
0
 10
238.659
 20
211.434
 42
-38.0748149936262
  0
VERTEX
  8
0
 10
239.025
 20
211.574
 42
0.0
  0
SEQEND
  0
POLYLINE
  8
0
 66
     1
 10
0.0
 20
0.0
 30
0.0
 70
     1
  0
VERTEX
  8
0
 10
1.51366
 20
-168.376
 42
-0.0337733141139
  0
VERTEX
  8
0
 10
1.5
 20
-162.595
 42
-0.3986340970412
  0
VERTEX
  8
0
 10
2.92149
 20
-161.097
 42
0.166574973609
  0
VERTEX
  8
0
 10
25.2918
 20
-151.813
 42
-0.3848888545669
  0
VERTEX
  8
0
 10
27.2964
 20
-151.918
 42
0.0
  0
VERTEX
  8
0
 10
31.2578
 20
-155.879
 42
-0.4442100172175
  0
VERTEX
  8
0
 10
31.1411
 20
-158.106
 42
-0.1569064617965
  0
VERTEX
  8
0
 10
4.86909
 20
-169.578
 42
-0.2600087222276
  0
VERTEX
  8
0
 10
2.14189
 20
-169.404
 42
-0.2097276804865
  0
SEQEND
  0
POLYLINE
  8
0
 66
     1
 10
0.0
 20
0.0
 30
0.0
 70
     1
  0
VERTEX
  8
0
 10
1.41779
 20
214.062
 42
-27.1746320407764
  0
VERTEX
  8
0
 10
1.53926
 20
214.278
 42
0.0
  0
SEQEND
  0
POLYLINE
  8
0
 66
     1
 10
0.0
 20
0.0
 30
0.0
 70
     1
  0
VERTEX
  8
0
 10
-57.7522
 20
-119.624
 42
-0.0280747147444
  0
VERTEX
  8
0
 10
-57.5871
 20
-116.368
 42
-0.1576843233033
  0
VERTEX
  8
0
 10
-43.12
 20
-83.8444
 42
-0.4451325096748
  0
VERTEX
  8
0
 10
-40.8936
 20
-83.7277
 42
0.0
  0
VERTEX
  8
0
 10
-36.9322
 20
-87.6891
 42
-0.3838023271585
  0
VERTEX
  8
0
 10
-36.8271
 20
-89.6937
 42
0.1573872048271
  0
VERTEX
  8
0
 10
-49.0651
 20
-117.383
 42
-0.264343197354
  0
VERTEX
  8
0
 10
-49.5443
 20
-120.482
 42
-0.2167820159048
  0
VERTEX
  8
0
 10
-50.6782
 20
-121.0
 42
0.0
  0
VERTEX
  8
0
 10
-56.2574
 20
-121.0
 42
-0.390037253755
  0
SEQEND
  0
POLYLINE
  8
0
 66
     1
 10
0.0
 20
0.0
 30
0.0
 70
     1
  0
VERTEX
  8
0
 10
-23.7684
 20
-180.487
 42
0.0
  0
VERTEX
  8
0
 10
-23.9621
 20
-180.5
 42
0.0
  0
VERTEX
  8
0
 10
-35.8425
 20
-180.5
 42
-0.1456371039055
  0
VERTEX
  8
0
 10
-36.6595
 20
-180.258
 42
-0.0281081001199
  0
VERTEX
  8
0
 10
-40.3243
 20
-177.868
 42
-0.0786245966758
  0
VERTEX
  8
0
 10
-55.4605
 20
-162.697
 42
-0.041172012818
  0
VERTEX
  8
0
 10
-57.8753
 20
-158.941
 42
-0.1033283528636
  0
VERTEX
  8
0
 10
-58.0
 20
-158.343
 42
0.0
  0
VERTEX
  8
0
 10
-58.0
 20
-146.462
 42
-0.8327023956741
  0
VERTEX
  8
0
 10
-55.0996
 20
-145.925
 42
0.028483367667
  0
VERTEX
  8
0
 10
-54.7187
 20
-146.905
 42
0.1047794784022
  0
VERTEX
  8
0
 10
-40.1199
 20
-166.999
 42
0.0788462436997
  0
VERTEX
  8
0
 10
-24.3336
 20
-177.251
 42
-0.3542627670975
  0
VERTEX
  8
0
 10
-22.4958
 20
-178.684
 42
-0.4373239416494
  0
SEQEND
  0
POLYLINE
  8
0
 66
     1
 10
0.0
 20
0.0
 30
0.0
 70
     1
  0
VERTEX
  8
0
 10
28.0185
 20
-125.366
 42
-0.3877002097127
  0
VERTEX
  8
0
 10
29.5115
 20
-124.0
 42
0.0
  0
VERTEX
  8
0
 10
35.0907
 20
-124.0
 42
-0.4295549319969
  0
VERTEX
  8
0
 10
36.5887
 20
-125.578
 42
-0.1382630933795
  0
VERTEX
  8
0
 10
29.6819
 20
-144.162
 42
-0.1950659132772
  0
VERTEX
  8
0
 10
27.5013
 20
-146.568
 42
-0.3033839752599
  0
VERTEX
  8
0
 10
25.8647
 20
-146.243
 42
0.0
  0
VERTEX
  8
0
 10
21.9033
 20
-142.282
 42
-0.3839359822771
  0
VERTEX
  8
0
 10
21.7982
 20
-140.277
 42
0.1473372764781
  0
SEQEND
  0
POLYLINE
  8
0
 66
     1
 10
0.0
 20
0.0
 30
0.0
 70
     1
  0
VERTEX
  8
0
 10
56.4593
 20
-120.986
 42
-0.0346290530006
  0
VERTEX
  8
0
 10
50.6782
 20
-121.0
 42
-0.3985780229996
  0
VERTEX
  8
0
 10
49.1802
 20
-119.579
 42
0.1709839580776
  0
VERTEX
  8
0
 10
36.8271
 20
-89.6937
 42
-0.3839261460586
  0
VERTEX
  8
0
 10
36.9322
 20
-87.6891
 42
0.0
  0
VERTEX
  8
0
 10
40.8936
 20
-83.7277
 42
-0.4450957902327
  0
VERTEX
  8
0
 10
43.12
 20
-83.8444
 42
-0.1585362964305
  0
VERTEX
  8
0
 10
57.6035
 20
-116.525
 42
-0.0413244597262
  0
VERTEX
  8
0
 10
57.7478
 20
-119.669
 42
-0.3423745623562
  0
SEQEND
  0
POLYLINE
  8
0
 66
     1
 10
0.0
 20
0.0
 30
0.0
 70
     1
  0
VERTEX
  8
0
 10
7.82314
 20
-117.035
 42
-32.4544303839403
  0
VERTEX
  8
0
 10
7.85716
 20
-116.791
 42
0.0
  0
SEQEND
  0
POLYLINE
  8
0
 66
     1
 10
0.0
 20
0.0
 30
0.0
 70
     1
  0
VERTEX
  8
0
 10
-10.3218
 20
-136.732
 42
0.1308124813781
  0
VERTEX
  8
0
 10
-2.76534
 20
-139.84
 42
-0.3691220351005
  0
VERTEX
  8
0
 10
-1.5
 20
-141.322
 42
0.0
  0
VERTEX
  8
0
 10
-1.5
 20
-146.963
 42
-0.4621392813422
  0
VERTEX
  8
0
 10
-3.23465
 20
-148.444
 42
-0.127467225463
  0
VERTEX
  8
0
 10
-15.4415
 20
-143.62
 42
-0.3470600121299
  0
VERTEX
  8
0
 10
-16.6605
 20
-141.758
 42
-0.1726861812987
  0
VERTEX
  8
0
 10
-16.2289
 20
-140.85
 42
0.0
  0
VERTEX
  8
0
 10
-12.264
 20
-136.885
 42
-0.3812152388532
  0
SEQEND
  0
POLYLINE
  8
0
 66
     1
 10
0.0
 20
0.0
 30
0.0
 70
     1
  0
VERTEX
  8
0
 10
1.51366
 20
-178.959
 42
-0.0337733141139
  0
VERTEX
  8
0
 10
1.5
 20
-173.178
 42
-0.3986340970412
  0
VERTEX
  8
0
 10
2.92149
 20
-171.68
 42
0.1710125812739
  0
VERTEX
  8
0
 10
32.8063
 20
-159.327
 42
-0.3825572995807
  0
VERTEX
  8
0
 10
34.8109
 20
-159.432
 42
0.0
  0
VERTEX
  8
0
 10
38.7723
 20
-163.394
 42
-0.4455550808834
  0
VERTEX
  8
0
 10
38.6556
 20
-165.62
 42
-0.1307354746181
  0
VERTEX
  8
0
 10
12.1176
 20
-179.131
 42
-0.0249634316666
  0
VERTEX
  8
0
 10
5.97536
 20
-180.104
 42
-0.0401905015406
  0
VERTEX
  8
0
 10
2.83087
 20
-180.248
 42
-0.3431908910379
  0
SEQEND
  0
POLYLINE
  8
0
 66
     1
 10
0.0
 20
0.0
 30
0.0
 70
     1
  0
VERTEX
  8
0
 10
-1.51366
 20
-66.0407
 42
-0.0337900037122
  0
VERTEX
  8
0
 10
-1.5
 20
-71.8218
 42
-0.3988489348749
  0
VERTEX
  8
0
 10
-2.92149
 20
-73.3198
 42
0.1709809064143
  0
VERTEX
  8
0
 10
-32.8063
 20
-85.6729
 42
-0.3839261460581
  0
VERTEX
  8
0
 10
-34.8109
 20
-85.5678
 42
0.0
  0
VERTEX
  8
0
 10
-38.7723
 20
-81.6064
 42
-0.4450957902329
  0
VERTEX
  8
0
 10
-38.6556
 20
-79.38
 42
-0.1582416813521
  0
VERTEX
  8
0
 10
-5.97536
 20
-64.8965
 42
-0.0413387766199
  0
VERTEX
  8
0
 10
-2.83087
 20
-64.7522
 42
-0.3432840155136
  0
SEQEND
  0
POLYLINE
  8
0
 66
     1
 10
0.0
 20
0.0
 30
0.0
 70
     1
  0
VERTEX
  8
0
 10
-7.82314
 20
-117.035
 42
-33.1178750687064
  0
VERTEX
  8
0
 10
-7.75941
 20
-117.272
 42
0.0
  0
SEQEND
  0
POLYLINE
  8
0
 66
     1
 10
0.0
 20
0.0
 30
0.0
 70
     1
  0
VERTEX
  8
0
 10
-236.341
 20
211.434
 42
-38.0748149708425
  0
VERTEX
  8
0
 10
-235.975
 20
211.574
 42
0.0
  0
SEQEND
  0
POLYLINE
  8
0
 66
     1
 10
0.0
 20
0.0
 30
0.0
 70
     1
  0
VERTEX
  8
0
 10
-1.51366
 20
-76.624
 42
-0.0337900037122
  0
VERTEX
  8
0
 10
-1.5
 20
-82.4052
 42
-0.3990445029127
  0
VERTEX
  8
0
 10
-2.92149
 20
-83.9031
 42
0.1665556442355
  0
VERTEX
  8
0
 10
-25.2918
 20
-93.1873
 42
-0.3839261460587
  0
VERTEX
  8
0
 10
-27.2964
 20
-93.0822
 42
0.0
  0
VERTEX
  8
0
 10
-31.2578
 20
-89.1208
 42
-0.4454271192296
  0
VERTEX
  8
0
 10
-31.1411
 20
-86.8945
 42
-0.1556132750818
  0
VERTEX
  8
0
 10
-4.86909
 20
-75.4218
 42
-0.2588073830875
  0
VERTEX
  8
0
 10
-2.14189
 20
-75.5956
 42
-0.2096580680799
  0
SEQEND
  0
POLYLINE
  8
0
 66
     1
 10
0.0
 20
0.0
 30
0.0
 70
     1
  0
VERTEX
  8
0
 10
14.2324
 20
-132.822
 42
0.1308886117381
  0
VERTEX
  8
0
 10
17.3401
 20
-125.265
 42
-0.3697276238639
  0
VERTEX
  8
0
 10
18.8217
 20
-124.0
 42
0.0
  0
VERTEX
  8
0
 10
24.4627
 20
-124.0
 42
-0.4609148914697
  0
VERTEX
  8
0
 10
25.9442
 20
-125.735
 42
-0.1282378231612
  0
VERTEX
  8
0
 10
21.1198
 20
-137.941
 42
-0.347586178858
  0
VERTEX
  8
0
 10
19.2582
 20
-139.16
 42
-0.1727982840601
  0
VERTEX
  8
0
 10
18.3502
 20
-138.729
 42
0.0
  0
VERTEX
  8
0
 10
14.3854
 20
-134.764
 42
-0.3582620576953
  0
SEQEND
  0
POLYLINE
  8
0
 66
     1
 10
0.0
 20
0.0
 30
0.0
 70
     1
  0
VERTEX
  8
0
 10
23.2482
 20
-177.681
 42
0.0210329401959
  0
VERTEX
  8
0
 10
24.4054
 20
-177.219
 42
0.1313203256321
  0
VERTEX
  8
0
 10
48.4489
 20
-157.749
 42
0.0504339735532
  0
VERTEX
  8
0
 10
54.7507
 20
-146.834
 42
-0.3539728036328
  0
VERTEX
  8
0
 10
56.1841
 20
-144.996
 42
-0.4778951507021
  0
VERTEX
  8
0
 10
58.0
 20
-146.462
 42
0.0
  0
VERTEX
  8
0
 10
58.0
 20
-158.343
 42
-0.1454885798531
  0
VERTEX
  8
0
 10
57.758
 20
-159.159
 42
-0.0262712987777
  0
VERTEX
  8
0
 10
55.3682
 20
-162.824
 42
-0.0768184268938
  0
VERTEX
  8
0
 10
40.1973
 20
-177.961
 42
-0.0418612966835
  0
VERTEX
  8
0
 10
36.4413
 20
-180.375
 42
-0.1032164950624
  0
VERTEX
  8
0
 10
35.8425
 20
-180.5
 42
0.0
  0
VERTEX
  8
0
 10
23.9621
 20
-180.5
 42
-0.7789905223265
  0
SEQEND
  0
POLYLINE
  8
0
 66
     1
 10
0.0
 20
0.0
 30
0.0
 70
     1
  0
VERTEX
  8
0
 10
1.41779
 20
-215.938
 42
-27.1746320409454
  0
VERTEX
  8
0
 10
1.53926
 20
-215.722
 42
0.0
  0
SEQEND
  0
POLYLINE
  8
0
 66
     1
 10
0.0
 20
0.0
 30
0.0
 70
     1
  0
VERTEX
  8
0
 10
-14.2324
 20
-112.178
 42
0.1308886117381
  0
VERTEX
  8
0
 10
-17.3401
 20
-119.735
 42
-0.3697276238646
  0
VERTEX
  8
0
 10
-18.8217
 20
-121.0
 42
0.0
  0
VERTEX
  8
0
 10
-24.4627
 20
-121.0
 42
-0.4609148914697
  0
VERTEX
  8
0
 10
-25.9442
 20
-119.265
 42
-0.1282378231612
  0
VERTEX
  8
0
 10
-21.1198
 20
-107.059
 42
-0.3475861788582
  0
VERTEX
  8
0
 10
-19.2582
 20
-105.84
 42
-0.1727982840602
  0
VERTEX
  8
0
 10
-18.3502
 20
-106.271
 42
0.0
  0
VERTEX
  8
0
 10
-14.3854
 20
-110.236
 42
-0.3582620576941
  0
SEQEND
  0
POLYLINE
  8
0
 66
     1
 10
0.0
 20
0.0
 30
0.0
 70
     1
  0
VERTEX
  8
0
 10
-2.866
 20
-150.519
 42
-0.3884389239795
  0
VERTEX
  8
0
 10
-1.5
 20
-152.011
 42
0.0
  0
VERTEX
  8
0
 10
-1.5
 20
-157.591
 42
-0.4298556004936
  0
VERTEX
  8
0
 10
-3.07849
 20
-159.089
 42
-0.1374598982435
  0
VERTEX
  8
0
 10
-21.6622
 20
-152.182
 42
-0.195637552356
  0
VERTEX
  8
0
 10
-24.0677
 20
-150.001
 42
-0.3038830167597
  0
VERTEX
  8
0
 10
-23.7434
 20
-148.365
 42
0.0
  0
VERTEX
  8
0
 10
-19.782
 20
-144.403
 42
-0.3841185049933
  0
VERTEX
  8
0
 10
-17.7773
 20
-144.298
 42
0.1443089108602
  0
SEQEND
  0
POLYLINE
  8
0
 66
     1
 10
0.0
 20
0.0
 30
0.0
 70
     1
  0
VERTEX
  8
0
 10
-236.951
 20
84.6411
 42
-27.522895219891
  0
VERTEX
  8
0
 10
-236.723
 20
84.7381
 42
0.0
  0
SEQEND
  0
POLYLINE
  8
0
 66
     1
 10
0.0
 20
0.0
 30
0.0
 70
     1
  0
VERTEX
  8
0
 10
2.87613
 20
-75.3311
 42
-0.1705667506096
  0
VERTEX
  8
0
 10
31.1411
 20
-86.8945
 42
-0.4454622455972
  0
VERTEX
  8
0
 10
31.2578
 20
-89.1208
 42
0.0
  0
VERTEX
  8
0
 10
27.2964
 20
-93.0822
 42
-0.3839033700766
  0
VERTEX
  8
0
 10
25.2918
 20
-93.1873
 42
0.1539319885243
  0
VERTEX
  8
0
 10
4.0112
 20
-83.9602
 42
-0.3028783673029
  0
VERTEX
  8
0
 10
1.84476
 20
-83.3619
 42
-0.1746613329682
  0
VERTEX
  8
0
 10
1.5
 20
-82.4052
 42
0.0
  0
VERTEX
  8
0
 10
1.5
 20
-76.8259
 42
-0.3900995847478
  0
SEQEND
  0
POLYLINE
  8
0
 66
     1
 10
0.0
 20
0.0
 30
0.0
 70
     1
  0
VERTEX
  8
0
 10
-96.0822
 20
-215.938
 42
-27.1187408724103
  0
VERTEX
  8
0
 10
-95.9607
 20
-215.722
 42
0.0
  0
SEQEND
  0
POLYLINE
  8
0
 66
     1
 10
0.0
 20
0.0
 30
0.0
 70
     1
  0
VERTEX
  8
0
 10
98.9178
 20
-215.938
 42
-27.11874085448
  0
VERTEX
  8
0
 10
99.0393
 20
-215.722
 42
0.0
  0
SEQEND
  0
POLYLINE
  8
0
 66
     1
 10
0.0
 20
0.0
 30
0.0
 70
     1
  0
VERTEX
  8
0
 10
2.866
 20
-150.519
 42
0.1319952627313
  0
VERTEX
  8
0
 10
16.5865
 20
-145.263
 42
-0.2551434358698
  0
VERTEX
  8
0
 10
18.6924
 20
-143.964
 42
-0.2024557835923
  0
VERTEX
  8
0
 10
19.782
 20
-144.403
 42
0.0
  0
VERTEX
  8
0
 10
23.7434
 20
-148.365
 42
-0.4455550808826
  0
VERTEX
  8
0
 10
23.6267
 20
-150.591
 42
-0.1492977314799
  0
VERTEX
  8
0
 10
3.76282
 20
-159.053
 42
-0.5415259097929
  0
VERTEX
  8
0
 10
1.5
 20
-157.591
 42
0.0
  0
VERTEX
  8
0
 10
1.5
 20
-152.011
 42
-0.4001465772935
  0
VERTEX
  8
0
 10
2.86635
 20
-150.522
 42
-0.0128291047683
  0
SEQEND
  0
POLYLINE
  8
0
 66
     1
 10
0.0
 20
0.0
 30
0.0
 70
     1
  0
VERTEX
  8
0
 10
-54.3657
 20
-71.1723
 42
-35.7689730447451
  0
VERTEX
  8
0
 10
-54.2227
 20
-71.3738
 42
0.0
  0
SEQEND
  0
POLYLINE
  8
0
 66
     1
 10
0.0
 20
0.0
 30
0.0
 70
     1
  0
VERTEX
  8
0
 10
-96.0822
 20
214.062
 42
-27.1187408531791
  0
VERTEX
  8
0
 10
-95.9607
 20
214.278
 42
0.0
  0
SEQEND
  0
POLYLINE
  8
0
 66
     1
 10
0.0
 20
0.0
 30
0.0
 70
     1
  0
VERTEX
  8
0
 10
240.398
 20
-222.348
 42
0.3843118151414
  0
VERTEX
  8
0
 10
244.875
 20
-217.375
 42
0.0
  0
VERTEX
  8
0
 10
244.875
 20
217.375
 42
0.4147169626955
  0
VERTEX
  8
0
 10
239.875
 20
222.375
 42
0.0
  0
VERTEX
  8
0
 10
-239.875
 20
222.375
 42
0.4147169626951
  0
VERTEX
  8
0
 10
-244.875
 20
217.375
 42
0.0
  0
VERTEX
  8
0
 10
-244.875
 20
-217.375
 42
0.4147169626955
  0
VERTEX
  8
0
 10
-239.875
 20
-222.375
 42
0.0
  0
VERTEX
  8
0
 10
239.875
 20
-222.375
 42
0.026441477995
  0
SEQEND
  0
ENDSEC
  0
EOF
