  0
SECTION
  2
HEADER
  9
$ACADVER
  1
AC1009
  9
$EXTMAX
 10
167.428970336914
 20
142.434906005859
 30
0.0
  9
$EXTMIN
 10
106.428970336914
 20
80.9348983764648
 30
0.0
  9
$INSUNITS
 70
     4
  9
$LUNITS
 70
     2
  9
$LUPREC
 70
     4
  9
$MEASUREMENT
 70
     1
  0
ENDSEC
  0
SECTION
  2
TABLES
  0
TABLE
  2
LAYER
 70
     1
  0
LAYER
  2
0
 70
     0
 62
     7
  6
Continuous
  0
LAYER
  2
Default
 70
     0
 62
     7
  6
Continuous
  0
ENDTAB
  0
TABLE
  2
APPID
 70
     1
  0
APPID
  2
ACAD
 70
     0
  0
ENDTAB
  0
ENDSEC
  0
SECTION
  2
ENTITIES
  0
ARC
  8
Default
 10
108.928970336925
 20
139.934898376456
 30
0.0
 40
2.49999999999
 50
90.000000000001
 51
180.0
  0
CIRCLE
  8
Default
 10
131.178970336912
 20
122.964898376468
 30
0.0
 40
1.2446
  0
CIRCLE
  8
Default
 10
110.428970336919
 20
134.934898376476
 30
0.0
 40
1.2446
  0
CIRCLE
  8
Default
 10
112.953294002815
 20
91.2832907621618
 30
0.0
 40
1.2444999999968
  0
CIRCLE
  8
Default
 10
163.42897033691
 20
124.434898376467
 30
0.0
 40
1.2446
  0
CIRCLE
  8
Default
 10
146.134479717248
 20
101.104898376464
 30
0.0
 40
1.2446
  0
CIRCLE
  8
Default
 10
114.44005364989
 20
136.052497414476
 30
0.0
 40
1.2444999999968
  0
ARC
  8
Default
 10
164.928970336904
 20
139.934898376456
 30
0.0
 40
2.49999999999
 50
360.0
 51
449.999999999996
  0
CIRCLE
  8
Default
 10
163.42897033691
 20
134.934898376476
 30
0.0
 40
1.2446
  0
ARC
  8
Default
 10
108.928970336925
 20
83.4348983764532
 30
0.0
 40
2.49999999999
 50
179.999999146226
 51
270.000000000022
  0
ARC
  8
Default
 10
164.928970336904
 20
83.4348983764532
 30
0.0
 40
2.49999999999
 50
269.999999999996
 51
360.000000853774
  0
CIRCLE
  8
Default
 10
140.965615899599
 20
136.046105757359
 30
0.0
 40
1.2446
  0
LINE
  8
Default
 10
108.928970336925
 20
142.434898376471
 30
0.0
 11
164.928970336904
 21
142.434898376471
 31
0.0
  0
LINE
  8
Default
 10
164.928970336904
 20
80.9348983764632
 30
0.0
 11
108.928970336925
 21
80.9348983764632
 31
0.0
  0
CIRCLE
  8
Default
 10
154.358970336916
 20
83.4348983764532
 30
0.0
 40
1.2446
  0
CIRCLE
  8
Default
 10
123.480479717261
 20
101.104898376464
 30
0.0
 40
1.2446
  0
CIRCLE
  8
Default
 10
125.476746683571
 20
136.067681852129
 30
0.0
 40
1.2444999999968
  0
CIRCLE
  8
Default
 10
120.014295336919
 20
113.43264198303
 30
0.0
 40
1.5499999999938
  0
CIRCLE
  8
Default
 10
119.498970336913
 20
83.4348983764532
 30
0.0
 40
1.2446
  0
CIRCLE
  8
Default
 10
120.014295336919
 20
93.2741317749092
 30
0.0
 40
1.5499999999938
  0
CIRCLE
  8
Default
 10
138.232551574705
 20
122.964898376468
 30
0.0
 40
1.2446
  0
CIRCLE
  8
Default
 10
140.014295336915
 20
113.43264198303
 30
0.0
 40
1.5499999999938
  0
LINE
  8
Default
 10
106.428970336909
 20
83.4348983764532
 30
0.0
 11
106.428970336909
 21
139.934898376456
 31
0.0
  0
CIRCLE
  8
Default
 10
108.907770336907
 20
121.316143035885
 30
0.0
 40
1.2444999999968
  0
CIRCLE
  8
Default
 10
148.910087077808
 20
91.9158983764716
 30
0.0
 40
1.2444999999968
  0
CIRCLE
  8
Default
 10
139.08047971725
 20
101.104898376464
 30
0.0
 40
1.2446
  0
CIRCLE
  8
Default
 10
145.486815899599
 20
136.046105757359
 30
0.0
 40
1.2446
  0
CIRCLE
  8
Default
 10
110.428970336919
 20
124.434898376467
 30
0.0
 40
1.2446
  0
CIRCLE
  8
Default
 10
164.108970336902
 20
91.9158983764716
 30
0.0
 40
1.2444999999968
  0
CIRCLE
  8
Default
 10
112.928970336909
 20
106.278751850123
 30
0.0
 40
1.2444999999968
  0
LINE
  8
Default
 10
167.428970336919
 20
139.934898376456
 30
0.0
 11
167.428970336919
 21
83.4348983764532
 31
0.0
  0
CIRCLE
  8
Default
 10
113.428970336907
 20
121.316143035885
 30
0.0
 40
1.2444999999968
  0
CIRCLE
  8
Default
 10
129.997946683571
 20
136.067681852129
 30
0.0
 40
1.2444999999968
  0
CIRCLE
  8
Default
 10
140.014295336915
 20
93.4326419830342
 30
0.0
 40
1.5499999999938
  0
CIRCLE
  8
Default
 10
130.53447971726
 20
101.104898376464
 30
0.0
 40
1.2446
  0
ENDSEC
  0
EOF
