  0
SECTION
  2
HEADER
  9
$ACADVER
  1
AC1009
  9
$EXTMAX
 10
324.875
 20
107.375
 30
0.0
  9
$EXTMIN
 10
-324.875
 20
-107.375
 30
0.0
  9
$INSUNITS
 70
     4
  9
$LUNITS
 70
     2
  9
$LUPREC
 70
     4
  9
$MEASUREMENT
 70
     1
  0
ENDSEC
  0
SECTION
  2
TABLES
  0
TABLE
  2
LAYER
 70
     1
  0
LAYER
  2
0
 70
     0
 62
    70
  6
Continuous
  0
ENDTAB
  0
TABLE
  2
APPID
 70
     1
  0
APPID
  2
ACAD
 70
     0
  0
ENDTAB
  0
ENDSEC
  0
SECTION
  2
ENTITIES
  0
POLYLINE
  8
0
 66
     1
 10
0.0
 20
0.0
 30
0.0
 70
     1
  0
VERTEX
  8
0
 10
281.21
 20
83.8777
 42
-0.1889754190655
  0
VERTEX
  8
0
 10
280.123
 20
83.3546
 42
0.0
  0
VERTEX
  8
0
 10
239.877
 20
83.3546
 42
-0.9278205856486
  0
VERTEX
  8
0
 10
239.877
 20
86.6454
 42
0.0
  0
VERTEX
  8
0
 10
280.123
 20
86.6454
 42
-0.6289653372199
  0
SEQEND
  0
POLYLINE
  8
0
 66
     1
 10
0.0
 20
0.0
 30
0.0
 70
     1
  0
VERTEX
  8
0
 10
-135.549
 20
-60.8911
 42
-27.5228952294273
  0
VERTEX
  8
0
 10
-135.777
 20
-60.9881
 42
0.0
  0
SEQEND
  0
POLYLINE
  8
0
 66
     1
 10
0.0
 20
0.0
 30
0.0
 70
     1
  0
VERTEX
  8
0
 10
-46.1799
 20
63.7238
 42
-27.3885023875311
  0
VERTEX
  8
0
 10
-46.3455
 20
63.539
 42
0.0
  0
SEQEND
  0
POLYLINE
  8
0
 66
     1
 10
0.0
 20
0.0
 30
0.0
 70
     1
  0
VERTEX
  8
0
 10
-302.254
 20
20.8684
 42
-0.4381854381003
  0
VERTEX
  8
0
 10
-304.145
 20
22.3767
 42
0.0
  0
VERTEX
  8
0
 10
-304.145
 20
62.6233
 42
-0.930725432799
  0
VERTEX
  8
0
 10
-300.855
 20
62.6233
 42
0.0
  0
VERTEX
  8
0
 10
-300.855
 20
22.3767
 42
-0.3500614398363
  0
SEQEND
  0
POLYLINE
  8
0
 66
     1
 10
0.0
 20
0.0
 30
0.0
 70
     1
  0
VERTEX
  8
0
 10
134.451
 20
-60.8911
 42
-27.522895232453
  0
VERTEX
  8
0
 10
134.223
 20
-60.9881
 42
0.0
  0
SEQEND
  0
POLYLINE
  8
0
 66
     1
 10
0.0
 20
0.0
 30
0.0
 70
     1
  0
VERTEX
  8
0
 10
-281.21
 20
86.1223
 42
-0.1889754190653
  0
VERTEX
  8
0
 10
-280.123
 20
86.6454
 42
0.0
  0
VERTEX
  8
0
 10
-239.877
 20
86.6454
 42
-0.9278205856437
  0
VERTEX
  8
0
 10
-239.877
 20
83.3546
 42
0.0
  0
VERTEX
  8
0
 10
-280.123
 20
83.3546
 42
-0.6289653372121
  0
SEQEND
  0
POLYLINE
  8
0
 66
     1
 10
0.0
 20
0.0
 30
0.0
 70
     1
  0
VERTEX
  8
0
 10
302.746
 20
20.8684
 42
-0.4381854381015
  0
VERTEX
  8
0
 10
300.855
 20
22.3767
 42
0.0
  0
VERTEX
  8
0
 10
300.855
 20
62.6233
 42
-0.9307254327949
  0
VERTEX
  8
0
 10
304.145
 20
62.6233
 42
0.0
  0
VERTEX
  8
0
 10
304.145
 20
22.3767
 42
-0.3500614398371
  0
SEQEND
  0
POLYLINE
  8
0
 66
     1
 10
0.0
 20
0.0
 30
0.0
 70
     1
  0
VERTEX
  8
0
 10
224.451
 20
-60.8911
 42
-27.522895227818
  0
VERTEX
  8
0
 10
224.223
 20
-60.9881
 42
0.0
  0
SEQEND
  0
POLYLINE
  8
0
 66
     1
 10
0.0
 20
0.0
 30
0.0
 70
     1
  0
VERTEX
  8
0
 10
21.0287
 20
-86.29
 42
-0.1506719592587
  0
VERTEX
  8
0
 10
20.1233
 20
-86.6454
 42
0.0
  0
VERTEX
  8
0
 10
-20.1233
 20
-86.6454
 42
-0.9277359014303
  0
VERTEX
  8
0
 10
-20.1233
 20
-83.3546
 42
0.0
  0
VERTEX
  8
0
 10
20.1233
 20
-83.3546
 42
-0.6817426347531
  0
SEQEND
  0
POLYLINE
  8
0
 66
     1
 10
0.0
 20
0.0
 30
0.0
 70
     1
  0
VERTEX
  8
0
 10
-107.695
 20
-83.71
 42
-0.1508540773118
  0
VERTEX
  8
0
 10
-106.79
 20
-83.3546
 42
0.0
  0
VERTEX
  8
0
 10
-66.5434
 20
-83.3546
 42
-0.9277359014307
  0
VERTEX
  8
0
 10
-66.5434
 20
-86.6454
 42
0.0
  0
VERTEX
  8
0
 10
-106.79
 20
-86.6454
 42
-0.6806369101965
  0
SEQEND
  0
POLYLINE
  8
0
 66
     1
 10
0.0
 20
0.0
 30
0.0
 70
     1
  0
VERTEX
  8
0
 10
-107.695
 20
86.29
 42
-0.1508540773125
  0
VERTEX
  8
0
 10
-106.79
 20
86.6454
 42
0.0
  0
VERTEX
  8
0
 10
-66.5434
 20
86.6454
 42
-0.9277359014295
  0
VERTEX
  8
0
 10
-66.5434
 20
83.3546
 42
0.0
  0
VERTEX
  8
0
 10
-106.79
 20
83.3546
 42
-0.6806369101953
  0
SEQEND
  0
POLYLINE
  8
0
 66
     1
 10
0.0
 20
0.0
 30
0.0
 70
     1
  0
VERTEX
  8
0
 10
-46.1799
 20
-61.2762
 42
-27.3885023873229
  0
VERTEX
  8
0
 10
-46.3455
 20
-61.461
 42
0.0
  0
SEQEND
  0
POLYLINE
  8
0
 66
     1
 10
0.0
 20
0.0
 30
0.0
 70
     1
  0
VERTEX
  8
0
 10
193.936
 20
83.4641
 42
-0.0753077523135
  0
VERTEX
  8
0
 10
193.457
 20
83.3546
 42
0.0
  0
VERTEX
  8
0
 10
153.21
 20
83.3546
 42
-0.9278205856432
  0
VERTEX
  8
0
 10
153.21
 20
86.6454
 42
0.0
  0
VERTEX
  8
0
 10
193.457
 20
86.6454
 42
-0.7968362264929
  0
SEQEND
  0
POLYLINE
  8
0
 66
     1
 10
0.0
 20
0.0
 30
0.0
 70
     1
  0
VERTEX
  8
0
 10
-225.549
 20
-60.8911
 42
-27.5228952276845
  0
VERTEX
  8
0
 10
-225.777
 20
-60.9881
 42
0.0
  0
SEQEND
  0
POLYLINE
  8
0
 66
     1
 10
0.0
 20
0.0
 30
0.0
 70
     1
  0
VERTEX
  8
0
 10
-281.21
 20
-83.8777
 42
-0.1889754190655
  0
VERTEX
  8
0
 10
-280.123
 20
-83.3546
 42
0.0
  0
VERTEX
  8
0
 10
-239.877
 20
-83.3546
 42
-0.9278205856486
  0
VERTEX
  8
0
 10
-239.877
 20
-86.6454
 42
0.0
  0
VERTEX
  8
0
 10
-280.123
 20
-86.6454
 42
-0.6289653372199
  0
SEQEND
  0
POLYLINE
  8
0
 66
     1
 10
0.0
 20
0.0
 30
0.0
 70
     1
  0
VERTEX
  8
0
 10
-225.549
 20
60.8911
 42
-27.3612285926134
  0
VERTEX
  8
0
 10
-225.309
 20
60.8283
 42
0.0
  0
SEQEND
  0
POLYLINE
  8
0
 66
     1
 10
0.0
 20
0.0
 30
0.0
 70
     1
  0
VERTEX
  8
0
 10
281.21
 20
-86.1223
 42
-0.1889754190653
  0
VERTEX
  8
0
 10
280.123
 20
-86.6454
 42
0.0
  0
VERTEX
  8
0
 10
239.877
 20
-86.6454
 42
-0.9278205856437
  0
VERTEX
  8
0
 10
239.877
 20
-83.3546
 42
0.0
  0
VERTEX
  8
0
 10
280.123
 20
-83.3546
 42
-0.6289653372121
  0
SEQEND
  0
POLYLINE
  8
0
 66
     1
 10
0.0
 20
0.0
 30
0.0
 70
     1
  0
VERTEX
  8
0
 10
45.8856
 20
61.0489
 42
-27.3764059631362
  0
VERTEX
  8
0
 10
46.0874
 20
61.1933
 42
0.0
  0
SEQEND
  0
POLYLINE
  8
0
 66
     1
 10
0.0
 20
0.0
 30
0.0
 70
     1
  0
VERTEX
  8
0
 10
-193.936
 20
86.5359
 42
-0.0753077523128
  0
VERTEX
  8
0
 10
-193.457
 20
86.6454
 42
0.0
  0
VERTEX
  8
0
 10
-153.21
 20
86.6454
 42
-0.9278205856455
  0
VERTEX
  8
0
 10
-153.21
 20
83.3546
 42
0.0
  0
VERTEX
  8
0
 10
-193.457
 20
83.3546
 42
-0.7968362264909
  0
SEQEND
  0
POLYLINE
  8
0
 66
     1
 10
0.0
 20
0.0
 30
0.0
 70
     1
  0
VERTEX
  8
0
 10
107.695
 20
83.71
 42
-0.1508540773118
  0
VERTEX
  8
0
 10
106.79
 20
83.3546
 42
0.0
  0
VERTEX
  8
0
 10
66.5434
 20
83.3546
 42
-0.9277359014307
  0
VERTEX
  8
0
 10
66.5434
 20
86.6454
 42
0.0
  0
VERTEX
  8
0
 10
106.79
 20
86.6454
 42
-0.6806369101965
  0
SEQEND
  0
POLYLINE
  8
0
 66
     1
 10
0.0
 20
0.0
 30
0.0
 70
     1
  0
VERTEX
  8
0
 10
-135.549
 20
60.8911
 42
-27.361228597413
  0
VERTEX
  8
0
 10
-135.309
 20
60.8283
 42
0.0
  0
SEQEND
  0
POLYLINE
  8
0
 66
     1
 10
0.0
 20
0.0
 30
0.0
 70
     1
  0
VERTEX
  8
0
 10
302.746
 20
-20.8684
 42
-0.3516931390921
  0
VERTEX
  8
0
 10
304.145
 20
-22.3767
 42
0.0
  0
VERTEX
  8
0
 10
304.145
 20
-62.6233
 42
-0.930725432799
  0
VERTEX
  8
0
 10
300.855
 20
-62.6233
 42
0.0
  0
VERTEX
  8
0
 10
300.855
 20
-22.3767
 42
-0.4366791074634
  0
SEQEND
  0
POLYLINE
  8
0
 66
     1
 10
0.0
 20
0.0
 30
0.0
 70
     1
  0
VERTEX
  8
0
 10
-302.254
 20
-20.8684
 42
-0.3516931390934
  0
VERTEX
  8
0
 10
-300.855
 20
-22.3767
 42
0.0
  0
VERTEX
  8
0
 10
-300.855
 20
-62.6233
 42
-0.9307254327945
  0
VERTEX
  8
0
 10
-304.145
 20
-62.6233
 42
0.0
  0
VERTEX
  8
0
 10
-304.145
 20
-22.3767
 42
-0.436679107463
  0
SEQEND
  0
POLYLINE
  8
0
 66
     1
 10
0.0
 20
0.0
 30
0.0
 70
     1
  0
VERTEX
  8
0
 10
134.451
 20
60.8911
 42
-27.3612285936792
  0
VERTEX
  8
0
 10
134.691
 20
60.8283
 42
0.0
  0
SEQEND
  0
POLYLINE
  8
0
 66
     1
 10
0.0
 20
0.0
 30
0.0
 70
     1
  0
VERTEX
  8
0
 10
266.951
 20
-18.3911
 42
-27.522895227395
  0
VERTEX
  8
0
 10
266.723
 20
-18.4881
 42
0.0
  0
SEQEND
  0
POLYLINE
  8
0
 66
     1
 10
0.0
 20
0.0
 30
0.0
 70
     1
  0
VERTEX
  8
0
 10
-301.341
 20
-88.5665
 42
-38.5117111708471
  0
VERTEX
  8
0
 10
-300.975
 20
-88.4258
 42
0.0
  0
SEQEND
  0
POLYLINE
  8
0
 66
     1
 10
0.0
 20
0.0
 30
0.0
 70
     1
  0
VERTEX
  8
0
 10
-301.341
 20
88.5665
 42
-38.2100731867249
  0
VERTEX
  8
0
 10
-301.72
 20
88.668
 42
0.0
  0
SEQEND
  0
POLYLINE
  8
0
 66
     1
 10
0.0
 20
0.0
 30
0.0
 70
     1
  0
VERTEX
  8
0
 10
-266.951
 20
-21.6089
 42
-27.5228952272543
  0
VERTEX
  8
0
 10
-266.723
 20
-21.5119
 42
0.0
  0
SEQEND
  0
POLYLINE
  8
0
 66
     1
 10
0.0
 20
0.0
 30
0.0
 70
     1
  0
VERTEX
  8
0
 10
224.451
 20
60.8911
 42
-27.3612285912238
  0
VERTEX
  8
0
 10
224.691
 20
60.8283
 42
0.0
  0
SEQEND
  0
POLYLINE
  8
0
 66
     1
 10
0.0
 20
0.0
 30
0.0
 70
     1
  0
VERTEX
  8
0
 10
303.659
 20
88.5665
 42
-38.2100731879671
  0
VERTEX
  8
0
 10
303.28
 20
88.668
 42
0.0
  0
SEQEND
  0
POLYLINE
  8
0
 66
     1
 10
0.0
 20
0.0
 30
0.0
 70
     1
  0
VERTEX
  8
0
 10
266.951
 20
21.6089
 42
-27.5228952273047
  0
VERTEX
  8
0
 10
266.723
 20
21.5119
 42
0.0
  0
SEQEND
  0
POLYLINE
  8
0
 66
     1
 10
0.0
 20
0.0
 30
0.0
 70
     1
  0
VERTEX
  8
0
 10
-193.936
 20
-83.4641
 42
-0.0753077523135
  0
VERTEX
  8
0
 10
-193.457
 20
-83.3546
 42
0.0
  0
VERTEX
  8
0
 10
-153.21
 20
-83.3546
 42
-0.9278205856432
  0
VERTEX
  8
0
 10
-153.21
 20
-86.6454
 42
0.0
  0
VERTEX
  8
0
 10
-193.457
 20
-86.6454
 42
-0.7968362264929
  0
SEQEND
  0
POLYLINE
  8
0
 66
     1
 10
0.0
 20
0.0
 30
0.0
 70
     1
  0
VERTEX
  8
0
 10
-266.951
 20
18.3911
 42
-27.5228952286711
  0
VERTEX
  8
0
 10
-266.723
 20
18.4881
 42
0.0
  0
SEQEND
  0
POLYLINE
  8
0
 66
     1
 10
0.0
 20
0.0
 30
0.0
 70
     1
  0
VERTEX
  8
0
 10
303.659
 20
-88.5665
 42
-38.5117111774819
  0
VERTEX
  8
0
 10
304.025
 20
-88.4258
 42
0.0
  0
SEQEND
  0
POLYLINE
  8
0
 66
     1
 10
0.0
 20
0.0
 30
0.0
 70
     1
  0
VERTEX
  8
0
 10
21.0287
 20
83.71
 42
-0.1506719592586
  0
VERTEX
  8
0
 10
20.1233
 20
83.3546
 42
0.0
  0
VERTEX
  8
0
 10
-20.1233
 20
83.3546
 42
-0.9277359014305
  0
VERTEX
  8
0
 10
-20.1233
 20
86.6454
 42
0.0
  0
VERTEX
  8
0
 10
20.1233
 20
86.6454
 42
-0.6817426347535
  0
SEQEND
  0
POLYLINE
  8
0
 66
     1
 10
0.0
 20
0.0
 30
0.0
 70
     1
  0
VERTEX
  8
0
 10
107.695
 20
-86.29
 42
-0.1508540773124
  0
VERTEX
  8
0
 10
106.79
 20
-86.6454
 42
0.0
  0
VERTEX
  8
0
 10
66.5434
 20
-86.6454
 42
-0.9277359014295
  0
VERTEX
  8
0
 10
66.5434
 20
-83.3546
 42
0.0
  0
VERTEX
  8
0
 10
106.79
 20
-83.3546
 42
-0.6806369101953
  0
SEQEND
  0
POLYLINE
  8
0
 66
     1
 10
0.0
 20
0.0
 30
0.0
 70
     1
  0
VERTEX
  8
0
 10
253.54
 20
-52.3907
 42
-0.0524310620151
  0
VERTEX
  8
0
 10
252.5
 20
-52.5
 42
0.0
  0
VERTEX
  8
0
 10
-252.5
 20
-52.5
 42
-0.4146678369003
  0
VERTEX
  8
0
 10
-257.5
 20
-47.5
 42
0.0
  0
VERTEX
  8
0
 10
-257.5
 20
47.5
 42
-0.4142466315379
  0
VERTEX
  8
0
 10
-252.5
 20
52.5
 42
0.0
  0
VERTEX
  8
0
 10
252.5
 20
52.5
 42
-0.4146678369004
  0
VERTEX
  8
0
 10
257.5
 20
47.5
 42
0.0
  0
VERTEX
  8
0
 10
257.5
 20
-47.5
 42
-0.3541242074596
  0
SEQEND
  0
POLYLINE
  8
0
 66
     1
 10
0.0
 20
0.0
 30
0.0
 70
     1
  0
VERTEX
  8
0
 10
45.8856
 20
-63.9511
 42
-27.3764059631972
  0
VERTEX
  8
0
 10
46.0874
 20
-63.8067
 42
0.0
  0
SEQEND
  0
POLYLINE
  8
0
 66
     1
 10
0.0
 20
0.0
 30
0.0
 70
     1
  0
VERTEX
  8
0
 10
193.936
 20
-86.5359
 42
-0.0753077523128
  0
VERTEX
  8
0
 10
193.457
 20
-86.6454
 42
0.0
  0
VERTEX
  8
0
 10
153.21
 20
-86.6454
 42
-0.9278205856457
  0
VERTEX
  8
0
 10
153.21
 20
-83.3546
 42
0.0
  0
VERTEX
  8
0
 10
193.457
 20
-83.3546
 42
-0.7968362264909
  0
SEQEND
  0
POLYLINE
  8
0
 66
     1
 10
0.0
 20
0.0
 30
0.0
 70
     1
  0
VERTEX
  8
0
 10
320.398
 20
-107.348
 42
0.3843118151421
  0
VERTEX
  8
0
 10
324.875
 20
-102.375
 42
0.0
  0
VERTEX
  8
0
 10
324.875
 20
102.375
 42
0.4147169626954
  0
VERTEX
  8
0
 10
319.875
 20
107.375
 42
0.0
  0
VERTEX
  8
0
 10
-319.875
 20
107.375
 42
0.4147169626956
  0
VERTEX
  8
0
 10
-324.875
 20
102.375
 42
0.0
  0
VERTEX
  8
0
 10
-324.875
 20
-102.375
 42
0.4147169626952
  0
VERTEX
  8
0
 10
-319.875
 20
-107.375
 42
0.0
  0
VERTEX
  8
0
 10
319.875
 20
-107.375
 42
0.0264414779947
  0
SEQEND
  0
ENDSEC
  0
EOF
