  0
SECTION
  2
HEADER
  9
$ACADVER
  1
AC1009
  9
$EXTMAX
 10
324.875
 20
117.324996948242
 30
0.0
  9
$EXTMIN
 10
-324.875
 20
-117.324996948242
 30
0.0
  9
$INSUNITS
 70
     4
  9
$LUNITS
 70
     2
  9
$LUPREC
 70
     4
  9
$MEASUREMENT
 70
     1
  0
ENDSEC
  0
SECTION
  2
TABLES
  0
TABLE
  2
LAYER
 70
     1
  0
LAYER
  2
0
 70
     0
 62
    70
  6
Continuous
  0
ENDTAB
  0
TABLE
  2
APPID
 70
     1
  0
APPID
  2
ACAD
 70
     0
  0
ENDTAB
  0
ENDSEC
  0
SECTION
  2
ENTITIES
  0
POLYLINE
  8
0
 66
     1
 10
0.0
 20
0.0
 30
0.0
 70
     1
  0
VERTEX
  8
0
 10
21.6316
 20
-110.196
 42
-0.3516931390927
  0
VERTEX
  8
0
 10
20.1233
 20
-111.595
 42
0.0
  0
VERTEX
  8
0
 10
-20.1233
 20
-111.595
 42
-0.9307254327987
  0
VERTEX
  8
0
 10
-20.1233
 20
-108.305
 42
0.0
  0
VERTEX
  8
0
 10
20.1233
 20
-108.305
 42
-0.4366791074636
  0
SEQEND
  0
POLYLINE
  8
0
 66
     1
 10
0.0
 20
0.0
 30
0.0
 70
     1
  0
VERTEX
  8
0
 10
112.034
 20
111.559
 42
-0.8632845907844
  0
VERTEX
  8
0
 10
111.79
 20
108.305
 42
0.0
  0
VERTEX
  8
0
 10
71.5434
 20
108.305
 42
-0.9307254327993
  0
VERTEX
  8
0
 10
71.5434
 20
111.595
 42
0.0
  0
VERTEX
  8
0
 10
111.79
 20
111.595
 42
-0.0387396694126
  0
SEQEND
  0
POLYLINE
  8
0
 66
     1
 10
0.0
 20
0.0
 30
0.0
 70
     1
  0
VERTEX
  8
0
 10
321.066
 20
-111.109
 42
-12.6134939460616
  0
VERTEX
  8
0
 10
321.25
 20
-109.95
 42
-0.0781562977016
  0
SEQEND
  0
POLYLINE
  8
0
 66
     1
 10
0.0
 20
0.0
 30
0.0
 70
     1
  0
VERTEX
  8
0
 10
321.066
 20
111.109
 42
-38.0748149844149
  0
VERTEX
  8
0
 10
320.926
 20
111.475
 42
0.0
  0
SEQEND
  0
POLYLINE
  8
0
 66
     1
 10
0.0
 20
0.0
 30
0.0
 70
     1
  0
VERTEX
  8
0
 10
-203.936
 20
111.486
 42
-0.0775065044763
  0
VERTEX
  8
0
 10
-203.457
 20
111.595
 42
0.0
  0
VERTEX
  8
0
 10
-163.21
 20
111.595
 42
-0.930809196184
  0
VERTEX
  8
0
 10
-163.21
 20
108.305
 42
0.0
  0
VERTEX
  8
0
 10
-203.457
 20
108.305
 42
-0.7958845799073
  0
SEQEND
  0
POLYLINE
  8
0
 66
     1
 10
0.0
 20
0.0
 30
0.0
 70
     1
  0
VERTEX
  8
0
 10
253.637
 20
109.021
 42
-0.5794500087164
  0
VERTEX
  8
0
 10
254.877
 20
111.595
 42
0.0
  0
VERTEX
  8
0
 10
295.123
 20
111.595
 42
-0.9308091961829
  0
VERTEX
  8
0
 10
295.123
 20
108.305
 42
0.0
  0
VERTEX
  8
0
 10
254.877
 20
108.305
 42
-0.2266032362112
  0
SEQEND
  0
POLYLINE
  8
0
 66
     1
 10
0.0
 20
0.0
 30
0.0
 70
     1
  0
VERTEX
  8
0
 10
-253.637
 20
109.021
 42
-0.2302215193763
  0
VERTEX
  8
0
 10
-254.877
 20
108.305
 42
0.0
  0
VERTEX
  8
0
 10
-295.123
 20
108.305
 42
-0.9308091961707
  0
VERTEX
  8
0
 10
-295.123
 20
111.595
 42
0.0
  0
VERTEX
  8
0
 10
-254.877
 20
111.595
 42
-0.5756362391806
  0
SEQEND
  0
POLYLINE
  8
0
 66
     1
 10
0.0
 20
0.0
 30
0.0
 70
     1
  0
VERTEX
  8
0
 10
-317.254
 20
-89.0816
 42
-0.4381854381025
  0
VERTEX
  8
0
 10
-319.145
 20
-87.5733
 42
0.0
  0
VERTEX
  8
0
 10
-319.145
 20
-47.3267
 42
-0.930725432803
  0
VERTEX
  8
0
 10
-315.855
 20
-47.3267
 42
0.0
  0
VERTEX
  8
0
 10
-315.855
 20
-87.5733
 42
-0.350061439836
  0
SEQEND
  0
POLYLINE
  8
0
 66
     1
 10
0.0
 20
0.0
 30
0.0
 70
     1
  0
VERTEX
  8
0
 10
317.746
 20
-89.0816
 42
-0.4381854381024
  0
VERTEX
  8
0
 10
315.855
 20
-87.5733
 42
0.0
  0
VERTEX
  8
0
 10
315.855
 20
-47.3267
 42
-0.9307254327994
  0
VERTEX
  8
0
 10
319.145
 20
-47.3267
 42
0.0
  0
VERTEX
  8
0
 10
319.145
 20
-87.5733
 42
-0.3500614398377
  0
SEQEND
  0
POLYLINE
  8
0
 66
     1
 10
0.0
 20
0.0
 30
0.0
 70
     1
  0
VERTEX
  8
0
 10
203.936
 20
111.486
 42
-0.8002026298457
  0
VERTEX
  8
0
 10
203.457
 20
108.305
 42
0.0
  0
VERTEX
  8
0
 10
163.21
 20
108.305
 42
-0.930809196181
  0
VERTEX
  8
0
 10
163.21
 20
111.595
 42
0.0
  0
VERTEX
  8
0
 10
203.457
 20
111.595
 42
-0.0752564512142
  0
SEQEND
  0
POLYLINE
  8
0
 66
     1
 10
0.0
 20
0.0
 30
0.0
 70
     1
  0
VERTEX
  8
0
 10
317.746
 20
-21.6316
 42
-0.4381854381015
  0
VERTEX
  8
0
 10
315.855
 20
-20.1233
 42
0.0
  0
VERTEX
  8
0
 10
315.855
 20
20.1233
 42
-0.9307254327989
  0
VERTEX
  8
0
 10
319.145
 20
20.1233
 42
0.0
  0
VERTEX
  8
0
 10
319.145
 20
-20.1233
 42
-0.3500614398371
  0
SEQEND
  0
POLYLINE
  8
0
 66
     1
 10
0.0
 20
0.0
 30
0.0
 70
     1
  0
VERTEX
  8
0
 10
-112.034
 20
111.559
 42
0.0
  0
VERTEX
  8
0
 10
-111.79
 20
111.595
 42
0.0
  0
VERTEX
  8
0
 10
-71.5434
 20
111.595
 42
-0.9307254327982
  0
VERTEX
  8
0
 10
-71.5434
 20
108.305
 42
0.0
  0
VERTEX
  8
0
 10
-111.79
 20
108.305
 42
-0.8632845907854
  0
SEQEND
  0
POLYLINE
  8
0
 66
     1
 10
0.0
 20
0.0
 30
0.0
 70
     1
  0
VERTEX
  8
0
 10
-112.034
 20
-111.559
 42
-0.8632845907844
  0
VERTEX
  8
0
 10
-111.79
 20
-108.305
 42
0.0
  0
VERTEX
  8
0
 10
-71.5434
 20
-108.305
 42
-0.9307254327993
  0
VERTEX
  8
0
 10
-71.5434
 20
-111.595
 42
0.0
  0
VERTEX
  8
0
 10
-111.79
 20
-111.595
 42
-0.0387396694126
  0
SEQEND
  0
POLYLINE
  8
0
 66
     1
 10
0.0
 20
0.0
 30
0.0
 70
     1
  0
VERTEX
  8
0
 10
203.936
 20
-111.486
 42
-0.0775065044763
  0
VERTEX
  8
0
 10
203.457
 20
-111.595
 42
0.0
  0
VERTEX
  8
0
 10
163.21
 20
-111.595
 42
-0.9308091961841
  0
VERTEX
  8
0
 10
163.21
 20
-108.305
 42
0.0
  0
VERTEX
  8
0
 10
203.457
 20
-108.305
 42
-0.7958845799073
  0
SEQEND
  0
POLYLINE
  8
0
 66
     1
 10
0.0
 20
0.0
 30
0.0
 70
     1
  0
VERTEX
  8
0
 10
-317.254
 20
-21.6316
 42
-0.4381854381003
  0
VERTEX
  8
0
 10
-319.145
 20
-20.1233
 42
0.0
  0
VERTEX
  8
0
 10
-319.145
 20
20.1233
 42
-0.9307254328003
  0
VERTEX
  8
0
 10
-315.855
 20
20.1233
 42
0.0
  0
VERTEX
  8
0
 10
-315.855
 20
-20.1233
 42
-0.3500614398365
  0
SEQEND
  0
POLYLINE
  8
0
 66
     1
 10
0.0
 20
0.0
 30
0.0
 70
     1
  0
VERTEX
  8
0
 10
-253.637
 20
-109.021
 42
-0.5794500087164
  0
VERTEX
  8
0
 10
-254.877
 20
-111.595
 42
0.0
  0
VERTEX
  8
0
 10
-295.123
 20
-111.595
 42
-0.9308091961829
  0
VERTEX
  8
0
 10
-295.123
 20
-108.305
 42
0.0
  0
VERTEX
  8
0
 10
-254.877
 20
-108.305
 42
-0.2266032362112
  0
SEQEND
  0
POLYLINE
  8
0
 66
     1
 10
0.0
 20
0.0
 30
0.0
 70
     1
  0
VERTEX
  8
0
 10
-313.934
 20
-111.109
 42
-12.6134939472254
  0
VERTEX
  8
0
 10
-313.75
 20
-109.95
 42
-0.0781562977027
  0
SEQEND
  0
POLYLINE
  8
0
 66
     1
 10
0.0
 20
0.0
 30
0.0
 70
     1
  0
VERTEX
  8
0
 10
112.034
 20
-111.559
 42
0.0
  0
VERTEX
  8
0
 10
111.79
 20
-111.595
 42
0.0
  0
VERTEX
  8
0
 10
71.5434
 20
-111.595
 42
-0.9307254327982
  0
VERTEX
  8
0
 10
71.5434
 20
-108.305
 42
0.0
  0
VERTEX
  8
0
 10
111.79
 20
-108.305
 42
-0.8632845907853
  0
SEQEND
  0
POLYLINE
  8
0
 66
     1
 10
0.0
 20
0.0
 30
0.0
 70
     1
  0
VERTEX
  8
0
 10
-317.254
 20
89.0816
 42
-0.3516931390951
  0
VERTEX
  8
0
 10
-315.855
 20
87.5733
 42
0.0
  0
VERTEX
  8
0
 10
-315.855
 20
47.3267
 42
-0.9307254327994
  0
VERTEX
  8
0
 10
-319.145
 20
47.3267
 42
0.0
  0
VERTEX
  8
0
 10
-319.145
 20
87.5733
 42
-0.4366791074659
  0
SEQEND
  0
POLYLINE
  8
0
 66
     1
 10
0.0
 20
0.0
 30
0.0
 70
     1
  0
VERTEX
  8
0
 10
-313.934
 20
111.109
 42
-38.0748149856506
  0
VERTEX
  8
0
 10
-314.074
 20
111.475
 42
0.0
  0
SEQEND
  0
POLYLINE
  8
0
 66
     1
 10
0.0
 20
0.0
 30
0.0
 70
     1
  0
VERTEX
  8
0
 10
317.746
 20
89.0816
 42
-0.3516931390939
  0
VERTEX
  8
0
 10
319.145
 20
87.5733
 42
0.0
  0
VERTEX
  8
0
 10
319.145
 20
47.3267
 42
-0.930725432803
  0
VERTEX
  8
0
 10
315.855
 20
47.3267
 42
0.0
  0
VERTEX
  8
0
 10
315.855
 20
87.5733
 42
-0.4366791074617
  0
SEQEND
  0
POLYLINE
  8
0
 66
     1
 10
0.0
 20
0.0
 30
0.0
 70
     1
  0
VERTEX
  8
0
 10
21.6316
 20
110.196
 42
-0.4381854381004
  0
VERTEX
  8
0
 10
20.1233
 20
108.305
 42
0.0
  0
VERTEX
  8
0
 10
-20.1233
 20
108.305
 42
-0.9307254327988
  0
VERTEX
  8
0
 10
-20.1233
 20
111.595
 42
0.0
  0
VERTEX
  8
0
 10
20.1233
 20
111.595
 42
-0.3500614398368
  0
SEQEND
  0
POLYLINE
  8
0
 66
     1
 10
0.0
 20
0.0
 30
0.0
 70
     1
  0
VERTEX
  8
0
 10
-203.936
 20
-111.486
 42
-0.8002026298457
  0
VERTEX
  8
0
 10
-203.457
 20
-108.305
 42
0.0
  0
VERTEX
  8
0
 10
-163.21
 20
-108.305
 42
-0.930809196181
  0
VERTEX
  8
0
 10
-163.21
 20
-111.595
 42
0.0
  0
VERTEX
  8
0
 10
-203.457
 20
-111.595
 42
-0.0752564512142
  0
SEQEND
  0
POLYLINE
  8
0
 66
     1
 10
0.0
 20
0.0
 30
0.0
 70
     1
  0
VERTEX
  8
0
 10
253.637
 20
-109.021
 42
-0.2302215193763
  0
VERTEX
  8
0
 10
254.877
 20
-108.305
 42
0.0
  0
VERTEX
  8
0
 10
295.123
 20
-108.305
 42
-0.9308091961707
  0
VERTEX
  8
0
 10
295.123
 20
-111.595
 42
0.0
  0
VERTEX
  8
0
 10
254.877
 20
-111.595
 42
-0.5756362391806
  0
SEQEND
  0
POLYLINE
  8
0
 66
     1
 10
0.0
 20
0.0
 30
0.0
 70
     1
  0
VERTEX
  8
0
 10
320.398
 20
-117.298
 42
0.3843118151421
  0
VERTEX
  8
0
 10
324.875
 20
-112.325
 42
0.0
  0
VERTEX
  8
0
 10
324.875
 20
112.325
 42
0.4147169626953
  0
VERTEX
  8
0
 10
319.875
 20
117.325
 42
0.0
  0
VERTEX
  8
0
 10
-319.875
 20
117.325
 42
0.4147169626955
  0
VERTEX
  8
0
 10
-324.875
 20
112.325
 42
0.0
  0
VERTEX
  8
0
 10
-324.875
 20
-112.325
 42
0.4147169626956
  0
VERTEX
  8
0
 10
-319.875
 20
-117.325
 42
0.0
  0
VERTEX
  8
0
 10
319.875
 20
-117.325
 42
0.0264414779943
  0
SEQEND
  0
ENDSEC
  0
EOF
