  0
SECTION
  2
HEADER
  9
$ACADVER
  1
AC1009
  9
$EXTMAX
 10
349.75
 20
58.75
 30
0.0
  9
$EXTMIN
 10
0.0
 20
0.0
 30
0.0
  9
$INSUNITS
 70
     4
  9
$LUNITS
 70
     2
  9
$LUPREC
 70
     4
  9
$MEASUREMENT
 70
     1
  0
ENDSEC
  0
SECTION
  2
TABLES
  0
TABLE
  2
LAYER
 70
     1
  0
LAYER
  2
0
 70
     0
 62
    70
  6
Continuous
  0
ENDTAB
  0
TABLE
  2
APPID
 70
     1
  0
APPID
  2
ACAD
 70
     0
  0
ENDTAB
  0
ENDSEC
  0
SECTION
  2
ENTITIES
  0
POLYLINE
  8
0
 66
     1
 10
0.0
 20
0.0
 30
0.0
 70
     1
  0
VERTEX
  8
0
 10
203.0
 20
15.25
 42
0.0
  0
VERTEX
  8
0
 10
146.0
 20
15.25
 42
0.0
  0
VERTEX
  8
0
 10
146.0
 20
43.75
 42
0.0
  0
VERTEX
  8
0
 10
203.0
 20
43.75
 42
0.0
  0
SEQEND
  0
POLYLINE
  8
0
 66
     1
 10
0.0
 20
0.0
 30
0.0
 70
     1
  0
VERTEX
  8
0
 10
94.3682
 20
17.6131
 42
-26.6932891570278
  0
VERTEX
  8
0
 10
94.1237
 20
17.65
 42
0.0
  0
SEQEND
  0
POLYLINE
  8
0
 66
     1
 10
0.0
 20
0.0
 30
0.0
 70
     1
  0
VERTEX
  8
0
 10
24.3682
 20
46.3869
 42
-26.662620767996
  0
VERTEX
  8
0
 10
24.6045
 20
46.4597
 42
0.0
  0
SEQEND
  0
POLYLINE
  8
0
 66
     1
 10
0.0
 20
0.0
 30
0.0
 70
     1
  0
VERTEX
  8
0
 10
101.56
 20
25.6914
 42
-0.6321844248478
  0
VERTEX
  8
0
 10
98.6945
 20
25.5926
 42
-0.2642165798038
  0
VERTEX
  8
0
 10
98.6945
 20
38.4074
 42
-0.509179306108
  0
VERTEX
  8
0
 10
101.092
 20
38.787
 42
-0.4025836874663
  0
VERTEX
  8
0
 10
101.736
 20
36.6772
 42
0.2649752740784
  0
VERTEX
  8
0
 10
101.736
 20
27.3228
 42
-0.2980319601031
  0
SEQEND
  0
POLYLINE
  8
0
 66
     1
 10
0.0
 20
0.0
 30
0.0
 70
     1
  0
VERTEX
  8
0
 10
113.523
 20
30.9267
 42
-32.5369353111786
  0
VERTEX
  8
0
 10
113.282
 20
30.9756
 42
0.0
  0
SEQEND
  0
POLYLINE
  8
0
 66
     1
 10
0.0
 20
0.0
 30
0.0
 70
     1
  0
VERTEX
  8
0
 10
44.5825
 20
27.7651
 42
-32.505101331883
  0
VERTEX
  8
0
 10
44.7216
 20
27.9682
 42
0.0
  0
SEQEND
  0
POLYLINE
  8
0
 66
     1
 10
0.0
 20
0.0
 30
0.0
 70
     1
  0
VERTEX
  8
0
 10
24.9139
 20
21.3317
 42
-0.3206122703421
  0
VERTEX
  8
0
 10
24.8005
 20
42.5158
 42
-0.4770277249857
  0
VERTEX
  8
0
 10
27.1192
 20
42.7595
 42
-0.431095124649
  0
VERTEX
  8
0
 10
27.6745
 20
40.5239
 42
0.3181318865384
  0
VERTEX
  8
0
 10
27.6745
 20
23.4761
 42
-0.3541315296172
  0
VERTEX
  8
0
 10
27.1192
 20
21.2405
 42
-0.4386091565063
  0
SEQEND
  0
POLYLINE
  8
0
 66
     1
 10
0.0
 20
0.0
 30
0.0
 70
     1
  0
VERTEX
  8
0
 10
55.6318
 20
17.6131
 42
-26.662620767968
  0
VERTEX
  8
0
 10
55.3955
 20
17.5403
 42
0.0
  0
SEQEND
  0
POLYLINE
  8
0
 66
     1
 10
0.0
 20
0.0
 30
0.0
 70
     1
  0
VERTEX
  8
0
 10
55.6318
 20
46.3869
 42
-26.6932891580743
  0
VERTEX
  8
0
 10
55.8763
 20
46.35
 42
0.0
  0
SEQEND
  0
POLYLINE
  8
0
 66
     1
 10
0.0
 20
0.0
 30
0.0
 70
     1
  0
VERTEX
  8
0
 10
126.368
 20
46.3869
 42
-26.8146641815214
  0
VERTEX
  8
0
 10
126.604
 20
46.4597
 42
0.0
  0
SEQEND
  0
POLYLINE
  8
0
 66
     1
 10
0.0
 20
0.0
 30
0.0
 70
     1
  0
VERTEX
  8
0
 10
120.668
 20
16.9139
 42
-0.3206335066128
  0
VERTEX
  8
0
 10
99.4842
 20
16.8005
 42
-0.477027724986
  0
VERTEX
  8
0
 10
99.2405
 20
19.1192
 42
-0.4308674509053
  0
VERTEX
  8
0
 10
101.476
 20
19.6745
 42
0.3181063702379
  0
VERTEX
  8
0
 10
118.524
 20
19.6745
 42
-0.3541128349322
  0
VERTEX
  8
0
 10
120.759
 20
19.1192
 42
-0.4378494271768
  0
SEQEND
  0
POLYLINE
  8
0
 66
     1
 10
0.0
 20
0.0
 30
0.0
 70
     1
  0
VERTEX
  8
0
 10
94.9139
 20
21.3317
 42
-0.3206122703421
  0
VERTEX
  8
0
 10
94.8005
 20
42.5158
 42
-0.4770277249855
  0
VERTEX
  8
0
 10
97.1192
 20
42.7595
 42
-0.4310951246491
  0
VERTEX
  8
0
 10
97.6745
 20
40.5239
 42
0.3181318865384
  0
VERTEX
  8
0
 10
97.6745
 20
23.4761
 42
-0.3541315296171
  0
VERTEX
  8
0
 10
97.1192
 20
21.2405
 42
-0.4386091565065
  0
SEQEND
  0
POLYLINE
  8
0
 66
     1
 10
0.0
 20
0.0
 30
0.0
 70
     1
  0
VERTEX
  8
0
 10
113.523
 20
33.0733
 42
-32.6989854392026
  0
VERTEX
  8
0
 10
113.756
 20
33.1516
 42
0.0
  0
SEQEND
  0
POLYLINE
  8
0
 66
     1
 10
0.0
 20
0.0
 30
0.0
 70
     1
  0
VERTEX
  8
0
 10
99.3317
 20
47.0861
 42
-0.3205911597757
  0
VERTEX
  8
0
 10
120.516
 20
47.1995
 42
-0.4779139641296
  0
VERTEX
  8
0
 10
120.759
 20
44.8808
 42
-0.4309149313576
  0
VERTEX
  8
0
 10
118.524
 20
44.3255
 42
0.3181063702379
  0
VERTEX
  8
0
 10
101.476
 20
44.3255
 42
-0.3541284146419
  0
VERTEX
  8
0
 10
99.2405
 20
44.8808
 42
-0.4386091565079
  0
SEQEND
  0
POLYLINE
  8
0
 66
     1
 10
0.0
 20
0.0
 30
0.0
 70
     1
  0
VERTEX
  8
0
 10
44.8129
 20
40.2034
 42
0.2680206184115
  0
VERTEX
  8
0
 10
35.3228
 20
40.2643
 42
-0.324981825418
  0
VERTEX
  8
0
 10
33.213
 20
40.9084
 42
-0.5094394162781
  0
VERTEX
  8
0
 10
33.5926
 20
43.3055
 42
-0.2642165798039
  0
VERTEX
  8
0
 10
46.4074
 20
43.3055
 42
-0.5096302961436
  0
VERTEX
  8
0
 10
46.787
 20
40.9084
 42
-0.3753442307213
  0
SEQEND
  0
POLYLINE
  8
0
 66
     1
 10
0.0
 20
0.0
 30
0.0
 70
     1
  0
VERTEX
  8
0
 10
106.477
 20
30.9267
 42
-32.6989854398136
  0
VERTEX
  8
0
 10
106.244
 20
30.8484
 42
0.0
  0
SEQEND
  0
POLYLINE
  8
0
 66
     1
 10
0.0
 20
0.0
 30
0.0
 70
     1
  0
VERTEX
  8
0
 10
118.44
 20
38.3086
 42
-0.6320014253348
  0
VERTEX
  8
0
 10
121.306
 20
38.4074
 42
-0.2638565615229
  0
VERTEX
  8
0
 10
121.306
 20
25.5926
 42
-0.5091408825411
  0
VERTEX
  8
0
 10
118.908
 20
25.213
 42
-0.4025836874678
  0
VERTEX
  8
0
 10
118.264
 20
27.3228
 42
0.2649752740784
  0
VERTEX
  8
0
 10
118.264
 20
36.6772
 42
-0.2980319601023
  0
SEQEND
  0
POLYLINE
  8
0
 66
     1
 10
0.0
 20
0.0
 30
0.0
 70
     1
  0
VERTEX
  8
0
 10
50.6683
 20
16.9139
 42
-0.3206122703421
  0
VERTEX
  8
0
 10
29.4842
 20
16.8005
 42
-0.477027724986
  0
VERTEX
  8
0
 10
29.2405
 20
19.1192
 42
-0.4310951246489
  0
VERTEX
  8
0
 10
31.4761
 20
19.6745
 42
0.3181318865384
  0
VERTEX
  8
0
 10
48.5239
 20
19.6745
 42
-0.3541315296172
  0
VERTEX
  8
0
 10
50.7595
 20
19.1192
 42
-0.4386091565065
  0
SEQEND
  0
POLYLINE
  8
0
 66
     1
 10
0.0
 20
0.0
 30
0.0
 70
     1
  0
VERTEX
  8
0
 10
173.951
 20
11.2589
 42
-27.5228952277631
  0
VERTEX
  8
0
 10
173.723
 20
11.1619
 42
0.0
  0
SEQEND
  0
POLYLINE
  8
0
 66
     1
 10
0.0
 20
0.0
 30
0.0
 70
     1
  0
VERTEX
  8
0
 10
44.5825
 20
36.2349
 42
-32.5167347045597
  0
VERTEX
  8
0
 10
44.4194
 20
36.4194
 42
0.0
  0
SEQEND
  0
POLYLINE
  8
0
 66
     1
 10
0.0
 20
0.0
 30
0.0
 70
     1
  0
VERTEX
  8
0
 10
114.813
 20
40.2034
 42
0.2680484836108
  0
VERTEX
  8
0
 10
105.323
 20
40.2643
 42
-0.3250716388797
  0
VERTEX
  8
0
 10
103.213
 20
40.9084
 42
-0.5100999994546
  0
VERTEX
  8
0
 10
103.593
 20
43.3055
 42
-0.2643611502461
  0
VERTEX
  8
0
 10
116.407
 20
43.3055
 42
-0.5095701979038
  0
VERTEX
  8
0
 10
116.787
 20
40.9084
 42
-0.3748589880157
  0
SEQEND
  0
POLYLINE
  8
0
 66
     1
 10
0.0
 20
0.0
 30
0.0
 70
     1
  0
VERTEX
  8
0
 10
48.2034
 20
27.1871
 42
0.2680206184115
  0
VERTEX
  8
0
 10
48.2643
 20
36.6772
 42
-0.3249818254181
  0
VERTEX
  8
0
 10
48.9084
 20
38.787
 42
-0.5094394162785
  0
VERTEX
  8
0
 10
51.3055
 20
38.4074
 42
-0.2642165798038
  0
VERTEX
  8
0
 10
51.3055
 20
25.5926
 42
-0.5096302961435
  0
VERTEX
  8
0
 10
48.9084
 20
25.213
 42
-0.3753442307209
  0
SEQEND
  0
POLYLINE
  8
0
 66
     1
 10
0.0
 20
0.0
 30
0.0
 70
     1
  0
VERTEX
  8
0
 10
29.3317
 20
47.0861
 42
-0.3206122703421
  0
VERTEX
  8
0
 10
50.5158
 20
47.1995
 42
-0.4770277249863
  0
VERTEX
  8
0
 10
50.7595
 20
44.8808
 42
-0.431095124649
  0
VERTEX
  8
0
 10
48.5239
 20
44.3255
 42
0.3181318865384
  0
VERTEX
  8
0
 10
31.4761
 20
44.3255
 42
-0.3541315296174
  0
VERTEX
  8
0
 10
29.2405
 20
44.8808
 42
-0.4386091565061
  0
SEQEND
  0
POLYLINE
  8
0
 66
     1
 10
0.0
 20
0.0
 30
0.0
 70
     1
  0
VERTEX
  8
0
 10
55.0861
 20
42.6683
 42
-0.3206122703421
  0
VERTEX
  8
0
 10
55.1995
 20
21.4842
 42
-0.4770277249861
  0
VERTEX
  8
0
 10
52.8808
 20
21.2405
 42
-0.431095124649
  0
VERTEX
  8
0
 10
52.3255
 20
23.4761
 42
0.3181318865384
  0
VERTEX
  8
0
 10
52.3255
 20
40.5239
 42
-0.3541315296173
  0
VERTEX
  8
0
 10
52.8808
 20
42.7595
 42
-0.4386091565059
  0
SEQEND
  0
POLYLINE
  8
0
 66
     1
 10
0.0
 20
0.0
 30
0.0
 70
     1
  0
VERTEX
  8
0
 10
35.4175
 20
27.7651
 42
-32.5167347031584
  0
VERTEX
  8
0
 10
35.5806
 20
27.5806
 42
0.0
  0
SEQEND
  0
POLYLINE
  8
0
 66
     1
 10
0.0
 20
0.0
 30
0.0
 70
     1
  0
VERTEX
  8
0
 10
106.477
 20
33.0733
 42
-32.5369353089942
  0
VERTEX
  8
0
 10
106.718
 20
33.0244
 42
0.0
  0
SEQEND
  0
POLYLINE
  8
0
 66
     1
 10
0.0
 20
0.0
 30
0.0
 70
     1
  0
VERTEX
  8
0
 10
344.951
 20
13.3911
 42
-27.3612285938851
  0
VERTEX
  8
0
 10
345.191
 20
13.3283
 42
0.0
  0
SEQEND
  0
POLYLINE
  8
0
 66
     1
 10
0.0
 20
0.0
 30
0.0
 70
     1
  0
VERTEX
  8
0
 10
35.1871
 20
23.7966
 42
0.2680206184115
  0
VERTEX
  8
0
 10
44.6772
 20
23.7357
 42
-0.324981825418
  0
VERTEX
  8
0
 10
46.787
 20
23.0916
 42
-0.5094394162783
  0
VERTEX
  8
0
 10
46.4074
 20
20.6945
 42
-0.2642165798038
  0
VERTEX
  8
0
 10
33.5926
 20
20.6945
 42
-0.5096302961434
  0
VERTEX
  8
0
 10
33.213
 20
23.0916
 42
-0.3753442307208
  0
SEQEND
  0
POLYLINE
  8
0
 66
     1
 10
0.0
 20
0.0
 30
0.0
 70
     1
  0
VERTEX
  8
0
 10
173.951
 20
50.9589
 42
-27.5228952312697
  0
VERTEX
  8
0
 10
173.723
 20
50.8619
 42
0.0
  0
SEQEND
  0
POLYLINE
  8
0
 66
     1
 10
0.0
 20
0.0
 30
0.0
 70
     1
  0
VERTEX
  8
0
 10
35.7651
 20
36.5825
 42
-32.5167347037182
  0
VERTEX
  8
0
 10
35.5806
 20
36.4194
 42
0.0
  0
SEQEND
  0
POLYLINE
  8
0
 66
     1
 10
0.0
 20
0.0
 30
0.0
 70
     1
  0
VERTEX
  8
0
 10
3.0822
 20
44.938
 42
-27.3386394770094
  0
VERTEX
  8
0
 10
2.96072
 20
44.7216
 42
0.0
  0
SEQEND
  0
POLYLINE
  8
0
 66
     1
 10
0.0
 20
0.0
 30
0.0
 70
     1
  0
VERTEX
  8
0
 10
3.0822
 20
15.938
 42
-27.338639477247
  0
VERTEX
  8
0
 10
2.96072
 20
15.7216
 42
0.0
  0
SEQEND
  0
POLYLINE
  8
0
 66
     1
 10
0.0
 20
0.0
 30
0.0
 70
     1
  0
VERTEX
  8
0
 10
125.086
 20
42.6683
 42
-0.3209168936523
  0
VERTEX
  8
0
 10
125.199
 20
21.4842
 42
-0.4783169874841
  0
VERTEX
  8
0
 10
122.881
 20
21.2405
 42
-0.4304843358234
  0
VERTEX
  8
0
 10
122.325
 20
23.4761
 42
0.3183443890522
  0
VERTEX
  8
0
 10
122.325
 20
40.5239
 42
-0.3539240568932
  0
VERTEX
  8
0
 10
122.881
 20
42.7595
 42
-0.4395990364083
  0
SEQEND
  0
POLYLINE
  8
0
 66
     1
 10
0.0
 20
0.0
 30
0.0
 70
     1
  0
VERTEX
  8
0
 10
126.368
 20
17.6131
 42
-26.7041140797965
  0
VERTEX
  8
0
 10
126.124
 20
17.65
 42
0.0
  0
SEQEND
  0
POLYLINE
  8
0
 66
     1
 10
0.0
 20
0.0
 30
0.0
 70
     1
  0
VERTEX
  8
0
 10
344.951
 20
45.6089
 42
-27.5228952277813
  0
VERTEX
  8
0
 10
344.723
 20
45.5119
 42
0.0
  0
SEQEND
  0
POLYLINE
  8
0
 66
     1
 10
0.0
 20
0.0
 30
0.0
 70
     1
  0
VERTEX
  8
0
 10
24.3682
 20
17.6131
 42
-26.6932891576853
  0
VERTEX
  8
0
 10
24.1237
 20
17.65
 42
0.0
  0
SEQEND
  0
POLYLINE
  8
0
 66
     1
 10
0.0
 20
0.0
 30
0.0
 70
     1
  0
VERTEX
  8
0
 10
31.7966
 20
36.8129
 42
0.2680206184115
  0
VERTEX
  8
0
 10
31.7357
 20
27.3228
 42
-0.324981825418
  0
VERTEX
  8
0
 10
31.0916
 20
25.213
 42
-0.5094394162782
  0
VERTEX
  8
0
 10
28.6945
 20
25.5926
 42
-0.2642165798038
  0
VERTEX
  8
0
 10
28.6945
 20
38.4074
 42
-0.5096302961437
  0
VERTEX
  8
0
 10
31.0916
 20
38.787
 42
-0.3753442307207
  0
SEQEND
  0
POLYLINE
  8
0
 66
     1
 10
0.0
 20
0.0
 30
0.0
 70
     1
  0
VERTEX
  8
0
 10
94.3682
 20
46.3869
 42
-26.6626207675423
  0
VERTEX
  8
0
 10
94.6045
 20
46.4597
 42
0.0
  0
SEQEND
  0
POLYLINE
  8
0
 66
     1
 10
0.0
 20
0.0
 30
0.0
 70
     1
  0
VERTEX
  8
0
 10
105.187
 20
23.7966
 42
0.2680484836109
  0
VERTEX
  8
0
 10
114.677
 20
23.7357
 42
-0.3250716388805
  0
VERTEX
  8
0
 10
116.787
 20
23.0916
 42
-0.5100999994549
  0
VERTEX
  8
0
 10
116.407
 20
20.6945
 42
-0.2643611502461
  0
VERTEX
  8
0
 10
103.593
 20
20.6945
 42
-0.509570197904
  0
VERTEX
  8
0
 10
103.213
 20
23.0916
 42
-0.3748589880146
  0
SEQEND
  0
POLYLINE
  8
0
 66
     1
 10
0.0
 20
0.0
 30
0.0
 70
     1
  0
VERTEX
  8
0
 10
349.75
 20
58.75
 42
0.0
  0
VERTEX
  8
0
 10
222.487
 20
58.75
 42
-0.9330541225515
  0
VERTEX
  8
0
 10
207.541
 20
58.216
 42
0.0
  0
VERTEX
  8
0
 10
207.513
 20
58.75
 42
0.0
  0
VERTEX
  8
0
 10
82.4869
 20
58.75
 42
-0.9332895090571
  0
VERTEX
  8
0
 10
67.5411
 20
58.216
 42
0.0
  0
VERTEX
  8
0
 10
67.5131
 20
58.75
 42
0.0
  0
VERTEX
  8
0
 10
0.0
 20
58.75
 42
0.0
  0
VERTEX
  8
0
 10
0.0
 20
0.0
 42
0.0
  0
VERTEX
  8
0
 10
349.75
 20
0.0
 42
0.0
  0
SEQEND
  0
ENDSEC
  0
EOF
