  0
SECTION
  2
HEADER
  9
$ACADVER
  1
AC1009
  9
$EXTMAX
 10
349.75
 20
58.75
 30
0.0
  9
$EXTMIN
 10
0.0
 20
0.0
 30
0.0
  9
$INSUNITS
 70
     4
  9
$LUNITS
 70
     2
  9
$LUPREC
 70
     4
  9
$MEASUREMENT
 70
     1
  0
ENDSEC
  0
SECTION
  2
TABLES
  0
TABLE
  2
LAYER
 70
     1
  0
LAYER
  2
0
 70
     0
 62
    70
  6
Continuous
  0
ENDTAB
  0
TABLE
  2
APPID
 70
     1
  0
APPID
  2
ACAD
 70
     0
  0
ENDTAB
  0
ENDSEC
  0
SECTION
  2
ENTITIES
  0
POLYLINE
  8
0
 66
     1
 10
0.0
 20
0.0
 30
0.0
 70
     1
  0
VERTEX
  8
0
 10
344.951
 20
45.6089
 42
-27.5228952277813
  0
VERTEX
  8
0
 10
344.723
 20
45.5119
 42
0.0
  0
SEQEND
  0
POLYLINE
  8
0
 66
     1
 10
0.0
 20
0.0
 30
0.0
 70
     1
  0
VERTEX
  8
0
 10
320.709
 20
41.2435
 42
-0.5415278093121
  0
VERTEX
  8
0
 10
319.938
 20
40.2526
 42
0.0
  0
VERTEX
  8
0
 10
29.9381
 20
40.2526
 42
-0.9206996088092
  0
VERTEX
  8
0
 10
29.9381
 20
41.7474
 42
0.0
  0
VERTEX
  8
0
 10
319.938
 20
41.7474
 42
-0.3425179158294
  0
SEQEND
  0
POLYLINE
  8
0
 66
     1
 10
0.0
 20
0.0
 30
0.0
 70
     1
  0
VERTEX
  8
0
 10
320.709
 20
13.7435
 42
-0.5412667682296
  0
VERTEX
  8
0
 10
319.938
 20
12.7525
 42
0.0
  0
VERTEX
  8
0
 10
29.9381
 20
12.7525
 42
-0.9206891486974
  0
VERTEX
  8
0
 10
29.9381
 20
14.2474
 42
0.0
  0
VERTEX
  8
0
 10
319.938
 20
14.2474
 42
-0.342517915828
  0
SEQEND
  0
POLYLINE
  8
0
 66
     1
 10
0.0
 20
0.0
 30
0.0
 70
     1
  0
VERTEX
  8
0
 10
320.709
 20
31.2435
 42
-0.5415278093129
  0
VERTEX
  8
0
 10
319.938
 20
30.2526
 42
0.0
  0
VERTEX
  8
0
 10
29.9381
 20
30.2526
 42
-0.9206996088091
  0
VERTEX
  8
0
 10
29.9381
 20
31.7474
 42
0.0
  0
VERTEX
  8
0
 10
319.938
 20
31.7474
 42
-0.3425179158298
  0
SEQEND
  0
POLYLINE
  8
0
 66
     1
 10
0.0
 20
0.0
 30
0.0
 70
     1
  0
VERTEX
  8
0
 10
320.709
 20
38.7435
 42
-0.5415278093169
  0
VERTEX
  8
0
 10
319.938
 20
37.7526
 42
0.0
  0
VERTEX
  8
0
 10
29.9381
 20
37.7526
 42
-0.9206996088089
  0
VERTEX
  8
0
 10
29.9381
 20
39.2474
 42
0.0
  0
VERTEX
  8
0
 10
319.938
 20
39.2474
 42
-0.3425179158321
  0
SEQEND
  0
POLYLINE
  8
0
 66
     1
 10
0.0
 20
0.0
 30
0.0
 70
     1
  0
VERTEX
  8
0
 10
320.709
 20
56.2435
 42
-0.5415278093184
  0
VERTEX
  8
0
 10
319.938
 20
55.2526
 42
0.0
  0
VERTEX
  8
0
 10
29.9381
 20
55.2526
 42
-0.9206996088084
  0
VERTEX
  8
0
 10
29.9381
 20
56.7474
 42
0.0
  0
VERTEX
  8
0
 10
319.938
 20
56.7474
 42
-0.3425179158243
  0
SEQEND
  0
POLYLINE
  8
0
 66
     1
 10
0.0
 20
0.0
 30
0.0
 70
     1
  0
VERTEX
  8
0
 10
320.709
 20
11.2435
 42
-0.54126676823
  0
VERTEX
  8
0
 10
319.938
 20
10.2525
 42
0.0
  0
VERTEX
  8
0
 10
29.9381
 20
10.2525
 42
-0.9206891486975
  0
VERTEX
  8
0
 10
29.9381
 20
11.7474
 42
0.0
  0
VERTEX
  8
0
 10
319.938
 20
11.7474
 42
-0.3425179158282
  0
SEQEND
  0
POLYLINE
  8
0
 66
     1
 10
0.0
 20
0.0
 30
0.0
 70
     1
  0
VERTEX
  8
0
 10
320.709
 20
46.2435
 42
-0.5415278093113
  0
VERTEX
  8
0
 10
319.938
 20
45.2526
 42
0.0
  0
VERTEX
  8
0
 10
29.9381
 20
45.2526
 42
-0.9206996088086
  0
VERTEX
  8
0
 10
29.9381
 20
46.7474
 42
0.0
  0
VERTEX
  8
0
 10
319.938
 20
46.7474
 42
-0.3425179158319
  0
SEQEND
  0
POLYLINE
  8
0
 66
     1
 10
0.0
 20
0.0
 30
0.0
 70
     1
  0
VERTEX
  8
0
 10
320.709
 20
36.2435
 42
-0.5415278093153
  0
VERTEX
  8
0
 10
319.938
 20
35.2526
 42
0.0
  0
VERTEX
  8
0
 10
29.9381
 20
35.2526
 42
-0.9206996088084
  0
VERTEX
  8
0
 10
29.9381
 20
36.7474
 42
0.0
  0
VERTEX
  8
0
 10
319.938
 20
36.7474
 42
-0.3425179158328
  0
SEQEND
  0
POLYLINE
  8
0
 66
     1
 10
0.0
 20
0.0
 30
0.0
 70
     1
  0
VERTEX
  8
0
 10
344.951
 20
13.3911
 42
-27.3612285938851
  0
VERTEX
  8
0
 10
345.191
 20
13.3283
 42
0.0
  0
SEQEND
  0
POLYLINE
  8
0
 66
     1
 10
0.0
 20
0.0
 30
0.0
 70
     1
  0
VERTEX
  8
0
 10
320.709
 20
18.7435
 42
-0.5415278093156
  0
VERTEX
  8
0
 10
319.938
 20
17.7526
 42
0.0
  0
VERTEX
  8
0
 10
29.9381
 20
17.7526
 42
-0.9206996088095
  0
VERTEX
  8
0
 10
29.9381
 20
19.2474
 42
0.0
  0
VERTEX
  8
0
 10
319.938
 20
19.2474
 42
-0.3425179158272
  0
SEQEND
  0
POLYLINE
  8
0
 66
     1
 10
0.0
 20
0.0
 30
0.0
 70
     1
  0
VERTEX
  8
0
 10
320.709
 20
33.7435
 42
-0.541527809316
  0
VERTEX
  8
0
 10
319.938
 20
32.7526
 42
0.0
  0
VERTEX
  8
0
 10
29.9381
 20
32.7526
 42
-0.9206996088094
  0
VERTEX
  8
0
 10
29.9381
 20
34.2474
 42
0.0
  0
VERTEX
  8
0
 10
319.938
 20
34.2474
 42
-0.3425179158274
  0
SEQEND
  0
POLYLINE
  8
0
 66
     1
 10
0.0
 20
0.0
 30
0.0
 70
     1
  0
VERTEX
  8
0
 10
320.709
 20
48.7435
 42
-0.5415278093152
  0
VERTEX
  8
0
 10
319.938
 20
47.7526
 42
0.0
  0
VERTEX
  8
0
 10
29.9381
 20
47.7526
 42
-0.9206996088089
  0
VERTEX
  8
0
 10
29.9381
 20
49.2474
 42
0.0
  0
VERTEX
  8
0
 10
319.938
 20
49.2474
 42
-0.342517915829
  0
SEQEND
  0
POLYLINE
  8
0
 66
     1
 10
0.0
 20
0.0
 30
0.0
 70
     1
  0
VERTEX
  8
0
 10
320.709
 20
6.24352
 42
-0.5412584062089
  0
VERTEX
  8
0
 10
319.938
 20
5.25255
 42
0.0
  0
VERTEX
  8
0
 10
29.9381
 20
5.25255
 42
-0.920654975745
  0
VERTEX
  8
0
 10
29.9381
 20
6.74744
 42
0.0
  0
VERTEX
  8
0
 10
319.938
 20
6.74744
 42
-0.3425105305693
  0
SEQEND
  0
POLYLINE
  8
0
 66
     1
 10
0.0
 20
0.0
 30
0.0
 70
     1
  0
VERTEX
  8
0
 10
3.0822
 20
15.938
 42
-27.338639477247
  0
VERTEX
  8
0
 10
2.96072
 20
15.7216
 42
0.0
  0
SEQEND
  0
POLYLINE
  8
0
 66
     1
 10
0.0
 20
0.0
 30
0.0
 70
     1
  0
VERTEX
  8
0
 10
320.709
 20
51.2435
 42
-0.5415278093153
  0
VERTEX
  8
0
 10
319.938
 20
50.2526
 42
0.0
  0
VERTEX
  8
0
 10
29.9381
 20
50.2526
 42
-0.9206996088092
  0
VERTEX
  8
0
 10
29.9381
 20
51.7474
 42
0.0
  0
VERTEX
  8
0
 10
319.938
 20
51.7474
 42
-0.3425179158273
  0
SEQEND
  0
POLYLINE
  8
0
 66
     1
 10
0.0
 20
0.0
 30
0.0
 70
     1
  0
VERTEX
  8
0
 10
320.709
 20
16.2435
 42
-0.5412667682297
  0
VERTEX
  8
0
 10
319.938
 20
15.2525
 42
0.0
  0
VERTEX
  8
0
 10
29.9381
 20
15.2525
 42
-0.9206891486975
  0
VERTEX
  8
0
 10
29.9381
 20
16.7474
 42
0.0
  0
VERTEX
  8
0
 10
319.938
 20
16.7474
 42
-0.3425179158288
  0
SEQEND
  0
POLYLINE
  8
0
 66
     1
 10
0.0
 20
0.0
 30
0.0
 70
     1
  0
VERTEX
  8
0
 10
320.709
 20
53.7435
 42
-0.5415278093212
  0
VERTEX
  8
0
 10
319.938
 20
52.7526
 42
0.0
  0
VERTEX
  8
0
 10
29.9381
 20
52.7526
 42
-0.9206996088084
  0
VERTEX
  8
0
 10
29.9381
 20
54.2474
 42
0.0
  0
VERTEX
  8
0
 10
319.938
 20
54.2474
 42
-0.3425179158278
  0
SEQEND
  0
POLYLINE
  8
0
 66
     1
 10
0.0
 20
0.0
 30
0.0
 70
     1
  0
VERTEX
  8
0
 10
320.709
 20
21.2435
 42
-0.5415278093161
  0
VERTEX
  8
0
 10
319.938
 20
20.2526
 42
0.0
  0
VERTEX
  8
0
 10
29.9381
 20
20.2526
 42
-0.9206996088092
  0
VERTEX
  8
0
 10
29.9381
 20
21.7474
 42
0.0
  0
VERTEX
  8
0
 10
319.938
 20
21.7474
 42
-0.34251791583
  0
SEQEND
  0
POLYLINE
  8
0
 66
     1
 10
0.0
 20
0.0
 30
0.0
 70
     1
  0
VERTEX
  8
0
 10
320.709
 20
8.74352
 42
-0.5412584062088
  0
VERTEX
  8
0
 10
319.938
 20
7.75255
 42
0.0
  0
VERTEX
  8
0
 10
29.9381
 20
7.75255
 42
-0.9206549757453
  0
VERTEX
  8
0
 10
29.9381
 20
9.24744
 42
0.0
  0
VERTEX
  8
0
 10
319.938
 20
9.24744
 42
-0.3425105305693
  0
SEQEND
  0
POLYLINE
  8
0
 66
     1
 10
0.0
 20
0.0
 30
0.0
 70
     1
  0
VERTEX
  8
0
 10
320.709
 20
23.7435
 42
-0.5415278093147
  0
VERTEX
  8
0
 10
319.938
 20
22.7526
 42
0.0
  0
VERTEX
  8
0
 10
29.9381
 20
22.7526
 42
-0.9206996088094
  0
VERTEX
  8
0
 10
29.9381
 20
24.2474
 42
0.0
  0
VERTEX
  8
0
 10
319.938
 20
24.2474
 42
-0.3425179158307
  0
SEQEND
  0
POLYLINE
  8
0
 66
     1
 10
0.0
 20
0.0
 30
0.0
 70
     1
  0
VERTEX
  8
0
 10
3.0822
 20
44.938
 42
-27.3386394770094
  0
VERTEX
  8
0
 10
2.96072
 20
44.7216
 42
0.0
  0
SEQEND
  0
POLYLINE
  8
0
 66
     1
 10
0.0
 20
0.0
 30
0.0
 70
     1
  0
VERTEX
  8
0
 10
320.709
 20
26.2435
 42
-0.541527809313
  0
VERTEX
  8
0
 10
319.938
 20
25.2526
 42
0.0
  0
VERTEX
  8
0
 10
29.9381
 20
25.2526
 42
-0.9206996088092
  0
VERTEX
  8
0
 10
29.9381
 20
26.7474
 42
0.0
  0
VERTEX
  8
0
 10
319.938
 20
26.7474
 42
-0.3425179158342
  0
SEQEND
  0
POLYLINE
  8
0
 66
     1
 10
0.0
 20
0.0
 30
0.0
 70
     1
  0
VERTEX
  8
0
 10
320.709
 20
43.7435
 42
-0.5415278093102
  0
VERTEX
  8
0
 10
319.938
 20
42.7526
 42
0.0
  0
VERTEX
  8
0
 10
29.9381
 20
42.7526
 42
-0.9206996088082
  0
VERTEX
  8
0
 10
29.9381
 20
44.2474
 42
0.0
  0
VERTEX
  8
0
 10
319.938
 20
44.2474
 42
-0.3425179158338
  0
SEQEND
  0
POLYLINE
  8
0
 66
     1
 10
0.0
 20
0.0
 30
0.0
 70
     1
  0
VERTEX
  8
0
 10
320.709
 20
28.7435
 42
-0.5415278093139
  0
VERTEX
  8
0
 10
319.938
 20
27.7526
 42
0.0
  0
VERTEX
  8
0
 10
29.9381
 20
27.7526
 42
-0.9206996088094
  0
VERTEX
  8
0
 10
29.9381
 20
29.2474
 42
0.0
  0
VERTEX
  8
0
 10
319.938
 20
29.2474
 42
-0.3425179158318
  0
SEQEND
  0
POLYLINE
  8
0
 66
     1
 10
0.0
 20
0.0
 30
0.0
 70
     1
  0
VERTEX
  8
0
 10
349.75
 20
58.75
 42
0.0
  0
VERTEX
  8
0
 10
337.487
 20
58.75
 42
-0.9330541225517
  0
VERTEX
  8
0
 10
322.541
 20
58.216
 42
0.0
  0
VERTEX
  8
0
 10
322.513
 20
58.75
 42
0.0
  0
VERTEX
  8
0
 10
27.4869
 20
58.75
 42
-0.9332895090571
  0
VERTEX
  8
0
 10
12.5411
 20
58.216
 42
0.0
  0
VERTEX
  8
0
 10
12.5131
 20
58.75
 42
0.0
  0
VERTEX
  8
0
 10
0.0
 20
58.75
 42
0.0
  0
VERTEX
  8
0
 10
0.0
 20
0.0
 42
0.0
  0
VERTEX
  8
0
 10
349.75
 20
0.0
 42
0.0
  0
SEQEND
  0
ENDSEC
  0
EOF
