0
SECTION
2
HEADER
9
$INSUNITS
70
4
9
$ACADVER
1
AC1014
9
$HANDSEED
5
FFFF
0
ENDSEC
0
SECTION
2
TABLES
0
TABLE
2
VPORT
5
8
100
AcDbSymbolTable
0
ENDTAB
0
TABLE
2
LTYPE
5
5
100
AcDbSymbolTable
0
LTYPE
5
14
100
AcDbSymbolTableRecord
100
AcDbLinetypeTableRecord
2
BYBLOCK
70
0
0
LTYPE
5
15
100
AcDbSymbolTableRecord
100
AcDbLinetypeTableRecord
2
BYLAYER
70
0
0
ENDTAB
0
TABLE
2
LAYER
5
2
100
AcDbSymbolTable
70
2
0
LAYER
5
50
100
AcDbSymbolTableRecord
100
AcDbLayerTableRecord
2
0
70
0
6
CONTINUOUS
0
ENDTAB
0
TABLE
2
STYLE
5
3
100
AcDbSymbolTable
70
1
0
STYLE
5
11
100
AcDbSymbolTableRecord
100
AcDbTextStyleTableRecord
2
STANDARD
70
0
0
ENDTAB
0
TABLE
2
VIEW
5
6
100
AcDbSymbolTable
70
0
0
ENDTAB
0
TABLE
2
UCS
5
7
100
AcDbSymbolTable
70
0
0
ENDTAB
0
TABLE
2
APPID
5
9
100
AcDbSymbolTable
70
2
0
APPID
5
12
100
AcDbSymbolTableRecord
100
AcDbRegAppTableRecord
2
ACAD
70
0
0
ENDTAB
0
TABLE
2
DIMSTYLE
5
A
100
AcDbSymbolTable
70
1
0
ENDTAB
0
TABLE
2
BLOCK_RECORD
5
1
100
AcDbSymbolTable
70
1
0
BLOCK_RECORD
5
1F
100
AcDbSymbolTableRecord
100
AcDbBlockTableRecord
2
*MODEL_SPACE
0
BLOCK_RECORD
5
1B
100
AcDbSymbolTableRecord
100
AcDbBlockTableRecord
2
*PAPER_SPACE
0
ENDTAB
0
ENDSEC
0
SECTION
2
BLOCKS
0
BLOCK
5
20
100
AcDbEntity
100
AcDbBlockBegin
2
*MODEL_SPACE
0
ENDBLK
5
21
100
AcDbEntity
100
AcDbBlockEnd
0
BLOCK
5
1C
100
AcDbEntity
100
AcDbBlockBegin
2
*PAPER_SPACE
0
ENDBLK
5
1D
100
AcDbEntity
100
AcDbBlockEnd
0
ENDSEC
0
SECTION
2
ENTITIES
0
LWPOLYLINE
5
100
100
AcDbEntity
8
0
100
AcDbPolyline
90
8
70
1
43
0.0
10
145.00000000002501
20
-454.99999999999994
42
-0.41421356237310336
10
140.00000000002501
20
-449.99999999999994
10
140.00000000002501
20
-4.9999999999999289
42
-0.41421356237310336
10
145.00000000002501
20
7.1054273576010019e-14
10
625.00000000002501
20
7.1054273576010019e-14
42
-0.41421356237308671
10
630.00000000002501
20
-4.9999999999999289
10
630.00000000002501
20
-449.99999999999994
42
-0.41421356237309503
10
625.00000000002501
20
-454.99999999999994
0
CIRCLE
5
101
100
AcDbEntity
8
0
100
AcDbCircle
10
553.5000000000839
20
-227.49999999999994
30
-1.354472090042691e-13
40
1.7499999999999982
210
7.5840750871926961e-16
220
3.8388864343546007e-47
230
1
0
CIRCLE
5
102
100
AcDbEntity
8
0
100
AcDbCircle
10
216.50000000008384
20
-316.24999999999994
30
-3.3306690738754696e-15
40
1.7499999999999716
210
9.2273693944349412e-17
220
-2.8568062286062199e-48
230
1
0
CIRCLE
5
103
100
AcDbEntity
8
0
100
AcDbCircle
10
216.50000000008384
20
-49.999999999999929
30
3.9968028886505635e-14
40
1.7499999999999716
210
9.2273693944349412e-17
220
-4.4816077851470067e-48
230
1
0
CIRCLE
5
104
100
AcDbEntity
8
0
100
AcDbCircle
10
216.50000000008384
20
-404.99999999999989
30
-1.4432899320127035e-14
40
1.7500000000000426
210
9.2273693944345665e-17
220
-2.856806228695903e-48
230
1
0
CIRCLE
5
105
100
AcDbEntity
8
0
100
AcDbCircle
10
553.5000000000839
20
-138.74999999999986
30
-1.2434497875801753e-13
40
1.7499999999999982
210
7.5840750871944997e-16
220
3.838886434357336e-47
230
1
0
CIRCLE
5
106
100
AcDbEntity
8
0
100
AcDbCircle
10
553.5000000000839
20
-316.24999999999989
30
-1.4654943925052066e-13
40
1.7499999999999982
210
7.5840750871944997e-16
220
3.838886434357336e-47
230
1
0
CIRCLE
5
107
100
AcDbEntity
8
0
100
AcDbCircle
10
216.50000000008384
20
-227.49999999999994
30
7.7715611723760958e-15
40
1.7500000000000426
210
9.2273693944525981e-17
220
-2.856806228699638e-48
230
1
0
CIRCLE
5
108
100
AcDbEntity
8
0
100
AcDbCircle
10
216.50000000008384
20
-138.74999999999994
30
1.8873791418627661e-14
40
1.7499999999999716
210
9.2273693944493663e-17
220
-2.8568062286088385e-48
230
1
0
CIRCLE
5
109
100
AcDbEntity
8
0
100
AcDbCircle
10
553.5000000000839
20
-404.99999999999989
30
-1.5765166949677223e-13
40
1.7499999999999982
210
7.5840750871944997e-16
220
3.838886434357336e-47
230
1
0
CIRCLE
5
110
100
AcDbEntity
8
0
100
AcDbCircle
10
553.50000000008379
20
-50.000000000000142
30
-1.0325074129013956e-13
40
1.7500000000000071
210
7.5840750871944602e-16
220
-8.8478129442702257e-47
230
1
0
CIRCLE
5
111
100
AcDbEntity
8
0
100
AcDbCircle
10
159.39325292195997
20
-127.87512796991585
30
1.9984014443252818e-14
40
1.7500000000000502
210
0
220
0
230
1
0
CIRCLE
5
112
100
AcDbEntity
8
0
100
AcDbCircle
10
159.39325292195997
20
-382.91806891872125
30
1.9984014443252818e-14
40
1.7500000000000386
210
-2.9130685596134209e-17
220
1.1325258113589553e-15
230
1
0
CIRCLE
5
113
100
AcDbEntity
8
0
100
AcDbCircle
10
190.39325292195997
20
-351.91806891872096
30
1.8873791418627661e-14
40
1.7500000000000437
210
-6.0304802711080499e-16
220
8.4455160601900841e-16
230
1
0
CIRCLE
5
114
100
AcDbEntity
8
0
100
AcDbCircle
10
159.39325292195997
20
-96.875127969915837
30
1.9984014443252818e-14
40
1.7500000000000502
210
0
220
0
230
1
0
CIRCLE
5
115
100
AcDbEntity
8
0
100
AcDbCircle
10
190.39325292195997
20
-127.87512796991585
30
1.9984014443252818e-14
40
1.7500000000000335
210
0
220
0
230
1
0
CIRCLE
5
116
100
AcDbEntity
8
0
100
AcDbCircle
10
190.39325292195997
20
-382.91806891872113
30
1.9984014443252818e-14
40
1.75000000000004
210
-2.9130685596080863e-17
220
1.1325258113589916e-15
230
1
0
CIRCLE
5
117
100
AcDbEntity
8
0
100
AcDbCircle
10
159.39325292195997
20
-351.91806891872085
30
1.8873791418627661e-14
40
1.75000000000004
210
-6.0304802711076643e-16
220
8.4455160601908542e-16
230
1
0
CIRCLE
5
118
100
AcDbEntity
8
0
100
AcDbCircle
10
190.39325292195997
20
-96.875127969915908
30
1.9984014443252818e-14
40
1.7500000000000335
210
0
220
0
230
1
0
CIRCLE
5
119
100
AcDbEntity
8
0
100
AcDbCircle
10
622.50000000002512
20
-7.5
30
1.9984014443252818e-14
40
3.5000000000000271
210
1.4565342798076223e-17
220
-5.6626290567947481e-16
230
1
0
CIRCLE
5
120
100
AcDbEntity
8
0
100
AcDbCircle
10
622.50000000002501
20
-447.49999999999994
30
1.8873791418627661e-14
40
3.7499999999999996
210
2.8142241265170639e-16
220
-3.941240828088449e-16
230
1
0
CIRCLE
5
121
100
AcDbEntity
8
0
100
AcDbCircle
10
147.50000000002495
20
-7.4999999999997868
30
1.8873791418627661e-14
40
3.4999999999999347
210
3.015240135554196e-16
220
-4.2227580300948921e-16
230
1
0
CIRCLE
5
122
100
AcDbEntity
8
0
100
AcDbCircle
10
147.50000000002495
20
-447.49999999999977
30
1.8873791418627661e-14
40
3.4999999999999485
210
3.0152401355541689e-16
220
-4.2227580300944933e-16
230
1
0
CIRCLE
5
123
100
AcDbEntity
8
0
100
AcDbCircle
10
579.39325292195963
20
-224.41806891871687
30
1.9984014443252818e-14
40
1.7499999999999614
210
0
220
0
230
1
0
CIRCLE
5
124
100
AcDbEntity
8
0
100
AcDbCircle
10
610.39325292195963
20
-224.41806891871695
30
1.8873791418627661e-14
40
1.7499999999999927
210
-6.0304802711081702e-16
220
8.4455160601896591e-16
230
1
0
CIRCLE
5
125
100
AcDbEntity
8
0
100
AcDbCircle
10
579.39325292195963
20
-255.41806891871693
30
1.9984014443252818e-14
40
1.7499999999999902
210
0
220
0
230
1
0
CIRCLE
5
126
100
AcDbEntity
8
0
100
AcDbCircle
10
610.39325292195963
20
-255.41806891871698
30
1.8873791418627661e-14
40
1.7499999999999891
210
-6.0304802711081633e-16
220
8.4455160601896226e-16
230
1
0
CIRCLE
5
127
100
AcDbEntity
8
0
100
AcDbCircle
10
174.99977161227002
20
-112.20221099552383
30
1.9984014443252818e-14
40
12.499999999999984
210
-4.0782959834627542e-18
220
1.5855361359025892e-16
230
1
0
CIRCLE
5
128
100
AcDbEntity
8
0
100
AcDbCircle
10
174.99984910799589
20
-367.24515194432905
30
1.8873791418627661e-14
40
12.500000000000073
210
-8.4426723795508322e-17
220
1.1823722484265169e-16
230
1
0
CIRCLE
5
129
100
AcDbEntity
8
0
100
AcDbCircle
10
594.99989609521378
20
-239.74515194432496
30
1.9984014443252818e-14
40
12.5
210
-4.0782959834639614e-18
220
1.5855361359025749e-16
230
1
0
CIRCLE
5
130
100
AcDbEntity
8
0
100
AcDbCircle
10
147.50000000002495
20
-316.24999999999994
30
1.9984014443252818e-14
40
1.7500000000000437
210
0
220
0
230
1
0
CIRCLE
5
131
100
AcDbEntity
8
0
100
AcDbCircle
10
147.50000000002495
20
-227.49999999999997
30
1.9984014443252818e-14
40
1.750000000000054
210
0
220
0
230
1
0
CIRCLE
5
132
100
AcDbEntity
8
0
100
AcDbCircle
10
385.00000000002501
20
-447.5
30
1.8873791418627661e-14
40
1.7499999999999682
210
-6.0304802711083102e-16
220
8.4455160601890359e-16
230
1
0
CIRCLE
5
133
100
AcDbEntity
8
0
100
AcDbCircle
10
147.50000000002501
20
-138.74999999999994
30
1.8873791418627661e-14
40
1.7499999999999758
210
-6.0304802711081071e-16
220
8.4455160601898928e-16
230
1
0
CIRCLE
5
134
100
AcDbEntity
8
0
100
AcDbCircle
10
147.50000000002495
20
-49.999999999999858
30
1.9984014443252818e-14
40
1.7500000000000335
210
0
220
0
230
1
0
CIRCLE
5
135
100
AcDbEntity
8
0
100
AcDbCircle
10
287.50000000002501
20
-447.49999999999994
30
1.9984014443252818e-14
40
1.7499999999999758
210
0
220
0
230
1
0
CIRCLE
5
136
100
AcDbEntity
8
0
100
AcDbCircle
10
622.50000000002501
20
-404.99999999999994
30
1.9984014443252818e-14
40
1.7499999999999993
210
-5.7615396792731117e-17
220
8.068872412342753e-17
230
1
0
CIRCLE
5
137
100
AcDbEntity
8
0
100
AcDbCircle
10
580.00000000002501
20
-447.49999999999994
30
1.9984014443252818e-14
40
1.7500000000000067
210
-5.8261371192300959e-17
220
2.2650516227179667e-15
230
1
0
CIRCLE
5
138
100
AcDbEntity
8
0
100
AcDbCircle
10
190.00000000002495
20
-7.4999999999997868
30
1.9984014443252818e-14
40
1.7500000000000502
210
0
220
0
230
1
0
CIRCLE
5
139
100
AcDbEntity
8
0
100
AcDbCircle
10
622.50000000002501
20
-49.999999999999858
30
1.9984014443252818e-14
40
1.7500000000000047
210
-2.9130685596131652e-17
220
1.1325258113589609e-15
230
1
0
CIRCLE
5
140
100
AcDbEntity
8
0
100
AcDbCircle
10
190.00000000002501
20
-447.49999999999994
30
1.9984014443252818e-14
40
1.7499999999999758
210
0
220
0
230
1
0
CIRCLE
5
141
100
AcDbEntity
8
0
100
AcDbCircle
10
147.50000000002495
20
-404.99999999999966
30
1.9984014443252818e-14
40
1.75000000000004
210
-2.9130685596109558e-17
220
1.1325258113590319e-15
230
1
0
CIRCLE
5
142
100
AcDbEntity
8
0
100
AcDbCircle
10
622.50000000002501
20
-316.24999999999994
30
1.9984014443252818e-14
40
1.7500000000000098
210
2.913068559615896e-17
220
-1.1325258113589587e-15
230
1
0
CIRCLE
5
143
100
AcDbEntity
8
0
100
AcDbCircle
10
482.50000000002501
20
-447.49999999999994
30
1.9984014443252818e-14
40
1.7500000000000073
210
-5.8261371192329753e-17
220
2.265051622717947e-15
230
1
0
CIRCLE
5
144
100
AcDbEntity
8
0
100
AcDbCircle
10
580.00000000002501
20
-7.4999999999998579
30
1.9984014443252818e-14
40
1.7500000000000191
210
-2.9130685596134314e-17
220
1.1325258113589652e-15
230
1
0
CIRCLE
5
145
100
AcDbEntity
8
0
100
AcDbCircle
10
482.50000000002501
20
-7.4999999999997868
30
1.9984014443252818e-14
40
1.7500000000000191
210
0
220
0
230
1
0
CIRCLE
5
146
100
AcDbEntity
8
0
100
AcDbCircle
10
385.00000000002501
20
-7.4999999999998579
30
1.9984014443252818e-14
40
1.7500000000000047
210
-5.7615396792730389e-17
220
8.0688724123430069e-17
230
1
0
CIRCLE
5
147
100
AcDbEntity
8
0
100
AcDbCircle
10
287.50000000002495
20
-7.4999999999998579
30
1.9984014443252818e-14
40
1.7500000000000335
210
0
220
0
230
1
0
CIRCLE
5
148
100
AcDbEntity
8
0
100
AcDbCircle
10
622.50000000002501
20
-138.74999999999997
30
1.8873791418627661e-14
40
1.7499999999999667
210
-6.0304802711082639e-16
220
8.4455160601900456e-16
230
1
0
CIRCLE
5
149
100
AcDbEntity
8
0
100
AcDbCircle
10
622.50000000002501
20
-227.49999999999994
30
1.9984014443252818e-14
40
1.7499999999999847
210
-2.9130685596165462e-17
220
1.1325258113589668e-15
230
1
0
CIRCLE
5
150
100
AcDbEntity
8
0
100
AcDbCircle
10
553.5000000000839
20
-227.49999999999986
30
0
40
1.749999999999998
210
0
220
-0
230
1
0
CIRCLE
5
151
100
AcDbEntity
8
0
100
AcDbCircle
10
216.50000000008384
20
-316.24999999999989
30
0
40
1.7499999999999716
210
0
220
-0
230
1
0
CIRCLE
5
152
100
AcDbEntity
8
0
100
AcDbCircle
10
216.50000000008384
20
-49.999999999999858
30
0
40
1.7499999999999716
210
0
220
-0
230
1
0
CIRCLE
5
153
100
AcDbEntity
8
0
100
AcDbCircle
10
216.50000000008384
20
-404.99999999999977
30
0
40
1.7500000000000426
210
0
220
-0
230
1
0
CIRCLE
5
154
100
AcDbEntity
8
0
100
AcDbCircle
10
553.5000000000839
20
-138.74999999999977
30
0
40
1.749999999999998
210
0
220
-0
230
1
0
CIRCLE
5
155
100
AcDbEntity
8
0
100
AcDbCircle
10
553.5000000000839
20
-316.24999999999983
30
0
40
1.749999999999998
210
0
220
-0
230
1
0
CIRCLE
5
156
100
AcDbEntity
8
0
100
AcDbCircle
10
216.50000000008384
20
-227.49999999999986
30
0
40
1.7500000000000426
210
0
220
-0
230
1
0
CIRCLE
5
157
100
AcDbEntity
8
0
100
AcDbCircle
10
216.50000000008384
20
-138.74999999999986
30
0
40
1.7499999999999716
210
0
220
-0
230
1
0
CIRCLE
5
158
100
AcDbEntity
8
0
100
AcDbCircle
10
553.5000000000839
20
-404.99999999999977
30
0
40
1.749999999999998
210
0
220
-0
230
1
0
CIRCLE
5
159
100
AcDbEntity
8
0
100
AcDbCircle
10
553.50000000008379
20
-50.000000000000071
30
0
40
1.7500000000000071
210
0
220
-0
230
1
0
LWPOLYLINE
5
160
100
AcDbEntity
8
0
100
AcDbPolyline
90
8
70
1
43
0.0
10
145.00000000002501
20
-454.99999999999989
42
-0.41421356237310542
10
140.00000000002501
20
-449.99999999999989
10
140.00000000002501
20
-4.9999999999998597
42
-0.41421356237310519
10
145.00000000002501
20
1.4210854715202006e-13
10
625.00000000002501
20
1.0658141036401503e-13
42
-0.4142135623730846
10
630.00000000002501
20
-4.9999999999998579
10
630.00000000002501
20
-449.99999999999989
42
-0.41421356237310336
10
625.00000000002501
20
-454.99999999999989
0
CIRCLE
5
161
100
AcDbEntity
8
0
100
AcDbCircle
10
159.39325292195997
20
-127.87512796991578
30
0
40
1.7500000000000502
210
-0
220
0
230
1
0
CIRCLE
5
162
100
AcDbEntity
8
0
100
AcDbCircle
10
159.39325292195997
20
-382.91806891872119
30
0
40
1.7500000000000386
210
-0
220
0
230
1
0
CIRCLE
5
163
100
AcDbEntity
8
0
100
AcDbCircle
10
190.39325292195997
20
-351.91806891872091
30
0
40
1.7500000000000437
210
-0
220
0
230
1
0
CIRCLE
5
164
100
AcDbEntity
8
0
100
AcDbCircle
10
159.39325292195997
20
-96.875127969915766
30
0
40
1.7500000000000502
210
-0
220
0
230
1
0
CIRCLE
5
165
100
AcDbEntity
8
0
100
AcDbCircle
10
190.39325292195997
20
-127.87512796991578
30
0
40
1.7500000000000335
210
-0
220
0
230
1
0
CIRCLE
5
166
100
AcDbEntity
8
0
100
AcDbCircle
10
190.39325292195997
20
-382.91806891872113
30
0
40
1.75000000000004
210
-0
220
0
230
1
0
CIRCLE
5
167
100
AcDbEntity
8
0
100
AcDbCircle
10
159.39325292195997
20
-351.91806891872079
30
0
40
1.75000000000004
210
-0
220
0
230
1
0
CIRCLE
5
168
100
AcDbEntity
8
0
100
AcDbCircle
10
190.39325292195997
20
-96.875127969915837
30
0
40
1.7500000000000335
210
-0
220
0
230
1
0
CIRCLE
5
169
100
AcDbEntity
8
0
100
AcDbCircle
10
622.50000000002512
20
-7.4999999999999289
30
0
40
3.5000000000000271
210
0
220
-0
230
1
0
CIRCLE
5
170
100
AcDbEntity
8
0
100
AcDbCircle
10
622.50000000002501
20
-447.49999999999989
30
0
40
3.7499999999999991
210
0
220
-0
230
1
0
CIRCLE
5
171
100
AcDbEntity
8
0
100
AcDbCircle
10
147.50000000002495
20
-7.4999999999997158
30
0
40
3.4999999999999347
210
0
220
-0
230
1
0
CIRCLE
5
172
100
AcDbEntity
8
0
100
AcDbCircle
10
147.50000000002495
20
-447.49999999999972
30
0
40
3.4999999999999485
210
0
220
-0
230
1
0
CIRCLE
5
173
100
AcDbEntity
8
0
100
AcDbCircle
10
579.39325292195963
20
-224.41806891871678
30
0
40
1.7499999999999614
210
-0
220
0
230
1
0
CIRCLE
5
174
100
AcDbEntity
8
0
100
AcDbCircle
10
610.39325292195963
20
-224.4180689187169
30
0
40
1.7499999999999927
210
-0
220
0
230
1
0
CIRCLE
5
175
100
AcDbEntity
8
0
100
AcDbCircle
10
579.39325292195963
20
-255.41806891871687
30
0
40
1.7499999999999902
210
-0
220
0
230
1
0
CIRCLE
5
176
100
AcDbEntity
8
0
100
AcDbCircle
10
610.39325292195963
20
-255.4180689187169
30
0
40
1.7499999999999891
210
-0
220
0
230
1
0
CIRCLE
5
177
100
AcDbEntity
8
0
100
AcDbCircle
10
174.99977161227002
20
-112.20221099552376
30
0
40
12.499999999999984
210
-0
220
0
230
1
0
CIRCLE
5
178
100
AcDbEntity
8
0
100
AcDbCircle
10
174.99984910799589
20
-367.245151944329
30
0
40
12.500000000000073
210
-0
220
0
230
1
0
CIRCLE
5
179
100
AcDbEntity
8
0
100
AcDbCircle
10
594.99989609521378
20
-239.74515194432487
30
0
40
12.5
210
-0
220
0
230
1
0
CIRCLE
5
180
100
AcDbEntity
8
0
100
AcDbCircle
10
147.50000000002495
20
-316.24999999999989
30
0
40
1.7500000000000437
210
-0
220
0
230
1
0
CIRCLE
5
181
100
AcDbEntity
8
0
100
AcDbCircle
10
147.50000000002495
20
-227.49999999999989
30
0
40
1.750000000000054
210
-0
220
0
230
1
0
CIRCLE
5
182
100
AcDbEntity
8
0
100
AcDbCircle
10
385.00000000002501
20
-447.49999999999994
30
0
40
1.7499999999999682
210
-0
220
0
230
1
0
CIRCLE
5
183
100
AcDbEntity
8
0
100
AcDbCircle
10
147.50000000002501
20
-138.74999999999986
30
0
40
1.7499999999999758
210
-0
220
0
230
1
0
CIRCLE
5
184
100
AcDbEntity
8
0
100
AcDbCircle
10
147.50000000002495
20
-49.999999999999787
30
0
40
1.7500000000000335
210
-0
220
0
230
1
0
CIRCLE
5
185
100
AcDbEntity
8
0
100
AcDbCircle
10
287.50000000002501
20
-447.49999999999989
30
0
40
1.7499999999999758
210
-0
220
0
230
1
0
CIRCLE
5
186
100
AcDbEntity
8
0
100
AcDbCircle
10
622.50000000002501
20
-404.99999999999989
30
0
40
1.7499999999999993
210
-0
220
0
230
1
0
CIRCLE
5
187
100
AcDbEntity
8
0
100
AcDbCircle
10
580.00000000002501
20
-447.49999999999989
30
0
40
1.7500000000000067
210
-0
220
0
230
1
0
CIRCLE
5
188
100
AcDbEntity
8
0
100
AcDbCircle
10
190.00000000002495
20
-7.4999999999997158
30
0
40
1.7500000000000502
210
-0
220
0
230
1
0
CIRCLE
5
189
100
AcDbEntity
8
0
100
AcDbCircle
10
622.50000000002501
20
-49.999999999999787
30
0
40
1.7500000000000047
210
-0
220
0
230
1
0
CIRCLE
5
190
100
AcDbEntity
8
0
100
AcDbCircle
10
190.00000000002501
20
-447.49999999999989
30
0
40
1.7499999999999758
210
-0
220
0
230
1
0
CIRCLE
5
191
100
AcDbEntity
8
0
100
AcDbCircle
10
147.50000000002495
20
-404.99999999999955
30
0
40
1.75000000000004
210
-0
220
0
230
1
0
CIRCLE
5
192
100
AcDbEntity
8
0
100
AcDbCircle
10
622.50000000002501
20
-316.24999999999989
30
0
40
1.7500000000000098
210
-0
220
0
230
1
0
CIRCLE
5
193
100
AcDbEntity
8
0
100
AcDbCircle
10
482.50000000002501
20
-447.49999999999989
30
0
40
1.7500000000000073
210
-0
220
0
230
1
0
CIRCLE
5
194
100
AcDbEntity
8
0
100
AcDbCircle
10
580.00000000002501
20
-7.4999999999997868
30
0
40
1.7500000000000191
210
-0
220
0
230
1
0
CIRCLE
5
195
100
AcDbEntity
8
0
100
AcDbCircle
10
482.50000000002501
20
-7.4999999999997158
30
0
40
1.7500000000000191
210
-0
220
0
230
1
0
CIRCLE
5
196
100
AcDbEntity
8
0
100
AcDbCircle
10
385.00000000002501
20
-7.4999999999997868
30
0
40
1.7500000000000047
210
-0
220
0
230
1
0
CIRCLE
5
197
100
AcDbEntity
8
0
100
AcDbCircle
10
287.50000000002495
20
-7.4999999999997868
30
0
40
1.7500000000000335
210
-0
220
0
230
1
0
CIRCLE
5
198
100
AcDbEntity
8
0
100
AcDbCircle
10
622.50000000002501
20
-138.74999999999989
30
0
40
1.7499999999999667
210
-0
220
0
230
1
0
CIRCLE
5
199
100
AcDbEntity
8
0
100
AcDbCircle
10
622.50000000002501
20
-227.49999999999986
30
0
40
1.7499999999999847
210
-0
220
0
230
1
0
ENDSEC
0
SECTION
2
OBJECTS
0
DICTIONARY
5
C
100
AcDbDictionary
3
ACAD_GROUP
350
D
3
ACAD_MLINESTYLE
350
17
0
DICTIONARY
5
D
100
AcDbDictionary
0
DICTIONARY
5
1A
330
C
100
AcDbDictionary
0
DICTIONARY
5
17
100
AcDbDictionary
0
ENDSEC
0
EOF
