0
SECTION
2
HEADER
9
$INSUNITS
70
4
9
$ACADVER
1
AC1014
9
$HANDSEED
5
FFFF
0
ENDSEC
0
SECTION
2
TABLES
0
TABLE
2
VPORT
5
8
100
AcDbSymbolTable
0
ENDTAB
0
TABLE
2
LTYPE
5
5
100
AcDbSymbolTable
0
LTYPE
5
14
100
AcDbSymbolTableRecord
100
AcDbLinetypeTableRecord
2
BYBLOCK
70
0
0
LTYPE
5
15
100
AcDbSymbolTableRecord
100
AcDbLinetypeTableRecord
2
BYLAYER
70
0
0
ENDTAB
0
TABLE
2
LAYER
5
2
100
AcDbSymbolTable
70
2
0
LAYER
5
50
100
AcDbSymbolTableRecord
100
AcDbLayerTableRecord
2
0
70
0
6
CONTINUOUS
0
ENDTAB
0
TABLE
2
STYLE
5
3
100
AcDbSymbolTable
70
1
0
STYLE
5
11
100
AcDbSymbolTableRecord
100
AcDbTextStyleTableRecord
2
STANDARD
70
0
0
ENDTAB
0
TABLE
2
VIEW
5
6
100
AcDbSymbolTable
70
0
0
ENDTAB
0
TABLE
2
UCS
5
7
100
AcDbSymbolTable
70
0
0
ENDTAB
0
TABLE
2
APPID
5
9
100
AcDbSymbolTable
70
2
0
APPID
5
12
100
AcDbSymbolTableRecord
100
AcDbRegAppTableRecord
2
ACAD
70
0
0
ENDTAB
0
TABLE
2
DIMSTYLE
5
A
100
AcDbSymbolTable
70
1
0
ENDTAB
0
TABLE
2
BLOCK_RECORD
5
1
100
AcDbSymbolTable
70
1
0
BLOCK_RECORD
5
1F
100
AcDbSymbolTableRecord
100
AcDbBlockTableRecord
2
*MODEL_SPACE
0
BLOCK_RECORD
5
1B
100
AcDbSymbolTableRecord
100
AcDbBlockTableRecord
2
*PAPER_SPACE
0
ENDTAB
0
ENDSEC
0
SECTION
2
BLOCKS
0
BLOCK
5
20
100
AcDbEntity
100
AcDbBlockBegin
2
*MODEL_SPACE
0
ENDBLK
5
21
100
AcDbEntity
100
AcDbBlockEnd
0
BLOCK
5
1C
100
AcDbEntity
100
AcDbBlockBegin
2
*PAPER_SPACE
0
ENDBLK
5
1D
100
AcDbEntity
100
AcDbBlockEnd
0
ENDSEC
0
SECTION
2
ENTITIES
0
LWPOLYLINE
5
100
100
AcDbEntity
8
0
100
AcDbPolyline
90
8
70
1
43
0.0
10
-240.80785280403273
20
334.99999999999773
42
-0.41421356237309159
10
-225.8078528040329
20
349.99999999999773
10
104.1921471959671
20
350.00000000000159
42
-0.41421356237309609
10
119.19214719596727
20
335.00000000000159
10
119.19214719596724
20
-135
42
-0.41421356237309503
10
104.19214719596724
20
-150
10
-225.80785280403276
20
-150.00000000000006
42
-0.41421356237309331
10
-240.80785280403276
20
-135
0
CIRCLE
5
101
100
AcDbEntity
8
0
100
AcDbCircle
10
99.192147195967252
20
330
30
0
40
1.7499999999999893
210
6.1629758220391547e-33
220
1.7581828593019154e-80
230
1
0
LWPOLYLINE
5
102
100
AcDbEntity
8
0
100
AcDbPolyline
90
4
70
1
43
0.0
10
54.192148760589163
20
70.000001043081284
10
-30.807852506009539
20
70.000001043081284
10
-30.807852506009539
20
-55.000000819563866
10
54.192148760589163
20
-55.000000819563866
0
CIRCLE
5
103
100
AcDbEntity
8
0
100
AcDbCircle
10
-150.80785280403276
20
-75
30
0
40
20.262692942913656
210
-0
220
2.7369110631344083e-48
230
1
0
CIRCLE
5
104
100
AcDbEntity
8
0
100
AcDbCircle
10
-150.80785280403276
20
-30
30
0
40
20.262692942913674
210
0
220
0
230
1
0
CIRCLE
5
105
100
AcDbEntity
8
0
100
AcDbCircle
10
57.19214876058917
20
-58.000000819563866
30
0
40
1.749999999999998
210
3.081487911019578e-33
220
2.7369110631344089e-48
230
1
0
CIRCLE
5
106
100
AcDbEntity
8
0
100
AcDbCircle
10
57.19214876058917
20
73.000001043081284
30
0
40
1.7499999999999893
210
0
220
0
230
1
0
CIRCLE
5
107
100
AcDbEntity
8
0
100
AcDbCircle
10
-33.807852506009539
20
-58.000000819563866
30
0
40
1.749999999999998
210
3.081487911019578e-33
220
2.7369110631344089e-48
230
1
0
CIRCLE
5
108
100
AcDbEntity
8
0
100
AcDbCircle
10
-33.807852506009539
20
73.000001043081284
30
0
40
1.749999999999998
210
3.081487911019578e-33
220
2.7369110631344089e-48
230
1
0
CIRCLE
5
109
100
AcDbEntity
8
0
100
AcDbCircle
10
-134.80785280403276
20
-91
30
0
40
1.7500000000000071
210
-1.5407439555097887e-32
220
-4.3954571482547884e-80
230
1
0
CIRCLE
5
110
100
AcDbEntity
8
0
100
AcDbCircle
10
-166.80785280403279
20
-46
30
0
40
1.7499999999999893
210
6.1629758220391547e-33
220
1.7581828593019154e-80
230
1
0
CIRCLE
5
111
100
AcDbEntity
8
0
100
AcDbCircle
10
-134.80785280403276
20
-14.000000000000004
30
0
40
1.7500000000000071
210
-1.5407439555097887e-32
220
-4.3954571482547884e-80
230
1
0
CIRCLE
5
112
100
AcDbEntity
8
0
100
AcDbCircle
10
-166.80785280403279
20
-59
30
0
40
1.7499999999999893
210
6.1629758220391547e-33
220
1.7581828593019154e-80
230
1
0
CIRCLE
5
113
100
AcDbEntity
8
0
100
AcDbCircle
10
-166.80785280403279
20
-91
30
0
40
1.7500000000000071
210
-1.5407439555097887e-32
220
-4.3954571482547884e-80
230
1
0
CIRCLE
5
114
100
AcDbEntity
8
0
100
AcDbCircle
10
-134.80785280403276
20
-59
30
0
40
1.7499999999999893
210
6.1629758220391547e-33
220
1.7581828593019154e-80
230
1
0
CIRCLE
5
115
100
AcDbEntity
8
0
100
AcDbCircle
10
-134.80785280403276
20
-46
30
0
40
1.7499999999999893
210
6.1629758220391547e-33
220
1.7581828593019154e-80
230
1
0
CIRCLE
5
116
100
AcDbEntity
8
0
100
AcDbCircle
10
-166.80785280403279
20
-14.000000000000004
30
0
40
1.7500000000000071
210
-1.5407439555097887e-32
220
-4.3954571482547884e-80
230
1
0
CIRCLE
5
117
100
AcDbEntity
8
0
100
AcDbCircle
10
99.192147195967223
20
-130
30
0
40
1.7499999999999893
210
6.1629758220391547e-33
220
1.7581828593019154e-80
230
1
0
CIRCLE
5
118
100
AcDbEntity
8
0
100
AcDbCircle
10
-220.80816757051741
20
-129.99999984175929
30
0
40
1.7499999999999716
210
-3.0814879110195774e-33
220
-8.7909142965095752e-81
230
1
0
CIRCLE
5
119
100
AcDbEntity
8
0
100
AcDbCircle
10
-220.80785280403273
20
329.5
30
0
40
1.7500000000000071
210
-1.5407439555097887e-32
220
-4.3954571482547884e-80
230
1
0
ENDSEC
0
SECTION
2
OBJECTS
0
DICTIONARY
5
C
100
AcDbDictionary
3
ACAD_GROUP
350
D
3
ACAD_MLINESTYLE
350
17
0
DICTIONARY
5
D
100
AcDbDictionary
0
DICTIONARY
5
1A
330
C
100
AcDbDictionary
0
DICTIONARY
5
17
100
AcDbDictionary
0
ENDSEC
0
EOF
