  0
SECTION
  2
HEADER
  9
$ACADVER
  1
AC1009
  9
$INSBASE
 10
0.0
 20
0.0
 30
0.0
  9
$EXTMIN
 10
0.0
 20
0.0
 30
0.0
  9
$EXTMAX
 10
0.0
 20
0.0
 30
0.0
  0
ENDSEC
  0
SECTION
  2
TABLES
  0
TABLE
  2
VPORT
 70
0
  0
ENDTAB
  0
TABLE
  2
LTYPE
 70
1
  0
LTYPE
  2
CONTINUOUS
 70
0
  3
Solid line
 72
65
 73
0
 40
0.0
  0
ENDTAB
  0
TABLE
  2
LAYER
 70
1
  0
LAYER
  2
0
 70
64
 62
7
  6
continuous
  0
ENDTAB
  0
TABLE
  2
STYLE
 70
1
  0
STYLE
  2
STANDARD
 70
0
 40
0
 41
1.0
 50
0.0
 71
0
 42
1
 3
ARIAL.TTF
 4

  0
ENDTAB
  0
TABLE
  2
VIEW
 70
0
  0
ENDTAB
  0
ENDSEC
  0
SECTION
  2
BLOCKS
  0
BLOCK
  8
0
  2
PART__FEATURE
 70
0
 10
0.0
 20
0.0
 30
0.0
  3
PART__FEATURE
  0
CIRCLE
  8
0
 62
0
 10
184.820508076
 20
-157.5
 30
0.0
 40
3.5
  0
CIRCLE
  8
0
 62
0
 10
-200.179491924
 20
-157.5
 30
0.0
 40
3.5
  0
CIRCLE
  8
0
 62
0
 10
184.820508076
 20
217.5
 30
0.0
 40
3.5
  0
CIRCLE
  8
0
 62
0
 10
-200.179491924
 20
217.5
 30
0.0
 40
3.5
  0
CIRCLE
  8
0
 62
0
 10
-152.679491924
 20
-102.999998301
 30
0.0
 40
1.75
  0
CIRCLE
  8
0
 62
0
 10
-152.679491924
 20
7.00000169873
 30
0.0
 40
1.75
  0
CIRCLE
  8
0
 62
0
 10
-37.6794919243
 20
7.00000169873
 30
0.0
 40
1.75
  0
CIRCLE
  8
0
 62
0
 10
-37.6794919243
 20
-10.9999983013
 30
0.0
 40
1.75
  0
CIRCLE
  8
0
 62
0
 10
-152.679491924
 20
-10.9999983013
 30
0.0
 40
1.75
  0
CIRCLE
  8
0
 62
0
 10
-152.679491924
 20
99.0000016987
 30
0.0
 40
1.75
  0
CIRCLE
  8
0
 62
0
 10
-37.6794919243
 20
99.0000016987
 30
0.0
 40
1.75
  0
CIRCLE
  8
0
 62
0
 10
-37.6794919243
 20
-102.999998301
 30
0.0
 40
1.75
  0
CIRCLE
  8
0
 62
0
 10
-101.000001341
 20
124.000001699
 30
0.0
 40
12.7
  0
ARC
  8
0
 62
0
 10
187.320508076
 20
-160.0
 30
0.0
 40
5.0
 50
-90.0
 51
0.0
  0
LINE
  8
0
 62
0
 10
187.320508076
 20
-165.0
 30
0.0
 11
-202.679491924
 21
-165.0
 31
0.0
  0
LINE
  8
0
 62
0
 10
192.320508076
 20
220.0
 30
0.0
 11
192.320508076
 21
-160.0
 31
0.0
  0
ARC
  8
0
 62
0
 10
187.320508076
 20
220.0
 30
0.0
 40
5.0
 50
-0.0
 51
90.0
  0
LINE
  8
0
 62
0
 10
-202.679491924
 20
225.0
 30
0.0
 11
187.320508076
 21
225.0
 31
0.0
  0
ARC
  8
0
 62
0
 10
-202.679491924
 20
220.0
 30
0.0
 40
5.0
 50
90.0
 51
-180.0
  0
LINE
  8
0
 62
0
 10
-207.679491924
 20
-160.0
 30
0.0
 11
-207.679491924
 21
220.0
 31
0.0
  0
ARC
  8
0
 62
0
 10
-202.679491924
 20
-160.0
 30
0.0
 40
5.0
 50
180.0
 51
-90.0
  0
CIRCLE
  8
0
 62
0
 10
150.0
 20
-130.0
 30
0.0
 40
1.75
  0
CIRCLE
  8
0
 62
0
 10
149.507
 20
130.0
 30
0.0
 40
1.75
  0
CIRCLE
  8
0
 62
0
 10
-170.0
 20
130.0
 30
0.0
 40
1.75
  0
CIRCLE
  8
0
 62
0
 10
-170.0
 20
-130.0
 30
0.0
 40
1.75
  0
CIRCLE
  8
0
 62
0
 10
184.820508076
 20
-120.0
 30
0.0
 40
1.75
  0
CIRCLE
  8
0
 62
0
 10
-157.679491924
 20
217.5
 30
0.0
 40
1.75
  0
CIRCLE
  8
0
 62
0
 10
-200.179491924
 20
180.0
 30
0.0
 40
1.75
  0
CIRCLE
  8
0
 62
0
 10
42.3205080757
 20
-157.5
 30
0.0
 40
1.75
  0
CIRCLE
  8
0
 62
0
 10
-200.179491924
 20
-120.0
 30
0.0
 40
1.75
  0
CIRCLE
  8
0
 62
0
 10
42.3205080757
 20
217.5
 30
0.0
 40
1.75
  0
CIRCLE
  8
0
 62
0
 10
-200.179491924
 20
80.0
 30
0.0
 40
1.75
  0
CIRCLE
  8
0
 62
0
 10
-57.6794919243
 20
-157.5
 30
0.0
 40
1.75
  0
CIRCLE
  8
0
 62
0
 10
184.820508076
 20
-20.0
 30
0.0
 40
1.75
  0
CIRCLE
  8
0
 62
0
 10
-57.6794919243
 20
217.5
 30
0.0
 40
1.75
  0
CIRCLE
  8
0
 62
0
 10
-200.179491924
 20
-20.0
 30
0.0
 40
1.75
  0
CIRCLE
  8
0
 62
0
 10
-157.679491924
 20
-157.5
 30
0.0
 40
1.75
  0
CIRCLE
  8
0
 62
0
 10
184.820508076
 20
80.0
 30
0.0
 40
1.75
  0
CIRCLE
  8
0
 62
0
 10
142.320508076
 20
217.5
 30
0.0
 40
1.75
  0
CIRCLE
  8
0
 62
0
 10
184.820508076
 20
180.0
 30
0.0
 40
1.75
  0
CIRCLE
  8
0
 62
0
 10
142.320508076
 20
-157.5
 30
0.0
 40
1.75
  0
ENDBLK
  0
ENDSEC
  0
SECTION
  2
ENTITIES
  0
INSERT
  2
PART__FEATURE
  8
0
 62
0
 10
0.0
 20
0.0
 30
0.0
  0
ENDSEC
  0
EOF
