  0
SECTION
  2
HEADER
  9
$ACADVER
  1
AC1009
  9
$INSBASE
 10
0.0
 20
0.0
 30
0.0
  9
$EXTMIN
 10
0.0
 20
0.0
 30
0.0
  9
$EXTMAX
 10
0.0
 20
0.0
 30
0.0
  0
ENDSEC
  0
SECTION
  2
TABLES
  0
TABLE
  2
VPORT
 70
0
  0
ENDTAB
  0
TABLE
  2
LTYPE
 70
1
  0
LTYPE
  2
CONTINUOUS
 70
0
  3
Solid line
 72
65
 73
0
 40
0.0
  0
ENDTAB
  0
TABLE
  2
LAYER
 70
1
  0
LAYER
  2
0
 70
64
 62
7
  6
continuous
  0
ENDTAB
  0
TABLE
  2
STYLE
 70
1
  0
STYLE
  2
STANDARD
 70
0
 40
0
 41
1.0
 50
0.0
 71
0
 42
1
 3
ARIAL.TTF
 4

  0
ENDTAB
  0
TABLE
  2
VIEW
 70
0
  0
ENDTAB
  0
ENDSEC
  0
SECTION
  2
BLOCKS
  0
BLOCK
  8
0
  2
PART__FEATURE
 70
0
 10
0.0
 20
0.0
 30
0.0
  3
PART__FEATURE
  0
LINE
  8
0
 62
0
 10
185.0
 20
-187.320508076
 30
0.0
 11
185.0
 21
202.679491924
 31
0.0
  0
ARC
  8
0
 62
0
 10
180.0
 20
202.679491924
 30
0.0
 40
5.0
 50
-0.0
 51
90.0
  0
LINE
  8
0
 62
0
 10
-240.0
 20
207.679491924
 30
0.0
 11
180.0
 21
207.679491924
 31
0.0
  0
ARC
  8
0
 62
0
 10
-240.0
 20
202.679491924
 30
0.0
 40
5.0
 50
90.0
 51
-180.0
  0
CIRCLE
  8
0
 62
0
 10
-210.047893938
 20
-104.575884299
 30
0.0
 40
12.0
  0
CIRCLE
  8
0
 62
0
 10
134.469710187
 20
-17.5464674381
 30
0.0
 40
1.4224
  0
CIRCLE
  8
0
 62
0
 10
-209.976051115
 20
100.467142797
 30
0.0
 40
12.0
  0
CIRCLE
  8
0
 62
0
 10
-225.554234866
 20
-89.0942350648
 30
0.0
 40
1.4224
  0
CIRCLE
  8
0
 62
0
 10
-225.482392043
 20
84.9854935627
 30
0.0
 40
1.4224
  0
CIRCLE
  8
0
 62
0
 10
149.976051115
 20
-2.06481820356
 30
0.0
 40
12.0
  0
CIRCLE
  8
0
 62
0
 10
-225.45770035
 20
115.973483725
 30
0.0
 40
1.4224
  0
CIRCLE
  8
0
 62
0
 10
-194.566244704
 20
-89.0695433712
 30
0.0
 40
1.4224
  0
CIRCLE
  8
0
 62
0
 10
165.482392043
 20
13.416831031
 30
0.0
 40
1.4224
  0
CIRCLE
  8
0
 62
0
 10
134.494401881
 20
13.4415227246
 30
0.0
 40
1.4224
  0
CIRCLE
  8
0
 62
0
 10
-194.54155301
 20
-120.057533534
 30
0.0
 40
1.4224
  0
CIRCLE
  8
0
 62
0
 10
-194.469710187
 20
115.948792032
 30
0.0
 40
1.4224
  0
CIRCLE
  8
0
 62
0
 10
165.45770035
 20
-17.5711591317
 30
0.0
 40
1.4224
  0
CIRCLE
  8
0
 62
0
 10
-194.494401881
 20
84.9608018691
 30
0.0
 40
1.4224
  0
CIRCLE
  8
0
 62
0
 10
-225.529543173
 20
-120.082225227
 30
0.0
 40
1.4224
  0
LINE
  8
0
 62
0
 10
-245.0
 20
202.679491924
 30
0.0
 11
-245.0
 21
-187.320508076
 31
0.0
  0
ARC
  8
0
 62
0
 10
-240.0
 20
-187.320508076
 30
0.0
 40
5.0
 50
180.0
 51
-90.0
  0
LINE
  8
0
 62
0
 10
180.0
 20
-192.320508076
 30
0.0
 11
-240.0
 21
-192.320508076
 31
0.0
  0
ARC
  8
0
 62
0
 10
180.0
 20
-187.320508076
 30
0.0
 40
5.0
 50
-90.0
 51
0.0
  0
CIRCLE
  8
0
 62
0
 10
-237.5
 20
-42.3205080757
 30
0.0
 40
1.75
  0
CIRCLE
  8
0
 62
0
 10
177.5
 20
57.6794919243
 30
0.0
 40
1.75
  0
CIRCLE
  8
0
 62
0
 10
177.5
 20
157.679491924
 30
0.0
 40
1.75
  0
CIRCLE
  8
0
 62
0
 10
-195.0
 20
-184.820631726
 30
0.0
 40
1.75
  0
CIRCLE
  8
0
 62
0
 10
-237.5
 20
57.6794919243
 30
0.0
 40
1.75
  0
CIRCLE
  8
0
 62
0
 10
177.5
 20
-42.3205080757
 30
0.0
 40
1.75
  0
CIRCLE
  8
0
 62
0
 10
135.0
 20
200.179491924
 30
0.0
 40
1.75
  0
CIRCLE
  8
0
 62
0
 10
-93.3333333333
 20
-184.820508076
 30
0.0
 40
1.75
  0
CIRCLE
  8
0
 62
0
 10
-237.5
 20
157.679491924
 30
0.0
 40
1.75
  0
CIRCLE
  8
0
 62
0
 10
177.5
 20
-142.320508076
 30
0.0
 40
1.75
  0
CIRCLE
  8
0
 62
0
 10
33.3333333333
 20
200.179491924
 30
0.0
 40
1.75
  0
CIRCLE
  8
0
 62
0
 10
-237.490023024
 20
-142.32035662
 30
0.0
 40
1.75
  0
CIRCLE
  8
0
 62
0
 10
-195.032618977
 20
200.187584165
 30
0.0
 40
1.75
  0
CIRCLE
  8
0
 62
0
 10
135.0
 20
-184.820508076
 30
0.0
 40
1.75
  0
CIRCLE
  8
0
 62
0
 10
-93.3333333333
 20
200.179491924
 30
0.0
 40
1.75
  0
CIRCLE
  8
0
 62
0
 10
33.3333333333
 20
-184.820508076
 30
0.0
 40
1.75
  0
ENDBLK
  0
ENDSEC
  0
SECTION
  2
ENTITIES
  0
INSERT
  2
PART__FEATURE
  8
0
 62
0
 10
0.0
 20
0.0
 30
0.0
  0
ENDSEC
  0
EOF
