  0
SECTION
  2
HEADER
  9
$ACADVER
  1
AC1009
  9
$EXTMAX
 10
185.0
 20
225.0
 30
0.0
  9
$EXTMIN
 10
-245.0
 20
-165.0
 30
0.0
  9
$INSUNITS
 70
     4
  9
$LUNITS
 70
     2
  9
$LUPREC
 70
     4
  9
$MEASUREMENT
 70
     1
  0
ENDSEC
  0
SECTION
  2
TABLES
  0
TABLE
  2
LAYER
 70
     1
  0
LAYER
  2
0
 70
     0
 62
     7
  6
Continuous
  0
LAYER
  2
Front_v1
 70
     0
 62
   254
  6
Continuous
  0
ENDTAB
  0
TABLE
  2
APPID
 70
     1
  0
APPID
  2
ACAD
 70
     0
  0
ENDTAB
  0
ENDSEC
  0
SECTION
  2
ENTITIES
  0
CIRCLE
  8
Front_v1
 10
-237.499999999991
 20
-157.499999999997
 30
198.670508075687
 40
3.5
  0
LINE
  8
Front_v1
 10
-233.999999999991
 20
-157.499999999997
 30
198.670508075687
 11
-233.999999999991
 21
-157.499999999997
 31
192.320508075686
  0
CIRCLE
  8
Front_v1
 10
-237.499999999991
 20
-157.499999999997
 30
192.320508075686
 40
3.5
  0
CIRCLE
  8
Front_v1
 10
177.5
 20
-157.499999999997
 30
198.670508075668
 40
3.5
  0
LINE
  8
Front_v1
 10
181.0
 20
-157.499999999997
 30
198.670508075667
 11
181.0
 21
-157.499999999997
 31
192.320508075667
  0
CIRCLE
  8
Front_v1
 10
177.5
 20
-157.499999999997
 30
192.320508075667
 40
3.5
  0
CIRCLE
  8
Front_v1
 10
-237.499999999991
 20
217.499999999998
 30
198.670508075691
 40
3.5
  0
LINE
  8
Front_v1
 10
-233.999999999991
 20
217.499999999998
 30
198.670508075691
 11
-233.999999999991
 21
217.499999999998
 31
192.32050807569
  0
CIRCLE
  8
Front_v1
 10
-237.499999999991
 20
217.499999999998
 30
192.320508075691
 40
3.5
  0
CIRCLE
  8
Front_v1
 10
177.5
 20
217.499999999998
 30
198.670508075672
 40
3.5
  0
LINE
  8
Front_v1
 10
181.0
 20
217.499999999998
 30
198.670508075672
 11
181.0
 21
217.499999999998
 31
192.320508075671
  0
CIRCLE
  8
Front_v1
 10
177.5
 20
217.499999999998
 30
192.320508075672
 40
3.5
  0
ARC
  8
Front_v1
 10
-239.999999999991
 20
-159.999999999997
 30
198.670508075687
 40
5.0
 50
180.0
 51
270.0
  0
LINE
  8
Front_v1
 10
-239.999999999991
 20
-164.999999999997
 30
198.670508075687
 11
180.0
 21
-164.999999999997
 31
198.670508075667
  0
ARC
  8
Front_v1
 10
180.0
 20
-159.999999999997
 30
198.670508075667
 40
5.0
 50
270.0
 51
360.0
  0
LINE
  8
Front_v1
 10
185.0
 20
-159.999999999997
 30
198.670508075667
 11
185.0
 21
219.999999999998
 31
198.670508075672
  0
ARC
  8
Front_v1
 10
180.0
 20
219.999999999998
 30
198.670508075672
 40
5.0
 50
360.0
 51
450.0
  0
LINE
  8
Front_v1
 10
180.0
 20
224.999999999998
 30
198.670508075672
 11
-239.999999999991
 21
224.999999999998
 31
198.670508075692
  0
ARC
  8
Front_v1
 10
-239.999999999991
 20
219.999999999998
 30
198.670508075692
 40
5.0
 50
89.9999999999997
 51
180.0
  0
LINE
  8
Front_v1
 10
-244.999999999991
 20
219.999999999998
 30
198.670508075692
 11
-244.999999999991
 21
-159.999999999997
 31
198.670508075687
  0
LINE
  8
Front_v1
 10
150.000000000007
 20
190.440999999998
 30
198.670508075673
 11
150.000000000002
 21
-120.441000000002
 31
198.670508075669
  0
ARC
  8
Front_v1
 10
140.441000000002
 20
-120.441000000002
 30
198.67050807567
 40
9.559
 50
270.0
 51
360.0
  0
LINE
  8
Front_v1
 10
140.441000000002
 20
-130.000000000002
 30
198.67050807567
 11
-200.44099999999
 21
-130.000000000002
 31
198.670508075686
  0
ARC
  8
Front_v1
 10
-200.44099999999
 20
-120.441000000002
 30
198.670508075686
 40
9.559
 50
180.0
 51
270.0
  0
LINE
  8
Front_v1
 10
-209.99999999999
 20
-120.441000000002
 30
198.670508075686
 11
-209.99999999999
 21
190.440999999999
 31
198.67050807569
  0
ARC
  8
Front_v1
 10
-200.44099999999
 20
190.440999999999
 30
198.670508075689
 40
9.559
 50
90.0000000000002
 51
180.0
  0
LINE
  8
Front_v1
 10
-200.44099999999
 20
199.999999999999
 30
198.67050807569
 11
140.441000000007
 21
199.999999999999
 31
198.670508075673
  0
ARC
  8
Front_v1
 10
140.441000000007
 20
190.440999999999
 30
198.670508075673
 40
9.559
 50
-0.000000000006
 51
90.0000000000002
  0
CIRCLE
  8
Front_v1
 10
-237.5
 20
-114.999999999997
 30
198.670508075686
 40
1.75
  0
CIRCLE
  8
Front_v1
 10
177.5
 20
30.0000000000004
 30
198.67050807567
 40
1.75
  0
CIRCLE
  8
Front_v1
 10
-237.5
 20
94.9999999999982
 30
198.670508075689
 40
1.75
  0
CIRCLE
  8
Front_v1
 10
177.5
 20
174.999999999998
 30
198.670508075671
 40
1.75
  0
CIRCLE
  8
Front_v1
 10
-237.5
 20
30.0000000000004
 30
198.670508075688
 40
1.75
  0
CIRCLE
  8
Front_v1
 10
177.5
 20
-34.9999999999975
 30
198.670508075669
 40
1.75
  0
CIRCLE
  8
Front_v1
 10
177.5
 20
-114.999999999997
 30
198.670508075668
 40
1.75
  0
CIRCLE
  8
Front_v1
 10
-237.5
 20
-34.9999999999975
 30
198.670508075687
 40
1.75
  0
CIRCLE
  8
Front_v1
 10
177.5
 20
94.9999999999982
 30
198.670508075671
 40
1.75
  0
CIRCLE
  8
Front_v1
 10
-237.5
 20
174.999999999998
 30
198.670508075689
 40
1.75
  0
CIRCLE
  8
Front_v1
 10
29.9703838798437
 20
-157.500000000002
 30
198.670508075674
 40
1.7500000000001
  0
CIRCLE
  8
Front_v1
 10
-195.029616120156
 20
217.499999999998
 30
198.670508075688
 40
1.75
  0
CIRCLE
  8
Front_v1
 10
-95.0296161201563
 20
-157.500000000002
 30
198.670508075679
 40
1.75
  0
CIRCLE
  8
Front_v1
 10
129.970383879844
 20
-157.500000000002
 30
198.67050807567
 40
1.75
  0
CIRCLE
  8
Front_v1
 10
-90.0296161201563
 20
217.499999999998
 30
198.670508075684
 40
1.75
  0
CIRCLE
  8
Front_v1
 10
-195.029616120156
 20
-157.500000000002
 30
198.670508075684
 40
1.75
  0
CIRCLE
  8
Front_v1
 10
29.9703838798437
 20
217.499999999998
 30
198.670508075679
 40
1.7500000000001
  0
CIRCLE
  8
Front_v1
 10
129.970383879844
 20
217.499999999998
 30
198.670508075674
 40
1.75
  0
LINE
  8
Front_v1
 10
-244.999999999991
 20
-159.999999999997
 30
198.670508075687
 11
-244.999999999991
 21
-159.999999999997
 31
192.320508075687
  0
ARC
  8
Front_v1
 10
-239.999999999991
 20
-159.999999999997
 30
192.320508075687
 40
5.0
 50
180.0
 51
270.0
  0
LINE
  8
Front_v1
 10
-239.999999999991
 20
-164.999999999997
 30
192.320508075687
 11
-239.999999999991
 21
-164.999999999997
 31
198.670508075687
  0
LINE
  8
Front_v1
 10
-239.999999999991
 20
-164.999999999997
 30
192.320508075687
 11
180.0
 21
-164.999999999997
 31
192.320508075667
  0
LINE
  8
Front_v1
 10
180.0
 20
-164.999999999997
 30
192.320508075667
 11
180.0
 21
-164.999999999997
 31
198.670508075667
  0
LINE
  8
Front_v1
 10
-244.999999999991
 20
-159.999999999997
 30
192.320508075687
 11
-244.999999999991
 21
219.999999999998
 31
192.320508075691
  0
ARC
  8
Front_v1
 10
-239.999999999991
 20
219.999999999998
 30
192.320508075691
 40
5.0
 50
89.9999999999997
 51
180.0
  0
LINE
  8
Front_v1
 10
-239.999999999991
 20
224.999999999998
 30
192.320508075691
 11
180.0
 21
224.999999999998
 31
192.320508075672
  0
ARC
  8
Front_v1
 10
180.0
 20
219.999999999998
 30
192.320508075672
 40
5.0
 50
0.0000000000002
 51
89.9999999999997
  0
LINE
  8
Front_v1
 10
185.0
 20
219.999999999998
 30
192.320508075671
 11
185.0
 21
-159.999999999997
 31
192.320508075667
  0
ARC
  8
Front_v1
 10
180.0
 20
-159.999999999997
 30
192.320508075667
 40
5.0
 50
270.0
 51
360.0
  0
LINE
  8
Front_v1
 10
140.441000000007
 20
199.999999999999
 30
192.320508075673
 11
-200.440999999991
 21
199.999999999999
 31
192.320508075689
  0
ARC
  8
Front_v1
 10
-200.440999999991
 20
190.440999999999
 30
192.320508075689
 40
9.559
 50
90.0
 51
180.0
  0
LINE
  8
Front_v1
 10
-209.999999999991
 20
190.440999999999
 30
192.32050807569
 11
-209.999999999991
 21
-120.441000000002
 31
192.320508075686
  0
ARC
  8
Front_v1
 10
-200.440999999991
 20
-120.441000000002
 30
192.320508075686
 40
9.559
 50
180.0
 51
270.0
  0
LINE
  8
Front_v1
 10
-200.440999999991
 20
-130.000000000002
 30
192.320508075685
 11
140.441000000001
 21
-130.000000000002
 31
192.320508075669
  0
ARC
  8
Front_v1
 10
140.441000000001
 20
-120.441000000002
 30
192.320508075669
 40
9.559
 50
270.0
 51
360.0
  0
LINE
  8
Front_v1
 10
150.000000000001
 20
-120.441000000002
 30
192.320508075669
 11
150.000000000007
 21
190.440999999998
 31
192.320508075673
  0
ARC
  8
Front_v1
 10
140.441000000007
 20
190.440999999999
 30
192.320508075673
 40
9.559
 50
-0.000000000006
 51
90.0
  0
CIRCLE
  8
Front_v1
 10
-237.5
 20
-114.999999999997
 30
192.320508075686
 40
1.75
  0
CIRCLE
  8
Front_v1
 10
177.5
 20
30.0000000000004
 30
192.32050807567
 40
1.75
  0
CIRCLE
  8
Front_v1
 10
-237.5
 20
94.9999999999983
 30
192.320508075688
 40
1.75
  0
CIRCLE
  8
Front_v1
 10
177.5
 20
174.999999999998
 30
192.320508075671
 40
1.75
  0
CIRCLE
  8
Front_v1
 10
-237.5
 20
30.0000000000004
 30
192.320508075688
 40
1.75
  0
CIRCLE
  8
Front_v1
 10
177.5
 20
-34.9999999999974
 30
192.320508075669
 40
1.75
  0
CIRCLE
  8
Front_v1
 10
177.5
 20
-114.999999999997
 30
192.320508075668
 40
1.75
  0
CIRCLE
  8
Front_v1
 10
-237.5
 20
-34.9999999999974
 30
192.320508075687
 40
1.75
  0
CIRCLE
  8
Front_v1
 10
177.5
 20
94.9999999999983
 30
192.32050807567
 40
1.75
  0
CIRCLE
  8
Front_v1
 10
-237.5
 20
174.999999999998
 30
192.320508075689
 40
1.75
  0
CIRCLE
  8
Front_v1
 10
29.9703838798434
 20
-157.500000000002
 30
192.320508075674
 40
1.7500000000001
  0
CIRCLE
  8
Front_v1
 10
-195.029616120157
 20
217.499999999998
 30
192.320508075688
 40
1.75
  0
CIRCLE
  8
Front_v1
 10
-95.0296161201566
 20
-157.500000000002
 30
192.320508075679
 40
1.75
  0
CIRCLE
  8
Front_v1
 10
129.970383879843
 20
-157.500000000002
 30
192.320508075669
 40
1.75
  0
CIRCLE
  8
Front_v1
 10
-90.0296161201566
 20
217.499999999998
 30
192.320508075683
 40
1.75
  0
CIRCLE
  8
Front_v1
 10
-195.029616120157
 20
-157.500000000002
 30
192.320508075684
 40
1.75
  0
CIRCLE
  8
Front_v1
 10
29.9703838798434
 20
217.499999999998
 30
192.320508075679
 40
1.7500000000001
  0
CIRCLE
  8
Front_v1
 10
129.970383879843
 20
217.499999999998
 30
192.320508075674
 40
1.75
  0
LINE
  8
Front_v1
 10
-239.999999999991
 20
224.999999999998
 30
198.670508075692
 11
-239.999999999991
 21
224.999999999998
 31
192.320508075691
  0
LINE
  8
Front_v1
 10
-244.999999999991
 20
219.999999999998
 30
192.320508075691
 11
-244.999999999991
 21
219.999999999998
 31
198.670508075692
  0
LINE
  8
Front_v1
 10
180.0
 20
224.999999999998
 30
198.670508075672
 11
180.0
 21
224.999999999998
 31
192.320508075672
  0
LINE
  8
Front_v1
 10
185.0
 20
219.999999999998
 30
198.670508075672
 11
185.0
 21
219.999999999998
 31
192.320508075671
  0
LINE
  8
Front_v1
 10
185.0
 20
-159.999999999997
 30
192.320508075667
 11
185.0
 21
-159.999999999997
 31
198.670508075667
  0
LINE
  8
Front_v1
 10
140.441000000007
 20
199.999999999999
 30
198.670508075673
 11
140.441000000007
 21
199.999999999999
 31
192.320508075673
  0
LINE
  8
Front_v1
 10
150.000000000007
 20
190.440999999998
 30
192.320508075673
 11
150.000000000007
 21
190.440999999998
 31
198.670508075673
  0
LINE
  8
Front_v1
 10
-200.44099999999
 20
199.999999999999
 30
198.67050807569
 11
-200.440999999991
 21
199.999999999999
 31
192.320508075689
  0
LINE
  8
Front_v1
 10
-209.99999999999
 20
190.440999999999
 30
198.67050807569
 11
-209.999999999991
 21
190.440999999999
 31
192.32050807569
  0
LINE
  8
Front_v1
 10
-209.99999999999
 20
-120.441000000002
 30
198.670508075686
 11
-209.999999999991
 21
-120.441000000002
 31
192.320508075686
  0
LINE
  8
Front_v1
 10
150.000000000001
 20
-120.441000000002
 30
192.320508075669
 11
150.000000000002
 21
-120.441000000002
 31
198.670508075669
  0
LINE
  8
Front_v1
 10
140.441000000001
 20
-130.000000000002
 30
192.320508075669
 11
140.441000000002
 21
-130.000000000002
 31
198.67050807567
  0
LINE
  8
Front_v1
 10
-200.440999999991
 20
-130.000000000002
 30
192.320508075685
 11
-200.44099999999
 21
-130.000000000002
 31
198.670508075686
  0
LINE
  8
Front_v1
 10
-239.25
 20
-114.999999999997
 30
198.670508075686
 11
-239.25
 21
-114.999999999997
 31
192.320508075686
  0
LINE
  8
Front_v1
 10
175.75
 20
30.0000000000004
 30
198.67050807567
 11
175.75
 21
30.0000000000004
 31
192.32050807567
  0
LINE
  8
Front_v1
 10
-239.25
 20
94.9999999999982
 30
198.670508075689
 11
-239.25
 21
94.9999999999983
 31
192.320508075689
  0
LINE
  8
Front_v1
 10
175.75
 20
174.999999999998
 30
198.670508075672
 11
175.75
 21
174.999999999998
 31
192.320508075671
  0
LINE
  8
Front_v1
 10
-239.25
 20
30.0000000000004
 30
198.670508075688
 11
-239.25
 21
30.0000000000004
 31
192.320508075688
  0
LINE
  8
Front_v1
 10
175.75
 20
-34.9999999999975
 30
198.670508075669
 11
175.75
 21
-34.9999999999974
 31
192.320508075669
  0
LINE
  8
Front_v1
 10
175.75
 20
-114.999999999997
 30
198.670508075668
 11
175.75
 21
-114.999999999997
 31
192.320508075668
  0
LINE
  8
Front_v1
 10
-239.25
 20
-34.9999999999975
 30
198.670508075687
 11
-239.25
 21
-34.9999999999974
 31
192.320508075687
  0
LINE
  8
Front_v1
 10
175.75
 20
94.9999999999982
 30
198.670508075671
 11
175.75
 21
94.9999999999983
 31
192.320508075671
  0
LINE
  8
Front_v1
 10
-239.25
 20
174.999999999998
 30
198.670508075689
 11
-239.25
 21
174.999999999998
 31
192.320508075689
  0
LINE
  8
Front_v1
 10
31.7203838798435
 20
-157.500000000002
 30
192.320508075674
 11
31.7203838798438
 21
-157.500000000002
 31
198.670508075674
  0
LINE
  8
Front_v1
 10
-193.279616120157
 20
217.499999999998
 30
192.320508075688
 11
-193.279616120156
 21
217.499999999998
 31
198.670508075688
  0
LINE
  8
Front_v1
 10
-93.2796161201566
 20
-157.500000000002
 30
192.320508075679
 11
-93.2796161201563
 21
-157.500000000002
 31
198.670508075679
  0
LINE
  8
Front_v1
 10
131.720383879843
 20
-157.500000000002
 30
192.320508075669
 11
131.720383879844
 21
-157.500000000002
 31
198.67050807567
  0
LINE
  8
Front_v1
 10
-88.2796161201566
 20
217.499999999998
 30
192.320508075683
 11
-88.2796161201563
 21
217.499999999998
 31
198.670508075684
  0
LINE
  8
Front_v1
 10
-193.279616120157
 20
-157.500000000002
 30
192.320508075684
 11
-193.279616120156
 21
-157.500000000002
 31
198.670508075684
  0
LINE
  8
Front_v1
 10
31.7203838798435
 20
217.499999999998
 30
192.320508075679
 11
31.7203838798438
 21
217.499999999998
 31
198.670508075679
  0
LINE
  8
Front_v1
 10
131.720383879843
 20
217.499999999998
 30
192.320508075674
 11
131.720383879844
 21
217.499999999998
 31
198.670508075674
  0
ENDSEC
  0
EOF
