  0
SECTION
  2
HEADER
  9
$ACADVER
  1
AC1009
  9
$EXTMAX
 10
174.97038269043
 20
225.0
 30
0.0
  9
$EXTMIN
 10
-255.0
 20
-165.0
 30
0.0
  9
$INSUNITS
 70
     4
  9
$LUNITS
 70
     2
  9
$LUPREC
 70
     4
  9
$MEASUREMENT
 70
     1
  0
ENDSEC
  0
SECTION
  2
TABLES
  0
TABLE
  2
LAYER
 70
     1
  0
LAYER
  2
0
 70
     0
 62
     7
  6
Continuous
  0
LAYER
  2
Back_v1
 70
     0
 62
   254
  6
Continuous
  0
ENDTAB
  0
TABLE
  2
APPID
 70
     1
  0
APPID
  2
ACAD
 70
     0
  0
ENDTAB
  0
ENDSEC
  0
SECTION
  2
ENTITIES
  0
CIRCLE
  8
Back_v1
 10
-247.500000000006
 20
-157.499999999997
 30
-207.329491924289
 40
3.5
  0
LINE
  8
Back_v1
 10
-244.000000000006
 20
-157.499999999997
 30
-207.329491924289
 11
-244.000000000006
 21
-157.499999999997
 31
-213.679491924288
  0
CIRCLE
  8
Back_v1
 10
-247.500000000006
 20
-157.499999999997
 30
-213.679491924288
 40
3.5
  0
CIRCLE
  8
Back_v1
 10
-247.500000000006
 20
217.500000000002
 30
-207.329491924285
 40
3.5
  0
LINE
  8
Back_v1
 10
-244.000000000006
 20
217.500000000002
 30
-207.329491924285
 11
-244.000000000006
 21
217.500000000002
 31
-213.679491924285
  0
CIRCLE
  8
Back_v1
 10
-247.500000000006
 20
217.500000000002
 30
-213.679491924284
 40
3.5
  0
CIRCLE
  8
Back_v1
 10
167.470383879825
 20
-157.499999999997
 30
-207.32949192431
 40
3.5
  0
LINE
  8
Back_v1
 10
170.970383879825
 20
-157.499999999997
 30
-207.329491924311
 11
170.970383879824
 21
-157.499999999997
 31
-213.67949192431
  0
CIRCLE
  8
Back_v1
 10
167.470383879824
 20
-157.499999999997
 30
-213.679491924309
 40
3.5
  0
CIRCLE
  8
Back_v1
 10
167.470383879825
 20
217.500000000002
 30
-207.329491924306
 40
3.5
  0
LINE
  8
Back_v1
 10
170.970383879825
 20
217.500000000002
 30
-207.329491924307
 11
170.970383879824
 21
217.500000000002
 31
-213.679491924306
  0
CIRCLE
  8
Back_v1
 10
167.470383879824
 20
217.500000000002
 30
-213.679491924306
 40
3.5
  0
ARC
  8
Back_v1
 10
169.970383879825
 20
220.000000000002
 30
-207.329491924306
 40
5.0
 50
360.0
 51
450.0
  0
LINE
  8
Back_v1
 10
169.970383879825
 20
225.000000000002
 30
-207.329491924306
 11
-250.000000000006
 21
225.000000000002
 31
-207.329491924285
  0
ARC
  8
Back_v1
 10
-250.000000000006
 20
220.000000000002
 30
-207.329491924286
 40
5.0
 50
89.9999999999994
 51
180.0
  0
LINE
  8
Back_v1
 10
-255.000000000006
 20
220.000000000002
 30
-207.329491924285
 11
-255.000000000006
 21
-159.999999999997
 31
-207.329491924289
  0
ARC
  8
Back_v1
 10
-250.000000000006
 20
-159.999999999997
 30
-207.32949192429
 40
5.0
 50
180.0
 51
270.0
  0
LINE
  8
Back_v1
 10
-250.000000000006
 20
-164.999999999997
 30
-207.329491924289
 11
169.970383879825
 21
-164.999999999997
 31
-207.329491924311
  0
ARC
  8
Back_v1
 10
169.970383879825
 20
-159.999999999997
 30
-207.32949192431
 40
5.0
 50
270.0
 51
360.0
  0
LINE
  8
Back_v1
 10
174.970383879825
 20
-159.999999999997
 30
-207.329491924311
 11
174.970383879825
 21
220.000000000002
 31
-207.329491924307
  0
CIRCLE
  8
Back_v1
 10
29.9703838798245
 20
-157.499999999997
 30
-207.329491924303
 40
1.75
  0
CIRCLE
  8
Back_v1
 10
-195.029616120175
 20
217.500000000003
 30
-207.329491924289
 40
1.75
  0
CIRCLE
  8
Back_v1
 10
167.470383879825
 20
180.000000000002
 30
-207.329491924306
 40
1.75
  0
CIRCLE
  8
Back_v1
 10
-85.0296161201755
 20
-157.499999999997
 30
-207.329491924299
 40
1.75
  0
CIRCLE
  8
Back_v1
 10
129.970383879825
 20
-157.499999999997
 30
-207.329491924308
 40
1.75
  0
CIRCLE
  8
Back_v1
 10
-85.0296161201755
 20
217.500000000003
 30
-207.329491924294
 40
1.75
  0
CIRCLE
  8
Back_v1
 10
-247.529616120175
 20
180.000000000002
 30
-207.329491924287
 40
1.75
  0
CIRCLE
  8
Back_v1
 10
-195.029616120175
 20
-157.499999999997
 30
-207.329491924294
 40
1.75
  0
CIRCLE
  8
Back_v1
 10
167.470383879825
 20
-119.999999999998
 30
-207.32949192431
 40
1.75
  0
CIRCLE
  8
Back_v1
 10
29.9703838798245
 20
217.500000000003
 30
-207.329491924299
 40
1.75
  0
CIRCLE
  8
Back_v1
 10
-247.529616120175
 20
80.0000000000023
 30
-207.329491924289
 40
1.75
  0
CIRCLE
  8
Back_v1
 10
-247.529616120175
 20
-119.999999999998
 30
-207.329491924291
 40
1.75
  0
CIRCLE
  8
Back_v1
 10
167.470383879825
 20
-19.9999999999977
 30
-207.329491924308
 40
1.75
  0
CIRCLE
  8
Back_v1
 10
129.970383879825
 20
217.500000000003
 30
-207.329491924304
 40
1.75
  0
CIRCLE
  8
Back_v1
 10
167.470383879825
 20
80.0000000000023
 30
-207.329491924307
 40
1.75
  0
CIRCLE
  8
Back_v1
 10
-247.529616120175
 20
-19.9999999999977
 30
-207.32949192429
 40
1.75
  0
ARC
  8
Back_v1
 10
169.970383879824
 20
220.000000000002
 30
-213.679491924305
 40
5.0
 50
360.0
 51
450.0
  0
LINE
  8
Back_v1
 10
169.970383879824
 20
225.000000000002
 30
-213.679491924305
 11
169.970383879825
 21
225.000000000002
 31
-207.329491924306
  0
LINE
  8
Back_v1
 10
174.970383879825
 20
220.000000000002
 30
-207.329491924307
 11
174.970383879824
 21
220.000000000002
 31
-213.679491924305
  0
LINE
  8
Back_v1
 10
174.970383879825
 20
-159.999999999997
 30
-207.329491924311
 11
174.970383879824
 21
-159.999999999997
 31
-213.679491924309
  0
LINE
  8
Back_v1
 10
174.970383879824
 20
-159.999999999997
 30
-213.679491924309
 11
174.970383879824
 21
220.000000000002
 31
-213.679491924305
  0
ARC
  8
Back_v1
 10
-250.000000000006
 20
-159.999999999997
 30
-213.679491924289
 40
5.0
 50
180.0
 51
270.0
  0
LINE
  8
Back_v1
 10
-250.000000000006
 20
-164.999999999997
 30
-213.679491924289
 11
-250.000000000006
 21
-164.999999999997
 31
-207.329491924289
  0
LINE
  8
Back_v1
 10
-255.000000000006
 20
-159.999999999997
 30
-207.329491924289
 11
-255.000000000006
 21
-159.999999999997
 31
-213.679491924289
  0
LINE
  8
Back_v1
 10
-250.000000000006
 20
-164.999999999997
 30
-213.679491924289
 11
169.970383879824
 21
-164.999999999997
 31
-213.679491924309
  0
LINE
  8
Back_v1
 10
169.970383879824
 20
-164.999999999997
 30
-213.679491924309
 11
169.970383879825
 21
-164.999999999997
 31
-207.329491924311
  0
ARC
  8
Back_v1
 10
169.970383879824
 20
-159.999999999997
 30
-213.679491924309
 40
5.0
 50
270.0
 51
360.0
  0
ARC
  8
Back_v1
 10
-250.000000000006
 20
220.000000000002
 30
-213.679491924285
 40
5.0
 50
89.9999999999996
 51
180.0
  0
LINE
  8
Back_v1
 10
-255.000000000006
 20
220.000000000002
 30
-213.679491924284
 11
-255.000000000006
 21
220.000000000002
 31
-207.329491924285
  0
LINE
  8
Back_v1
 10
-250.000000000006
 20
225.000000000002
 30
-207.329491924285
 11
-250.000000000006
 21
225.000000000002
 31
-213.679491924285
  0
LINE
  8
Back_v1
 10
-255.000000000006
 20
220.000000000002
 30
-213.679491924284
 11
-255.000000000006
 21
-159.999999999997
 31
-213.679491924289
  0
CIRCLE
  8
Back_v1
 10
29.9703838798242
 20
-157.499999999997
 30
-213.679491924302
 40
1.75
  0
LINE
  8
Back_v1
 10
31.7203838798242
 20
-157.499999999997
 30
-213.679491924303
 11
31.7203838798245
 21
-157.499999999997
 31
-207.329491924304
  0
CIRCLE
  8
Back_v1
 10
-195.029616120176
 20
217.500000000003
 30
-213.679491924289
 40
1.75
  0
LINE
  8
Back_v1
 10
-193.279616120176
 20
217.500000000003
 30
-213.679491924289
 11
-193.279616120175
 21
217.500000000003
 31
-207.32949192429
  0
CIRCLE
  8
Back_v1
 10
167.470383879824
 20
180.000000000002
 30
-213.679491924305
 40
1.75
  0
LINE
  8
Back_v1
 10
169.220383879824
 20
180.000000000002
 30
-213.679491924305
 11
169.220383879825
 21
180.000000000002
 31
-207.329491924306
  0
CIRCLE
  8
Back_v1
 10
-85.0296161201758
 20
-157.499999999997
 30
-213.679491924298
 40
1.75
  0
LINE
  8
Back_v1
 10
-83.2796161201758
 20
-157.499999999997
 30
-213.679491924298
 11
-83.2796161201755
 21
-157.499999999997
 31
-207.329491924299
  0
CIRCLE
  8
Back_v1
 10
129.970383879824
 20
-157.499999999997
 30
-213.679491924307
 40
1.75
  0
LINE
  8
Back_v1
 10
131.720383879824
 20
-157.499999999997
 30
-213.679491924307
 11
131.720383879825
 21
-157.499999999997
 31
-207.329491924308
  0
CIRCLE
  8
Back_v1
 10
-85.0296161201758
 20
217.500000000003
 30
-213.679491924293
 40
1.75
  0
LINE
  8
Back_v1
 10
-83.2796161201758
 20
217.500000000003
 30
-213.679491924293
 11
-83.2796161201755
 21
217.500000000003
 31
-207.329491924294
  0
CIRCLE
  8
Back_v1
 10
-247.529616120176
 20
180.000000000002
 30
-213.679491924286
 40
1.75
  0
LINE
  8
Back_v1
 10
-245.779616120176
 20
180.000000000002
 30
-213.679491924287
 11
-245.779616120175
 21
180.000000000002
 31
-207.329491924288
  0
CIRCLE
  8
Back_v1
 10
-195.029616120176
 20
-157.499999999997
 30
-213.679491924293
 40
1.75
  0
LINE
  8
Back_v1
 10
-193.279616120176
 20
-157.499999999997
 30
-213.679491924293
 11
-193.279616120175
 21
-157.499999999997
 31
-207.329491924294
  0
CIRCLE
  8
Back_v1
 10
167.470383879824
 20
-119.999999999998
 30
-213.679491924309
 40
1.75
  0
LINE
  8
Back_v1
 10
169.220383879824
 20
-119.999999999998
 30
-213.679491924309
 11
169.220383879825
 21
-119.999999999998
 31
-207.32949192431
  0
CIRCLE
  8
Back_v1
 10
29.9703838798242
 20
217.500000000003
 30
-213.679491924298
 40
1.75
  0
LINE
  8
Back_v1
 10
31.7203838798242
 20
217.500000000003
 30
-213.679491924298
 11
31.7203838798245
 21
217.500000000003
 31
-207.329491924299
  0
CIRCLE
  8
Back_v1
 10
-247.529616120176
 20
80.0000000000023
 30
-213.679491924288
 40
1.75
  0
LINE
  8
Back_v1
 10
-245.779616120176
 20
80.0000000000023
 30
-213.679491924288
 11
-245.779616120175
 21
80.0000000000023
 31
-207.329491924289
  0
CIRCLE
  8
Back_v1
 10
-247.529616120176
 20
-119.999999999998
 30
-213.67949192429
 40
1.75
  0
LINE
  8
Back_v1
 10
-245.779616120176
 20
-119.999999999998
 30
-213.67949192429
 11
-245.779616120175
 21
-119.999999999998
 31
-207.329491924291
  0
CIRCLE
  8
Back_v1
 10
167.470383879824
 20
-19.9999999999976
 30
-213.679491924307
 40
1.75
  0
LINE
  8
Back_v1
 10
169.220383879824
 20
-19.9999999999976
 30
-213.679491924307
 11
169.220383879825
 21
-19.9999999999977
 31
-207.329491924308
  0
CIRCLE
  8
Back_v1
 10
129.970383879824
 20
217.500000000003
 30
-213.679491924303
 40
1.75
  0
LINE
  8
Back_v1
 10
131.720383879824
 20
217.500000000003
 30
-213.679491924303
 11
131.720383879825
 21
217.500000000003
 31
-207.329491924304
  0
CIRCLE
  8
Back_v1
 10
167.470383879824
 20
80.0000000000023
 30
-213.679491924306
 40
1.75
  0
LINE
  8
Back_v1
 10
169.220383879824
 20
80.0000000000023
 30
-213.679491924306
 11
169.220383879825
 21
80.0000000000023
 31
-207.329491924307
  0
CIRCLE
  8
Back_v1
 10
-247.529616120176
 20
-19.9999999999976
 30
-213.679491924289
 40
1.75
  0
LINE
  8
Back_v1
 10
-245.779616120176
 20
-19.9999999999976
 30
-213.679491924289
 11
-245.779616120175
 21
-19.9999999999977
 31
-207.32949192429
  0
LINE
  8
Back_v1
 10
169.970383879824
 20
225.000000000002
 30
-213.679491924305
 11
-250.000000000006
 21
225.000000000002
 31
-213.679491924285
  0
ENDSEC
  0
EOF
