  0
SECTION
  2
BLOCKS
  0
ENDSEC
  0
SECTION
  2
ENTITIES
  0
LINE
  8
0
 10
0
 20
-238.902
 11
59
 21
-238.902
  0
LINE
  8
0
 10
59
 20
-238.902
 11
59
 21
0
  0
LINE
  8
0
 10
59
 20
0
 11
0
 21
0
  0
LINE
  8
0
 10
0
 20
0
 11
0
 21
-238.902
  0
LINE
  8
0
 10
12.7638
 20
-234.622
 11
12.7638
 21
-234.183
  0
LINE
  8
0
 10
12.7638
 20
-234.183
 11
12.8729
 21
-233.758
  0
LINE
  8
0
 10
12.8729
 20
-233.758
 11
13.0842
 21
-233.374
  0
LINE
  8
0
 10
13.0842
 20
-233.374
 11
13.3845
 21
-233.054
  0
LINE
  8
0
 10
13.3845
 20
-233.054
 11
13.7549
 21
-232.819
  0
LINE
  8
0
 10
13.7549
 20
-232.819
 11
14.1721
 21
-232.683
  0
LINE
  8
0
 10
14.1721
 20
-232.683
 11
14.6099
 21
-232.656
  0
LINE
  8
0
 10
14.6099
 20
-232.656
 11
15.0408
 21
-232.738
  0
LINE
  8
0
 10
15.0408
 20
-232.738
 11
15.4377
 21
-232.925
  0
LINE
  8
0
 10
15.4377
 20
-232.925
 11
15.7757
 21
-233.204
  0
LINE
  8
0
 10
15.7757
 20
-233.204
 11
16.0335
 21
-233.559
  0
LINE
  8
0
 10
16.0335
 20
-233.559
 11
16.195
 21
-233.967
  0
LINE
  8
0
 10
16.195
 20
-233.967
 11
16.25
 21
-234.402
  0
LINE
  8
0
 10
16.25
 20
-234.402
 11
16.195
 21
-234.838
  0
LINE
  8
0
 10
16.195
 20
-234.838
 11
16.0335
 21
-235.245
  0
LINE
  8
0
 10
16.0335
 20
-235.245
 11
15.7757
 21
-235.6
  0
LINE
  8
0
 10
15.7757
 20
-235.6
 11
15.4377
 21
-235.88
  0
LINE
  8
0
 10
15.4377
 20
-235.88
 11
15.0408
 21
-236.067
  0
LINE
  8
0
 10
15.0408
 20
-236.067
 11
14.6099
 21
-236.149
  0
LINE
  8
0
 10
14.6099
 20
-236.149
 11
14.1721
 21
-236.121
  0
LINE
  8
0
 10
14.1721
 20
-236.121
 11
13.7549
 21
-235.986
  0
LINE
  8
0
 10
13.7549
 20
-235.986
 11
13.3845
 21
-235.751
  0
LINE
  8
0
 10
13.3845
 20
-235.751
 11
13.0842
 21
-235.431
  0
LINE
  8
0
 10
13.0842
 20
-235.431
 11
12.8729
 21
-235.047
  0
LINE
  8
0
 10
12.8729
 20
-235.047
 11
12.7638
 21
-234.622
  0
LINE
  8
0
 10
12.7638
 20
-4.71933
 11
12.7638
 21
-4.28067
  0
LINE
  8
0
 10
12.7638
 20
-4.28067
 11
12.8729
 21
-3.85578
  0
LINE
  8
0
 10
12.8729
 20
-3.85578
 11
13.0842
 21
-3.47137
  0
LINE
  8
0
 10
13.0842
 20
-3.47137
 11
13.3845
 21
-3.1516
  0
LINE
  8
0
 10
13.3845
 20
-3.1516
 11
13.7549
 21
-2.91655
  0
LINE
  8
0
 10
13.7549
 20
-2.91655
 11
14.1721
 21
-2.781
  0
LINE
  8
0
 10
14.1721
 20
-2.781
 11
14.6099
 21
-2.75345
  0
LINE
  8
0
 10
14.6099
 20
-2.75345
 11
15.0408
 21
-2.83565
  0
LINE
  8
0
 10
15.0408
 20
-2.83565
 11
15.4377
 21
-3.02242
  0
LINE
  8
0
 10
15.4377
 20
-3.02242
 11
15.7757
 21
-3.30204
  0
LINE
  8
0
 10
15.7757
 20
-3.30204
 11
16.0335
 21
-3.65693
  0
LINE
  8
0
 10
16.0335
 20
-3.65693
 11
16.195
 21
-4.06479
  0
LINE
  8
0
 10
16.195
 20
-4.06479
 11
16.25
 21
-4.5
  0
LINE
  8
0
 10
16.25
 20
-4.5
 11
16.195
 21
-4.93521
  0
LINE
  8
0
 10
16.195
 20
-4.93521
 11
16.0335
 21
-5.34307
  0
LINE
  8
0
 10
16.0335
 20
-5.34307
 11
15.7757
 21
-5.69796
  0
LINE
  8
0
 10
15.7757
 20
-5.69796
 11
15.4377
 21
-5.97757
  0
LINE
  8
0
 10
15.4377
 20
-5.97757
 11
15.0408
 21
-6.16435
  0
LINE
  8
0
 10
15.0408
 20
-6.16435
 11
14.6099
 21
-6.24655
  0
LINE
  8
0
 10
14.6099
 20
-6.24655
 11
14.1721
 21
-6.219
  0
LINE
  8
0
 10
14.1721
 20
-6.219
 11
13.7549
 21
-6.08345
  0
LINE
  8
0
 10
13.7549
 20
-6.08345
 11
13.3845
 21
-5.8484
  0
LINE
  8
0
 10
13.3845
 20
-5.8484
 11
13.0842
 21
-5.52862
  0
LINE
  8
0
 10
13.0842
 20
-5.52862
 11
12.8729
 21
-5.14422
  0
LINE
  8
0
 10
12.8729
 20
-5.14422
 11
12.7638
 21
-4.71933
  0
LINE
  8
0
 10
42.7638
 20
-234.622
 11
42.7638
 21
-234.183
  0
LINE
  8
0
 10
42.7638
 20
-234.183
 11
42.8729
 21
-233.758
  0
LINE
  8
0
 10
42.8729
 20
-233.758
 11
43.0842
 21
-233.374
  0
LINE
  8
0
 10
43.0842
 20
-233.374
 11
43.3845
 21
-233.054
  0
LINE
  8
0
 10
43.3845
 20
-233.054
 11
43.7549
 21
-232.819
  0
LINE
  8
0
 10
43.7549
 20
-232.819
 11
44.1721
 21
-232.683
  0
LINE
  8
0
 10
44.1721
 20
-232.683
 11
44.6099
 21
-232.656
  0
LINE
  8
0
 10
44.6099
 20
-232.656
 11
45.0408
 21
-232.738
  0
LINE
  8
0
 10
45.0408
 20
-232.738
 11
45.4377
 21
-232.925
  0
LINE
  8
0
 10
45.4377
 20
-232.925
 11
45.7757
 21
-233.204
  0
LINE
  8
0
 10
45.7757
 20
-233.204
 11
46.0335
 21
-233.559
  0
LINE
  8
0
 10
46.0335
 20
-233.559
 11
46.195
 21
-233.967
  0
LINE
  8
0
 10
46.195
 20
-233.967
 11
46.25
 21
-234.402
  0
LINE
  8
0
 10
46.25
 20
-234.402
 11
46.195
 21
-234.838
  0
LINE
  8
0
 10
46.195
 20
-234.838
 11
46.0335
 21
-235.245
  0
LINE
  8
0
 10
46.0335
 20
-235.245
 11
45.7757
 21
-235.6
  0
LINE
  8
0
 10
45.7757
 20
-235.6
 11
45.4377
 21
-235.88
  0
LINE
  8
0
 10
45.4377
 20
-235.88
 11
45.0408
 21
-236.067
  0
LINE
  8
0
 10
45.0408
 20
-236.067
 11
44.6099
 21
-236.149
  0
LINE
  8
0
 10
44.6099
 20
-236.149
 11
44.1721
 21
-236.121
  0
LINE
  8
0
 10
44.1721
 20
-236.121
 11
43.7549
 21
-235.986
  0
LINE
  8
0
 10
43.7549
 20
-235.986
 11
43.3845
 21
-235.751
  0
LINE
  8
0
 10
43.3845
 20
-235.751
 11
43.0842
 21
-235.431
  0
LINE
  8
0
 10
43.0842
 20
-235.431
 11
42.8729
 21
-235.047
  0
LINE
  8
0
 10
42.8729
 20
-235.047
 11
42.7638
 21
-234.622
  0
LINE
  8
0
 10
42.7638
 20
-4.71933
 11
42.7638
 21
-4.28067
  0
LINE
  8
0
 10
42.7638
 20
-4.28067
 11
42.8729
 21
-3.85578
  0
LINE
  8
0
 10
42.8729
 20
-3.85578
 11
43.0842
 21
-3.47137
  0
LINE
  8
0
 10
43.0842
 20
-3.47137
 11
43.3845
 21
-3.1516
  0
LINE
  8
0
 10
43.3845
 20
-3.1516
 11
43.7549
 21
-2.91655
  0
LINE
  8
0
 10
43.7549
 20
-2.91655
 11
44.1721
 21
-2.781
  0
LINE
  8
0
 10
44.1721
 20
-2.781
 11
44.6099
 21
-2.75345
  0
LINE
  8
0
 10
44.6099
 20
-2.75345
 11
45.0408
 21
-2.83565
  0
LINE
  8
0
 10
45.0408
 20
-2.83565
 11
45.4377
 21
-3.02242
  0
LINE
  8
0
 10
45.4377
 20
-3.02242
 11
45.7757
 21
-3.30204
  0
LINE
  8
0
 10
45.7757
 20
-3.30204
 11
46.0335
 21
-3.65693
  0
LINE
  8
0
 10
46.0335
 20
-3.65693
 11
46.195
 21
-4.06479
  0
LINE
  8
0
 10
46.195
 20
-4.06479
 11
46.25
 21
-4.5
  0
LINE
  8
0
 10
46.25
 20
-4.5
 11
46.195
 21
-4.93521
  0
LINE
  8
0
 10
46.195
 20
-4.93521
 11
46.0335
 21
-5.34307
  0
LINE
  8
0
 10
46.0335
 20
-5.34307
 11
45.7757
 21
-5.69796
  0
LINE
  8
0
 10
45.7757
 20
-5.69796
 11
45.4377
 21
-5.97757
  0
LINE
  8
0
 10
45.4377
 20
-5.97757
 11
45.0408
 21
-6.16435
  0
LINE
  8
0
 10
45.0408
 20
-6.16435
 11
44.6099
 21
-6.24655
  0
LINE
  8
0
 10
44.6099
 20
-6.24655
 11
44.1721
 21
-6.219
  0
LINE
  8
0
 10
44.1721
 20
-6.219
 11
43.7549
 21
-6.08345
  0
LINE
  8
0
 10
43.7549
 20
-6.08345
 11
43.3845
 21
-5.8484
  0
LINE
  8
0
 10
43.3845
 20
-5.8484
 11
43.0842
 21
-5.52862
  0
LINE
  8
0
 10
43.0842
 20
-5.52862
 11
42.8729
 21
-5.14422
  0
LINE
  8
0
 10
42.8729
 20
-5.14422
 11
42.7638
 21
-4.71933
  0
ENDSEC
  0
SECTION
  2
OBJECTS
  0
DICTIONARY
  0
ENDSEC
  0
EOF
