  0
SECTION
  2
HEADER
  9
$ACADVER
  1
AC1009
  9
$INSBASE
 10
0.0
 20
0.0
 30
0.0
  9
$EXTMIN
 10
0.0
 20
0.0
 30
0.0
  9
$EXTMAX
 10
0.0
 20
0.0
 30
0.0
  0
ENDSEC
  0
SECTION
  2
TABLES
  0
TABLE
  2
VPORT
 70
0
  0
ENDTAB
  0
TABLE
  2
LTYPE
 70
1
  0
LTYPE
  2
CONTINUOUS
 70
0
  3
Solid line
 72
65
 73
0
 40
0.0
  0
ENDTAB
  0
TABLE
  2
LAYER
 70
1
  0
LAYER
  2
0
 70
64
 62
7
  6
continuous
  0
ENDTAB
  0
TABLE
  2
STYLE
 70
1
  0
STYLE
  2
STANDARD
 70
0
 40
0
 41
1.0
 50
0.0
 71
0
 42
1
 3
ARIAL.TTF
 4

  0
ENDTAB
  0
TABLE
  2
VIEW
 70
0
  0
ENDTAB
  0
ENDSEC
  0
SECTION
  2
BLOCKS
  0
ENDSEC
  0
SECTION
  2
ENTITIES
  0
POLYLINE
  8
LAYER_1
 62
0
 70
0
 66
1
 10
0.0
 20
0.0
 30
0.0
  0
VERTEX
  8
LAYER_1
 10
4.62148
 20
-10.788051
 30
0.0
  0
VERTEX
  8
LAYER_1
 10
4.62148
 20
-8.465224
 30
0.0
  0
VERTEX
  8
LAYER_1
 10
4.621476
 20
-8.465224
 30
0.0
  0
VERTEX
  8
LAYER_1
 10
0.487579
 20
-8.465224
 30
0.0
  0
VERTEX
  8
LAYER_1
 10
0.487579
 20
-10.04022
 30
0.0
  0
VERTEX
  8
LAYER_1
 10
0.485028
 20
-10.065331
 30
0.0
  0
VERTEX
  8
LAYER_1
 10
0.477717
 20
-10.08876
 30
0.0
  0
VERTEX
  8
LAYER_1
 10
0.466157
 20
-10.109988
 30
0.0
  0
VERTEX
  8
LAYER_1
 10
0.450862
 20
-10.128508
 30
0.0
  0
VERTEX
  8
LAYER_1
 10
0.432343
 20
-10.143803
 30
0.0
  0
VERTEX
  8
LAYER_1
 10
0.411114
 20
-10.155362
 30
0.0
  0
VERTEX
  8
LAYER_1
 10
0.387689
 20
-10.162673
 30
0.0
  0
VERTEX
  8
LAYER_1
 10
0.362579
 20
-10.165224
 30
0.0
  0
VERTEX
  8
LAYER_1
 10
-2.887421
 20
-10.165224
 30
0.0
  0
VERTEX
  8
LAYER_1
 10
-2.912531
 20
-10.162673
 30
0.0
  0
VERTEX
  8
LAYER_1
 10
-2.935957
 20
-10.155362
 30
0.0
  0
VERTEX
  8
LAYER_1
 10
-2.957185
 20
-10.143803
 30
0.0
  0
VERTEX
  8
LAYER_1
 10
-2.975705
 20
-10.128508
 30
0.0
  0
VERTEX
  8
LAYER_1
 10
-2.991
 20
-10.109988
 30
0.0
  0
VERTEX
  8
LAYER_1
 10
-3.002559
 20
-10.08876
 30
0.0
  0
VERTEX
  8
LAYER_1
 10
-3.00987
 20
-10.065331
 30
0.0
  0
VERTEX
  8
LAYER_1
 10
-3.012421
 20
-10.04022
 30
0.0
  0
VERTEX
  8
LAYER_1
 10
-3.012421
 20
-8.465224
 30
0.0
  0
VERTEX
  8
LAYER_1
 10
-3.012417
 20
-8.465224
 30
0.0
  0
VERTEX
  8
LAYER_1
 10
-7.146323
 20
-8.465224
 30
0.0
  0
VERTEX
  8
LAYER_1
 10
-7.146323
 20
-10.788051
 30
0.0
  0
SEQEND
  8
LAYER_1
  0
POLYLINE
  8
LAYER_1
 62
0
 70
1
 66
1
 10
0.0
 20
0.0
 30
0.0
  0
VERTEX
  8
LAYER_1
 10
4.444315
 20
-10.286087
 30
0.0
  0
VERTEX
  8
LAYER_1
 10
4.458201
 20
-10.284685
 30
0.0
  0
VERTEX
  8
LAYER_1
 10
4.471134
 20
-10.280673
 30
0.0
  0
VERTEX
  8
LAYER_1
 10
4.482835
 20
-10.274319
 30
0.0
  0
VERTEX
  8
LAYER_1
 10
4.493031
 20
-10.265906
 30
0.0
  0
VERTEX
  8
LAYER_1
 10
4.501445
 20
-10.255709
 30
0.0
  0
VERTEX
  8
LAYER_1
 10
4.507799
 20
-10.244004
 30
0.0
  0
VERTEX
  8
LAYER_1
 10
4.511811
 20
-10.231075
 30
0.0
  0
VERTEX
  8
LAYER_1
 10
4.513213
 20
-10.217189
 30
0.0
  0
VERTEX
  8
LAYER_1
 10
4.511811
 20
-10.203303
 30
0.0
  0
VERTEX
  8
LAYER_1
 10
4.507799
 20
-10.19037
 30
0.0
  0
VERTEX
  8
LAYER_1
 10
4.501445
 20
-10.178669
 30
0.0
  0
VERTEX
  8
LAYER_1
 10
4.493031
 20
-10.168472
 30
0.0
  0
VERTEX
  8
LAYER_1
 10
4.482835
 20
-10.160059
 30
0.0
  0
VERTEX
  8
LAYER_1
 10
4.471134
 20
-10.153705
 30
0.0
  0
VERTEX
  8
LAYER_1
 10
4.458201
 20
-10.149693
 30
0.0
  0
VERTEX
  8
LAYER_1
 10
4.444315
 20
-10.148291
 30
0.0
  0
VERTEX
  8
LAYER_1
 10
4.430429
 20
-10.149689
 30
0.0
  0
VERTEX
  8
LAYER_1
 10
4.417496
 20
-10.153705
 30
0.0
  0
VERTEX
  8
LAYER_1
 10
4.405795
 20
-10.160055
 30
0.0
  0
VERTEX
  8
LAYER_1
 10
4.395598
 20
-10.168469
 30
0.0
  0
VERTEX
  8
LAYER_1
 10
4.387185
 20
-10.178665
 30
0.0
  0
VERTEX
  8
LAYER_1
 10
4.380831
 20
-10.190366
 30
0.0
  0
VERTEX
  8
LAYER_1
 10
4.376819
 20
-10.203299
 30
0.0
  0
VERTEX
  8
LAYER_1
 10
4.375417
 20
-10.217185
 30
0.0
  0
VERTEX
  8
LAYER_1
 10
4.376819
 20
-10.231071
 30
0.0
  0
VERTEX
  8
LAYER_1
 10
4.380831
 20
-10.244004
 30
0.0
  0
VERTEX
  8
LAYER_1
 10
4.387185
 20
-10.255705
 30
0.0
  0
VERTEX
  8
LAYER_1
 10
4.395598
 20
-10.265902
 30
0.0
  0
VERTEX
  8
LAYER_1
 10
4.405795
 20
-10.274315
 30
0.0
  0
VERTEX
  8
LAYER_1
 10
4.417496
 20
-10.280669
 30
0.0
  0
VERTEX
  8
LAYER_1
 10
4.430429
 20
-10.284681
 30
0.0
  0
VERTEX
  8
LAYER_1
 10
4.444315
 20
-10.286083
 30
0.0
  0
SEQEND
  8
LAYER_1
  0
POLYLINE
  8
LAYER_1
 62
0
 70
1
 66
1
 10
0.0
 20
0.0
 30
0.0
  0
VERTEX
  8
LAYER_1
 10
4.444315
 20
-9.104988
 30
0.0
  0
VERTEX
  8
LAYER_1
 10
4.458201
 20
-9.103587
 30
0.0
  0
VERTEX
  8
LAYER_1
 10
4.471134
 20
-9.099575
 30
0.0
  0
VERTEX
  8
LAYER_1
 10
4.482835
 20
-9.09322
 30
0.0
  0
VERTEX
  8
LAYER_1
 10
4.493031
 20
-9.084807
 30
0.0
  0
VERTEX
  8
LAYER_1
 10
4.501445
 20
-9.07461
 30
0.0
  0
VERTEX
  8
LAYER_1
 10
4.507799
 20
-9.062906
 30
0.0
  0
VERTEX
  8
LAYER_1
 10
4.511811
 20
-9.049976
 30
0.0
  0
VERTEX
  8
LAYER_1
 10
4.513213
 20
-9.036091
 30
0.0
  0
VERTEX
  8
LAYER_1
 10
4.511811
 20
-9.022205
 30
0.0
  0
VERTEX
  8
LAYER_1
 10
4.507799
 20
-9.009272
 30
0.0
  0
VERTEX
  8
LAYER_1
 10
4.501445
 20
-8.997571
 30
0.0
  0
VERTEX
  8
LAYER_1
 10
4.493031
 20
-8.987374
 30
0.0
  0
VERTEX
  8
LAYER_1
 10
4.482835
 20
-8.978961
 30
0.0
  0
VERTEX
  8
LAYER_1
 10
4.471134
 20
-8.972606
 30
0.0
  0
VERTEX
  8
LAYER_1
 10
4.458201
 20
-8.968594
 30
0.0
  0
VERTEX
  8
LAYER_1
 10
4.444315
 20
-8.967193
 30
0.0
  0
VERTEX
  8
LAYER_1
 10
4.430429
 20
-8.968591
 30
0.0
  0
VERTEX
  8
LAYER_1
 10
4.417496
 20
-8.972606
 30
0.0
  0
VERTEX
  8
LAYER_1
 10
4.405795
 20
-8.978957
 30
0.0
  0
VERTEX
  8
LAYER_1
 10
4.395598
 20
-8.98737
 30
0.0
  0
VERTEX
  8
LAYER_1
 10
4.387185
 20
-8.997567
 30
0.0
  0
VERTEX
  8
LAYER_1
 10
4.380831
 20
-9.009268
 30
0.0
  0
VERTEX
  8
LAYER_1
 10
4.376819
 20
-9.022201
 30
0.0
  0
VERTEX
  8
LAYER_1
 10
4.375417
 20
-9.036087
 30
0.0
  0
VERTEX
  8
LAYER_1
 10
4.376819
 20
-9.049972
 30
0.0
  0
VERTEX
  8
LAYER_1
 10
4.380831
 20
-9.062906
 30
0.0
  0
VERTEX
  8
LAYER_1
 10
4.387185
 20
-9.074606
 30
0.0
  0
VERTEX
  8
LAYER_1
 10
4.395598
 20
-9.084803
 30
0.0
  0
VERTEX
  8
LAYER_1
 10
4.405795
 20
-9.093217
 30
0.0
  0
VERTEX
  8
LAYER_1
 10
4.417496
 20
-9.099571
 30
0.0
  0
VERTEX
  8
LAYER_1
 10
4.430429
 20
-9.103583
 30
0.0
  0
VERTEX
  8
LAYER_1
 10
4.444315
 20
-9.104984
 30
0.0
  0
SEQEND
  8
LAYER_1
  0
POLYLINE
  8
LAYER_1
 62
0
 70
1
 66
1
 10
0.0
 20
0.0
 30
0.0
  0
VERTEX
  8
LAYER_1
 10
-6.969157
 20
-10.286083
 30
0.0
  0
VERTEX
  8
LAYER_1
 10
-6.955272
 20
-10.284681
 30
0.0
  0
VERTEX
  8
LAYER_1
 10
-6.942339
 20
-10.280669
 30
0.0
  0
VERTEX
  8
LAYER_1
 10
-6.930638
 20
-10.274315
 30
0.0
  0
VERTEX
  8
LAYER_1
 10
-6.920441
 20
-10.265906
 30
0.0
  0
VERTEX
  8
LAYER_1
 10
-6.912028
 20
-10.255709
 30
0.0
  0
VERTEX
  8
LAYER_1
 10
-6.905673
 20
-10.244004
 30
0.0
  0
VERTEX
  8
LAYER_1
 10
-6.901661
 20
-10.231075
 30
0.0
  0
VERTEX
  8
LAYER_1
 10
-6.90026
 20
-10.217189
 30
0.0
  0
VERTEX
  8
LAYER_1
 10
-6.901661
 20
-10.203303
 30
0.0
  0
VERTEX
  8
LAYER_1
 10
-6.905673
 20
-10.19037
 30
0.0
  0
VERTEX
  8
LAYER_1
 10
-6.912028
 20
-10.178669
 30
0.0
  0
VERTEX
  8
LAYER_1
 10
-6.920441
 20
-10.168472
 30
0.0
  0
VERTEX
  8
LAYER_1
 10
-6.930638
 20
-10.160059
 30
0.0
  0
VERTEX
  8
LAYER_1
 10
-6.942339
 20
-10.153705
 30
0.0
  0
VERTEX
  8
LAYER_1
 10
-6.955272
 20
-10.149693
 30
0.0
  0
VERTEX
  8
LAYER_1
 10
-6.969157
 20
-10.148291
 30
0.0
  0
VERTEX
  8
LAYER_1
 10
-6.983043
 20
-10.149689
 30
0.0
  0
VERTEX
  8
LAYER_1
 10
-6.995976
 20
-10.153705
 30
0.0
  0
VERTEX
  8
LAYER_1
 10
-7.007677
 20
-10.160055
 30
0.0
  0
VERTEX
  8
LAYER_1
 10
-7.017874
 20
-10.168469
 30
0.0
  0
VERTEX
  8
LAYER_1
 10
-7.026287
 20
-10.178665
 30
0.0
  0
VERTEX
  8
LAYER_1
 10
-7.032642
 20
-10.190366
 30
0.0
  0
VERTEX
  8
LAYER_1
 10
-7.036654
 20
-10.203299
 30
0.0
  0
VERTEX
  8
LAYER_1
 10
-7.038055
 20
-10.217185
 30
0.0
  0
VERTEX
  8
LAYER_1
 10
-7.036654
 20
-10.231071
 30
0.0
  0
VERTEX
  8
LAYER_1
 10
-7.032642
 20
-10.244004
 30
0.0
  0
VERTEX
  8
LAYER_1
 10
-7.026287
 20
-10.255705
 30
0.0
  0
VERTEX
  8
LAYER_1
 10
-7.017874
 20
-10.265902
 30
0.0
  0
VERTEX
  8
LAYER_1
 10
-7.007677
 20
-10.274315
 30
0.0
  0
VERTEX
  8
LAYER_1
 10
-6.995976
 20
-10.280669
 30
0.0
  0
VERTEX
  8
LAYER_1
 10
-6.983043
 20
-10.284681
 30
0.0
  0
SEQEND
  8
LAYER_1
  0
POLYLINE
  8
LAYER_1
 62
0
 70
1
 66
1
 10
0.0
 20
0.0
 30
0.0
  0
VERTEX
  8
LAYER_1
 10
-6.969157
 20
-9.104984
 30
0.0
  0
VERTEX
  8
LAYER_1
 10
-6.955272
 20
-9.103583
 30
0.0
  0
VERTEX
  8
LAYER_1
 10
-6.942339
 20
-9.099571
 30
0.0
  0
VERTEX
  8
LAYER_1
 10
-6.930638
 20
-9.093217
 30
0.0
  0
VERTEX
  8
LAYER_1
 10
-6.920441
 20
-9.084807
 30
0.0
  0
VERTEX
  8
LAYER_1
 10
-6.912028
 20
-9.07461
 30
0.0
  0
VERTEX
  8
LAYER_1
 10
-6.905673
 20
-9.062906
 30
0.0
  0
VERTEX
  8
LAYER_1
 10
-6.901661
 20
-9.049976
 30
0.0
  0
VERTEX
  8
LAYER_1
 10
-6.90026
 20
-9.036091
 30
0.0
  0
VERTEX
  8
LAYER_1
 10
-6.901661
 20
-9.022205
 30
0.0
  0
VERTEX
  8
LAYER_1
 10
-6.905673
 20
-9.009272
 30
0.0
  0
VERTEX
  8
LAYER_1
 10
-6.912028
 20
-8.997571
 30
0.0
  0
VERTEX
  8
LAYER_1
 10
-6.920441
 20
-8.987374
 30
0.0
  0
VERTEX
  8
LAYER_1
 10
-6.930638
 20
-8.978961
 30
0.0
  0
VERTEX
  8
LAYER_1
 10
-6.942339
 20
-8.972606
 30
0.0
  0
VERTEX
  8
LAYER_1
 10
-6.955272
 20
-8.968594
 30
0.0
  0
VERTEX
  8
LAYER_1
 10
-6.969157
 20
-8.967193
 30
0.0
  0
VERTEX
  8
LAYER_1
 10
-6.983043
 20
-8.968591
 30
0.0
  0
VERTEX
  8
LAYER_1
 10
-6.995976
 20
-8.972606
 30
0.0
  0
VERTEX
  8
LAYER_1
 10
-7.007677
 20
-8.978957
 30
0.0
  0
VERTEX
  8
LAYER_1
 10
-7.017874
 20
-8.98737
 30
0.0
  0
VERTEX
  8
LAYER_1
 10
-7.026287
 20
-8.997567
 30
0.0
  0
VERTEX
  8
LAYER_1
 10
-7.032642
 20
-9.009268
 30
0.0
  0
VERTEX
  8
LAYER_1
 10
-7.036654
 20
-9.022201
 30
0.0
  0
VERTEX
  8
LAYER_1
 10
-7.038055
 20
-9.036087
 30
0.0
  0
VERTEX
  8
LAYER_1
 10
-7.036654
 20
-9.049972
 30
0.0
  0
VERTEX
  8
LAYER_1
 10
-7.032642
 20
-9.062906
 30
0.0
  0
VERTEX
  8
LAYER_1
 10
-7.026287
 20
-9.074606
 30
0.0
  0
VERTEX
  8
LAYER_1
 10
-7.017874
 20
-9.084803
 30
0.0
  0
VERTEX
  8
LAYER_1
 10
-7.007677
 20
-9.093217
 30
0.0
  0
VERTEX
  8
LAYER_1
 10
-6.995976
 20
-9.099571
 30
0.0
  0
VERTEX
  8
LAYER_1
 10
-6.983043
 20
-9.103583
 30
0.0
  0
SEQEND
  8
LAYER_1
  0
POLYLINE
  8
LAYER_1
 62
0
 70
0
 66
1
 10
0.0
 20
0.0
 30
0.0
  0
VERTEX
  8
LAYER_1
 10
-7.146323
 20
-10.788051
 30
0.0
  0
VERTEX
  8
LAYER_1
 10
4.62148
 20
-10.788051
 30
0.0
  0
SEQEND
  8
LAYER_1
  0
ENDSEC
  0
EOF
