  0
SECTION
  2
HEADER
  9
$ACADVER
  1
AC1015
  9
$ACADMAINTVER
 70
     6
  9
$DWGCODEPAGE
  3
ANSI_1252
  9
$INSBASE
 10
0.0
 20
0.0
 30
0.0
  9
$EXTMIN
 10
0.0
 20
0.0
 30
0.0
  9
$EXTMAX
 10
839.5
 20
648.0
 30
2.0
  9
$LIMMIN
 10
0.0
 20
0.0
  9
$LIMMAX
 10
420.0
 20
297.0
  9
$ORTHOMODE
 70
     0
  9
$REGENMODE
 70
     1
  9
$FILLMODE
 70
     1
  9
$QTEXTMODE
 70
     0
  9
$MIRRTEXT
 70
     1
  9
$LTSCALE
 40
1.0
  9
$ATTMODE
 70
     1
  9
$TEXTSIZE
 40
2.5
  9
$TRACEWID
 40
1.0
  9
$TEXTSTYLE
  7
Standard
  9
$CLAYER
  8
0
  9
$CELTYPE
  6
ByLayer
  9
$CECOLOR
 62
   256
  9
$CELTSCALE
 40
1.0
  9
$DISPSILH
 70
     0
  9
$DIMSCALE
 40
1.0
  9
$DIMASZ
 40
2.5
  9
$DIMEXO
 40
0.625
  9
$DIMDLI
 40
3.75
  9
$DIMRND
 40
0.0
  9
$DIMDLE
 40
0.0
  9
$DIMEXE
 40
1.25
  9
$DIMTP
 40
0.0
  9
$DIMTM
 40
0.0
  9
$DIMTXT
 40
2.5
  9
$DIMCEN
 40
2.5
  9
$DIMTSZ
 40
0.0
  9
$DIMTOL
 70
     0
  9
$DIMLIM
 70
     0
  9
$DIMTIH
 70
     0
  9
$DIMTOH
 70
     0
  9
$DIMSE1
 70
     0
  9
$DIMSE2
 70
     0
  9
$DIMTAD
 70
     1
  9
$DIMZIN
 70
     8
  9
$DIMBLK
  1

  9
$DIMASO
 70
     1
  9
$DIMSHO
 70
     1
  9
$DIMPOST
  1

  9
$DIMAPOST
  1

  9
$DIMALT
 70
     0
  9
$DIMALTD
 70
     3
  9
$DIMALTF
 40
0.03937
  9
$DIMLFAC
 40
1.0
  9
$DIMTOFL
 70
     1
  9
$DIMTVP
 40
0.0
  9
$DIMTIX
 70
     0
  9
$DIMSOXD
 70
     0
  9
$DIMSAH
 70
     0
  9
$DIMBLK1
  1

  9
$DIMBLK2
  1

  9
$DIMSTYLE
  2
Standard
  9
$DIMCLRD
 70
     0
  9
$DIMCLRE
 70
     0
  9
$DIMCLRT
 70
     0
  9
$DIMTFAC
 40
1.0
  9
$DIMGAP
 40
0.625
  9
$DIMJUST
 70
     0
  9
$DIMSD1
 70
     0
  9
$DIMSD2
 70
     0
  9
$DIMTOLJ
 70
     0
  9
$DIMTZIN
 70
     8
  9
$DIMALTZ
 70
     0
  9
$DIMALTTZ
 70
     0
  9
$DIMUPT
 70
     0
  9
$DIMDEC
 70
     2
  9
$DIMTDEC
 70
     2
  9
$DIMALTU
 70
     2
  9
$DIMALTTD
 70
     3
  9
$DIMTXSTY
  7
Standard
  9
$DIMAUNIT
 70
     0
  9
$DIMADEC
 70
     0
  9
$DIMALTRND
 40
0.0
  9
$DIMAZIN
 70
     0
  9
$DIMDSEP
 70
    44
  9
$DIMATFIT
 70
     0
  9
$DIMFRAC
 70
     0
  9
$DIMLDRBLK
  1

  9
$DIMLUNIT
 70
     2
  9
$DIMLWD
 70
    -2
  9
$DIMLWE
 70
    -2
  9
$DIMTMOVE
 70
     0
  9
$LUNITS
 70
     2
  9
$LUPREC
 70
     4
  9
$SKETCHINC
 40
1.0
  9
$FILLETRAD
 40
2.5
  9
$AUNITS
 70
     0
  9
$AUPREC
 70
     0
  9
$MENU
  1
.
  9
$ELEVATION
 40
0.0
  9
$PELEVATION
 40
0.0
  9
$THICKNESS
 40
0.0
  9
$LIMCHECK
 70
     0
  9
$CHAMFERA
 40
2.5
  9
$CHAMFERB
 40
2.5
  9
$CHAMFERC
 40
0.0
  9
$CHAMFERD
 40
0.0
  9
$SKPOLY
 70
     0
  9
$TDCREATE
 40
2447893.333333333
  9
$TDUCREATE
 40
0.0
  9
$TDUPDATE
 40
2458723.756774838
  9
$TDUUPDATE
 40
2458723.423441505
  9
$TDINDWG
 40
0.0
  9
$TDUSRTIMER
 40
0.0
  9
$USRTIMER
 70
     1
  9
$ANGBASE
 50
0.0
  9
$ANGDIR
 70
     0
  9
$PDMODE
 70
     0
  9
$PDSIZE
 40
0.0
  9
$PLINEWID
 40
0.0
  9
$SPLFRAME
 70
     0
  9
$SPLINETYPE
 70
     6
  9
$SPLINESEGS
 70
     8
  9
$HANDSEED
  5
268
  9
$SURFTAB1
 70
     6
  9
$SURFTAB2
 70
     6
  9
$SURFTYPE
 70
     6
  9
$SURFU
 70
     6
  9
$SURFV
 70
     6
  9
$UCSBASE
  2

  9
$UCSNAME
  2

  9
$UCSORG
 10
0.0
 20
0.0
 30
0.0
  9
$UCSXDIR
 10
1.0
 20
0.0
 30
0.0
  9
$UCSYDIR
 10
0.0
 20
1.0
 30
0.0
  9
$UCSORTHOREF
  2

  9
$UCSORTHOVIEW
 70
     1
  9
$UCSORGTOP
 10
0.0
 20
0.0
 30
0.0
  9
$UCSORGBOTTOM
 10
0.0
 20
0.0
 30
0.0
  9
$UCSORGLEFT
 10
0.0
 20
0.0
 30
0.0
  9
$UCSORGRIGHT
 10
0.0
 20
0.0
 30
0.0
  9
$UCSORGFRONT
 10
0.0
 20
0.0
 30
0.0
  9
$UCSORGBACK
 10
0.0
 20
0.0
 30
0.0
  9
$PUCSBASE
  2

  9
$PUCSNAME
  2

  9
$PUCSORG
 10
0.0
 20
0.0
 30
0.0
  9
$PUCSXDIR
 10
1.0
 20
0.0
 30
0.0
  9
$PUCSYDIR
 10
0.0
 20
1.0
 30
0.0
  9
$PUCSORTHOREF
  2

  9
$PUCSORTHOVIEW
 70
     0
  9
$PUCSORGTOP
 10
0.0
 20
0.0
 30
0.0
  9
$PUCSORGBOTTOM
 10
0.0
 20
0.0
 30
0.0
  9
$PUCSORGLEFT
 10
0.0
 20
0.0
 30
0.0
  9
$PUCSORGRIGHT
 10
0.0
 20
0.0
 30
0.0
  9
$PUCSORGFRONT
 10
0.0
 20
0.0
 30
0.0
  9
$PUCSORGBACK
 10
0.0
 20
0.0
 30
0.0
  9
$USERI1
 70
     0
  9
$USERI2
 70
     0
  9
$USERI3
 70
     0
  9
$USERI4
 70
     0
  9
$USERI5
 70
     0
  9
$USERR1
 40
0.0
  9
$USERR2
 40
0.0
  9
$USERR3
 40
0.0
  9
$USERR4
 40
0.0
  9
$USERR5
 40
0.0
  9
$WORLDVIEW
 70
     1
  9
$SHADEDGE
 70
     3
  9
$SHADEDIF
 70
    70
  9
$TILEMODE
 70
     1
  9
$MAXACTVP
 70
    64
  9
$PINSBASE
 10
0.0
 20
0.0
 30
0.0
  9
$PLIMCHECK
 70
     0
  9
$PEXTMIN
 10
0.0
 20
0.0
 30
0.0
  9
$PEXTMAX
 10
839.5
 20
648.0
 30
2.0
  9
$PLIMMIN
 10
0.0
 20
0.0
  9
$PLIMMAX
 10
420.0
 20
297.0
  9
$UNITMODE
 70
     0
  9
$VISRETAIN
 70
     0
  9
$PLINEGEN
 70
     0
  9
$PSLTSCALE
 70
     1
  9
$TREEDEPTH
 70
  3020
  9
$CMLSTYLE
  2
Standard
  9
$CMLJUST
 70
     0
  9
$CMLSCALE
 40
20.0
  9
$PROXYGRAPHICS
 70
     1
  9
$MEASUREMENT
 70
     1
  9
$CELWEIGHT
370
    -1
  9
$ENDCAPS
280
     0
  9
$JOINSTYLE
280
     0
  9
$LWDISPLAY
290
     0
  9
$INSUNITS
 70
     0
  9
$HYPERLINKBASE
  1

  9
$STYLESHEET
  1

  9
$XEDIT
290
     1
  9
$CEPSNTYPE
380
     0
  9
$PSTYLEMODE
290
     0
  9
$FINGERPRINTGUID
  2
{99E46A78-E5C3-4CF1-AB10-9998E8818A2C}
  9
$VERSIONGUID
  2
{FAEB1C32-E019-11D5-929B-00C0DF256EC4}
  9
$EXTNAMES
290
     1
  9
$PSVPSCALE
 40
0.0
  9
$OLESTARTUP
290
     0
  0
ENDSEC
  0
SECTION
  2
CLASSES
  0
CLASS
  1
ACDBDICTIONARYWDFLT
  2
AcDbDictionaryWithDefault
  3
ObjectDBX Classes
 90
        0
280
     0
281
     0
  0
CLASS
  1
VISUALSTYLE
  2
AcDbVisualStyle
  3
ObjectDBX Classes
 90
     4095
280
     0
281
     0
  0
CLASS
  1
MATERIAL
  2
AcDbMaterial
  3
ObjectDBX Classes
 90
     1153
280
     0
281
     0
  0
CLASS
  1
SCALE
  2
AcDbScale
  3
ObjectDBX Classes
 90
     1153
280
     0
281
     0
  0
CLASS
  1
SUN
  2
AcDbSun
  3
SCENEOE
 90
     1153
280
     0
281
     0
  0
CLASS
  1
ACDBPLACEHOLDER
  2
AcDbPlaceHolder
  3
ObjectDBX Classes
 90
        0
280
     0
281
     0
  0
CLASS
  1
LAYOUT
  2
AcDbLayout
  3
ObjectDBX Classes
 90
        0
280
     0
281
     0
  0
ENDSEC
  0
SECTION
  2
TABLES
  0
TABLE
  2
VPORT
  5
8
330
0
100
AcDbSymbolTable
 70
     1
  0
VPORT
  5
29
330
8
100
AcDbSymbolTableRecord
100
AcDbViewportTableRecord
  2
*Active
 70
     0
 10
0.0
 20
0.0
 11
1.0
 21
1.0
 12
10.429907
 22
4.5
 13
0.0
 23
0.0
 14
0.5
 24
0.5
 15
0.5
 25
0.5
 16
0.0
 26
0.0
 36
1.0
 17
0.0
 27
0.0
 37
0.0
 40
9.0
 41
1.972973
 42
50.0
 43
0.0
 44
0.0
 50
0.0
 51
0.0
 71
     0
 72
   100
 73
     1
 74
     3
 75
     0
 76
     0
 77
     0
 78
     0
281
     0
 65
     1
110
0.0
120
0.0
130
0.0
111
1.0
121
0.0
131
0.0
112
0.0
122
1.0
132
0.0
 79
     0
146
0.0
  0
ENDTAB
  0
TABLE
  2
LTYPE
  5
5
330
0
100
AcDbSymbolTable
 70
     1
  0
LTYPE
  5
14
330
5
100
AcDbSymbolTableRecord
100
AcDbLinetypeTableRecord
  2
ByBlock
 70
     0
  3

 72
    65
 73
     0
 40
0.0
  0
LTYPE
  5
15
330
5
100
AcDbSymbolTableRecord
100
AcDbLinetypeTableRecord
  2
ByLayer
 70
     0
  3

 72
    65
 73
     0
 40
0.0
  0
LTYPE
  5
16
330
5
100
AcDbSymbolTableRecord
100
AcDbLinetypeTableRecord
  2
Continuous
 70
     0
  3
Solid line
 72
    65
 73
     0
 40
0.0
  0
ENDTAB
  0
TABLE
  2
LAYER
  5
2
330
0
100
AcDbSymbolTable
 70
     1
  0
LAYER
  5
10
330
2
100
AcDbSymbolTableRecord
100
AcDbLayerTableRecord
  2
0
 70
     0
 62
     7
  6
Continuous
370
    -3
390
F
  0
ENDTAB
  0
TABLE
  2
STYLE
  5
3
330
0
100
AcDbSymbolTable
 70
     1
  0
STYLE
  5
11
330
3
100
AcDbSymbolTableRecord
100
AcDbTextStyleTableRecord
  2
Standard
 70
     0
 40
0.0
 41
1.0
 50
0.0
 71
     0
 42
2.5
  3
txt
  4

  0
ENDTAB
  0
TABLE
  2
VIEW
  5
6
330
0
100
AcDbSymbolTable
 70
     0
  0
ENDTAB
  0
TABLE
  2
UCS
  5
7
330
0
100
AcDbSymbolTable
 70
     0
  0
ENDTAB
  0
TABLE
  2
APPID
  5
9
330
0
100
AcDbSymbolTable
 70
     1
  0
APPID
  5
12
330
9
100
AcDbSymbolTableRecord
100
AcDbRegAppTableRecord
  2
ACAD
 70
     0
  0
ENDTAB
  0
TABLE
  2
DIMSTYLE
  5
A
330
0
100
AcDbSymbolTable
 70
     1
100
AcDbDimStyleTable
  0
DIMSTYLE
105
27
330
A
100
AcDbSymbolTableRecord
100
AcDbDimStyleTableRecord
  2
Standard
 70
     0
178
     0
340
11
  0
ENDTAB
  0
TABLE
  2
BLOCK_RECORD
  5
1
330
0
100
AcDbSymbolTable
 70
     1
  0
BLOCK_RECORD
  5
1F
330
1
100
AcDbSymbolTableRecord
100
AcDbBlockTableRecord
  2
*Model_Space
340
22
  0
BLOCK_RECORD
  5
1B
330
1
100
AcDbSymbolTableRecord
100
AcDbBlockTableRecord
  2
*Paper_Space
340
1E
  0
BLOCK_RECORD
  5
23
330
1
100
AcDbSymbolTableRecord
100
AcDbBlockTableRecord
  2
*Paper_Space0
340
26
  0
ENDTAB
  0
ENDSEC
  0
SECTION
  2
BLOCKS
  0
BLOCK
  5
20
330
1F
100
AcDbEntity
  8
0
100
AcDbBlockBegin
  2
*Model_Space
 70
     0
 10
0.0
 20
0.0
 30
0.0
  3
*Model_Space
  1
*Model_Space
  0
ENDBLK
  5
21
330
1F
100
AcDbEntity
  8
0
100
AcDbBlockEnd
  0
BLOCK
  5
1C
330
1B
100
AcDbEntity
 67
     1
  8
0
100
AcDbBlockBegin
  2
*Paper_Space
 70
     0
 10
0.0
 20
0.0
 30
0.0
  3
*Paper_Space
  1
*Paper_Space
  0
ENDBLK
  5
1D
330
1B
100
AcDbEntity
 67
     1
  8
0
100
AcDbBlockEnd
  0
BLOCK
  5
24
330
23
100
AcDbEntity
  8
0
100
AcDbBlockBegin
  2
*Paper_Space0
 70
     0
 10
0.0
 20
0.0
 30
0.0
  3
*Paper_Space0
  1
*Paper_Space0
  0
ENDBLK
  5
25
330
23
100
AcDbEntity
  8
0
100
AcDbBlockEnd
  0
ENDSEC
  0
SECTION
  2
ENTITIES
  0
POLYLINE
  5
6A
330
1F
100
AcDbEntity
  8
0
 62
     7
370
    13
100
AcDb2dPolyline
 66
     1
 10
0.0
 20
0.0
 30
0.0
 70
     1
  0
VERTEX
  5
6B
330
6A
100
AcDbEntity
  8
0
370
     0
100
AcDbVertex
100
AcDb2dVertex
 10
594.984131
 20
181.143372
 30
0.0
  0
VERTEX
  5
6C
330
6A
100
AcDbEntity
  8
0
370
     0
100
AcDbVertex
100
AcDb2dVertex
 10
595.453186
 20
181.143372
 30
0.0
  0
VERTEX
  5
6D
330
6A
100
AcDbEntity
  8
0
370
     0
100
AcDbVertex
100
AcDb2dVertex
 10
595.453186
 20
182.752167
 30
0.0
  0
VERTEX
  5
6E
330
6A
100
AcDbEntity
  8
0
370
     0
100
AcDbVertex
100
AcDb2dVertex
 10
596.925781
 20
182.752167
 30
0.0
  0
VERTEX
  5
6F
330
6A
100
AcDbEntity
  8
0
370
     0
100
AcDbVertex
100
AcDb2dVertex
 10
596.925781
 20
183.170746
 30
0.0
  0
VERTEX
  5
70
330
6A
100
AcDbEntity
  8
0
370
     0
100
AcDbVertex
100
AcDb2dVertex
 10
595.453186
 20
183.170746
 30
0.0
  0
VERTEX
  5
71
330
6A
100
AcDbEntity
  8
0
370
     0
100
AcDbVertex
100
AcDb2dVertex
 10
595.453186
 20
184.219742
 30
0.0
  0
VERTEX
  5
72
330
6A
100
AcDbEntity
  8
0
370
     0
100
AcDbVertex
100
AcDb2dVertex
 10
597.263672
 20
184.219742
 30
0.0
  0
VERTEX
  5
73
330
6A
100
AcDbEntity
  8
0
370
     0
100
AcDbVertex
100
AcDb2dVertex
 10
597.263672
 20
184.643372
 30
0.0
  0
VERTEX
  5
74
330
6A
100
AcDbEntity
  8
0
370
     0
100
AcDbVertex
100
AcDb2dVertex
 10
594.984131
 20
184.643372
 30
0.0
  0
SEQEND
  5
75
330
6A
100
AcDbEntity
  8
0
 62
     7
370
    13
  0
POLYLINE
  5
76
330
1F
100
AcDbEntity
  8
0
 62
     7
370
    13
100
AcDb2dPolyline
 66
     1
 10
0.0
 20
0.0
 30
0.0
 70
     1
  0
VERTEX
  5
77
330
76
100
AcDbEntity
  8
0
370
     0
100
AcDbVertex
100
AcDb2dVertex
 10
598.176514
 20
181.143372
 30
0.0
  0
VERTEX
  5
78
330
76
100
AcDbEntity
  8
0
370
     0
100
AcDbVertex
100
AcDb2dVertex
 10
598.6203
 20
181.143372
 30
0.0
  0
VERTEX
  5
79
330
76
100
AcDbEntity
  8
0
370
     0
100
AcDbVertex
100
AcDb2dVertex
 10
598.6203
 20
182.691635
 30
0.0
  0
VERTEX
  5
7A
330
76
100
AcDbEntity
  8
0
370
     0
100
AcDbVertex
100
AcDb2dVertex
 10
598.66571
 20
183.064835
 30
0.0
  0
VERTEX
  5
7B
330
76
100
AcDbEntity
  8
0
370
     0
100
AcDbVertex
100
AcDb2dVertex
 10
598.80188
 20
183.332138
 30
0.0
  0
VERTEX
  5
7C
330
76
100
AcDbEntity
  8
0
370
     0
100
AcDbVertex
100
AcDb2dVertex
 10
599.023804
 20
183.493515
 30
0.0
  0
VERTEX
  5
7D
330
76
100
AcDbEntity
  8
0
370
     0
100
AcDbVertex
100
AcDb2dVertex
 10
599.32135
 20
183.548996
 30
0.0
  0
VERTEX
  5
7E
330
76
100
AcDbEntity
  8
0
370
     0
100
AcDbVertex
100
AcDb2dVertex
 10
599.543213
 20
183.513687
 30
0.0
  0
VERTEX
  5
7F
330
76
100
AcDbEntity
  8
0
370
     0
100
AcDbVertex
100
AcDb2dVertex
 10
599.709656
 20
183.412827
 30
0.0
  0
VERTEX
  5
80
330
76
100
AcDbEntity
  8
0
370
     0
100
AcDbVertex
100
AcDb2dVertex
 10
599.810547
 20
183.241348
 30
0.0
  0
VERTEX
  5
81
330
76
100
AcDbEntity
  8
0
370
     0
100
AcDbVertex
100
AcDb2dVertex
 10
599.845825
 20
183.009369
 30
0.0
  0
VERTEX
  5
82
330
76
100
AcDbEntity
  8
0
370
     0
100
AcDbVertex
100
AcDb2dVertex
 10
600.294678
 20
183.009369
 30
0.0
  0
VERTEX
  5
83
330
76
100
AcDbEntity
  8
0
370
     0
100
AcDbVertex
100
AcDb2dVertex
 10
600.234131
 20
183.417862
 30
0.0
  0
VERTEX
  5
84
330
76
100
AcDbEntity
  8
0
370
     0
100
AcDbVertex
100
AcDb2dVertex
 10
600.067749
 20
183.710373
 30
0.0
  0
VERTEX
  5
85
330
76
100
AcDbEntity
  8
0
370
     0
100
AcDbVertex
100
AcDb2dVertex
 10
599.790344
 20
183.886887
 30
0.0
  0
VERTEX
  5
86
330
76
100
AcDbEntity
  8
0
370
     0
100
AcDbVertex
100
AcDb2dVertex
 10
599.412109
 20
183.947403
 30
0.0
  0
VERTEX
  5
87
330
76
100
AcDbEntity
  8
0
370
     0
100
AcDbVertex
100
AcDb2dVertex
 10
599.154907
 20
183.907059
 30
0.0
  0
VERTEX
  5
88
330
76
100
AcDbEntity
  8
0
370
     0
100
AcDbVertex
100
AcDb2dVertex
 10
598.932983
 20
183.806198
 30
0.0
  0
VERTEX
  5
89
330
76
100
AcDbEntity
  8
0
370
     0
100
AcDbVertex
100
AcDb2dVertex
 10
598.736328
 20
183.63472
 30
0.0
  0
VERTEX
  5
8A
330
76
100
AcDbEntity
  8
0
370
     0
100
AcDbVertex
100
AcDb2dVertex
 10
598.579956
 20
183.40274
 30
0.0
  0
VERTEX
  5
8B
330
76
100
AcDbEntity
  8
0
370
     0
100
AcDbVertex
100
AcDb2dVertex
 10
598.579956
 20
183.851578
 30
0.0
  0
VERTEX
  5
8C
330
76
100
AcDbEntity
  8
0
370
     0
100
AcDbVertex
100
AcDb2dVertex
 10
598.176514
 20
183.851578
 30
0.0
  0
SEQEND
  5
8D
330
76
100
AcDbEntity
  8
0
 62
     7
370
    13
  0
POLYLINE
  5
8E
330
1F
100
AcDbEntity
  8
0
 62
     7
370
    13
100
AcDb2dPolyline
 66
     1
 10
0.0
 20
0.0
 30
0.0
 70
     1
  0
VERTEX
  5
8F
330
8E
100
AcDbEntity
  8
0
370
     0
100
AcDbVertex
100
AcDb2dVertex
 10
600.914978
 20
182.494949
 30
0.0
  0
VERTEX
  5
90
330
8E
100
AcDbEntity
  8
0
370
     0
100
AcDbVertex
100
AcDb2dVertex
 10
600.995667
 20
181.879684
 30
0.0
  0
VERTEX
  5
91
330
8E
100
AcDbEntity
  8
0
370
     0
100
AcDbVertex
100
AcDb2dVertex
 10
601.227661
 20
181.425797
 30
0.0
  0
VERTEX
  5
92
330
8E
100
AcDbEntity
  8
0
370
     0
100
AcDbVertex
100
AcDb2dVertex
 10
601.595825
 20
181.143372
 30
0.0
  0
VERTEX
  5
93
330
8E
100
AcDbEntity
  8
0
370
     0
100
AcDbVertex
100
AcDb2dVertex
 10
602.090088
 20
181.047546
 30
0.0
  0
VERTEX
  5
94
330
8E
100
AcDbEntity
  8
0
370
     0
100
AcDbVertex
100
AcDb2dVertex
 10
602.579224
 20
181.143372
 30
0.0
  0
VERTEX
  5
95
330
8E
100
AcDbEntity
  8
0
370
     0
100
AcDbVertex
100
AcDb2dVertex
 10
602.947388
 20
181.420746
 30
0.0
  0
VERTEX
  5
96
330
8E
100
AcDbEntity
  8
0
370
     0
100
AcDbVertex
100
AcDb2dVertex
 10
603.179382
 20
181.874634
 30
0.0
  0
VERTEX
  5
97
330
8E
100
AcDbEntity
  8
0
370
     0
100
AcDbVertex
100
AcDb2dVertex
 10
603.265137
 20
182.494949
 30
0.0
  0
VERTEX
  5
98
330
8E
100
AcDbEntity
  8
0
370
     0
100
AcDbVertex
100
AcDb2dVertex
 10
603.179382
 20
183.110229
 30
0.0
  0
VERTEX
  5
99
330
8E
100
AcDbEntity
  8
0
370
     0
100
AcDbVertex
100
AcDb2dVertex
 10
602.947388
 20
183.569168
 30
0.0
  0
VERTEX
  5
9A
330
8E
100
AcDbEntity
  8
0
370
     0
100
AcDbVertex
100
AcDb2dVertex
 10
602.579224
 20
183.846542
 30
0.0
  0
VERTEX
  5
9B
330
8E
100
AcDbEntity
  8
0
370
     0
100
AcDbVertex
100
AcDb2dVertex
 10
602.090088
 20
183.947403
 30
0.0
  0
VERTEX
  5
9C
330
8E
100
AcDbEntity
  8
0
370
     0
100
AcDbVertex
100
AcDb2dVertex
 10
601.595825
 20
183.846542
 30
0.0
  0
VERTEX
  5
9D
330
8E
100
AcDbEntity
  8
0
370
     0
100
AcDbVertex
100
AcDb2dVertex
 10
601.227661
 20
183.564117
 30
0.0
  0
VERTEX
  5
9E
330
8E
100
AcDbEntity
  8
0
370
     0
100
AcDbVertex
100
AcDb2dVertex
 10
600.995667
 20
183.110229
 30
0.0
  0
SEQEND
  5
9F
330
8E
100
AcDbEntity
  8
0
 62
     7
370
    13
  0
POLYLINE
  5
A0
330
1F
100
AcDbEntity
  8
0
 62
     7
370
    13
100
AcDb2dPolyline
 66
     1
 10
0.0
 20
0.0
 30
0.0
 70
     1
  0
VERTEX
  5
A1
330
A0
100
AcDbEntity
  8
0
370
     0
100
AcDbVertex
100
AcDb2dVertex
 10
601.368896
 20
182.5
 30
0.0
  0
VERTEX
  5
A2
330
A0
100
AcDbEntity
  8
0
370
     0
100
AcDbVertex
100
AcDb2dVertex
 10
601.414246
 20
182.953888
 30
0.0
  0
VERTEX
  5
A3
330
A0
100
AcDbEntity
  8
0
370
     0
100
AcDbVertex
100
AcDb2dVertex
 10
601.555481
 20
183.281708
 30
0.0
  0
VERTEX
  5
A4
330
A0
100
AcDbEntity
  8
0
370
     0
100
AcDbVertex
100
AcDb2dVertex
 10
601.78241
 20
183.483429
 30
0.0
  0
VERTEX
  5
A5
330
A0
100
AcDbEntity
  8
0
370
     0
100
AcDbVertex
100
AcDb2dVertex
 10
602.090088
 20
183.554031
 30
0.0
  0
VERTEX
  5
A6
330
A0
100
AcDbEntity
  8
0
370
     0
100
AcDbVertex
100
AcDb2dVertex
 10
602.392639
 20
183.483429
 30
0.0
  0
VERTEX
  5
A7
330
A0
100
AcDbEntity
  8
0
370
     0
100
AcDbVertex
100
AcDb2dVertex
 10
602.619568
 20
183.286743
 30
0.0
  0
VERTEX
  5
A8
330
A0
100
AcDbEntity
  8
0
370
     0
100
AcDbVertex
100
AcDb2dVertex
 10
602.760803
 20
182.953888
 30
0.0
  0
VERTEX
  5
A9
330
A0
100
AcDbEntity
  8
0
370
     0
100
AcDbVertex
100
AcDb2dVertex
 10
602.811218
 20
182.5
 30
0.0
  0
VERTEX
  5
AA
330
A0
100
AcDbEntity
  8
0
370
     0
100
AcDbVertex
100
AcDb2dVertex
 10
602.760803
 20
182.041061
 30
0.0
  0
VERTEX
  5
AB
330
A0
100
AcDbEntity
  8
0
370
     0
100
AcDbVertex
100
AcDb2dVertex
 10
602.619568
 20
181.708206
 30
0.0
  0
VERTEX
  5
AC
330
A0
100
AcDbEntity
  8
0
370
     0
100
AcDbVertex
100
AcDb2dVertex
 10
602.392639
 20
181.506485
 30
0.0
  0
VERTEX
  5
AD
330
A0
100
AcDbEntity
  8
0
370
     0
100
AcDbVertex
100
AcDb2dVertex
 10
602.090088
 20
181.440918
 30
0.0
  0
VERTEX
  5
AE
330
A0
100
AcDbEntity
  8
0
370
     0
100
AcDbVertex
100
AcDb2dVertex
 10
601.78241
 20
181.506485
 30
0.0
  0
VERTEX
  5
AF
330
A0
100
AcDbEntity
  8
0
370
     0
100
AcDbVertex
100
AcDb2dVertex
 10
601.555481
 20
181.708206
 30
0.0
  0
VERTEX
  5
B0
330
A0
100
AcDbEntity
  8
0
370
     0
100
AcDbVertex
100
AcDb2dVertex
 10
601.414246
 20
182.041061
 30
0.0
  0
SEQEND
  5
B1
330
A0
100
AcDbEntity
  8
0
 62
     7
370
    13
  0
POLYLINE
  5
B2
330
1F
100
AcDbEntity
  8
0
 62
     7
370
    13
100
AcDb2dPolyline
 66
     1
 10
0.0
 20
0.0
 30
0.0
 70
     1
  0
VERTEX
  5
B3
330
B2
100
AcDbEntity
  8
0
370
     0
100
AcDbVertex
100
AcDb2dVertex
 10
604.082153
 20
181.143372
 30
0.0
  0
VERTEX
  5
B4
330
B2
100
AcDbEntity
  8
0
370
     0
100
AcDbVertex
100
AcDb2dVertex
 10
604.52594
 20
181.143372
 30
0.0
  0
VERTEX
  5
B5
330
B2
100
AcDbEntity
  8
0
370
     0
100
AcDbVertex
100
AcDb2dVertex
 10
604.52594
 20
182.706772
 30
0.0
  0
VERTEX
  5
B6
330
B2
100
AcDbEntity
  8
0
370
     0
100
AcDbVertex
100
AcDb2dVertex
 10
604.57135
 20
183.064835
 30
0.0
  0
VERTEX
  5
B7
330
B2
100
AcDbEntity
  8
0
370
     0
100
AcDbVertex
100
AcDb2dVertex
 10
604.71759
 20
183.327087
 30
0.0
  0
VERTEX
  5
B8
330
B2
100
AcDbEntity
  8
0
370
     0
100
AcDbVertex
100
AcDb2dVertex
 10
604.944519
 20
183.48848
 30
0.0
  0
VERTEX
  5
B9
330
B2
100
AcDbEntity
  8
0
370
     0
100
AcDbVertex
100
AcDb2dVertex
 10
605.247131
 20
183.548996
 30
0.0
  0
VERTEX
  5
BA
330
B2
100
AcDbEntity
  8
0
370
     0
100
AcDbVertex
100
AcDb2dVertex
 10
605.489197
 20
183.498566
 30
0.0
  0
VERTEX
  5
BB
330
B2
100
AcDbEntity
  8
0
370
     0
100
AcDbVertex
100
AcDb2dVertex
 10
605.640503
 20
183.362396
 30
0.0
  0
VERTEX
  5
BC
330
B2
100
AcDbEntity
  8
0
370
     0
100
AcDbVertex
100
AcDb2dVertex
 10
605.716125
 20
183.135452
 30
0.0
  0
VERTEX
  5
BD
330
B2
100
AcDbEntity
  8
0
370
     0
100
AcDbVertex
100
AcDb2dVertex
 10
605.741333
 20
182.832855
 30
0.0
  0
VERTEX
  5
BE
330
B2
100
AcDbEntity
  8
0
370
     0
100
AcDbVertex
100
AcDb2dVertex
 10
605.741333
 20
181.143372
 30
0.0
  0
VERTEX
  5
BF
330
B2
100
AcDbEntity
  8
0
370
     0
100
AcDbVertex
100
AcDb2dVertex
 10
606.185181
 20
181.143372
 30
0.0
  0
VERTEX
  5
C0
330
B2
100
AcDbEntity
  8
0
370
     0
100
AcDbVertex
100
AcDb2dVertex
 10
606.185181
 20
182.92363
 30
0.0
  0
VERTEX
  5
C1
330
B2
100
AcDbEntity
  8
0
370
     0
100
AcDbVertex
100
AcDb2dVertex
 10
606.164978
 20
183.281708
 30
0.0
  0
VERTEX
  5
C2
330
B2
100
AcDbEntity
  8
0
370
     0
100
AcDbVertex
100
AcDb2dVertex
 10
606.074219
 20
183.579254
 30
0.0
  0
VERTEX
  5
C3
330
B2
100
AcDbEntity
  8
0
370
     0
100
AcDbVertex
100
AcDb2dVertex
 10
605.776672
 20
183.851578
 30
0.0
  0
VERTEX
  5
C4
330
B2
100
AcDbEntity
  8
0
370
     0
100
AcDbVertex
100
AcDb2dVertex
 10
605.312683
 20
183.947403
 30
0.0
  0
VERTEX
  5
C5
330
B2
100
AcDbEntity
  8
0
370
     0
100
AcDbVertex
100
AcDb2dVertex
 10
605.055481
 20
183.912109
 30
0.0
  0
VERTEX
  5
C6
330
B2
100
AcDbEntity
  8
0
370
     0
100
AcDbVertex
100
AcDb2dVertex
 10
604.838623
 20
183.816284
 30
0.0
  0
VERTEX
  5
C7
330
B2
100
AcDbEntity
  8
0
370
     0
100
AcDbVertex
100
AcDb2dVertex
 10
604.652039
 20
183.654892
 30
0.0
  0
VERTEX
  5
C8
330
B2
100
AcDbEntity
  8
0
370
     0
100
AcDbVertex
100
AcDb2dVertex
 10
604.505737
 20
183.438034
 30
0.0
  0
VERTEX
  5
C9
330
B2
100
AcDbEntity
  8
0
370
     0
100
AcDbVertex
100
AcDb2dVertex
 10
604.505737
 20
183.851578
 30
0.0
  0
VERTEX
  5
CA
330
B2
100
AcDbEntity
  8
0
370
     0
100
AcDbVertex
100
AcDb2dVertex
 10
604.082153
 20
183.851578
 30
0.0
  0
SEQEND
  5
CB
330
B2
100
AcDbEntity
  8
0
 62
     7
370
    13
  0
POLYLINE
  5
CC
330
1F
100
AcDbEntity
  8
0
 62
     7
370
    13
100
AcDb2dPolyline
 66
     1
 10
0.0
 20
0.0
 30
0.0
 70
     1
  0
VERTEX
  5
CD
330
CC
100
AcDbEntity
  8
0
370
     0
100
AcDbVertex
100
AcDb2dVertex
 10
607.713257
 20
183.382568
 30
0.0
  0
VERTEX
  5
CE
330
CC
100
AcDbEntity
  8
0
370
     0
100
AcDbVertex
100
AcDb2dVertex
 10
607.713257
 20
182.02594
 30
0.0
  0
VERTEX
  5
CF
330
CC
100
AcDbEntity
  8
0
370
     0
100
AcDbVertex
100
AcDb2dVertex
 10
607.74353
 20
181.587173
 30
0.0
  0
VERTEX
  5
D0
330
CC
100
AcDbEntity
  8
0
370
     0
100
AcDbVertex
100
AcDb2dVertex
 10
607.884705
 20
181.284576
 30
0.0
  0
VERTEX
  5
D1
330
CC
100
AcDbEntity
  8
0
370
     0
100
AcDbVertex
100
AcDb2dVertex
 10
608.167175
 20
181.108063
 30
0.0
  0
VERTEX
  5
D2
330
CC
100
AcDbEntity
  8
0
370
     0
100
AcDbVertex
100
AcDb2dVertex
 10
608.64624
 20
181.047546
 30
0.0
  0
VERTEX
  5
D3
330
CC
100
AcDbEntity
  8
0
370
     0
100
AcDbVertex
100
AcDb2dVertex
 10
609.170776
 20
181.072769
 30
0.0
  0
VERTEX
  5
D4
330
CC
100
AcDbEntity
  8
0
370
     0
100
AcDbVertex
100
AcDb2dVertex
 10
609.170776
 20
181.456055
 30
0.0
  0
VERTEX
  5
D5
330
CC
100
AcDbEntity
  8
0
370
     0
100
AcDbVertex
100
AcDb2dVertex
 10
608.787476
 20
181.425797
 30
0.0
  0
VERTEX
  5
D6
330
CC
100
AcDbEntity
  8
0
370
     0
100
AcDbVertex
100
AcDb2dVertex
 10
608.439453
 20
181.466141
 30
0.0
  0
VERTEX
  5
D7
330
CC
100
AcDbEntity
  8
0
370
     0
100
AcDbVertex
100
AcDb2dVertex
 10
608.252869
 20
181.592224
 30
0.0
  0
VERTEX
  5
D8
330
CC
100
AcDbEntity
  8
0
370
     0
100
AcDbVertex
100
AcDb2dVertex
 10
608.17218
 20
181.804031
 30
0.0
  0
VERTEX
  5
D9
330
CC
100
AcDbEntity
  8
0
370
     0
100
AcDbVertex
100
AcDb2dVertex
 10
608.157043
 20
182.101578
 30
0.0
  0
VERTEX
  5
DA
330
CC
100
AcDbEntity
  8
0
370
     0
100
AcDbVertex
100
AcDb2dVertex
 10
608.157043
 20
183.382568
 30
0.0
  0
VERTEX
  5
DB
330
CC
100
AcDbEntity
  8
0
370
     0
100
AcDbVertex
100
AcDb2dVertex
 10
609.170776
 20
183.382568
 30
0.0
  0
VERTEX
  5
DC
330
CC
100
AcDbEntity
  8
0
370
     0
100
AcDbVertex
100
AcDb2dVertex
 10
609.170776
 20
183.760803
 30
0.0
  0
VERTEX
  5
DD
330
CC
100
AcDbEntity
  8
0
370
     0
100
AcDbVertex
100
AcDb2dVertex
 10
608.157043
 20
183.760803
 30
0.0
  0
VERTEX
  5
DE
330
CC
100
AcDbEntity
  8
0
370
     0
100
AcDbVertex
100
AcDb2dVertex
 10
608.157043
 20
184.552597
 30
0.0
  0
VERTEX
  5
DF
330
CC
100
AcDbEntity
  8
0
370
     0
100
AcDbVertex
100
AcDb2dVertex
 10
607.713257
 20
184.552597
 30
0.0
  0
VERTEX
  5
E0
330
CC
100
AcDbEntity
  8
0
370
     0
100
AcDbVertex
100
AcDb2dVertex
 10
607.713257
 20
183.760803
 30
0.0
  0
VERTEX
  5
E1
330
CC
100
AcDbEntity
  8
0
370
     0
100
AcDbVertex
100
AcDb2dVertex
 10
606.946655
 20
183.760803
 30
0.0
  0
VERTEX
  5
E2
330
CC
100
AcDbEntity
  8
0
370
     0
100
AcDbVertex
100
AcDb2dVertex
 10
606.946655
 20
183.382568
 30
0.0
  0
SEQEND
  5
E3
330
CC
100
AcDbEntity
  8
0
 62
     7
370
    13
  0
POLYLINE
  5
E4
330
1F
100
AcDbEntity
  8
0
 62
     7
370
    13
100
AcDb2dPolyline
 66
     1
 10
0.0
 20
0.0
 30
0.0
 70
     1
  0
VERTEX
  5
E5
330
E4
100
AcDbEntity
  8
0
370
     0
100
AcDbVertex
100
AcDb2dVertex
 10
614.002136
 20
181.143372
 30
0.0
  0
VERTEX
  5
E6
330
E4
100
AcDbEntity
  8
0
370
     0
100
AcDbVertex
100
AcDb2dVertex
 10
614.471191
 20
181.143372
 30
0.0
  0
VERTEX
  5
E7
330
E4
100
AcDbEntity
  8
0
370
     0
100
AcDbVertex
100
AcDb2dVertex
 10
615.459656
 20
183.851578
 30
0.0
  0
VERTEX
  5
E8
330
E4
100
AcDbEntity
  8
0
370
     0
100
AcDbVertex
100
AcDb2dVertex
 10
615.000732
 20
183.851578
 30
0.0
  0
VERTEX
  5
E9
330
E4
100
AcDbEntity
  8
0
370
     0
100
AcDbVertex
100
AcDb2dVertex
 10
614.239197
 20
181.667862
 30
0.0
  0
VERTEX
  5
EA
330
E4
100
AcDbEntity
  8
0
370
     0
100
AcDbVertex
100
AcDb2dVertex
 10
613.462524
 20
183.851578
 30
0.0
  0
VERTEX
  5
EB
330
E4
100
AcDbEntity
  8
0
370
     0
100
AcDbVertex
100
AcDb2dVertex
 10
612.998535
 20
183.851578
 30
0.0
  0
SEQEND
  5
EC
330
E4
100
AcDbEntity
  8
0
 62
     7
370
    13
  0
POLYLINE
  5
ED
330
1F
100
AcDbEntity
  8
0
 62
     7
370
    13
100
AcDb2dPolyline
 66
     1
 10
0.0
 20
0.0
 30
0.0
 70
     1
  0
VERTEX
  5
EE
330
ED
100
AcDbEntity
  8
0
370
     0
100
AcDbVertex
100
AcDb2dVertex
 10
617.582886
 20
181.516571
 30
0.0
  0
VERTEX
  5
EF
330
ED
100
AcDbEntity
  8
0
370
     0
100
AcDbVertex
100
AcDb2dVertex
 10
617.582886
 20
183.760803
 30
0.0
  0
VERTEX
  5
F0
330
ED
100
AcDbEntity
  8
0
370
     0
100
AcDbVertex
100
AcDb2dVertex
 10
616.443115
 20
183.760803
 30
0.0
  0
VERTEX
  5
F1
330
ED
100
AcDbEntity
  8
0
370
     0
100
AcDbVertex
100
AcDb2dVertex
 10
616.443115
 20
183.382568
 30
0.0
  0
VERTEX
  5
F2
330
ED
100
AcDbEntity
  8
0
370
     0
100
AcDbVertex
100
AcDb2dVertex
 10
617.139038
 20
183.382568
 30
0.0
  0
VERTEX
  5
F3
330
ED
100
AcDbEntity
  8
0
370
     0
100
AcDbVertex
100
AcDb2dVertex
 10
617.139038
 20
181.516571
 30
0.0
  0
VERTEX
  5
F4
330
ED
100
AcDbEntity
  8
0
370
     0
100
AcDbVertex
100
AcDb2dVertex
 10
616.231262
 20
181.516571
 30
0.0
  0
VERTEX
  5
F5
330
ED
100
AcDbEntity
  8
0
370
     0
100
AcDbVertex
100
AcDb2dVertex
 10
616.231262
 20
181.143372
 30
0.0
  0
VERTEX
  5
F6
330
ED
100
AcDbEntity
  8
0
370
     0
100
AcDbVertex
100
AcDb2dVertex
 10
618.500732
 20
181.143372
 30
0.0
  0
VERTEX
  5
F7
330
ED
100
AcDbEntity
  8
0
370
     0
100
AcDbVertex
100
AcDb2dVertex
 10
618.500732
 20
181.516571
 30
0.0
  0
SEQEND
  5
F8
330
ED
100
AcDbEntity
  8
0
 62
     7
370
    13
  0
POLYLINE
  5
F9
330
1F
100
AcDbEntity
  8
0
 62
     7
370
    13
100
AcDb2dPolyline
 66
     1
 10
0.0
 20
0.0
 30
0.0
 70
     1
  0
VERTEX
  5
FA
330
F9
100
AcDbEntity
  8
0
370
     0
100
AcDbVertex
100
AcDb2dVertex
 10
617.597961
 20
184.764404
 30
0.0
  0
VERTEX
  5
FB
330
F9
100
AcDbEntity
  8
0
370
     0
100
AcDbVertex
100
AcDb2dVertex
 10
617.128967
 20
184.764404
 30
0.0
  0
VERTEX
  5
FC
330
F9
100
AcDbEntity
  8
0
370
     0
100
AcDbVertex
100
AcDb2dVertex
 10
617.128967
 20
184.260086
 30
0.0
  0
VERTEX
  5
FD
330
F9
100
AcDbEntity
  8
0
370
     0
100
AcDbVertex
100
AcDb2dVertex
 10
617.597961
 20
184.260086
 30
0.0
  0
SEQEND
  5
FE
330
F9
100
AcDbEntity
  8
0
 62
     7
370
    13
  0
POLYLINE
  5
FF
330
1F
100
AcDbEntity
  8
0
 62
     7
370
    13
100
AcDb2dPolyline
 66
     1
 10
0.0
 20
0.0
 30
0.0
 70
     1
  0
VERTEX
  5
100
330
FF
100
AcDbEntity
  8
0
370
     0
100
AcDbVertex
100
AcDb2dVertex
 10
619.650574
 20
182.368881
 30
0.0
  0
VERTEX
  5
101
330
FF
100
AcDbEntity
  8
0
370
     0
100
AcDbVertex
100
AcDb2dVertex
 10
621.425781
 20
182.368881
 30
0.0
  0
VERTEX
  5
102
330
FF
100
AcDbEntity
  8
0
370
     0
100
AcDbVertex
100
AcDb2dVertex
 10
621.430847
 20
182.575653
 30
0.0
  0
VERTEX
  5
103
330
FF
100
AcDbEntity
  8
0
370
     0
100
AcDbVertex
100
AcDb2dVertex
 10
621.350159
 20
183.155624
 30
0.0
  0
VERTEX
  5
104
330
FF
100
AcDbEntity
  8
0
370
     0
100
AcDbVertex
100
AcDb2dVertex
 10
621.128235
 20
183.58934
 30
0.0
  0
VERTEX
  5
105
330
FF
100
AcDbEntity
  8
0
370
     0
100
AcDbVertex
100
AcDb2dVertex
 10
620.775208
 20
183.851578
 30
0.0
  0
VERTEX
  5
106
330
FF
100
AcDbEntity
  8
0
370
     0
100
AcDbVertex
100
AcDb2dVertex
 10
620.306213
 20
183.947403
 30
0.0
  0
VERTEX
  5
107
330
FF
100
AcDbEntity
  8
0
370
     0
100
AcDbVertex
100
AcDb2dVertex
 10
619.84729
 20
183.846542
 30
0.0
  0
VERTEX
  5
108
330
FF
100
AcDbEntity
  8
0
370
     0
100
AcDbVertex
100
AcDb2dVertex
 10
619.494263
 20
183.564117
 30
0.0
  0
VERTEX
  5
109
330
FF
100
AcDbEntity
  8
0
370
     0
100
AcDbVertex
100
AcDb2dVertex
 10
619.267273
 20
183.105194
 30
0.0
  0
VERTEX
  5
10A
330
FF
100
AcDbEntity
  8
0
370
     0
100
AcDbVertex
100
AcDb2dVertex
 10
619.186584
 20
182.5
 30
0.0
  0
VERTEX
  5
10B
330
FF
100
AcDbEntity
  8
0
370
     0
100
AcDbVertex
100
AcDb2dVertex
 10
619.262268
 20
181.879684
 30
0.0
  0
VERTEX
  5
10C
330
FF
100
AcDbEntity
  8
0
370
     0
100
AcDbVertex
100
AcDb2dVertex
 10
619.489197
 20
181.425797
 30
0.0
  0
VERTEX
  5
10D
330
FF
100
AcDbEntity
  8
0
370
     0
100
AcDbVertex
100
AcDb2dVertex
 10
619.837158
 20
181.143372
 30
0.0
  0
VERTEX
  5
10E
330
FF
100
AcDbEntity
  8
0
370
     0
100
AcDbVertex
100
AcDb2dVertex
 10
620.291077
 20
181.047546
 30
0.0
  0
VERTEX
  5
10F
330
FF
100
AcDbEntity
  8
0
370
     0
100
AcDbVertex
100
AcDb2dVertex
 10
620.684448
 20
181.113113
 30
0.0
  0
VERTEX
  5
110
330
FF
100
AcDbEntity
  8
0
370
     0
100
AcDbVertex
100
AcDb2dVertex
 10
621.007202
 20
181.284576
 30
0.0
  0
VERTEX
  5
111
330
FF
100
AcDbEntity
  8
0
370
     0
100
AcDbVertex
100
AcDb2dVertex
 10
621.244263
 20
181.556915
 30
0.0
  0
VERTEX
  5
112
330
FF
100
AcDbEntity
  8
0
370
     0
100
AcDbVertex
100
AcDb2dVertex
 10
621.380432
 20
181.920029
 30
0.0
  0
VERTEX
  5
113
330
FF
100
AcDbEntity
  8
0
370
     0
100
AcDbVertex
100
AcDb2dVertex
 10
620.94165
 20
181.920029
 30
0.0
  0
VERTEX
  5
114
330
FF
100
AcDbEntity
  8
0
370
     0
100
AcDbVertex
100
AcDb2dVertex
 10
620.850891
 20
181.718292
 30
0.0
  0
VERTEX
  5
115
330
FF
100
AcDbEntity
  8
0
370
     0
100
AcDbVertex
100
AcDb2dVertex
 10
620.719727
 20
181.567001
 30
0.0
  0
VERTEX
  5
116
330
FF
100
AcDbEntity
  8
0
370
     0
100
AcDbVertex
100
AcDb2dVertex
 10
620.346558
 20
181.445969
 30
0.0
  0
VERTEX
  5
117
330
FF
100
AcDbEntity
  8
0
370
     0
100
AcDbVertex
100
AcDb2dVertex
 10
620.059082
 20
181.501434
 30
0.0
  0
VERTEX
  5
118
330
FF
100
AcDbEntity
  8
0
370
     0
100
AcDbVertex
100
AcDb2dVertex
 10
619.842224
 20
181.677948
 30
0.0
  0
VERTEX
  5
119
330
FF
100
AcDbEntity
  8
0
370
     0
100
AcDbVertex
100
AcDb2dVertex
 10
619.700989
 20
181.965424
 30
0.0
  0
VERTEX
  5
11A
330
FF
100
AcDbEntity
  8
0
370
     0
100
AcDbVertex
100
AcDb2dVertex
 10
619.650574
 20
182.353745
 30
0.0
  0
SEQEND
  5
11B
330
FF
100
AcDbEntity
  8
0
 62
     7
370
    13
  0
POLYLINE
  5
11C
330
1F
100
AcDbEntity
  8
0
 62
     7
370
    13
100
AcDb2dPolyline
 66
     1
 10
0.0
 20
0.0
 30
0.0
 70
     1
  0
VERTEX
  5
11D
330
11C
100
AcDbEntity
  8
0
370
     0
100
AcDbVertex
100
AcDb2dVertex
 10
619.650574
 20
182.742081
 30
0.0
  0
VERTEX
  5
11E
330
11C
100
AcDbEntity
  8
0
370
     0
100
AcDbVertex
100
AcDb2dVertex
 10
619.706055
 20
183.090057
 30
0.0
  0
VERTEX
  5
11F
330
11C
100
AcDbEntity
  8
0
370
     0
100
AcDbVertex
100
AcDb2dVertex
 10
619.842224
 20
183.34726
 30
0.0
  0
VERTEX
  5
120
330
11C
100
AcDbEntity
  8
0
370
     0
100
AcDbVertex
100
AcDb2dVertex
 10
620.049011
 20
183.503601
 30
0.0
  0
VERTEX
  5
121
330
11C
100
AcDbEntity
  8
0
370
     0
100
AcDbVertex
100
AcDb2dVertex
 10
620.32135
 20
183.559082
 30
0.0
  0
VERTEX
  5
122
330
11C
100
AcDbEntity
  8
0
370
     0
100
AcDbVertex
100
AcDb2dVertex
 10
620.588623
 20
183.503601
 30
0.0
  0
VERTEX
  5
123
330
11C
100
AcDbEntity
  8
0
370
     0
100
AcDbVertex
100
AcDb2dVertex
 10
620.79541
 20
183.34726
 30
0.0
  0
VERTEX
  5
124
330
11C
100
AcDbEntity
  8
0
370
     0
100
AcDbVertex
100
AcDb2dVertex
 10
620.921448
 20
183.090057
 30
0.0
  0
VERTEX
  5
125
330
11C
100
AcDbEntity
  8
0
370
     0
100
AcDbVertex
100
AcDb2dVertex
 10
620.966858
 20
182.742081
 30
0.0
  0
SEQEND
  5
126
330
11C
100
AcDbEntity
  8
0
 62
     7
370
    13
  0
POLYLINE
  5
127
330
1F
100
AcDbEntity
  8
0
 62
     7
370
    13
100
AcDb2dPolyline
 66
     1
 10
0.0
 20
0.0
 30
0.0
 70
     1
  0
VERTEX
  5
128
330
127
100
AcDbEntity
  8
0
370
     0
100
AcDbVertex
100
AcDb2dVertex
 10
622.938782
 20
181.143372
 30
0.0
  0
VERTEX
  5
129
330
127
100
AcDbEntity
  8
0
370
     0
100
AcDbVertex
100
AcDb2dVertex
 10
623.342224
 20
183.443085
 30
0.0
  0
VERTEX
  5
12A
330
127
100
AcDbEntity
  8
0
370
     0
100
AcDbVertex
100
AcDb2dVertex
 10
623.745667
 20
181.143372
 30
0.0
  0
VERTEX
  5
12B
330
127
100
AcDbEntity
  8
0
370
     0
100
AcDbVertex
100
AcDb2dVertex
 10
624.169312
 20
181.143372
 30
0.0
  0
VERTEX
  5
12C
330
127
100
AcDbEntity
  8
0
370
     0
100
AcDbVertex
100
AcDb2dVertex
 10
624.835022
 20
183.851578
 30
0.0
  0
VERTEX
  5
12D
330
127
100
AcDbEntity
  8
0
370
     0
100
AcDbVertex
100
AcDb2dVertex
 10
624.406311
 20
183.851578
 30
0.0
  0
VERTEX
  5
12E
330
127
100
AcDbEntity
  8
0
370
     0
100
AcDbVertex
100
AcDb2dVertex
 10
623.95752
 20
181.55188
 30
0.0
  0
VERTEX
  5
12F
330
127
100
AcDbEntity
  8
0
370
     0
100
AcDbVertex
100
AcDb2dVertex
 10
623.559082
 20
183.851578
 30
0.0
  0
VERTEX
  5
130
330
127
100
AcDbEntity
  8
0
370
     0
100
AcDbVertex
100
AcDb2dVertex
 10
623.1203
 20
183.851578
 30
0.0
  0
VERTEX
  5
131
330
127
100
AcDbEntity
  8
0
370
     0
100
AcDbVertex
100
AcDb2dVertex
 10
622.721924
 20
181.55188
 30
0.0
  0
VERTEX
  5
132
330
127
100
AcDbEntity
  8
0
370
     0
100
AcDbVertex
100
AcDb2dVertex
 10
622.273071
 20
183.851578
 30
0.0
  0
VERTEX
  5
133
330
127
100
AcDbEntity
  8
0
370
     0
100
AcDbVertex
100
AcDb2dVertex
 10
621.849426
 20
183.851578
 30
0.0
  0
VERTEX
  5
134
330
127
100
AcDbEntity
  8
0
370
     0
100
AcDbVertex
100
AcDb2dVertex
 10
622.515137
 20
181.143372
 30
0.0
  0
SEQEND
  5
135
330
127
100
AcDbEntity
  8
0
 62
     7
370
    13
  0
POLYLINE
  5
136
330
1F
100
AcDbEntity
  8
0
 62
     7
370
    13
100
AcDb2dPolyline
 66
     1
 10
0.0
 20
0.0
 30
0.0
 70
     1
  0
VERTEX
  5
137
330
136
100
AcDbEntity
  8
0
370
     0
100
AcDbVertex
100
AcDb2dVertex
 10
595.221191
 20
176.251434
 30
0.0
  0
VERTEX
  5
138
330
136
100
AcDbEntity
  8
0
370
     0
100
AcDbVertex
100
AcDb2dVertex
 10
594.762268
 20
176.251434
 30
0.0
  0
VERTEX
  5
139
330
136
100
AcDbEntity
  8
0
370
     0
100
AcDbVertex
100
AcDb2dVertex
 10
594.863098
 20
175.716858
 30
0.0
  0
VERTEX
  5
13A
330
136
100
AcDbEntity
  8
0
370
     0
100
AcDbVertex
100
AcDb2dVertex
 10
595.115295
 20
175.323486
 30
0.0
  0
VERTEX
  5
13B
330
136
100
AcDbEntity
  8
0
370
     0
100
AcDbVertex
100
AcDb2dVertex
 10
595.503601
 20
175.086456
 30
0.0
  0
VERTEX
  5
13C
330
136
100
AcDbEntity
  8
0
370
     0
100
AcDbVertex
100
AcDb2dVertex
 10
596.028076
 20
175.000717
 30
0.0
  0
VERTEX
  5
13D
330
136
100
AcDbEntity
  8
0
370
     0
100
AcDbVertex
100
AcDb2dVertex
 10
596.547546
 20
175.081406
 30
0.0
  0
VERTEX
  5
13E
330
136
100
AcDbEntity
  8
0
370
     0
100
AcDbVertex
100
AcDb2dVertex
 10
596.935852
 20
175.303314
 30
0.0
  0
VERTEX
  5
13F
330
136
100
AcDbEntity
  8
0
370
     0
100
AcDbVertex
100
AcDb2dVertex
 10
597.182983
 20
175.651291
 30
0.0
  0
VERTEX
  5
140
330
136
100
AcDbEntity
  8
0
370
     0
100
AcDbVertex
100
AcDb2dVertex
 10
597.273804
 20
176.110229
 30
0.0
  0
VERTEX
  5
141
330
136
100
AcDbEntity
  8
0
370
     0
100
AcDbVertex
100
AcDb2dVertex
 10
597.19812
 20
176.523773
 30
0.0
  0
VERTEX
  5
142
330
136
100
AcDbEntity
  8
0
370
     0
100
AcDbVertex
100
AcDb2dVertex
 10
596.986328
 20
176.791061
 30
0.0
  0
VERTEX
  5
143
330
136
100
AcDbEntity
  8
0
370
     0
100
AcDbVertex
100
AcDb2dVertex
 10
596.643372
 20
176.967575
 30
0.0
  0
VERTEX
  5
144
330
136
100
AcDbEntity
  8
0
370
     0
100
AcDbVertex
100
AcDb2dVertex
 10
596.184448
 20
177.098709
 30
0.0
  0
VERTEX
  5
145
330
136
100
AcDbEntity
  8
0
370
     0
100
AcDbVertex
100
AcDb2dVertex
 10
595.791077
 20
177.194519
 30
0.0
  0
VERTEX
  5
146
330
136
100
AcDbEntity
  8
0
370
     0
100
AcDbVertex
100
AcDb2dVertex
 10
595.533875
 20
177.305481
 30
0.0
  0
VERTEX
  5
147
330
136
100
AcDbEntity
  8
0
370
     0
100
AcDbVertex
100
AcDb2dVertex
 10
595.387634
 20
177.466858
 30
0.0
  0
VERTEX
  5
148
330
136
100
AcDbEntity
  8
0
370
     0
100
AcDbVertex
100
AcDb2dVertex
 10
595.342224
 20
177.719025
 30
0.0
  0
VERTEX
  5
149
330
136
100
AcDbEntity
  8
0
370
     0
100
AcDbVertex
100
AcDb2dVertex
 10
595.387634
 20
177.945969
 30
0.0
  0
VERTEX
  5
14A
330
136
100
AcDbEntity
  8
0
370
     0
100
AcDbVertex
100
AcDb2dVertex
 10
595.518738
 20
178.117432
 30
0.0
  0
VERTEX
  5
14B
330
136
100
AcDbEntity
  8
0
370
     0
100
AcDbVertex
100
AcDb2dVertex
 10
595.720459
 20
178.233429
 30
0.0
  0
VERTEX
  5
14C
330
136
100
AcDbEntity
  8
0
370
     0
100
AcDbVertex
100
AcDb2dVertex
 10
595.997864
 20
178.273773
 30
0.0
  0
VERTEX
  5
14D
330
136
100
AcDbEntity
  8
0
370
     0
100
AcDbVertex
100
AcDb2dVertex
 10
596.280273
 20
178.223343
 30
0.0
  0
VERTEX
  5
14E
330
136
100
AcDbEntity
  8
0
370
     0
100
AcDbVertex
100
AcDb2dVertex
 10
596.502136
 20
178.087173
 30
0.0
  0
VERTEX
  5
14F
330
136
100
AcDbEntity
  8
0
370
     0
100
AcDbVertex
100
AcDb2dVertex
 10
596.648438
 20
177.860229
 30
0.0
  0
VERTEX
  5
150
330
136
100
AcDbEntity
  8
0
370
     0
100
AcDbVertex
100
AcDb2dVertex
 10
596.718994
 20
177.552597
 30
0.0
  0
VERTEX
  5
151
330
136
100
AcDbEntity
  8
0
370
     0
100
AcDbVertex
100
AcDb2dVertex
 10
597.177979
 20
177.552597
 30
0.0
  0
VERTEX
  5
152
330
136
100
AcDbEntity
  8
0
370
     0
100
AcDbVertex
100
AcDb2dVertex
 10
597.177979
 20
177.562683
 30
0.0
  0
VERTEX
  5
153
330
136
100
AcDbEntity
  8
0
370
     0
100
AcDbVertex
100
AcDb2dVertex
 10
597.09729
 20
178.036743
 30
0.0
  0
VERTEX
  5
154
330
136
100
AcDbEntity
  8
0
370
     0
100
AcDbVertex
100
AcDb2dVertex
 10
596.860229
 20
178.389771
 30
0.0
  0
VERTEX
  5
155
330
136
100
AcDbEntity
  8
0
370
     0
100
AcDbVertex
100
AcDb2dVertex
 10
596.487061
 20
178.611679
 30
0.0
  0
VERTEX
  5
156
330
136
100
AcDbEntity
  8
0
370
     0
100
AcDbVertex
100
AcDb2dVertex
 10
595.982727
 20
178.687317
 30
0.0
  0
VERTEX
  5
157
330
136
100
AcDbEntity
  8
0
370
     0
100
AcDbVertex
100
AcDb2dVertex
 10
595.528809
 20
178.611679
 30
0.0
  0
VERTEX
  5
158
330
136
100
AcDbEntity
  8
0
370
     0
100
AcDbVertex
100
AcDb2dVertex
 10
595.175781
 20
178.399857
 30
0.0
  0
VERTEX
  5
159
330
136
100
AcDbEntity
  8
0
370
     0
100
AcDbVertex
100
AcDb2dVertex
 10
594.948853
 20
178.072052
 30
0.0
  0
VERTEX
  5
15A
330
136
100
AcDbEntity
  8
0
370
     0
100
AcDbVertex
100
AcDb2dVertex
 10
594.868164
 20
177.648422
 30
0.0
  0
VERTEX
  5
15B
330
136
100
AcDbEntity
  8
0
370
     0
100
AcDbVertex
100
AcDb2dVertex
 10
594.933716
 20
177.270172
 30
0.0
  0
VERTEX
  5
15C
330
136
100
AcDbEntity
  8
0
370
     0
100
AcDbVertex
100
AcDb2dVertex
 10
595.125366
 20
177.01297
 30
0.0
  0
VERTEX
  5
15D
330
136
100
AcDbEntity
  8
0
370
     0
100
AcDbVertex
100
AcDb2dVertex
 10
595.427979
 20
176.841492
 30
0.0
  0
VERTEX
  5
15E
330
136
100
AcDbEntity
  8
0
370
     0
100
AcDbVertex
100
AcDb2dVertex
 10
595.841492
 20
176.710373
 30
0.0
  0
VERTEX
  5
15F
330
136
100
AcDbEntity
  8
0
370
     0
100
AcDbVertex
100
AcDb2dVertex
 10
596.25
 20
176.594376
 30
0.0
  0
VERTEX
  5
160
330
136
100
AcDbEntity
  8
0
370
     0
100
AcDbVertex
100
AcDb2dVertex
 10
596.557617
 20
176.483429
 30
0.0
  0
VERTEX
  5
161
330
136
100
AcDbEntity
  8
0
370
     0
100
AcDbVertex
100
AcDb2dVertex
 10
596.744263
 20
176.322052
 30
0.0
  0
VERTEX
  5
162
330
136
100
AcDbEntity
  8
0
370
     0
100
AcDbVertex
100
AcDb2dVertex
 10
596.809814
 20
176.059799
 30
0.0
  0
VERTEX
  5
163
330
136
100
AcDbEntity
  8
0
370
     0
100
AcDbVertex
100
AcDb2dVertex
 10
596.749268
 20
175.792511
 30
0.0
  0
VERTEX
  5
164
330
136
100
AcDbEntity
  8
0
370
     0
100
AcDbVertex
100
AcDb2dVertex
 10
596.592957
 20
175.590775
 30
0.0
  0
VERTEX
  5
165
330
136
100
AcDbEntity
  8
0
370
     0
100
AcDbVertex
100
AcDb2dVertex
 10
596.355896
 20
175.464691
 30
0.0
  0
VERTEX
  5
166
330
136
100
AcDbEntity
  8
0
370
     0
100
AcDbVertex
100
AcDb2dVertex
 10
596.048279
 20
175.424347
 30
0.0
  0
VERTEX
  5
167
330
136
100
AcDbEntity
  8
0
370
     0
100
AcDbVertex
100
AcDb2dVertex
 10
595.705322
 20
175.479828
 30
0.0
  0
VERTEX
  5
168
330
136
100
AcDbEntity
  8
0
370
     0
100
AcDbVertex
100
AcDb2dVertex
 10
595.443054
 20
175.641205
 30
0.0
  0
VERTEX
  5
169
330
136
100
AcDbEntity
  8
0
370
     0
100
AcDbVertex
100
AcDb2dVertex
 10
595.276672
 20
175.903458
 30
0.0
  0
SEQEND
  5
16A
330
136
100
AcDbEntity
  8
0
 62
     7
370
    13
  0
POLYLINE
  5
16B
330
1F
100
AcDbEntity
  8
0
 62
     7
370
    13
100
AcDb2dPolyline
 66
     1
 10
0.0
 20
0.0
 30
0.0
 70
     1
  0
VERTEX
  5
16C
330
16B
100
AcDbEntity
  8
0
370
     0
100
AcDbVertex
100
AcDb2dVertex
 10
599.734863
 20
176.907059
 30
0.0
  0
VERTEX
  5
16D
330
16B
100
AcDbEntity
  8
0
370
     0
100
AcDbVertex
100
AcDb2dVertex
 10
600.173645
 20
176.907059
 30
0.0
  0
VERTEX
  5
16E
330
16B
100
AcDbEntity
  8
0
370
     0
100
AcDbVertex
100
AcDb2dVertex
 10
600.082825
 20
177.310516
 30
0.0
  0
VERTEX
  5
16F
330
16B
100
AcDbEntity
  8
0
370
     0
100
AcDbVertex
100
AcDb2dVertex
 10
599.865967
 20
177.62825
 30
0.0
  0
VERTEX
  5
170
330
16B
100
AcDbEntity
  8
0
370
     0
100
AcDbVertex
100
AcDb2dVertex
 10
599.528076
 20
177.824936
 30
0.0
  0
VERTEX
  5
171
330
16B
100
AcDbEntity
  8
0
370
     0
100
AcDbVertex
100
AcDb2dVertex
 10
599.089355
 20
177.900574
 30
0.0
  0
VERTEX
  5
172
330
16B
100
AcDbEntity
  8
0
370
     0
100
AcDbVertex
100
AcDb2dVertex
 10
598.605164
 20
177.799713
 30
0.0
  0
VERTEX
  5
173
330
16B
100
AcDbEntity
  8
0
370
     0
100
AcDbVertex
100
AcDb2dVertex
 10
598.237061
 20
177.517288
 30
0.0
  0
VERTEX
  5
174
330
16B
100
AcDbEntity
  8
0
370
     0
100
AcDbVertex
100
AcDb2dVertex
 10
598.005066
 20
177.058365
 30
0.0
  0
VERTEX
  5
175
330
16B
100
AcDbEntity
  8
0
370
     0
100
AcDbVertex
100
AcDb2dVertex
 10
597.924377
 20
176.443085
 30
0.0
  0
VERTEX
  5
176
330
16B
100
AcDbEntity
  8
0
370
     0
100
AcDbVertex
100
AcDb2dVertex
 10
598.0
 20
175.832855
 30
0.0
  0
VERTEX
  5
177
330
16B
100
AcDbEntity
  8
0
370
     0
100
AcDbVertex
100
AcDb2dVertex
 10
598.226929
 20
175.378967
 30
0.0
  0
VERTEX
  5
178
330
16B
100
AcDbEntity
  8
0
370
     0
100
AcDbVertex
100
AcDb2dVertex
 10
598.585022
 20
175.096542
 30
0.0
  0
VERTEX
  5
179
330
16B
100
AcDbEntity
  8
0
370
     0
100
AcDbVertex
100
AcDb2dVertex
 10
599.074219
 20
175.000717
 30
0.0
  0
VERTEX
  5
17A
330
16B
100
AcDbEntity
  8
0
370
     0
100
AcDbVertex
100
AcDb2dVertex
 10
599.507935
 20
175.07637
 30
0.0
  0
VERTEX
  5
17B
330
16B
100
AcDbEntity
  8
0
370
     0
100
AcDbVertex
100
AcDb2dVertex
 10
599.845825
 20
175.288177
 30
0.0
  0
VERTEX
  5
17C
330
16B
100
AcDbEntity
  8
0
370
     0
100
AcDbVertex
100
AcDb2dVertex
 10
600.07782
 20
175.621033
 30
0.0
  0
VERTEX
  5
17D
330
16B
100
AcDbEntity
  8
0
370
     0
100
AcDbVertex
100
AcDb2dVertex
 10
600.17865
 20
176.064835
 30
0.0
  0
VERTEX
  5
17E
330
16B
100
AcDbEntity
  8
0
370
     0
100
AcDbVertex
100
AcDb2dVertex
 10
599.755066
 20
176.064835
 30
0.0
  0
VERTEX
  5
17F
330
16B
100
AcDbEntity
  8
0
370
     0
100
AcDbVertex
100
AcDb2dVertex
 10
599.679382
 20
175.782425
 30
0.0
  0
VERTEX
  5
180
330
16B
100
AcDbEntity
  8
0
370
     0
100
AcDbVertex
100
AcDb2dVertex
 10
599.538208
 20
175.570602
 30
0.0
  0
VERTEX
  5
181
330
16B
100
AcDbEntity
  8
0
370
     0
100
AcDbVertex
100
AcDb2dVertex
 10
599.336426
 20
175.439484
 30
0.0
  0
VERTEX
  5
182
330
16B
100
AcDbEntity
  8
0
370
     0
100
AcDbVertex
100
AcDb2dVertex
 10
599.089355
 20
175.399139
 30
0.0
  0
VERTEX
  5
183
330
16B
100
AcDbEntity
  8
0
370
     0
100
AcDbVertex
100
AcDb2dVertex
 10
598.781677
 20
175.464691
 30
0.0
  0
VERTEX
  5
184
330
16B
100
AcDbEntity
  8
0
370
     0
100
AcDbVertex
100
AcDb2dVertex
 10
598.559814
 20
175.666428
 30
0.0
  0
VERTEX
  5
185
330
16B
100
AcDbEntity
  8
0
370
     0
100
AcDbVertex
100
AcDb2dVertex
 10
598.423645
 20
175.994232
 30
0.0
  0
VERTEX
  5
186
330
16B
100
AcDbEntity
  8
0
370
     0
100
AcDbVertex
100
AcDb2dVertex
 10
598.378235
 20
176.458221
 30
0.0
  0
VERTEX
  5
187
330
16B
100
AcDbEntity
  8
0
370
     0
100
AcDbVertex
100
AcDb2dVertex
 10
598.423645
 20
176.912109
 30
0.0
  0
VERTEX
  5
188
330
16B
100
AcDbEntity
  8
0
370
     0
100
AcDbVertex
100
AcDb2dVertex
 10
598.564819
 20
177.239914
 30
0.0
  0
VERTEX
  5
189
330
16B
100
AcDbEntity
  8
0
370
     0
100
AcDbVertex
100
AcDb2dVertex
 10
598.791809
 20
177.44165
 30
0.0
  0
VERTEX
  5
18A
330
16B
100
AcDbEntity
  8
0
370
     0
100
AcDbVertex
100
AcDb2dVertex
 10
599.089355
 20
177.512253
 30
0.0
  0
VERTEX
  5
18B
330
16B
100
AcDbEntity
  8
0
370
     0
100
AcDbVertex
100
AcDb2dVertex
 10
599.351562
 20
177.466858
 30
0.0
  0
VERTEX
  5
18C
330
16B
100
AcDbEntity
  8
0
370
     0
100
AcDbVertex
100
AcDb2dVertex
 10
599.548279
 20
177.350861
 30
0.0
  0
VERTEX
  5
18D
330
16B
100
AcDbEntity
  8
0
370
     0
100
AcDbVertex
100
AcDb2dVertex
 10
599.679382
 20
177.159225
 30
0.0
  0
SEQEND
  5
18E
330
16B
100
AcDbEntity
  8
0
 62
     7
370
    13
  0
POLYLINE
  5
18F
330
1F
100
AcDbEntity
  8
0
 62
     7
370
    13
100
AcDb2dPolyline
 66
     1
 10
0.0
 20
0.0
 30
0.0
 70
     1
  0
VERTEX
  5
190
330
18F
100
AcDbEntity
  8
0
370
     0
100
AcDbVertex
100
AcDb2dVertex
 10
602.654907
 20
175.44957
 30
0.0
  0
VERTEX
  5
191
330
18F
100
AcDbEntity
  8
0
370
     0
100
AcDbVertex
100
AcDb2dVertex
 10
602.654907
 20
175.434433
 30
0.0
  0
VERTEX
  5
192
330
18F
100
AcDbEntity
  8
0
370
     0
100
AcDbVertex
100
AcDb2dVertex
 10
602.680115
 20
175.26297
 30
0.0
  0
VERTEX
  5
193
330
18F
100
AcDbEntity
  8
0
370
     0
100
AcDbVertex
100
AcDb2dVertex
 10
602.755737
 20
175.141937
 30
0.0
  0
VERTEX
  5
194
330
18F
100
AcDbEntity
  8
0
370
     0
100
AcDbVertex
100
AcDb2dVertex
 10
603.073486
 20
175.046112
 30
0.0
  0
VERTEX
  5
195
330
18F
100
AcDbEntity
  8
0
370
     0
100
AcDbVertex
100
AcDb2dVertex
 10
603.320618
 20
175.086456
 30
0.0
  0
VERTEX
  5
196
330
18F
100
AcDbEntity
  8
0
370
     0
100
AcDbVertex
100
AcDb2dVertex
 10
603.320618
 20
175.429398
 30
0.0
  0
VERTEX
  5
197
330
18F
100
AcDbEntity
  8
0
370
     0
100
AcDbVertex
100
AcDb2dVertex
 10
603.214722
 20
175.414261
 30
0.0
  0
VERTEX
  5
198
330
18F
100
AcDbEntity
  8
0
370
     0
100
AcDbVertex
100
AcDb2dVertex
 10
603.073486
 20
175.479828
 30
0.0
  0
VERTEX
  5
199
330
18F
100
AcDbEntity
  8
0
370
     0
100
AcDbVertex
100
AcDb2dVertex
 10
603.048279
 20
175.681564
 30
0.0
  0
VERTEX
  5
19A
330
18F
100
AcDbEntity
  8
0
370
     0
100
AcDbVertex
100
AcDb2dVertex
 10
603.048279
 20
177.083572
 30
0.0
  0
VERTEX
  5
19B
330
18F
100
AcDbEntity
  8
0
370
     0
100
AcDbVertex
100
AcDb2dVertex
 10
602.987732
 20
177.44165
 30
0.0
  0
VERTEX
  5
19C
330
18F
100
AcDbEntity
  8
0
370
     0
100
AcDbVertex
100
AcDb2dVertex
 10
602.811218
 20
177.693802
 30
0.0
  0
VERTEX
  5
19D
330
18F
100
AcDbEntity
  8
0
370
     0
100
AcDbVertex
100
AcDb2dVertex
 10
602.503601
 20
177.845108
 30
0.0
  0
VERTEX
  5
19E
330
18F
100
AcDbEntity
  8
0
370
     0
100
AcDbVertex
100
AcDb2dVertex
 10
602.069885
 20
177.900574
 30
0.0
  0
VERTEX
  5
19F
330
18F
100
AcDbEntity
  8
0
370
     0
100
AcDbVertex
100
AcDb2dVertex
 10
601.64624
 20
177.840057
 30
0.0
  0
VERTEX
  5
1A0
330
18F
100
AcDbEntity
  8
0
370
     0
100
AcDbVertex
100
AcDb2dVertex
 10
601.333557
 20
177.668594
 30
0.0
  0
VERTEX
  5
1A1
330
18F
100
AcDbEntity
  8
0
370
     0
100
AcDbVertex
100
AcDb2dVertex
 10
601.136902
 20
177.401291
 30
0.0
  0
VERTEX
  5
1A2
330
18F
100
AcDbEntity
  8
0
370
     0
100
AcDbVertex
100
AcDb2dVertex
 10
601.07135
 20
177.048279
 30
0.0
  0
VERTEX
  5
1A3
330
18F
100
AcDbEntity
  8
0
370
     0
100
AcDbVertex
100
AcDb2dVertex
 10
601.07135
 20
177.018005
 30
0.0
  0
VERTEX
  5
1A4
330
18F
100
AcDbEntity
  8
0
370
     0
100
AcDbVertex
100
AcDb2dVertex
 10
601.469727
 20
177.018005
 30
0.0
  0
VERTEX
  5
1A5
330
18F
100
AcDbEntity
  8
0
370
     0
100
AcDbVertex
100
AcDb2dVertex
 10
601.505066
 20
177.229828
 30
0.0
  0
VERTEX
  5
1A6
330
18F
100
AcDbEntity
  8
0
370
     0
100
AcDbVertex
100
AcDb2dVertex
 10
601.615967
 20
177.381119
 30
0.0
  0
VERTEX
  5
1A7
330
18F
100
AcDbEntity
  8
0
370
     0
100
AcDbVertex
100
AcDb2dVertex
 10
601.797546
 20
177.471909
 30
0.0
  0
VERTEX
  5
1A8
330
18F
100
AcDbEntity
  8
0
370
     0
100
AcDbVertex
100
AcDb2dVertex
 10
602.054749
 20
177.507202
 30
0.0
  0
VERTEX
  5
1A9
330
18F
100
AcDbEntity
  8
0
370
     0
100
AcDbVertex
100
AcDb2dVertex
 10
602.30188
 20
177.481995
 30
0.0
  0
VERTEX
  5
1AA
330
18F
100
AcDbEntity
  8
0
370
     0
100
AcDbVertex
100
AcDb2dVertex
 10
602.478394
 20
177.406342
 30
0.0
  0
VERTEX
  5
1AB
330
18F
100
AcDbEntity
  8
0
370
     0
100
AcDbVertex
100
AcDb2dVertex
 10
602.58429
 20
177.275223
 30
0.0
  0
VERTEX
  5
1AC
330
18F
100
AcDbEntity
  8
0
370
     0
100
AcDbVertex
100
AcDb2dVertex
 10
602.619568
 20
177.093658
 30
0.0
  0
VERTEX
  5
1AD
330
18F
100
AcDbEntity
  8
0
370
     0
100
AcDbVertex
100
AcDb2dVertex
 10
602.599426
 20
176.881851
 30
0.0
  0
VERTEX
  5
1AE
330
18F
100
AcDbEntity
  8
0
370
     0
100
AcDbVertex
100
AcDb2dVertex
 10
602.518738
 20
176.77594
 30
0.0
  0
VERTEX
  5
1AF
330
18F
100
AcDbEntity
  8
0
370
     0
100
AcDbVertex
100
AcDb2dVertex
 10
602.317017
 20
176.72551
 30
0.0
  0
VERTEX
  5
1B0
330
18F
100
AcDbEntity
  8
0
370
     0
100
AcDbVertex
100
AcDb2dVertex
 10
601.938782
 20
176.685165
 30
0.0
  0
VERTEX
  5
1B1
330
18F
100
AcDbEntity
  8
0
370
     0
100
AcDbVertex
100
AcDb2dVertex
 10
601.505066
 20
176.594376
 30
0.0
  0
VERTEX
  5
1B2
330
18F
100
AcDbEntity
  8
0
370
     0
100
AcDbVertex
100
AcDb2dVertex
 10
601.197388
 20
176.432999
 30
0.0
  0
VERTEX
  5
1B3
330
18F
100
AcDbEntity
  8
0
370
     0
100
AcDbVertex
100
AcDb2dVertex
 10
601.015869
 20
176.180832
 30
0.0
  0
VERTEX
  5
1B4
330
18F
100
AcDbEntity
  8
0
370
     0
100
AcDbVertex
100
AcDb2dVertex
 10
600.960388
 20
175.807632
 30
0.0
  0
VERTEX
  5
1B5
330
18F
100
AcDbEntity
  8
0
370
     0
100
AcDbVertex
100
AcDb2dVertex
 10
601.010803
 20
175.474777
 30
0.0
  0
VERTEX
  5
1B6
330
18F
100
AcDbEntity
  8
0
370
     0
100
AcDbVertex
100
AcDb2dVertex
 10
601.167175
 20
175.227661
 30
0.0
  0
VERTEX
  5
1B7
330
18F
100
AcDbEntity
  8
0
370
     0
100
AcDbVertex
100
AcDb2dVertex
 10
601.419312
 20
175.07132
 30
0.0
  0
VERTEX
  5
1B8
330
18F
100
AcDbEntity
  8
0
370
     0
100
AcDbVertex
100
AcDb2dVertex
 10
601.767273
 20
175.015854
 30
0.0
  0
VERTEX
  5
1B9
330
18F
100
AcDbEntity
  8
0
370
     0
100
AcDbVertex
100
AcDb2dVertex
 10
602.236328
 20
175.121765
 30
0.0
  0
SEQEND
  5
1BA
330
18F
100
AcDbEntity
  8
0
 62
     7
370
    13
  0
POLYLINE
  5
1BB
330
1F
100
AcDbEntity
  8
0
 62
     7
370
    13
100
AcDb2dPolyline
 66
     1
 10
0.0
 20
0.0
 30
0.0
 70
     1
  0
VERTEX
  5
1BC
330
1BB
100
AcDbEntity
  8
0
370
     0
100
AcDbVertex
100
AcDb2dVertex
 10
602.604492
 20
176.044662
 30
0.0
  0
VERTEX
  5
1BD
330
1BB
100
AcDbEntity
  8
0
370
     0
100
AcDbVertex
100
AcDb2dVertex
 10
602.543945
 20
175.782425
 30
0.0
  0
VERTEX
  5
1BE
330
1BB
100
AcDbEntity
  8
0
370
     0
100
AcDbVertex
100
AcDb2dVertex
 10
602.382568
 20
175.580688
 30
0.0
  0
VERTEX
  5
1BF
330
1BB
100
AcDbEntity
  8
0
370
     0
100
AcDbVertex
100
AcDb2dVertex
 10
602.140503
 20
175.44957
 30
0.0
  0
VERTEX
  5
1C0
330
1BB
100
AcDbEntity
  8
0
370
     0
100
AcDbVertex
100
AcDb2dVertex
 10
601.842957
 20
175.404175
 30
0.0
  0
VERTEX
  5
1C1
330
1BB
100
AcDbEntity
  8
0
370
     0
100
AcDbVertex
100
AcDb2dVertex
 10
601.651306
 20
175.429398
 30
0.0
  0
VERTEX
  5
1C2
330
1BB
100
AcDbEntity
  8
0
370
     0
100
AcDbVertex
100
AcDb2dVertex
 10
601.515137
 20
175.510086
 30
0.0
  0
VERTEX
  5
1C3
330
1BB
100
AcDbEntity
  8
0
370
     0
100
AcDbVertex
100
AcDb2dVertex
 10
601.429382
 20
175.651291
 30
0.0
  0
VERTEX
  5
1C4
330
1BB
100
AcDbEntity
  8
0
370
     0
100
AcDbVertex
100
AcDb2dVertex
 10
601.404175
 20
175.847977
 30
0.0
  0
VERTEX
  5
1C5
330
1BB
100
AcDbEntity
  8
0
370
     0
100
AcDbVertex
100
AcDb2dVertex
 10
601.424377
 20
176.02449
 30
0.0
  0
VERTEX
  5
1C6
330
1BB
100
AcDbEntity
  8
0
370
     0
100
AcDbVertex
100
AcDb2dVertex
 10
601.505066
 20
176.150574
 30
0.0
  0
VERTEX
  5
1C7
330
1BB
100
AcDbEntity
  8
0
370
     0
100
AcDbVertex
100
AcDb2dVertex
 10
601.82782
 20
176.291794
 30
0.0
  0
VERTEX
  5
1C8
330
1BB
100
AcDbEntity
  8
0
370
     0
100
AcDbVertex
100
AcDb2dVertex
 10
602.236328
 20
176.35231
 30
0.0
  0
VERTEX
  5
1C9
330
1BB
100
AcDbEntity
  8
0
370
     0
100
AcDbVertex
100
AcDb2dVertex
 10
602.604492
 20
176.473343
 30
0.0
  0
SEQEND
  5
1CA
330
1BB
100
AcDbEntity
  8
0
 62
     7
370
    13
  0
POLYLINE
  5
1CB
330
1F
100
AcDbEntity
  8
0
 62
     7
370
    13
100
AcDb2dPolyline
 66
     1
 10
0.0
 20
0.0
 30
0.0
 70
     1
  0
VERTEX
  5
1CC
330
1CB
100
AcDbEntity
  8
0
370
     0
100
AcDbVertex
100
AcDb2dVertex
 10
604.964722
 20
178.344376
 30
0.0
  0
VERTEX
  5
1CD
330
1CB
100
AcDbEntity
  8
0
370
     0
100
AcDbVertex
100
AcDb2dVertex
 10
604.964722
 20
175.469742
 30
0.0
  0
VERTEX
  5
1CE
330
1CB
100
AcDbEntity
  8
0
370
     0
100
AcDbVertex
100
AcDb2dVertex
 10
604.05188
 20
175.469742
 30
0.0
  0
VERTEX
  5
1CF
330
1CB
100
AcDbEntity
  8
0
370
     0
100
AcDbVertex
100
AcDb2dVertex
 10
604.05188
 20
175.096542
 30
0.0
  0
VERTEX
  5
1D0
330
1CB
100
AcDbEntity
  8
0
370
     0
100
AcDbVertex
100
AcDb2dVertex
 10
606.316284
 20
175.096542
 30
0.0
  0
VERTEX
  5
1D1
330
1CB
100
AcDbEntity
  8
0
370
     0
100
AcDbVertex
100
AcDb2dVertex
 10
606.316284
 20
175.469742
 30
0.0
  0
VERTEX
  5
1D2
330
1CB
100
AcDbEntity
  8
0
370
     0
100
AcDbVertex
100
AcDb2dVertex
 10
605.408508
 20
175.469742
 30
0.0
  0
VERTEX
  5
1D3
330
1CB
100
AcDbEntity
  8
0
370
     0
100
AcDbVertex
100
AcDb2dVertex
 10
605.408508
 20
178.717575
 30
0.0
  0
VERTEX
  5
1D4
330
1CB
100
AcDbEntity
  8
0
370
     0
100
AcDbVertex
100
AcDb2dVertex
 10
604.268738
 20
178.717575
 30
0.0
  0
VERTEX
  5
1D5
330
1CB
100
AcDbEntity
  8
0
370
     0
100
AcDbVertex
100
AcDb2dVertex
 10
604.268738
 20
178.344376
 30
0.0
  0
SEQEND
  5
1D6
330
1CB
100
AcDbEntity
  8
0
 62
     7
370
    13
  0
POLYLINE
  5
1D7
330
1F
100
AcDbEntity
  8
0
 62
     7
370
    13
100
AcDb2dPolyline
 66
     1
 10
0.0
 20
0.0
 30
0.0
 70
     1
  0
VERTEX
  5
1D8
330
1D7
100
AcDbEntity
  8
0
370
     0
100
AcDbVertex
100
AcDb2dVertex
 10
607.50647
 20
176.322052
 30
0.0
  0
VERTEX
  5
1D9
330
1D7
100
AcDbEntity
  8
0
370
     0
100
AcDbVertex
100
AcDb2dVertex
 10
609.281677
 20
176.322052
 30
0.0
  0
VERTEX
  5
1DA
330
1D7
100
AcDbEntity
  8
0
370
     0
100
AcDbVertex
100
AcDb2dVertex
 10
609.286743
 20
176.528824
 30
0.0
  0
VERTEX
  5
1DB
330
1D7
100
AcDbEntity
  8
0
370
     0
100
AcDbVertex
100
AcDb2dVertex
 10
609.206055
 20
177.108795
 30
0.0
  0
VERTEX
  5
1DC
330
1D7
100
AcDbEntity
  8
0
370
     0
100
AcDbVertex
100
AcDb2dVertex
 10
608.984131
 20
177.542511
 30
0.0
  0
VERTEX
  5
1DD
330
1D7
100
AcDbEntity
  8
0
370
     0
100
AcDbVertex
100
AcDb2dVertex
 10
608.631104
 20
177.804749
 30
0.0
  0
VERTEX
  5
1DE
330
1D7
100
AcDbEntity
  8
0
370
     0
100
AcDbVertex
100
AcDb2dVertex
 10
608.162109
 20
177.900574
 30
0.0
  0
VERTEX
  5
1DF
330
1D7
100
AcDbEntity
  8
0
370
     0
100
AcDbVertex
100
AcDb2dVertex
 10
607.703186
 20
177.799713
 30
0.0
  0
VERTEX
  5
1E0
330
1D7
100
AcDbEntity
  8
0
370
     0
100
AcDbVertex
100
AcDb2dVertex
 10
607.350159
 20
177.517288
 30
0.0
  0
VERTEX
  5
1E1
330
1D7
100
AcDbEntity
  8
0
370
     0
100
AcDbVertex
100
AcDb2dVertex
 10
607.123169
 20
177.058365
 30
0.0
  0
VERTEX
  5
1E2
330
1D7
100
AcDbEntity
  8
0
370
     0
100
AcDbVertex
100
AcDb2dVertex
 10
607.04248
 20
176.453171
 30
0.0
  0
VERTEX
  5
1E3
330
1D7
100
AcDbEntity
  8
0
370
     0
100
AcDbVertex
100
AcDb2dVertex
 10
607.118164
 20
175.832855
 30
0.0
  0
VERTEX
  5
1E4
330
1D7
100
AcDbEntity
  8
0
370
     0
100
AcDbVertex
100
AcDb2dVertex
 10
607.345093
 20
175.378967
 30
0.0
  0
VERTEX
  5
1E5
330
1D7
100
AcDbEntity
  8
0
370
     0
100
AcDbVertex
100
AcDb2dVertex
 10
607.693054
 20
175.096542
 30
0.0
  0
VERTEX
  5
1E6
330
1D7
100
AcDbEntity
  8
0
370
     0
100
AcDbVertex
100
AcDb2dVertex
 10
608.146973
 20
175.000717
 30
0.0
  0
VERTEX
  5
1E7
330
1D7
100
AcDbEntity
  8
0
370
     0
100
AcDbVertex
100
AcDb2dVertex
 10
608.540344
 20
175.066284
 30
0.0
  0
VERTEX
  5
1E8
330
1D7
100
AcDbEntity
  8
0
370
     0
100
AcDbVertex
100
AcDb2dVertex
 10
608.863098
 20
175.237747
 30
0.0
  0
VERTEX
  5
1E9
330
1D7
100
AcDbEntity
  8
0
370
     0
100
AcDbVertex
100
AcDb2dVertex
 10
609.100159
 20
175.510086
 30
0.0
  0
VERTEX
  5
1EA
330
1D7
100
AcDbEntity
  8
0
370
     0
100
AcDbVertex
100
AcDb2dVertex
 10
609.236328
 20
175.873199
 30
0.0
  0
VERTEX
  5
1EB
330
1D7
100
AcDbEntity
  8
0
370
     0
100
AcDbVertex
100
AcDb2dVertex
 10
608.797546
 20
175.873199
 30
0.0
  0
VERTEX
  5
1EC
330
1D7
100
AcDbEntity
  8
0
370
     0
100
AcDbVertex
100
AcDb2dVertex
 10
608.706787
 20
175.671463
 30
0.0
  0
VERTEX
  5
1ED
330
1D7
100
AcDbEntity
  8
0
370
     0
100
AcDbVertex
100
AcDb2dVertex
 10
608.575623
 20
175.520172
 30
0.0
  0
VERTEX
  5
1EE
330
1D7
100
AcDbEntity
  8
0
370
     0
100
AcDbVertex
100
AcDb2dVertex
 10
608.202454
 20
175.399139
 30
0.0
  0
VERTEX
  5
1EF
330
1D7
100
AcDbEntity
  8
0
370
     0
100
AcDbVertex
100
AcDb2dVertex
 10
607.914978
 20
175.454605
 30
0.0
  0
VERTEX
  5
1F0
330
1D7
100
AcDbEntity
  8
0
370
     0
100
AcDbVertex
100
AcDb2dVertex
 10
607.69812
 20
175.631119
 30
0.0
  0
VERTEX
  5
1F1
330
1D7
100
AcDbEntity
  8
0
370
     0
100
AcDbVertex
100
AcDb2dVertex
 10
607.556946
 20
175.918594
 30
0.0
  0
VERTEX
  5
1F2
330
1D7
100
AcDbEntity
  8
0
370
     0
100
AcDbVertex
100
AcDb2dVertex
 10
607.50647
 20
176.306915
 30
0.0
  0
SEQEND
  5
1F3
330
1D7
100
AcDbEntity
  8
0
 62
     7
370
    13
  0
POLYLINE
  5
1F4
330
1F
100
AcDbEntity
  8
0
 62
     7
370
    13
100
AcDb2dPolyline
 66
     1
 10
0.0
 20
0.0
 30
0.0
 70
     1
  0
VERTEX
  5
1F5
330
1F4
100
AcDbEntity
  8
0
370
     0
100
AcDbVertex
100
AcDb2dVertex
 10
607.50647
 20
176.695251
 30
0.0
  0
VERTEX
  5
1F6
330
1F4
100
AcDbEntity
  8
0
370
     0
100
AcDbVertex
100
AcDb2dVertex
 10
607.561951
 20
177.043228
 30
0.0
  0
VERTEX
  5
1F7
330
1F4
100
AcDbEntity
  8
0
370
     0
100
AcDbVertex
100
AcDb2dVertex
 10
607.69812
 20
177.30043
 30
0.0
  0
VERTEX
  5
1F8
330
1F4
100
AcDbEntity
  8
0
370
     0
100
AcDbVertex
100
AcDb2dVertex
 10
607.904907
 20
177.456772
 30
0.0
  0
VERTEX
  5
1F9
330
1F4
100
AcDbEntity
  8
0
370
     0
100
AcDbVertex
100
AcDb2dVertex
 10
608.177246
 20
177.512253
 30
0.0
  0
VERTEX
  5
1FA
330
1F4
100
AcDbEntity
  8
0
370
     0
100
AcDbVertex
100
AcDb2dVertex
 10
608.444519
 20
177.456772
 30
0.0
  0
VERTEX
  5
1FB
330
1F4
100
AcDbEntity
  8
0
370
     0
100
AcDbVertex
100
AcDb2dVertex
 10
608.651306
 20
177.30043
 30
0.0
  0
VERTEX
  5
1FC
330
1F4
100
AcDbEntity
  8
0
370
     0
100
AcDbVertex
100
AcDb2dVertex
 10
608.777405
 20
177.043228
 30
0.0
  0
VERTEX
  5
1FD
330
1F4
100
AcDbEntity
  8
0
370
     0
100
AcDbVertex
100
AcDb2dVertex
 10
608.822754
 20
176.695251
 30
0.0
  0
SEQEND
  5
1FE
330
1F4
100
AcDbEntity
  8
0
 62
     7
370
    13
  0
POLYLINE
  5
1FF
330
1F
100
AcDbEntity
  8
0
 62
     7
370
    13
100
AcDb2dPolyline
 66
     1
 10
0.0
 20
0.0
 30
0.0
 70
     1
  0
VERTEX
  5
200
330
1FF
100
AcDbEntity
  8
0
370
     0
100
AcDbVertex
100
AcDb2dVertex
 10
610.850159
 20
175.096542
 30
0.0
  0
VERTEX
  5
201
330
1FF
100
AcDbEntity
  8
0
370
     0
100
AcDbVertex
100
AcDb2dVertex
 10
611.546082
 20
175.096542
 30
0.0
  0
VERTEX
  5
202
330
1FF
100
AcDbEntity
  8
0
370
     0
100
AcDbVertex
100
AcDb2dVertex
 10
611.546082
 20
175.847977
 30
0.0
  0
VERTEX
  5
203
330
1FF
100
AcDbEntity
  8
0
370
     0
100
AcDbVertex
100
AcDb2dVertex
 10
610.850159
 20
175.847977
 30
0.0
  0
SEQEND
  5
204
330
1FF
100
AcDbEntity
  8
0
 62
     7
370
    13
  0
POLYLINE
  5
205
330
1F
100
AcDbEntity
  8
0
 62
     7
370
    13
100
AcDb2dPolyline
 66
     1
 10
0.0
 20
0.0
 30
0.0
 70
     1
  0
VERTEX
  5
206
330
205
100
AcDbEntity
  8
0
370
     0
100
AcDbVertex
100
AcDb2dVertex
 10
610.850159
 20
177.053314
 30
0.0
  0
VERTEX
  5
207
330
205
100
AcDbEntity
  8
0
370
     0
100
AcDbVertex
100
AcDb2dVertex
 10
611.546082
 20
177.053314
 30
0.0
  0
VERTEX
  5
208
330
205
100
AcDbEntity
  8
0
370
     0
100
AcDbVertex
100
AcDb2dVertex
 10
611.546082
 20
177.804749
 30
0.0
  0
VERTEX
  5
209
330
205
100
AcDbEntity
  8
0
370
     0
100
AcDbVertex
100
AcDb2dVertex
 10
610.850159
 20
177.804749
 30
0.0
  0
SEQEND
  5
20A
330
205
100
AcDbEntity
  8
0
 62
     7
370
    13
  0
POLYLINE
  5
20B
330
1F
100
AcDbEntity
  8
0
 62
     7
370
    13
100
AcDb2dPolyline
 66
     1
 10
0.0
 20
0.0
 30
0.0
 70
     1
  0
VERTEX
  5
20C
330
20B
100
AcDbEntity
  8
0
370
     0
100
AcDbVertex
100
AcDb2dVertex
 10
620.215393
 20
175.096542
 30
0.0
  0
VERTEX
  5
20D
330
20B
100
AcDbEntity
  8
0
370
     0
100
AcDbVertex
100
AcDb2dVertex
 10
620.674377
 20
175.096542
 30
0.0
  0
VERTEX
  5
20E
330
20B
100
AcDbEntity
  8
0
370
     0
100
AcDbVertex
100
AcDb2dVertex
 10
620.674377
 20
178.621765
 30
0.0
  0
VERTEX
  5
20F
330
20B
100
AcDbEntity
  8
0
370
     0
100
AcDbVertex
100
AcDb2dVertex
 10
620.331421
 20
178.621765
 30
0.0
  0
VERTEX
  5
210
330
20B
100
AcDbEntity
  8
0
370
     0
100
AcDbVertex
100
AcDb2dVertex
 10
620.240662
 20
178.314117
 30
0.0
  0
VERTEX
  5
211
330
20B
100
AcDbEntity
  8
0
370
     0
100
AcDbVertex
100
AcDb2dVertex
 10
620.059082
 20
178.107346
 30
0.0
  0
VERTEX
  5
212
330
20B
100
AcDbEntity
  8
0
370
     0
100
AcDbVertex
100
AcDb2dVertex
 10
619.781677
 20
177.986313
 30
0.0
  0
VERTEX
  5
213
330
20B
100
AcDbEntity
  8
0
370
     0
100
AcDbVertex
100
AcDb2dVertex
 10
619.398438
 20
177.945969
 30
0.0
  0
VERTEX
  5
214
330
20B
100
AcDbEntity
  8
0
370
     0
100
AcDbVertex
100
AcDb2dVertex
 10
619.398438
 20
177.587891
 30
0.0
  0
VERTEX
  5
215
330
20B
100
AcDbEntity
  8
0
370
     0
100
AcDbVertex
100
AcDb2dVertex
 10
620.215393
 20
177.587891
 30
0.0
  0
SEQEND
  5
216
330
20B
100
AcDbEntity
  8
0
 62
     7
370
    13
  0
POLYLINE
  5
217
330
1F
100
AcDbEntity
  8
0
 62
     7
370
    13
100
AcDb2dPolyline
 66
     1
 10
0.0
 20
0.0
 30
0.0
 70
     1
  0
VERTEX
  5
218
330
217
100
AcDbEntity
  8
0
370
     0
100
AcDbVertex
100
AcDb2dVertex
 10
622.994263
 20
175.096542
 30
0.0
  0
VERTEX
  5
219
330
217
100
AcDbEntity
  8
0
370
     0
100
AcDbVertex
100
AcDb2dVertex
 10
623.690186
 20
175.096542
 30
0.0
  0
VERTEX
  5
21A
330
217
100
AcDbEntity
  8
0
370
     0
100
AcDbVertex
100
AcDb2dVertex
 10
623.690186
 20
175.847977
 30
0.0
  0
VERTEX
  5
21B
330
217
100
AcDbEntity
  8
0
370
     0
100
AcDbVertex
100
AcDb2dVertex
 10
622.994263
 20
175.847977
 30
0.0
  0
SEQEND
  5
21C
330
217
100
AcDbEntity
  8
0
 62
     7
370
    13
  0
POLYLINE
  5
21D
330
1F
100
AcDbEntity
  8
0
 62
     7
370
    13
100
AcDb2dPolyline
 66
     1
 10
0.0
 20
0.0
 30
0.0
 70
     1
  0
VERTEX
  5
21E
330
21D
100
AcDbEntity
  8
0
370
     0
100
AcDbVertex
100
AcDb2dVertex
 10
622.994263
 20
177.053314
 30
0.0
  0
VERTEX
  5
21F
330
21D
100
AcDbEntity
  8
0
370
     0
100
AcDbVertex
100
AcDb2dVertex
 10
623.690186
 20
177.053314
 30
0.0
  0
VERTEX
  5
220
330
21D
100
AcDbEntity
  8
0
370
     0
100
AcDbVertex
100
AcDb2dVertex
 10
623.690186
 20
177.804749
 30
0.0
  0
VERTEX
  5
221
330
21D
100
AcDbEntity
  8
0
370
     0
100
AcDbVertex
100
AcDb2dVertex
 10
622.994263
 20
177.804749
 30
0.0
  0
SEQEND
  5
222
330
21D
100
AcDbEntity
  8
0
 62
     7
370
    13
  0
POLYLINE
  5
223
330
1F
100
AcDbEntity
  8
0
 62
     7
370
    13
100
AcDb2dPolyline
 66
     1
 10
0.0
 20
0.0
 30
0.0
 70
     1
  0
VERTEX
  5
224
330
223
100
AcDbEntity
  8
0
370
     0
100
AcDbVertex
100
AcDb2dVertex
 10
626.287476
 20
175.096542
 30
0.0
  0
VERTEX
  5
225
330
223
100
AcDbEntity
  8
0
370
     0
100
AcDbVertex
100
AcDb2dVertex
 10
626.746399
 20
175.096542
 30
0.0
  0
VERTEX
  5
226
330
223
100
AcDbEntity
  8
0
370
     0
100
AcDbVertex
100
AcDb2dVertex
 10
626.746399
 20
178.621765
 30
0.0
  0
VERTEX
  5
227
330
223
100
AcDbEntity
  8
0
370
     0
100
AcDbVertex
100
AcDb2dVertex
 10
626.403442
 20
178.621765
 30
0.0
  0
VERTEX
  5
228
330
223
100
AcDbEntity
  8
0
370
     0
100
AcDbVertex
100
AcDb2dVertex
 10
626.312683
 20
178.314117
 30
0.0
  0
VERTEX
  5
229
330
223
100
AcDbEntity
  8
0
370
     0
100
AcDbVertex
100
AcDb2dVertex
 10
626.131104
 20
178.107346
 30
0.0
  0
VERTEX
  5
22A
330
223
100
AcDbEntity
  8
0
370
     0
100
AcDbVertex
100
AcDb2dVertex
 10
625.85376
 20
177.986313
 30
0.0
  0
VERTEX
  5
22B
330
223
100
AcDbEntity
  8
0
370
     0
100
AcDbVertex
100
AcDb2dVertex
 10
625.470459
 20
177.945969
 30
0.0
  0
VERTEX
  5
22C
330
223
100
AcDbEntity
  8
0
370
     0
100
AcDbVertex
100
AcDb2dVertex
 10
625.470459
 20
177.587891
 30
0.0
  0
VERTEX
  5
22D
330
223
100
AcDbEntity
  8
0
370
     0
100
AcDbVertex
100
AcDb2dVertex
 10
626.287476
 20
177.587891
 30
0.0
  0
SEQEND
  5
22E
330
223
100
AcDbEntity
  8
0
 62
     7
370
    13
  0
ARC
  5
22F
330
1F
100
AcDbEntity
  8
0
 62
     7
370
    35
100
AcDbCircle
 10
834.5
 20
643.0
 30
0.0
 40
5.0
100
AcDbArc
 50
360.0
 51
90.000003
  0
LINE
  5
230
330
1F
100
AcDbEntity
  8
0
 62
     7
370
    35
100
AcDbLine
 10
834.5
 20
648.0
 30
0.0
 11
354.5
 21
648.0
 31
0.0
  0
ARC
  5
231
330
1F
100
AcDbEntity
  8
0
 62
     7
370
    35
100
AcDbCircle
 10
354.5
 20
643.0
 30
0.0
 40
5.0
100
AcDbArc
 50
90.000003
 51
179.999995
  0
LINE
  5
232
330
1F
100
AcDbEntity
  8
0
 62
     7
370
    35
100
AcDbLine
 10
349.5
 20
643.0
 30
0.0
 11
349.5
 21
198.0
 31
0.0
  0
ARC
  5
233
330
1F
100
AcDbEntity
  8
0
 62
     7
370
    35
100
AcDbCircle
 10
354.5
 20
198.0
 30
0.0
 40
5.0
100
AcDbArc
 50
180.000005
 51
269.999997
  0
LINE
  5
234
330
1F
100
AcDbEntity
  8
0
 62
     7
370
    35
100
AcDbLine
 10
354.5
 20
193.0
 30
0.0
 11
834.5
 21
193.0
 31
0.0
  0
ARC
  5
235
330
1F
100
AcDbEntity
  8
0
 62
     7
370
    35
100
AcDbCircle
 10
834.5
 20
198.0
 30
0.0
 40
5.0
100
AcDbArc
 50
269.999997
 51
360.0
  0
LINE
  5
236
330
1F
100
AcDbEntity
  8
0
 62
     7
370
    35
100
AcDbLine
 10
839.5
 20
198.0
 30
0.0
 11
839.5
 21
643.0
 31
0.0
  0
CIRCLE
  5
237
330
1F
100
AcDbEntity
  8
0
 62
     7
370
    35
100
AcDbCircle
 10
820.10675
 20
320.875122
 30
0.0
 40
1.74999999999997
  0
CIRCLE
  5
238
330
1F
100
AcDbEntity
  8
0
 62
     7
370
    35
100
AcDbCircle
 10
820.10675
 20
575.918091
 30
0.0
 40
1.75000000000004
  0
CIRCLE
  5
239
330
1F
100
AcDbEntity
  8
0
 62
     7
370
    35
100
AcDbCircle
 10
789.10675
 20
544.918091
 30
0.0
 40
1.74999999999997
  0
CIRCLE
  5
23A
330
1F
100
AcDbEntity
  8
0
 62
     7
370
    35
100
AcDbCircle
 10
820.10675
 20
289.875122
 30
0.0
 40
1.74999999999997
  0
CIRCLE
  5
23B
330
1F
100
AcDbEntity
  8
0
 62
     7
370
    35
100
AcDbCircle
 10
789.10675
 20
320.875122
 30
0.0
 40
1.75000000000004
  0
CIRCLE
  5
23C
330
1F
100
AcDbEntity
  8
0
 62
     7
370
    35
100
AcDbCircle
 10
789.10675
 20
575.918091
 30
0.0
 40
1.75000000000004
  0
CIRCLE
  5
23D
330
1F
100
AcDbEntity
  8
0
 62
     7
370
    35
100
AcDbCircle
 10
820.10675
 20
544.918091
 30
0.0
 40
1.74999999999997
  0
CIRCLE
  5
23E
330
1F
100
AcDbEntity
  8
0
 62
     7
370
    35
100
AcDbCircle
 10
789.10675
 20
289.875122
 30
0.0
 40
1.75000000000004
  0
CIRCLE
  5
23F
330
1F
100
AcDbEntity
  8
0
 62
     7
370
    35
100
AcDbCircle
 10
357.0
 20
200.5
 30
0.0
 40
3.5
  0
CIRCLE
  5
240
330
1F
100
AcDbEntity
  8
0
 62
     7
370
    35
100
AcDbCircle
 10
357.0
 20
640.5
 30
0.0
 40
3.75
  0
CIRCLE
  5
241
330
1F
100
AcDbEntity
  8
0
 62
     7
370
    35
100
AcDbCircle
 10
832.0
 20
200.5
 30
0.0
 40
3.50000000000001
  0
CIRCLE
  5
242
330
1F
100
AcDbEntity
  8
0
 62
     7
370
    35
100
AcDbCircle
 10
832.0
 20
640.5
 30
0.0
 40
3.50000000000001
  0
CIRCLE
  5
243
330
1F
100
AcDbEntity
  8
0
 62
     7
370
    35
100
AcDbCircle
 10
400.10675
 20
417.418091
 30
0.0
 40
1.74999999999999
  0
CIRCLE
  5
244
330
1F
100
AcDbEntity
  8
0
 62
     7
370
    35
100
AcDbCircle
 10
369.10675
 20
417.418091
 30
0.0
 40
1.75
  0
CIRCLE
  5
245
330
1F
100
AcDbEntity
  8
0
 62
     7
370
    35
100
AcDbCircle
 10
400.10675
 20
448.418091
 30
0.0
 40
1.75000000000001
  0
CIRCLE
  5
246
330
1F
100
AcDbEntity
  8
0
 62
     7
370
    35
100
AcDbCircle
 10
369.10675
 20
448.418091
 30
0.0
 40
1.75
  0
CIRCLE
  5
247
330
1F
100
AcDbEntity
  8
0
 62
     7
370
    35
100
AcDbCircle
 10
804.500244
 20
305.202209
 30
0.0
 40
12.5
  0
CIRCLE
  5
248
330
1F
100
AcDbEntity
  8
0
 62
     7
370
    35
100
AcDbCircle
 10
804.500122
 20
560.245178
 30
0.0
 40
12.5
  0
CIRCLE
  5
249
330
1F
100
AcDbEntity
  8
0
 62
     7
370
    35
100
AcDbCircle
 10
384.500092
 20
432.745148
 30
0.0
 40
12.5
  0
CIRCLE
  5
24A
330
1F
100
AcDbEntity
  8
0
 62
     7
370
    35
100
AcDbCircle
 10
832.0
 20
509.25
 30
0.0
 40
1.75000000000004
  0
CIRCLE
  5
24B
330
1F
100
AcDbEntity
  8
0
 62
     7
370
    35
100
AcDbCircle
 10
832.0
 20
420.5
 30
0.0
 40
1.75000000000004
  0
CIRCLE
  5
24C
330
1F
100
AcDbEntity
  8
0
 62
     7
370
    35
100
AcDbCircle
 10
594.5
 20
640.5
 30
0.0
 40
1.75000000000001
  0
CIRCLE
  5
24D
330
1F
100
AcDbEntity
  8
0
 62
     7
370
    35
100
AcDbCircle
 10
832.0
 20
331.75
 30
0.0
 40
1.74999999999997
  0
CIRCLE
  5
24E
330
1F
100
AcDbEntity
  8
0
 62
     7
370
    35
100
AcDbCircle
 10
832.0
 20
243.0
 30
0.0
 40
1.75000000000004
  0
CIRCLE
  5
24F
330
1F
100
AcDbEntity
  8
0
 62
     7
370
    35
100
AcDbCircle
 10
692.0
 20
640.5
 30
0.0
 40
1.74999999999997
  0
CIRCLE
  5
250
330
1F
100
AcDbEntity
  8
0
 62
     7
370
    35
100
AcDbCircle
 10
357.0
 20
598.0
 30
0.0
 40
1.75
  0
CIRCLE
  5
251
330
1F
100
AcDbEntity
  8
0
 62
     7
370
    35
100
AcDbCircle
 10
399.5
 20
640.5
 30
0.0
 40
1.75000000000001
  0
CIRCLE
  5
252
330
1F
100
AcDbEntity
  8
0
 62
     7
370
    35
100
AcDbCircle
 10
789.5
 20
200.5
 30
0.0
 40
1.75000000000004
  0
CIRCLE
  5
253
330
1F
100
AcDbEntity
  8
0
 62
     7
370
    35
100
AcDbCircle
 10
357.0
 20
243.0
 30
0.0
 40
1.75
  0
CIRCLE
  5
254
330
1F
100
AcDbEntity
  8
0
 62
     7
370
    35
100
AcDbCircle
 10
789.5
 20
640.5
 30
0.0
 40
1.74999999999997
  0
CIRCLE
  5
255
330
1F
100
AcDbEntity
  8
0
 62
     7
370
    35
100
AcDbCircle
 10
832.0
 20
598.0
 30
0.0
 40
1.75000000000004
  0
CIRCLE
  5
256
330
1F
100
AcDbEntity
  8
0
 62
     7
370
    35
100
AcDbCircle
 10
357.0
 20
509.25
 30
0.0
 40
1.75
  0
CIRCLE
  5
257
330
1F
100
AcDbEntity
  8
0
 62
     7
370
    35
100
AcDbCircle
 10
497.0
 20
640.5
 30
0.0
 40
1.75000000000001
  0
CIRCLE
  5
258
330
1F
100
AcDbEntity
  8
0
 62
     7
370
    35
100
AcDbCircle
 10
399.5
 20
200.5
 30
0.0
 40
1.75
  0
CIRCLE
  5
259
330
1F
100
AcDbEntity
  8
0
 62
     7
370
    35
100
AcDbCircle
 10
497.0
 20
200.5
 30
0.0
 40
1.74999999999999
  0
CIRCLE
  5
25A
330
1F
100
AcDbEntity
  8
0
 62
     7
370
    35
100
AcDbCircle
 10
594.5
 20
200.5
 30
0.0
 40
1.75000000000001
  0
CIRCLE
  5
25B
330
1F
100
AcDbEntity
  8
0
 62
     7
370
    35
100
AcDbCircle
 10
692.0
 20
200.5
 30
0.0
 40
1.75000000000004
  0
CIRCLE
  5
25C
330
1F
100
AcDbEntity
  8
0
 62
     7
370
    35
100
AcDbCircle
 10
357.0
 20
331.75
 30
0.0
 40
1.74999999999998
  0
CIRCLE
  5
25D
330
1F
100
AcDbEntity
  8
0
 62
     7
370
    35
100
AcDbCircle
 10
357.0
 20
420.5
 30
0.0
 40
1.74999999999999
  0
CIRCLE
  5
25E
330
1F
100
AcDbEntity
  8
0
 62
     7
370
    35
100
AcDbCircle
 10
412.0
 20
598.0
 30
0.0
 40
1.75
  0
CIRCLE
  5
25F
330
1F
100
AcDbEntity
  8
0
 62
     7
370
    35
100
AcDbCircle
 10
412.0
 20
509.25
 30
0.0
 40
1.75
  0
CIRCLE
  5
260
330
1F
100
AcDbEntity
  8
0
 62
     7
370
    35
100
AcDbCircle
 10
412.0
 20
420.5
 30
0.0
 40
1.749999999999997
  0
CIRCLE
  5
261
330
1F
100
AcDbEntity
  8
0
 62
     7
370
    35
100
AcDbCircle
 10
412.0
 20
331.75
 30
0.0
 40
1.749999999999995
  0
CIRCLE
  5
262
330
1F
100
AcDbEntity
  8
0
 62
     7
370
    35
100
AcDbCircle
 10
412.0
 20
243.0
 30
0.0
 40
1.75
  0
CIRCLE
  5
263
330
1F
100
AcDbEntity
  8
0
 62
     7
370
    35
100
AcDbCircle
 10
777.0
 20
598.0
 30
0.0
 40
1.75
  0
CIRCLE
  5
264
330
1F
100
AcDbEntity
  8
0
 62
     7
370
    35
100
AcDbCircle
 10
777.0
 20
509.25
 30
0.0
 40
1.75
  0
CIRCLE
  5
265
330
1F
100
AcDbEntity
  8
0
 62
     7
370
    35
100
AcDbCircle
 10
777.0
 20
420.5
 30
0.0
 40
1.749999999999997
  0
CIRCLE
  5
266
330
1F
100
AcDbEntity
  8
0
 62
     7
370
    35
100
AcDbCircle
 10
777.0
 20
331.75
 30
0.0
 40
1.749999999999995
  0
CIRCLE
  5
267
330
1F
100
AcDbEntity
  8
0
 62
     7
370
    35
100
AcDbCircle
 10
777.0
 20
243.0
 30
0.0
 40
1.75
  0
ENDSEC
  0
SECTION
  2
OBJECTS
  0
DICTIONARY
  5
C
330
0
100
AcDbDictionary
281
     1
  3
ACAD_GROUP
350
D
  3
ACAD_LAYOUT
350
1A
  3
ACAD_MLINESTYLE
350
17
  3
ACAD_PLOTSETTINGS
350
19
  3
ACAD_PLOTSTYLENAME
350
E
  3
ACAD_SCALELIST
350
47
  0
DICTIONARY
  5
D
102
{ACAD_REACTORS
330
C
102
}
330
C
100
AcDbDictionary
281
     1
  0
DICTIONARY
  5
1A
102
{ACAD_REACTORS
330
C
102
}
330
C
100
AcDbDictionary
281
     1
  3
Layout1
350
1E
  3
Layout2
350
26
  3
Model
350
22
  0
DICTIONARY
  5
17
102
{ACAD_REACTORS
330
C
102
}
330
C
100
AcDbDictionary
281
     1
  3
Standard
350
18
  0
DICTIONARY
  5
19
102
{ACAD_REACTORS
330
C
102
}
330
C
100
AcDbDictionary
281
     1
  0
ACDBDICTIONARYWDFLT
  5
E
102
{ACAD_REACTORS
330
C
102
}
330
C
100
AcDbDictionary
281
     1
  3
Normal
350
F
100
AcDbDictionaryWithDefault
340
F
  0
DICTIONARY
  5
47
102
{ACAD_REACTORS
330
C
102
}
330
C
100
AcDbDictionary
281
     1
  3
A0
350
48
  3
A1
350
49
  3
A2
350
4A
  3
A3
350
4B
  3
A4
350
4C
  3
A5
350
4D
  3
A6
350
4E
  3
A7
350
4F
  3
A8
350
50
  3
A9
350
51
  3
B0
350
52
  3
B1
350
53
  3
B2
350
54
  3
B3
350
55
  3
B4
350
56
  3
B5
350
57
  3
B6
350
58
  3
B7
350
59
  3
B8
350
5A
  3
B9
350
5B
  3
C0
350
5C
  3
C1
350
5D
  3
C2
350
5E
  3
C3
350
5F
  3
C4
350
60
  3
C5
350
61
  3
C6
350
62
  3
C7
350
63
  3
C8
350
64
  3
C9
350
65
  3
D0
350
66
  3
D1
350
67
  3
D2
350
68
  0
LAYOUT
  5
1E
102
{ACAD_REACTORS
330
1A
102
}
330
1A
100
AcDbPlotSettings
  1

  2
none_device
  4

  6

 40
0.0
 41
0.0
 42
0.0
 43
0.0
 44
0.0
 45
0.0
 46
0.0
 47
0.0
 48
0.0
 49
0.0
140
0.0
141
0.0
142
1.0
143
1.0
 70
  4784
 72
     0
 73
     0
 74
     5
  7

 75
    16
147
1.0
148
0.0
149
0.0
100
AcDbLayout
  1
Layout1
 70
     1
 71
     1
 10
0.0
 20
0.0
 11
420.0
 21
297.0
 12
0.0
 22
0.0
 32
0.0
 14
0.0
 24
0.0
 34
0.0
 15
839.5
 25
648.0
 35
2.0
146
0.0
 13
0.0
 23
0.0
 33
0.0
 16
1.0
 26
0.0
 36
0.0
 17
0.0
 27
1.0
 37
0.0
 76
     0
330
1B
  0
LAYOUT
  5
26
102
{ACAD_REACTORS
330
1A
102
}
330
1A
100
AcDbPlotSettings
  1

  2
none_device
  4

  6

 40
0.0
 41
0.0
 42
0.0
 43
0.0
 44
0.0
 45
0.0
 46
0.0
 47
0.0
 48
0.0
 49
0.0
140
0.0
141
0.0
142
1.0
143
1.0
 70
  4784
 72
     0
 73
     0
 74
     5
  7

 75
    16
147
1.0
148
0.0
149
0.0
100
AcDbLayout
  1
Layout2
 70
     1
 71
     2
 10
0.0
 20
0.0
 11
0.0
 21
0.0
 12
0.0
 22
0.0
 32
0.0
 14
0.0
 24
0.0
 34
0.0
 15
0.0
 25
0.0
 35
0.0
146
0.0
 13
0.0
 23
0.0
 33
0.0
 16
1.0
 26
0.0
 36
0.0
 17
0.0
 27
1.0
 37
0.0
 76
     0
330
23
  0
LAYOUT
  5
22
102
{ACAD_REACTORS
330
1A
102
}
330
1A
100
AcDbPlotSettings
  1

  2
none_device
  4
Letter_(8.50_x_11.00_Inches)
  6

 40
6.35
 41
6.35
 42
6.350005
 43
6.350005
 44
215.9
 45
279.4
 46
0.0
 47
0.0
 48
0.0
 49
0.0
140
0.0
141
0.0
142
1.0
143
1.0
 70
  5808
 72
     0
 73
     0
 74
     0
  7

 75
     0
147
1.0
148
0.0
149
0.0
100
AcDbLayout
  1
Model
 70
     1
 71
     0
 10
0.0
 20
0.0
 11
420.0
 21
297.0
 12
0.0
 22
0.0
 32
0.0
 14
0.0
 24
0.0
 34
0.0
 15
839.5
 25
648.0
 35
2.0
146
0.0
 13
0.0
 23
0.0
 33
0.0
 16
1.0
 26
0.0
 36
0.0
 17
0.0
 27
1.0
 37
0.0
 76
     0
330
1F
331
29
  0
MLINESTYLE
  5
18
102
{ACAD_REACTORS
330
17
102
}
330
17
100
AcDbMlineStyle
  2
Standard
 70
     0
  3

 62
   256
 51
90.0
 52
90.0
 71
     2
 49
0.5
 62
   256
  6
BYLAYER
 49
-0.5
 62
   256
  6
BYLAYER
  0
ACDBPLACEHOLDER
  5
F
102
{ACAD_REACTORS
330
E
102
}
330
E
  0
SCALE
  5
48
102
{ACAD_REACTORS
330
47
102
}
330
47
100
AcDbScale
 70
     0
300
1:1
140
1.0
141
1.0
290
     1
  0
SCALE
  5
49
102
{ACAD_REACTORS
330
47
102
}
330
47
100
AcDbScale
 70
     0
300
1:2
140
1.0
141
2.0
290
     0
  0
SCALE
  5
4A
102
{ACAD_REACTORS
330
47
102
}
330
47
100
AcDbScale
 70
     0
300
1:4
140
1.0
141
4.0
290
     0
  0
SCALE
  5
4B
102
{ACAD_REACTORS
330
47
102
}
330
47
100
AcDbScale
 70
     0
300
1:5
140
1.0
141
5.0
290
     0
  0
SCALE
  5
4C
102
{ACAD_REACTORS
330
47
102
}
330
47
100
AcDbScale
 70
     0
300
1:8
140
1.0
141
8.0
290
     0
  0
SCALE
  5
4D
102
{ACAD_REACTORS
330
47
102
}
330
47
100
AcDbScale
 70
     0
300
1:10
140
1.0
141
10.0
290
     0
  0
SCALE
  5
4E
102
{ACAD_REACTORS
330
47
102
}
330
47
100
AcDbScale
 70
     0
300
1:16
140
1.0
141
16.0
290
     0
  0
SCALE
  5
4F
102
{ACAD_REACTORS
330
47
102
}
330
47
100
AcDbScale
 70
     0
300
1:20
140
1.0
141
20.0
290
     0
  0
SCALE
  5
50
102
{ACAD_REACTORS
330
47
102
}
330
47
100
AcDbScale
 70
     0
300
1:30
140
1.0
141
30.0
290
     0
  0
SCALE
  5
51
102
{ACAD_REACTORS
330
47
102
}
330
47
100
AcDbScale
 70
     0
300
1:40
140
1.0
141
40.0
290
     0
  0
SCALE
  5
52
102
{ACAD_REACTORS
330
47
102
}
330
47
100
AcDbScale
 70
     0
300
1:50
140
1.0
141
50.0
290
     0
  0
SCALE
  5
53
102
{ACAD_REACTORS
330
47
102
}
330
47
100
AcDbScale
 70
     0
300
1:100
140
1.0
141
100.0
290
     0
  0
SCALE
  5
54
102
{ACAD_REACTORS
330
47
102
}
330
47
100
AcDbScale
 70
     0
300
2:1
140
2.0
141
1.0
290
     0
  0
SCALE
  5
55
102
{ACAD_REACTORS
330
47
102
}
330
47
100
AcDbScale
 70
     0
300
4:1
140
4.0
141
1.0
290
     0
  0
SCALE
  5
56
102
{ACAD_REACTORS
330
47
102
}
330
47
100
AcDbScale
 70
     0
300
8:1
140
8.0
141
1.0
290
     0
  0
SCALE
  5
57
102
{ACAD_REACTORS
330
47
102
}
330
47
100
AcDbScale
 70
     0
300
10:1
140
10.0
141
1.0
290
     0
  0
SCALE
  5
58
102
{ACAD_REACTORS
330
47
102
}
330
47
100
AcDbScale
 70
     0
300
100:1
140
100.0
141
1.0
290
     0
  0
SCALE
  5
59
102
{ACAD_REACTORS
330
47
102
}
330
47
100
AcDbScale
 70
     0
300
1/128" = 1'-0"
140
0.007812
141
12.0
290
     0
  0
SCALE
  5
5A
102
{ACAD_REACTORS
330
47
102
}
330
47
100
AcDbScale
 70
     0
300
1/64" = 1'-0"
140
0.015625
141
12.0
290
     0
  0
SCALE
  5
5B
102
{ACAD_REACTORS
330
47
102
}
330
47
100
AcDbScale
 70
     0
300
1/32" = 1'-0"
140
0.03125
141
12.0
290
     0
  0
SCALE
  5
5C
102
{ACAD_REACTORS
330
47
102
}
330
47
100
AcDbScale
 70
     0
300
1/16" = 1'-0"
140
0.0625
141
12.0
290
     0
  0
SCALE
  5
5D
102
{ACAD_REACTORS
330
47
102
}
330
47
100
AcDbScale
 70
     0
300
3/32" = 1'-0"
140
0.09375
141
12.0
290
     0
  0
SCALE
  5
5E
102
{ACAD_REACTORS
330
47
102
}
330
47
100
AcDbScale
 70
     0
300
1/8" = 1'-0"
140
0.125
141
12.0
290
     0
  0
SCALE
  5
5F
102
{ACAD_REACTORS
330
47
102
}
330
47
100
AcDbScale
 70
     0
300
3/16" = 1'-0"
140
0.1875
141
12.0
290
     0
  0
SCALE
  5
60
102
{ACAD_REACTORS
330
47
102
}
330
47
100
AcDbScale
 70
     0
300
1/4" = 1'-0"
140
0.25
141
12.0
290
     0
  0
SCALE
  5
61
102
{ACAD_REACTORS
330
47
102
}
330
47
100
AcDbScale
 70
     0
300
3/8" = 1'-0"
140
0.375
141
12.0
290
     0
  0
SCALE
  5
62
102
{ACAD_REACTORS
330
47
102
}
330
47
100
AcDbScale
 70
     0
300
1/2" = 1'-0"
140
0.5
141
12.0
290
     0
  0
SCALE
  5
63
102
{ACAD_REACTORS
330
47
102
}
330
47
100
AcDbScale
 70
     0
300
3/4" = 1'-0"
140
0.75
141
12.0
290
     0
  0
SCALE
  5
64
102
{ACAD_REACTORS
330
47
102
}
330
47
100
AcDbScale
 70
     0
300
1" = 1'-0"
140
1.0
141
12.0
290
     0
  0
SCALE
  5
65
102
{ACAD_REACTORS
330
47
102
}
330
47
100
AcDbScale
 70
     0
300
1-1/2" = 1'-0"
140
1.5
141
12.0
290
     0
  0
SCALE
  5
66
102
{ACAD_REACTORS
330
47
102
}
330
47
100
AcDbScale
 70
     0
300
3" = 1'-0"
140
3.0
141
12.0
290
     0
  0
SCALE
  5
67
102
{ACAD_REACTORS
330
47
102
}
330
47
100
AcDbScale
 70
     0
300
6" = 1'-0"
140
6.0
141
12.0
290
     0
  0
SCALE
  5
68
102
{ACAD_REACTORS
330
47
102
}
330
47
100
AcDbScale
 70
     0
300
1'-0" = 1'-0"
140
12.0
141
12.0
290
     0
  0
ENDSEC
  0
EOF
