  0
SECTION
  2
HEADER
  9
$ACADVER
  1
AC1015
  9
$ACADMAINTVER
 70
     6
  9
$DWGCODEPAGE
  3
ANSI_1252
  9
$INSBASE
 10
0.0
 20
0.0
 30
0.0
  9
$EXTMIN
 10
0.0
 20
0.0
 30
0.0
  9
$EXTMAX
 10
768.516907
 20
568.892456
 30
2.0
  9
$LIMMIN
 10
0.0
 20
0.0
  9
$LIMMAX
 10
420.0
 20
297.0
  9
$ORTHOMODE
 70
     0
  9
$REGENMODE
 70
     1
  9
$FILLMODE
 70
     1
  9
$QTEXTMODE
 70
     0
  9
$MIRRTEXT
 70
     1
  9
$LTSCALE
 40
1.0
  9
$ATTMODE
 70
     1
  9
$TEXTSIZE
 40
2.5
  9
$TRACEWID
 40
1.0
  9
$TEXTSTYLE
  7
Standard
  9
$CLAYER
  8
0
  9
$CELTYPE
  6
ByLayer
  9
$CECOLOR
 62
   256
  9
$CELTSCALE
 40
1.0
  9
$DISPSILH
 70
     0
  9
$DIMSCALE
 40
1.0
  9
$DIMASZ
 40
2.5
  9
$DIMEXO
 40
0.625
  9
$DIMDLI
 40
3.75
  9
$DIMRND
 40
0.0
  9
$DIMDLE
 40
0.0
  9
$DIMEXE
 40
1.25
  9
$DIMTP
 40
0.0
  9
$DIMTM
 40
0.0
  9
$DIMTXT
 40
2.5
  9
$DIMCEN
 40
2.5
  9
$DIMTSZ
 40
0.0
  9
$DIMTOL
 70
     0
  9
$DIMLIM
 70
     0
  9
$DIMTIH
 70
     0
  9
$DIMTOH
 70
     0
  9
$DIMSE1
 70
     0
  9
$DIMSE2
 70
     0
  9
$DIMTAD
 70
     1
  9
$DIMZIN
 70
     8
  9
$DIMBLK
  1

  9
$DIMASO
 70
     1
  9
$DIMSHO
 70
     1
  9
$DIMPOST
  1

  9
$DIMAPOST
  1

  9
$DIMALT
 70
     0
  9
$DIMALTD
 70
     3
  9
$DIMALTF
 40
0.03937
  9
$DIMLFAC
 40
1.0
  9
$DIMTOFL
 70
     1
  9
$DIMTVP
 40
0.0
  9
$DIMTIX
 70
     0
  9
$DIMSOXD
 70
     0
  9
$DIMSAH
 70
     0
  9
$DIMBLK1
  1

  9
$DIMBLK2
  1

  9
$DIMSTYLE
  2
Standard
  9
$DIMCLRD
 70
     0
  9
$DIMCLRE
 70
     0
  9
$DIMCLRT
 70
     0
  9
$DIMTFAC
 40
1.0
  9
$DIMGAP
 40
0.625
  9
$DIMJUST
 70
     0
  9
$DIMSD1
 70
     0
  9
$DIMSD2
 70
     0
  9
$DIMTOLJ
 70
     0
  9
$DIMTZIN
 70
     8
  9
$DIMALTZ
 70
     0
  9
$DIMALTTZ
 70
     0
  9
$DIMUPT
 70
     0
  9
$DIMDEC
 70
     2
  9
$DIMTDEC
 70
     2
  9
$DIMALTU
 70
     2
  9
$DIMALTTD
 70
     3
  9
$DIMTXSTY
  7
Standard
  9
$DIMAUNIT
 70
     0
  9
$DIMADEC
 70
     0
  9
$DIMALTRND
 40
0.0
  9
$DIMAZIN
 70
     0
  9
$DIMDSEP
 70
    44
  9
$DIMATFIT
 70
     0
  9
$DIMFRAC
 70
     0
  9
$DIMLDRBLK
  1

  9
$DIMLUNIT
 70
     2
  9
$DIMLWD
 70
    -2
  9
$DIMLWE
 70
    -2
  9
$DIMTMOVE
 70
     0
  9
$LUNITS
 70
     2
  9
$LUPREC
 70
     4
  9
$SKETCHINC
 40
1.0
  9
$FILLETRAD
 40
2.5
  9
$AUNITS
 70
     0
  9
$AUPREC
 70
     0
  9
$MENU
  1
.
  9
$ELEVATION
 40
0.0
  9
$PELEVATION
 40
0.0
  9
$THICKNESS
 40
0.0
  9
$LIMCHECK
 70
     0
  9
$CHAMFERA
 40
2.5
  9
$CHAMFERB
 40
2.5
  9
$CHAMFERC
 40
0.0
  9
$CHAMFERD
 40
0.0
  9
$SKPOLY
 70
     0
  9
$TDCREATE
 40
2447893.333333333
  9
$TDUCREATE
 40
0.0
  9
$TDUPDATE
 40
2458723.756775497
  9
$TDUUPDATE
 40
2458723.423442164
  9
$TDINDWG
 40
0.0
  9
$TDUSRTIMER
 40
0.0
  9
$USRTIMER
 70
     1
  9
$ANGBASE
 50
0.0
  9
$ANGDIR
 70
     0
  9
$PDMODE
 70
     0
  9
$PDSIZE
 40
0.0
  9
$PLINEWID
 40
0.0
  9
$SPLFRAME
 70
     0
  9
$SPLINETYPE
 70
     6
  9
$SPLINESEGS
 70
     8
  9
$HANDSEED
  5
24D
  9
$SURFTAB1
 70
     6
  9
$SURFTAB2
 70
     6
  9
$SURFTYPE
 70
     6
  9
$SURFU
 70
     6
  9
$SURFV
 70
     6
  9
$UCSBASE
  2

  9
$UCSNAME
  2

  9
$UCSORG
 10
0.0
 20
0.0
 30
0.0
  9
$UCSXDIR
 10
1.0
 20
0.0
 30
0.0
  9
$UCSYDIR
 10
0.0
 20
1.0
 30
0.0
  9
$UCSORTHOREF
  2

  9
$UCSORTHOVIEW
 70
     1
  9
$UCSORGTOP
 10
0.0
 20
0.0
 30
0.0
  9
$UCSORGBOTTOM
 10
0.0
 20
0.0
 30
0.0
  9
$UCSORGLEFT
 10
0.0
 20
0.0
 30
0.0
  9
$UCSORGRIGHT
 10
0.0
 20
0.0
 30
0.0
  9
$UCSORGFRONT
 10
0.0
 20
0.0
 30
0.0
  9
$UCSORGBACK
 10
0.0
 20
0.0
 30
0.0
  9
$PUCSBASE
  2

  9
$PUCSNAME
  2

  9
$PUCSORG
 10
0.0
 20
0.0
 30
0.0
  9
$PUCSXDIR
 10
1.0
 20
0.0
 30
0.0
  9
$PUCSYDIR
 10
0.0
 20
1.0
 30
0.0
  9
$PUCSORTHOREF
  2

  9
$PUCSORTHOVIEW
 70
     0
  9
$PUCSORGTOP
 10
0.0
 20
0.0
 30
0.0
  9
$PUCSORGBOTTOM
 10
0.0
 20
0.0
 30
0.0
  9
$PUCSORGLEFT
 10
0.0
 20
0.0
 30
0.0
  9
$PUCSORGRIGHT
 10
0.0
 20
0.0
 30
0.0
  9
$PUCSORGFRONT
 10
0.0
 20
0.0
 30
0.0
  9
$PUCSORGBACK
 10
0.0
 20
0.0
 30
0.0
  9
$USERI1
 70
     0
  9
$USERI2
 70
     0
  9
$USERI3
 70
     0
  9
$USERI4
 70
     0
  9
$USERI5
 70
     0
  9
$USERR1
 40
0.0
  9
$USERR2
 40
0.0
  9
$USERR3
 40
0.0
  9
$USERR4
 40
0.0
  9
$USERR5
 40
0.0
  9
$WORLDVIEW
 70
     1
  9
$SHADEDGE
 70
     3
  9
$SHADEDIF
 70
    70
  9
$TILEMODE
 70
     1
  9
$MAXACTVP
 70
    64
  9
$PINSBASE
 10
0.0
 20
0.0
 30
0.0
  9
$PLIMCHECK
 70
     0
  9
$PEXTMIN
 10
0.0
 20
0.0
 30
0.0
  9
$PEXTMAX
 10
768.516907
 20
568.892456
 30
2.0
  9
$PLIMMIN
 10
0.0
 20
0.0
  9
$PLIMMAX
 10
420.0
 20
297.0
  9
$UNITMODE
 70
     0
  9
$VISRETAIN
 70
     0
  9
$PLINEGEN
 70
     0
  9
$PSLTSCALE
 70
     1
  9
$TREEDEPTH
 70
  3020
  9
$CMLSTYLE
  2
Standard
  9
$CMLJUST
 70
     0
  9
$CMLSCALE
 40
20.0
  9
$PROXYGRAPHICS
 70
     1
  9
$MEASUREMENT
 70
     1
  9
$CELWEIGHT
370
    -1
  9
$ENDCAPS
280
     0
  9
$JOINSTYLE
280
     0
  9
$LWDISPLAY
290
     0
  9
$INSUNITS
 70
     0
  9
$HYPERLINKBASE
  1

  9
$STYLESHEET
  1

  9
$XEDIT
290
     1
  9
$CEPSNTYPE
380
     0
  9
$PSTYLEMODE
290
     0
  9
$FINGERPRINTGUID
  2
{C1C256E4-B9B1-497A-AB55-B8456B93F0C3}
  9
$VERSIONGUID
  2
{FAEB1C32-E019-11D5-929B-00C0DF256EC4}
  9
$EXTNAMES
290
     1
  9
$PSVPSCALE
 40
0.0
  9
$OLESTARTUP
290
     0
  0
ENDSEC
  0
SECTION
  2
CLASSES
  0
CLASS
  1
ACDBDICTIONARYWDFLT
  2
AcDbDictionaryWithDefault
  3
ObjectDBX Classes
 90
        0
280
     0
281
     0
  0
CLASS
  1
VISUALSTYLE
  2
AcDbVisualStyle
  3
ObjectDBX Classes
 90
     4095
280
     0
281
     0
  0
CLASS
  1
MATERIAL
  2
AcDbMaterial
  3
ObjectDBX Classes
 90
     1153
280
     0
281
     0
  0
CLASS
  1
SCALE
  2
AcDbScale
  3
ObjectDBX Classes
 90
     1153
280
     0
281
     0
  0
CLASS
  1
SUN
  2
AcDbSun
  3
SCENEOE
 90
     1153
280
     0
281
     0
  0
CLASS
  1
ACDBPLACEHOLDER
  2
AcDbPlaceHolder
  3
ObjectDBX Classes
 90
        0
280
     0
281
     0
  0
CLASS
  1
LAYOUT
  2
AcDbLayout
  3
ObjectDBX Classes
 90
        0
280
     0
281
     0
  0
ENDSEC
  0
SECTION
  2
TABLES
  0
TABLE
  2
VPORT
  5
8
330
0
100
AcDbSymbolTable
 70
     1
  0
VPORT
  5
29
330
8
100
AcDbSymbolTableRecord
100
AcDbViewportTableRecord
  2
*Active
 70
     0
 10
0.0
 20
0.0
 11
1.0
 21
1.0
 12
10.429907
 22
4.5
 13
0.0
 23
0.0
 14
0.5
 24
0.5
 15
0.5
 25
0.5
 16
0.0
 26
0.0
 36
1.0
 17
0.0
 27
0.0
 37
0.0
 40
9.0
 41
1.972973
 42
50.0
 43
0.0
 44
0.0
 50
0.0
 51
0.0
 71
     0
 72
   100
 73
     1
 74
     3
 75
     0
 76
     0
 77
     0
 78
     0
281
     0
 65
     1
110
0.0
120
0.0
130
0.0
111
1.0
121
0.0
131
0.0
112
0.0
122
1.0
132
0.0
 79
     0
146
0.0
  0
ENDTAB
  0
TABLE
  2
LTYPE
  5
5
330
0
100
AcDbSymbolTable
 70
     1
  0
LTYPE
  5
14
330
5
100
AcDbSymbolTableRecord
100
AcDbLinetypeTableRecord
  2
ByBlock
 70
     0
  3

 72
    65
 73
     0
 40
0.0
  0
LTYPE
  5
15
330
5
100
AcDbSymbolTableRecord
100
AcDbLinetypeTableRecord
  2
ByLayer
 70
     0
  3

 72
    65
 73
     0
 40
0.0
  0
LTYPE
  5
16
330
5
100
AcDbSymbolTableRecord
100
AcDbLinetypeTableRecord
  2
Continuous
 70
     0
  3
Solid line
 72
    65
 73
     0
 40
0.0
  0
ENDTAB
  0
TABLE
  2
LAYER
  5
2
330
0
100
AcDbSymbolTable
 70
     1
  0
LAYER
  5
10
330
2
100
AcDbSymbolTableRecord
100
AcDbLayerTableRecord
  2
0
 70
     0
 62
     7
  6
Continuous
370
    -3
390
F
  0
ENDTAB
  0
TABLE
  2
STYLE
  5
3
330
0
100
AcDbSymbolTable
 70
     1
  0
STYLE
  5
11
330
3
100
AcDbSymbolTableRecord
100
AcDbTextStyleTableRecord
  2
Standard
 70
     0
 40
0.0
 41
1.0
 50
0.0
 71
     0
 42
2.5
  3
txt
  4

  0
ENDTAB
  0
TABLE
  2
VIEW
  5
6
330
0
100
AcDbSymbolTable
 70
     0
  0
ENDTAB
  0
TABLE
  2
UCS
  5
7
330
0
100
AcDbSymbolTable
 70
     0
  0
ENDTAB
  0
TABLE
  2
APPID
  5
9
330
0
100
AcDbSymbolTable
 70
     1
  0
APPID
  5
12
330
9
100
AcDbSymbolTableRecord
100
AcDbRegAppTableRecord
  2
ACAD
 70
     0
  0
ENDTAB
  0
TABLE
  2
DIMSTYLE
  5
A
330
0
100
AcDbSymbolTable
 70
     1
100
AcDbDimStyleTable
  0
DIMSTYLE
105
27
330
A
100
AcDbSymbolTableRecord
100
AcDbDimStyleTableRecord
  2
Standard
 70
     0
178
     0
340
11
  0
ENDTAB
  0
TABLE
  2
BLOCK_RECORD
  5
1
330
0
100
AcDbSymbolTable
 70
     1
  0
BLOCK_RECORD
  5
1F
330
1
100
AcDbSymbolTableRecord
100
AcDbBlockTableRecord
  2
*Model_Space
340
22
  0
BLOCK_RECORD
  5
1B
330
1
100
AcDbSymbolTableRecord
100
AcDbBlockTableRecord
  2
*Paper_Space
340
1E
  0
BLOCK_RECORD
  5
23
330
1
100
AcDbSymbolTableRecord
100
AcDbBlockTableRecord
  2
*Paper_Space0
340
26
  0
ENDTAB
  0
ENDSEC
  0
SECTION
  2
BLOCKS
  0
BLOCK
  5
20
330
1F
100
AcDbEntity
  8
0
100
AcDbBlockBegin
  2
*Model_Space
 70
     0
 10
0.0
 20
0.0
 30
0.0
  3
*Model_Space
  1
*Model_Space
  0
ENDBLK
  5
21
330
1F
100
AcDbEntity
  8
0
100
AcDbBlockEnd
  0
BLOCK
  5
1C
330
1B
100
AcDbEntity
 67
     1
  8
0
100
AcDbBlockBegin
  2
*Paper_Space
 70
     0
 10
0.0
 20
0.0
 30
0.0
  3
*Paper_Space
  1
*Paper_Space
  0
ENDBLK
  5
1D
330
1B
100
AcDbEntity
 67
     1
  8
0
100
AcDbBlockEnd
  0
BLOCK
  5
24
330
23
100
AcDbEntity
  8
0
100
AcDbBlockBegin
  2
*Paper_Space0
 70
     0
 10
0.0
 20
0.0
 30
0.0
  3
*Paper_Space0
  1
*Paper_Space0
  0
ENDBLK
  5
25
330
23
100
AcDbEntity
  8
0
100
AcDbBlockEnd
  0
ENDSEC
  0
SECTION
  2
ENTITIES
  0
POLYLINE
  5
6A
330
1F
100
AcDbEntity
  8
0
 62
     7
370
    13
100
AcDb2dPolyline
 66
     1
 10
0.0
 20
0.0
 30
0.0
 70
     1
  0
VERTEX
  5
6B
330
6A
100
AcDbEntity
  8
0
370
     0
100
AcDbVertex
100
AcDb2dVertex
 10
589.001038
 20
257.035797
 30
0.0
  0
VERTEX
  5
6C
330
6A
100
AcDbEntity
  8
0
370
     0
100
AcDbVertex
100
AcDb2dVertex
 10
589.470093
 20
257.035797
 30
0.0
  0
VERTEX
  5
6D
330
6A
100
AcDbEntity
  8
0
370
     0
100
AcDbVertex
100
AcDb2dVertex
 10
589.470093
 20
258.644592
 30
0.0
  0
VERTEX
  5
6E
330
6A
100
AcDbEntity
  8
0
370
     0
100
AcDbVertex
100
AcDb2dVertex
 10
590.942688
 20
258.644592
 30
0.0
  0
VERTEX
  5
6F
330
6A
100
AcDbEntity
  8
0
370
     0
100
AcDbVertex
100
AcDb2dVertex
 10
590.942688
 20
259.063171
 30
0.0
  0
VERTEX
  5
70
330
6A
100
AcDbEntity
  8
0
370
     0
100
AcDbVertex
100
AcDb2dVertex
 10
589.470093
 20
259.063171
 30
0.0
  0
VERTEX
  5
71
330
6A
100
AcDbEntity
  8
0
370
     0
100
AcDbVertex
100
AcDb2dVertex
 10
589.470093
 20
260.112152
 30
0.0
  0
VERTEX
  5
72
330
6A
100
AcDbEntity
  8
0
370
     0
100
AcDbVertex
100
AcDb2dVertex
 10
591.280579
 20
260.112152
 30
0.0
  0
VERTEX
  5
73
330
6A
100
AcDbEntity
  8
0
370
     0
100
AcDbVertex
100
AcDb2dVertex
 10
591.280579
 20
260.535797
 30
0.0
  0
VERTEX
  5
74
330
6A
100
AcDbEntity
  8
0
370
     0
100
AcDbVertex
100
AcDb2dVertex
 10
589.001038
 20
260.535797
 30
0.0
  0
SEQEND
  5
75
330
6A
100
AcDbEntity
  8
0
 62
     7
370
    13
  0
POLYLINE
  5
76
330
1F
100
AcDbEntity
  8
0
 62
     7
370
    13
100
AcDb2dPolyline
 66
     1
 10
0.0
 20
0.0
 30
0.0
 70
     1
  0
VERTEX
  5
77
330
76
100
AcDbEntity
  8
0
370
     0
100
AcDbVertex
100
AcDb2dVertex
 10
592.19342
 20
257.035797
 30
0.0
  0
VERTEX
  5
78
330
76
100
AcDbEntity
  8
0
370
     0
100
AcDbVertex
100
AcDb2dVertex
 10
592.637207
 20
257.035797
 30
0.0
  0
VERTEX
  5
79
330
76
100
AcDbEntity
  8
0
370
     0
100
AcDbVertex
100
AcDb2dVertex
 10
592.637207
 20
258.584076
 30
0.0
  0
VERTEX
  5
7A
330
76
100
AcDbEntity
  8
0
370
     0
100
AcDbVertex
100
AcDb2dVertex
 10
592.682617
 20
258.957275
 30
0.0
  0
VERTEX
  5
7B
330
76
100
AcDbEntity
  8
0
370
     0
100
AcDbVertex
100
AcDb2dVertex
 10
592.818787
 20
259.224548
 30
0.0
  0
VERTEX
  5
7C
330
76
100
AcDbEntity
  8
0
370
     0
100
AcDbVertex
100
AcDb2dVertex
 10
593.04071
 20
259.385956
 30
0.0
  0
VERTEX
  5
7D
330
76
100
AcDbEntity
  8
0
370
     0
100
AcDbVertex
100
AcDb2dVertex
 10
593.338257
 20
259.441406
 30
0.0
  0
VERTEX
  5
7E
330
76
100
AcDbEntity
  8
0
370
     0
100
AcDbVertex
100
AcDb2dVertex
 10
593.56012
 20
259.406128
 30
0.0
  0
VERTEX
  5
7F
330
76
100
AcDbEntity
  8
0
370
     0
100
AcDbVertex
100
AcDb2dVertex
 10
593.726562
 20
259.305237
 30
0.0
  0
VERTEX
  5
80
330
76
100
AcDbEntity
  8
0
370
     0
100
AcDbVertex
100
AcDb2dVertex
 10
593.827454
 20
259.133789
 30
0.0
  0
VERTEX
  5
81
330
76
100
AcDbEntity
  8
0
370
     0
100
AcDbVertex
100
AcDb2dVertex
 10
593.862732
 20
258.901794
 30
0.0
  0
VERTEX
  5
82
330
76
100
AcDbEntity
  8
0
370
     0
100
AcDbVertex
100
AcDb2dVertex
 10
594.311584
 20
258.901794
 30
0.0
  0
VERTEX
  5
83
330
76
100
AcDbEntity
  8
0
370
     0
100
AcDbVertex
100
AcDb2dVertex
 10
594.251038
 20
259.310303
 30
0.0
  0
VERTEX
  5
84
330
76
100
AcDbEntity
  8
0
370
     0
100
AcDbVertex
100
AcDb2dVertex
 10
594.084656
 20
259.602814
 30
0.0
  0
VERTEX
  5
85
330
76
100
AcDbEntity
  8
0
370
     0
100
AcDbVertex
100
AcDb2dVertex
 10
593.807251
 20
259.779327
 30
0.0
  0
VERTEX
  5
86
330
76
100
AcDbEntity
  8
0
370
     0
100
AcDbVertex
100
AcDb2dVertex
 10
593.429016
 20
259.839844
 30
0.0
  0
VERTEX
  5
87
330
76
100
AcDbEntity
  8
0
370
     0
100
AcDbVertex
100
AcDb2dVertex
 10
593.171814
 20
259.7995
 30
0.0
  0
VERTEX
  5
88
330
76
100
AcDbEntity
  8
0
370
     0
100
AcDbVertex
100
AcDb2dVertex
 10
592.94989
 20
259.698608
 30
0.0
  0
VERTEX
  5
89
330
76
100
AcDbEntity
  8
0
370
     0
100
AcDbVertex
100
AcDb2dVertex
 10
592.753235
 20
259.527161
 30
0.0
  0
VERTEX
  5
8A
330
76
100
AcDbEntity
  8
0
370
     0
100
AcDbVertex
100
AcDb2dVertex
 10
592.596863
 20
259.295166
 30
0.0
  0
VERTEX
  5
8B
330
76
100
AcDbEntity
  8
0
370
     0
100
AcDbVertex
100
AcDb2dVertex
 10
592.596863
 20
259.744019
 30
0.0
  0
VERTEX
  5
8C
330
76
100
AcDbEntity
  8
0
370
     0
100
AcDbVertex
100
AcDb2dVertex
 10
592.19342
 20
259.744019
 30
0.0
  0
SEQEND
  5
8D
330
76
100
AcDbEntity
  8
0
 62
     7
370
    13
  0
POLYLINE
  5
8E
330
1F
100
AcDbEntity
  8
0
 62
     7
370
    13
100
AcDb2dPolyline
 66
     1
 10
0.0
 20
0.0
 30
0.0
 70
     1
  0
VERTEX
  5
8F
330
8E
100
AcDbEntity
  8
0
370
     0
100
AcDbVertex
100
AcDb2dVertex
 10
594.931885
 20
258.38739
 30
0.0
  0
VERTEX
  5
90
330
8E
100
AcDbEntity
  8
0
370
     0
100
AcDbVertex
100
AcDb2dVertex
 10
595.012573
 20
257.772095
 30
0.0
  0
VERTEX
  5
91
330
8E
100
AcDbEntity
  8
0
370
     0
100
AcDbVertex
100
AcDb2dVertex
 10
595.244568
 20
257.318207
 30
0.0
  0
VERTEX
  5
92
330
8E
100
AcDbEntity
  8
0
370
     0
100
AcDbVertex
100
AcDb2dVertex
 10
595.612732
 20
257.035797
 30
0.0
  0
VERTEX
  5
93
330
8E
100
AcDbEntity
  8
0
370
     0
100
AcDbVertex
100
AcDb2dVertex
 10
596.106995
 20
256.939972
 30
0.0
  0
VERTEX
  5
94
330
8E
100
AcDbEntity
  8
0
370
     0
100
AcDbVertex
100
AcDb2dVertex
 10
596.59613
 20
257.035797
 30
0.0
  0
VERTEX
  5
95
330
8E
100
AcDbEntity
  8
0
370
     0
100
AcDbVertex
100
AcDb2dVertex
 10
596.964294
 20
257.313171
 30
0.0
  0
VERTEX
  5
96
330
8E
100
AcDbEntity
  8
0
370
     0
100
AcDbVertex
100
AcDb2dVertex
 10
597.196289
 20
257.767059
 30
0.0
  0
VERTEX
  5
97
330
8E
100
AcDbEntity
  8
0
370
     0
100
AcDbVertex
100
AcDb2dVertex
 10
597.282043
 20
258.38739
 30
0.0
  0
VERTEX
  5
98
330
8E
100
AcDbEntity
  8
0
370
     0
100
AcDbVertex
100
AcDb2dVertex
 10
597.196289
 20
259.002655
 30
0.0
  0
VERTEX
  5
99
330
8E
100
AcDbEntity
  8
0
370
     0
100
AcDbVertex
100
AcDb2dVertex
 10
596.964294
 20
259.461578
 30
0.0
  0
VERTEX
  5
9A
330
8E
100
AcDbEntity
  8
0
370
     0
100
AcDbVertex
100
AcDb2dVertex
 10
596.59613
 20
259.738953
 30
0.0
  0
VERTEX
  5
9B
330
8E
100
AcDbEntity
  8
0
370
     0
100
AcDbVertex
100
AcDb2dVertex
 10
596.106995
 20
259.839844
 30
0.0
  0
VERTEX
  5
9C
330
8E
100
AcDbEntity
  8
0
370
     0
100
AcDbVertex
100
AcDb2dVertex
 10
595.612732
 20
259.738953
 30
0.0
  0
VERTEX
  5
9D
330
8E
100
AcDbEntity
  8
0
370
     0
100
AcDbVertex
100
AcDb2dVertex
 10
595.244568
 20
259.456543
 30
0.0
  0
VERTEX
  5
9E
330
8E
100
AcDbEntity
  8
0
370
     0
100
AcDbVertex
100
AcDb2dVertex
 10
595.012573
 20
259.002655
 30
0.0
  0
SEQEND
  5
9F
330
8E
100
AcDbEntity
  8
0
 62
     7
370
    13
  0
POLYLINE
  5
A0
330
1F
100
AcDbEntity
  8
0
 62
     7
370
    13
100
AcDb2dPolyline
 66
     1
 10
0.0
 20
0.0
 30
0.0
 70
     1
  0
VERTEX
  5
A1
330
A0
100
AcDbEntity
  8
0
370
     0
100
AcDbVertex
100
AcDb2dVertex
 10
595.385803
 20
258.392426
 30
0.0
  0
VERTEX
  5
A2
330
A0
100
AcDbEntity
  8
0
370
     0
100
AcDbVertex
100
AcDb2dVertex
 10
595.431152
 20
258.846313
 30
0.0
  0
VERTEX
  5
A3
330
A0
100
AcDbEntity
  8
0
370
     0
100
AcDbVertex
100
AcDb2dVertex
 10
595.572388
 20
259.174133
 30
0.0
  0
VERTEX
  5
A4
330
A0
100
AcDbEntity
  8
0
370
     0
100
AcDbVertex
100
AcDb2dVertex
 10
595.799316
 20
259.375854
 30
0.0
  0
VERTEX
  5
A5
330
A0
100
AcDbEntity
  8
0
370
     0
100
AcDbVertex
100
AcDb2dVertex
 10
596.106995
 20
259.446472
 30
0.0
  0
VERTEX
  5
A6
330
A0
100
AcDbEntity
  8
0
370
     0
100
AcDbVertex
100
AcDb2dVertex
 10
596.409546
 20
259.375854
 30
0.0
  0
VERTEX
  5
A7
330
A0
100
AcDbEntity
  8
0
370
     0
100
AcDbVertex
100
AcDb2dVertex
 10
596.636475
 20
259.179169
 30
0.0
  0
VERTEX
  5
A8
330
A0
100
AcDbEntity
  8
0
370
     0
100
AcDbVertex
100
AcDb2dVertex
 10
596.77771
 20
258.846313
 30
0.0
  0
VERTEX
  5
A9
330
A0
100
AcDbEntity
  8
0
370
     0
100
AcDbVertex
100
AcDb2dVertex
 10
596.828125
 20
258.392426
 30
0.0
  0
VERTEX
  5
AA
330
A0
100
AcDbEntity
  8
0
370
     0
100
AcDbVertex
100
AcDb2dVertex
 10
596.77771
 20
257.933502
 30
0.0
  0
VERTEX
  5
AB
330
A0
100
AcDbEntity
  8
0
370
     0
100
AcDbVertex
100
AcDb2dVertex
 10
596.636475
 20
257.600647
 30
0.0
  0
VERTEX
  5
AC
330
A0
100
AcDbEntity
  8
0
370
     0
100
AcDbVertex
100
AcDb2dVertex
 10
596.409546
 20
257.398895
 30
0.0
  0
VERTEX
  5
AD
330
A0
100
AcDbEntity
  8
0
370
     0
100
AcDbVertex
100
AcDb2dVertex
 10
596.106995
 20
257.333344
 30
0.0
  0
VERTEX
  5
AE
330
A0
100
AcDbEntity
  8
0
370
     0
100
AcDbVertex
100
AcDb2dVertex
 10
595.799316
 20
257.398895
 30
0.0
  0
VERTEX
  5
AF
330
A0
100
AcDbEntity
  8
0
370
     0
100
AcDbVertex
100
AcDb2dVertex
 10
595.572388
 20
257.600647
 30
0.0
  0
VERTEX
  5
B0
330
A0
100
AcDbEntity
  8
0
370
     0
100
AcDbVertex
100
AcDb2dVertex
 10
595.431152
 20
257.933502
 30
0.0
  0
SEQEND
  5
B1
330
A0
100
AcDbEntity
  8
0
 62
     7
370
    13
  0
POLYLINE
  5
B2
330
1F
100
AcDbEntity
  8
0
 62
     7
370
    13
100
AcDb2dPolyline
 66
     1
 10
0.0
 20
0.0
 30
0.0
 70
     1
  0
VERTEX
  5
B3
330
B2
100
AcDbEntity
  8
0
370
     0
100
AcDbVertex
100
AcDb2dVertex
 10
598.09906
 20
257.035797
 30
0.0
  0
VERTEX
  5
B4
330
B2
100
AcDbEntity
  8
0
370
     0
100
AcDbVertex
100
AcDb2dVertex
 10
598.542847
 20
257.035797
 30
0.0
  0
VERTEX
  5
B5
330
B2
100
AcDbEntity
  8
0
370
     0
100
AcDbVertex
100
AcDb2dVertex
 10
598.542847
 20
258.599213
 30
0.0
  0
VERTEX
  5
B6
330
B2
100
AcDbEntity
  8
0
370
     0
100
AcDbVertex
100
AcDb2dVertex
 10
598.588257
 20
258.957275
 30
0.0
  0
VERTEX
  5
B7
330
B2
100
AcDbEntity
  8
0
370
     0
100
AcDbVertex
100
AcDb2dVertex
 10
598.734497
 20
259.219513
 30
0.0
  0
VERTEX
  5
B8
330
B2
100
AcDbEntity
  8
0
370
     0
100
AcDbVertex
100
AcDb2dVertex
 10
598.961426
 20
259.38089
 30
0.0
  0
VERTEX
  5
B9
330
B2
100
AcDbEntity
  8
0
370
     0
100
AcDbVertex
100
AcDb2dVertex
 10
599.264038
 20
259.441406
 30
0.0
  0
VERTEX
  5
BA
330
B2
100
AcDbEntity
  8
0
370
     0
100
AcDbVertex
100
AcDb2dVertex
 10
599.506104
 20
259.390991
 30
0.0
  0
VERTEX
  5
BB
330
B2
100
AcDbEntity
  8
0
370
     0
100
AcDbVertex
100
AcDb2dVertex
 10
599.65741
 20
259.254822
 30
0.0
  0
VERTEX
  5
BC
330
B2
100
AcDbEntity
  8
0
370
     0
100
AcDbVertex
100
AcDb2dVertex
 10
599.733032
 20
259.027863
 30
0.0
  0
VERTEX
  5
BD
330
B2
100
AcDbEntity
  8
0
370
     0
100
AcDbVertex
100
AcDb2dVertex
 10
599.75824
 20
258.725281
 30
0.0
  0
VERTEX
  5
BE
330
B2
100
AcDbEntity
  8
0
370
     0
100
AcDbVertex
100
AcDb2dVertex
 10
599.75824
 20
257.035797
 30
0.0
  0
VERTEX
  5
BF
330
B2
100
AcDbEntity
  8
0
370
     0
100
AcDbVertex
100
AcDb2dVertex
 10
600.202087
 20
257.035797
 30
0.0
  0
VERTEX
  5
C0
330
B2
100
AcDbEntity
  8
0
370
     0
100
AcDbVertex
100
AcDb2dVertex
 10
600.202087
 20
258.816071
 30
0.0
  0
VERTEX
  5
C1
330
B2
100
AcDbEntity
  8
0
370
     0
100
AcDbVertex
100
AcDb2dVertex
 10
600.181885
 20
259.174133
 30
0.0
  0
VERTEX
  5
C2
330
B2
100
AcDbEntity
  8
0
370
     0
100
AcDbVertex
100
AcDb2dVertex
 10
600.091125
 20
259.47168
 30
0.0
  0
VERTEX
  5
C3
330
B2
100
AcDbEntity
  8
0
370
     0
100
AcDbVertex
100
AcDb2dVertex
 10
599.793579
 20
259.744019
 30
0.0
  0
VERTEX
  5
C4
330
B2
100
AcDbEntity
  8
0
370
     0
100
AcDbVertex
100
AcDb2dVertex
 10
599.32959
 20
259.839844
 30
0.0
  0
VERTEX
  5
C5
330
B2
100
AcDbEntity
  8
0
370
     0
100
AcDbVertex
100
AcDb2dVertex
 10
599.072388
 20
259.804535
 30
0.0
  0
VERTEX
  5
C6
330
B2
100
AcDbEntity
  8
0
370
     0
100
AcDbVertex
100
AcDb2dVertex
 10
598.85553
 20
259.70871
 30
0.0
  0
VERTEX
  5
C7
330
B2
100
AcDbEntity
  8
0
370
     0
100
AcDbVertex
100
AcDb2dVertex
 10
598.668945
 20
259.547333
 30
0.0
  0
VERTEX
  5
C8
330
B2
100
AcDbEntity
  8
0
370
     0
100
AcDbVertex
100
AcDb2dVertex
 10
598.522644
 20
259.330475
 30
0.0
  0
VERTEX
  5
C9
330
B2
100
AcDbEntity
  8
0
370
     0
100
AcDbVertex
100
AcDb2dVertex
 10
598.522644
 20
259.744019
 30
0.0
  0
VERTEX
  5
CA
330
B2
100
AcDbEntity
  8
0
370
     0
100
AcDbVertex
100
AcDb2dVertex
 10
598.09906
 20
259.744019
 30
0.0
  0
SEQEND
  5
CB
330
B2
100
AcDbEntity
  8
0
 62
     7
370
    13
  0
POLYLINE
  5
CC
330
1F
100
AcDbEntity
  8
0
 62
     7
370
    13
100
AcDb2dPolyline
 66
     1
 10
0.0
 20
0.0
 30
0.0
 70
     1
  0
VERTEX
  5
CD
330
CC
100
AcDbEntity
  8
0
370
     0
100
AcDbVertex
100
AcDb2dVertex
 10
601.730164
 20
259.274994
 30
0.0
  0
VERTEX
  5
CE
330
CC
100
AcDbEntity
  8
0
370
     0
100
AcDbVertex
100
AcDb2dVertex
 10
601.730164
 20
257.918365
 30
0.0
  0
VERTEX
  5
CF
330
CC
100
AcDbEntity
  8
0
370
     0
100
AcDbVertex
100
AcDb2dVertex
 10
601.760437
 20
257.479614
 30
0.0
  0
VERTEX
  5
D0
330
CC
100
AcDbEntity
  8
0
370
     0
100
AcDbVertex
100
AcDb2dVertex
 10
601.901611
 20
257.177002
 30
0.0
  0
VERTEX
  5
D1
330
CC
100
AcDbEntity
  8
0
370
     0
100
AcDbVertex
100
AcDb2dVertex
 10
602.184082
 20
257.000488
 30
0.0
  0
VERTEX
  5
D2
330
CC
100
AcDbEntity
  8
0
370
     0
100
AcDbVertex
100
AcDb2dVertex
 10
602.663147
 20
256.939972
 30
0.0
  0
VERTEX
  5
D3
330
CC
100
AcDbEntity
  8
0
370
     0
100
AcDbVertex
100
AcDb2dVertex
 10
603.187683
 20
256.965179
 30
0.0
  0
VERTEX
  5
D4
330
CC
100
AcDbEntity
  8
0
370
     0
100
AcDbVertex
100
AcDb2dVertex
 10
603.187683
 20
257.34848
 30
0.0
  0
VERTEX
  5
D5
330
CC
100
AcDbEntity
  8
0
370
     0
100
AcDbVertex
100
AcDb2dVertex
 10
602.804382
 20
257.318207
 30
0.0
  0
VERTEX
  5
D6
330
CC
100
AcDbEntity
  8
0
370
     0
100
AcDbVertex
100
AcDb2dVertex
 10
602.45636
 20
257.358551
 30
0.0
  0
VERTEX
  5
D7
330
CC
100
AcDbEntity
  8
0
370
     0
100
AcDbVertex
100
AcDb2dVertex
 10
602.269775
 20
257.48465
 30
0.0
  0
VERTEX
  5
D8
330
CC
100
AcDbEntity
  8
0
370
     0
100
AcDbVertex
100
AcDb2dVertex
 10
602.189087
 20
257.696472
 30
0.0
  0
VERTEX
  5
D9
330
CC
100
AcDbEntity
  8
0
370
     0
100
AcDbVertex
100
AcDb2dVertex
 10
602.17395
 20
257.994019
 30
0.0
  0
VERTEX
  5
DA
330
CC
100
AcDbEntity
  8
0
370
     0
100
AcDbVertex
100
AcDb2dVertex
 10
602.17395
 20
259.274994
 30
0.0
  0
VERTEX
  5
DB
330
CC
100
AcDbEntity
  8
0
370
     0
100
AcDbVertex
100
AcDb2dVertex
 10
603.187683
 20
259.274994
 30
0.0
  0
VERTEX
  5
DC
330
CC
100
AcDbEntity
  8
0
370
     0
100
AcDbVertex
100
AcDb2dVertex
 10
603.187683
 20
259.653229
 30
0.0
  0
VERTEX
  5
DD
330
CC
100
AcDbEntity
  8
0
370
     0
100
AcDbVertex
100
AcDb2dVertex
 10
602.17395
 20
259.653229
 30
0.0
  0
VERTEX
  5
DE
330
CC
100
AcDbEntity
  8
0
370
     0
100
AcDbVertex
100
AcDb2dVertex
 10
602.17395
 20
260.445007
 30
0.0
  0
VERTEX
  5
DF
330
CC
100
AcDbEntity
  8
0
370
     0
100
AcDbVertex
100
AcDb2dVertex
 10
601.730164
 20
260.445007
 30
0.0
  0
VERTEX
  5
E0
330
CC
100
AcDbEntity
  8
0
370
     0
100
AcDbVertex
100
AcDb2dVertex
 10
601.730164
 20
259.653229
 30
0.0
  0
VERTEX
  5
E1
330
CC
100
AcDbEntity
  8
0
370
     0
100
AcDbVertex
100
AcDb2dVertex
 10
600.963623
 20
259.653229
 30
0.0
  0
VERTEX
  5
E2
330
CC
100
AcDbEntity
  8
0
370
     0
100
AcDbVertex
100
AcDb2dVertex
 10
600.963623
 20
259.274994
 30
0.0
  0
SEQEND
  5
E3
330
CC
100
AcDbEntity
  8
0
 62
     7
370
    13
  0
POLYLINE
  5
E4
330
1F
100
AcDbEntity
  8
0
 62
     7
370
    13
100
AcDb2dPolyline
 66
     1
 10
0.0
 20
0.0
 30
0.0
 70
     1
  0
VERTEX
  5
E5
330
E4
100
AcDbEntity
  8
0
370
     0
100
AcDbVertex
100
AcDb2dVertex
 10
608.019043
 20
257.035797
 30
0.0
  0
VERTEX
  5
E6
330
E4
100
AcDbEntity
  8
0
370
     0
100
AcDbVertex
100
AcDb2dVertex
 10
608.488098
 20
257.035797
 30
0.0
  0
VERTEX
  5
E7
330
E4
100
AcDbEntity
  8
0
370
     0
100
AcDbVertex
100
AcDb2dVertex
 10
609.476562
 20
259.744019
 30
0.0
  0
VERTEX
  5
E8
330
E4
100
AcDbEntity
  8
0
370
     0
100
AcDbVertex
100
AcDb2dVertex
 10
609.017639
 20
259.744019
 30
0.0
  0
VERTEX
  5
E9
330
E4
100
AcDbEntity
  8
0
370
     0
100
AcDbVertex
100
AcDb2dVertex
 10
608.256104
 20
257.560303
 30
0.0
  0
VERTEX
  5
EA
330
E4
100
AcDbEntity
  8
0
370
     0
100
AcDbVertex
100
AcDb2dVertex
 10
607.479431
 20
259.744019
 30
0.0
  0
VERTEX
  5
EB
330
E4
100
AcDbEntity
  8
0
370
     0
100
AcDbVertex
100
AcDb2dVertex
 10
607.015442
 20
259.744019
 30
0.0
  0
SEQEND
  5
EC
330
E4
100
AcDbEntity
  8
0
 62
     7
370
    13
  0
POLYLINE
  5
ED
330
1F
100
AcDbEntity
  8
0
 62
     7
370
    13
100
AcDb2dPolyline
 66
     1
 10
0.0
 20
0.0
 30
0.0
 70
     1
  0
VERTEX
  5
EE
330
ED
100
AcDbEntity
  8
0
370
     0
100
AcDbVertex
100
AcDb2dVertex
 10
611.599731
 20
257.408997
 30
0.0
  0
VERTEX
  5
EF
330
ED
100
AcDbEntity
  8
0
370
     0
100
AcDbVertex
100
AcDb2dVertex
 10
611.599731
 20
259.653229
 30
0.0
  0
VERTEX
  5
F0
330
ED
100
AcDbEntity
  8
0
370
     0
100
AcDbVertex
100
AcDb2dVertex
 10
610.459961
 20
259.653229
 30
0.0
  0
VERTEX
  5
F1
330
ED
100
AcDbEntity
  8
0
370
     0
100
AcDbVertex
100
AcDb2dVertex
 10
610.459961
 20
259.274994
 30
0.0
  0
VERTEX
  5
F2
330
ED
100
AcDbEntity
  8
0
370
     0
100
AcDbVertex
100
AcDb2dVertex
 10
611.155945
 20
259.274994
 30
0.0
  0
VERTEX
  5
F3
330
ED
100
AcDbEntity
  8
0
370
     0
100
AcDbVertex
100
AcDb2dVertex
 10
611.155945
 20
257.408997
 30
0.0
  0
VERTEX
  5
F4
330
ED
100
AcDbEntity
  8
0
370
     0
100
AcDbVertex
100
AcDb2dVertex
 10
610.248169
 20
257.408997
 30
0.0
  0
VERTEX
  5
F5
330
ED
100
AcDbEntity
  8
0
370
     0
100
AcDbVertex
100
AcDb2dVertex
 10
610.248169
 20
257.035797
 30
0.0
  0
VERTEX
  5
F6
330
ED
100
AcDbEntity
  8
0
370
     0
100
AcDbVertex
100
AcDb2dVertex
 10
612.517639
 20
257.035797
 30
0.0
  0
VERTEX
  5
F7
330
ED
100
AcDbEntity
  8
0
370
     0
100
AcDbVertex
100
AcDb2dVertex
 10
612.517639
 20
257.408997
 30
0.0
  0
SEQEND
  5
F8
330
ED
100
AcDbEntity
  8
0
 62
     7
370
    13
  0
POLYLINE
  5
F9
330
1F
100
AcDbEntity
  8
0
 62
     7
370
    13
100
AcDb2dPolyline
 66
     1
 10
0.0
 20
0.0
 30
0.0
 70
     1
  0
VERTEX
  5
FA
330
F9
100
AcDbEntity
  8
0
370
     0
100
AcDbVertex
100
AcDb2dVertex
 10
611.614868
 20
260.65683
 30
0.0
  0
VERTEX
  5
FB
330
F9
100
AcDbEntity
  8
0
370
     0
100
AcDbVertex
100
AcDb2dVertex
 10
611.145874
 20
260.65683
 30
0.0
  0
VERTEX
  5
FC
330
F9
100
AcDbEntity
  8
0
370
     0
100
AcDbVertex
100
AcDb2dVertex
 10
611.145874
 20
260.152527
 30
0.0
  0
VERTEX
  5
FD
330
F9
100
AcDbEntity
  8
0
370
     0
100
AcDbVertex
100
AcDb2dVertex
 10
611.614868
 20
260.152527
 30
0.0
  0
SEQEND
  5
FE
330
F9
100
AcDbEntity
  8
0
 62
     7
370
    13
  0
POLYLINE
  5
FF
330
1F
100
AcDbEntity
  8
0
 62
     7
370
    13
100
AcDb2dPolyline
 66
     1
 10
0.0
 20
0.0
 30
0.0
 70
     1
  0
VERTEX
  5
100
330
FF
100
AcDbEntity
  8
0
370
     0
100
AcDbVertex
100
AcDb2dVertex
 10
613.66748
 20
258.261292
 30
0.0
  0
VERTEX
  5
101
330
FF
100
AcDbEntity
  8
0
370
     0
100
AcDbVertex
100
AcDb2dVertex
 10
615.442688
 20
258.261292
 30
0.0
  0
VERTEX
  5
102
330
FF
100
AcDbEntity
  8
0
370
     0
100
AcDbVertex
100
AcDb2dVertex
 10
615.447754
 20
258.468079
 30
0.0
  0
VERTEX
  5
103
330
FF
100
AcDbEntity
  8
0
370
     0
100
AcDbVertex
100
AcDb2dVertex
 10
615.367065
 20
259.048035
 30
0.0
  0
VERTEX
  5
104
330
FF
100
AcDbEntity
  8
0
370
     0
100
AcDbVertex
100
AcDb2dVertex
 10
615.145142
 20
259.48175
 30
0.0
  0
VERTEX
  5
105
330
FF
100
AcDbEntity
  8
0
370
     0
100
AcDbVertex
100
AcDb2dVertex
 10
614.792114
 20
259.744019
 30
0.0
  0
VERTEX
  5
106
330
FF
100
AcDbEntity
  8
0
370
     0
100
AcDbVertex
100
AcDb2dVertex
 10
614.32312
 20
259.839844
 30
0.0
  0
VERTEX
  5
107
330
FF
100
AcDbEntity
  8
0
370
     0
100
AcDbVertex
100
AcDb2dVertex
 10
613.864197
 20
259.738953
 30
0.0
  0
VERTEX
  5
108
330
FF
100
AcDbEntity
  8
0
370
     0
100
AcDbVertex
100
AcDb2dVertex
 10
613.511169
 20
259.456543
 30
0.0
  0
VERTEX
  5
109
330
FF
100
AcDbEntity
  8
0
370
     0
100
AcDbVertex
100
AcDb2dVertex
 10
613.28418
 20
258.99762
 30
0.0
  0
VERTEX
  5
10A
330
FF
100
AcDbEntity
  8
0
370
     0
100
AcDbVertex
100
AcDb2dVertex
 10
613.203491
 20
258.392426
 30
0.0
  0
VERTEX
  5
10B
330
FF
100
AcDbEntity
  8
0
370
     0
100
AcDbVertex
100
AcDb2dVertex
 10
613.279175
 20
257.772095
 30
0.0
  0
VERTEX
  5
10C
330
FF
100
AcDbEntity
  8
0
370
     0
100
AcDbVertex
100
AcDb2dVertex
 10
613.506104
 20
257.318207
 30
0.0
  0
VERTEX
  5
10D
330
FF
100
AcDbEntity
  8
0
370
     0
100
AcDbVertex
100
AcDb2dVertex
 10
613.854065
 20
257.035797
 30
0.0
  0
VERTEX
  5
10E
330
FF
100
AcDbEntity
  8
0
370
     0
100
AcDbVertex
100
AcDb2dVertex
 10
614.307983
 20
256.939972
 30
0.0
  0
VERTEX
  5
10F
330
FF
100
AcDbEntity
  8
0
370
     0
100
AcDbVertex
100
AcDb2dVertex
 10
614.701355
 20
257.005524
 30
0.0
  0
VERTEX
  5
110
330
FF
100
AcDbEntity
  8
0
370
     0
100
AcDbVertex
100
AcDb2dVertex
 10
615.024109
 20
257.177002
 30
0.0
  0
VERTEX
  5
111
330
FF
100
AcDbEntity
  8
0
370
     0
100
AcDbVertex
100
AcDb2dVertex
 10
615.261169
 20
257.449341
 30
0.0
  0
VERTEX
  5
112
330
FF
100
AcDbEntity
  8
0
370
     0
100
AcDbVertex
100
AcDb2dVertex
 10
615.397339
 20
257.812439
 30
0.0
  0
VERTEX
  5
113
330
FF
100
AcDbEntity
  8
0
370
     0
100
AcDbVertex
100
AcDb2dVertex
 10
614.958557
 20
257.812439
 30
0.0
  0
VERTEX
  5
114
330
FF
100
AcDbEntity
  8
0
370
     0
100
AcDbVertex
100
AcDb2dVertex
 10
614.867798
 20
257.610718
 30
0.0
  0
VERTEX
  5
115
330
FF
100
AcDbEntity
  8
0
370
     0
100
AcDbVertex
100
AcDb2dVertex
 10
614.736633
 20
257.459442
 30
0.0
  0
VERTEX
  5
116
330
FF
100
AcDbEntity
  8
0
370
     0
100
AcDbVertex
100
AcDb2dVertex
 10
614.363464
 20
257.338379
 30
0.0
  0
VERTEX
  5
117
330
FF
100
AcDbEntity
  8
0
370
     0
100
AcDbVertex
100
AcDb2dVertex
 10
614.075989
 20
257.39386
 30
0.0
  0
VERTEX
  5
118
330
FF
100
AcDbEntity
  8
0
370
     0
100
AcDbVertex
100
AcDb2dVertex
 10
613.859131
 20
257.570374
 30
0.0
  0
VERTEX
  5
119
330
FF
100
AcDbEntity
  8
0
370
     0
100
AcDbVertex
100
AcDb2dVertex
 10
613.717896
 20
257.857849
 30
0.0
  0
VERTEX
  5
11A
330
FF
100
AcDbEntity
  8
0
370
     0
100
AcDbVertex
100
AcDb2dVertex
 10
613.66748
 20
258.246185
 30
0.0
  0
SEQEND
  5
11B
330
FF
100
AcDbEntity
  8
0
 62
     7
370
    13
  0
POLYLINE
  5
11C
330
1F
100
AcDbEntity
  8
0
 62
     7
370
    13
100
AcDb2dPolyline
 66
     1
 10
0.0
 20
0.0
 30
0.0
 70
     1
  0
VERTEX
  5
11D
330
11C
100
AcDbEntity
  8
0
370
     0
100
AcDbVertex
100
AcDb2dVertex
 10
613.66748
 20
258.634491
 30
0.0
  0
VERTEX
  5
11E
330
11C
100
AcDbEntity
  8
0
370
     0
100
AcDbVertex
100
AcDb2dVertex
 10
613.722961
 20
258.982483
 30
0.0
  0
VERTEX
  5
11F
330
11C
100
AcDbEntity
  8
0
370
     0
100
AcDbVertex
100
AcDb2dVertex
 10
613.859131
 20
259.239685
 30
0.0
  0
VERTEX
  5
120
330
11C
100
AcDbEntity
  8
0
370
     0
100
AcDbVertex
100
AcDb2dVertex
 10
614.065918
 20
259.396027
 30
0.0
  0
VERTEX
  5
121
330
11C
100
AcDbEntity
  8
0
370
     0
100
AcDbVertex
100
AcDb2dVertex
 10
614.338257
 20
259.451508
 30
0.0
  0
VERTEX
  5
122
330
11C
100
AcDbEntity
  8
0
370
     0
100
AcDbVertex
100
AcDb2dVertex
 10
614.60553
 20
259.396027
 30
0.0
  0
VERTEX
  5
123
330
11C
100
AcDbEntity
  8
0
370
     0
100
AcDbVertex
100
AcDb2dVertex
 10
614.812317
 20
259.239685
 30
0.0
  0
VERTEX
  5
124
330
11C
100
AcDbEntity
  8
0
370
     0
100
AcDbVertex
100
AcDb2dVertex
 10
614.938354
 20
258.982483
 30
0.0
  0
VERTEX
  5
125
330
11C
100
AcDbEntity
  8
0
370
     0
100
AcDbVertex
100
AcDb2dVertex
 10
614.983765
 20
258.634491
 30
0.0
  0
SEQEND
  5
126
330
11C
100
AcDbEntity
  8
0
 62
     7
370
    13
  0
POLYLINE
  5
127
330
1F
100
AcDbEntity
  8
0
 62
     7
370
    13
100
AcDb2dPolyline
 66
     1
 10
0.0
 20
0.0
 30
0.0
 70
     1
  0
VERTEX
  5
128
330
127
100
AcDbEntity
  8
0
370
     0
100
AcDbVertex
100
AcDb2dVertex
 10
616.955688
 20
257.035797
 30
0.0
  0
VERTEX
  5
129
330
127
100
AcDbEntity
  8
0
370
     0
100
AcDbVertex
100
AcDb2dVertex
 10
617.359131
 20
259.33551
 30
0.0
  0
VERTEX
  5
12A
330
127
100
AcDbEntity
  8
0
370
     0
100
AcDbVertex
100
AcDb2dVertex
 10
617.762573
 20
257.035797
 30
0.0
  0
VERTEX
  5
12B
330
127
100
AcDbEntity
  8
0
370
     0
100
AcDbVertex
100
AcDb2dVertex
 10
618.186218
 20
257.035797
 30
0.0
  0
VERTEX
  5
12C
330
127
100
AcDbEntity
  8
0
370
     0
100
AcDbVertex
100
AcDb2dVertex
 10
618.851929
 20
259.744019
 30
0.0
  0
VERTEX
  5
12D
330
127
100
AcDbEntity
  8
0
370
     0
100
AcDbVertex
100
AcDb2dVertex
 10
618.423218
 20
259.744019
 30
0.0
  0
VERTEX
  5
12E
330
127
100
AcDbEntity
  8
0
370
     0
100
AcDbVertex
100
AcDb2dVertex
 10
617.974426
 20
257.444305
 30
0.0
  0
VERTEX
  5
12F
330
127
100
AcDbEntity
  8
0
370
     0
100
AcDbVertex
100
AcDb2dVertex
 10
617.575989
 20
259.744019
 30
0.0
  0
VERTEX
  5
130
330
127
100
AcDbEntity
  8
0
370
     0
100
AcDbVertex
100
AcDb2dVertex
 10
617.137207
 20
259.744019
 30
0.0
  0
VERTEX
  5
131
330
127
100
AcDbEntity
  8
0
370
     0
100
AcDbVertex
100
AcDb2dVertex
 10
616.738831
 20
257.444305
 30
0.0
  0
VERTEX
  5
132
330
127
100
AcDbEntity
  8
0
370
     0
100
AcDbVertex
100
AcDb2dVertex
 10
616.289978
 20
259.744019
 30
0.0
  0
VERTEX
  5
133
330
127
100
AcDbEntity
  8
0
370
     0
100
AcDbVertex
100
AcDb2dVertex
 10
615.866333
 20
259.744019
 30
0.0
  0
VERTEX
  5
134
330
127
100
AcDbEntity
  8
0
370
     0
100
AcDbVertex
100
AcDb2dVertex
 10
616.532043
 20
257.035797
 30
0.0
  0
SEQEND
  5
135
330
127
100
AcDbEntity
  8
0
 62
     7
370
    13
  0
POLYLINE
  5
136
330
1F
100
AcDbEntity
  8
0
 62
     7
370
    13
100
AcDb2dPolyline
 66
     1
 10
0.0
 20
0.0
 30
0.0
 70
     1
  0
VERTEX
  5
137
330
136
100
AcDbEntity
  8
0
370
     0
100
AcDbVertex
100
AcDb2dVertex
 10
589.238098
 20
252.14386
 30
0.0
  0
VERTEX
  5
138
330
136
100
AcDbEntity
  8
0
370
     0
100
AcDbVertex
100
AcDb2dVertex
 10
588.779175
 20
252.14386
 30
0.0
  0
VERTEX
  5
139
330
136
100
AcDbEntity
  8
0
370
     0
100
AcDbVertex
100
AcDb2dVertex
 10
588.880005
 20
251.609283
 30
0.0
  0
VERTEX
  5
13A
330
136
100
AcDbEntity
  8
0
370
     0
100
AcDbVertex
100
AcDb2dVertex
 10
589.132202
 20
251.215912
 30
0.0
  0
VERTEX
  5
13B
330
136
100
AcDbEntity
  8
0
370
     0
100
AcDbVertex
100
AcDb2dVertex
 10
589.520508
 20
250.978882
 30
0.0
  0
VERTEX
  5
13C
330
136
100
AcDbEntity
  8
0
370
     0
100
AcDbVertex
100
AcDb2dVertex
 10
590.044983
 20
250.893143
 30
0.0
  0
VERTEX
  5
13D
330
136
100
AcDbEntity
  8
0
370
     0
100
AcDbVertex
100
AcDb2dVertex
 10
590.564453
 20
250.973831
 30
0.0
  0
VERTEX
  5
13E
330
136
100
AcDbEntity
  8
0
370
     0
100
AcDbVertex
100
AcDb2dVertex
 10
590.952759
 20
251.19574
 30
0.0
  0
VERTEX
  5
13F
330
136
100
AcDbEntity
  8
0
370
     0
100
AcDbVertex
100
AcDb2dVertex
 10
591.19989
 20
251.543716
 30
0.0
  0
VERTEX
  5
140
330
136
100
AcDbEntity
  8
0
370
     0
100
AcDbVertex
100
AcDb2dVertex
 10
591.29071
 20
252.002655
 30
0.0
  0
VERTEX
  5
141
330
136
100
AcDbEntity
  8
0
370
     0
100
AcDbVertex
100
AcDb2dVertex
 10
591.215027
 20
252.416199
 30
0.0
  0
VERTEX
  5
142
330
136
100
AcDbEntity
  8
0
370
     0
100
AcDbVertex
100
AcDb2dVertex
 10
591.003235
 20
252.683487
 30
0.0
  0
VERTEX
  5
143
330
136
100
AcDbEntity
  8
0
370
     0
100
AcDbVertex
100
AcDb2dVertex
 10
590.660278
 20
252.860001
 30
0.0
  0
VERTEX
  5
144
330
136
100
AcDbEntity
  8
0
370
     0
100
AcDbVertex
100
AcDb2dVertex
 10
590.201355
 20
252.991135
 30
0.0
  0
VERTEX
  5
145
330
136
100
AcDbEntity
  8
0
370
     0
100
AcDbVertex
100
AcDb2dVertex
 10
589.807983
 20
253.086945
 30
0.0
  0
VERTEX
  5
146
330
136
100
AcDbEntity
  8
0
370
     0
100
AcDbVertex
100
AcDb2dVertex
 10
589.550781
 20
253.197906
 30
0.0
  0
VERTEX
  5
147
330
136
100
AcDbEntity
  8
0
370
     0
100
AcDbVertex
100
AcDb2dVertex
 10
589.404541
 20
253.359283
 30
0.0
  0
VERTEX
  5
148
330
136
100
AcDbEntity
  8
0
370
     0
100
AcDbVertex
100
AcDb2dVertex
 10
589.359131
 20
253.61145
 30
0.0
  0
VERTEX
  5
149
330
136
100
AcDbEntity
  8
0
370
     0
100
AcDbVertex
100
AcDb2dVertex
 10
589.404541
 20
253.838394
 30
0.0
  0
VERTEX
  5
14A
330
136
100
AcDbEntity
  8
0
370
     0
100
AcDbVertex
100
AcDb2dVertex
 10
589.535645
 20
254.009857
 30
0.0
  0
VERTEX
  5
14B
330
136
100
AcDbEntity
  8
0
370
     0
100
AcDbVertex
100
AcDb2dVertex
 10
589.737366
 20
254.125854
 30
0.0
  0
VERTEX
  5
14C
330
136
100
AcDbEntity
  8
0
370
     0
100
AcDbVertex
100
AcDb2dVertex
 10
590.014771
 20
254.166199
 30
0.0
  0
VERTEX
  5
14D
330
136
100
AcDbEntity
  8
0
370
     0
100
AcDbVertex
100
AcDb2dVertex
 10
590.29718
 20
254.115768
 30
0.0
  0
VERTEX
  5
14E
330
136
100
AcDbEntity
  8
0
370
     0
100
AcDbVertex
100
AcDb2dVertex
 10
590.519043
 20
253.979599
 30
0.0
  0
VERTEX
  5
14F
330
136
100
AcDbEntity
  8
0
370
     0
100
AcDbVertex
100
AcDb2dVertex
 10
590.665344
 20
253.752655
 30
0.0
  0
VERTEX
  5
150
330
136
100
AcDbEntity
  8
0
370
     0
100
AcDbVertex
100
AcDb2dVertex
 10
590.735901
 20
253.445023
 30
0.0
  0
VERTEX
  5
151
330
136
100
AcDbEntity
  8
0
370
     0
100
AcDbVertex
100
AcDb2dVertex
 10
591.194885
 20
253.445023
 30
0.0
  0
VERTEX
  5
152
330
136
100
AcDbEntity
  8
0
370
     0
100
AcDbVertex
100
AcDb2dVertex
 10
591.194885
 20
253.455109
 30
0.0
  0
VERTEX
  5
153
330
136
100
AcDbEntity
  8
0
370
     0
100
AcDbVertex
100
AcDb2dVertex
 10
591.114197
 20
253.929169
 30
0.0
  0
VERTEX
  5
154
330
136
100
AcDbEntity
  8
0
370
     0
100
AcDbVertex
100
AcDb2dVertex
 10
590.877136
 20
254.282196
 30
0.0
  0
VERTEX
  5
155
330
136
100
AcDbEntity
  8
0
370
     0
100
AcDbVertex
100
AcDb2dVertex
 10
590.503967
 20
254.504105
 30
0.0
  0
VERTEX
  5
156
330
136
100
AcDbEntity
  8
0
370
     0
100
AcDbVertex
100
AcDb2dVertex
 10
589.999634
 20
254.579742
 30
0.0
  0
VERTEX
  5
157
330
136
100
AcDbEntity
  8
0
370
     0
100
AcDbVertex
100
AcDb2dVertex
 10
589.545715
 20
254.504105
 30
0.0
  0
VERTEX
  5
158
330
136
100
AcDbEntity
  8
0
370
     0
100
AcDbVertex
100
AcDb2dVertex
 10
589.192688
 20
254.292282
 30
0.0
  0
VERTEX
  5
159
330
136
100
AcDbEntity
  8
0
370
     0
100
AcDbVertex
100
AcDb2dVertex
 10
588.965759
 20
253.964478
 30
0.0
  0
VERTEX
  5
15A
330
136
100
AcDbEntity
  8
0
370
     0
100
AcDbVertex
100
AcDb2dVertex
 10
588.885071
 20
253.540848
 30
0.0
  0
VERTEX
  5
15B
330
136
100
AcDbEntity
  8
0
370
     0
100
AcDbVertex
100
AcDb2dVertex
 10
588.950623
 20
253.162598
 30
0.0
  0
VERTEX
  5
15C
330
136
100
AcDbEntity
  8
0
370
     0
100
AcDbVertex
100
AcDb2dVertex
 10
589.142273
 20
252.905396
 30
0.0
  0
VERTEX
  5
15D
330
136
100
AcDbEntity
  8
0
370
     0
100
AcDbVertex
100
AcDb2dVertex
 10
589.444885
 20
252.733917
 30
0.0
  0
VERTEX
  5
15E
330
136
100
AcDbEntity
  8
0
370
     0
100
AcDbVertex
100
AcDb2dVertex
 10
589.858398
 20
252.602798
 30
0.0
  0
VERTEX
  5
15F
330
136
100
AcDbEntity
  8
0
370
     0
100
AcDbVertex
100
AcDb2dVertex
 10
590.266907
 20
252.486801
 30
0.0
  0
VERTEX
  5
160
330
136
100
AcDbEntity
  8
0
370
     0
100
AcDbVertex
100
AcDb2dVertex
 10
590.574524
 20
252.375854
 30
0.0
  0
VERTEX
  5
161
330
136
100
AcDbEntity
  8
0
370
     0
100
AcDbVertex
100
AcDb2dVertex
 10
590.761169
 20
252.214478
 30
0.0
  0
VERTEX
  5
162
330
136
100
AcDbEntity
  8
0
370
     0
100
AcDbVertex
100
AcDb2dVertex
 10
590.826721
 20
251.952225
 30
0.0
  0
VERTEX
  5
163
330
136
100
AcDbEntity
  8
0
370
     0
100
AcDbVertex
100
AcDb2dVertex
 10
590.766174
 20
251.684937
 30
0.0
  0
VERTEX
  5
164
330
136
100
AcDbEntity
  8
0
370
     0
100
AcDbVertex
100
AcDb2dVertex
 10
590.609863
 20
251.4832
 30
0.0
  0
VERTEX
  5
165
330
136
100
AcDbEntity
  8
0
370
     0
100
AcDbVertex
100
AcDb2dVertex
 10
590.372803
 20
251.357117
 30
0.0
  0
VERTEX
  5
166
330
136
100
AcDbEntity
  8
0
370
     0
100
AcDbVertex
100
AcDb2dVertex
 10
590.065186
 20
251.316772
 30
0.0
  0
VERTEX
  5
167
330
136
100
AcDbEntity
  8
0
370
     0
100
AcDbVertex
100
AcDb2dVertex
 10
589.722229
 20
251.372253
 30
0.0
  0
VERTEX
  5
168
330
136
100
AcDbEntity
  8
0
370
     0
100
AcDbVertex
100
AcDb2dVertex
 10
589.459961
 20
251.53363
 30
0.0
  0
VERTEX
  5
169
330
136
100
AcDbEntity
  8
0
370
     0
100
AcDbVertex
100
AcDb2dVertex
 10
589.293579
 20
251.795883
 30
0.0
  0
SEQEND
  5
16A
330
136
100
AcDbEntity
  8
0
 62
     7
370
    13
  0
POLYLINE
  5
16B
330
1F
100
AcDbEntity
  8
0
 62
     7
370
    13
100
AcDb2dPolyline
 66
     1
 10
0.0
 20
0.0
 30
0.0
 70
     1
  0
VERTEX
  5
16C
330
16B
100
AcDbEntity
  8
0
370
     0
100
AcDbVertex
100
AcDb2dVertex
 10
593.75177
 20
252.799484
 30
0.0
  0
VERTEX
  5
16D
330
16B
100
AcDbEntity
  8
0
370
     0
100
AcDbVertex
100
AcDb2dVertex
 10
594.190552
 20
252.799484
 30
0.0
  0
VERTEX
  5
16E
330
16B
100
AcDbEntity
  8
0
370
     0
100
AcDbVertex
100
AcDb2dVertex
 10
594.099731
 20
253.202942
 30
0.0
  0
VERTEX
  5
16F
330
16B
100
AcDbEntity
  8
0
370
     0
100
AcDbVertex
100
AcDb2dVertex
 10
593.882874
 20
253.520676
 30
0.0
  0
VERTEX
  5
170
330
16B
100
AcDbEntity
  8
0
370
     0
100
AcDbVertex
100
AcDb2dVertex
 10
593.544983
 20
253.717361
 30
0.0
  0
VERTEX
  5
171
330
16B
100
AcDbEntity
  8
0
370
     0
100
AcDbVertex
100
AcDb2dVertex
 10
593.106262
 20
253.792999
 30
0.0
  0
VERTEX
  5
172
330
16B
100
AcDbEntity
  8
0
370
     0
100
AcDbVertex
100
AcDb2dVertex
 10
592.62207
 20
253.692139
 30
0.0
  0
VERTEX
  5
173
330
16B
100
AcDbEntity
  8
0
370
     0
100
AcDbVertex
100
AcDb2dVertex
 10
592.253967
 20
253.409714
 30
0.0
  0
VERTEX
  5
174
330
16B
100
AcDbEntity
  8
0
370
     0
100
AcDbVertex
100
AcDb2dVertex
 10
592.021973
 20
252.95079
 30
0.0
  0
VERTEX
  5
175
330
16B
100
AcDbEntity
  8
0
370
     0
100
AcDbVertex
100
AcDb2dVertex
 10
591.941284
 20
252.33551
 30
0.0
  0
VERTEX
  5
176
330
16B
100
AcDbEntity
  8
0
370
     0
100
AcDbVertex
100
AcDb2dVertex
 10
592.016907
 20
251.725281
 30
0.0
  0
VERTEX
  5
177
330
16B
100
AcDbEntity
  8
0
370
     0
100
AcDbVertex
100
AcDb2dVertex
 10
592.243835
 20
251.271393
 30
0.0
  0
VERTEX
  5
178
330
16B
100
AcDbEntity
  8
0
370
     0
100
AcDbVertex
100
AcDb2dVertex
 10
592.601929
 20
250.988968
 30
0.0
  0
VERTEX
  5
179
330
16B
100
AcDbEntity
  8
0
370
     0
100
AcDbVertex
100
AcDb2dVertex
 10
593.091125
 20
250.893143
 30
0.0
  0
VERTEX
  5
17A
330
16B
100
AcDbEntity
  8
0
370
     0
100
AcDbVertex
100
AcDb2dVertex
 10
593.524841
 20
250.968796
 30
0.0
  0
VERTEX
  5
17B
330
16B
100
AcDbEntity
  8
0
370
     0
100
AcDbVertex
100
AcDb2dVertex
 10
593.862732
 20
251.180603
 30
0.0
  0
VERTEX
  5
17C
330
16B
100
AcDbEntity
  8
0
370
     0
100
AcDbVertex
100
AcDb2dVertex
 10
594.094727
 20
251.513458
 30
0.0
  0
VERTEX
  5
17D
330
16B
100
AcDbEntity
  8
0
370
     0
100
AcDbVertex
100
AcDb2dVertex
 10
594.195557
 20
251.95726
 30
0.0
  0
VERTEX
  5
17E
330
16B
100
AcDbEntity
  8
0
370
     0
100
AcDbVertex
100
AcDb2dVertex
 10
593.771973
 20
251.95726
 30
0.0
  0
VERTEX
  5
17F
330
16B
100
AcDbEntity
  8
0
370
     0
100
AcDbVertex
100
AcDb2dVertex
 10
593.696289
 20
251.67485
 30
0.0
  0
VERTEX
  5
180
330
16B
100
AcDbEntity
  8
0
370
     0
100
AcDbVertex
100
AcDb2dVertex
 10
593.555115
 20
251.463028
 30
0.0
  0
VERTEX
  5
181
330
16B
100
AcDbEntity
  8
0
370
     0
100
AcDbVertex
100
AcDb2dVertex
 10
593.353333
 20
251.331909
 30
0.0
  0
VERTEX
  5
182
330
16B
100
AcDbEntity
  8
0
370
     0
100
AcDbVertex
100
AcDb2dVertex
 10
593.106262
 20
251.291565
 30
0.0
  0
VERTEX
  5
183
330
16B
100
AcDbEntity
  8
0
370
     0
100
AcDbVertex
100
AcDb2dVertex
 10
592.798584
 20
251.357117
 30
0.0
  0
VERTEX
  5
184
330
16B
100
AcDbEntity
  8
0
370
     0
100
AcDbVertex
100
AcDb2dVertex
 10
592.576721
 20
251.558853
 30
0.0
  0
VERTEX
  5
185
330
16B
100
AcDbEntity
  8
0
370
     0
100
AcDbVertex
100
AcDb2dVertex
 10
592.440552
 20
251.886658
 30
0.0
  0
VERTEX
  5
186
330
16B
100
AcDbEntity
  8
0
370
     0
100
AcDbVertex
100
AcDb2dVertex
 10
592.395142
 20
252.350647
 30
0.0
  0
VERTEX
  5
187
330
16B
100
AcDbEntity
  8
0
370
     0
100
AcDbVertex
100
AcDb2dVertex
 10
592.440552
 20
252.804535
 30
0.0
  0
VERTEX
  5
188
330
16B
100
AcDbEntity
  8
0
370
     0
100
AcDbVertex
100
AcDb2dVertex
 10
592.581726
 20
253.132339
 30
0.0
  0
VERTEX
  5
189
330
16B
100
AcDbEntity
  8
0
370
     0
100
AcDbVertex
100
AcDb2dVertex
 10
592.808716
 20
253.334076
 30
0.0
  0
VERTEX
  5
18A
330
16B
100
AcDbEntity
  8
0
370
     0
100
AcDbVertex
100
AcDb2dVertex
 10
593.106262
 20
253.404678
 30
0.0
  0
VERTEX
  5
18B
330
16B
100
AcDbEntity
  8
0
370
     0
100
AcDbVertex
100
AcDb2dVertex
 10
593.368469
 20
253.359283
 30
0.0
  0
VERTEX
  5
18C
330
16B
100
AcDbEntity
  8
0
370
     0
100
AcDbVertex
100
AcDb2dVertex
 10
593.565186
 20
253.243286
 30
0.0
  0
VERTEX
  5
18D
330
16B
100
AcDbEntity
  8
0
370
     0
100
AcDbVertex
100
AcDb2dVertex
 10
593.696289
 20
253.051651
 30
0.0
  0
SEQEND
  5
18E
330
16B
100
AcDbEntity
  8
0
 62
     7
370
    13
  0
POLYLINE
  5
18F
330
1F
100
AcDbEntity
  8
0
 62
     7
370
    13
100
AcDb2dPolyline
 66
     1
 10
0.0
 20
0.0
 30
0.0
 70
     1
  0
VERTEX
  5
190
330
18F
100
AcDbEntity
  8
0
370
     0
100
AcDbVertex
100
AcDb2dVertex
 10
596.671814
 20
251.341995
 30
0.0
  0
VERTEX
  5
191
330
18F
100
AcDbEntity
  8
0
370
     0
100
AcDbVertex
100
AcDb2dVertex
 10
596.671814
 20
251.326859
 30
0.0
  0
VERTEX
  5
192
330
18F
100
AcDbEntity
  8
0
370
     0
100
AcDbVertex
100
AcDb2dVertex
 10
596.697021
 20
251.155396
 30
0.0
  0
VERTEX
  5
193
330
18F
100
AcDbEntity
  8
0
370
     0
100
AcDbVertex
100
AcDb2dVertex
 10
596.772644
 20
251.034363
 30
0.0
  0
VERTEX
  5
194
330
18F
100
AcDbEntity
  8
0
370
     0
100
AcDbVertex
100
AcDb2dVertex
 10
597.090393
 20
250.938538
 30
0.0
  0
VERTEX
  5
195
330
18F
100
AcDbEntity
  8
0
370
     0
100
AcDbVertex
100
AcDb2dVertex
 10
597.337524
 20
250.978882
 30
0.0
  0
VERTEX
  5
196
330
18F
100
AcDbEntity
  8
0
370
     0
100
AcDbVertex
100
AcDb2dVertex
 10
597.337524
 20
251.321823
 30
0.0
  0
VERTEX
  5
197
330
18F
100
AcDbEntity
  8
0
370
     0
100
AcDbVertex
100
AcDb2dVertex
 10
597.231628
 20
251.306686
 30
0.0
  0
VERTEX
  5
198
330
18F
100
AcDbEntity
  8
0
370
     0
100
AcDbVertex
100
AcDb2dVertex
 10
597.090393
 20
251.372253
 30
0.0
  0
VERTEX
  5
199
330
18F
100
AcDbEntity
  8
0
370
     0
100
AcDbVertex
100
AcDb2dVertex
 10
597.065186
 20
251.57399
 30
0.0
  0
VERTEX
  5
19A
330
18F
100
AcDbEntity
  8
0
370
     0
100
AcDbVertex
100
AcDb2dVertex
 10
597.065186
 20
252.975998
 30
0.0
  0
VERTEX
  5
19B
330
18F
100
AcDbEntity
  8
0
370
     0
100
AcDbVertex
100
AcDb2dVertex
 10
597.004639
 20
253.334076
 30
0.0
  0
VERTEX
  5
19C
330
18F
100
AcDbEntity
  8
0
370
     0
100
AcDbVertex
100
AcDb2dVertex
 10
596.828125
 20
253.586227
 30
0.0
  0
VERTEX
  5
19D
330
18F
100
AcDbEntity
  8
0
370
     0
100
AcDbVertex
100
AcDb2dVertex
 10
596.520508
 20
253.737534
 30
0.0
  0
VERTEX
  5
19E
330
18F
100
AcDbEntity
  8
0
370
     0
100
AcDbVertex
100
AcDb2dVertex
 10
596.086792
 20
253.792999
 30
0.0
  0
VERTEX
  5
19F
330
18F
100
AcDbEntity
  8
0
370
     0
100
AcDbVertex
100
AcDb2dVertex
 10
595.663147
 20
253.732483
 30
0.0
  0
VERTEX
  5
1A0
330
18F
100
AcDbEntity
  8
0
370
     0
100
AcDbVertex
100
AcDb2dVertex
 10
595.350464
 20
253.56102
 30
0.0
  0
VERTEX
  5
1A1
330
18F
100
AcDbEntity
  8
0
370
     0
100
AcDbVertex
100
AcDb2dVertex
 10
595.153809
 20
253.293716
 30
0.0
  0
VERTEX
  5
1A2
330
18F
100
AcDbEntity
  8
0
370
     0
100
AcDbVertex
100
AcDb2dVertex
 10
595.088257
 20
252.940704
 30
0.0
  0
VERTEX
  5
1A3
330
18F
100
AcDbEntity
  8
0
370
     0
100
AcDbVertex
100
AcDb2dVertex
 10
595.088257
 20
252.910431
 30
0.0
  0
VERTEX
  5
1A4
330
18F
100
AcDbEntity
  8
0
370
     0
100
AcDbVertex
100
AcDb2dVertex
 10
595.486633
 20
252.910431
 30
0.0
  0
VERTEX
  5
1A5
330
18F
100
AcDbEntity
  8
0
370
     0
100
AcDbVertex
100
AcDb2dVertex
 10
595.521973
 20
253.122253
 30
0.0
  0
VERTEX
  5
1A6
330
18F
100
AcDbEntity
  8
0
370
     0
100
AcDbVertex
100
AcDb2dVertex
 10
595.632874
 20
253.273544
 30
0.0
  0
VERTEX
  5
1A7
330
18F
100
AcDbEntity
  8
0
370
     0
100
AcDbVertex
100
AcDb2dVertex
 10
595.814453
 20
253.364334
 30
0.0
  0
VERTEX
  5
1A8
330
18F
100
AcDbEntity
  8
0
370
     0
100
AcDbVertex
100
AcDb2dVertex
 10
596.071655
 20
253.399628
 30
0.0
  0
VERTEX
  5
1A9
330
18F
100
AcDbEntity
  8
0
370
     0
100
AcDbVertex
100
AcDb2dVertex
 10
596.318787
 20
253.37442
 30
0.0
  0
VERTEX
  5
1AA
330
18F
100
AcDbEntity
  8
0
370
     0
100
AcDbVertex
100
AcDb2dVertex
 10
596.4953
 20
253.298767
 30
0.0
  0
VERTEX
  5
1AB
330
18F
100
AcDbEntity
  8
0
370
     0
100
AcDbVertex
100
AcDb2dVertex
 10
596.601196
 20
253.167648
 30
0.0
  0
VERTEX
  5
1AC
330
18F
100
AcDbEntity
  8
0
370
     0
100
AcDbVertex
100
AcDb2dVertex
 10
596.636475
 20
252.986084
 30
0.0
  0
VERTEX
  5
1AD
330
18F
100
AcDbEntity
  8
0
370
     0
100
AcDbVertex
100
AcDb2dVertex
 10
596.616333
 20
252.774277
 30
0.0
  0
VERTEX
  5
1AE
330
18F
100
AcDbEntity
  8
0
370
     0
100
AcDbVertex
100
AcDb2dVertex
 10
596.535645
 20
252.668365
 30
0.0
  0
VERTEX
  5
1AF
330
18F
100
AcDbEntity
  8
0
370
     0
100
AcDbVertex
100
AcDb2dVertex
 10
596.333923
 20
252.617935
 30
0.0
  0
VERTEX
  5
1B0
330
18F
100
AcDbEntity
  8
0
370
     0
100
AcDbVertex
100
AcDb2dVertex
 10
595.955688
 20
252.577591
 30
0.0
  0
VERTEX
  5
1B1
330
18F
100
AcDbEntity
  8
0
370
     0
100
AcDbVertex
100
AcDb2dVertex
 10
595.521973
 20
252.486801
 30
0.0
  0
VERTEX
  5
1B2
330
18F
100
AcDbEntity
  8
0
370
     0
100
AcDbVertex
100
AcDb2dVertex
 10
595.214294
 20
252.325424
 30
0.0
  0
VERTEX
  5
1B3
330
18F
100
AcDbEntity
  8
0
370
     0
100
AcDbVertex
100
AcDb2dVertex
 10
595.032776
 20
252.073257
 30
0.0
  0
VERTEX
  5
1B4
330
18F
100
AcDbEntity
  8
0
370
     0
100
AcDbVertex
100
AcDb2dVertex
 10
594.977295
 20
251.700058
 30
0.0
  0
VERTEX
  5
1B5
330
18F
100
AcDbEntity
  8
0
370
     0
100
AcDbVertex
100
AcDb2dVertex
 10
595.02771
 20
251.367203
 30
0.0
  0
VERTEX
  5
1B6
330
18F
100
AcDbEntity
  8
0
370
     0
100
AcDbVertex
100
AcDb2dVertex
 10
595.184082
 20
251.120087
 30
0.0
  0
VERTEX
  5
1B7
330
18F
100
AcDbEntity
  8
0
370
     0
100
AcDbVertex
100
AcDb2dVertex
 10
595.436218
 20
250.963745
 30
0.0
  0
VERTEX
  5
1B8
330
18F
100
AcDbEntity
  8
0
370
     0
100
AcDbVertex
100
AcDb2dVertex
 10
595.78418
 20
250.908279
 30
0.0
  0
VERTEX
  5
1B9
330
18F
100
AcDbEntity
  8
0
370
     0
100
AcDbVertex
100
AcDb2dVertex
 10
596.253235
 20
251.014191
 30
0.0
  0
SEQEND
  5
1BA
330
18F
100
AcDbEntity
  8
0
 62
     7
370
    13
  0
POLYLINE
  5
1BB
330
1F
100
AcDbEntity
  8
0
 62
     7
370
    13
100
AcDb2dPolyline
 66
     1
 10
0.0
 20
0.0
 30
0.0
 70
     1
  0
VERTEX
  5
1BC
330
1BB
100
AcDbEntity
  8
0
370
     0
100
AcDbVertex
100
AcDb2dVertex
 10
596.621399
 20
251.937088
 30
0.0
  0
VERTEX
  5
1BD
330
1BB
100
AcDbEntity
  8
0
370
     0
100
AcDbVertex
100
AcDb2dVertex
 10
596.560852
 20
251.67485
 30
0.0
  0
VERTEX
  5
1BE
330
1BB
100
AcDbEntity
  8
0
370
     0
100
AcDbVertex
100
AcDb2dVertex
 10
596.399475
 20
251.473114
 30
0.0
  0
VERTEX
  5
1BF
330
1BB
100
AcDbEntity
  8
0
370
     0
100
AcDbVertex
100
AcDb2dVertex
 10
596.15741
 20
251.341995
 30
0.0
  0
VERTEX
  5
1C0
330
1BB
100
AcDbEntity
  8
0
370
     0
100
AcDbVertex
100
AcDb2dVertex
 10
595.859863
 20
251.2966
 30
0.0
  0
VERTEX
  5
1C1
330
1BB
100
AcDbEntity
  8
0
370
     0
100
AcDbVertex
100
AcDb2dVertex
 10
595.668213
 20
251.321823
 30
0.0
  0
VERTEX
  5
1C2
330
1BB
100
AcDbEntity
  8
0
370
     0
100
AcDbVertex
100
AcDb2dVertex
 10
595.532043
 20
251.402512
 30
0.0
  0
VERTEX
  5
1C3
330
1BB
100
AcDbEntity
  8
0
370
     0
100
AcDbVertex
100
AcDb2dVertex
 10
595.446289
 20
251.543716
 30
0.0
  0
VERTEX
  5
1C4
330
1BB
100
AcDbEntity
  8
0
370
     0
100
AcDbVertex
100
AcDb2dVertex
 10
595.421082
 20
251.740402
 30
0.0
  0
VERTEX
  5
1C5
330
1BB
100
AcDbEntity
  8
0
370
     0
100
AcDbVertex
100
AcDb2dVertex
 10
595.441284
 20
251.916916
 30
0.0
  0
VERTEX
  5
1C6
330
1BB
100
AcDbEntity
  8
0
370
     0
100
AcDbVertex
100
AcDb2dVertex
 10
595.521973
 20
252.042999
 30
0.0
  0
VERTEX
  5
1C7
330
1BB
100
AcDbEntity
  8
0
370
     0
100
AcDbVertex
100
AcDb2dVertex
 10
595.844727
 20
252.184219
 30
0.0
  0
VERTEX
  5
1C8
330
1BB
100
AcDbEntity
  8
0
370
     0
100
AcDbVertex
100
AcDb2dVertex
 10
596.253235
 20
252.244736
 30
0.0
  0
VERTEX
  5
1C9
330
1BB
100
AcDbEntity
  8
0
370
     0
100
AcDbVertex
100
AcDb2dVertex
 10
596.621399
 20
252.365768
 30
0.0
  0
SEQEND
  5
1CA
330
1BB
100
AcDbEntity
  8
0
 62
     7
370
    13
  0
POLYLINE
  5
1CB
330
1F
100
AcDbEntity
  8
0
 62
     7
370
    13
100
AcDb2dPolyline
 66
     1
 10
0.0
 20
0.0
 30
0.0
 70
     1
  0
VERTEX
  5
1CC
330
1CB
100
AcDbEntity
  8
0
370
     0
100
AcDbVertex
100
AcDb2dVertex
 10
598.981628
 20
254.236801
 30
0.0
  0
VERTEX
  5
1CD
330
1CB
100
AcDbEntity
  8
0
370
     0
100
AcDbVertex
100
AcDb2dVertex
 10
598.981628
 20
251.362167
 30
0.0
  0
VERTEX
  5
1CE
330
1CB
100
AcDbEntity
  8
0
370
     0
100
AcDbVertex
100
AcDb2dVertex
 10
598.068787
 20
251.362167
 30
0.0
  0
VERTEX
  5
1CF
330
1CB
100
AcDbEntity
  8
0
370
     0
100
AcDbVertex
100
AcDb2dVertex
 10
598.068787
 20
250.988968
 30
0.0
  0
VERTEX
  5
1D0
330
1CB
100
AcDbEntity
  8
0
370
     0
100
AcDbVertex
100
AcDb2dVertex
 10
600.333191
 20
250.988968
 30
0.0
  0
VERTEX
  5
1D1
330
1CB
100
AcDbEntity
  8
0
370
     0
100
AcDbVertex
100
AcDb2dVertex
 10
600.333191
 20
251.362167
 30
0.0
  0
VERTEX
  5
1D2
330
1CB
100
AcDbEntity
  8
0
370
     0
100
AcDbVertex
100
AcDb2dVertex
 10
599.425415
 20
251.362167
 30
0.0
  0
VERTEX
  5
1D3
330
1CB
100
AcDbEntity
  8
0
370
     0
100
AcDbVertex
100
AcDb2dVertex
 10
599.425415
 20
254.610001
 30
0.0
  0
VERTEX
  5
1D4
330
1CB
100
AcDbEntity
  8
0
370
     0
100
AcDbVertex
100
AcDb2dVertex
 10
598.285645
 20
254.610001
 30
0.0
  0
VERTEX
  5
1D5
330
1CB
100
AcDbEntity
  8
0
370
     0
100
AcDbVertex
100
AcDb2dVertex
 10
598.285645
 20
254.236801
 30
0.0
  0
SEQEND
  5
1D6
330
1CB
100
AcDbEntity
  8
0
 62
     7
370
    13
  0
POLYLINE
  5
1D7
330
1F
100
AcDbEntity
  8
0
 62
     7
370
    13
100
AcDb2dPolyline
 66
     1
 10
0.0
 20
0.0
 30
0.0
 70
     1
  0
VERTEX
  5
1D8
330
1D7
100
AcDbEntity
  8
0
370
     0
100
AcDbVertex
100
AcDb2dVertex
 10
601.523376
 20
252.214478
 30
0.0
  0
VERTEX
  5
1D9
330
1D7
100
AcDbEntity
  8
0
370
     0
100
AcDbVertex
100
AcDb2dVertex
 10
603.298584
 20
252.214478
 30
0.0
  0
VERTEX
  5
1DA
330
1D7
100
AcDbEntity
  8
0
370
     0
100
AcDbVertex
100
AcDb2dVertex
 10
603.30365
 20
252.421249
 30
0.0
  0
VERTEX
  5
1DB
330
1D7
100
AcDbEntity
  8
0
370
     0
100
AcDbVertex
100
AcDb2dVertex
 10
603.222961
 20
253.001221
 30
0.0
  0
VERTEX
  5
1DC
330
1D7
100
AcDbEntity
  8
0
370
     0
100
AcDbVertex
100
AcDb2dVertex
 10
603.001038
 20
253.434937
 30
0.0
  0
VERTEX
  5
1DD
330
1D7
100
AcDbEntity
  8
0
370
     0
100
AcDbVertex
100
AcDb2dVertex
 10
602.64801
 20
253.697174
 30
0.0
  0
VERTEX
  5
1DE
330
1D7
100
AcDbEntity
  8
0
370
     0
100
AcDbVertex
100
AcDb2dVertex
 10
602.179016
 20
253.792999
 30
0.0
  0
VERTEX
  5
1DF
330
1D7
100
AcDbEntity
  8
0
370
     0
100
AcDbVertex
100
AcDb2dVertex
 10
601.720093
 20
253.692139
 30
0.0
  0
VERTEX
  5
1E0
330
1D7
100
AcDbEntity
  8
0
370
     0
100
AcDbVertex
100
AcDb2dVertex
 10
601.367065
 20
253.409714
 30
0.0
  0
VERTEX
  5
1E1
330
1D7
100
AcDbEntity
  8
0
370
     0
100
AcDbVertex
100
AcDb2dVertex
 10
601.140137
 20
252.95079
 30
0.0
  0
VERTEX
  5
1E2
330
1D7
100
AcDbEntity
  8
0
370
     0
100
AcDbVertex
100
AcDb2dVertex
 10
601.059387
 20
252.345596
 30
0.0
  0
VERTEX
  5
1E3
330
1D7
100
AcDbEntity
  8
0
370
     0
100
AcDbVertex
100
AcDb2dVertex
 10
601.135071
 20
251.725281
 30
0.0
  0
VERTEX
  5
1E4
330
1D7
100
AcDbEntity
  8
0
370
     0
100
AcDbVertex
100
AcDb2dVertex
 10
601.362
 20
251.271393
 30
0.0
  0
VERTEX
  5
1E5
330
1D7
100
AcDbEntity
  8
0
370
     0
100
AcDbVertex
100
AcDb2dVertex
 10
601.709961
 20
250.988968
 30
0.0
  0
VERTEX
  5
1E6
330
1D7
100
AcDbEntity
  8
0
370
     0
100
AcDbVertex
100
AcDb2dVertex
 10
602.163879
 20
250.893143
 30
0.0
  0
VERTEX
  5
1E7
330
1D7
100
AcDbEntity
  8
0
370
     0
100
AcDbVertex
100
AcDb2dVertex
 10
602.557251
 20
250.95871
 30
0.0
  0
VERTEX
  5
1E8
330
1D7
100
AcDbEntity
  8
0
370
     0
100
AcDbVertex
100
AcDb2dVertex
 10
602.880005
 20
251.130173
 30
0.0
  0
VERTEX
  5
1E9
330
1D7
100
AcDbEntity
  8
0
370
     0
100
AcDbVertex
100
AcDb2dVertex
 10
603.117065
 20
251.402512
 30
0.0
  0
VERTEX
  5
1EA
330
1D7
100
AcDbEntity
  8
0
370
     0
100
AcDbVertex
100
AcDb2dVertex
 10
603.253235
 20
251.765625
 30
0.0
  0
VERTEX
  5
1EB
330
1D7
100
AcDbEntity
  8
0
370
     0
100
AcDbVertex
100
AcDb2dVertex
 10
602.814453
 20
251.765625
 30
0.0
  0
VERTEX
  5
1EC
330
1D7
100
AcDbEntity
  8
0
370
     0
100
AcDbVertex
100
AcDb2dVertex
 10
602.723694
 20
251.563889
 30
0.0
  0
VERTEX
  5
1ED
330
1D7
100
AcDbEntity
  8
0
370
     0
100
AcDbVertex
100
AcDb2dVertex
 10
602.592529
 20
251.412598
 30
0.0
  0
VERTEX
  5
1EE
330
1D7
100
AcDbEntity
  8
0
370
     0
100
AcDbVertex
100
AcDb2dVertex
 10
602.21936
 20
251.291565
 30
0.0
  0
VERTEX
  5
1EF
330
1D7
100
AcDbEntity
  8
0
370
     0
100
AcDbVertex
100
AcDb2dVertex
 10
601.931885
 20
251.347031
 30
0.0
  0
VERTEX
  5
1F0
330
1D7
100
AcDbEntity
  8
0
370
     0
100
AcDbVertex
100
AcDb2dVertex
 10
601.715027
 20
251.523544
 30
0.0
  0
VERTEX
  5
1F1
330
1D7
100
AcDbEntity
  8
0
370
     0
100
AcDbVertex
100
AcDb2dVertex
 10
601.573853
 20
251.81102
 30
0.0
  0
VERTEX
  5
1F2
330
1D7
100
AcDbEntity
  8
0
370
     0
100
AcDbVertex
100
AcDb2dVertex
 10
601.523376
 20
252.199341
 30
0.0
  0
SEQEND
  5
1F3
330
1D7
100
AcDbEntity
  8
0
 62
     7
370
    13
  0
POLYLINE
  5
1F4
330
1F
100
AcDbEntity
  8
0
 62
     7
370
    13
100
AcDb2dPolyline
 66
     1
 10
0.0
 20
0.0
 30
0.0
 70
     1
  0
VERTEX
  5
1F5
330
1F4
100
AcDbEntity
  8
0
370
     0
100
AcDbVertex
100
AcDb2dVertex
 10
601.523376
 20
252.587677
 30
0.0
  0
VERTEX
  5
1F6
330
1F4
100
AcDbEntity
  8
0
370
     0
100
AcDbVertex
100
AcDb2dVertex
 10
601.578857
 20
252.935654
 30
0.0
  0
VERTEX
  5
1F7
330
1F4
100
AcDbEntity
  8
0
370
     0
100
AcDbVertex
100
AcDb2dVertex
 10
601.715027
 20
253.192856
 30
0.0
  0
VERTEX
  5
1F8
330
1F4
100
AcDbEntity
  8
0
370
     0
100
AcDbVertex
100
AcDb2dVertex
 10
601.921814
 20
253.349197
 30
0.0
  0
VERTEX
  5
1F9
330
1F4
100
AcDbEntity
  8
0
370
     0
100
AcDbVertex
100
AcDb2dVertex
 10
602.194153
 20
253.404678
 30
0.0
  0
VERTEX
  5
1FA
330
1F4
100
AcDbEntity
  8
0
370
     0
100
AcDbVertex
100
AcDb2dVertex
 10
602.461426
 20
253.349197
 30
0.0
  0
VERTEX
  5
1FB
330
1F4
100
AcDbEntity
  8
0
370
     0
100
AcDbVertex
100
AcDb2dVertex
 10
602.668213
 20
253.192856
 30
0.0
  0
VERTEX
  5
1FC
330
1F4
100
AcDbEntity
  8
0
370
     0
100
AcDbVertex
100
AcDb2dVertex
 10
602.794312
 20
252.935654
 30
0.0
  0
VERTEX
  5
1FD
330
1F4
100
AcDbEntity
  8
0
370
     0
100
AcDbVertex
100
AcDb2dVertex
 10
602.839661
 20
252.587677
 30
0.0
  0
SEQEND
  5
1FE
330
1F4
100
AcDbEntity
  8
0
 62
     7
370
    13
  0
POLYLINE
  5
1FF
330
1F
100
AcDbEntity
  8
0
 62
     7
370
    13
100
AcDb2dPolyline
 66
     1
 10
0.0
 20
0.0
 30
0.0
 70
     1
  0
VERTEX
  5
200
330
1FF
100
AcDbEntity
  8
0
370
     0
100
AcDbVertex
100
AcDb2dVertex
 10
604.867065
 20
250.988968
 30
0.0
  0
VERTEX
  5
201
330
1FF
100
AcDbEntity
  8
0
370
     0
100
AcDbVertex
100
AcDb2dVertex
 10
605.562988
 20
250.988968
 30
0.0
  0
VERTEX
  5
202
330
1FF
100
AcDbEntity
  8
0
370
     0
100
AcDbVertex
100
AcDb2dVertex
 10
605.562988
 20
251.740402
 30
0.0
  0
VERTEX
  5
203
330
1FF
100
AcDbEntity
  8
0
370
     0
100
AcDbVertex
100
AcDb2dVertex
 10
604.867065
 20
251.740402
 30
0.0
  0
SEQEND
  5
204
330
1FF
100
AcDbEntity
  8
0
 62
     7
370
    13
  0
POLYLINE
  5
205
330
1F
100
AcDbEntity
  8
0
 62
     7
370
    13
100
AcDb2dPolyline
 66
     1
 10
0.0
 20
0.0
 30
0.0
 70
     1
  0
VERTEX
  5
206
330
205
100
AcDbEntity
  8
0
370
     0
100
AcDbVertex
100
AcDb2dVertex
 10
604.867065
 20
252.94574
 30
0.0
  0
VERTEX
  5
207
330
205
100
AcDbEntity
  8
0
370
     0
100
AcDbVertex
100
AcDb2dVertex
 10
605.562988
 20
252.94574
 30
0.0
  0
VERTEX
  5
208
330
205
100
AcDbEntity
  8
0
370
     0
100
AcDbVertex
100
AcDb2dVertex
 10
605.562988
 20
253.697174
 30
0.0
  0
VERTEX
  5
209
330
205
100
AcDbEntity
  8
0
370
     0
100
AcDbVertex
100
AcDb2dVertex
 10
604.867065
 20
253.697174
 30
0.0
  0
SEQEND
  5
20A
330
205
100
AcDbEntity
  8
0
 62
     7
370
    13
  0
POLYLINE
  5
20B
330
1F
100
AcDbEntity
  8
0
 62
     7
370
    13
100
AcDb2dPolyline
 66
     1
 10
0.0
 20
0.0
 30
0.0
 70
     1
  0
VERTEX
  5
20C
330
20B
100
AcDbEntity
  8
0
370
     0
100
AcDbVertex
100
AcDb2dVertex
 10
614.2323
 20
250.988968
 30
0.0
  0
VERTEX
  5
20D
330
20B
100
AcDbEntity
  8
0
370
     0
100
AcDbVertex
100
AcDb2dVertex
 10
614.691284
 20
250.988968
 30
0.0
  0
VERTEX
  5
20E
330
20B
100
AcDbEntity
  8
0
370
     0
100
AcDbVertex
100
AcDb2dVertex
 10
614.691284
 20
254.514191
 30
0.0
  0
VERTEX
  5
20F
330
20B
100
AcDbEntity
  8
0
370
     0
100
AcDbVertex
100
AcDb2dVertex
 10
614.348328
 20
254.514191
 30
0.0
  0
VERTEX
  5
210
330
20B
100
AcDbEntity
  8
0
370
     0
100
AcDbVertex
100
AcDb2dVertex
 10
614.257568
 20
254.206543
 30
0.0
  0
VERTEX
  5
211
330
20B
100
AcDbEntity
  8
0
370
     0
100
AcDbVertex
100
AcDb2dVertex
 10
614.075989
 20
253.999771
 30
0.0
  0
VERTEX
  5
212
330
20B
100
AcDbEntity
  8
0
370
     0
100
AcDbVertex
100
AcDb2dVertex
 10
613.798584
 20
253.878738
 30
0.0
  0
VERTEX
  5
213
330
20B
100
AcDbEntity
  8
0
370
     0
100
AcDbVertex
100
AcDb2dVertex
 10
613.415344
 20
253.838394
 30
0.0
  0
VERTEX
  5
214
330
20B
100
AcDbEntity
  8
0
370
     0
100
AcDbVertex
100
AcDb2dVertex
 10
613.415344
 20
253.480316
 30
0.0
  0
VERTEX
  5
215
330
20B
100
AcDbEntity
  8
0
370
     0
100
AcDbVertex
100
AcDb2dVertex
 10
614.2323
 20
253.480316
 30
0.0
  0
SEQEND
  5
216
330
20B
100
AcDbEntity
  8
0
 62
     7
370
    13
  0
POLYLINE
  5
217
330
1F
100
AcDbEntity
  8
0
 62
     7
370
    13
100
AcDb2dPolyline
 66
     1
 10
0.0
 20
0.0
 30
0.0
 70
     1
  0
VERTEX
  5
218
330
217
100
AcDbEntity
  8
0
370
     0
100
AcDbVertex
100
AcDb2dVertex
 10
617.011169
 20
250.988968
 30
0.0
  0
VERTEX
  5
219
330
217
100
AcDbEntity
  8
0
370
     0
100
AcDbVertex
100
AcDb2dVertex
 10
617.707092
 20
250.988968
 30
0.0
  0
VERTEX
  5
21A
330
217
100
AcDbEntity
  8
0
370
     0
100
AcDbVertex
100
AcDb2dVertex
 10
617.707092
 20
251.740402
 30
0.0
  0
VERTEX
  5
21B
330
217
100
AcDbEntity
  8
0
370
     0
100
AcDbVertex
100
AcDb2dVertex
 10
617.011169
 20
251.740402
 30
0.0
  0
SEQEND
  5
21C
330
217
100
AcDbEntity
  8
0
 62
     7
370
    13
  0
POLYLINE
  5
21D
330
1F
100
AcDbEntity
  8
0
 62
     7
370
    13
100
AcDb2dPolyline
 66
     1
 10
0.0
 20
0.0
 30
0.0
 70
     1
  0
VERTEX
  5
21E
330
21D
100
AcDbEntity
  8
0
370
     0
100
AcDbVertex
100
AcDb2dVertex
 10
617.011169
 20
252.94574
 30
0.0
  0
VERTEX
  5
21F
330
21D
100
AcDbEntity
  8
0
370
     0
100
AcDbVertex
100
AcDb2dVertex
 10
617.707092
 20
252.94574
 30
0.0
  0
VERTEX
  5
220
330
21D
100
AcDbEntity
  8
0
370
     0
100
AcDbVertex
100
AcDb2dVertex
 10
617.707092
 20
253.697174
 30
0.0
  0
VERTEX
  5
221
330
21D
100
AcDbEntity
  8
0
370
     0
100
AcDbVertex
100
AcDb2dVertex
 10
617.011169
 20
253.697174
 30
0.0
  0
SEQEND
  5
222
330
21D
100
AcDbEntity
  8
0
 62
     7
370
    13
  0
POLYLINE
  5
223
330
1F
100
AcDbEntity
  8
0
 62
     7
370
    13
100
AcDb2dPolyline
 66
     1
 10
0.0
 20
0.0
 30
0.0
 70
     1
  0
VERTEX
  5
224
330
223
100
AcDbEntity
  8
0
370
     0
100
AcDbVertex
100
AcDb2dVertex
 10
620.304382
 20
250.988968
 30
0.0
  0
VERTEX
  5
225
330
223
100
AcDbEntity
  8
0
370
     0
100
AcDbVertex
100
AcDb2dVertex
 10
620.763306
 20
250.988968
 30
0.0
  0
VERTEX
  5
226
330
223
100
AcDbEntity
  8
0
370
     0
100
AcDbVertex
100
AcDb2dVertex
 10
620.763306
 20
254.514191
 30
0.0
  0
VERTEX
  5
227
330
223
100
AcDbEntity
  8
0
370
     0
100
AcDbVertex
100
AcDb2dVertex
 10
620.420349
 20
254.514191
 30
0.0
  0
VERTEX
  5
228
330
223
100
AcDbEntity
  8
0
370
     0
100
AcDbVertex
100
AcDb2dVertex
 10
620.32959
 20
254.206543
 30
0.0
  0
VERTEX
  5
229
330
223
100
AcDbEntity
  8
0
370
     0
100
AcDbVertex
100
AcDb2dVertex
 10
620.14801
 20
253.999771
 30
0.0
  0
VERTEX
  5
22A
330
223
100
AcDbEntity
  8
0
370
     0
100
AcDbVertex
100
AcDb2dVertex
 10
619.870667
 20
253.878738
 30
0.0
  0
VERTEX
  5
22B
330
223
100
AcDbEntity
  8
0
370
     0
100
AcDbVertex
100
AcDb2dVertex
 10
619.487366
 20
253.838394
 30
0.0
  0
VERTEX
  5
22C
330
223
100
AcDbEntity
  8
0
370
     0
100
AcDbVertex
100
AcDb2dVertex
 10
619.487366
 20
253.480316
 30
0.0
  0
VERTEX
  5
22D
330
223
100
AcDbEntity
  8
0
370
     0
100
AcDbVertex
100
AcDb2dVertex
 10
620.304382
 20
253.480316
 30
0.0
  0
SEQEND
  5
22E
330
223
100
AcDbEntity
  8
0
 62
     7
370
    13
  0
LINE
  5
22F
330
1F
100
AcDbEntity
  8
0
 62
     7
370
    35
100
AcDbLine
 10
768.516907
 20
283.892426
 30
0.0
 11
768.516907
 21
553.892456
 31
0.0
  0
ARC
  5
230
330
1F
100
AcDbEntity
  8
0
 62
     7
370
    35
100
AcDbCircle
 10
753.516907
 20
553.892456
 30
0.0
 40
15.0
100
AcDbArc
 50
0.0
 51
90.000003
  0
LINE
  5
231
330
1F
100
AcDbEntity
  8
0
 62
     7
370
    35
100
AcDbLine
 10
753.516907
 20
568.892456
 30
0.0
 11
423.516907
 21
568.892456
 31
0.0
  0
ARC
  5
232
330
1F
100
AcDbEntity
  8
0
 62
     7
370
    35
100
AcDbCircle
 10
423.516907
 20
553.892456
 30
0.0
 40
15.0
100
AcDbArc
 50
90.000003
 51
180.000005
  0
LINE
  5
233
330
1F
100
AcDbEntity
  8
0
 62
     7
370
    35
100
AcDbLine
 10
408.516907
 20
553.892456
 30
0.0
 11
408.516907
 21
283.892426
 31
0.0
  0
ARC
  5
234
330
1F
100
AcDbEntity
  8
0
 62
     7
370
    35
100
AcDbCircle
 10
423.516907
 20
283.892426
 30
0.0
 40
15.0
100
AcDbArc
 50
180.000005
 51
269.999997
  0
LINE
  5
235
330
1F
100
AcDbEntity
  8
0
 62
     7
370
    35
100
AcDbLine
 10
423.516907
 20
268.892426
 30
0.0
 11
753.516907
 21
268.892426
 31
0.0
  0
ARC
  5
236
330
1F
100
AcDbEntity
  8
0
 62
     7
370
    35
100
AcDbCircle
 10
753.516907
 20
283.892426
 30
0.0
 40
15.0
100
AcDbArc
 50
269.999997
 51
360.0
  0
CIRCLE
  5
237
330
1F
100
AcDbEntity
  8
0
 62
     7
370
    35
100
AcDbCircle
 10
748.516907
 20
288.892426
 30
0.0
 40
1.75
  0
LINE
  5
238
330
1F
100
AcDbEntity
  8
0
 62
     7
370
    35
100
AcDbLine
 10
703.516907
 20
348.892426
 30
0.0
 11
618.516907
 21
348.892426
 31
0.0
  0
LINE
  5
239
330
1F
100
AcDbEntity
  8
0
 62
     7
370
    35
100
AcDbLine
 10
618.516907
 20
348.892426
 30
0.0
 11
618.516907
 21
473.892426
 31
0.0
  0
LINE
  5
23A
330
1F
100
AcDbEntity
  8
0
 62
     7
370
    35
100
AcDbLine
 10
618.516907
 20
473.892426
 30
0.0
 11
703.516907
 21
473.892426
 31
0.0
  0
LINE
  5
23B
330
1F
100
AcDbEntity
  8
0
 62
     7
370
    35
100
AcDbLine
 10
703.516907
 20
473.892426
 30
0.0
 11
703.516907
 21
348.892426
 31
0.0
  0
CIRCLE
  5
23C
330
1F
100
AcDbEntity
  8
0
 62
     7
370
    35
100
AcDbCircle
 10
498.516907
 20
493.892426
 30
0.0
 40
20.26269294321537
  0
CIRCLE
  5
23D
330
1F
100
AcDbEntity
  8
0
 62
     7
370
    35
100
AcDbCircle
 10
498.516907
 20
448.892426
 30
0.0
 40
20.26269294321537
  0
CIRCLE
  5
23E
330
1F
100
AcDbEntity
  8
0
 62
     7
370
    35
100
AcDbCircle
 10
706.516907
 20
476.892426
 30
0.0
 40
1.75
  0
CIRCLE
  5
23F
330
1F
100
AcDbEntity
  8
0
 62
     7
370
    35
100
AcDbCircle
 10
706.516907
 20
345.892426
 30
0.0
 40
1.75
  0
CIRCLE
  5
240
330
1F
100
AcDbEntity
  8
0
 62
     7
370
    35
100
AcDbCircle
 10
615.516907
 20
476.892426
 30
0.0
 40
1.75
  0
CIRCLE
  5
241
330
1F
100
AcDbEntity
  8
0
 62
     7
370
    35
100
AcDbCircle
 10
615.516907
 20
345.892426
 30
0.0
 40
1.75
  0
CIRCLE
  5
242
330
1F
100
AcDbEntity
  8
0
 62
     7
370
    35
100
AcDbCircle
 10
514.516907
 20
509.892426
 30
0.0
 40
1.75
  0
CIRCLE
  5
243
330
1F
100
AcDbEntity
  8
0
 62
     7
370
    35
100
AcDbCircle
 10
482.516907
 20
464.892426
 30
0.0
 40
1.75
  0
CIRCLE
  5
244
330
1F
100
AcDbEntity
  8
0
 62
     7
370
    35
100
AcDbCircle
 10
514.516907
 20
432.892426
 30
0.0
 40
1.75
  0
CIRCLE
  5
245
330
1F
100
AcDbEntity
  8
0
 62
     7
370
    35
100
AcDbCircle
 10
482.516907
 20
477.892426
 30
0.0
 40
1.75
  0
CIRCLE
  5
246
330
1F
100
AcDbEntity
  8
0
 62
     7
370
    35
100
AcDbCircle
 10
482.516907
 20
509.892426
 30
0.0
 40
1.75
  0
CIRCLE
  5
247
330
1F
100
AcDbEntity
  8
0
 62
     7
370
    35
100
AcDbCircle
 10
514.516907
 20
477.892426
 30
0.0
 40
1.75
  0
CIRCLE
  5
248
330
1F
100
AcDbEntity
  8
0
 62
     7
370
    35
100
AcDbCircle
 10
514.516907
 20
464.892426
 30
0.0
 40
1.75
  0
CIRCLE
  5
249
330
1F
100
AcDbEntity
  8
0
 62
     7
370
    35
100
AcDbCircle
 10
482.516907
 20
432.892426
 30
0.0
 40
1.75
  0
CIRCLE
  5
24A
330
1F
100
AcDbEntity
  8
0
 62
     7
370
    35
100
AcDbCircle
 10
748.516907
 20
548.892456
 30
0.0
 40
1.75
  0
CIRCLE
  5
24B
330
1F
100
AcDbEntity
  8
0
 62
     7
370
    35
100
AcDbCircle
 10
428.614594
 20
548.892456
 30
0.0
 40
1.75
  0
CIRCLE
  5
24C
330
1F
100
AcDbEntity
  8
0
 62
     7
370
    35
100
AcDbCircle
 10
428.516907
 20
288.892426
 30
0.0
 40
1.75
  0
ENDSEC
  0
SECTION
  2
OBJECTS
  0
DICTIONARY
  5
C
330
0
100
AcDbDictionary
281
     1
  3
ACAD_GROUP
350
D
  3
ACAD_LAYOUT
350
1A
  3
ACAD_MLINESTYLE
350
17
  3
ACAD_PLOTSETTINGS
350
19
  3
ACAD_PLOTSTYLENAME
350
E
  3
ACAD_SCALELIST
350
47
  0
DICTIONARY
  5
D
102
{ACAD_REACTORS
330
C
102
}
330
C
100
AcDbDictionary
281
     1
  0
DICTIONARY
  5
1A
102
{ACAD_REACTORS
330
C
102
}
330
C
100
AcDbDictionary
281
     1
  3
Layout1
350
1E
  3
Layout2
350
26
  3
Model
350
22
  0
DICTIONARY
  5
17
102
{ACAD_REACTORS
330
C
102
}
330
C
100
AcDbDictionary
281
     1
  3
Standard
350
18
  0
DICTIONARY
  5
19
102
{ACAD_REACTORS
330
C
102
}
330
C
100
AcDbDictionary
281
     1
  0
ACDBDICTIONARYWDFLT
  5
E
102
{ACAD_REACTORS
330
C
102
}
330
C
100
AcDbDictionary
281
     1
  3
Normal
350
F
100
AcDbDictionaryWithDefault
340
F
  0
DICTIONARY
  5
47
102
{ACAD_REACTORS
330
C
102
}
330
C
100
AcDbDictionary
281
     1
  3
A0
350
48
  3
A1
350
49
  3
A2
350
4A
  3
A3
350
4B
  3
A4
350
4C
  3
A5
350
4D
  3
A6
350
4E
  3
A7
350
4F
  3
A8
350
50
  3
A9
350
51
  3
B0
350
52
  3
B1
350
53
  3
B2
350
54
  3
B3
350
55
  3
B4
350
56
  3
B5
350
57
  3
B6
350
58
  3
B7
350
59
  3
B8
350
5A
  3
B9
350
5B
  3
C0
350
5C
  3
C1
350
5D
  3
C2
350
5E
  3
C3
350
5F
  3
C4
350
60
  3
C5
350
61
  3
C6
350
62
  3
C7
350
63
  3
C8
350
64
  3
C9
350
65
  3
D0
350
66
  3
D1
350
67
  3
D2
350
68
  0
LAYOUT
  5
1E
102
{ACAD_REACTORS
330
1A
102
}
330
1A
100
AcDbPlotSettings
  1

  2
none_device
  4

  6

 40
0.0
 41
0.0
 42
0.0
 43
0.0
 44
0.0
 45
0.0
 46
0.0
 47
0.0
 48
0.0
 49
0.0
140
0.0
141
0.0
142
1.0
143
1.0
 70
  4784
 72
     0
 73
     0
 74
     5
  7

 75
    16
147
1.0
148
0.0
149
0.0
100
AcDbLayout
  1
Layout1
 70
     1
 71
     1
 10
0.0
 20
0.0
 11
420.0
 21
297.0
 12
0.0
 22
0.0
 32
0.0
 14
0.0
 24
0.0
 34
0.0
 15
768.516907
 25
568.892456
 35
2.0
146
0.0
 13
0.0
 23
0.0
 33
0.0
 16
1.0
 26
0.0
 36
0.0
 17
0.0
 27
1.0
 37
0.0
 76
     0
330
1B
  0
LAYOUT
  5
26
102
{ACAD_REACTORS
330
1A
102
}
330
1A
100
AcDbPlotSettings
  1

  2
none_device
  4

  6

 40
0.0
 41
0.0
 42
0.0
 43
0.0
 44
0.0
 45
0.0
 46
0.0
 47
0.0
 48
0.0
 49
0.0
140
0.0
141
0.0
142
1.0
143
1.0
 70
  4784
 72
     0
 73
     0
 74
     5
  7

 75
    16
147
1.0
148
0.0
149
0.0
100
AcDbLayout
  1
Layout2
 70
     1
 71
     2
 10
0.0
 20
0.0
 11
0.0
 21
0.0
 12
0.0
 22
0.0
 32
0.0
 14
0.0
 24
0.0
 34
0.0
 15
0.0
 25
0.0
 35
0.0
146
0.0
 13
0.0
 23
0.0
 33
0.0
 16
1.0
 26
0.0
 36
0.0
 17
0.0
 27
1.0
 37
0.0
 76
     0
330
23
  0
LAYOUT
  5
22
102
{ACAD_REACTORS
330
1A
102
}
330
1A
100
AcDbPlotSettings
  1

  2
none_device
  4
Letter_(8.50_x_11.00_Inches)
  6

 40
6.35
 41
6.35
 42
6.350005
 43
6.350005
 44
215.9
 45
279.4
 46
0.0
 47
0.0
 48
0.0
 49
0.0
140
0.0
141
0.0
142
1.0
143
1.0
 70
  5808
 72
     0
 73
     0
 74
     0
  7

 75
     0
147
1.0
148
0.0
149
0.0
100
AcDbLayout
  1
Model
 70
     1
 71
     0
 10
0.0
 20
0.0
 11
420.0
 21
297.0
 12
0.0
 22
0.0
 32
0.0
 14
0.0
 24
0.0
 34
0.0
 15
768.516907
 25
568.892456
 35
2.0
146
0.0
 13
0.0
 23
0.0
 33
0.0
 16
1.0
 26
0.0
 36
0.0
 17
0.0
 27
1.0
 37
0.0
 76
     0
330
1F
331
29
  0
MLINESTYLE
  5
18
102
{ACAD_REACTORS
330
17
102
}
330
17
100
AcDbMlineStyle
  2
Standard
 70
     0
  3

 62
   256
 51
90.0
 52
90.0
 71
     2
 49
0.5
 62
   256
  6
BYLAYER
 49
-0.5
 62
   256
  6
BYLAYER
  0
ACDBPLACEHOLDER
  5
F
102
{ACAD_REACTORS
330
E
102
}
330
E
  0
SCALE
  5
48
102
{ACAD_REACTORS
330
47
102
}
330
47
100
AcDbScale
 70
     0
300
1:1
140
1.0
141
1.0
290
     1
  0
SCALE
  5
49
102
{ACAD_REACTORS
330
47
102
}
330
47
100
AcDbScale
 70
     0
300
1:2
140
1.0
141
2.0
290
     0
  0
SCALE
  5
4A
102
{ACAD_REACTORS
330
47
102
}
330
47
100
AcDbScale
 70
     0
300
1:4
140
1.0
141
4.0
290
     0
  0
SCALE
  5
4B
102
{ACAD_REACTORS
330
47
102
}
330
47
100
AcDbScale
 70
     0
300
1:5
140
1.0
141
5.0
290
     0
  0
SCALE
  5
4C
102
{ACAD_REACTORS
330
47
102
}
330
47
100
AcDbScale
 70
     0
300
1:8
140
1.0
141
8.0
290
     0
  0
SCALE
  5
4D
102
{ACAD_REACTORS
330
47
102
}
330
47
100
AcDbScale
 70
     0
300
1:10
140
1.0
141
10.0
290
     0
  0
SCALE
  5
4E
102
{ACAD_REACTORS
330
47
102
}
330
47
100
AcDbScale
 70
     0
300
1:16
140
1.0
141
16.0
290
     0
  0
SCALE
  5
4F
102
{ACAD_REACTORS
330
47
102
}
330
47
100
AcDbScale
 70
     0
300
1:20
140
1.0
141
20.0
290
     0
  0
SCALE
  5
50
102
{ACAD_REACTORS
330
47
102
}
330
47
100
AcDbScale
 70
     0
300
1:30
140
1.0
141
30.0
290
     0
  0
SCALE
  5
51
102
{ACAD_REACTORS
330
47
102
}
330
47
100
AcDbScale
 70
     0
300
1:40
140
1.0
141
40.0
290
     0
  0
SCALE
  5
52
102
{ACAD_REACTORS
330
47
102
}
330
47
100
AcDbScale
 70
     0
300
1:50
140
1.0
141
50.0
290
     0
  0
SCALE
  5
53
102
{ACAD_REACTORS
330
47
102
}
330
47
100
AcDbScale
 70
     0
300
1:100
140
1.0
141
100.0
290
     0
  0
SCALE
  5
54
102
{ACAD_REACTORS
330
47
102
}
330
47
100
AcDbScale
 70
     0
300
2:1
140
2.0
141
1.0
290
     0
  0
SCALE
  5
55
102
{ACAD_REACTORS
330
47
102
}
330
47
100
AcDbScale
 70
     0
300
4:1
140
4.0
141
1.0
290
     0
  0
SCALE
  5
56
102
{ACAD_REACTORS
330
47
102
}
330
47
100
AcDbScale
 70
     0
300
8:1
140
8.0
141
1.0
290
     0
  0
SCALE
  5
57
102
{ACAD_REACTORS
330
47
102
}
330
47
100
AcDbScale
 70
     0
300
10:1
140
10.0
141
1.0
290
     0
  0
SCALE
  5
58
102
{ACAD_REACTORS
330
47
102
}
330
47
100
AcDbScale
 70
     0
300
100:1
140
100.0
141
1.0
290
     0
  0
SCALE
  5
59
102
{ACAD_REACTORS
330
47
102
}
330
47
100
AcDbScale
 70
     0
300
1/128" = 1'-0"
140
0.007812
141
12.0
290
     0
  0
SCALE
  5
5A
102
{ACAD_REACTORS
330
47
102
}
330
47
100
AcDbScale
 70
     0
300
1/64" = 1'-0"
140
0.015625
141
12.0
290
     0
  0
SCALE
  5
5B
102
{ACAD_REACTORS
330
47
102
}
330
47
100
AcDbScale
 70
     0
300
1/32" = 1'-0"
140
0.03125
141
12.0
290
     0
  0
SCALE
  5
5C
102
{ACAD_REACTORS
330
47
102
}
330
47
100
AcDbScale
 70
     0
300
1/16" = 1'-0"
140
0.0625
141
12.0
290
     0
  0
SCALE
  5
5D
102
{ACAD_REACTORS
330
47
102
}
330
47
100
AcDbScale
 70
     0
300
3/32" = 1'-0"
140
0.09375
141
12.0
290
     0
  0
SCALE
  5
5E
102
{ACAD_REACTORS
330
47
102
}
330
47
100
AcDbScale
 70
     0
300
1/8" = 1'-0"
140
0.125
141
12.0
290
     0
  0
SCALE
  5
5F
102
{ACAD_REACTORS
330
47
102
}
330
47
100
AcDbScale
 70
     0
300
3/16" = 1'-0"
140
0.1875
141
12.0
290
     0
  0
SCALE
  5
60
102
{ACAD_REACTORS
330
47
102
}
330
47
100
AcDbScale
 70
     0
300
1/4" = 1'-0"
140
0.25
141
12.0
290
     0
  0
SCALE
  5
61
102
{ACAD_REACTORS
330
47
102
}
330
47
100
AcDbScale
 70
     0
300
3/8" = 1'-0"
140
0.375
141
12.0
290
     0
  0
SCALE
  5
62
102
{ACAD_REACTORS
330
47
102
}
330
47
100
AcDbScale
 70
     0
300
1/2" = 1'-0"
140
0.5
141
12.0
290
     0
  0
SCALE
  5
63
102
{ACAD_REACTORS
330
47
102
}
330
47
100
AcDbScale
 70
     0
300
3/4" = 1'-0"
140
0.75
141
12.0
290
     0
  0
SCALE
  5
64
102
{ACAD_REACTORS
330
47
102
}
330
47
100
AcDbScale
 70
     0
300
1" = 1'-0"
140
1.0
141
12.0
290
     0
  0
SCALE
  5
65
102
{ACAD_REACTORS
330
47
102
}
330
47
100
AcDbScale
 70
     0
300
1-1/2" = 1'-0"
140
1.5
141
12.0
290
     0
  0
SCALE
  5
66
102
{ACAD_REACTORS
330
47
102
}
330
47
100
AcDbScale
 70
     0
300
3" = 1'-0"
140
3.0
141
12.0
290
     0
  0
SCALE
  5
67
102
{ACAD_REACTORS
330
47
102
}
330
47
100
AcDbScale
 70
     0
300
6" = 1'-0"
140
6.0
141
12.0
290
     0
  0
SCALE
  5
68
102
{ACAD_REACTORS
330
47
102
}
330
47
100
AcDbScale
 70
     0
300
1'-0" = 1'-0"
140
12.0
141
12.0
290
     0
  0
ENDSEC
  0
EOF
