0
SECTION
2
HEADER
9
$INSUNITS
70
4
9
$ACADVER
1
AC1014
9
$HANDSEED
5
FFFF
0
ENDSEC
0
SECTION
2
TABLES
0
TABLE
2
VPORT
5
8
100
AcDbSymbolTable
0
ENDTAB
0
TABLE
2
LTYPE
5
5
100
AcDbSymbolTable
0
LTYPE
5
14
100
AcDbSymbolTableRecord
100
AcDbLinetypeTableRecord
2
BYBLOCK
70
0
0
LTYPE
5
15
100
AcDbSymbolTableRecord
100
AcDbLinetypeTableRecord
2
BYLAYER
70
0
0
ENDTAB
0
TABLE
2
LAYER
5
2
100
AcDbSymbolTable
70
2
0
LAYER
5
50
100
AcDbSymbolTableRecord
100
AcDbLayerTableRecord
2
0
70
0
6
CONTINUOUS
0
ENDTAB
0
TABLE
2
STYLE
5
3
100
AcDbSymbolTable
70
1
0
STYLE
5
11
100
AcDbSymbolTableRecord
100
AcDbTextStyleTableRecord
2
STANDARD
70
0
0
ENDTAB
0
TABLE
2
VIEW
5
6
100
AcDbSymbolTable
70
0
0
ENDTAB
0
TABLE
2
UCS
5
7
100
AcDbSymbolTable
70
0
0
ENDTAB
0
TABLE
2
APPID
5
9
100
AcDbSymbolTable
70
2
0
APPID
5
12
100
AcDbSymbolTableRecord
100
AcDbRegAppTableRecord
2
ACAD
70
0
0
ENDTAB
0
TABLE
2
DIMSTYLE
5
A
100
AcDbSymbolTable
70
1
0
ENDTAB
0
TABLE
2
BLOCK_RECORD
5
1
100
AcDbSymbolTable
70
1
0
BLOCK_RECORD
5
1F
100
AcDbSymbolTableRecord
100
AcDbBlockTableRecord
2
*MODEL_SPACE
0
BLOCK_RECORD
5
1B
100
AcDbSymbolTableRecord
100
AcDbBlockTableRecord
2
*PAPER_SPACE
0
ENDTAB
0
ENDSEC
0
SECTION
2
BLOCKS
0
BLOCK
5
20
100
AcDbEntity
100
AcDbBlockBegin
2
*MODEL_SPACE
0
ENDBLK
5
21
100
AcDbEntity
100
AcDbBlockEnd
0
BLOCK
5
1C
100
AcDbEntity
100
AcDbBlockBegin
2
*PAPER_SPACE
0
ENDBLK
5
1D
100
AcDbEntity
100
AcDbBlockEnd
0
ENDSEC
0
SECTION
2
ENTITIES
0
LWPOLYLINE
5
100
100
AcDbEntity
8
0
100
AcDbPolyline
90
8
70
1
43
0.0
10
-440
20
-5.5511151231257827e-16
42
-0.41421356237310342
10
-445
20
5
10
-445
20
450
42
-0.41421356237310336
10
-440
20
455
10
-5
20
455
42
-0.41421356237308798
10
2.2186712959340957e-28
20
450
10
-3.3306690738754696e-15
20
5
42
-0.41421356237309481
10
-5
20
0
0
CIRCLE
5
101
100
AcDbEntity
8
0
100
AcDbCircle
10
-7.4999999999999964
20
7.4999999999999956
30
-4.9960036108132044e-13
40
3.5000000000000053
210
5.6626290567948803e-16
220
1.4565342798085877e-17
230
1
0
CIRCLE
5
102
100
AcDbEntity
8
0
100
AcDbCircle
10
-7.4999999999999805
20
447.5
30
1.9984014443252818e-14
40
3.4999999999999432
210
1.0406157110006664e-60
220
2.1106194090510727e-30
230
1
0
CIRCLE
5
103
100
AcDbEntity
8
0
100
AcDbCircle
10
-176.50000169873499
20
262.64023283702898
30
-5.9952043329758453e-14
40
1.9999999999999929
210
1.0406157110006664e-60
220
2.1106194090510727e-30
230
1
0
CIRCLE
5
104
100
AcDbEntity
8
0
100
AcDbCircle
10
-326.5000016987351
20
312.64023283702909
30
-2.2204460492503131e-13
40
2.0000000000000995
210
-1.3401577416545295e-15
220
1.110223024625056e-15
230
1
0
CIRCLE
5
105
100
AcDbEntity
8
0
100
AcDbCircle
10
-313.75000169873499
20
368.40223405528803
30
-1.5987211554602254e-13
40
2.0000000000000284
210
-2.2993471702929953e-16
220
6.1950804811565894e-30
230
1
0
CIRCLE
5
106
100
AcDbEntity
8
0
100
AcDbCircle
10
-266.25000169873528
20
368.40223405528832
30
1.2989609388114332e-13
40
2.0000000000003126
210
1.0406157110006664e-60
220
2.1106194090510727e-30
230
1
0
CIRCLE
5
107
100
AcDbEntity
8
0
100
AcDbCircle
10
-326.50000169873488
20
262.64023283702898
30
-3.0975222387041867e-13
40
1.9999999999999929
210
1.0406157110006664e-60
220
2.1106194090510727e-30
230
1
0
CIRCLE
5
108
100
AcDbEntity
8
0
100
AcDbCircle
10
-176.50000169873499
20
312.64023283702898
30
3.1086244689504383e-14
40
1.9999999999999929
210
1.0406157110006664e-60
220
2.1106194090510727e-30
230
1
0
CIRCLE
5
109
100
AcDbEntity
8
0
100
AcDbCircle
10
-350.00000000000205
20
387.5
30
1.9984014443252818e-14
40
1.7499999999999758
210
1.0406157110006664e-60
220
2.1106194090510727e-30
230
1
0
CIRCLE
5
110
100
AcDbEntity
8
0
100
AcDbCircle
10
-437.50000000000006
20
447.50000000000011
30
1.8873791418627661e-14
40
3.4999999999999347
210
3.0152401355541921e-16
220
-4.2227580300948655e-16
230
1
0
CIRCLE
5
111
100
AcDbEntity
8
0
100
AcDbCircle
10
-437.50000000000006
20
7.5000000000001608
30
1.9984014443252818e-14
40
3.4999999999999423
210
1.4565342798103445e-17
220
-5.6626290567947846e-16
230
1
0
CIRCLE
5
112
100
AcDbEntity
8
0
100
AcDbCircle
10
-90.000000000000014
20
67.500000000000014
30
1.9984014443252818e-14
40
1.7499999999999871
210
1.0406157110006664e-60
220
2.1106194090510727e-30
230
1
0
CIRCLE
5
113
100
AcDbEntity
8
0
100
AcDbCircle
10
-209.00000169873499
20
85.179000000003896
30
1.9984014443252818e-14
40
1.7500000000000067
210
2.9130685596169314e-17
220
-1.1325258113589512e-15
230
1
0
CIRCLE
5
114
100
AcDbEntity
8
0
100
AcDbCircle
10
-209.00000169873499
20
200.17900000000401
30
1.8873791418627661e-14
40
1.7500000000000171
210
6.0304802711079325e-16
220
-8.4455160601890378e-16
230
1
0
CIRCLE
5
115
100
AcDbEntity
8
0
100
AcDbCircle
10
-319.00000169873499
20
200.17900000000395
30
1.8873791418627661e-14
40
1.7500000000000047
210
6.0304802711076979e-16
220
-8.4455160601895102e-16
230
1
0
CIRCLE
5
116
100
AcDbEntity
8
0
100
AcDbCircle
10
-117.00040755607398
20
200.17900000000395
30
1.9984014443252818e-14
40
1.7500000000000251
210
2.9130685596130468e-17
220
-1.1325258113589175e-15
230
1
0
CIRCLE
5
117
100
AcDbEntity
8
0
100
AcDbCircle
10
-227.00000169873502
20
85.179000000003953
30
1.9984014443252818e-14
40
1.7500000000000089
210
2.9130685596198606e-17
220
-1.1325258113589317e-15
230
1
0
CIRCLE
5
118
100
AcDbEntity
8
0
100
AcDbCircle
10
-350.00000000000205
20
67.500000000000085
30
1.9984014443252818e-14
40
1.7499999999999747
210
1.0406157110006664e-60
220
2.1106194090510727e-30
230
1
0
CIRCLE
5
119
100
AcDbEntity
8
0
100
AcDbCircle
10
-117.00000169873503
20
85.179000000004223
30
1.9984014443252818e-14
40
1.749999999999992
210
1.0406157110006664e-60
220
2.1106194090510727e-30
230
1
0
CIRCLE
5
120
100
AcDbEntity
8
0
100
AcDbCircle
10
-227.00000169873502
20
200.17900000000401
30
1.8873791418627661e-14
40
1.7500000000000171
210
6.0304802711079434e-16
220
-8.4455160601890516e-16
230
1
0
CIRCLE
5
121
100
AcDbEntity
8
0
100
AcDbCircle
10
-344.00000000000006
20
148.50000000000017
30
1.8873791418627661e-14
40
12.69999999999996
210
8.3097169090071947e-17
220
-1.163752213018205e-16
230
1
0
CIRCLE
5
122
100
AcDbEntity
8
0
100
AcDbCircle
10
-90.000000000000014
20
387.50000000000006
30
1.9984014443252818e-14
40
1.7500000000000027
210
5.7615396792734543e-17
220
-8.0688724123425127e-17
230
1
0
CIRCLE
5
123
100
AcDbEntity
8
0
100
AcDbCircle
10
-319.00000169873499
20
85.179000000003583
30
1.9984014443252818e-14
40
1.7500000000000047
210
1.0406157110006664e-60
220
2.1106194090510727e-30
230
1
0
CIRCLE
5
124
100
AcDbEntity
8
0
100
AcDbCircle
10
-437.5
20
316.25
30
1.8873791418627661e-14
40
1.7499999999999758
210
-6.0304802711081071e-16
220
8.4455160601899135e-16
230
1
0
CIRCLE
5
125
100
AcDbEntity
8
0
100
AcDbCircle
10
-437.50000000000006
20
138.74999999999991
30
1.9984014443252818e-14
40
1.7500000000000377
210
1.0406157110006664e-60
220
2.1106194090510727e-30
230
1
0
CIRCLE
5
126
100
AcDbEntity
8
0
100
AcDbCircle
10
-437.50000000000006
20
405
30
1.9984014443252818e-14
40
1.7500000000000171
210
1.0406157110006664e-60
220
2.1106194090510727e-30
230
1
0
CIRCLE
5
127
100
AcDbEntity
8
0
100
AcDbCircle
10
-50.000000000000036
20
447.50000000000006
30
1.9984014443252818e-14
40
1.7500000000000191
210
-2.9130685596134314e-17
220
1.1325258113589674e-15
230
1
0
CIRCLE
5
128
100
AcDbEntity
8
0
100
AcDbCircle
10
-136.25000000000003
20
447.50000000000011
30
1.9984014443252818e-14
40
1.7500000000000047
210
1.0406157110006664e-60
220
2.1106194090510727e-30
230
1
0
CIRCLE
5
129
100
AcDbEntity
8
0
100
AcDbCircle
10
-308.75
20
447.5
30
1.9984014443252818e-14
40
1.7499999999999758
210
-2.9130685596166756e-17
220
1.132525811359011e-15
230
1
0
CIRCLE
5
130
100
AcDbEntity
8
0
100
AcDbCircle
10
-308.75000000000006
20
7.5000000000000453
30
1.9984014443252818e-14
40
1.7500000000000071
210
1.0406157110006664e-60
220
2.1106194090510727e-30
230
1
0
CIRCLE
5
131
100
AcDbEntity
8
0
100
AcDbCircle
10
-222.50000000000003
20
7.5000000000000924
30
1.9984014443252818e-14
40
1.7500000000000089
210
1.0406157110006664e-60
220
2.1106194090510727e-30
230
1
0
CIRCLE
5
132
100
AcDbEntity
8
0
100
AcDbCircle
10
-437.50000000000006
20
227.49999999999989
30
1.9984014443252818e-14
40
1.7500000000000377
210
1.0406157110006664e-60
220
2.1106194090510727e-30
230
1
0
CIRCLE
5
133
100
AcDbEntity
8
0
100
AcDbCircle
10
-437.50000000000006
20
50.000000000000114
30
1.9984014443252818e-14
40
1.7500000000000377
210
1.0406157110006664e-60
220
2.1106194090510727e-30
230
1
0
CIRCLE
5
134
100
AcDbEntity
8
0
100
AcDbCircle
10
-395
20
7.4999999999999867
30
1.9984014443252818e-14
40
1.7499999999999762
210
1.0406157110006664e-60
220
2.1106194090510727e-30
230
1
0
CIRCLE
5
135
100
AcDbEntity
8
0
100
AcDbCircle
10
-7.4999999999999956
20
138.75
30
1.9984014443252818e-14
40
1.7499999999999905
210
-5.8261371192333105e-17
220
2.2650516227179797e-15
230
1
0
CIRCLE
5
136
100
AcDbEntity
8
0
100
AcDbCircle
10
-7.4999999999999929
20
316.24999999999994
30
1.8873791418627661e-14
40
1.7499999999999667
210
-6.0304802711082639e-16
220
8.4455160601900663e-16
230
1
0
CIRCLE
5
137
100
AcDbEntity
8
0
100
AcDbCircle
10
-222.50000000000003
20
447.50000000000006
30
1.9984014443252818e-14
40
1.749999999999992
210
-2.9130685596125138e-17
220
1.132525811359034e-15
230
1
0
CIRCLE
5
138
100
AcDbEntity
8
0
100
AcDbCircle
10
-7.5000000000000133
20
405.00000000000006
30
1.9984014443252818e-14
40
1.7500000000000047
210
-2.9130685596131652e-17
220
1.132525811358963e-15
230
1
0
CIRCLE
5
139
100
AcDbEntity
8
0
100
AcDbCircle
10
-7.4999999999999893
20
227.5
30
1.9984014443252818e-14
40
1.7499999999999847
210
-2.9130685596165462e-17
220
1.132525811358969e-15
230
1
0
CIRCLE
5
140
100
AcDbEntity
8
0
100
AcDbCircle
10
-7.5000000000000018
20
50.000000000000007
30
1.9984014443252818e-14
40
1.7500000000000002
210
1.0406157110006664e-60
220
2.1106194090510727e-30
230
1
0
CIRCLE
5
141
100
AcDbEntity
8
0
100
AcDbCircle
10
-50.000000000000007
20
7.5000000000000338
30
1.9984014443252818e-14
40
1.7500000000000067
210
-5.8261371192300959e-17
220
2.2650516227179687e-15
230
1
0
CIRCLE
5
142
100
AcDbEntity
8
0
100
AcDbCircle
10
-136.25
20
7.5000000000000355
30
1.9984014443252818e-14
40
1.7499999999999907
210
-5.8261371192299986e-17
220
2.2650516227179714e-15
230
1
0
CIRCLE
5
143
100
AcDbEntity
8
0
100
AcDbCircle
10
-395.00000000000006
20
447.50000000000006
30
1.9984014443252818e-14
40
1.7500000000000335
210
1.0406157110006664e-60
220
2.1106194090510727e-30
230
1
0
LWPOLYLINE
5
144
100
AcDbEntity
8
0
100
AcDbPolyline
90
8
70
1
43
0.0
10
-440
20
-1.3322676295501878e-14
42
-0.41421356237310414
10
-445
20
5
10
-445
20
450
42
-0.41421356237310336
10
-440
20
455
10
-5
20
455
42
-0.41421356237308515
10
2.2186712959340957e-28
20
450
10
-2.2204460492503131e-15
20
5
42
-0.41421356237309465
10
-5
20
1.3805065841367707e-29
0
CIRCLE
5
145
100
AcDbEntity
8
0
100
AcDbCircle
10
-7.4999999999999964
20
7.4999999999999956
30
0
40
3.5000000000000058
210
-1.9365067419368658e-32
220
-2.3665213297201588e-32
230
1
0
CIRCLE
5
146
100
AcDbEntity
8
0
100
AcDbCircle
10
-7.4999999999999805
20
447.5
30
0
40
3.4999999999999432
210
-1.1210387714598537e-44
220
6.4008157143715646e-59
230
1
0
CIRCLE
5
147
100
AcDbEntity
8
0
100
AcDbCircle
10
-176.50000169873499
20
262.64023283702898
30
0
40
1.9999999999999929
210
-1.5634198963375421e-101
220
-5.6051938572992683e-45
230
1
0
CIRCLE
5
148
100
AcDbEntity
8
0
100
AcDbCircle
10
-326.5000016987351
20
312.64023283702909
30
0
40
2.0000000000000995
210
-4.6279337475179581e-42
220
-5.5067162403536605e-32
230
1
0
CIRCLE
5
149
100
AcDbEntity
8
0
100
AcDbCircle
10
-313.75000169873499
20
368.40223405528803
30
0
40
2.0000000000000284
210
-1.4573504028978098e-43
220
2.5887743555901982e-57
230
1
0
CIRCLE
5
150
100
AcDbEntity
8
0
100
AcDbCircle
10
-266.25000169873528
20
368.40223405528832
30
0
40
2.0000000000003126
210
-1.1210387714598537e-44
220
-1.3939554222406778e-57
230
1
0
CIRCLE
5
151
100
AcDbEntity
8
0
100
AcDbCircle
10
-326.50000169873488
20
262.64023283702898
30
0
40
1.9999999999999929
210
-3.9827297778311448e-58
220
-5.6051938572992683e-45
230
1
0
CIRCLE
5
152
100
AcDbEntity
8
0
100
AcDbCircle
10
-176.50000169873499
20
312.64023283702898
30
0
40
1.9999999999999929
210
-1.5634198963375421e-101
220
-5.6051938572992683e-45
230
1
0
CIRCLE
5
153
100
AcDbEntity
8
0
100
AcDbCircle
10
-350.00000000000205
20
387.5
30
0
40
1.7499999999999758
210
4.0715328116114996e-45
220
-5.7020658727296573e-45
230
1
0
CIRCLE
5
154
100
AcDbEntity
8
0
100
AcDbCircle
10
-437.50000000000006
20
447.50000000000011
30
0
40
3.4999999999999347
210
-1.5812455424276704e-32
220
2.2144893977444147e-32
230
1
0
CIRCLE
5
155
100
AcDbEntity
8
0
100
AcDbCircle
10
-437.50000000000006
20
7.5000000000001608
30
0
40
3.4999999999999423
210
-1.1169455716927167e-32
220
2.5460205672346221e-32
230
1
0
CIRCLE
5
156
100
AcDbEntity
8
0
100
AcDbCircle
10
-90.000000000000014
20
67.500000000000014
30
0
40
1.7499999999999873
210
-8.7161521152061127e-45
220
-7.0846590858515963e-45
230
1
0
CIRCLE
5
157
100
AcDbEntity
8
0
100
AcDbCircle
10
-209.00000169873499
20
85.179000000003896
30
0
40
1.7500000000000067
210
-3.9829971050911113e-32
220
4.9953020380693545e-33
230
1
0
CIRCLE
5
158
100
AcDbEntity
8
0
100
AcDbCircle
10
-209.00000169873499
20
200.17900000000401
30
0
40
1.7500000000000173
210
-1.5812455424534294e-32
220
2.2144893977785388e-32
230
1
0
CIRCLE
5
159
100
AcDbEntity
8
0
100
AcDbCircle
10
-319.00000169873499
20
200.17900000000395
30
0
40
1.7500000000000047
210
-1.5812455422524484e-32
220
2.2144893975011386e-32
230
1
0
CIRCLE
5
160
100
AcDbEntity
8
0
100
AcDbCircle
10
-117.00040755607398
20
200.17900000000395
30
0
40
1.7500000000000251
210
1.749105961816871e-32
220
4.5925109297971458e-32
230
1
0
CIRCLE
5
161
100
AcDbEntity
8
0
100
AcDbCircle
10
-227.00000169873502
20
85.179000000003953
30
0
40
1.7500000000000089
210
-3.9829971052528721e-32
220
4.9953020403330441e-33
230
1
0
CIRCLE
5
162
100
AcDbEntity
8
0
100
AcDbCircle
10
-350.00000000000205
20
67.500000000000085
30
0
40
1.7499999999999747
210
-1.3398414848559489e-44
220
-5.2728333221318565e-46
230
1
0
CIRCLE
5
163
100
AcDbEntity
8
0
100
AcDbCircle
10
-117.00000169873503
20
85.179000000004223
30
0
40
1.749999999999992
210
3.6643795304505065e-45
220
-5.1318592854565782e-45
230
1
0
CIRCLE
5
164
100
AcDbEntity
8
0
100
AcDbCircle
10
-227.00000169873502
20
200.17900000000401
30
0
40
1.7500000000000173
210
-1.5812455424534294e-32
220
2.2144893977785388e-32
230
1
0
CIRCLE
5
165
100
AcDbEntity
8
0
100
AcDbCircle
10
-344.00000000000006
20
148.50000000000017
30
0
40
12.69999999999996
210
2.5576155515508923e-33
220
-3.5818678190359574e-33
230
1
0
CIRCLE
5
166
100
AcDbEntity
8
0
100
AcDbCircle
10
-90.000000000000014
20
387.50000000000006
30
0
40
1.7500000000000029
210
4.6524482060214438e-33
220
-6.5156213563150993e-33
230
1
0
CIRCLE
5
167
100
AcDbEntity
8
0
100
AcDbCircle
10
-319.00000169873499
20
85.179000000003583
30
0
40
1.7500000000000047
210
1.4212721410881817e-44
220
-6.1312984233384006e-46
230
1
0
CIRCLE
5
168
100
AcDbEntity
8
0
100
AcDbCircle
10
-437.5
20
316.25
30
0
40
1.7499999999999758
210
-1.5812455423035279e-32
220
2.2144893975706893e-32
230
1
0
CIRCLE
5
169
100
AcDbEntity
8
0
100
AcDbCircle
10
-437.50000000000006
20
138.74999999999991
30
0
40
1.7500000000000377
210
-2.4429196869670693e-45
220
3.4212395236376731e-45
230
1
0
CIRCLE
5
170
100
AcDbEntity
8
0
100
AcDbCircle
10
-437.50000000000006
20
405
30
0
40
1.7500000000000173
210
-1.0141188599270158e-44
220
-5.08893603039632e-45
230
1
0
CIRCLE
5
171
100
AcDbEntity
8
0
100
AcDbCircle
10
-50.000000000000036
20
447.50000000000006
30
0
40
1.7500000000000191
210
-3.9829971049568012e-32
220
4.9953020350907455e-33
230
1
0
CIRCLE
5
172
100
AcDbEntity
8
0
100
AcDbCircle
10
-136.25000000000003
20
447.50000000000011
30
0
40
1.7500000000000047
210
1.4212721410881817e-44
220
-6.1312984233384006e-46
230
1
0
CIRCLE
5
173
100
AcDbEntity
8
0
100
AcDbCircle
10
-308.75
20
447.5
30
0
40
1.7499999999999758
210
-3.9829971048755347e-32
220
4.9953020372506226e-33
230
1
0
CIRCLE
5
174
100
AcDbEntity
8
0
100
AcDbCircle
10
-308.75000000000006
20
7.5000000000000453
30
0
40
1.7500000000000073
210
3.0536496087085834e-45
220
-4.2765494045472716e-45
230
1
0
CIRCLE
5
175
100
AcDbEntity
8
0
100
AcDbCircle
10
-222.50000000000003
20
7.5000000000000924
30
0
40
1.7500000000000091
210
-1.2214598434833759e-45
220
1.7106197618189495e-45
230
1
0
CIRCLE
5
176
100
AcDbEntity
8
0
100
AcDbCircle
10
-437.50000000000006
20
227.49999999999989
30
0
40
1.7500000000000377
210
-2.4429196869670693e-45
220
3.4212395236376731e-45
230
1
0
CIRCLE
5
177
100
AcDbEntity
8
0
100
AcDbCircle
10
-437.50000000000006
20
50.000000000000114
30
0
40
1.7500000000000377
210
-2.4429196869670693e-45
220
3.4212395236376731e-45
230
1
0
CIRCLE
5
178
100
AcDbEntity
8
0
100
AcDbCircle
10
-395
20
7.4999999999999867
30
0
40
1.7499999999999762
210
1.3194838207978951e-44
220
8.1238662584874975e-46
230
1
0
CIRCLE
5
179
100
AcDbEntity
8
0
100
AcDbCircle
10
-7.4999999999999956
20
138.75
30
0
40
1.7499999999999905
210
4.2029643473658656e-32
220
-1.0964675930050626e-31
230
1
0
CIRCLE
5
180
100
AcDbEntity
8
0
100
AcDbCircle
10
-7.4999999999999929
20
316.24999999999994
30
0
40
1.7499999999999667
210
-1.581245542318177e-32
220
2.2144893975931169e-32
230
1
0
CIRCLE
5
181
100
AcDbEntity
8
0
100
AcDbCircle
10
-222.50000000000003
20
447.50000000000006
30
0
40
1.749999999999992
210
-3.9829971046954032e-32
220
4.9953020332837533e-33
230
1
0
CIRCLE
5
182
100
AcDbEntity
8
0
100
AcDbCircle
10
-7.5000000000000133
20
405.00000000000006
30
0
40
1.7500000000000047
210
-3.9829971049293927e-32
220
4.9953020358062397e-33
230
1
0
CIRCLE
5
183
100
AcDbEntity
8
0
100
AcDbCircle
10
-7.4999999999999893
20
227.5
30
0
40
1.7499999999999847
210
-3.9829971049983684e-32
220
4.9953020383718462e-33
230
1
0
CIRCLE
5
184
100
AcDbEntity
8
0
100
AcDbCircle
10
-7.5000000000000018
20
50.000000000000007
30
0
40
1.7500000000000002
210
-1.4250364840640421e-45
220
1.9957230554553677e-45
230
1
0
CIRCLE
5
185
100
AcDbEntity
8
0
100
AcDbCircle
10
-50.000000000000007
20
7.5000000000000338
30
0
40
1.7500000000000067
210
4.2029643473770869e-32
220
-1.096467593019399e-31
230
1
0
CIRCLE
5
186
100
AcDbEntity
8
0
100
AcDbCircle
10
-136.25
20
7.5000000000000355
30
0
40
1.7499999999999907
210
4.2029643474147693e-32
220
-1.0964675930125134e-31
230
1
0
CIRCLE
5
187
100
AcDbEntity
8
0
100
AcDbCircle
10
-395.00000000000006
20
447.50000000000006
30
0
40
1.7500000000000335
210
7.901845552884195e-45
220
8.2250722603971085e-45
230
1
0
ENDSEC
0
SECTION
2
OBJECTS
0
DICTIONARY
5
C
100
AcDbDictionary
3
ACAD_GROUP
350
D
3
ACAD_MLINESTYLE
350
17
0
DICTIONARY
5
D
100
AcDbDictionary
0
DICTIONARY
5
1A
330
C
100
AcDbDictionary
0
DICTIONARY
5
17
100
AcDbDictionary
0
ENDSEC
0
EOF
