0
SECTION
2
HEADER
9
$INSUNITS
70
4
9
$ACADVER
1
AC1014
9
$HANDSEED
5
FFFF
0
ENDSEC
0
SECTION
2
TABLES
0
TABLE
2
VPORT
5
8
100
AcDbSymbolTable
0
ENDTAB
0
TABLE
2
LTYPE
5
5
100
AcDbSymbolTable
0
LTYPE
5
14
100
AcDbSymbolTableRecord
100
AcDbLinetypeTableRecord
2
BYBLOCK
70
0
0
LTYPE
5
15
100
AcDbSymbolTableRecord
100
AcDbLinetypeTableRecord
2
BYLAYER
70
0
0
ENDTAB
0
TABLE
2
LAYER
5
2
100
AcDbSymbolTable
70
2
0
LAYER
5
50
100
AcDbSymbolTableRecord
100
AcDbLayerTableRecord
2
0
70
0
6
CONTINUOUS
0
ENDTAB
0
TABLE
2
STYLE
5
3
100
AcDbSymbolTable
70
1
0
STYLE
5
11
100
AcDbSymbolTableRecord
100
AcDbTextStyleTableRecord
2
STANDARD
70
0
0
ENDTAB
0
TABLE
2
VIEW
5
6
100
AcDbSymbolTable
70
0
0
ENDTAB
0
TABLE
2
UCS
5
7
100
AcDbSymbolTable
70
0
0
ENDTAB
0
TABLE
2
APPID
5
9
100
AcDbSymbolTable
70
2
0
APPID
5
12
100
AcDbSymbolTableRecord
100
AcDbRegAppTableRecord
2
ACAD
70
0
0
ENDTAB
0
TABLE
2
DIMSTYLE
5
A
100
AcDbSymbolTable
70
1
0
ENDTAB
0
TABLE
2
BLOCK_RECORD
5
1
100
AcDbSymbolTable
70
1
0
BLOCK_RECORD
5
1F
100
AcDbSymbolTableRecord
100
AcDbBlockTableRecord
2
*MODEL_SPACE
0
BLOCK_RECORD
5
1B
100
AcDbSymbolTableRecord
100
AcDbBlockTableRecord
2
*PAPER_SPACE
0
ENDTAB
0
ENDSEC
0
SECTION
2
BLOCKS
0
BLOCK
5
20
100
AcDbEntity
100
AcDbBlockBegin
2
*MODEL_SPACE
0
ENDBLK
5
21
100
AcDbEntity
100
AcDbBlockEnd
0
BLOCK
5
1C
100
AcDbEntity
100
AcDbBlockBegin
2
*PAPER_SPACE
0
ENDBLK
5
1D
100
AcDbEntity
100
AcDbBlockEnd
0
ENDSEC
0
SECTION
2
ENTITIES
0
LWPOLYLINE
5
100
100
AcDbEntity
8
0
100
AcDbPolyline
90
8
70
1
43
0.0
10
-484.99999999999955
20
-1.1102230246251565e-15
42
-0.41421356237310342
10
-489.99999999999955
20
5
10
-489.99999999999955
20
440
42
-0.41421356237310336
10
-484.99999999999955
20
445
10
-4.9999999999999964
20
445
42
-0.41421356237310347
10
5.5535807727559231e-27
20
440
10
6.6613381477509392e-15
20
5
42
-0.41421356237309476
10
-5
20
0
0
LWPOLYLINE
5
101
100
AcDbEntity
8
0
100
AcDbPolyline
90
8
70
1
43
0.0
10
-34.999999999999972
20
35
10
-34.999999999999972
20
400
42
0.41421356237309215
10
-45
20
410
10
-444.99999999999955
20
410
42
0.41421356237308671
10
-454.99999999999955
20
400
10
-454.99999999999955
20
35
42
0.41421356237309959
10
-444.99999999999955
20
25
10
-44.999999999999964
20
24.999999999999993
42
0.41421356237309531
0
CIRCLE
5
102
100
AcDbEntity
8
0
100
AcDbCircle
10
-482.49999999999955
20
7.5000000000000782
30
1.8873791418627661e-14
40
3.5000000000000089
210
3.0152401355540383e-16
220
-4.222758030094723e-16
230
1
0
CIRCLE
5
103
100
AcDbEntity
8
0
100
AcDbCircle
10
-482.49999999999966
20
437.50000000000006
30
1.8873791418627661e-14
40
3.4999999999999347
210
3.0152401355541122e-16
220
-4.2227580300947783e-16
230
1
0
CIRCLE
5
104
100
AcDbEntity
8
0
100
AcDbCircle
10
-7.4999999999999929
20
7.5
30
1.9984014443252818e-14
40
3.5000000000000009
210
1.4565342798084247e-17
220
-5.6626290567948892e-16
230
1
0
CIRCLE
5
105
100
AcDbEntity
8
0
100
AcDbCircle
10
-7.4999999999999778
20
437.49999999999994
30
1.9984014443252818e-14
40
3.5000000000000124
210
1.4565342798075674e-17
220
-5.6626290567947403e-16
230
1
0
CIRCLE
5
106
100
AcDbEntity
8
0
100
AcDbCircle
10
-244.99999999999977
20
437.50000000000006
30
1.9984014443252818e-14
40
1.7499999999999758
210
-5.7615396792734136e-17
220
8.0688724123433373e-17
230
1
0
CIRCLE
5
107
100
AcDbEntity
8
0
100
AcDbCircle
10
-147.49999999999989
20
437.50000000000006
30
1.9984014443252818e-14
40
1.7500000000000047
210
-1.4012984643248158e-45
220
0
230
1
0
CIRCLE
5
108
100
AcDbEntity
8
0
100
AcDbCircle
10
-342.49999999999977
20
437.5
30
1.9984014443252818e-14
40
1.7500000000000335
210
-1.4012984643248158e-45
220
0
230
1
0
CIRCLE
5
109
100
AcDbEntity
8
0
100
AcDbCircle
10
-147.49999999999989
20
7.4999999999999991
30
1.9984014443252818e-14
40
1.7500000000000073
210
-5.8261371192337592e-17
220
2.265051622717958e-15
230
1
0
CIRCLE
5
110
100
AcDbEntity
8
0
100
AcDbCircle
10
-482.49999999999966
20
50.000000000000369
30
1.9984014443252818e-14
40
1.75000000000004
210
-2.9130685596076795e-17
220
1.1325258113589859e-15
230
1
0
CIRCLE
5
111
100
AcDbEntity
8
0
100
AcDbCircle
10
-7.499999999999992
20
308.75
30
1.8873791418627661e-14
40
1.7499999999999711
210
-6.0304802711080775e-16
220
8.4455160601898267e-16
230
1
0
CIRCLE
5
112
100
AcDbEntity
8
0
100
AcDbCircle
10
-49.999999999999993
20
437.50000000000011
30
1.9984014443252818e-14
40
1.7500000000000191
210
-2.9130685596094058e-17
220
1.1325258113589088e-15
230
1
0
CIRCLE
5
113
100
AcDbEntity
8
0
100
AcDbCircle
10
-439.99999999999966
20
437.50000000000006
30
1.9984014443252818e-14
40
1.7500000000000502
210
-1.4012984643248158e-45
220
0
230
1
0
CIRCLE
5
114
100
AcDbEntity
8
0
100
AcDbCircle
10
-439.99999999999955
20
7.4999999999999822
30
1.9984014443252818e-14
40
1.7499999999999758
210
-1.4012984643248158e-45
220
0
230
1
0
CIRCLE
5
115
100
AcDbEntity
8
0
100
AcDbCircle
10
-7.4999999999999778
20
222.49999999999994
30
1.9984014443252818e-14
40
1.7499999999999809
210
-2.9130685596203808e-17
220
1.1325258113590208e-15
230
1
0
CIRCLE
5
116
100
AcDbEntity
8
0
100
AcDbCircle
10
-7.4999999999999867
20
395
30
1.9984014443252818e-14
40
1.7499999999999885
210
-2.913068559616495e-17
220
1.1325258113590068e-15
230
1
0
CIRCLE
5
117
100
AcDbEntity
8
0
100
AcDbCircle
10
-49.999999999999964
20
7.5000000000000338
30
1.9984014443252818e-14
40
1.7500000000000067
210
-5.826137119230091e-17
220
2.2650516227179667e-15
230
1
0
CIRCLE
5
118
100
AcDbEntity
8
0
100
AcDbCircle
10
-7.4999999999999964
20
136.24999999999997
30
1.9984014443252818e-14
40
1.7500000000000062
210
2.9130685596177085e-17
220
-1.1325258113589843e-15
230
1
0
CIRCLE
5
119
100
AcDbEntity
8
0
100
AcDbCircle
10
-342.49999999999972
20
7.4999999999999822
30
1.9984014443252818e-14
40
1.7499999999999758
210
-1.4012984643248158e-45
220
0
230
1
0
CIRCLE
5
120
100
AcDbEntity
8
0
100
AcDbCircle
10
-482.49999999999966
20
222.49999999999997
30
1.9984014443252818e-14
40
1.750000000000054
210
-1.4012984643248158e-45
220
0
230
1
0
CIRCLE
5
121
100
AcDbEntity
8
0
100
AcDbCircle
10
-482.49999999999955
20
308.74999999999994
30
1.8873791418627661e-14
40
1.7499999999999758
210
-6.0304802711082491e-16
220
8.4455160601900979e-16
230
1
0
CIRCLE
5
122
100
AcDbEntity
8
0
100
AcDbCircle
10
-482.49999999999966
20
395
30
1.9984014443252818e-14
40
1.7500000000000335
210
-1.4012984643248158e-45
220
0
230
1
0
CIRCLE
5
123
100
AcDbEntity
8
0
100
AcDbCircle
10
-482.49999999999966
20
136.25
30
1.9984014443252818e-14
40
1.7500000000000437
210
-1.4012984643248158e-45
220
0
230
1
0
CIRCLE
5
124
100
AcDbEntity
8
0
100
AcDbCircle
10
-7.4999999999999947
20
50.000000000000007
30
1.9984014443252818e-14
40
1.7499999999999993
210
-5.7615396792731067e-17
220
8.068872412342753e-17
230
1
0
CIRCLE
5
125
100
AcDbEntity
8
0
100
AcDbCircle
10
-244.99999999999974
20
7.4999999999999307
30
1.8873791418627661e-14
40
1.7499999999999394
210
-6.0304802711084226e-16
220
8.4455160601889905e-16
230
1
0
LWPOLYLINE
5
126
100
AcDbEntity
8
0
100
AcDbPolyline
90
8
70
1
43
0.0
10
-485
20
-1.5543122344752192e-14
42
-0.41421356237310425
10
-490
20
5
10
-490
20
440
42
-0.41421356237310336
10
-485
20
445
10
-5.0000000000000009
20
445
42
-0.41421356237310419
10
5.5535807727559231e-27
20
440
10
3.3306690738754696e-15
20
5
42
-0.41421356237309459
10
-5
20
0
0
CIRCLE
5
127
100
AcDbEntity
8
0
100
AcDbCircle
10
-482.5
20
7.5000000000000782
30
0
40
3.5000000000000089
210
-1.088361221354518e-44
220
1.524218928013842e-44
230
1
0
CIRCLE
5
128
100
AcDbEntity
8
0
100
AcDbCircle
10
-482.50000000000006
20
437.50000000000006
30
0
40
3.4999999999999347
210
-1.0883612213545345e-44
220
1.5242189280138478e-44
230
1
0
CIRCLE
5
129
100
AcDbEntity
8
0
100
AcDbCircle
10
-7.5
20
7.5
30
0
40
3.5000000000000013
210
-3.2229864679470768e-44
220
-2.4892061111444567e-60
230
1
0
CIRCLE
5
130
100
AcDbEntity
8
0
100
AcDbCircle
10
-7.499999999999984
20
437.49999999999994
30
0
40
3.5000000000000124
210
-3.2229864679470763e-44
220
-0
230
1
0
LWPOLYLINE
5
131
100
AcDbEntity
8
0
100
AcDbPolyline
90
8
70
1
43
0.0
10
-35
20
35
10
-35
20
400
42
0.41421356237309193
10
-45
20
410
10
-445
20
410
42
0.41421356237308671
10
-455
20
400
10
-455
20
35
42
0.41421356237309959
10
-445
20
25
10
-45
20
24.999999999999993
42
0.41421356237309531
0
CIRCLE
5
132
100
AcDbEntity
8
0
100
AcDbCircle
10
-245
20
437.50000000000006
30
0
40
1.7499999999999758
210
-1.0883612213544482e-44
220
1.5242189280138181e-44
230
1
0
CIRCLE
5
133
100
AcDbEntity
8
0
100
AcDbCircle
10
-147.50000000000003
20
437.50000000000006
30
0
40
1.7500000000000047
210
-0
220
0
230
1
0
CIRCLE
5
134
100
AcDbEntity
8
0
100
AcDbCircle
10
-342.50000000000006
20
437.5
30
0
40
1.7500000000000335
210
-4.0515614846937011e-60
220
-2.8929980626993514e-60
230
1
0
CIRCLE
5
135
100
AcDbEntity
8
0
100
AcDbCircle
10
-147.50000000000003
20
7.4999999999999991
30
0
40
1.7500000000000073
210
-3.2229864679470768e-44
220
-0
230
1
0
CIRCLE
5
136
100
AcDbEntity
8
0
100
AcDbCircle
10
-482.50000000000006
20
50.000000000000369
30
0
40
1.75000000000004
210
-3.2229864679470763e-44
220
-0
230
1
0
CIRCLE
5
137
100
AcDbEntity
8
0
100
AcDbCircle
10
-7.4999999999999991
20
308.75
30
0
40
1.7499999999999714
210
-1.0883612213544537e-44
220
1.5242189280138201e-44
230
1
0
CIRCLE
5
138
100
AcDbEntity
8
0
100
AcDbCircle
10
-50.000000000000036
20
437.50000000000011
30
0
40
1.7500000000000191
210
-3.2229864679470763e-44
220
-0
230
1
0
CIRCLE
5
139
100
AcDbEntity
8
0
100
AcDbCircle
10
-440.00000000000006
20
437.50000000000006
30
0
40
1.7500000000000502
210
1.4464990313495613e-60
220
-2.0257807423469329e-60
230
1
0
CIRCLE
5
140
100
AcDbEntity
8
0
100
AcDbCircle
10
-440
20
7.4999999999999822
30
0
40
1.7499999999999758
210
1.4464990313497238e-60
220
-2.0257807423468168e-60
230
1
0
CIRCLE
5
141
100
AcDbEntity
8
0
100
AcDbCircle
10
-7.499999999999984
20
222.49999999999994
30
0
40
1.7499999999999809
210
-3.2229864679470768e-44
220
-2.4892061111444561e-60
230
1
0
CIRCLE
5
142
100
AcDbEntity
8
0
100
AcDbCircle
10
-7.4999999999999929
20
395
30
0
40
1.7499999999999885
210
-3.2229864679470763e-44
220
-2.4892061111444567e-60
230
1
0
CIRCLE
5
143
100
AcDbEntity
8
0
100
AcDbCircle
10
-50.000000000000007
20
7.5000000000000338
30
0
40
1.7500000000000067
210
-3.2229864679470763e-44
220
2.4892061111444561e-60
230
1
0
CIRCLE
5
144
100
AcDbEntity
8
0
100
AcDbCircle
10
-7.5000000000000036
20
136.24999999999997
30
0
40
1.7500000000000062
210
-3.2229864679470763e-44
220
-0
230
1
0
CIRCLE
5
145
100
AcDbEntity
8
0
100
AcDbCircle
10
-342.5
20
7.4999999999999822
30
0
40
1.7499999999999758
210
1.4464990313497238e-60
220
-2.0257807423468168e-60
230
1
0
CIRCLE
5
146
100
AcDbEntity
8
0
100
AcDbCircle
10
-482.50000000000006
20
222.49999999999997
30
0
40
1.750000000000054
210
-0
220
0
230
1
0
CIRCLE
5
147
100
AcDbEntity
8
0
100
AcDbCircle
10
-482.5
20
308.74999999999994
30
0
40
1.7499999999999758
210
-1.0883612213544482e-44
220
1.5242189280138181e-44
230
1
0
CIRCLE
5
148
100
AcDbEntity
8
0
100
AcDbCircle
10
-482.50000000000006
20
395
30
0
40
1.7500000000000335
210
-4.0515614846937011e-60
220
-2.8929980626993514e-60
230
1
0
CIRCLE
5
149
100
AcDbEntity
8
0
100
AcDbCircle
10
-482.50000000000006
20
136.25
30
0
40
1.7500000000000437
210
-0
220
0
230
1
0
CIRCLE
5
150
100
AcDbEntity
8
0
100
AcDbCircle
10
-7.5000000000000009
20
50.000000000000007
30
0
40
1.7499999999999993
210
-1.0883612213544757e-44
220
1.5242189280138276e-44
230
1
0
CIRCLE
5
151
100
AcDbEntity
8
0
100
AcDbCircle
10
-244.99999999999997
20
7.4999999999999307
30
0
40
1.7499999999999394
210
-1.088361221354679e-44
220
1.5242189280138968e-44
230
1
0
ENDSEC
0
SECTION
2
OBJECTS
0
DICTIONARY
5
C
100
AcDbDictionary
3
ACAD_GROUP
350
D
3
ACAD_MLINESTYLE
350
17
0
DICTIONARY
5
D
100
AcDbDictionary
0
DICTIONARY
5
1A
330
C
100
AcDbDictionary
0
DICTIONARY
5
17
100
AcDbDictionary
0
ENDSEC
0
EOF
