0
SECTION
2
HEADER
9
$INSUNITS
70
4
9
$ACADVER
1
AC1014
9
$HANDSEED
5
FFFF
0
ENDSEC
0
SECTION
2
TABLES
0
TABLE
2
VPORT
5
8
100
AcDbSymbolTable
0
ENDTAB
0
TABLE
2
LTYPE
5
5
100
AcDbSymbolTable
0
LTYPE
5
14
100
AcDbSymbolTableRecord
100
AcDbLinetypeTableRecord
2
BYBLOCK
70
0
0
LTYPE
5
15
100
AcDbSymbolTableRecord
100
AcDbLinetypeTableRecord
2
BYLAYER
70
0
0
ENDTAB
0
TABLE
2
LAYER
5
2
100
AcDbSymbolTable
70
2
0
LAYER
5
50
100
AcDbSymbolTableRecord
100
AcDbLayerTableRecord
2
0
70
0
6
CONTINUOUS
0
ENDTAB
0
TABLE
2
STYLE
5
3
100
AcDbSymbolTable
70
1
0
STYLE
5
11
100
AcDbSymbolTableRecord
100
AcDbTextStyleTableRecord
2
STANDARD
70
0
0
ENDTAB
0
TABLE
2
VIEW
5
6
100
AcDbSymbolTable
70
0
0
ENDTAB
0
TABLE
2
UCS
5
7
100
AcDbSymbolTable
70
0
0
ENDTAB
0
TABLE
2
APPID
5
9
100
AcDbSymbolTable
70
2
0
APPID
5
12
100
AcDbSymbolTableRecord
100
AcDbRegAppTableRecord
2
ACAD
70
0
0
ENDTAB
0
TABLE
2
DIMSTYLE
5
A
100
AcDbSymbolTable
70
1
0
ENDTAB
0
TABLE
2
BLOCK_RECORD
5
1
100
AcDbSymbolTable
70
1
0
BLOCK_RECORD
5
1F
100
AcDbSymbolTableRecord
100
AcDbBlockTableRecord
2
*MODEL_SPACE
0
BLOCK_RECORD
5
1B
100
AcDbSymbolTableRecord
100
AcDbBlockTableRecord
2
*PAPER_SPACE
0
ENDTAB
0
ENDSEC
0
SECTION
2
BLOCKS
0
BLOCK
5
20
100
AcDbEntity
100
AcDbBlockBegin
2
*MODEL_SPACE
0
ENDBLK
5
21
100
AcDbEntity
100
AcDbBlockEnd
0
BLOCK
5
1C
100
AcDbEntity
100
AcDbBlockBegin
2
*PAPER_SPACE
0
ENDBLK
5
1D
100
AcDbEntity
100
AcDbBlockEnd
0
ENDSEC
0
SECTION
2
ENTITIES
0
LWPOLYLINE
5
100
100
AcDbEntity
8
0
100
AcDbPolyline
90
8
70
1
43
0.0
10
490
20
5.0000167846680199
42
-0.41421356237310347
10
485
20
1.6784668019909077e-05
10
5
20
1.6784668017688631e-05
42
-0.41421356237309476
10
3.1554436208840472e-29
20
5.0000167846680199
10
6.9944050551384862e-14
20
740.00001678466799
42
-0.41421356237310758
10
5
20
745.00001678466799
10
485
20
745.00001678466811
42
-0.41421356237310752
10
490
20
740.00001678466799
0
CIRCLE
5
101
100
AcDbEntity
8
0
100
AcDbCircle
10
-482.5
20
7.5000167846679675
30
9.5367331809370626e-08
40
3.5000000000000089
210
1.642146637880645e-46
220
-5.3437648000406388e-24
230
-1
0
CIRCLE
5
102
100
AcDbEntity
8
0
100
AcDbCircle
10
-482.5
20
737.50001678466811
30
9.5367331809370626e-08
40
3.5000000000000093
210
1.642146637880645e-46
220
-5.3437648000406388e-24
230
-1
0
CIRCLE
5
103
100
AcDbEntity
8
0
100
AcDbCircle
10
-7.5
20
7.5000167846680181
30
9.5367331809370626e-08
40
3.5000000000000009
210
1.642146637880645e-46
220
-5.3437648000406388e-24
230
-1
0
CIRCLE
5
104
100
AcDbEntity
8
0
100
AcDbCircle
10
-7.5000000000000195
20
737.50001678466799
30
9.5367331809370626e-08
40
3.4999999999999716
210
1.642146637880645e-46
220
-5.3437648000406388e-24
230
-1
0
CIRCLE
5
105
100
AcDbEntity
8
0
100
AcDbCircle
10
-482.50000000000006
20
695.00001678466811
30
9.5367331809370626e-08
40
1.7500000000000089
210
1.642146637880645e-46
220
-5.3437648000406388e-24
230
-1
0
CIRCLE
5
106
100
AcDbEntity
8
0
100
AcDbCircle
10
-342.5
20
7.5000167846680021
30
9.5367331809370626e-08
40
1.7499999999999758
210
1.642146637880645e-46
220
-5.3437648000406388e-24
230
-1
0
CIRCLE
5
107
100
AcDbEntity
8
0
100
AcDbCircle
10
-147.50000000000003
20
7.500016784668019
30
9.5367331809370626e-08
40
1.7500000000000073
210
1.642146637880645e-46
220
-5.3437648000406388e-24
230
-1
0
CIRCLE
5
108
100
AcDbEntity
8
0
100
AcDbCircle
10
-7.5000000000000036
20
480.00002393722502
30
9.5367331809370626e-08
40
1.7499999999999964
210
1.642146637880645e-46
220
-5.3437648000406388e-24
230
-1
0
CIRCLE
5
109
100
AcDbEntity
8
0
100
AcDbCircle
10
-50.000000000000007
20
7.5000167846680537
30
9.5367331809370626e-08
40
1.7500000000000067
210
1.642146637880645e-46
220
-5.3437648000406388e-24
230
-1
0
CIRCLE
5
110
100
AcDbEntity
8
0
100
AcDbCircle
10
-7.5000000000000089
20
587.50002393722514
30
9.5367331809370626e-08
40
1.7500000000000009
210
1.642146637880645e-46
220
-5.3437648000406388e-24
230
-1
0
CIRCLE
5
111
100
AcDbEntity
8
0
100
AcDbCircle
10
-7.5000000000000009
20
50.000016784668027
30
9.5367331809370626e-08
40
1.7499999999999993
210
1.642146637880645e-46
220
-5.3437648000406388e-24
230
-1
0
CIRCLE
5
112
100
AcDbEntity
8
0
100
AcDbCircle
10
-482.50000000000006
20
480.00002393722502
30
9.5367331809370626e-08
40
1.7500000000000335
210
1.642146637880645e-46
220
-5.3437648000406388e-24
230
-1
0
CIRCLE
5
113
100
AcDbEntity
8
0
100
AcDbCircle
10
-482.50000000000006
20
372.50001678466811
30
9.5367331809370626e-08
40
1.7500000000000335
210
1.642146637880645e-46
220
-5.3437648000406388e-24
230
-1
0
CIRCLE
5
114
100
AcDbEntity
8
0
100
AcDbCircle
10
-7.5000000000000133
20
372.50001678466811
30
9.5367331809370626e-08
40
1.7499999999999991
210
1.642146637880645e-46
220
-5.3437648000406388e-24
230
-1
0
CIRCLE
5
115
100
AcDbEntity
8
0
100
AcDbCircle
10
-244.99999999999997
20
7.5000167846679506
30
9.5367331809370626e-08
40
1.7499999999999394
210
1.642146637880645e-46
220
-5.3437648000406388e-24
230
-1
0
CIRCLE
5
116
100
AcDbEntity
8
0
100
AcDbCircle
10
-482.50000000000006
20
50.000016784668389
30
9.5367331809370626e-08
40
1.75000000000004
210
1.642146637880645e-46
220
-5.3437648000406388e-24
230
-1
0
CIRCLE
5
117
100
AcDbEntity
8
0
100
AcDbCircle
10
-440
20
7.5000167846680021
30
9.5367331809370626e-08
40
1.7499999999999758
210
1.642146637880645e-46
220
-5.3437648000406388e-24
230
-1
0
CIRCLE
5
118
100
AcDbEntity
8
0
100
AcDbCircle
10
-482.50000000000006
20
157.50001678466802
30
9.5367331809370626e-08
40
1.7500000000000437
210
1.642146637880645e-46
220
-5.3437648000406388e-24
230
-1
0
CIRCLE
5
119
100
AcDbEntity
8
0
100
AcDbCircle
10
-50
20
737.50001678466799
30
9.5367331809370626e-08
40
1.7499999999999758
210
1.642146637880645e-46
220
-5.3437648000406388e-24
230
-1
0
CIRCLE
5
120
100
AcDbEntity
8
0
100
AcDbCircle
10
-147.50000000000003
20
737.50001678466799
30
9.5367331809370626e-08
40
1.7500000000000047
210
1.642146637880645e-46
220
-5.3437648000406388e-24
230
-1
0
CIRCLE
5
121
100
AcDbEntity
8
0
100
AcDbCircle
10
-245
20
737.50001678466788
30
9.5367331809370626e-08
40
1.7499999999999469
210
1.642146637880645e-46
220
-5.3437648000406388e-24
230
-1
0
CIRCLE
5
122
100
AcDbEntity
8
0
100
AcDbCircle
10
-342.5
20
737.50001678466799
30
9.5367331809370626e-08
40
1.7499999999999758
210
1.642146637880645e-46
220
-5.3437648000406388e-24
230
-1
0
CIRCLE
5
123
100
AcDbEntity
8
0
100
AcDbCircle
10
-440.00000000000006
20
737.50001678466811
30
9.5367331809370626e-08
40
1.7500000000000089
210
1.642146637880645e-46
220
-5.3437648000406388e-24
230
-1
0
CIRCLE
5
124
100
AcDbEntity
8
0
100
AcDbCircle
10
-7.4999999999999982
20
695.00001678466799
30
9.5367331809370626e-08
40
1.7499999999999749
210
1.642146637880645e-46
220
-5.3437648000406388e-24
230
-1
0
CIRCLE
5
125
100
AcDbEntity
8
0
100
AcDbCircle
10
-482.50000000000006
20
587.50002393722514
30
9.5367331809370626e-08
40
1.7500000000000335
210
1.642146637880645e-46
220
-5.3437648000406388e-24
230
-1
0
CIRCLE
5
126
100
AcDbEntity
8
0
100
AcDbCircle
10
-7.5000000000000018
20
265.00001678466805
30
9.5367331809370626e-08
40
1.7500000000000018
210
1.642146637880645e-46
220
-5.3437648000406388e-24
230
-1
0
CIRCLE
5
127
100
AcDbEntity
8
0
100
AcDbCircle
10
-482.5
20
265.00001678466799
30
9.5367331809370626e-08
40
1.7499999999999758
210
1.642146637880645e-46
220
-5.3437648000406388e-24
230
-1
0
CIRCLE
5
128
100
AcDbEntity
8
0
100
AcDbCircle
10
-7.5
20
157.50001678466799
30
9.5367331809370626e-08
40
1.7500000000000044
210
1.642146637880645e-46
220
-5.3437648000406388e-24
230
-1
0
LWPOLYLINE
5
129
100
AcDbEntity
8
0
100
AcDbPolyline
90
8
70
1
43
0.0
10
490
20
5.0000167846680208
42
-0.41421356237310419
10
485
20
1.6784668019353965e-05
10
5
20
1.6784668016578408e-05
42
-0.41421356237309459
10
0
20
5.0000167846680199
10
4.9960036108132044e-14
20
740.00001678466799
42
-0.41421356237310875
10
5
20
745.00001678466799
10
485
20
745.00001678466811
42
-0.4142135623730992
10
490
20
740.00001678466799
0
CIRCLE
5
130
100
AcDbEntity
8
0
100
AcDbCircle
10
482.5
20
7.5000167846679675
30
0
40
3.5000000000000089
210
-7.2588363017501144e-40
220
3.8443936298290368e-40
230
1
0
CIRCLE
5
131
100
AcDbEntity
8
0
100
AcDbCircle
10
482.5
20
737.50001678466811
30
0
40
3.5000000000000093
210
-4.269311589468269e-40
220
5.9790494245634233e-40
230
1
0
CIRCLE
5
132
100
AcDbEntity
8
0
100
AcDbCircle
10
7.5
20
7.5000167846680181
30
0
40
3.5000000000000013
210
-7.2588363017500704e-40
220
3.8443936298291249e-40
230
1
0
CIRCLE
5
133
100
AcDbEntity
8
0
100
AcDbCircle
10
7.5000000000000195
20
737.50001678466799
30
0
40
3.4999999999999716
210
-1.2797868771866199e-40
220
8.1137052192975489e-40
230
1
0
CIRCLE
5
134
100
AcDbEntity
8
0
100
AcDbCircle
10
482.50000000000006
20
695.00001678466811
30
0
40
1.7500000000000089
210
0
220
0
230
1
0
CIRCLE
5
135
100
AcDbEntity
8
0
100
AcDbCircle
10
342.5
20
7.5000167846680021
30
0
40
1.7499999999999758
210
-2.9895247122816864e-40
220
2.13465579473417e-40
230
1
0
CIRCLE
5
136
100
AcDbEntity
8
0
100
AcDbCircle
10
147.50000000000003
20
7.500016784668019
30
0
40
1.7500000000000073
210
0
220
0
230
1
0
CIRCLE
5
137
100
AcDbEntity
8
0
100
AcDbCircle
10
7.5000000000000036
20
480.00002393722502
30
0
40
1.7499999999999964
210
-4.2693115894682894e-40
220
-5.9790494245634087e-40
230
1
0
CIRCLE
5
138
100
AcDbEntity
8
0
100
AcDbCircle
10
50.000000000000007
20
7.5000167846680537
30
0
40
1.7500000000000067
210
2.9895247122817076e-40
220
-2.134655794734139e-40
230
1
0
CIRCLE
5
139
100
AcDbEntity
8
0
100
AcDbCircle
10
7.5000000000000089
20
587.50002393722514
30
0
40
1.7500000000000009
210
-2.9895247122817084e-40
220
2.134655794734139e-40
230
1
0
CIRCLE
5
140
100
AcDbEntity
8
0
100
AcDbCircle
10
7.5000000000000009
20
50.000016784668027
30
0
40
1.7499999999999993
210
-4.2693115894683938e-40
220
-5.9790494245633336e-40
230
1
0
CIRCLE
5
141
100
AcDbEntity
8
0
100
AcDbCircle
10
482.50000000000006
20
480.00002393722502
30
0
40
1.7500000000000335
210
-7.2588363017499341e-40
220
-3.8443936298293737e-40
230
1
0
CIRCLE
5
142
100
AcDbEntity
8
0
100
AcDbCircle
10
482.50000000000006
20
372.50001678466811
30
0
40
1.7500000000000335
210
-7.2588363017499341e-40
220
-3.8443936298293737e-40
230
1
0
CIRCLE
5
143
100
AcDbEntity
8
0
100
AcDbCircle
10
7.5000000000000133
20
372.50001678466811
30
0
40
1.7499999999999991
210
-1.0248361014031697e-39
220
-1.7097378350951307e-40
230
1
0
CIRCLE
5
144
100
AcDbEntity
8
0
100
AcDbCircle
10
244.99999999999997
20
7.5000167846679506
30
0
40
1.7499999999999394
210
0
220
0
230
1
0
CIRCLE
5
145
100
AcDbEntity
8
0
100
AcDbCircle
10
482.50000000000006
20
50.000016784668389
30
0
40
1.75000000000004
210
0
220
0
230
1
0
CIRCLE
5
146
100
AcDbEntity
8
0
100
AcDbCircle
10
440
20
7.5000167846680021
30
0
40
1.7499999999999758
210
-2.9895247122816864e-40
220
2.13465579473417e-40
230
1
0
CIRCLE
5
147
100
AcDbEntity
8
0
100
AcDbCircle
10
482.50000000000006
20
157.50001678466802
30
0
40
1.7500000000000437
210
-1.2797868771865296e-40
220
-8.1137052192975635e-40
230
1
0
CIRCLE
5
148
100
AcDbEntity
8
0
100
AcDbCircle
10
50
20
737.50001678466799
30
0
40
1.7499999999999758
210
-2.9895247122816864e-40
220
2.13465579473417e-40
230
1
0
CIRCLE
5
149
100
AcDbEntity
8
0
100
AcDbCircle
10
147.50000000000003
20
737.50001678466799
30
0
40
1.7500000000000047
210
-2.9895247122817117e-40
220
2.1346557947341345e-40
230
1
0
CIRCLE
5
150
100
AcDbEntity
8
0
100
AcDbCircle
10
245
20
737.50001678466788
30
0
40
1.7499999999999472
210
2.9895247122816611e-40
220
-2.134655794734205e-40
230
1
0
CIRCLE
5
151
100
AcDbEntity
8
0
100
AcDbCircle
10
342.5
20
737.50001678466799
30
0
40
1.7499999999999758
210
-2.9895247122816864e-40
220
2.13465579473417e-40
230
1
0
CIRCLE
5
152
100
AcDbEntity
8
0
100
AcDbCircle
10
440.00000000000006
20
737.50001678466811
30
0
40
1.7500000000000089
210
0
220
0
230
1
0
CIRCLE
5
153
100
AcDbEntity
8
0
100
AcDbCircle
10
7.4999999999999982
20
695.00001678466799
30
0
40
1.7499999999999749
210
-7.2588363017500263e-40
220
-3.8443936298292e-40
230
1
0
CIRCLE
5
154
100
AcDbEntity
8
0
100
AcDbCircle
10
482.50000000000006
20
587.50002393722514
30
0
40
1.7500000000000335
210
-7.2588363017499341e-40
220
-3.8443936298293737e-40
230
1
0
CIRCLE
5
155
100
AcDbEntity
8
0
100
AcDbCircle
10
7.5000000000000018
20
265.00001678466805
30
0
40
1.7500000000000022
210
-7.2588363017500801e-40
220
-3.8443936298290988e-40
230
1
0
CIRCLE
5
156
100
AcDbEntity
8
0
100
AcDbCircle
10
482.5
20
265.00001678466799
30
0
40
1.7499999999999758
210
-2.9895247122816864e-40
220
2.13465579473417e-40
230
1
0
CIRCLE
5
157
100
AcDbEntity
8
0
100
AcDbCircle
10
7.5
20
157.50001678466799
30
0
40
1.7500000000000044
210
-7.2588363017500769e-40
220
-3.844393629829107e-40
230
1
0
ENDSEC
0
SECTION
2
OBJECTS
0
DICTIONARY
5
C
100
AcDbDictionary
3
ACAD_GROUP
350
D
3
ACAD_MLINESTYLE
350
17
0
DICTIONARY
5
D
100
AcDbDictionary
0
DICTIONARY
5
1A
330
C
100
AcDbDictionary
0
DICTIONARY
5
17
100
AcDbDictionary
0
ENDSEC
0
EOF
