0
SECTION
2
HEADER
9
$INSUNITS
70
4
9
$ACADVER
1
AC1014
9
$HANDSEED
5
FFFF
0
ENDSEC
0
SECTION
2
TABLES
0
TABLE
2
VPORT
5
8
100
AcDbSymbolTable
0
ENDTAB
0
TABLE
2
LTYPE
5
5
100
AcDbSymbolTable
0
LTYPE
5
14
100
AcDbSymbolTableRecord
100
AcDbLinetypeTableRecord
2
BYBLOCK
70
0
0
LTYPE
5
15
100
AcDbSymbolTableRecord
100
AcDbLinetypeTableRecord
2
BYLAYER
70
0
0
ENDTAB
0
TABLE
2
LAYER
5
2
100
AcDbSymbolTable
70
2
0
LAYER
5
50
100
AcDbSymbolTableRecord
100
AcDbLayerTableRecord
2
0
70
0
6
CONTINUOUS
0
ENDTAB
0
TABLE
2
STYLE
5
3
100
AcDbSymbolTable
70
1
0
STYLE
5
11
100
AcDbSymbolTableRecord
100
AcDbTextStyleTableRecord
2
STANDARD
70
0
0
ENDTAB
0
TABLE
2
VIEW
5
6
100
AcDbSymbolTable
70
0
0
ENDTAB
0
TABLE
2
UCS
5
7
100
AcDbSymbolTable
70
0
0
ENDTAB
0
TABLE
2
APPID
5
9
100
AcDbSymbolTable
70
2
0
APPID
5
12
100
AcDbSymbolTableRecord
100
AcDbRegAppTableRecord
2
ACAD
70
0
0
ENDTAB
0
TABLE
2
DIMSTYLE
5
A
100
AcDbSymbolTable
70
1
0
ENDTAB
0
TABLE
2
BLOCK_RECORD
5
1
100
AcDbSymbolTable
70
1
0
BLOCK_RECORD
5
1F
100
AcDbSymbolTableRecord
100
AcDbBlockTableRecord
2
*MODEL_SPACE
0
BLOCK_RECORD
5
1B
100
AcDbSymbolTableRecord
100
AcDbBlockTableRecord
2
*PAPER_SPACE
0
ENDTAB
0
ENDSEC
0
SECTION
2
BLOCKS
0
BLOCK
5
20
100
AcDbEntity
100
AcDbBlockBegin
2
*MODEL_SPACE
0
ENDBLK
5
21
100
AcDbEntity
100
AcDbBlockEnd
0
BLOCK
5
1C
100
AcDbEntity
100
AcDbBlockBegin
2
*PAPER_SPACE
0
ENDBLK
5
1D
100
AcDbEntity
100
AcDbBlockEnd
0
ENDSEC
0
SECTION
2
ENTITIES
0
LWPOLYLINE
5
100
100
AcDbEntity
8
0
100
AcDbPolyline
90
8
70
1
43
0.0
10
-449.99999999999955
20
-2.2204460492503131e-14
42
-0.41421356237308798
10
-454.99999999999955
20
5
10
-454.99999999999949
20
740
42
-0.41421356237310752
10
-449.99999999999955
20
745
10
-4.9999999999999964
20
745
42
-0.41421356237310764
10
1.9417318143949442e-26
20
740
10
6.6613381477509392e-15
20
5
42
-0.41421356237309476
10
-5
20
0
0
CIRCLE
5
101
100
AcDbEntity
8
0
100
AcDbCircle
10
-447.49999999999966
20
737.50000000000011
30
-8.3266726846886741e-14
40
3.499999999999976
210
2.8807698396368227e-17
220
-4.0344362061714449e-17
230
1
0
CIRCLE
5
102
100
AcDbEntity
8
0
100
AcDbCircle
10
-7.5000000000000044
20
737.5
30
8.1046280797636427e-14
40
3.5000000000001048
210
-1.4565342798084574e-17
220
5.6626290567946722e-16
230
1
0
CIRCLE
5
103
100
AcDbEntity
8
0
100
AcDbCircle
10
-7.4999999999999911
20
695
30
8.1046280797636427e-14
40
1.7499999999999749
210
-5.7615396792725804e-17
220
8.0688724123421688e-17
230
1
0
CIRCLE
5
104
100
AcDbEntity
8
0
100
AcDbCircle
10
-7.4999999999999929
20
157.49999999999997
30
8.1046280797636427e-14
40
1.7500000000000044
210
-5.8261371192372684e-17
220
2.2650516227179943e-15
230
1
0
CIRCLE
5
105
100
AcDbEntity
8
0
100
AcDbCircle
10
-447.49999999999966
20
480.00000715255692
30
-8.3266726846886741e-14
40
1.7500000000000335
210
2.249639673992591e-32
220
0
230
1
0
CIRCLE
5
106
100
AcDbEntity
8
0
100
AcDbCircle
10
-7.4999999999999956
20
7.5
30
8.1046280797636427e-14
40
3.5000000000000018
210
2.249639673992591e-32
220
0
230
1
0
CIRCLE
5
107
100
AcDbEntity
8
0
100
AcDbCircle
10
-7.4999999999999822
20
264.99999999999994
30
8.1046280797636427e-14
40
1.7499999999999907
210
-2.9130685596204874e-17
220
1.1325258113590224e-15
230
1
0
CIRCLE
5
108
100
AcDbEntity
8
0
100
AcDbCircle
10
-404.99999999999966
20
737.5
30
-6.8833827526759706e-14
40
1.7499999999999758
210
-6.0304802711081199e-16
220
8.4455160601899164e-16
230
1
0
CIRCLE
5
109
100
AcDbEntity
8
0
100
AcDbCircle
10
-7.5000000000000071
20
372.50000000000006
30
8.1046280797636427e-14
40
1.7499999999999991
210
2.9130685596132342e-17
220
-1.1325258113589613e-15
230
1
0
CIRCLE
5
110
100
AcDbEntity
8
0
100
AcDbCircle
10
-7.4999999999999947
20
50.000000000000007
30
8.1046280797636427e-14
40
1.7499999999999993
210
-5.7615396792731043e-17
220
8.068872412342753e-17
230
1
0
CIRCLE
5
111
100
AcDbEntity
8
0
100
AcDbCircle
10
-447.49999999999955
20
7.499999999999849
30
-8.4376949871511897e-14
40
3.4999999999999427
210
-3.015240135554165e-16
220
4.2227580300945125e-16
230
1
0
CIRCLE
5
112
100
AcDbEntity
8
0
100
AcDbCircle
10
-447.49999999999966
20
264.99999999999994
30
-8.4376949871511897e-14
40
1.7500000000000335
210
-6.0304802711080558e-16
220
8.4455160601902487e-16
230
1
0
CIRCLE
5
113
100
AcDbEntity
8
0
100
AcDbCircle
10
-227.49999999999977
20
737.49999999999989
30
-2.2204460492503131e-15
40
1.7499999999999758
210
-6.6066342390360014e-16
220
9.2524033014250078e-16
230
1
0
CIRCLE
5
114
100
AcDbEntity
8
0
100
AcDbCircle
10
-316.24999999999972
20
737.49999999999989
30
-3.5527136788005009e-14
40
1.7499999999999758
210
-6.6066342390360014e-16
220
9.2524033014250078e-16
230
1
0
CIRCLE
5
115
100
AcDbEntity
8
0
100
AcDbCircle
10
-447.49999999999966
20
587.50000715255715
30
-8.3266726846886741e-14
40
1.7500000000000335
210
2.249639673992591e-32
220
0
230
1
0
CIRCLE
5
116
100
AcDbEntity
8
0
100
AcDbCircle
10
-404.99999999999966
20
7.4999999999999822
30
-6.7723604502134549e-14
40
1.7499999999999758
210
2.249639673992591e-32
220
0
230
1
0
CIRCLE
5
117
100
AcDbEntity
8
0
100
AcDbCircle
10
-447.49999999999966
20
372.50000000000006
30
-8.3266726846886741e-14
40
1.7500000000000335
210
2.249639673992591e-32
220
0
230
1
0
CIRCLE
5
118
100
AcDbEntity
8
0
100
AcDbCircle
10
-447.49999999999966
20
695
30
-8.3266726846886741e-14
40
1.7500000000000335
210
-5.761539679272128e-17
220
8.0688724123419444e-17
230
1
0
CIRCLE
5
119
100
AcDbEntity
8
0
100
AcDbCircle
10
-7.4999999999999982
20
480.00000715255703
30
8.1046280797636427e-14
40
1.7499999999999918
210
2.9130685596169018e-17
220
-1.1325258113590125e-15
230
1
0
CIRCLE
5
120
100
AcDbEntity
8
0
100
AcDbCircle
10
-227.49999999999977
20
7.4999999999999734
30
-2.2204460492503131e-15
40
1.7499999999999725
210
-6.0304802711081751e-16
220
8.4455160601894145e-16
230
1
0
CIRCLE
5
121
100
AcDbEntity
8
0
100
AcDbCircle
10
-447.49999999999966
20
50.000000000000313
30
-8.3266726846886741e-14
40
1.75000000000004
210
-2.9130685596108522e-17
220
1.1325258113590305e-15
230
1
0
CIRCLE
5
122
100
AcDbEntity
8
0
100
AcDbCircle
10
-316.24999999999972
20
7.5000000000000266
30
-3.5527136788005009e-14
40
1.7499999999999705
210
-6.0304802711079878e-16
220
8.445516060189808e-16
230
1
0
CIRCLE
5
123
100
AcDbEntity
8
0
100
AcDbCircle
10
-7.4999999999999742
20
587.50000715255703
30
8.1046280797636427e-14
40
1.7500000000000275
210
2.9130685596203531e-17
220
-1.1325258113589818e-15
230
1
0
CIRCLE
5
124
100
AcDbEntity
8
0
100
AcDbCircle
10
-138.74999999999989
20
7.5000000000000338
30
3.219646771412954e-14
40
1.7500000000000067
210
-5.8261371192300885e-17
220
2.2650516227179667e-15
230
1
0
CIRCLE
5
125
100
AcDbEntity
8
0
100
AcDbCircle
10
-447.49999999999966
20
157.5
30
-8.3266726846886741e-14
40
1.7500000000000437
210
2.249639673992591e-32
220
0
230
1
0
CIRCLE
5
126
100
AcDbEntity
8
0
100
AcDbCircle
10
-49.999999999999964
20
7.5000000000000338
30
6.5503158452884236e-14
40
1.7500000000000067
210
-5.8261371192300885e-17
220
2.2650516227179667e-15
230
1
0
CIRCLE
5
127
100
AcDbEntity
8
0
100
AcDbCircle
10
-49.999999999999957
20
737.5
30
6.5503158452884236e-14
40
1.7499999999999758
210
2.249639673992591e-32
220
0
230
1
0
CIRCLE
5
128
100
AcDbEntity
8
0
100
AcDbCircle
10
-138.74999999999989
20
737.5
30
3.219646771412954e-14
40
1.7499999999999614
210
2.249639673992591e-32
220
0
230
1
0
LWPOLYLINE
5
129
100
AcDbEntity
8
0
100
AcDbPolyline
90
8
70
1
43
0.0
10
-450
20
2.7755575615628914e-14
42
-0.4142135623730851
10
-455
20
5
10
-455
20
740
42
-0.41421356237311169
10
-450
20
745
10
-5.0000000000000009
20
745
42
-0.41421356237310836
10
1.9374916870293813e-26
20
740
10
3.3306690738754696e-15
20
5
42
-0.41421356237309459
10
-5
20
0
0
CIRCLE
5
130
100
AcDbEntity
8
0
100
AcDbCircle
10
-447.50000000000006
20
737.50000000000011
30
0
40
3.499999999999976
210
2.5799288926665245e-32
220
4.8713225817241708e-32
230
1
0
CIRCLE
5
131
100
AcDbEntity
8
0
100
AcDbCircle
10
-7.5000000000000107
20
737.5
30
0
40
3.5000000000001048
210
-2.8650865083126221e-32
220
4.0124721468229639e-32
230
1
0
CIRCLE
5
132
100
AcDbEntity
8
0
100
AcDbCircle
10
-7.4999999999999982
20
695
30
0
40
1.7499999999999749
210
-0
220
0
230
1
0
CIRCLE
5
133
100
AcDbEntity
8
0
100
AcDbCircle
10
-7.5
20
157.49999999999997
30
0
40
1.7500000000000044
210
-4.2976297624688995e-32
220
6.0187082202344683e-32
230
1
0
CIRCLE
5
134
100
AcDbEntity
8
0
100
AcDbCircle
10
-447.50000000000006
20
480.00000715255692
30
0
40
1.7500000000000335
210
-0
220
0
230
1
0
CIRCLE
5
135
100
AcDbEntity
8
0
100
AcDbCircle
10
-7.5000000000000018
20
7.5
30
0
40
3.5000000000000018
210
4.012472146822988e-32
220
2.8650865083125887e-32
230
1
0
CIRCLE
5
136
100
AcDbEntity
8
0
100
AcDbCircle
10
-7.4999999999999893
20
264.99999999999994
30
0
40
1.7499999999999905
210
-2.8650865083126227e-32
220
4.0124721468229639e-32
230
1
0
CIRCLE
5
137
100
AcDbEntity
8
0
100
AcDbCircle
10
-405
20
737.5
30
0
40
1.7499999999999758
210
2.8650865083125466e-32
220
-4.0124721468230164e-32
230
1
0
CIRCLE
5
138
100
AcDbEntity
8
0
100
AcDbCircle
10
-7.5000000000000133
20
372.50000000000006
30
0
40
1.7499999999999991
210
6.8775586551355526e-32
220
-1.1473856385105355e-32
230
1
0
CIRCLE
5
139
100
AcDbEntity
8
0
100
AcDbCircle
10
-7.5000000000000009
20
50.000000000000007
30
0
40
1.7499999999999993
210
-0
220
0
230
1
0
CIRCLE
5
140
100
AcDbEntity
8
0
100
AcDbCircle
10
-447.5
20
7.499999999999849
30
0
40
3.4999999999999427
210
2.5799288926664194e-32
220
4.8713225817242261e-32
230
1
0
CIRCLE
5
141
100
AcDbEntity
8
0
100
AcDbCircle
10
-447.50000000000006
20
264.99999999999994
30
0
40
1.7500000000000335
210
4.2976297624686767e-32
220
-6.0187082202346259e-32
230
1
0
CIRCLE
5
142
100
AcDbEntity
8
0
100
AcDbCircle
10
-227.5
20
737.49999999999989
30
0
40
1.7499999999999758
210
2.8650865083125466e-32
220
-4.0124721468230164e-32
230
1
0
CIRCLE
5
143
100
AcDbEntity
8
0
100
AcDbCircle
10
-316.25
20
737.49999999999989
30
0
40
1.7499999999999758
210
2.8650865083125466e-32
220
-4.0124721468230164e-32
230
1
0
CIRCLE
5
144
100
AcDbEntity
8
0
100
AcDbCircle
10
-447.50000000000006
20
587.50000715255715
30
0
40
1.7500000000000335
210
-0
220
0
230
1
0
CIRCLE
5
145
100
AcDbEntity
8
0
100
AcDbCircle
10
-405
20
7.4999999999999822
30
0
40
1.7499999999999758
210
1.4325432541562733e-32
220
-2.0062360734115082e-32
230
1
0
CIRCLE
5
146
100
AcDbEntity
8
0
100
AcDbCircle
10
-447.50000000000006
20
372.50000000000006
30
0
40
1.7500000000000335
210
-0
220
0
230
1
0
CIRCLE
5
147
100
AcDbEntity
8
0
100
AcDbCircle
10
-447.50000000000006
20
695
30
0
40
1.7500000000000335
210
-0
220
0
230
1
0
CIRCLE
5
148
100
AcDbEntity
8
0
100
AcDbCircle
10
-7.5000000000000044
20
480.00000715255703
30
0
40
1.7499999999999918
210
2.8515761564574451e-33
220
-8.8837947285470734e-32
230
1
0
CIRCLE
5
149
100
AcDbEntity
8
0
100
AcDbCircle
10
-227.5
20
7.4999999999999734
30
0
40
1.7499999999999725
210
-1.4325432541563384e-32
220
2.0062360734114617e-32
230
1
0
CIRCLE
5
150
100
AcDbEntity
8
0
100
AcDbCircle
10
-447.50000000000006
20
50.000000000000313
30
0
40
1.75000000000004
210
5.7301730166243815e-32
220
-8.0249442936465408e-32
230
1
0
CIRCLE
5
151
100
AcDbEntity
8
0
100
AcDbCircle
10
-316.25
20
7.5000000000000266
30
0
40
1.7499999999999707
210
-1.4325432541562648e-32
220
2.0062360734115142e-32
230
1
0
CIRCLE
5
152
100
AcDbEntity
8
0
100
AcDbCircle
10
-7.4999999999999813
20
587.50000715255703
30
0
40
1.7500000000000275
210
-4.2976297624689909e-32
220
6.0187082202344015e-32
230
1
0
CIRCLE
5
153
100
AcDbEntity
8
0
100
AcDbCircle
10
-138.75000000000003
20
7.5000000000000338
30
0
40
1.7500000000000067
210
1.4325432541562525e-32
220
-2.0062360734115224e-32
230
1
0
CIRCLE
5
154
100
AcDbEntity
8
0
100
AcDbCircle
10
-447.50000000000006
20
157.5
30
0
40
1.7500000000000437
210
1.4325432541562429e-32
220
-2.0062360734115307e-32
230
1
0
CIRCLE
5
155
100
AcDbEntity
8
0
100
AcDbCircle
10
-50.000000000000007
20
7.5000000000000338
30
0
40
1.7500000000000067
210
1.4325432541562525e-32
220
-2.0062360734115224e-32
230
1
0
CIRCLE
5
156
100
AcDbEntity
8
0
100
AcDbCircle
10
-50
20
737.5
30
0
40
1.7499999999999758
210
1.4325432541562733e-32
220
-2.0062360734115082e-32
230
1
0
CIRCLE
5
157
100
AcDbEntity
8
0
100
AcDbCircle
10
-138.75
20
737.5
30
0
40
1.7499999999999614
210
-1.4325432541562851e-32
220
2.0062360734114997e-32
230
1
0
ENDSEC
0
SECTION
2
OBJECTS
0
DICTIONARY
5
C
100
AcDbDictionary
3
ACAD_GROUP
350
D
3
ACAD_MLINESTYLE
350
17
0
DICTIONARY
5
D
100
AcDbDictionary
0
DICTIONARY
5
1A
330
C
100
AcDbDictionary
0
DICTIONARY
5
17
100
AcDbDictionary
0
ENDSEC
0
EOF
