0
SECTION
2
HEADER
9
$INSUNITS
70
4
9
$ACADVER
1
AC1014
9
$HANDSEED
5
FFFF
0
ENDSEC
0
SECTION
2
TABLES
0
TABLE
2
VPORT
5
8
100
AcDbSymbolTable
0
ENDTAB
0
TABLE
2
LTYPE
5
5
100
AcDbSymbolTable
0
LTYPE
5
14
100
AcDbSymbolTableRecord
100
AcDbLinetypeTableRecord
2
BYBLOCK
70
0
0
LTYPE
5
15
100
AcDbSymbolTableRecord
100
AcDbLinetypeTableRecord
2
BYLAYER
70
0
0
ENDTAB
0
TABLE
2
LAYER
5
2
100
AcDbSymbolTable
70
2
0
LAYER
5
50
100
AcDbSymbolTableRecord
100
AcDbLayerTableRecord
2
0
70
0
6
CONTINUOUS
0
ENDTAB
0
TABLE
2
STYLE
5
3
100
AcDbSymbolTable
70
1
0
STYLE
5
11
100
AcDbSymbolTableRecord
100
AcDbTextStyleTableRecord
2
STANDARD
70
0
0
ENDTAB
0
TABLE
2
VIEW
5
6
100
AcDbSymbolTable
70
0
0
ENDTAB
0
TABLE
2
UCS
5
7
100
AcDbSymbolTable
70
0
0
ENDTAB
0
TABLE
2
APPID
5
9
100
AcDbSymbolTable
70
2
0
APPID
5
12
100
AcDbSymbolTableRecord
100
AcDbRegAppTableRecord
2
ACAD
70
0
0
ENDTAB
0
TABLE
2
DIMSTYLE
5
A
100
AcDbSymbolTable
70
1
0
ENDTAB
0
TABLE
2
BLOCK_RECORD
5
1
100
AcDbSymbolTable
70
1
0
BLOCK_RECORD
5
1F
100
AcDbSymbolTableRecord
100
AcDbBlockTableRecord
2
*MODEL_SPACE
0
BLOCK_RECORD
5
1B
100
AcDbSymbolTableRecord
100
AcDbBlockTableRecord
2
*PAPER_SPACE
0
ENDTAB
0
ENDSEC
0
SECTION
2
BLOCKS
0
BLOCK
5
20
100
AcDbEntity
100
AcDbBlockBegin
2
*MODEL_SPACE
0
ENDBLK
5
21
100
AcDbEntity
100
AcDbBlockEnd
0
BLOCK
5
1C
100
AcDbEntity
100
AcDbBlockBegin
2
*PAPER_SPACE
0
ENDBLK
5
1D
100
AcDbEntity
100
AcDbBlockEnd
0
ENDSEC
0
SECTION
2
ENTITIES
0
LWPOLYLINE
5
100
100
AcDbEntity
8
0
100
AcDbPolyline
90
8
70
1
43
0.0
10
-446.68708659751331
20
0.094030748996153934
42
0.41421356237309886
10
-451.68708659751337
20
-4.9059692510038388
10
-451.68708659751337
20
-449.90596925100397
42
0.41421356237310336
10
-446.68708659751331
20
-454.90596925100397
10
288.31291340248663
20
-454.90596925100408
42
0.41421356237310125
10
293.31291340248663
20
-449.90596925100397
10
293.31291340248669
20
-4.9059692510039108
42
0.41421356237309437
10
288.31291340248669
20
0.094030748996089542
0
CIRCLE
5
101
100
AcDbEntity
8
0
100
AcDbCircle
10
-173.4370882962389
20
-361.32696925100493
30
-1.6129320101754274e-11
40
1.7500000000000426
210
0
220
0
230
1
0
CIRCLE
5
102
100
AcDbEntity
8
0
100
AcDbCircle
10
-325.73708829624002
20
-384.72696925100485
30
-4.2037484604406927e-11
40
1.7500000000000426
210
0
220
0
230
1
0
CIRCLE
5
103
100
AcDbEntity
8
0
100
AcDbCircle
10
103.3129134024866
20
-387.40596925100408
30
-5.1070259132757201e-14
40
1.7500000000000104
210
0
220
0
230
1
0
CIRCLE
5
104
100
AcDbEntity
8
0
100
AcDbCircle
10
-325.68708659751343
20
-254.72696925099984
30
-5.1070259132757201e-14
40
1.7499999999999705
210
0
220
0
230
1
0
CIRCLE
5
105
100
AcDbEntity
8
0
100
AcDbCircle
10
-356.68708659751337
20
-387.40596925100397
30
-5.1070259132757201e-14
40
1.7499999999999705
210
0
220
0
230
1
0
CIRCLE
5
106
100
AcDbEntity
8
0
100
AcDbCircle
10
-124.43708829623888
20
-361.32696925100498
30
-7.7626793881790945e-12
40
1.7499999999999716
210
0
220
0
230
1
0
CIRCLE
5
107
100
AcDbEntity
8
0
100
AcDbCircle
10
-320.43708659751354
20
-86.503969250999901
30
-1.4432899320127035e-13
40
1.9999999999999929
210
0
220
0
230
1
0
CIRCLE
5
108
100
AcDbEntity
8
0
100
AcDbCircle
10
-233.68708659751346
20
-254.72696925099984
30
-5.1070259132757201e-14
40
1.7499999999999705
210
0
220
0
230
1
0
CIRCLE
5
109
100
AcDbEntity
8
0
100
AcDbCircle
10
-333.18708659751343
20
-192.26596925099983
30
-1.4543921622589553e-13
40
2.0000000000000284
210
0
220
0
230
1
0
CIRCLE
5
110
100
AcDbEntity
8
0
100
AcDbCircle
10
-96.687086597513385
20
-387.40596925100397
30
3.2196467714129533e-14
40
1.7500000000000071
210
0
220
0
230
1
0
CIRCLE
5
111
100
AcDbEntity
8
0
100
AcDbCircle
10
285.81291340248663
20
-447.40596925100397
30
-5.1070259132757201e-14
40
3.5000000000000009
210
0
220
0
230
1
0
CIRCLE
5
112
100
AcDbEntity
8
0
100
AcDbCircle
10
-183.18708659751343
20
-192.26596925099983
30
-8.992806499463768e-14
40
1.9999999999999929
210
0
220
0
230
1
0
CIRCLE
5
113
100
AcDbEntity
8
0
100
AcDbCircle
10
103.31291340248666
20
-67.40596925100391
30
-5.1070259132757201e-14
40
1.7500000000000104
210
0
220
0
230
1
0
CIRCLE
5
114
100
AcDbEntity
8
0
100
AcDbCircle
10
-444.18708659751337
20
-447.40596925100397
30
-5.1070259132757201e-14
40
3.5000000000000906
210
0
220
0
230
1
0
CIRCLE
5
115
100
AcDbEntity
8
0
100
AcDbCircle
10
285.81291340248663
20
-138.65596925100391
30
-5.1070259132757201e-14
40
1.7499999999999805
210
0
220
0
230
1
0
CIRCLE
5
116
100
AcDbEntity
8
0
100
AcDbCircle
10
-173.43708829623867
20
-303.32696925100515
30
-1.6129320101754274e-11
40
1.7500000000000071
210
0
220
0
230
1
0
CIRCLE
5
117
100
AcDbEntity
8
0
100
AcDbCircle
10
285.81291340248663
20
-49.90596925100391
30
-5.1070259132757201e-14
40
1.7500000000000004
210
0
220
0
230
1
0
CIRCLE
5
118
100
AcDbEntity
8
0
100
AcDbCircle
10
-401.68708659751337
20
-447.40596925100397
30
-5.1070259132757201e-14
40
1.7499999999999705
210
0
220
0
230
1
0
CIRCLE
5
119
100
AcDbEntity
8
0
100
AcDbCircle
10
-123.68708659751341
20
-369.72696925099967
30
-5.1070259132757201e-14
40
1.7499999999999705
210
0
220
0
230
1
0
CIRCLE
5
120
100
AcDbEntity
8
0
100
AcDbCircle
10
-444.18708659751337
20
-227.4059692510038
30
-5.1070259132757201e-14
40
1.7499999999999705
210
0
220
0
230
1
0
CIRCLE
5
121
100
AcDbEntity
8
0
100
AcDbCircle
10
-444.18708659751337
20
-404.90596925100357
30
-5.1070259132757201e-14
40
1.7499999999999705
210
0
220
0
230
1
0
CIRCLE
5
122
100
AcDbEntity
8
0
100
AcDbCircle
10
28.312913402486615
20
-447.40596925100397
30
-5.1070259132757201e-14
40
1.7500000000000104
210
0
220
0
230
1
0
CIRCLE
5
123
100
AcDbEntity
8
0
100
AcDbCircle
10
-183.18708659751343
20
-142.26596925099986
30
-9.2148511043888005e-14
40
1.9999999999999929
210
0
220
0
230
1
0
CIRCLE
5
124
100
AcDbEntity
8
0
100
AcDbCircle
10
-201.73708829624005
20
-254.72696925100493
30
-2.0961010704922952e-11
40
1.7500000000000071
210
0
220
0
230
1
0
CIRCLE
5
125
100
AcDbEntity
8
0
100
AcDbCircle
10
-333.18708659751337
20
-142.26596925099986
30
-1.4654943925052066e-13
40
2.0000000000000284
210
0
220
0
230
1
0
CIRCLE
5
126
100
AcDbEntity
8
0
100
AcDbCircle
10
-123.68749259751341
20
-254.72696925099984
30
-5.1070259132757201e-14
40
1.7499999999999705
210
0
220
0
230
1
0
CIRCLE
5
127
100
AcDbEntity
8
0
100
AcDbCircle
10
243.31291340248669
20
-7.4059692510039108
30
-5.1070259132757201e-14
40
1.7500000000000004
210
0
220
0
230
1
0
CIRCLE
5
128
100
AcDbEntity
8
0
100
AcDbCircle
10
-325.68708659751343
20
-369.72696925100024
30
-5.1070259132757201e-14
40
1.7499999999999705
210
0
220
0
230
1
0
CIRCLE
5
129
100
AcDbEntity
8
0
100
AcDbCircle
10
-294.18708659751326
20
-7.4059692510038397
30
-5.1070259132757201e-14
40
1.7500000000000404
210
0
220
0
230
1
0
CIRCLE
5
130
100
AcDbEntity
8
0
100
AcDbCircle
10
-79.187086597513314
20
-7.4059692510038397
30
-5.1070259132757201e-14
40
1.7500000000000404
210
0
220
0
230
1
0
CIRCLE
5
131
100
AcDbEntity
8
0
100
AcDbCircle
10
28.312913402486693
20
-7.4059692510039108
30
-5.1070259132757201e-14
40
1.7500000000000104
210
0
220
0
230
1
0
CIRCLE
5
132
100
AcDbEntity
8
0
100
AcDbCircle
10
-294.18708659751337
20
-447.40596925100397
30
-5.1070259132757201e-14
40
1.7500000000000404
210
0
220
0
230
1
0
CIRCLE
5
133
100
AcDbEntity
8
0
100
AcDbCircle
10
-215.68708659751343
20
-254.72696925099984
30
-5.1070259132757201e-14
40
1.7499999999999705
210
0
220
0
230
1
0
CIRCLE
5
134
100
AcDbEntity
8
0
100
AcDbCircle
10
-124.4370882962388
20
-303.32696925100515
30
-7.7626793881790945e-12
40
1.7500000000000071
210
0
220
0
230
1
0
CIRCLE
5
135
100
AcDbEntity
8
0
100
AcDbCircle
10
243.31291340248663
20
-447.40596925100397
30
-5.1070259132757201e-14
40
1.7500000000000104
210
0
220
0
230
1
0
CIRCLE
5
136
100
AcDbEntity
8
0
100
AcDbCircle
10
-444.18708659751337
20
-7.4059692510038397
30
-5.1070259132757201e-14
40
3.4999999999999409
210
0
220
0
230
1
0
CIRCLE
5
137
100
AcDbEntity
8
0
100
AcDbCircle
10
-444.18708659751337
20
-138.6559692510038
30
-5.1070259132757201e-14
40
1.7499999999999705
210
0
220
0
230
1
0
CIRCLE
5
138
100
AcDbEntity
8
0
100
AcDbCircle
10
-215.68708659751343
20
-369.72696925099996
30
-5.1070259132757201e-14
40
1.7499999999999705
210
0
220
0
230
1
0
CIRCLE
5
139
100
AcDbEntity
8
0
100
AcDbCircle
10
-401.68708659751337
20
-7.4059692510038397
30
-5.1070259132757201e-14
40
1.7499999999999705
210
0
220
0
230
1
0
CIRCLE
5
140
100
AcDbEntity
8
0
100
AcDbCircle
10
-350.68708659751343
20
-306.40596925100385
30
-5.1070259132757201e-14
40
12.699999999999999
210
0
220
0
230
1
0
CIRCLE
5
141
100
AcDbEntity
8
0
100
AcDbCircle
10
-186.68708659751343
20
-447.40596925100397
30
-5.1070259132757201e-14
40
1.7500000000000404
210
0
220
0
230
1
0
CIRCLE
5
142
100
AcDbEntity
8
0
100
AcDbCircle
10
-186.68708659751329
20
-7.4059692510038397
30
-5.1070259132757201e-14
40
1.7499999999999705
210
0
220
0
230
1
0
CIRCLE
5
143
100
AcDbEntity
8
0
100
AcDbCircle
10
285.81291340248663
20
-227.40596925100391
30
-5.1070259132757201e-14
40
1.7499999999999905
210
0
220
0
230
1
0
CIRCLE
5
144
100
AcDbEntity
8
0
100
AcDbCircle
10
-444.18708659751337
20
-49.905969251003846
30
-5.1070259132757201e-14
40
1.7499999999999705
210
0
220
0
230
1
0
CIRCLE
5
145
100
AcDbEntity
8
0
100
AcDbCircle
10
285.81291340248663
20
-316.15596925100397
30
-5.1070259132757201e-14
40
1.7500000000000004
210
0
220
0
230
1
0
CIRCLE
5
146
100
AcDbEntity
8
0
100
AcDbCircle
10
-233.68708659751346
20
-369.72696925099996
30
-5.1070259132757201e-14
40
1.7499999999999705
210
0
220
0
230
1
0
CIRCLE
5
147
100
AcDbEntity
8
0
100
AcDbCircle
10
-79.187086597513371
20
-447.40596925100397
30
-5.1070259132757201e-14
40
1.7499999999999705
210
0
220
0
230
1
0
CIRCLE
5
148
100
AcDbEntity
8
0
100
AcDbCircle
10
135.81291340248666
20
-7.4059692510039108
30
-5.1070259132757201e-14
40
1.7499999999999905
210
0
220
0
230
1
0
CIRCLE
5
149
100
AcDbEntity
8
0
100
AcDbCircle
10
-444.18708659751337
20
-316.1559692510038
30
-5.1070259132757201e-14
40
1.7499999999999705
210
0
220
0
230
1
0
CIRCLE
5
150
100
AcDbEntity
8
0
100
AcDbCircle
10
135.81291340248666
20
-447.40596925100397
30
-5.1070259132757201e-14
40
1.7500000000000104
210
0
220
0
230
1
0
CIRCLE
5
151
100
AcDbEntity
8
0
100
AcDbCircle
10
-201.73708829624005
20
-384.72696925100485
30
-2.0952128920725954e-11
40
1.7499999999999716
210
0
220
0
230
1
0
CIRCLE
5
152
100
AcDbEntity
8
0
100
AcDbCircle
10
285.81291340248663
20
-404.90596925100397
30
-5.1070259132757201e-14
40
1.7500000000000004
210
0
220
0
230
1
0
CIRCLE
5
153
100
AcDbEntity
8
0
100
AcDbCircle
10
-96.687086597513385
20
-67.405969251003853
30
-7.4384942649885476e-14
40
1.7500000000000071
210
0
220
0
230
1
0
CIRCLE
5
154
100
AcDbEntity
8
0
100
AcDbCircle
10
-356.68708659751337
20
-67.405969251003853
30
-5.1070259132757201e-14
40
1.7499999999999705
210
0
220
0
230
1
0
CIRCLE
5
155
100
AcDbEntity
8
0
100
AcDbCircle
10
-272.93708659751348
20
-86.503969250999901
30
-1.2656542480726785e-13
40
1.9999999999999929
210
0
220
0
230
1
0
CIRCLE
5
156
100
AcDbEntity
8
0
100
AcDbCircle
10
285.81291340248669
20
-7.4059692510039108
30
-5.1070259132757201e-14
40
3.5000000000000009
210
0
220
0
230
1
0
ENDSEC
0
SECTION
2
OBJECTS
0
DICTIONARY
5
C
100
AcDbDictionary
3
ACAD_GROUP
350
D
3
ACAD_MLINESTYLE
350
17
0
DICTIONARY
5
D
100
AcDbDictionary
0
DICTIONARY
5
1A
330
C
100
AcDbDictionary
0
DICTIONARY
5
17
100
AcDbDictionary
0
ENDSEC
0
EOF
