solid OpenSCAD_Model
  facet normal -1 0 0
    outer loop
      vertex 100 0.459999 0
      vertex 100 0.959999 30
      vertex 100 0.959999 0
    endloop
  endfacet
  facet normal -1 -0 0
    outer loop
      vertex 100 0.959999 30
      vertex 100 0.459999 0
      vertex 100 0.459999 30
    endloop
  endfacet
  facet normal 0 0 1
    outer loop
      vertex 100.46 28.3 30
      vertex 100 27.84 30
      vertex 100.46 26.88 30
    endloop
  endfacet
  facet normal -0 0 1
    outer loop
      vertex 0 28.3 30
      vertex 100 27.84 30
      vertex 100.46 28.3 30
    endloop
  endfacet
  facet normal 0 0 1
    outer loop
      vertex 100 27.84 30
      vertex 0 28.3 30
      vertex 0 27.84 30
    endloop
  endfacet
  facet normal -0 0 1
    outer loop
      vertex 100 27.34 30
      vertex 100.46 26.88 30
      vertex 100 27.84 30
    endloop
  endfacet
  facet normal 0 0 1
    outer loop
      vertex 100 27.34 30
      vertex 0.459999 26.88 30
      vertex 100.46 26.88 30
    endloop
  endfacet
  facet normal 0 0 1
    outer loop
      vertex 0.459999 26.88 30
      vertex 0 27.34 30
      vertex 0.459999 26.38 30
    endloop
  endfacet
  facet normal -0 0 1
    outer loop
      vertex 0 27.34 30
      vertex 0.459999 26.88 30
      vertex 100 27.34 30
    endloop
  endfacet
  facet normal 0 0 1
    outer loop
      vertex 100.46 26.38 30
      vertex 100 25.92 30
      vertex 100.46 24.96 30
    endloop
  endfacet
  facet normal -0 0 1
    outer loop
      vertex 0.459999 26.38 30
      vertex 100 25.92 30
      vertex 100.46 26.38 30
    endloop
  endfacet
  facet normal 0 0 1
    outer loop
      vertex 0.459999 26.38 30
      vertex 0 25.92 30
      vertex 100 25.92 30
    endloop
  endfacet
  facet normal 0 0 1
    outer loop
      vertex 0 25.92 30
      vertex 0.459999 26.38 30
      vertex 0 27.34 30
    endloop
  endfacet
  facet normal -0 0 1
    outer loop
      vertex 100 25.42 30
      vertex 100.46 24.96 30
      vertex 100 25.92 30
    endloop
  endfacet
  facet normal 0 0 1
    outer loop
      vertex 100 25.42 30
      vertex 0.459999 24.96 30
      vertex 100.46 24.96 30
    endloop
  endfacet
  facet normal 0 0 1
    outer loop
      vertex 0.459999 24.96 30
      vertex 0 25.42 30
      vertex 0.459999 24.46 30
    endloop
  endfacet
  facet normal -0 0 1
    outer loop
      vertex 0 25.42 30
      vertex 0.459999 24.96 30
      vertex 100 25.42 30
    endloop
  endfacet
  facet normal 0 0 1
    outer loop
      vertex 100.46 24.46 30
      vertex 100 24 30
      vertex 100.46 23.04 30
    endloop
  endfacet
  facet normal -0 0 1
    outer loop
      vertex 0.459999 24.46 30
      vertex 100 24 30
      vertex 100.46 24.46 30
    endloop
  endfacet
  facet normal 0 0 1
    outer loop
      vertex 0.459999 24.46 30
      vertex 0 24 30
      vertex 100 24 30
    endloop
  endfacet
  facet normal 0 0 1
    outer loop
      vertex 0 24 30
      vertex 0.459999 24.46 30
      vertex 0 25.42 30
    endloop
  endfacet
  facet normal -0 0 1
    outer loop
      vertex 100 23.5 30
      vertex 100.46 23.04 30
      vertex 100 24 30
    endloop
  endfacet
  facet normal 0 0 1
    outer loop
      vertex 100 23.5 30
      vertex 0.459999 23.04 30
      vertex 100.46 23.04 30
    endloop
  endfacet
  facet normal 0 0 1
    outer loop
      vertex 0.459999 23.04 30
      vertex 0 23.5 30
      vertex 0.459999 22.54 30
    endloop
  endfacet
  facet normal -0 0 1
    outer loop
      vertex 0 23.5 30
      vertex 0.459999 23.04 30
      vertex 100 23.5 30
    endloop
  endfacet
  facet normal 0 0 1
    outer loop
      vertex 100.46 22.54 30
      vertex 100 22.08 30
      vertex 100.46 21.12 30
    endloop
  endfacet
  facet normal -0 0 1
    outer loop
      vertex 0.459999 22.54 30
      vertex 100 22.08 30
      vertex 100.46 22.54 30
    endloop
  endfacet
  facet normal 0 0 1
    outer loop
      vertex 0.459999 22.54 30
      vertex 0 22.08 30
      vertex 100 22.08 30
    endloop
  endfacet
  facet normal 0 0 1
    outer loop
      vertex 0 22.08 30
      vertex 0.459999 22.54 30
      vertex 0 23.5 30
    endloop
  endfacet
  facet normal -0 0 1
    outer loop
      vertex 100 21.58 30
      vertex 100.46 21.12 30
      vertex 100 22.08 30
    endloop
  endfacet
  facet normal 0 0 1
    outer loop
      vertex 100 21.58 30
      vertex 0.459999 21.12 30
      vertex 100.46 21.12 30
    endloop
  endfacet
  facet normal 0 0 1
    outer loop
      vertex 0.459999 21.12 30
      vertex 0 21.58 30
      vertex 0.459999 20.62 30
    endloop
  endfacet
  facet normal -0 0 1
    outer loop
      vertex 0 21.58 30
      vertex 0.459999 21.12 30
      vertex 100 21.58 30
    endloop
  endfacet
  facet normal 0 0 1
    outer loop
      vertex 100.46 20.62 30
      vertex 100 20.16 30
      vertex 100.46 19.2 30
    endloop
  endfacet
  facet normal -0 0 1
    outer loop
      vertex 0.459999 20.62 30
      vertex 100 20.16 30
      vertex 100.46 20.62 30
    endloop
  endfacet
  facet normal 0 0 1
    outer loop
      vertex 0.459999 20.62 30
      vertex 0 20.16 30
      vertex 100 20.16 30
    endloop
  endfacet
  facet normal 0 0 1
    outer loop
      vertex 0 20.16 30
      vertex 0.459999 20.62 30
      vertex 0 21.58 30
    endloop
  endfacet
  facet normal -0 0 1
    outer loop
      vertex 100 19.66 30
      vertex 100.46 19.2 30
      vertex 100 20.16 30
    endloop
  endfacet
  facet normal 0 0 1
    outer loop
      vertex 100 19.66 30
      vertex 0.459999 19.2 30
      vertex 100.46 19.2 30
    endloop
  endfacet
  facet normal 0 0 1
    outer loop
      vertex 0.459999 19.2 30
      vertex 0 19.66 30
      vertex 0.459999 18.7 30
    endloop
  endfacet
  facet normal -0 0 1
    outer loop
      vertex 0 19.66 30
      vertex 0.459999 19.2 30
      vertex 100 19.66 30
    endloop
  endfacet
  facet normal 0 0 1
    outer loop
      vertex 100.46 18.7 30
      vertex 100 18.24 30
      vertex 100.46 17.28 30
    endloop
  endfacet
  facet normal -0 0 1
    outer loop
      vertex 0.459999 18.7 30
      vertex 100 18.24 30
      vertex 100.46 18.7 30
    endloop
  endfacet
  facet normal 0 0 1
    outer loop
      vertex 0.459999 18.7 30
      vertex 0 18.24 30
      vertex 100 18.24 30
    endloop
  endfacet
  facet normal 0 0 1
    outer loop
      vertex 0 18.24 30
      vertex 0.459999 18.7 30
      vertex 0 19.66 30
    endloop
  endfacet
  facet normal -0 0 1
    outer loop
      vertex 100 17.74 30
      vertex 100.46 17.28 30
      vertex 100 18.24 30
    endloop
  endfacet
  facet normal 0 0 1
    outer loop
      vertex 100 17.74 30
      vertex 0.459999 17.28 30
      vertex 100.46 17.28 30
    endloop
  endfacet
  facet normal 0 0 1
    outer loop
      vertex 0.459999 17.28 30
      vertex 0 17.74 30
      vertex 0.459999 16.78 30
    endloop
  endfacet
  facet normal -0 0 1
    outer loop
      vertex 0 17.74 30
      vertex 0.459999 17.28 30
      vertex 100 17.74 30
    endloop
  endfacet
  facet normal 0 0 1
    outer loop
      vertex 100.46 16.78 30
      vertex 100 16.32 30
      vertex 100.46 15.36 30
    endloop
  endfacet
  facet normal -0 0 1
    outer loop
      vertex 0.459999 16.78 30
      vertex 100 16.32 30
      vertex 100.46 16.78 30
    endloop
  endfacet
  facet normal 0 0 1
    outer loop
      vertex 0.459999 16.78 30
      vertex 0 16.32 30
      vertex 100 16.32 30
    endloop
  endfacet
  facet normal 0 0 1
    outer loop
      vertex 0 16.32 30
      vertex 0.459999 16.78 30
      vertex 0 17.74 30
    endloop
  endfacet
  facet normal -0 0 1
    outer loop
      vertex 100 15.82 30
      vertex 100.46 15.36 30
      vertex 100 16.32 30
    endloop
  endfacet
  facet normal 0 0 1
    outer loop
      vertex 100 15.82 30
      vertex 0.459999 15.36 30
      vertex 100.46 15.36 30
    endloop
  endfacet
  facet normal 0 0 1
    outer loop
      vertex 0.459999 15.36 30
      vertex 0 15.82 30
      vertex 0.459999 14.86 30
    endloop
  endfacet
  facet normal -0 0 1
    outer loop
      vertex 0 15.82 30
      vertex 0.459999 15.36 30
      vertex 100 15.82 30
    endloop
  endfacet
  facet normal 0 0 1
    outer loop
      vertex 100.46 14.86 30
      vertex 100 14.4 30
      vertex 100.46 13.44 30
    endloop
  endfacet
  facet normal -0 0 1
    outer loop
      vertex 0.459999 14.86 30
      vertex 100 14.4 30
      vertex 100.46 14.86 30
    endloop
  endfacet
  facet normal 0 0 1
    outer loop
      vertex 0.459999 14.86 30
      vertex 0 14.4 30
      vertex 100 14.4 30
    endloop
  endfacet
  facet normal 0 0 1
    outer loop
      vertex 0 14.4 30
      vertex 0.459999 14.86 30
      vertex 0 15.82 30
    endloop
  endfacet
  facet normal -0 0 1
    outer loop
      vertex 100 13.9 30
      vertex 100.46 13.44 30
      vertex 100 14.4 30
    endloop
  endfacet
  facet normal 0 0 1
    outer loop
      vertex 100 13.9 30
      vertex 0.459999 13.44 30
      vertex 100.46 13.44 30
    endloop
  endfacet
  facet normal 0 0 1
    outer loop
      vertex 0.459999 13.44 30
      vertex 0 13.9 30
      vertex 0.459999 12.94 30
    endloop
  endfacet
  facet normal -0 0 1
    outer loop
      vertex 0 13.9 30
      vertex 0.459999 13.44 30
      vertex 100 13.9 30
    endloop
  endfacet
  facet normal 0 0 1
    outer loop
      vertex 100.46 12.94 30
      vertex 100 12.48 30
      vertex 100.46 11.52 30
    endloop
  endfacet
  facet normal -0 0 1
    outer loop
      vertex 0.459999 12.94 30
      vertex 100 12.48 30
      vertex 100.46 12.94 30
    endloop
  endfacet
  facet normal 0 0 1
    outer loop
      vertex 0.459999 12.94 30
      vertex 0 12.48 30
      vertex 100 12.48 30
    endloop
  endfacet
  facet normal 0 0 1
    outer loop
      vertex 0 12.48 30
      vertex 0.459999 12.94 30
      vertex 0 13.9 30
    endloop
  endfacet
  facet normal -0 0 1
    outer loop
      vertex 100 11.98 30
      vertex 100.46 11.52 30
      vertex 100 12.48 30
    endloop
  endfacet
  facet normal 0 0 1
    outer loop
      vertex 100 11.98 30
      vertex 0.459999 11.52 30
      vertex 100.46 11.52 30
    endloop
  endfacet
  facet normal 0 0 1
    outer loop
      vertex 0.459999 11.52 30
      vertex 0 11.98 30
      vertex 0.459999 11.02 30
    endloop
  endfacet
  facet normal -0 0 1
    outer loop
      vertex 0 11.98 30
      vertex 0.459999 11.52 30
      vertex 100 11.98 30
    endloop
  endfacet
  facet normal 0 0 1
    outer loop
      vertex 100.46 11.02 30
      vertex 100 10.56 30
      vertex 100.46 9.6 30
    endloop
  endfacet
  facet normal -0 0 1
    outer loop
      vertex 0.459999 11.02 30
      vertex 100 10.56 30
      vertex 100.46 11.02 30
    endloop
  endfacet
  facet normal 0 0 1
    outer loop
      vertex 0.459999 11.02 30
      vertex 0 10.56 30
      vertex 100 10.56 30
    endloop
  endfacet
  facet normal 0 0 1
    outer loop
      vertex 0 10.56 30
      vertex 0.459999 11.02 30
      vertex 0 11.98 30
    endloop
  endfacet
  facet normal -0 0 1
    outer loop
      vertex 100 10.06 30
      vertex 100.46 9.6 30
      vertex 100 10.56 30
    endloop
  endfacet
  facet normal 0 0 1
    outer loop
      vertex 100 10.06 30
      vertex 0.459999 9.6 30
      vertex 100.46 9.6 30
    endloop
  endfacet
  facet normal 0 0 1
    outer loop
      vertex 0.459999 9.6 30
      vertex 0 10.06 30
      vertex 0.459999 9.1 30
    endloop
  endfacet
  facet normal -0 0 1
    outer loop
      vertex 0 10.06 30
      vertex 0.459999 9.6 30
      vertex 100 10.06 30
    endloop
  endfacet
  facet normal 0 0 1
    outer loop
      vertex 100.46 9.1 30
      vertex 100 8.64 30
      vertex 100.46 7.68 30
    endloop
  endfacet
  facet normal -0 0 1
    outer loop
      vertex 0.459999 9.1 30
      vertex 100 8.64 30
      vertex 100.46 9.1 30
    endloop
  endfacet
  facet normal 0 0 1
    outer loop
      vertex 0.459999 9.1 30
      vertex 0 8.64 30
      vertex 100 8.64 30
    endloop
  endfacet
  facet normal 0 0 1
    outer loop
      vertex 0 8.64 30
      vertex 0.459999 9.1 30
      vertex 0 10.06 30
    endloop
  endfacet
  facet normal -0 0 1
    outer loop
      vertex 100 8.14 30
      vertex 100.46 7.68 30
      vertex 100 8.64 30
    endloop
  endfacet
  facet normal 0 0 1
    outer loop
      vertex 100 8.14 30
      vertex 0.459999 7.68 30
      vertex 100.46 7.68 30
    endloop
  endfacet
  facet normal 0 0 1
    outer loop
      vertex 0.459999 7.68 30
      vertex 0 8.14 30
      vertex 0.459999 7.18 30
    endloop
  endfacet
  facet normal -0 0 1
    outer loop
      vertex 0 8.14 30
      vertex 0.459999 7.68 30
      vertex 100 8.14 30
    endloop
  endfacet
  facet normal 0 0 1
    outer loop
      vertex 100.46 7.18 30
      vertex 100 6.72 30
      vertex 100.46 5.76 30
    endloop
  endfacet
  facet normal -0 0 1
    outer loop
      vertex 0.459999 7.18 30
      vertex 100 6.72 30
      vertex 100.46 7.18 30
    endloop
  endfacet
  facet normal 0 0 1
    outer loop
      vertex 0.459999 7.18 30
      vertex 0 6.72 30
      vertex 100 6.72 30
    endloop
  endfacet
  facet normal 0 0 1
    outer loop
      vertex 0 6.72 30
      vertex 0.459999 7.18 30
      vertex 0 8.14 30
    endloop
  endfacet
  facet normal -0 0 1
    outer loop
      vertex 100 6.22 30
      vertex 100.46 5.76 30
      vertex 100 6.72 30
    endloop
  endfacet
  facet normal 0 0 1
    outer loop
      vertex 100 6.22 30
      vertex 0.459999 5.76 30
      vertex 100.46 5.76 30
    endloop
  endfacet
  facet normal 0 0 1
    outer loop
      vertex 0.459999 5.76 30
      vertex 0 6.22 30
      vertex 0.459999 5.26 30
    endloop
  endfacet
  facet normal -0 0 1
    outer loop
      vertex 0 6.22 30
      vertex 0.459999 5.76 30
      vertex 100 6.22 30
    endloop
  endfacet
  facet normal 0 0 1
    outer loop
      vertex 100.46 5.26 30
      vertex 100 4.8 30
      vertex 100.46 3.84 30
    endloop
  endfacet
  facet normal -0 0 1
    outer loop
      vertex 0.459999 5.26 30
      vertex 100 4.8 30
      vertex 100.46 5.26 30
    endloop
  endfacet
  facet normal 0 0 1
    outer loop
      vertex 0.459999 5.26 30
      vertex 0 4.8 30
      vertex 100 4.8 30
    endloop
  endfacet
  facet normal 0 0 1
    outer loop
      vertex 0 4.8 30
      vertex 0.459999 5.26 30
      vertex 0 6.22 30
    endloop
  endfacet
  facet normal -0 0 1
    outer loop
      vertex 100 4.3 30
      vertex 100.46 3.84 30
      vertex 100 4.8 30
    endloop
  endfacet
  facet normal 0 0 1
    outer loop
      vertex 100 4.3 30
      vertex 0.459999 3.84 30
      vertex 100.46 3.84 30
    endloop
  endfacet
  facet normal 0 0 1
    outer loop
      vertex 0.459999 3.84 30
      vertex 0 4.3 30
      vertex 0.459999 3.34 30
    endloop
  endfacet
  facet normal -0 0 1
    outer loop
      vertex 0 4.3 30
      vertex 0.459999 3.84 30
      vertex 100 4.3 30
    endloop
  endfacet
  facet normal 0 0 1
    outer loop
      vertex 100.46 3.34 30
      vertex 100 2.88 30
      vertex 100.46 1.92 30
    endloop
  endfacet
  facet normal -0 0 1
    outer loop
      vertex 0.459999 3.34 30
      vertex 100 2.88 30
      vertex 100.46 3.34 30
    endloop
  endfacet
  facet normal 0 0 1
    outer loop
      vertex 0.459999 3.34 30
      vertex 0 2.88 30
      vertex 100 2.88 30
    endloop
  endfacet
  facet normal 0 0 1
    outer loop
      vertex 0 2.88 30
      vertex 0.459999 3.34 30
      vertex 0 4.3 30
    endloop
  endfacet
  facet normal -0 0 1
    outer loop
      vertex 100 2.38 30
      vertex 100.46 1.92 30
      vertex 100 2.88 30
    endloop
  endfacet
  facet normal 0 0 1
    outer loop
      vertex 100 2.38 30
      vertex 0.459999 1.92 30
      vertex 100.46 1.92 30
    endloop
  endfacet
  facet normal 0 0 1
    outer loop
      vertex 0.459999 1.92 30
      vertex 0 2.38 30
      vertex 0.459999 1.42 30
    endloop
  endfacet
  facet normal -0 0 1
    outer loop
      vertex 0 2.38 30
      vertex 0.459999 1.92 30
      vertex 100 2.38 30
    endloop
  endfacet
  facet normal 0 0 1
    outer loop
      vertex 100.46 1.42 30
      vertex 100 0.959999 30
      vertex 100.46 0 30
    endloop
  endfacet
  facet normal -0 0 1
    outer loop
      vertex 0.459999 1.42 30
      vertex 100 0.959999 30
      vertex 100.46 1.42 30
    endloop
  endfacet
  facet normal 0 0 1
    outer loop
      vertex 0.459999 1.42 30
      vertex 0 0.959999 30
      vertex 100 0.959999 30
    endloop
  endfacet
  facet normal 0 0 1
    outer loop
      vertex 0 0.959999 30
      vertex 0.459999 1.42 30
      vertex 0 2.38 30
    endloop
  endfacet
  facet normal -0 0 1
    outer loop
      vertex 100 0.459999 30
      vertex 100.46 0 30
      vertex 100 0.959999 30
    endloop
  endfacet
  facet normal 0 0 1
    outer loop
      vertex 0 0 30
      vertex 100 0.459999 30
      vertex 0 0.459999 30
    endloop
  endfacet
  facet normal 0 0 1
    outer loop
      vertex 100 0.459999 30
      vertex 0 0 30
      vertex 100.46 0 30
    endloop
  endfacet
  facet normal 0 0 -1
    outer loop
      vertex 100.46 0 0
      vertex 100 0.459999 0
      vertex 100.46 1.42 0
    endloop
  endfacet
  facet normal 0 0 -1
    outer loop
      vertex 0 0 0
      vertex 100 0.459999 0
      vertex 100.46 0 0
    endloop
  endfacet
  facet normal -0 0 -1
    outer loop
      vertex 100 0.459999 0
      vertex 0 0 0
      vertex 0 0.459999 0
    endloop
  endfacet
  facet normal 0 0 -1
    outer loop
      vertex 100 0.959999 0
      vertex 100.46 1.42 0
      vertex 100 0.459999 0
    endloop
  endfacet
  facet normal 0 0 -1
    outer loop
      vertex 100 0.959999 0
      vertex 0.459999 1.42 0
      vertex 100.46 1.42 0
    endloop
  endfacet
  facet normal -0 0 -1
    outer loop
      vertex 0.459999 1.42 0
      vertex 0 0.959999 0
      vertex 0.459999 1.92 0
    endloop
  endfacet
  facet normal 0 0 -1
    outer loop
      vertex 0 0.959999 0
      vertex 0.459999 1.42 0
      vertex 100 0.959999 0
    endloop
  endfacet
  facet normal 0 0 -1
    outer loop
      vertex 100.46 1.92 0
      vertex 100 2.38 0
      vertex 100.46 3.34 0
    endloop
  endfacet
  facet normal 0 0 -1
    outer loop
      vertex 0.459999 1.92 0
      vertex 100 2.38 0
      vertex 100.46 1.92 0
    endloop
  endfacet
  facet normal 0 0 -1
    outer loop
      vertex 0.459999 1.92 0
      vertex 0 2.38 0
      vertex 100 2.38 0
    endloop
  endfacet
  facet normal 0 0 -1
    outer loop
      vertex 0 2.38 0
      vertex 0.459999 1.92 0
      vertex 0 0.959999 0
    endloop
  endfacet
  facet normal 0 0 -1
    outer loop
      vertex 100 2.88 0
      vertex 100.46 3.34 0
      vertex 100 2.38 0
    endloop
  endfacet
  facet normal 0 0 -1
    outer loop
      vertex 100 2.88 0
      vertex 0.459999 3.34 0
      vertex 100.46 3.34 0
    endloop
  endfacet
  facet normal -0 0 -1
    outer loop
      vertex 0.459999 3.34 0
      vertex 0 2.88 0
      vertex 0.459999 3.84 0
    endloop
  endfacet
  facet normal 0 0 -1
    outer loop
      vertex 0 2.88 0
      vertex 0.459999 3.34 0
      vertex 100 2.88 0
    endloop
  endfacet
  facet normal 0 0 -1
    outer loop
      vertex 100.46 3.84 0
      vertex 100 4.3 0
      vertex 100.46 5.26 0
    endloop
  endfacet
  facet normal 0 0 -1
    outer loop
      vertex 0.459999 3.84 0
      vertex 100 4.3 0
      vertex 100.46 3.84 0
    endloop
  endfacet
  facet normal 0 0 -1
    outer loop
      vertex 0.459999 3.84 0
      vertex 0 4.3 0
      vertex 100 4.3 0
    endloop
  endfacet
  facet normal 0 0 -1
    outer loop
      vertex 0 4.3 0
      vertex 0.459999 3.84 0
      vertex 0 2.88 0
    endloop
  endfacet
  facet normal 0 0 -1
    outer loop
      vertex 100 4.8 0
      vertex 100.46 5.26 0
      vertex 100 4.3 0
    endloop
  endfacet
  facet normal 0 0 -1
    outer loop
      vertex 100 4.8 0
      vertex 0.459999 5.26 0
      vertex 100.46 5.26 0
    endloop
  endfacet
  facet normal -0 0 -1
    outer loop
      vertex 0.459999 5.26 0
      vertex 0 4.8 0
      vertex 0.459999 5.76 0
    endloop
  endfacet
  facet normal 0 0 -1
    outer loop
      vertex 0 4.8 0
      vertex 0.459999 5.26 0
      vertex 100 4.8 0
    endloop
  endfacet
  facet normal 0 0 -1
    outer loop
      vertex 100.46 5.76 0
      vertex 100 6.22 0
      vertex 100.46 7.18 0
    endloop
  endfacet
  facet normal 0 0 -1
    outer loop
      vertex 0.459999 5.76 0
      vertex 100 6.22 0
      vertex 100.46 5.76 0
    endloop
  endfacet
  facet normal 0 0 -1
    outer loop
      vertex 0.459999 5.76 0
      vertex 0 6.22 0
      vertex 100 6.22 0
    endloop
  endfacet
  facet normal 0 0 -1
    outer loop
      vertex 0 6.22 0
      vertex 0.459999 5.76 0
      vertex 0 4.8 0
    endloop
  endfacet
  facet normal 0 0 -1
    outer loop
      vertex 100 6.72 0
      vertex 100.46 7.18 0
      vertex 100 6.22 0
    endloop
  endfacet
  facet normal 0 0 -1
    outer loop
      vertex 100 6.72 0
      vertex 0.459999 7.18 0
      vertex 100.46 7.18 0
    endloop
  endfacet
  facet normal -0 0 -1
    outer loop
      vertex 0.459999 7.18 0
      vertex 0 6.72 0
      vertex 0.459999 7.68 0
    endloop
  endfacet
  facet normal 0 0 -1
    outer loop
      vertex 0 6.72 0
      vertex 0.459999 7.18 0
      vertex 100 6.72 0
    endloop
  endfacet
  facet normal 0 0 -1
    outer loop
      vertex 100.46 7.68 0
      vertex 100 8.14 0
      vertex 100.46 9.1 0
    endloop
  endfacet
  facet normal 0 0 -1
    outer loop
      vertex 0.459999 7.68 0
      vertex 100 8.14 0
      vertex 100.46 7.68 0
    endloop
  endfacet
  facet normal 0 0 -1
    outer loop
      vertex 0.459999 7.68 0
      vertex 0 8.14 0
      vertex 100 8.14 0
    endloop
  endfacet
  facet normal 0 0 -1
    outer loop
      vertex 0 8.14 0
      vertex 0.459999 7.68 0
      vertex 0 6.72 0
    endloop
  endfacet
  facet normal 0 0 -1
    outer loop
      vertex 100 8.64 0
      vertex 100.46 9.1 0
      vertex 100 8.14 0
    endloop
  endfacet
  facet normal 0 0 -1
    outer loop
      vertex 100 8.64 0
      vertex 0.459999 9.1 0
      vertex 100.46 9.1 0
    endloop
  endfacet
  facet normal -0 0 -1
    outer loop
      vertex 0.459999 9.1 0
      vertex 0 8.64 0
      vertex 0.459999 9.6 0
    endloop
  endfacet
  facet normal 0 0 -1
    outer loop
      vertex 0 8.64 0
      vertex 0.459999 9.1 0
      vertex 100 8.64 0
    endloop
  endfacet
  facet normal 0 0 -1
    outer loop
      vertex 100.46 9.6 0
      vertex 100 10.06 0
      vertex 100.46 11.02 0
    endloop
  endfacet
  facet normal 0 0 -1
    outer loop
      vertex 0.459999 9.6 0
      vertex 100 10.06 0
      vertex 100.46 9.6 0
    endloop
  endfacet
  facet normal 0 0 -1
    outer loop
      vertex 0.459999 9.6 0
      vertex 0 10.06 0
      vertex 100 10.06 0
    endloop
  endfacet
  facet normal 0 0 -1
    outer loop
      vertex 0 10.06 0
      vertex 0.459999 9.6 0
      vertex 0 8.64 0
    endloop
  endfacet
  facet normal 0 0 -1
    outer loop
      vertex 100 10.56 0
      vertex 100.46 11.02 0
      vertex 100 10.06 0
    endloop
  endfacet
  facet normal 0 0 -1
    outer loop
      vertex 100 10.56 0
      vertex 0.459999 11.02 0
      vertex 100.46 11.02 0
    endloop
  endfacet
  facet normal -0 0 -1
    outer loop
      vertex 0.459999 11.02 0
      vertex 0 10.56 0
      vertex 0.459999 11.52 0
    endloop
  endfacet
  facet normal 0 0 -1
    outer loop
      vertex 0 10.56 0
      vertex 0.459999 11.02 0
      vertex 100 10.56 0
    endloop
  endfacet
  facet normal 0 0 -1
    outer loop
      vertex 100.46 11.52 0
      vertex 100 11.98 0
      vertex 100.46 12.94 0
    endloop
  endfacet
  facet normal 0 0 -1
    outer loop
      vertex 0.459999 11.52 0
      vertex 100 11.98 0
      vertex 100.46 11.52 0
    endloop
  endfacet
  facet normal 0 0 -1
    outer loop
      vertex 0.459999 11.52 0
      vertex 0 11.98 0
      vertex 100 11.98 0
    endloop
  endfacet
  facet normal 0 0 -1
    outer loop
      vertex 0 11.98 0
      vertex 0.459999 11.52 0
      vertex 0 10.56 0
    endloop
  endfacet
  facet normal 0 0 -1
    outer loop
      vertex 100 12.48 0
      vertex 100.46 12.94 0
      vertex 100 11.98 0
    endloop
  endfacet
  facet normal 0 0 -1
    outer loop
      vertex 100 12.48 0
      vertex 0.459999 12.94 0
      vertex 100.46 12.94 0
    endloop
  endfacet
  facet normal -0 0 -1
    outer loop
      vertex 0.459999 12.94 0
      vertex 0 12.48 0
      vertex 0.459999 13.44 0
    endloop
  endfacet
  facet normal 0 0 -1
    outer loop
      vertex 0 12.48 0
      vertex 0.459999 12.94 0
      vertex 100 12.48 0
    endloop
  endfacet
  facet normal 0 0 -1
    outer loop
      vertex 100.46 13.44 0
      vertex 100 13.9 0
      vertex 100.46 14.86 0
    endloop
  endfacet
  facet normal 0 0 -1
    outer loop
      vertex 0.459999 13.44 0
      vertex 100 13.9 0
      vertex 100.46 13.44 0
    endloop
  endfacet
  facet normal 0 0 -1
    outer loop
      vertex 0.459999 13.44 0
      vertex 0 13.9 0
      vertex 100 13.9 0
    endloop
  endfacet
  facet normal 0 0 -1
    outer loop
      vertex 0 13.9 0
      vertex 0.459999 13.44 0
      vertex 0 12.48 0
    endloop
  endfacet
  facet normal 0 0 -1
    outer loop
      vertex 100 14.4 0
      vertex 100.46 14.86 0
      vertex 100 13.9 0
    endloop
  endfacet
  facet normal 0 0 -1
    outer loop
      vertex 100 14.4 0
      vertex 0.459999 14.86 0
      vertex 100.46 14.86 0
    endloop
  endfacet
  facet normal -0 0 -1
    outer loop
      vertex 0.459999 14.86 0
      vertex 0 14.4 0
      vertex 0.459999 15.36 0
    endloop
  endfacet
  facet normal 0 0 -1
    outer loop
      vertex 0 14.4 0
      vertex 0.459999 14.86 0
      vertex 100 14.4 0
    endloop
  endfacet
  facet normal 0 0 -1
    outer loop
      vertex 100.46 15.36 0
      vertex 100 15.82 0
      vertex 100.46 16.78 0
    endloop
  endfacet
  facet normal 0 0 -1
    outer loop
      vertex 0.459999 15.36 0
      vertex 100 15.82 0
      vertex 100.46 15.36 0
    endloop
  endfacet
  facet normal 0 0 -1
    outer loop
      vertex 0.459999 15.36 0
      vertex 0 15.82 0
      vertex 100 15.82 0
    endloop
  endfacet
  facet normal 0 0 -1
    outer loop
      vertex 0 15.82 0
      vertex 0.459999 15.36 0
      vertex 0 14.4 0
    endloop
  endfacet
  facet normal 0 0 -1
    outer loop
      vertex 100 16.32 0
      vertex 100.46 16.78 0
      vertex 100 15.82 0
    endloop
  endfacet
  facet normal 0 0 -1
    outer loop
      vertex 100 16.32 0
      vertex 0.459999 16.78 0
      vertex 100.46 16.78 0
    endloop
  endfacet
  facet normal -0 0 -1
    outer loop
      vertex 0.459999 16.78 0
      vertex 0 16.32 0
      vertex 0.459999 17.28 0
    endloop
  endfacet
  facet normal 0 0 -1
    outer loop
      vertex 0 16.32 0
      vertex 0.459999 16.78 0
      vertex 100 16.32 0
    endloop
  endfacet
  facet normal 0 0 -1
    outer loop
      vertex 100.46 17.28 0
      vertex 100 17.74 0
      vertex 100.46 18.7 0
    endloop
  endfacet
  facet normal 0 0 -1
    outer loop
      vertex 0.459999 17.28 0
      vertex 100 17.74 0
      vertex 100.46 17.28 0
    endloop
  endfacet
  facet normal 0 0 -1
    outer loop
      vertex 0.459999 17.28 0
      vertex 0 17.74 0
      vertex 100 17.74 0
    endloop
  endfacet
  facet normal 0 0 -1
    outer loop
      vertex 0 17.74 0
      vertex 0.459999 17.28 0
      vertex 0 16.32 0
    endloop
  endfacet
  facet normal 0 0 -1
    outer loop
      vertex 100 18.24 0
      vertex 100.46 18.7 0
      vertex 100 17.74 0
    endloop
  endfacet
  facet normal 0 0 -1
    outer loop
      vertex 100 18.24 0
      vertex 0.459999 18.7 0
      vertex 100.46 18.7 0
    endloop
  endfacet
  facet normal -0 0 -1
    outer loop
      vertex 0.459999 18.7 0
      vertex 0 18.24 0
      vertex 0.459999 19.2 0
    endloop
  endfacet
  facet normal 0 0 -1
    outer loop
      vertex 0 18.24 0
      vertex 0.459999 18.7 0
      vertex 100 18.24 0
    endloop
  endfacet
  facet normal 0 0 -1
    outer loop
      vertex 100.46 19.2 0
      vertex 100 19.66 0
      vertex 100.46 20.62 0
    endloop
  endfacet
  facet normal 0 0 -1
    outer loop
      vertex 0.459999 19.2 0
      vertex 100 19.66 0
      vertex 100.46 19.2 0
    endloop
  endfacet
  facet normal 0 0 -1
    outer loop
      vertex 0.459999 19.2 0
      vertex 0 19.66 0
      vertex 100 19.66 0
    endloop
  endfacet
  facet normal 0 0 -1
    outer loop
      vertex 0 19.66 0
      vertex 0.459999 19.2 0
      vertex 0 18.24 0
    endloop
  endfacet
  facet normal 0 0 -1
    outer loop
      vertex 100 20.16 0
      vertex 100.46 20.62 0
      vertex 100 19.66 0
    endloop
  endfacet
  facet normal 0 0 -1
    outer loop
      vertex 100 20.16 0
      vertex 0.459999 20.62 0
      vertex 100.46 20.62 0
    endloop
  endfacet
  facet normal -0 0 -1
    outer loop
      vertex 0.459999 20.62 0
      vertex 0 20.16 0
      vertex 0.459999 21.12 0
    endloop
  endfacet
  facet normal 0 0 -1
    outer loop
      vertex 0 20.16 0
      vertex 0.459999 20.62 0
      vertex 100 20.16 0
    endloop
  endfacet
  facet normal 0 0 -1
    outer loop
      vertex 100.46 21.12 0
      vertex 100 21.58 0
      vertex 100.46 22.54 0
    endloop
  endfacet
  facet normal 0 0 -1
    outer loop
      vertex 0.459999 21.12 0
      vertex 100 21.58 0
      vertex 100.46 21.12 0
    endloop
  endfacet
  facet normal 0 0 -1
    outer loop
      vertex 0.459999 21.12 0
      vertex 0 21.58 0
      vertex 100 21.58 0
    endloop
  endfacet
  facet normal 0 0 -1
    outer loop
      vertex 0 21.58 0
      vertex 0.459999 21.12 0
      vertex 0 20.16 0
    endloop
  endfacet
  facet normal 0 0 -1
    outer loop
      vertex 100 22.08 0
      vertex 100.46 22.54 0
      vertex 100 21.58 0
    endloop
  endfacet
  facet normal 0 0 -1
    outer loop
      vertex 100 22.08 0
      vertex 0.459999 22.54 0
      vertex 100.46 22.54 0
    endloop
  endfacet
  facet normal -0 0 -1
    outer loop
      vertex 0.459999 22.54 0
      vertex 0 22.08 0
      vertex 0.459999 23.04 0
    endloop
  endfacet
  facet normal 0 0 -1
    outer loop
      vertex 0 22.08 0
      vertex 0.459999 22.54 0
      vertex 100 22.08 0
    endloop
  endfacet
  facet normal 0 0 -1
    outer loop
      vertex 100.46 23.04 0
      vertex 100 23.5 0
      vertex 100.46 24.46 0
    endloop
  endfacet
  facet normal 0 0 -1
    outer loop
      vertex 0.459999 23.04 0
      vertex 100 23.5 0
      vertex 100.46 23.04 0
    endloop
  endfacet
  facet normal 0 0 -1
    outer loop
      vertex 0.459999 23.04 0
      vertex 0 23.5 0
      vertex 100 23.5 0
    endloop
  endfacet
  facet normal 0 0 -1
    outer loop
      vertex 0 23.5 0
      vertex 0.459999 23.04 0
      vertex 0 22.08 0
    endloop
  endfacet
  facet normal 0 0 -1
    outer loop
      vertex 100 24 0
      vertex 100.46 24.46 0
      vertex 100 23.5 0
    endloop
  endfacet
  facet normal 0 0 -1
    outer loop
      vertex 100 24 0
      vertex 0.459999 24.46 0
      vertex 100.46 24.46 0
    endloop
  endfacet
  facet normal -0 0 -1
    outer loop
      vertex 0.459999 24.46 0
      vertex 0 24 0
      vertex 0.459999 24.96 0
    endloop
  endfacet
  facet normal 0 0 -1
    outer loop
      vertex 0 24 0
      vertex 0.459999 24.46 0
      vertex 100 24 0
    endloop
  endfacet
  facet normal 0 0 -1
    outer loop
      vertex 100.46 24.96 0
      vertex 100 25.42 0
      vertex 100.46 26.38 0
    endloop
  endfacet
  facet normal 0 0 -1
    outer loop
      vertex 0.459999 24.96 0
      vertex 100 25.42 0
      vertex 100.46 24.96 0
    endloop
  endfacet
  facet normal 0 0 -1
    outer loop
      vertex 0.459999 24.96 0
      vertex 0 25.42 0
      vertex 100 25.42 0
    endloop
  endfacet
  facet normal 0 0 -1
    outer loop
      vertex 0 25.42 0
      vertex 0.459999 24.96 0
      vertex 0 24 0
    endloop
  endfacet
  facet normal 0 0 -1
    outer loop
      vertex 100 25.92 0
      vertex 100.46 26.38 0
      vertex 100 25.42 0
    endloop
  endfacet
  facet normal 0 0 -1
    outer loop
      vertex 100 25.92 0
      vertex 0.459999 26.38 0
      vertex 100.46 26.38 0
    endloop
  endfacet
  facet normal -0 0 -1
    outer loop
      vertex 0.459999 26.38 0
      vertex 0 25.92 0
      vertex 0.459999 26.88 0
    endloop
  endfacet
  facet normal 0 0 -1
    outer loop
      vertex 0 25.92 0
      vertex 0.459999 26.38 0
      vertex 100 25.92 0
    endloop
  endfacet
  facet normal 0 0 -1
    outer loop
      vertex 100.46 26.88 0
      vertex 100 27.34 0
      vertex 100.46 28.3 0
    endloop
  endfacet
  facet normal 0 0 -1
    outer loop
      vertex 0.459999 26.88 0
      vertex 100 27.34 0
      vertex 100.46 26.88 0
    endloop
  endfacet
  facet normal 0 0 -1
    outer loop
      vertex 0.459999 26.88 0
      vertex 0 27.34 0
      vertex 100 27.34 0
    endloop
  endfacet
  facet normal 0 0 -1
    outer loop
      vertex 0 27.34 0
      vertex 0.459999 26.88 0
      vertex 0 25.92 0
    endloop
  endfacet
  facet normal 0 0 -1
    outer loop
      vertex 100 27.84 0
      vertex 100.46 28.3 0
      vertex 100 27.34 0
    endloop
  endfacet
  facet normal 0 0 -1
    outer loop
      vertex 0 28.3 0
      vertex 100 27.84 0
      vertex 0 27.84 0
    endloop
  endfacet
  facet normal 0 0 -1
    outer loop
      vertex 100 27.84 0
      vertex 0 28.3 0
      vertex 100.46 28.3 0
    endloop
  endfacet
  facet normal -1 0 0
    outer loop
      vertex 0 0.959999 0
      vertex 0 2.38 30
      vertex 0 2.38 0
    endloop
  endfacet
  facet normal -1 -0 0
    outer loop
      vertex 0 2.38 30
      vertex 0 0.959999 0
      vertex 0 0.959999 30
    endloop
  endfacet
  facet normal 0 1 -0
    outer loop
      vertex 100.46 1.42 0
      vertex 0.459999 1.42 30
      vertex 100.46 1.42 30
    endloop
  endfacet
  facet normal 0 1 0
    outer loop
      vertex 0.459999 1.42 30
      vertex 100.46 1.42 0
      vertex 0.459999 1.42 0
    endloop
  endfacet
  facet normal 0 -1 0
    outer loop
      vertex 0 0.959999 0
      vertex 100 0.959999 30
      vertex 0 0.959999 30
    endloop
  endfacet
  facet normal 0 -1 -0
    outer loop
      vertex 100 0.959999 30
      vertex 0 0.959999 0
      vertex 100 0.959999 0
    endloop
  endfacet
  facet normal 1 -0 0
    outer loop
      vertex 100.46 0 30
      vertex 100.46 1.42 0
      vertex 100.46 1.42 30
    endloop
  endfacet
  facet normal 1 0 0
    outer loop
      vertex 100.46 1.42 0
      vertex 100.46 0 30
      vertex 100.46 0 0
    endloop
  endfacet
  facet normal 0 -1 0
    outer loop
      vertex 0 0 0
      vertex 100.46 0 30
      vertex 0 0 30
    endloop
  endfacet
  facet normal 0 -1 -0
    outer loop
      vertex 100.46 0 30
      vertex 0 0 0
      vertex 100.46 0 0
    endloop
  endfacet
  facet normal -1 0 0
    outer loop
      vertex 0 0 0
      vertex 0 0.459999 30
      vertex 0 0.459999 0
    endloop
  endfacet
  facet normal -1 -0 0
    outer loop
      vertex 0 0.459999 30
      vertex 0 0 0
      vertex 0 0 30
    endloop
  endfacet
  facet normal 0 1 -0
    outer loop
      vertex 100 0.459999 0
      vertex 0 0.459999 30
      vertex 100 0.459999 30
    endloop
  endfacet
  facet normal 0 1 0
    outer loop
      vertex 0 0.459999 30
      vertex 100 0.459999 0
      vertex 0 0.459999 0
    endloop
  endfacet
  facet normal 1 -0 0
    outer loop
      vertex 0.459999 1.42 30
      vertex 0.459999 1.92 0
      vertex 0.459999 1.92 30
    endloop
  endfacet
  facet normal 1 0 0
    outer loop
      vertex 0.459999 1.92 0
      vertex 0.459999 1.42 30
      vertex 0.459999 1.42 0
    endloop
  endfacet
  facet normal 0 -1 0
    outer loop
      vertex 0.459999 1.92 0
      vertex 100.46 1.92 30
      vertex 0.459999 1.92 30
    endloop
  endfacet
  facet normal 0 -1 -0
    outer loop
      vertex 100.46 1.92 30
      vertex 0.459999 1.92 0
      vertex 100.46 1.92 0
    endloop
  endfacet
  facet normal -1 0 0
    outer loop
      vertex 100 2.38 0
      vertex 100 2.88 30
      vertex 100 2.88 0
    endloop
  endfacet
  facet normal -1 -0 0
    outer loop
      vertex 100 2.88 30
      vertex 100 2.38 0
      vertex 100 2.38 30
    endloop
  endfacet
  facet normal -1 0 0
    outer loop
      vertex 0 2.88 0
      vertex 0 4.3 30
      vertex 0 4.3 0
    endloop
  endfacet
  facet normal -1 -0 0
    outer loop
      vertex 0 4.3 30
      vertex 0 2.88 0
      vertex 0 2.88 30
    endloop
  endfacet
  facet normal 0 1 -0
    outer loop
      vertex 100.46 3.34 0
      vertex 0.459999 3.34 30
      vertex 100.46 3.34 30
    endloop
  endfacet
  facet normal 0 1 0
    outer loop
      vertex 0.459999 3.34 30
      vertex 100.46 3.34 0
      vertex 0.459999 3.34 0
    endloop
  endfacet
  facet normal 0 -1 0
    outer loop
      vertex 0 2.88 0
      vertex 100 2.88 30
      vertex 0 2.88 30
    endloop
  endfacet
  facet normal 0 -1 -0
    outer loop
      vertex 100 2.88 30
      vertex 0 2.88 0
      vertex 100 2.88 0
    endloop
  endfacet
  facet normal 1 -0 0
    outer loop
      vertex 100.46 1.92 30
      vertex 100.46 3.34 0
      vertex 100.46 3.34 30
    endloop
  endfacet
  facet normal 1 0 0
    outer loop
      vertex 100.46 3.34 0
      vertex 100.46 1.92 30
      vertex 100.46 1.92 0
    endloop
  endfacet
  facet normal 0 1 -0
    outer loop
      vertex 100 2.38 0
      vertex 0 2.38 30
      vertex 100 2.38 30
    endloop
  endfacet
  facet normal 0 1 0
    outer loop
      vertex 0 2.38 30
      vertex 100 2.38 0
      vertex 0 2.38 0
    endloop
  endfacet
  facet normal 1 -0 0
    outer loop
      vertex 0.459999 3.34 30
      vertex 0.459999 3.84 0
      vertex 0.459999 3.84 30
    endloop
  endfacet
  facet normal 1 0 0
    outer loop
      vertex 0.459999 3.84 0
      vertex 0.459999 3.34 30
      vertex 0.459999 3.34 0
    endloop
  endfacet
  facet normal 0 -1 0
    outer loop
      vertex 0.459999 3.84 0
      vertex 100.46 3.84 30
      vertex 0.459999 3.84 30
    endloop
  endfacet
  facet normal 0 -1 -0
    outer loop
      vertex 100.46 3.84 30
      vertex 0.459999 3.84 0
      vertex 100.46 3.84 0
    endloop
  endfacet
  facet normal -1 0 0
    outer loop
      vertex 100 4.3 0
      vertex 100 4.8 30
      vertex 100 4.8 0
    endloop
  endfacet
  facet normal -1 -0 0
    outer loop
      vertex 100 4.8 30
      vertex 100 4.3 0
      vertex 100 4.3 30
    endloop
  endfacet
  facet normal -1 0 0
    outer loop
      vertex 0 4.8 0
      vertex 0 6.22 30
      vertex 0 6.22 0
    endloop
  endfacet
  facet normal -1 -0 0
    outer loop
      vertex 0 6.22 30
      vertex 0 4.8 0
      vertex 0 4.8 30
    endloop
  endfacet
  facet normal 0 1 -0
    outer loop
      vertex 100.46 5.26 0
      vertex 0.459999 5.26 30
      vertex 100.46 5.26 30
    endloop
  endfacet
  facet normal 0 1 0
    outer loop
      vertex 0.459999 5.26 30
      vertex 100.46 5.26 0
      vertex 0.459999 5.26 0
    endloop
  endfacet
  facet normal 0 -1 0
    outer loop
      vertex 0 4.8 0
      vertex 100 4.8 30
      vertex 0 4.8 30
    endloop
  endfacet
  facet normal 0 -1 -0
    outer loop
      vertex 100 4.8 30
      vertex 0 4.8 0
      vertex 100 4.8 0
    endloop
  endfacet
  facet normal 1 -0 0
    outer loop
      vertex 100.46 3.84 30
      vertex 100.46 5.26 0
      vertex 100.46 5.26 30
    endloop
  endfacet
  facet normal 1 0 0
    outer loop
      vertex 100.46 5.26 0
      vertex 100.46 3.84 30
      vertex 100.46 3.84 0
    endloop
  endfacet
  facet normal 0 1 -0
    outer loop
      vertex 100 4.3 0
      vertex 0 4.3 30
      vertex 100 4.3 30
    endloop
  endfacet
  facet normal 0 1 0
    outer loop
      vertex 0 4.3 30
      vertex 100 4.3 0
      vertex 0 4.3 0
    endloop
  endfacet
  facet normal 1 -0 0
    outer loop
      vertex 0.459999 5.26 30
      vertex 0.459999 5.76 0
      vertex 0.459999 5.76 30
    endloop
  endfacet
  facet normal 1 0 0
    outer loop
      vertex 0.459999 5.76 0
      vertex 0.459999 5.26 30
      vertex 0.459999 5.26 0
    endloop
  endfacet
  facet normal 0 -1 0
    outer loop
      vertex 0.459999 5.76 0
      vertex 100.46 5.76 30
      vertex 0.459999 5.76 30
    endloop
  endfacet
  facet normal 0 -1 -0
    outer loop
      vertex 100.46 5.76 30
      vertex 0.459999 5.76 0
      vertex 100.46 5.76 0
    endloop
  endfacet
  facet normal -1 0 0
    outer loop
      vertex 100 6.22 0
      vertex 100 6.72 30
      vertex 100 6.72 0
    endloop
  endfacet
  facet normal -1 -0 0
    outer loop
      vertex 100 6.72 30
      vertex 100 6.22 0
      vertex 100 6.22 30
    endloop
  endfacet
  facet normal -1 0 0
    outer loop
      vertex 0 6.72 0
      vertex 0 8.14 30
      vertex 0 8.14 0
    endloop
  endfacet
  facet normal -1 -0 0
    outer loop
      vertex 0 8.14 30
      vertex 0 6.72 0
      vertex 0 6.72 30
    endloop
  endfacet
  facet normal 0 1 -0
    outer loop
      vertex 100.46 7.18 0
      vertex 0.459999 7.18 30
      vertex 100.46 7.18 30
    endloop
  endfacet
  facet normal 0 1 0
    outer loop
      vertex 0.459999 7.18 30
      vertex 100.46 7.18 0
      vertex 0.459999 7.18 0
    endloop
  endfacet
  facet normal 0 -1 0
    outer loop
      vertex 0 6.72 0
      vertex 100 6.72 30
      vertex 0 6.72 30
    endloop
  endfacet
  facet normal 0 -1 -0
    outer loop
      vertex 100 6.72 30
      vertex 0 6.72 0
      vertex 100 6.72 0
    endloop
  endfacet
  facet normal 1 -0 0
    outer loop
      vertex 100.46 5.76 30
      vertex 100.46 7.18 0
      vertex 100.46 7.18 30
    endloop
  endfacet
  facet normal 1 0 0
    outer loop
      vertex 100.46 7.18 0
      vertex 100.46 5.76 30
      vertex 100.46 5.76 0
    endloop
  endfacet
  facet normal 0 1 -0
    outer loop
      vertex 100 6.22 0
      vertex 0 6.22 30
      vertex 100 6.22 30
    endloop
  endfacet
  facet normal 0 1 0
    outer loop
      vertex 0 6.22 30
      vertex 100 6.22 0
      vertex 0 6.22 0
    endloop
  endfacet
  facet normal 1 -0 0
    outer loop
      vertex 0.459999 7.18 30
      vertex 0.459999 7.68 0
      vertex 0.459999 7.68 30
    endloop
  endfacet
  facet normal 1 0 0
    outer loop
      vertex 0.459999 7.68 0
      vertex 0.459999 7.18 30
      vertex 0.459999 7.18 0
    endloop
  endfacet
  facet normal 0 -1 0
    outer loop
      vertex 0.459999 7.68 0
      vertex 100.46 7.68 30
      vertex 0.459999 7.68 30
    endloop
  endfacet
  facet normal 0 -1 -0
    outer loop
      vertex 100.46 7.68 30
      vertex 0.459999 7.68 0
      vertex 100.46 7.68 0
    endloop
  endfacet
  facet normal -1 0 0
    outer loop
      vertex 100 8.14 0
      vertex 100 8.64 30
      vertex 100 8.64 0
    endloop
  endfacet
  facet normal -1 -0 0
    outer loop
      vertex 100 8.64 30
      vertex 100 8.14 0
      vertex 100 8.14 30
    endloop
  endfacet
  facet normal -1 0 0
    outer loop
      vertex 0 8.64 0
      vertex 0 10.06 30
      vertex 0 10.06 0
    endloop
  endfacet
  facet normal -1 -0 0
    outer loop
      vertex 0 10.06 30
      vertex 0 8.64 0
      vertex 0 8.64 30
    endloop
  endfacet
  facet normal 0 1 -0
    outer loop
      vertex 100.46 9.1 0
      vertex 0.459999 9.1 30
      vertex 100.46 9.1 30
    endloop
  endfacet
  facet normal 0 1 0
    outer loop
      vertex 0.459999 9.1 30
      vertex 100.46 9.1 0
      vertex 0.459999 9.1 0
    endloop
  endfacet
  facet normal 0 -1 0
    outer loop
      vertex 0 8.64 0
      vertex 100 8.64 30
      vertex 0 8.64 30
    endloop
  endfacet
  facet normal 0 -1 -0
    outer loop
      vertex 100 8.64 30
      vertex 0 8.64 0
      vertex 100 8.64 0
    endloop
  endfacet
  facet normal 1 -0 0
    outer loop
      vertex 100.46 7.68 30
      vertex 100.46 9.1 0
      vertex 100.46 9.1 30
    endloop
  endfacet
  facet normal 1 0 0
    outer loop
      vertex 100.46 9.1 0
      vertex 100.46 7.68 30
      vertex 100.46 7.68 0
    endloop
  endfacet
  facet normal 0 1 -0
    outer loop
      vertex 100 8.14 0
      vertex 0 8.14 30
      vertex 100 8.14 30
    endloop
  endfacet
  facet normal 0 1 0
    outer loop
      vertex 0 8.14 30
      vertex 100 8.14 0
      vertex 0 8.14 0
    endloop
  endfacet
  facet normal 1 -0 0
    outer loop
      vertex 0.459999 9.1 30
      vertex 0.459999 9.6 0
      vertex 0.459999 9.6 30
    endloop
  endfacet
  facet normal 1 0 0
    outer loop
      vertex 0.459999 9.6 0
      vertex 0.459999 9.1 30
      vertex 0.459999 9.1 0
    endloop
  endfacet
  facet normal 0 -1 0
    outer loop
      vertex 0.459999 9.6 0
      vertex 100.46 9.6 30
      vertex 0.459999 9.6 30
    endloop
  endfacet
  facet normal 0 -1 -0
    outer loop
      vertex 100.46 9.6 30
      vertex 0.459999 9.6 0
      vertex 100.46 9.6 0
    endloop
  endfacet
  facet normal -1 0 0
    outer loop
      vertex 100 10.06 0
      vertex 100 10.56 30
      vertex 100 10.56 0
    endloop
  endfacet
  facet normal -1 -0 0
    outer loop
      vertex 100 10.56 30
      vertex 100 10.06 0
      vertex 100 10.06 30
    endloop
  endfacet
  facet normal -1 0 0
    outer loop
      vertex 0 10.56 0
      vertex 0 11.98 30
      vertex 0 11.98 0
    endloop
  endfacet
  facet normal -1 -0 0
    outer loop
      vertex 0 11.98 30
      vertex 0 10.56 0
      vertex 0 10.56 30
    endloop
  endfacet
  facet normal 0 1 -0
    outer loop
      vertex 100.46 11.02 0
      vertex 0.459999 11.02 30
      vertex 100.46 11.02 30
    endloop
  endfacet
  facet normal 0 1 0
    outer loop
      vertex 0.459999 11.02 30
      vertex 100.46 11.02 0
      vertex 0.459999 11.02 0
    endloop
  endfacet
  facet normal 0 -1 0
    outer loop
      vertex 0 10.56 0
      vertex 100 10.56 30
      vertex 0 10.56 30
    endloop
  endfacet
  facet normal 0 -1 -0
    outer loop
      vertex 100 10.56 30
      vertex 0 10.56 0
      vertex 100 10.56 0
    endloop
  endfacet
  facet normal 1 -0 0
    outer loop
      vertex 100.46 9.6 30
      vertex 100.46 11.02 0
      vertex 100.46 11.02 30
    endloop
  endfacet
  facet normal 1 0 0
    outer loop
      vertex 100.46 11.02 0
      vertex 100.46 9.6 30
      vertex 100.46 9.6 0
    endloop
  endfacet
  facet normal 0 1 -0
    outer loop
      vertex 100 10.06 0
      vertex 0 10.06 30
      vertex 100 10.06 30
    endloop
  endfacet
  facet normal 0 1 0
    outer loop
      vertex 0 10.06 30
      vertex 100 10.06 0
      vertex 0 10.06 0
    endloop
  endfacet
  facet normal 1 -0 0
    outer loop
      vertex 0.459999 11.02 30
      vertex 0.459999 11.52 0
      vertex 0.459999 11.52 30
    endloop
  endfacet
  facet normal 1 0 0
    outer loop
      vertex 0.459999 11.52 0
      vertex 0.459999 11.02 30
      vertex 0.459999 11.02 0
    endloop
  endfacet
  facet normal 0 -1 0
    outer loop
      vertex 0.459999 11.52 0
      vertex 100.46 11.52 30
      vertex 0.459999 11.52 30
    endloop
  endfacet
  facet normal 0 -1 -0
    outer loop
      vertex 100.46 11.52 30
      vertex 0.459999 11.52 0
      vertex 100.46 11.52 0
    endloop
  endfacet
  facet normal -1 0 0
    outer loop
      vertex 100 11.98 0
      vertex 100 12.48 30
      vertex 100 12.48 0
    endloop
  endfacet
  facet normal -1 -0 0
    outer loop
      vertex 100 12.48 30
      vertex 100 11.98 0
      vertex 100 11.98 30
    endloop
  endfacet
  facet normal -1 0 0
    outer loop
      vertex 0 12.48 0
      vertex 0 13.9 30
      vertex 0 13.9 0
    endloop
  endfacet
  facet normal -1 -0 0
    outer loop
      vertex 0 13.9 30
      vertex 0 12.48 0
      vertex 0 12.48 30
    endloop
  endfacet
  facet normal 0 1 -0
    outer loop
      vertex 100.46 12.94 0
      vertex 0.459999 12.94 30
      vertex 100.46 12.94 30
    endloop
  endfacet
  facet normal 0 1 0
    outer loop
      vertex 0.459999 12.94 30
      vertex 100.46 12.94 0
      vertex 0.459999 12.94 0
    endloop
  endfacet
  facet normal 0 -1 0
    outer loop
      vertex 0 12.48 0
      vertex 100 12.48 30
      vertex 0 12.48 30
    endloop
  endfacet
  facet normal 0 -1 -0
    outer loop
      vertex 100 12.48 30
      vertex 0 12.48 0
      vertex 100 12.48 0
    endloop
  endfacet
  facet normal 1 -0 0
    outer loop
      vertex 100.46 11.52 30
      vertex 100.46 12.94 0
      vertex 100.46 12.94 30
    endloop
  endfacet
  facet normal 1 0 0
    outer loop
      vertex 100.46 12.94 0
      vertex 100.46 11.52 30
      vertex 100.46 11.52 0
    endloop
  endfacet
  facet normal 0 1 -0
    outer loop
      vertex 100 11.98 0
      vertex 0 11.98 30
      vertex 100 11.98 30
    endloop
  endfacet
  facet normal 0 1 0
    outer loop
      vertex 0 11.98 30
      vertex 100 11.98 0
      vertex 0 11.98 0
    endloop
  endfacet
  facet normal 1 -0 0
    outer loop
      vertex 0.459999 12.94 30
      vertex 0.459999 13.44 0
      vertex 0.459999 13.44 30
    endloop
  endfacet
  facet normal 1 0 0
    outer loop
      vertex 0.459999 13.44 0
      vertex 0.459999 12.94 30
      vertex 0.459999 12.94 0
    endloop
  endfacet
  facet normal 0 -1 0
    outer loop
      vertex 0.459999 13.44 0
      vertex 100.46 13.44 30
      vertex 0.459999 13.44 30
    endloop
  endfacet
  facet normal 0 -1 -0
    outer loop
      vertex 100.46 13.44 30
      vertex 0.459999 13.44 0
      vertex 100.46 13.44 0
    endloop
  endfacet
  facet normal -1 0 0
    outer loop
      vertex 100 13.9 0
      vertex 100 14.4 30
      vertex 100 14.4 0
    endloop
  endfacet
  facet normal -1 -0 0
    outer loop
      vertex 100 14.4 30
      vertex 100 13.9 0
      vertex 100 13.9 30
    endloop
  endfacet
  facet normal -1 0 0
    outer loop
      vertex 0 14.4 0
      vertex 0 15.82 30
      vertex 0 15.82 0
    endloop
  endfacet
  facet normal -1 -0 0
    outer loop
      vertex 0 15.82 30
      vertex 0 14.4 0
      vertex 0 14.4 30
    endloop
  endfacet
  facet normal 0 1 -0
    outer loop
      vertex 100.46 14.86 0
      vertex 0.459999 14.86 30
      vertex 100.46 14.86 30
    endloop
  endfacet
  facet normal 0 1 0
    outer loop
      vertex 0.459999 14.86 30
      vertex 100.46 14.86 0
      vertex 0.459999 14.86 0
    endloop
  endfacet
  facet normal 0 -1 0
    outer loop
      vertex 0 14.4 0
      vertex 100 14.4 30
      vertex 0 14.4 30
    endloop
  endfacet
  facet normal 0 -1 -0
    outer loop
      vertex 100 14.4 30
      vertex 0 14.4 0
      vertex 100 14.4 0
    endloop
  endfacet
  facet normal 1 -0 0
    outer loop
      vertex 100.46 13.44 30
      vertex 100.46 14.86 0
      vertex 100.46 14.86 30
    endloop
  endfacet
  facet normal 1 0 0
    outer loop
      vertex 100.46 14.86 0
      vertex 100.46 13.44 30
      vertex 100.46 13.44 0
    endloop
  endfacet
  facet normal 0 1 -0
    outer loop
      vertex 100 13.9 0
      vertex 0 13.9 30
      vertex 100 13.9 30
    endloop
  endfacet
  facet normal 0 1 0
    outer loop
      vertex 0 13.9 30
      vertex 100 13.9 0
      vertex 0 13.9 0
    endloop
  endfacet
  facet normal 1 -0 0
    outer loop
      vertex 0.459999 14.86 30
      vertex 0.459999 15.36 0
      vertex 0.459999 15.36 30
    endloop
  endfacet
  facet normal 1 0 0
    outer loop
      vertex 0.459999 15.36 0
      vertex 0.459999 14.86 30
      vertex 0.459999 14.86 0
    endloop
  endfacet
  facet normal 0 -1 0
    outer loop
      vertex 0.459999 15.36 0
      vertex 100.46 15.36 30
      vertex 0.459999 15.36 30
    endloop
  endfacet
  facet normal 0 -1 -0
    outer loop
      vertex 100.46 15.36 30
      vertex 0.459999 15.36 0
      vertex 100.46 15.36 0
    endloop
  endfacet
  facet normal -1 0 0
    outer loop
      vertex 100 15.82 0
      vertex 100 16.32 30
      vertex 100 16.32 0
    endloop
  endfacet
  facet normal -1 -0 0
    outer loop
      vertex 100 16.32 30
      vertex 100 15.82 0
      vertex 100 15.82 30
    endloop
  endfacet
  facet normal -1 0 0
    outer loop
      vertex 0 16.32 0
      vertex 0 17.74 30
      vertex 0 17.74 0
    endloop
  endfacet
  facet normal -1 -0 0
    outer loop
      vertex 0 17.74 30
      vertex 0 16.32 0
      vertex 0 16.32 30
    endloop
  endfacet
  facet normal 0 1 -0
    outer loop
      vertex 100.46 16.78 0
      vertex 0.459999 16.78 30
      vertex 100.46 16.78 30
    endloop
  endfacet
  facet normal 0 1 0
    outer loop
      vertex 0.459999 16.78 30
      vertex 100.46 16.78 0
      vertex 0.459999 16.78 0
    endloop
  endfacet
  facet normal 0 -1 0
    outer loop
      vertex 0 16.32 0
      vertex 100 16.32 30
      vertex 0 16.32 30
    endloop
  endfacet
  facet normal 0 -1 -0
    outer loop
      vertex 100 16.32 30
      vertex 0 16.32 0
      vertex 100 16.32 0
    endloop
  endfacet
  facet normal 1 -0 0
    outer loop
      vertex 100.46 15.36 30
      vertex 100.46 16.78 0
      vertex 100.46 16.78 30
    endloop
  endfacet
  facet normal 1 0 0
    outer loop
      vertex 100.46 16.78 0
      vertex 100.46 15.36 30
      vertex 100.46 15.36 0
    endloop
  endfacet
  facet normal 0 1 -0
    outer loop
      vertex 100 15.82 0
      vertex 0 15.82 30
      vertex 100 15.82 30
    endloop
  endfacet
  facet normal 0 1 0
    outer loop
      vertex 0 15.82 30
      vertex 100 15.82 0
      vertex 0 15.82 0
    endloop
  endfacet
  facet normal 1 -0 0
    outer loop
      vertex 0.459999 16.78 30
      vertex 0.459999 17.28 0
      vertex 0.459999 17.28 30
    endloop
  endfacet
  facet normal 1 0 0
    outer loop
      vertex 0.459999 17.28 0
      vertex 0.459999 16.78 30
      vertex 0.459999 16.78 0
    endloop
  endfacet
  facet normal 0 -1 0
    outer loop
      vertex 0.459999 17.28 0
      vertex 100.46 17.28 30
      vertex 0.459999 17.28 30
    endloop
  endfacet
  facet normal 0 -1 -0
    outer loop
      vertex 100.46 17.28 30
      vertex 0.459999 17.28 0
      vertex 100.46 17.28 0
    endloop
  endfacet
  facet normal -1 0 0
    outer loop
      vertex 100 17.74 0
      vertex 100 18.24 30
      vertex 100 18.24 0
    endloop
  endfacet
  facet normal -1 -0 0
    outer loop
      vertex 100 18.24 30
      vertex 100 17.74 0
      vertex 100 17.74 30
    endloop
  endfacet
  facet normal -1 0 0
    outer loop
      vertex 0 18.24 0
      vertex 0 19.66 30
      vertex 0 19.66 0
    endloop
  endfacet
  facet normal -1 -0 0
    outer loop
      vertex 0 19.66 30
      vertex 0 18.24 0
      vertex 0 18.24 30
    endloop
  endfacet
  facet normal 0 1 -0
    outer loop
      vertex 100.46 18.7 0
      vertex 0.459999 18.7 30
      vertex 100.46 18.7 30
    endloop
  endfacet
  facet normal 0 1 0
    outer loop
      vertex 0.459999 18.7 30
      vertex 100.46 18.7 0
      vertex 0.459999 18.7 0
    endloop
  endfacet
  facet normal 0 -1 0
    outer loop
      vertex 0 18.24 0
      vertex 100 18.24 30
      vertex 0 18.24 30
    endloop
  endfacet
  facet normal 0 -1 -0
    outer loop
      vertex 100 18.24 30
      vertex 0 18.24 0
      vertex 100 18.24 0
    endloop
  endfacet
  facet normal 1 -0 0
    outer loop
      vertex 100.46 17.28 30
      vertex 100.46 18.7 0
      vertex 100.46 18.7 30
    endloop
  endfacet
  facet normal 1 0 0
    outer loop
      vertex 100.46 18.7 0
      vertex 100.46 17.28 30
      vertex 100.46 17.28 0
    endloop
  endfacet
  facet normal 0 1 -0
    outer loop
      vertex 100 17.74 0
      vertex 0 17.74 30
      vertex 100 17.74 30
    endloop
  endfacet
  facet normal 0 1 0
    outer loop
      vertex 0 17.74 30
      vertex 100 17.74 0
      vertex 0 17.74 0
    endloop
  endfacet
  facet normal 1 -0 0
    outer loop
      vertex 0.459999 18.7 30
      vertex 0.459999 19.2 0
      vertex 0.459999 19.2 30
    endloop
  endfacet
  facet normal 1 0 0
    outer loop
      vertex 0.459999 19.2 0
      vertex 0.459999 18.7 30
      vertex 0.459999 18.7 0
    endloop
  endfacet
  facet normal 0 -1 0
    outer loop
      vertex 0.459999 19.2 0
      vertex 100.46 19.2 30
      vertex 0.459999 19.2 30
    endloop
  endfacet
  facet normal 0 -1 -0
    outer loop
      vertex 100.46 19.2 30
      vertex 0.459999 19.2 0
      vertex 100.46 19.2 0
    endloop
  endfacet
  facet normal -1 0 0
    outer loop
      vertex 100 19.66 0
      vertex 100 20.16 30
      vertex 100 20.16 0
    endloop
  endfacet
  facet normal -1 -0 0
    outer loop
      vertex 100 20.16 30
      vertex 100 19.66 0
      vertex 100 19.66 30
    endloop
  endfacet
  facet normal -1 0 0
    outer loop
      vertex 0 20.16 0
      vertex 0 21.58 30
      vertex 0 21.58 0
    endloop
  endfacet
  facet normal -1 -0 0
    outer loop
      vertex 0 21.58 30
      vertex 0 20.16 0
      vertex 0 20.16 30
    endloop
  endfacet
  facet normal 0 1 -0
    outer loop
      vertex 100.46 20.62 0
      vertex 0.459999 20.62 30
      vertex 100.46 20.62 30
    endloop
  endfacet
  facet normal 0 1 0
    outer loop
      vertex 0.459999 20.62 30
      vertex 100.46 20.62 0
      vertex 0.459999 20.62 0
    endloop
  endfacet
  facet normal 0 -1 0
    outer loop
      vertex 0 20.16 0
      vertex 100 20.16 30
      vertex 0 20.16 30
    endloop
  endfacet
  facet normal 0 -1 -0
    outer loop
      vertex 100 20.16 30
      vertex 0 20.16 0
      vertex 100 20.16 0
    endloop
  endfacet
  facet normal 1 -0 0
    outer loop
      vertex 100.46 19.2 30
      vertex 100.46 20.62 0
      vertex 100.46 20.62 30
    endloop
  endfacet
  facet normal 1 0 0
    outer loop
      vertex 100.46 20.62 0
      vertex 100.46 19.2 30
      vertex 100.46 19.2 0
    endloop
  endfacet
  facet normal 0 1 -0
    outer loop
      vertex 100 19.66 0
      vertex 0 19.66 30
      vertex 100 19.66 30
    endloop
  endfacet
  facet normal 0 1 0
    outer loop
      vertex 0 19.66 30
      vertex 100 19.66 0
      vertex 0 19.66 0
    endloop
  endfacet
  facet normal 1 -0 0
    outer loop
      vertex 0.459999 20.62 30
      vertex 0.459999 21.12 0
      vertex 0.459999 21.12 30
    endloop
  endfacet
  facet normal 1 0 0
    outer loop
      vertex 0.459999 21.12 0
      vertex 0.459999 20.62 30
      vertex 0.459999 20.62 0
    endloop
  endfacet
  facet normal 0 -1 0
    outer loop
      vertex 0.459999 21.12 0
      vertex 100.46 21.12 30
      vertex 0.459999 21.12 30
    endloop
  endfacet
  facet normal 0 -1 -0
    outer loop
      vertex 100.46 21.12 30
      vertex 0.459999 21.12 0
      vertex 100.46 21.12 0
    endloop
  endfacet
  facet normal -1 0 0
    outer loop
      vertex 100 21.58 0
      vertex 100 22.08 30
      vertex 100 22.08 0
    endloop
  endfacet
  facet normal -1 -0 0
    outer loop
      vertex 100 22.08 30
      vertex 100 21.58 0
      vertex 100 21.58 30
    endloop
  endfacet
  facet normal -1 0 0
    outer loop
      vertex 0 22.08 0
      vertex 0 23.5 30
      vertex 0 23.5 0
    endloop
  endfacet
  facet normal -1 -0 0
    outer loop
      vertex 0 23.5 30
      vertex 0 22.08 0
      vertex 0 22.08 30
    endloop
  endfacet
  facet normal 0 1 -0
    outer loop
      vertex 100.46 22.54 0
      vertex 0.459999 22.54 30
      vertex 100.46 22.54 30
    endloop
  endfacet
  facet normal 0 1 0
    outer loop
      vertex 0.459999 22.54 30
      vertex 100.46 22.54 0
      vertex 0.459999 22.54 0
    endloop
  endfacet
  facet normal 0 -1 0
    outer loop
      vertex 0 22.08 0
      vertex 100 22.08 30
      vertex 0 22.08 30
    endloop
  endfacet
  facet normal 0 -1 -0
    outer loop
      vertex 100 22.08 30
      vertex 0 22.08 0
      vertex 100 22.08 0
    endloop
  endfacet
  facet normal 1 -0 0
    outer loop
      vertex 100.46 21.12 30
      vertex 100.46 22.54 0
      vertex 100.46 22.54 30
    endloop
  endfacet
  facet normal 1 0 0
    outer loop
      vertex 100.46 22.54 0
      vertex 100.46 21.12 30
      vertex 100.46 21.12 0
    endloop
  endfacet
  facet normal 0 1 -0
    outer loop
      vertex 100 21.58 0
      vertex 0 21.58 30
      vertex 100 21.58 30
    endloop
  endfacet
  facet normal 0 1 0
    outer loop
      vertex 0 21.58 30
      vertex 100 21.58 0
      vertex 0 21.58 0
    endloop
  endfacet
  facet normal 1 -0 0
    outer loop
      vertex 0.459999 22.54 30
      vertex 0.459999 23.04 0
      vertex 0.459999 23.04 30
    endloop
  endfacet
  facet normal 1 0 0
    outer loop
      vertex 0.459999 23.04 0
      vertex 0.459999 22.54 30
      vertex 0.459999 22.54 0
    endloop
  endfacet
  facet normal 0 -1 0
    outer loop
      vertex 0.459999 23.04 0
      vertex 100.46 23.04 30
      vertex 0.459999 23.04 30
    endloop
  endfacet
  facet normal 0 -1 -0
    outer loop
      vertex 100.46 23.04 30
      vertex 0.459999 23.04 0
      vertex 100.46 23.04 0
    endloop
  endfacet
  facet normal -1 0 0
    outer loop
      vertex 100 23.5 0
      vertex 100 24 30
      vertex 100 24 0
    endloop
  endfacet
  facet normal -1 -0 0
    outer loop
      vertex 100 24 30
      vertex 100 23.5 0
      vertex 100 23.5 30
    endloop
  endfacet
  facet normal -1 0 0
    outer loop
      vertex 0 24 0
      vertex 0 25.42 30
      vertex 0 25.42 0
    endloop
  endfacet
  facet normal -1 -0 0
    outer loop
      vertex 0 25.42 30
      vertex 0 24 0
      vertex 0 24 30
    endloop
  endfacet
  facet normal 0 1 -0
    outer loop
      vertex 100.46 24.46 0
      vertex 0.459999 24.46 30
      vertex 100.46 24.46 30
    endloop
  endfacet
  facet normal 0 1 0
    outer loop
      vertex 0.459999 24.46 30
      vertex 100.46 24.46 0
      vertex 0.459999 24.46 0
    endloop
  endfacet
  facet normal 0 -1 0
    outer loop
      vertex 0 24 0
      vertex 100 24 30
      vertex 0 24 30
    endloop
  endfacet
  facet normal 0 -1 -0
    outer loop
      vertex 100 24 30
      vertex 0 24 0
      vertex 100 24 0
    endloop
  endfacet
  facet normal 1 -0 0
    outer loop
      vertex 100.46 23.04 30
      vertex 100.46 24.46 0
      vertex 100.46 24.46 30
    endloop
  endfacet
  facet normal 1 0 0
    outer loop
      vertex 100.46 24.46 0
      vertex 100.46 23.04 30
      vertex 100.46 23.04 0
    endloop
  endfacet
  facet normal 0 1 -0
    outer loop
      vertex 100 23.5 0
      vertex 0 23.5 30
      vertex 100 23.5 30
    endloop
  endfacet
  facet normal 0 1 0
    outer loop
      vertex 0 23.5 30
      vertex 100 23.5 0
      vertex 0 23.5 0
    endloop
  endfacet
  facet normal 1 -0 0
    outer loop
      vertex 0.459999 24.46 30
      vertex 0.459999 24.96 0
      vertex 0.459999 24.96 30
    endloop
  endfacet
  facet normal 1 0 0
    outer loop
      vertex 0.459999 24.96 0
      vertex 0.459999 24.46 30
      vertex 0.459999 24.46 0
    endloop
  endfacet
  facet normal 0 -1 0
    outer loop
      vertex 0.459999 24.96 0
      vertex 100.46 24.96 30
      vertex 0.459999 24.96 30
    endloop
  endfacet
  facet normal 0 -1 -0
    outer loop
      vertex 100.46 24.96 30
      vertex 0.459999 24.96 0
      vertex 100.46 24.96 0
    endloop
  endfacet
  facet normal -1 0 0
    outer loop
      vertex 100 25.42 0
      vertex 100 25.92 30
      vertex 100 25.92 0
    endloop
  endfacet
  facet normal -1 -0 0
    outer loop
      vertex 100 25.92 30
      vertex 100 25.42 0
      vertex 100 25.42 30
    endloop
  endfacet
  facet normal -1 0 0
    outer loop
      vertex 0 25.92 0
      vertex 0 27.34 30
      vertex 0 27.34 0
    endloop
  endfacet
  facet normal -1 -0 0
    outer loop
      vertex 0 27.34 30
      vertex 0 25.92 0
      vertex 0 25.92 30
    endloop
  endfacet
  facet normal 0 1 -0
    outer loop
      vertex 100.46 26.38 0
      vertex 0.459999 26.38 30
      vertex 100.46 26.38 30
    endloop
  endfacet
  facet normal 0 1 0
    outer loop
      vertex 0.459999 26.38 30
      vertex 100.46 26.38 0
      vertex 0.459999 26.38 0
    endloop
  endfacet
  facet normal 0 -1 0
    outer loop
      vertex 0 25.92 0
      vertex 100 25.92 30
      vertex 0 25.92 30
    endloop
  endfacet
  facet normal 0 -1 -0
    outer loop
      vertex 100 25.92 30
      vertex 0 25.92 0
      vertex 100 25.92 0
    endloop
  endfacet
  facet normal 1 -0 0
    outer loop
      vertex 100.46 24.96 30
      vertex 100.46 26.38 0
      vertex 100.46 26.38 30
    endloop
  endfacet
  facet normal 1 0 0
    outer loop
      vertex 100.46 26.38 0
      vertex 100.46 24.96 30
      vertex 100.46 24.96 0
    endloop
  endfacet
  facet normal 0 1 -0
    outer loop
      vertex 100 25.42 0
      vertex 0 25.42 30
      vertex 100 25.42 30
    endloop
  endfacet
  facet normal 0 1 0
    outer loop
      vertex 0 25.42 30
      vertex 100 25.42 0
      vertex 0 25.42 0
    endloop
  endfacet
  facet normal 1 -0 0
    outer loop
      vertex 0.459999 26.38 30
      vertex 0.459999 26.88 0
      vertex 0.459999 26.88 30
    endloop
  endfacet
  facet normal 1 0 0
    outer loop
      vertex 0.459999 26.88 0
      vertex 0.459999 26.38 30
      vertex 0.459999 26.38 0
    endloop
  endfacet
  facet normal 0 -1 0
    outer loop
      vertex 0.459999 26.88 0
      vertex 100.46 26.88 30
      vertex 0.459999 26.88 30
    endloop
  endfacet
  facet normal 0 -1 -0
    outer loop
      vertex 100.46 26.88 30
      vertex 0.459999 26.88 0
      vertex 100.46 26.88 0
    endloop
  endfacet
  facet normal -1 0 0
    outer loop
      vertex 100 27.34 0
      vertex 100 27.84 30
      vertex 100 27.84 0
    endloop
  endfacet
  facet normal -1 -0 0
    outer loop
      vertex 100 27.84 30
      vertex 100 27.34 0
      vertex 100 27.34 30
    endloop
  endfacet
  facet normal -1 0 0
    outer loop
      vertex 0 27.84 0
      vertex 0 28.3 30
      vertex 0 28.3 0
    endloop
  endfacet
  facet normal -1 -0 0
    outer loop
      vertex 0 28.3 30
      vertex 0 27.84 0
      vertex 0 27.84 30
    endloop
  endfacet
  facet normal 0 1 -0
    outer loop
      vertex 100.46 28.3 0
      vertex 0 28.3 30
      vertex 100.46 28.3 30
    endloop
  endfacet
  facet normal 0 1 0
    outer loop
      vertex 0 28.3 30
      vertex 100.46 28.3 0
      vertex 0 28.3 0
    endloop
  endfacet
  facet normal 0 -1 0
    outer loop
      vertex 0 27.84 0
      vertex 100 27.84 30
      vertex 0 27.84 30
    endloop
  endfacet
  facet normal 0 -1 -0
    outer loop
      vertex 100 27.84 30
      vertex 0 27.84 0
      vertex 100 27.84 0
    endloop
  endfacet
  facet normal 1 -0 0
    outer loop
      vertex 100.46 26.88 30
      vertex 100.46 28.3 0
      vertex 100.46 28.3 30
    endloop
  endfacet
  facet normal 1 0 0
    outer loop
      vertex 100.46 28.3 0
      vertex 100.46 26.88 30
      vertex 100.46 26.88 0
    endloop
  endfacet
  facet normal 0 1 -0
    outer loop
      vertex 100 27.34 0
      vertex 0 27.34 30
      vertex 100 27.34 30
    endloop
  endfacet
  facet normal 0 1 0
    outer loop
      vertex 0 27.34 30
      vertex 100 27.34 0
      vertex 0 27.34 0
    endloop
  endfacet
endsolid OpenSCAD_Model
