  0
SECTION
  2
BLOCKS
  0
ENDSEC
  0
SECTION
  2
ENTITIES
  0
LINE
  8
0
 10
238.9
 20
59
 11
0
 21
59
  0
LINE
  8
0
 10
0
 20
59
 11
0
 21
0
  0
LINE
  8
0
 10
0
 20
0
 11
238.9
 21
0
  0
LINE
  8
0
 10
238.9
 20
0
 11
238.9
 21
59
  0
LINE
  8
0
 10
190.433
 20
44.36
 11
188.875
 21
45.3719
  0
LINE
  8
0
 10
188.875
 20
45.3719
 11
187.22
 21
46.2154
  0
LINE
  8
0
 10
187.22
 20
46.2154
 11
185.485
 21
46.8812
  0
LINE
  8
0
 10
185.485
 20
46.8812
 11
183.69
 21
47.3621
  0
LINE
  8
0
 10
183.69
 20
47.3621
 11
181.855
 21
47.6528
  0
LINE
  8
0
 10
181.855
 20
47.6528
 11
180
 21
47.75
  0
LINE
  8
0
 10
180
 20
47.75
 11
178.145
 21
47.6528
  0
LINE
  8
0
 10
178.145
 20
47.6528
 11
176.31
 21
47.3621
  0
LINE
  8
0
 10
176.31
 20
47.3621
 11
174.515
 21
46.8812
  0
LINE
  8
0
 10
174.515
 20
46.8812
 11
172.78
 21
46.2154
  0
LINE
  8
0
 10
172.78
 20
46.2154
 11
171.125
 21
45.3719
  0
LINE
  8
0
 10
171.125
 20
45.3719
 11
169.567
 21
44.36
  0
LINE
  8
0
 10
169.567
 20
44.36
 11
168.178
 21
43.2358
  0
LINE
  8
0
 10
168.178
 20
43.2358
 11
166.584
 21
44.8298
  0
LINE
  8
0
 10
166.584
 20
44.8298
 11
166.617
 21
44.8629
  0
LINE
  8
0
 10
166.617
 20
44.8629
 11
168.244
 21
46.1803
  0
LINE
  8
0
 10
168.244
 20
46.1803
 11
170
 21
47.3205
  0
LINE
  8
0
 10
170
 20
47.3205
 11
171.865
 21
48.2709
  0
LINE
  8
0
 10
171.865
 20
48.2709
 11
173.82
 21
49.0211
  0
LINE
  8
0
 10
173.82
 20
49.0211
 11
175.842
 21
49.5629
  0
LINE
  8
0
 10
175.842
 20
49.5629
 11
177.909
 21
49.8904
  0
LINE
  8
0
 10
177.909
 20
49.8904
 11
180
 21
50
  0
LINE
  8
0
 10
180
 20
50
 11
182.091
 21
49.8904
  0
LINE
  8
0
 10
182.091
 20
49.8904
 11
184.158
 21
49.5629
  0
LINE
  8
0
 10
184.158
 20
49.5629
 11
186.18
 21
49.0211
  0
LINE
  8
0
 10
186.18
 20
49.0211
 11
188.135
 21
48.2709
  0
LINE
  8
0
 10
188.135
 20
48.2709
 11
190
 21
47.3205
  0
LINE
  8
0
 10
190
 20
47.3205
 11
191.756
 21
46.1803
  0
LINE
  8
0
 10
191.756
 20
46.1803
 11
193.383
 21
44.8629
  0
LINE
  8
0
 10
193.383
 20
44.8629
 11
193.416
 21
44.8298
  0
LINE
  8
0
 10
193.416
 20
44.8298
 11
191.822
 21
43.2358
  0
LINE
  8
0
 10
191.822
 20
43.2358
 11
190.433
 21
44.36
  0
LINE
  8
0
 10
80.4332
 20
44.36
 11
78.875
 21
45.3719
  0
LINE
  8
0
 10
78.875
 20
45.3719
 11
77.2196
 21
46.2154
  0
LINE
  8
0
 10
77.2196
 20
46.2154
 11
75.485
 21
46.8812
  0
LINE
  8
0
 10
75.485
 20
46.8812
 11
73.6904
 21
47.3621
  0
LINE
  8
0
 10
73.6904
 20
47.3621
 11
71.8554
 21
47.6528
  0
LINE
  8
0
 10
71.8554
 20
47.6528
 11
70
 21
47.75
  0
LINE
  8
0
 10
70
 20
47.75
 11
68.1446
 21
47.6528
  0
LINE
  8
0
 10
68.1446
 20
47.6528
 11
66.3096
 21
47.3621
  0
LINE
  8
0
 10
66.3096
 20
47.3621
 11
64.5149
 21
46.8812
  0
LINE
  8
0
 10
64.5149
 20
46.8812
 11
62.7804
 21
46.2154
  0
LINE
  8
0
 10
62.7804
 20
46.2154
 11
61.125
 21
45.3719
  0
LINE
  8
0
 10
61.125
 20
45.3719
 11
59.5668
 21
44.36
  0
LINE
  8
0
 10
59.5668
 20
44.36
 11
58.1784
 21
43.2358
  0
LINE
  8
0
 10
58.1784
 20
43.2358
 11
56.5844
 21
44.8298
  0
LINE
  8
0
 10
56.5844
 20
44.8298
 11
56.6174
 21
44.8629
  0
LINE
  8
0
 10
56.6174
 20
44.8629
 11
58.2443
 21
46.1803
  0
LINE
  8
0
 10
58.2443
 20
46.1803
 11
60
 21
47.3205
  0
LINE
  8
0
 10
60
 20
47.3205
 11
61.8653
 21
48.2709
  0
LINE
  8
0
 10
61.8653
 20
48.2709
 11
63.8197
 21
49.0211
  0
LINE
  8
0
 10
63.8197
 20
49.0211
 11
65.8418
 21
49.5629
  0
LINE
  8
0
 10
65.8418
 20
49.5629
 11
67.9094
 21
49.8904
  0
LINE
  8
0
 10
67.9094
 20
49.8904
 11
70
 21
50
  0
LINE
  8
0
 10
70
 20
50
 11
72.0906
 21
49.8904
  0
LINE
  8
0
 10
72.0906
 20
49.8904
 11
74.1582
 21
49.5629
  0
LINE
  8
0
 10
74.1582
 20
49.5629
 11
76.1803
 21
49.0211
  0
LINE
  8
0
 10
76.1803
 20
49.0211
 11
78.1347
 21
48.2709
  0
LINE
  8
0
 10
78.1347
 20
48.2709
 11
80
 21
47.3205
  0
LINE
  8
0
 10
80
 20
47.3205
 11
81.7557
 21
46.1803
  0
LINE
  8
0
 10
81.7557
 20
46.1803
 11
83.3826
 21
44.8629
  0
LINE
  8
0
 10
83.3826
 20
44.8629
 11
83.4156
 21
44.8298
  0
LINE
  8
0
 10
83.4156
 20
44.8298
 11
81.8215
 21
43.2358
  0
LINE
  8
0
 10
81.8215
 20
43.2358
 11
80.4332
 21
44.36
  0
LINE
  8
0
 10
53.7509
 20
44.2678
 11
53.507
 21
44.3209
  0
LINE
  8
0
 10
53.507
 20
44.3209
 11
53.273
 21
44.4081
  0
LINE
  8
0
 10
53.273
 20
44.4081
 11
53.0539
 21
44.5278
  0
LINE
  8
0
 10
53.0539
 20
44.5278
 11
52.854
 21
44.6774
  0
LINE
  8
0
 10
52.854
 20
44.6774
 11
52.6774
 21
44.854
  0
LINE
  8
0
 10
52.6774
 20
44.854
 11
52.5278
 21
45.0539
  0
LINE
  8
0
 10
52.5278
 20
45.0539
 11
52.4081
 21
45.273
  0
LINE
  8
0
 10
52.4081
 20
45.273
 11
52.3209
 21
45.507
  0
LINE
  8
0
 10
52.3209
 20
45.507
 11
52.2678
 21
45.7509
  0
LINE
  8
0
 10
52.2678
 20
45.7509
 11
52.25
 21
46
  0
LINE
  8
0
 10
52.25
 20
46
 11
52.2678
 21
46.249
  0
LINE
  8
0
 10
52.2678
 20
46.249
 11
52.3209
 21
46.493
  0
LINE
  8
0
 10
52.3209
 20
46.493
 11
52.4081
 21
46.727
  0
LINE
  8
0
 10
52.4081
 20
46.727
 11
52.5278
 21
46.9461
  0
LINE
  8
0
 10
52.5278
 20
46.9461
 11
52.6774
 21
47.146
  0
LINE
  8
0
 10
52.6774
 20
47.146
 11
52.854
 21
47.3226
  0
LINE
  8
0
 10
52.854
 20
47.3226
 11
53.0539
 21
47.4722
  0
LINE
  8
0
 10
53.0539
 20
47.4722
 11
53.273
 21
47.5918
  0
LINE
  8
0
 10
53.273
 20
47.5918
 11
53.507
 21
47.6791
  0
LINE
  8
0
 10
53.507
 20
47.6791
 11
53.7509
 21
47.7322
  0
LINE
  8
0
 10
53.7509
 20
47.7322
 11
54
 21
47.75
  0
LINE
  8
0
 10
54
 20
47.75
 11
54.249
 21
47.7322
  0
LINE
  8
0
 10
54.249
 20
47.7322
 11
54.493
 21
47.6791
  0
LINE
  8
0
 10
54.493
 20
47.6791
 11
54.727
 21
47.5918
  0
LINE
  8
0
 10
54.727
 20
47.5918
 11
54.9461
 21
47.4722
  0
LINE
  8
0
 10
54.9461
 20
47.4722
 11
55.146
 21
47.3226
  0
LINE
  8
0
 10
55.146
 20
47.3226
 11
55.3226
 21
47.146
  0
LINE
  8
0
 10
55.3226
 20
47.146
 11
55.4722
 21
46.9461
  0
LINE
  8
0
 10
55.4722
 20
46.9461
 11
55.5919
 21
46.727
  0
LINE
  8
0
 10
55.5919
 20
46.727
 11
55.6791
 21
46.493
  0
LINE
  8
0
 10
55.6791
 20
46.493
 11
55.7322
 21
46.249
  0
LINE
  8
0
 10
55.7322
 20
46.249
 11
55.75
 21
46
  0
LINE
  8
0
 10
55.75
 20
46
 11
55.7322
 21
45.7509
  0
LINE
  8
0
 10
55.7322
 20
45.7509
 11
55.6791
 21
45.507
  0
LINE
  8
0
 10
55.6791
 20
45.507
 11
55.5919
 21
45.273
  0
LINE
  8
0
 10
55.5919
 20
45.273
 11
55.4722
 21
45.0539
  0
LINE
  8
0
 10
55.4722
 20
45.0539
 11
55.3226
 21
44.854
  0
LINE
  8
0
 10
55.3226
 20
44.854
 11
55.146
 21
44.6774
  0
LINE
  8
0
 10
55.146
 20
44.6774
 11
54.9461
 21
44.5278
  0
LINE
  8
0
 10
54.9461
 20
44.5278
 11
54.727
 21
44.4081
  0
LINE
  8
0
 10
54.727
 20
44.4081
 11
54.493
 21
44.3209
  0
LINE
  8
0
 10
54.493
 20
44.3209
 11
54.249
 21
44.2678
  0
LINE
  8
0
 10
54.249
 20
44.2678
 11
54
 21
44.25
  0
LINE
  8
0
 10
54
 20
44.25
 11
53.7509
 21
44.2678
  0
LINE
  8
0
 10
195.751
 20
44.2678
 11
195.507
 21
44.3209
  0
LINE
  8
0
 10
195.507
 20
44.3209
 11
195.273
 21
44.4081
  0
LINE
  8
0
 10
195.273
 20
44.4081
 11
195.054
 21
44.5278
  0
LINE
  8
0
 10
195.054
 20
44.5278
 11
194.854
 21
44.6774
  0
LINE
  8
0
 10
194.854
 20
44.6774
 11
194.677
 21
44.854
  0
LINE
  8
0
 10
194.677
 20
44.854
 11
194.528
 21
45.0539
  0
LINE
  8
0
 10
194.528
 20
45.0539
 11
194.408
 21
45.273
  0
LINE
  8
0
 10
194.408
 20
45.273
 11
194.321
 21
45.507
  0
LINE
  8
0
 10
194.321
 20
45.507
 11
194.268
 21
45.7509
  0
LINE
  8
0
 10
194.268
 20
45.7509
 11
194.25
 21
46
  0
LINE
  8
0
 10
194.25
 20
46
 11
194.268
 21
46.249
  0
LINE
  8
0
 10
194.268
 20
46.249
 11
194.321
 21
46.493
  0
LINE
  8
0
 10
194.321
 20
46.493
 11
194.408
 21
46.727
  0
LINE
  8
0
 10
194.408
 20
46.727
 11
194.528
 21
46.9461
  0
LINE
  8
0
 10
194.528
 20
46.9461
 11
194.677
 21
47.146
  0
LINE
  8
0
 10
194.677
 20
47.146
 11
194.854
 21
47.3226
  0
LINE
  8
0
 10
194.854
 20
47.3226
 11
195.054
 21
47.4722
  0
LINE
  8
0
 10
195.054
 20
47.4722
 11
195.273
 21
47.5918
  0
LINE
  8
0
 10
195.273
 20
47.5918
 11
195.507
 21
47.6791
  0
LINE
  8
0
 10
195.507
 20
47.6791
 11
195.751
 21
47.7322
  0
LINE
  8
0
 10
195.751
 20
47.7322
 11
196
 21
47.75
  0
LINE
  8
0
 10
196
 20
47.75
 11
196.249
 21
47.7322
  0
LINE
  8
0
 10
196.249
 20
47.7322
 11
196.493
 21
47.6791
  0
LINE
  8
0
 10
196.493
 20
47.6791
 11
196.727
 21
47.5918
  0
LINE
  8
0
 10
196.727
 20
47.5918
 11
196.946
 21
47.4722
  0
LINE
  8
0
 10
196.946
 20
47.4722
 11
197.146
 21
47.3226
  0
LINE
  8
0
 10
197.146
 20
47.3226
 11
197.323
 21
47.146
  0
LINE
  8
0
 10
197.323
 20
47.146
 11
197.472
 21
46.9461
  0
LINE
  8
0
 10
197.472
 20
46.9461
 11
197.592
 21
46.727
  0
LINE
  8
0
 10
197.592
 20
46.727
 11
197.679
 21
46.493
  0
LINE
  8
0
 10
197.679
 20
46.493
 11
197.732
 21
46.249
  0
LINE
  8
0
 10
197.732
 20
46.249
 11
197.75
 21
46
  0
LINE
  8
0
 10
197.75
 20
46
 11
197.732
 21
45.7509
  0
LINE
  8
0
 10
197.732
 20
45.7509
 11
197.679
 21
45.507
  0
LINE
  8
0
 10
197.679
 20
45.507
 11
197.592
 21
45.273
  0
LINE
  8
0
 10
197.592
 20
45.273
 11
197.472
 21
45.0539
  0
LINE
  8
0
 10
197.472
 20
45.0539
 11
197.323
 21
44.854
  0
LINE
  8
0
 10
197.323
 20
44.854
 11
197.146
 21
44.6774
  0
LINE
  8
0
 10
197.146
 20
44.6774
 11
196.946
 21
44.5278
  0
LINE
  8
0
 10
196.946
 20
44.5278
 11
196.727
 21
44.4081
  0
LINE
  8
0
 10
196.727
 20
44.4081
 11
196.493
 21
44.3209
  0
LINE
  8
0
 10
196.493
 20
44.3209
 11
196.249
 21
44.2678
  0
LINE
  8
0
 10
196.249
 20
44.2678
 11
196
 21
44.25
  0
LINE
  8
0
 10
196
 20
44.25
 11
195.751
 21
44.2678
  0
LINE
  8
0
 10
163.751
 20
44.2678
 11
163.507
 21
44.3209
  0
LINE
  8
0
 10
163.507
 20
44.3209
 11
163.273
 21
44.4081
  0
LINE
  8
0
 10
163.273
 20
44.4081
 11
163.054
 21
44.5278
  0
LINE
  8
0
 10
163.054
 20
44.5278
 11
162.854
 21
44.6774
  0
LINE
  8
0
 10
162.854
 20
44.6774
 11
162.677
 21
44.854
  0
LINE
  8
0
 10
162.677
 20
44.854
 11
162.528
 21
45.0539
  0
LINE
  8
0
 10
162.528
 20
45.0539
 11
162.408
 21
45.273
  0
LINE
  8
0
 10
162.408
 20
45.273
 11
162.321
 21
45.507
  0
LINE
  8
0
 10
162.321
 20
45.507
 11
162.268
 21
45.7509
  0
LINE
  8
0
 10
162.268
 20
45.7509
 11
162.25
 21
46
  0
LINE
  8
0
 10
162.25
 20
46
 11
162.268
 21
46.249
  0
LINE
  8
0
 10
162.268
 20
46.249
 11
162.321
 21
46.493
  0
LINE
  8
0
 10
162.321
 20
46.493
 11
162.408
 21
46.727
  0
LINE
  8
0
 10
162.408
 20
46.727
 11
162.528
 21
46.9461
  0
LINE
  8
0
 10
162.528
 20
46.9461
 11
162.677
 21
47.146
  0
LINE
  8
0
 10
162.677
 20
47.146
 11
162.854
 21
47.3226
  0
LINE
  8
0
 10
162.854
 20
47.3226
 11
163.054
 21
47.4722
  0
LINE
  8
0
 10
163.054
 20
47.4722
 11
163.273
 21
47.5918
  0
LINE
  8
0
 10
163.273
 20
47.5918
 11
163.507
 21
47.6791
  0
LINE
  8
0
 10
163.507
 20
47.6791
 11
163.751
 21
47.7322
  0
LINE
  8
0
 10
163.751
 20
47.7322
 11
164
 21
47.75
  0
LINE
  8
0
 10
164
 20
47.75
 11
164.249
 21
47.7322
  0
LINE
  8
0
 10
164.249
 20
47.7322
 11
164.493
 21
47.6791
  0
LINE
  8
0
 10
164.493
 20
47.6791
 11
164.727
 21
47.5918
  0
LINE
  8
0
 10
164.727
 20
47.5918
 11
164.946
 21
47.4722
  0
LINE
  8
0
 10
164.946
 20
47.4722
 11
165.146
 21
47.3226
  0
LINE
  8
0
 10
165.146
 20
47.3226
 11
165.323
 21
47.146
  0
LINE
  8
0
 10
165.323
 20
47.146
 11
165.472
 21
46.9461
  0
LINE
  8
0
 10
165.472
 20
46.9461
 11
165.592
 21
46.727
  0
LINE
  8
0
 10
165.592
 20
46.727
 11
165.679
 21
46.493
  0
LINE
  8
0
 10
165.679
 20
46.493
 11
165.732
 21
46.249
  0
LINE
  8
0
 10
165.732
 20
46.249
 11
165.75
 21
46
  0
LINE
  8
0
 10
165.75
 20
46
 11
165.732
 21
45.7509
  0
LINE
  8
0
 10
165.732
 20
45.7509
 11
165.679
 21
45.507
  0
LINE
  8
0
 10
165.679
 20
45.507
 11
165.592
 21
45.273
  0
LINE
  8
0
 10
165.592
 20
45.273
 11
165.472
 21
45.0539
  0
LINE
  8
0
 10
165.472
 20
45.0539
 11
165.323
 21
44.854
  0
LINE
  8
0
 10
165.323
 20
44.854
 11
165.146
 21
44.6774
  0
LINE
  8
0
 10
165.146
 20
44.6774
 11
164.946
 21
44.5278
  0
LINE
  8
0
 10
164.946
 20
44.5278
 11
164.727
 21
44.4081
  0
LINE
  8
0
 10
164.727
 20
44.4081
 11
164.493
 21
44.3209
  0
LINE
  8
0
 10
164.493
 20
44.3209
 11
164.249
 21
44.2678
  0
LINE
  8
0
 10
164.249
 20
44.2678
 11
164
 21
44.25
  0
LINE
  8
0
 10
164
 20
44.25
 11
163.751
 21
44.2678
  0
LINE
  8
0
 10
85.7509
 20
44.2678
 11
85.507
 21
44.3209
  0
LINE
  8
0
 10
85.507
 20
44.3209
 11
85.273
 21
44.4081
  0
LINE
  8
0
 10
85.273
 20
44.4081
 11
85.0539
 21
44.5278
  0
LINE
  8
0
 10
85.0539
 20
44.5278
 11
84.854
 21
44.6774
  0
LINE
  8
0
 10
84.854
 20
44.6774
 11
84.6774
 21
44.854
  0
LINE
  8
0
 10
84.6774
 20
44.854
 11
84.5278
 21
45.0539
  0
LINE
  8
0
 10
84.5278
 20
45.0539
 11
84.4081
 21
45.273
  0
LINE
  8
0
 10
84.4081
 20
45.273
 11
84.3209
 21
45.507
  0
LINE
  8
0
 10
84.3209
 20
45.507
 11
84.2678
 21
45.7509
  0
LINE
  8
0
 10
84.2678
 20
45.7509
 11
84.25
 21
46
  0
LINE
  8
0
 10
84.25
 20
46
 11
84.2678
 21
46.249
  0
LINE
  8
0
 10
84.2678
 20
46.249
 11
84.3209
 21
46.493
  0
LINE
  8
0
 10
84.3209
 20
46.493
 11
84.4081
 21
46.727
  0
LINE
  8
0
 10
84.4081
 20
46.727
 11
84.5278
 21
46.9461
  0
LINE
  8
0
 10
84.5278
 20
46.9461
 11
84.6774
 21
47.146
  0
LINE
  8
0
 10
84.6774
 20
47.146
 11
84.854
 21
47.3226
  0
LINE
  8
0
 10
84.854
 20
47.3226
 11
85.0539
 21
47.4722
  0
LINE
  8
0
 10
85.0539
 20
47.4722
 11
85.273
 21
47.5918
  0
LINE
  8
0
 10
85.273
 20
47.5918
 11
85.507
 21
47.6791
  0
LINE
  8
0
 10
85.507
 20
47.6791
 11
85.7509
 21
47.7322
  0
LINE
  8
0
 10
85.7509
 20
47.7322
 11
86
 21
47.75
  0
LINE
  8
0
 10
86
 20
47.75
 11
86.2491
 21
47.7322
  0
LINE
  8
0
 10
86.2491
 20
47.7322
 11
86.493
 21
47.6791
  0
LINE
  8
0
 10
86.493
 20
47.6791
 11
86.727
 21
47.5918
  0
LINE
  8
0
 10
86.727
 20
47.5918
 11
86.9461
 21
47.4722
  0
LINE
  8
0
 10
86.9461
 20
47.4722
 11
87.146
 21
47.3226
  0
LINE
  8
0
 10
87.146
 20
47.3226
 11
87.3226
 21
47.146
  0
LINE
  8
0
 10
87.3226
 20
47.146
 11
87.4722
 21
46.9461
  0
LINE
  8
0
 10
87.4722
 20
46.9461
 11
87.5919
 21
46.727
  0
LINE
  8
0
 10
87.5919
 20
46.727
 11
87.6791
 21
46.493
  0
LINE
  8
0
 10
87.6791
 20
46.493
 11
87.7322
 21
46.249
  0
LINE
  8
0
 10
87.7322
 20
46.249
 11
87.75
 21
46
  0
LINE
  8
0
 10
87.75
 20
46
 11
87.7322
 21
45.7509
  0
LINE
  8
0
 10
87.7322
 20
45.7509
 11
87.6791
 21
45.507
  0
LINE
  8
0
 10
87.6791
 20
45.507
 11
87.5919
 21
45.273
  0
LINE
  8
0
 10
87.5919
 20
45.273
 11
87.4722
 21
45.0539
  0
LINE
  8
0
 10
87.4722
 20
45.0539
 11
87.3226
 21
44.854
  0
LINE
  8
0
 10
87.3226
 20
44.854
 11
87.146
 21
44.6774
  0
LINE
  8
0
 10
87.146
 20
44.6774
 11
86.9461
 21
44.5278
  0
LINE
  8
0
 10
86.9461
 20
44.5278
 11
86.727
 21
44.4081
  0
LINE
  8
0
 10
86.727
 20
44.4081
 11
86.493
 21
44.3209
  0
LINE
  8
0
 10
86.493
 20
44.3209
 11
86.2491
 21
44.2678
  0
LINE
  8
0
 10
86.2491
 20
44.2678
 11
86
 21
44.25
  0
LINE
  8
0
 10
86
 20
44.25
 11
85.7509
 21
44.2678
  0
LINE
  8
0
 10
77.9351
 20
40.9217
 11
76.75
 21
41.6913
  0
LINE
  8
0
 10
76.75
 20
41.6913
 11
75.4909
 21
42.3329
  0
LINE
  8
0
 10
75.4909
 20
42.3329
 11
74.1717
 21
42.8393
  0
LINE
  8
0
 10
74.1717
 20
42.8393
 11
72.8068
 21
43.205
  0
LINE
  8
0
 10
72.8068
 20
43.205
 11
71.4111
 21
43.426
  0
LINE
  8
0
 10
71.4111
 20
43.426
 11
70
 21
43.5
  0
LINE
  8
0
 10
70
 20
43.5
 11
68.5889
 21
43.426
  0
LINE
  8
0
 10
68.5889
 20
43.426
 11
67.1932
 21
43.205
  0
LINE
  8
0
 10
67.1932
 20
43.205
 11
65.8283
 21
42.8393
  0
LINE
  8
0
 10
65.8283
 20
42.8393
 11
64.509
 21
42.3329
  0
LINE
  8
0
 10
64.509
 20
42.3329
 11
63.25
 21
41.6913
  0
LINE
  8
0
 10
63.25
 20
41.6913
 11
62.0649
 21
40.9217
  0
LINE
  8
0
 10
62.0649
 20
40.9217
 11
61.1961
 21
40.2182
  0
LINE
  8
0
 10
61.1961
 20
40.2182
 11
59.5985
 21
41.8157
  0
LINE
  8
0
 10
59.5985
 20
41.8157
 11
60.7424
 21
42.742
  0
LINE
  8
0
 10
60.7424
 20
42.742
 11
62.125
 21
43.6399
  0
LINE
  8
0
 10
62.125
 20
43.6399
 11
63.5939
 21
44.3883
  0
LINE
  8
0
 10
63.5939
 20
44.3883
 11
65.133
 21
44.9791
  0
LINE
  8
0
 10
65.133
 20
44.9791
 11
66.7254
 21
45.4058
  0
LINE
  8
0
 10
66.7254
 20
45.4058
 11
68.3537
 21
45.6637
  0
LINE
  8
0
 10
68.3537
 20
45.6637
 11
70
 21
45.75
  0
LINE
  8
0
 10
70
 20
45.75
 11
71.6463
 21
45.6637
  0
LINE
  8
0
 10
71.6463
 20
45.6637
 11
73.2746
 21
45.4058
  0
LINE
  8
0
 10
73.2746
 20
45.4058
 11
74.867
 21
44.9791
  0
LINE
  8
0
 10
74.867
 20
44.9791
 11
76.4061
 21
44.3883
  0
LINE
  8
0
 10
76.4061
 20
44.3883
 11
77.875
 21
43.6399
  0
LINE
  8
0
 10
77.875
 20
43.6399
 11
79.2576
 21
42.742
  0
LINE
  8
0
 10
79.2576
 20
42.742
 11
80.4015
 21
41.8157
  0
LINE
  8
0
 10
80.4015
 20
41.8157
 11
78.8039
 21
40.2182
  0
LINE
  8
0
 10
78.8039
 20
40.2182
 11
77.9351
 21
40.9217
  0
LINE
  8
0
 10
187.935
 20
40.9217
 11
186.75
 21
41.6913
  0
LINE
  8
0
 10
186.75
 20
41.6913
 11
185.491
 21
42.3329
  0
LINE
  8
0
 10
185.491
 20
42.3329
 11
184.172
 21
42.8393
  0
LINE
  8
0
 10
184.172
 20
42.8393
 11
182.807
 21
43.205
  0
LINE
  8
0
 10
182.807
 20
43.205
 11
181.411
 21
43.426
  0
LINE
  8
0
 10
181.411
 20
43.426
 11
180
 21
43.5
  0
LINE
  8
0
 10
180
 20
43.5
 11
178.589
 21
43.426
  0
LINE
  8
0
 10
178.589
 20
43.426
 11
177.193
 21
43.205
  0
LINE
  8
0
 10
177.193
 20
43.205
 11
175.828
 21
42.8393
  0
LINE
  8
0
 10
175.828
 20
42.8393
 11
174.509
 21
42.3329
  0
LINE
  8
0
 10
174.509
 20
42.3329
 11
173.25
 21
41.6913
  0
LINE
  8
0
 10
173.25
 20
41.6913
 11
172.065
 21
40.9217
  0
LINE
  8
0
 10
172.065
 20
40.9217
 11
171.196
 21
40.2182
  0
LINE
  8
0
 10
171.196
 20
40.2182
 11
169.598
 21
41.8157
  0
LINE
  8
0
 10
169.598
 20
41.8157
 11
170.742
 21
42.742
  0
LINE
  8
0
 10
170.742
 20
42.742
 11
172.125
 21
43.6399
  0
LINE
  8
0
 10
172.125
 20
43.6399
 11
173.594
 21
44.3883
  0
LINE
  8
0
 10
173.594
 20
44.3883
 11
175.133
 21
44.9791
  0
LINE
  8
0
 10
175.133
 20
44.9791
 11
176.725
 21
45.4058
  0
LINE
  8
0
 10
176.725
 20
45.4058
 11
178.354
 21
45.6637
  0
LINE
  8
0
 10
178.354
 20
45.6637
 11
180
 21
45.75
  0
LINE
  8
0
 10
180
 20
45.75
 11
181.646
 21
45.6637
  0
LINE
  8
0
 10
181.646
 20
45.6637
 11
183.275
 21
45.4058
  0
LINE
  8
0
 10
183.275
 20
45.4058
 11
184.867
 21
44.9791
  0
LINE
  8
0
 10
184.867
 20
44.9791
 11
186.406
 21
44.3883
  0
LINE
  8
0
 10
186.406
 20
44.3883
 11
187.875
 21
43.6399
  0
LINE
  8
0
 10
187.875
 20
43.6399
 11
189.258
 21
42.742
  0
LINE
  8
0
 10
189.258
 20
42.742
 11
190.402
 21
41.8157
  0
LINE
  8
0
 10
190.402
 20
41.8157
 11
188.804
 21
40.2182
  0
LINE
  8
0
 10
188.804
 20
40.2182
 11
187.935
 21
40.9217
  0
LINE
  8
0
 10
4.31406
 20
42.3102
 11
4.07001
 21
42.3553
  0
LINE
  8
0
 10
4.07001
 20
42.3553
 11
3.83511
 21
42.4354
  0
LINE
  8
0
 10
3.83511
 20
42.4354
 11
3.6144
 21
42.5489
  0
LINE
  8
0
 10
3.6144
 20
42.5489
 11
3.41255
 21
42.6933
  0
LINE
  8
0
 10
3.41255
 20
42.6933
 11
3.23389
 21
42.8656
  0
LINE
  8
0
 10
3.23389
 20
42.8656
 11
3.0822
 21
43.062
  0
LINE
  8
0
 10
3.0822
 20
43.062
 11
2.96072
 21
43.2784
  0
LINE
  8
0
 10
2.96072
 20
43.2784
 11
2.87207
 21
43.5102
  0
LINE
  8
0
 10
2.87207
 20
43.5102
 11
2.81812
 21
43.7525
  0
LINE
  8
0
 10
2.81812
 20
43.7525
 11
2.79999
 21
44
  0
LINE
  8
0
 10
2.79999
 20
44
 11
2.81812
 21
44.2475
  0
LINE
  8
0
 10
2.81812
 20
44.2475
 11
2.87207
 21
44.4898
  0
LINE
  8
0
 10
2.87207
 20
44.4898
 11
2.96072
 21
44.7216
  0
LINE
  8
0
 10
2.96072
 20
44.7216
 11
3.0822
 21
44.938
  0
LINE
  8
0
 10
3.0822
 20
44.938
 11
3.23389
 21
45.1344
  0
LINE
  8
0
 10
3.23389
 20
45.1344
 11
3.41255
 21
45.3067
  0
LINE
  8
0
 10
3.41255
 20
45.3067
 11
3.6144
 21
45.4511
  0
LINE
  8
0
 10
3.6144
 20
45.4511
 11
3.83511
 21
45.5646
  0
LINE
  8
0
 10
3.83511
 20
45.5646
 11
4.07001
 21
45.6447
  0
LINE
  8
0
 10
4.07001
 20
45.6447
 11
4.31406
 21
45.6898
  0
LINE
  8
0
 10
4.31406
 20
45.6898
 11
4.56209
 21
45.6989
  0
LINE
  8
0
 10
4.56209
 20
45.6989
 11
4.80878
 21
45.6717
  0
LINE
  8
0
 10
4.80878
 20
45.6717
 11
5.04889
 21
45.6089
  0
LINE
  8
0
 10
5.04889
 20
45.6089
 11
5.2773
 21
45.5119
  0
LINE
  8
0
 10
5.2773
 20
45.5119
 11
5.48915
 21
45.3826
  0
LINE
  8
0
 10
5.48915
 20
45.3826
 11
5.67992
 21
45.2238
  0
LINE
  8
0
 10
5.67992
 20
45.2238
 11
5.84554
 21
45.039
  0
LINE
  8
0
 10
5.84554
 20
45.039
 11
5.98248
 21
44.832
  0
LINE
  8
0
 10
5.98248
 20
44.832
 11
6.08781
 21
44.6073
  0
LINE
  8
0
 10
6.08781
 20
44.6073
 11
6.15932
 21
44.3696
  0
LINE
  8
0
 10
6.15932
 20
44.3696
 11
6.19547
 21
44.1241
  0
LINE
  8
0
 10
6.19547
 20
44.1241
 11
6.19547
 21
43.8759
  0
LINE
  8
0
 10
6.19547
 20
43.8759
 11
6.15932
 21
43.6304
  0
LINE
  8
0
 10
6.15932
 20
43.6304
 11
6.08781
 21
43.3927
  0
LINE
  8
0
 10
6.08781
 20
43.3927
 11
5.98248
 21
43.168
  0
LINE
  8
0
 10
5.98248
 20
43.168
 11
5.84554
 21
42.961
  0
LINE
  8
0
 10
5.84554
 20
42.961
 11
5.67992
 21
42.7762
  0
LINE
  8
0
 10
5.67992
 20
42.7762
 11
5.48915
 21
42.6174
  0
LINE
  8
0
 10
5.48915
 20
42.6174
 11
5.2773
 21
42.4881
  0
LINE
  8
0
 10
5.2773
 20
42.4881
 11
5.04889
 21
42.3911
  0
LINE
  8
0
 10
5.04889
 20
42.3911
 11
4.80878
 21
42.3283
  0
LINE
  8
0
 10
4.80878
 20
42.3283
 11
4.56209
 21
42.3011
  0
LINE
  8
0
 10
4.56209
 20
42.3011
 11
4.31406
 21
42.3102
  0
LINE
  8
0
 10
234.091
 20
42.3283
 11
233.851
 21
42.3911
  0
LINE
  8
0
 10
233.851
 20
42.3911
 11
233.623
 21
42.4881
  0
LINE
  8
0
 10
233.623
 20
42.4881
 11
233.411
 21
42.6174
  0
LINE
  8
0
 10
233.411
 20
42.6174
 11
233.22
 21
42.7762
  0
LINE
  8
0
 10
233.22
 20
42.7762
 11
233.054
 21
42.961
  0
LINE
  8
0
 10
233.054
 20
42.961
 11
232.918
 21
43.168
  0
LINE
  8
0
 10
232.918
 20
43.168
 11
232.812
 21
43.3927
  0
LINE
  8
0
 10
232.812
 20
43.3927
 11
232.741
 21
43.6304
  0
LINE
  8
0
 10
232.741
 20
43.6304
 11
232.705
 21
43.8759
  0
LINE
  8
0
 10
232.705
 20
43.8759
 11
232.705
 21
44.1241
  0
LINE
  8
0
 10
232.705
 20
44.1241
 11
232.741
 21
44.3696
  0
LINE
  8
0
 10
232.741
 20
44.3696
 11
232.812
 21
44.6073
  0
LINE
  8
0
 10
232.812
 20
44.6073
 11
232.918
 21
44.832
  0
LINE
  8
0
 10
232.918
 20
44.832
 11
233.054
 21
45.039
  0
LINE
  8
0
 10
233.054
 20
45.039
 11
233.22
 21
45.2238
  0
LINE
  8
0
 10
233.22
 20
45.2238
 11
233.411
 21
45.3826
  0
LINE
  8
0
 10
233.411
 20
45.3826
 11
233.623
 21
45.5119
  0
LINE
  8
0
 10
233.623
 20
45.5119
 11
233.851
 21
45.6089
  0
LINE
  8
0
 10
233.851
 20
45.6089
 11
234.091
 21
45.6717
  0
LINE
  8
0
 10
234.091
 20
45.6717
 11
234.338
 21
45.6989
  0
LINE
  8
0
 10
234.338
 20
45.6989
 11
234.586
 21
45.6898
  0
LINE
  8
0
 10
234.586
 20
45.6898
 11
234.83
 21
45.6447
  0
LINE
  8
0
 10
234.83
 20
45.6447
 11
235.065
 21
45.5646
  0
LINE
  8
0
 10
235.065
 20
45.5646
 11
235.286
 21
45.4511
  0
LINE
  8
0
 10
235.286
 20
45.4511
 11
235.487
 21
45.3067
  0
LINE
  8
0
 10
235.487
 20
45.3067
 11
235.666
 21
45.1344
  0
LINE
  8
0
 10
235.666
 20
45.1344
 11
235.818
 21
44.938
  0
LINE
  8
0
 10
235.818
 20
44.938
 11
235.939
 21
44.7216
  0
LINE
  8
0
 10
235.939
 20
44.7216
 11
236.028
 21
44.4898
  0
LINE
  8
0
 10
236.028
 20
44.4898
 11
236.082
 21
44.2475
  0
LINE
  8
0
 10
236.082
 20
44.2475
 11
236.1
 21
44
  0
LINE
  8
0
 10
236.1
 20
44
 11
236.082
 21
43.7525
  0
LINE
  8
0
 10
236.082
 20
43.7525
 11
236.028
 21
43.5102
  0
LINE
  8
0
 10
236.028
 20
43.5102
 11
235.939
 21
43.2784
  0
LINE
  8
0
 10
235.939
 20
43.2784
 11
235.818
 21
43.062
  0
LINE
  8
0
 10
235.818
 20
43.062
 11
235.666
 21
42.8656
  0
LINE
  8
0
 10
235.666
 20
42.8656
 11
235.487
 21
42.6933
  0
LINE
  8
0
 10
235.487
 20
42.6933
 11
235.286
 21
42.5489
  0
LINE
  8
0
 10
235.286
 20
42.5489
 11
235.065
 21
42.4354
  0
LINE
  8
0
 10
235.065
 20
42.4354
 11
234.83
 21
42.3553
  0
LINE
  8
0
 10
234.83
 20
42.3553
 11
234.586
 21
42.3102
  0
LINE
  8
0
 10
234.586
 20
42.3102
 11
234.338
 21
42.3011
  0
LINE
  8
0
 10
234.338
 20
42.3011
 11
234.091
 21
42.3283
  0
LINE
  8
0
 10
55.1371
 20
16.6174
 11
53.8197
 21
18.2443
  0
LINE
  8
0
 10
53.8197
 20
18.2443
 11
52.6795
 21
20
  0
LINE
  8
0
 10
52.6795
 20
20
 11
51.7291
 21
21.8653
  0
LINE
  8
0
 10
51.7291
 20
21.8653
 11
50.9789
 21
23.8197
  0
LINE
  8
0
 10
50.9789
 20
23.8197
 11
50.437
 21
25.8418
  0
LINE
  8
0
 10
50.437
 20
25.8418
 11
50.1096
 21
27.9094
  0
LINE
  8
0
 10
50.1096
 20
27.9094
 11
50
 21
30
  0
LINE
  8
0
 10
50
 20
30
 11
50.1096
 21
32.0906
  0
LINE
  8
0
 10
50.1096
 20
32.0906
 11
50.437
 21
34.1582
  0
LINE
  8
0
 10
50.437
 20
34.1582
 11
50.9789
 21
36.1803
  0
LINE
  8
0
 10
50.9789
 20
36.1803
 11
51.7291
 21
38.1347
  0
LINE
  8
0
 10
51.7291
 20
38.1347
 11
52.6795
 21
40
  0
LINE
  8
0
 10
52.6795
 20
40
 11
53.8197
 21
41.7557
  0
LINE
  8
0
 10
53.8197
 20
41.7557
 11
55.1371
 21
43.3826
  0
LINE
  8
0
 10
55.1371
 20
43.3826
 11
55.1701
 21
43.4156
  0
LINE
  8
0
 10
55.1701
 20
43.4156
 11
56.7642
 21
41.8215
  0
LINE
  8
0
 10
56.7642
 20
41.8215
 11
55.6399
 21
40.4332
  0
LINE
  8
0
 10
55.6399
 20
40.4332
 11
54.6281
 21
38.875
  0
LINE
  8
0
 10
54.6281
 20
38.875
 11
53.7846
 21
37.2196
  0
LINE
  8
0
 10
53.7846
 20
37.2196
 11
53.1187
 21
35.485
  0
LINE
  8
0
 10
53.1187
 20
35.485
 11
52.6379
 21
33.6904
  0
LINE
  8
0
 10
52.6379
 20
33.6904
 11
52.3472
 21
31.8554
  0
LINE
  8
0
 10
52.3472
 20
31.8554
 11
52.25
 21
30
  0
LINE
  8
0
 10
52.25
 20
30
 11
52.3472
 21
28.1446
  0
LINE
  8
0
 10
52.3472
 20
28.1446
 11
52.6379
 21
26.3096
  0
LINE
  8
0
 10
52.6379
 20
26.3096
 11
53.1187
 21
24.5149
  0
LINE
  8
0
 10
53.1187
 20
24.5149
 11
53.7846
 21
22.7804
  0
LINE
  8
0
 10
53.7846
 20
22.7804
 11
54.6281
 21
21.125
  0
LINE
  8
0
 10
54.6281
 20
21.125
 11
55.6399
 21
19.5668
  0
LINE
  8
0
 10
55.6399
 20
19.5668
 11
56.7642
 21
18.1784
  0
LINE
  8
0
 10
56.7642
 20
18.1784
 11
55.1701
 21
16.5844
  0
LINE
  8
0
 10
55.1701
 20
16.5844
 11
55.1371
 21
16.6174
  0
LINE
  8
0
 10
165.137
 20
16.6174
 11
163.82
 21
18.2443
  0
LINE
  8
0
 10
163.82
 20
18.2443
 11
162.679
 21
20
  0
LINE
  8
0
 10
162.679
 20
20
 11
161.729
 21
21.8653
  0
LINE
  8
0
 10
161.729
 20
21.8653
 11
160.979
 21
23.8197
  0
LINE
  8
0
 10
160.979
 20
23.8197
 11
160.437
 21
25.8418
  0
LINE
  8
0
 10
160.437
 20
25.8418
 11
160.11
 21
27.9094
  0
LINE
  8
0
 10
160.11
 20
27.9094
 11
160
 21
30
  0
LINE
  8
0
 10
160
 20
30
 11
160.11
 21
32.0906
  0
LINE
  8
0
 10
160.11
 20
32.0906
 11
160.437
 21
34.1582
  0
LINE
  8
0
 10
160.437
 20
34.1582
 11
160.979
 21
36.1803
  0
LINE
  8
0
 10
160.979
 20
36.1803
 11
161.729
 21
38.1347
  0
LINE
  8
0
 10
161.729
 20
38.1347
 11
162.679
 21
40
  0
LINE
  8
0
 10
162.679
 20
40
 11
163.82
 21
41.7557
  0
LINE
  8
0
 10
163.82
 20
41.7557
 11
165.137
 21
43.3826
  0
LINE
  8
0
 10
165.137
 20
43.3826
 11
165.17
 21
43.4156
  0
LINE
  8
0
 10
165.17
 20
43.4156
 11
166.764
 21
41.8215
  0
LINE
  8
0
 10
166.764
 20
41.8215
 11
165.64
 21
40.4332
  0
LINE
  8
0
 10
165.64
 20
40.4332
 11
164.628
 21
38.875
  0
LINE
  8
0
 10
164.628
 20
38.875
 11
163.785
 21
37.2196
  0
LINE
  8
0
 10
163.785
 20
37.2196
 11
163.119
 21
35.485
  0
LINE
  8
0
 10
163.119
 20
35.485
 11
162.638
 21
33.6904
  0
LINE
  8
0
 10
162.638
 20
33.6904
 11
162.347
 21
31.8554
  0
LINE
  8
0
 10
162.347
 20
31.8554
 11
162.25
 21
30
  0
LINE
  8
0
 10
162.25
 20
30
 11
162.347
 21
28.1446
  0
LINE
  8
0
 10
162.347
 20
28.1446
 11
162.638
 21
26.3096
  0
LINE
  8
0
 10
162.638
 20
26.3096
 11
163.119
 21
24.5149
  0
LINE
  8
0
 10
163.119
 20
24.5149
 11
163.785
 21
22.7804
  0
LINE
  8
0
 10
163.785
 20
22.7804
 11
164.628
 21
21.125
  0
LINE
  8
0
 10
164.628
 20
21.125
 11
165.64
 21
19.5668
  0
LINE
  8
0
 10
165.64
 20
19.5668
 11
166.764
 21
18.1784
  0
LINE
  8
0
 10
166.764
 20
18.1784
 11
165.17
 21
16.5844
  0
LINE
  8
0
 10
165.17
 20
16.5844
 11
165.137
 21
16.6174
  0
LINE
  8
0
 10
83.2358
 20
18.1784
 11
84.36
 21
19.5668
  0
LINE
  8
0
 10
84.36
 20
19.5668
 11
85.3719
 21
21.125
  0
LINE
  8
0
 10
85.3719
 20
21.125
 11
86.2154
 21
22.7804
  0
LINE
  8
0
 10
86.2154
 20
22.7804
 11
86.8813
 21
24.5149
  0
LINE
  8
0
 10
86.8813
 20
24.5149
 11
87.3621
 21
26.3096
  0
LINE
  8
0
 10
87.3621
 20
26.3096
 11
87.6528
 21
28.1446
  0
LINE
  8
0
 10
87.6528
 20
28.1446
 11
87.75
 21
30
  0
LINE
  8
0
 10
87.75
 20
30
 11
87.6528
 21
31.8554
  0
LINE
  8
0
 10
87.6528
 20
31.8554
 11
87.3621
 21
33.6904
  0
LINE
  8
0
 10
87.3621
 20
33.6904
 11
86.8813
 21
35.485
  0
LINE
  8
0
 10
86.8813
 20
35.485
 11
86.2154
 21
37.2196
  0
LINE
  8
0
 10
86.2154
 20
37.2196
 11
85.3719
 21
38.875
  0
LINE
  8
0
 10
85.3719
 20
38.875
 11
84.36
 21
40.4332
  0
LINE
  8
0
 10
84.36
 20
40.4332
 11
83.2358
 21
41.8215
  0
LINE
  8
0
 10
83.2358
 20
41.8215
 11
84.8298
 21
43.4156
  0
LINE
  8
0
 10
84.8298
 20
43.4156
 11
84.8629
 21
43.3826
  0
LINE
  8
0
 10
84.8629
 20
43.3826
 11
86.1803
 21
41.7557
  0
LINE
  8
0
 10
86.1803
 20
41.7557
 11
87.3205
 21
40
  0
LINE
  8
0
 10
87.3205
 20
40
 11
88.2709
 21
38.1347
  0
LINE
  8
0
 10
88.2709
 20
38.1347
 11
89.0211
 21
36.1803
  0
LINE
  8
0
 10
89.0211
 20
36.1803
 11
89.5629
 21
34.1582
  0
LINE
  8
0
 10
89.5629
 20
34.1582
 11
89.8904
 21
32.0906
  0
LINE
  8
0
 10
89.8904
 20
32.0906
 11
90
 21
30
  0
LINE
  8
0
 10
90
 20
30
 11
89.8904
 21
27.9094
  0
LINE
  8
0
 10
89.8904
 20
27.9094
 11
89.5629
 21
25.8418
  0
LINE
  8
0
 10
89.5629
 20
25.8418
 11
89.0211
 21
23.8197
  0
LINE
  8
0
 10
89.0211
 20
23.8197
 11
88.2709
 21
21.8653
  0
LINE
  8
0
 10
88.2709
 20
21.8653
 11
87.3205
 21
20
  0
LINE
  8
0
 10
87.3205
 20
20
 11
86.1803
 21
18.2443
  0
LINE
  8
0
 10
86.1803
 20
18.2443
 11
84.8629
 21
16.6174
  0
LINE
  8
0
 10
84.8629
 20
16.6174
 11
84.8298
 21
16.5844
  0
LINE
  8
0
 10
84.8298
 20
16.5844
 11
83.2358
 21
18.1784
  0
LINE
  8
0
 10
193.236
 20
18.1784
 11
194.36
 21
19.5668
  0
LINE
  8
0
 10
194.36
 20
19.5668
 11
195.372
 21
21.125
  0
LINE
  8
0
 10
195.372
 20
21.125
 11
196.215
 21
22.7804
  0
LINE
  8
0
 10
196.215
 20
22.7804
 11
196.881
 21
24.5149
  0
LINE
  8
0
 10
196.881
 20
24.5149
 11
197.362
 21
26.3096
  0
LINE
  8
0
 10
197.362
 20
26.3096
 11
197.653
 21
28.1446
  0
LINE
  8
0
 10
197.653
 20
28.1446
 11
197.75
 21
30
  0
LINE
  8
0
 10
197.75
 20
30
 11
197.653
 21
31.8554
  0
LINE
  8
0
 10
197.653
 20
31.8554
 11
197.362
 21
33.6904
  0
LINE
  8
0
 10
197.362
 20
33.6904
 11
196.881
 21
35.485
  0
LINE
  8
0
 10
196.881
 20
35.485
 11
196.215
 21
37.2196
  0
LINE
  8
0
 10
196.215
 20
37.2196
 11
195.372
 21
38.875
  0
LINE
  8
0
 10
195.372
 20
38.875
 11
194.36
 21
40.4332
  0
LINE
  8
0
 10
194.36
 20
40.4332
 11
193.236
 21
41.8215
  0
LINE
  8
0
 10
193.236
 20
41.8215
 11
194.83
 21
43.4156
  0
LINE
  8
0
 10
194.83
 20
43.4156
 11
194.863
 21
43.3826
  0
LINE
  8
0
 10
194.863
 20
43.3826
 11
196.18
 21
41.7557
  0
LINE
  8
0
 10
196.18
 20
41.7557
 11
197.321
 21
40
  0
LINE
  8
0
 10
197.321
 20
40
 11
198.271
 21
38.1347
  0
LINE
  8
0
 10
198.271
 20
38.1347
 11
199.021
 21
36.1803
  0
LINE
  8
0
 10
199.021
 20
36.1803
 11
199.563
 21
34.1582
  0
LINE
  8
0
 10
199.563
 20
34.1582
 11
199.89
 21
32.0906
  0
LINE
  8
0
 10
199.89
 20
32.0906
 11
200
 21
30
  0
LINE
  8
0
 10
200
 20
30
 11
199.89
 21
27.9094
  0
LINE
  8
0
 10
199.89
 20
27.9094
 11
199.563
 21
25.8418
  0
LINE
  8
0
 10
199.563
 20
25.8418
 11
199.021
 21
23.8197
  0
LINE
  8
0
 10
199.021
 20
23.8197
 11
198.271
 21
21.8653
  0
LINE
  8
0
 10
198.271
 20
21.8653
 11
197.321
 21
20
  0
LINE
  8
0
 10
197.321
 20
20
 11
196.18
 21
18.2443
  0
LINE
  8
0
 10
196.18
 20
18.2443
 11
194.863
 21
16.6174
  0
LINE
  8
0
 10
194.863
 20
16.6174
 11
194.83
 21
16.5844
  0
LINE
  8
0
 10
194.83
 20
16.5844
 11
193.236
 21
18.1784
  0
LINE
  8
0
 10
185.437
 20
37.4834
 11
184.625
 21
38.0107
  0
LINE
  8
0
 10
184.625
 20
38.0107
 11
183.762
 21
38.4503
  0
LINE
  8
0
 10
183.762
 20
38.4503
 11
182.858
 21
38.7973
  0
LINE
  8
0
 10
182.858
 20
38.7973
 11
181.923
 21
39.0479
  0
LINE
  8
0
 10
181.923
 20
39.0479
 11
180.967
 21
39.1993
  0
LINE
  8
0
 10
180.967
 20
39.1993
 11
180
 21
39.25
  0
LINE
  8
0
 10
180
 20
39.25
 11
179.033
 21
39.1993
  0
LINE
  8
0
 10
179.033
 20
39.1993
 11
178.077
 21
39.0479
  0
LINE
  8
0
 10
178.077
 20
39.0479
 11
177.142
 21
38.7973
  0
LINE
  8
0
 10
177.142
 20
38.7973
 11
176.238
 21
38.4503
  0
LINE
  8
0
 10
176.238
 20
38.4503
 11
175.375
 21
38.0107
  0
LINE
  8
0
 10
175.375
 20
38.0107
 11
174.563
 21
37.4834
  0
LINE
  8
0
 10
174.563
 20
37.4834
 11
174.214
 21
37.2005
  0
LINE
  8
0
 10
174.214
 20
37.2005
 11
172.616
 21
38.7981
  0
LINE
  8
0
 10
172.616
 20
38.7981
 11
173.24
 21
39.3037
  0
LINE
  8
0
 10
173.24
 20
39.3037
 11
174.25
 21
39.9593
  0
LINE
  8
0
 10
174.25
 20
39.9593
 11
175.323
 21
40.5058
  0
LINE
  8
0
 10
175.323
 20
40.5058
 11
176.446
 21
40.9371
  0
LINE
  8
0
 10
176.446
 20
40.9371
 11
177.609
 21
41.2487
  0
LINE
  8
0
 10
177.609
 20
41.2487
 11
178.798
 21
41.437
  0
LINE
  8
0
 10
178.798
 20
41.437
 11
180
 21
41.5
  0
LINE
  8
0
 10
180
 20
41.5
 11
181.202
 21
41.437
  0
LINE
  8
0
 10
181.202
 20
41.437
 11
182.391
 21
41.2487
  0
LINE
  8
0
 10
182.391
 20
41.2487
 11
183.554
 21
40.9371
  0
LINE
  8
0
 10
183.554
 20
40.9371
 11
184.677
 21
40.5058
  0
LINE
  8
0
 10
184.677
 20
40.5058
 11
185.75
 21
39.9593
  0
LINE
  8
0
 10
185.75
 20
39.9593
 11
186.76
 21
39.3037
  0
LINE
  8
0
 10
186.76
 20
39.3037
 11
187.384
 21
38.7981
  0
LINE
  8
0
 10
187.384
 20
38.7981
 11
185.786
 21
37.2005
  0
LINE
  8
0
 10
185.786
 20
37.2005
 11
185.437
 21
37.4834
  0
LINE
  8
0
 10
75.437
 20
37.4834
 11
74.625
 21
38.0107
  0
LINE
  8
0
 10
74.625
 20
38.0107
 11
73.7623
 21
38.4503
  0
LINE
  8
0
 10
73.7623
 20
38.4503
 11
72.8584
 21
38.7973
  0
LINE
  8
0
 10
72.8584
 20
38.7973
 11
71.9232
 21
39.0479
  0
LINE
  8
0
 10
71.9232
 20
39.0479
 11
70.9669
 21
39.1993
  0
LINE
  8
0
 10
70.9669
 20
39.1993
 11
70
 21
39.25
  0
LINE
  8
0
 10
70
 20
39.25
 11
69.0331
 21
39.1993
  0
LINE
  8
0
 10
69.0331
 20
39.1993
 11
68.0768
 21
39.0479
  0
LINE
  8
0
 10
68.0768
 20
39.0479
 11
67.1416
 21
38.7973
  0
LINE
  8
0
 10
67.1416
 20
38.7973
 11
66.2377
 21
38.4503
  0
LINE
  8
0
 10
66.2377
 20
38.4503
 11
65.375
 21
38.0107
  0
LINE
  8
0
 10
65.375
 20
38.0107
 11
64.563
 21
37.4834
  0
LINE
  8
0
 10
64.563
 20
37.4834
 11
64.2137
 21
37.2005
  0
LINE
  8
0
 10
64.2137
 20
37.2005
 11
62.6161
 21
38.7981
  0
LINE
  8
0
 10
62.6161
 20
38.7981
 11
63.2405
 21
39.3037
  0
LINE
  8
0
 10
63.2405
 20
39.3037
 11
64.25
 21
39.9593
  0
LINE
  8
0
 10
64.25
 20
39.9593
 11
65.3225
 21
40.5058
  0
LINE
  8
0
 10
65.3225
 20
40.5058
 11
66.4463
 21
40.9371
  0
LINE
  8
0
 10
66.4463
 20
40.9371
 11
67.609
 21
41.2487
  0
LINE
  8
0
 10
67.609
 20
41.2487
 11
68.7979
 21
41.437
  0
LINE
  8
0
 10
68.7979
 20
41.437
 11
70
 21
41.5
  0
LINE
  8
0
 10
70
 20
41.5
 11
71.2021
 21
41.437
  0
LINE
  8
0
 10
71.2021
 20
41.437
 11
72.391
 21
41.2487
  0
LINE
  8
0
 10
72.391
 20
41.2487
 11
73.5537
 21
40.9371
  0
LINE
  8
0
 10
73.5537
 20
40.9371
 11
74.6775
 21
40.5058
  0
LINE
  8
0
 10
74.6775
 20
40.5058
 11
75.75
 21
39.9593
  0
LINE
  8
0
 10
75.75
 20
39.9593
 11
76.7595
 21
39.3037
  0
LINE
  8
0
 10
76.7595
 20
39.3037
 11
77.3839
 21
38.7981
  0
LINE
  8
0
 10
77.3839
 20
38.7981
 11
75.7863
 21
37.2005
  0
LINE
  8
0
 10
75.7863
 20
37.2005
 11
75.437
 21
37.4834
  0
LINE
  8
0
 10
80.2182
 20
21.196
 11
80.9217
 21
22.0649
  0
LINE
  8
0
 10
80.9217
 20
22.0649
 11
81.6913
 21
23.25
  0
LINE
  8
0
 10
81.6913
 20
23.25
 11
82.3329
 21
24.509
  0
LINE
  8
0
 10
82.3329
 20
24.509
 11
82.8393
 21
25.8283
  0
LINE
  8
0
 10
82.8393
 20
25.8283
 11
83.205
 21
27.1932
  0
LINE
  8
0
 10
83.205
 20
27.1932
 11
83.426
 21
28.5889
  0
LINE
  8
0
 10
83.426
 20
28.5889
 11
83.5
 21
30
  0
LINE
  8
0
 10
83.5
 20
30
 11
83.426
 21
31.4111
  0
LINE
  8
0
 10
83.426
 20
31.4111
 11
83.205
 21
32.8068
  0
LINE
  8
0
 10
83.205
 20
32.8068
 11
82.8393
 21
34.1717
  0
LINE
  8
0
 10
82.8393
 20
34.1717
 11
82.3329
 21
35.4909
  0
LINE
  8
0
 10
82.3329
 20
35.4909
 11
81.6913
 21
36.75
  0
LINE
  8
0
 10
81.6913
 20
36.75
 11
80.9217
 21
37.9351
  0
LINE
  8
0
 10
80.9217
 20
37.9351
 11
80.2182
 21
38.8039
  0
LINE
  8
0
 10
80.2182
 20
38.8039
 11
81.8157
 21
40.4015
  0
LINE
  8
0
 10
81.8157
 20
40.4015
 11
82.742
 21
39.2576
  0
LINE
  8
0
 10
82.742
 20
39.2576
 11
83.6399
 21
37.875
  0
LINE
  8
0
 10
83.6399
 20
37.875
 11
84.3883
 21
36.4061
  0
LINE
  8
0
 10
84.3883
 20
36.4061
 11
84.9791
 21
34.867
  0
LINE
  8
0
 10
84.9791
 20
34.867
 11
85.4058
 21
33.2746
  0
LINE
  8
0
 10
85.4058
 20
33.2746
 11
85.6637
 21
31.6463
  0
LINE
  8
0
 10
85.6637
 20
31.6463
 11
85.75
 21
30
  0
LINE
  8
0
 10
85.75
 20
30
 11
85.6637
 21
28.3537
  0
LINE
  8
0
 10
85.6637
 20
28.3537
 11
85.4058
 21
26.7254
  0
LINE
  8
0
 10
85.4058
 20
26.7254
 11
84.9791
 21
25.133
  0
LINE
  8
0
 10
84.9791
 20
25.133
 11
84.3883
 21
23.5939
  0
LINE
  8
0
 10
84.3883
 20
23.5939
 11
83.6399
 21
22.125
  0
LINE
  8
0
 10
83.6399
 20
22.125
 11
82.742
 21
20.7424
  0
LINE
  8
0
 10
82.742
 20
20.7424
 11
81.8157
 21
19.5985
  0
LINE
  8
0
 10
81.8157
 20
19.5985
 11
80.2182
 21
21.196
  0
LINE
  8
0
 10
57.258
 20
20.7424
 11
56.3601
 21
22.125
  0
LINE
  8
0
 10
56.3601
 20
22.125
 11
55.6116
 21
23.5939
  0
LINE
  8
0
 10
55.6116
 20
23.5939
 11
55.0209
 21
25.133
  0
LINE
  8
0
 10
55.0209
 20
25.133
 11
54.5942
 21
26.7254
  0
LINE
  8
0
 10
54.5942
 20
26.7254
 11
54.3363
 21
28.3537
  0
LINE
  8
0
 10
54.3363
 20
28.3537
 11
54.25
 21
30
  0
LINE
  8
0
 10
54.25
 20
30
 11
54.3363
 21
31.6463
  0
LINE
  8
0
 10
54.3363
 20
31.6463
 11
54.5942
 21
33.2746
  0
LINE
  8
0
 10
54.5942
 20
33.2746
 11
55.0209
 21
34.867
  0
LINE
  8
0
 10
55.0209
 20
34.867
 11
55.6116
 21
36.4061
  0
LINE
  8
0
 10
55.6116
 20
36.4061
 11
56.3601
 21
37.875
  0
LINE
  8
0
 10
56.3601
 20
37.875
 11
57.258
 21
39.2576
  0
LINE
  8
0
 10
57.258
 20
39.2576
 11
58.1843
 21
40.4015
  0
LINE
  8
0
 10
58.1843
 20
40.4015
 11
59.7818
 21
38.8039
  0
LINE
  8
0
 10
59.7818
 20
38.8039
 11
59.0783
 21
37.9351
  0
LINE
  8
0
 10
59.0783
 20
37.9351
 11
58.3087
 21
36.75
  0
LINE
  8
0
 10
58.3087
 20
36.75
 11
57.6671
 21
35.4909
  0
LINE
  8
0
 10
57.6671
 20
35.4909
 11
57.1607
 21
34.1717
  0
LINE
  8
0
 10
57.1607
 20
34.1717
 11
56.795
 21
32.8068
  0
LINE
  8
0
 10
56.795
 20
32.8068
 11
56.5739
 21
31.4111
  0
LINE
  8
0
 10
56.5739
 20
31.4111
 11
56.5
 21
30
  0
LINE
  8
0
 10
56.5
 20
30
 11
56.5739
 21
28.5889
  0
LINE
  8
0
 10
56.5739
 20
28.5889
 11
56.795
 21
27.1932
  0
LINE
  8
0
 10
56.795
 20
27.1932
 11
57.1607
 21
25.8283
  0
LINE
  8
0
 10
57.1607
 20
25.8283
 11
57.6671
 21
24.509
  0
LINE
  8
0
 10
57.6671
 20
24.509
 11
58.3087
 21
23.25
  0
LINE
  8
0
 10
58.3087
 20
23.25
 11
59.0783
 21
22.0649
  0
LINE
  8
0
 10
59.0783
 20
22.0649
 11
59.7818
 21
21.196
  0
LINE
  8
0
 10
59.7818
 20
21.196
 11
58.1843
 21
19.5985
  0
LINE
  8
0
 10
58.1843
 20
19.5985
 11
57.258
 21
20.7424
  0
LINE
  8
0
 10
167.258
 20
20.7424
 11
166.36
 21
22.125
  0
LINE
  8
0
 10
166.36
 20
22.125
 11
165.612
 21
23.5939
  0
LINE
  8
0
 10
165.612
 20
23.5939
 11
165.021
 21
25.133
  0
LINE
  8
0
 10
165.021
 20
25.133
 11
164.594
 21
26.7254
  0
LINE
  8
0
 10
164.594
 20
26.7254
 11
164.336
 21
28.3537
  0
LINE
  8
0
 10
164.336
 20
28.3537
 11
164.25
 21
30
  0
LINE
  8
0
 10
164.25
 20
30
 11
164.336
 21
31.6463
  0
LINE
  8
0
 10
164.336
 20
31.6463
 11
164.594
 21
33.2746
  0
LINE
  8
0
 10
164.594
 20
33.2746
 11
165.021
 21
34.867
  0
LINE
  8
0
 10
165.021
 20
34.867
 11
165.612
 21
36.4061
  0
LINE
  8
0
 10
165.612
 20
36.4061
 11
166.36
 21
37.875
  0
LINE
  8
0
 10
166.36
 20
37.875
 11
167.258
 21
39.2576
  0
LINE
  8
0
 10
167.258
 20
39.2576
 11
168.184
 21
40.4015
  0
LINE
  8
0
 10
168.184
 20
40.4015
 11
169.782
 21
38.8039
  0
LINE
  8
0
 10
169.782
 20
38.8039
 11
169.078
 21
37.9351
  0
LINE
  8
0
 10
169.078
 20
37.9351
 11
168.309
 21
36.75
  0
LINE
  8
0
 10
168.309
 20
36.75
 11
167.667
 21
35.4909
  0
LINE
  8
0
 10
167.667
 20
35.4909
 11
167.161
 21
34.1717
  0
LINE
  8
0
 10
167.161
 20
34.1717
 11
166.795
 21
32.8068
  0
LINE
  8
0
 10
166.795
 20
32.8068
 11
166.574
 21
31.4111
  0
LINE
  8
0
 10
166.574
 20
31.4111
 11
166.5
 21
30
  0
LINE
  8
0
 10
166.5
 20
30
 11
166.574
 21
28.5889
  0
LINE
  8
0
 10
166.574
 20
28.5889
 11
166.795
 21
27.1932
  0
LINE
  8
0
 10
166.795
 20
27.1932
 11
167.161
 21
25.8283
  0
LINE
  8
0
 10
167.161
 20
25.8283
 11
167.667
 21
24.509
  0
LINE
  8
0
 10
167.667
 20
24.509
 11
168.309
 21
23.25
  0
LINE
  8
0
 10
168.309
 20
23.25
 11
169.078
 21
22.0649
  0
LINE
  8
0
 10
169.078
 20
22.0649
 11
169.782
 21
21.196
  0
LINE
  8
0
 10
169.782
 20
21.196
 11
168.184
 21
19.5985
  0
LINE
  8
0
 10
168.184
 20
19.5985
 11
167.258
 21
20.7424
  0
LINE
  8
0
 10
190.218
 20
21.196
 11
190.922
 21
22.0649
  0
LINE
  8
0
 10
190.922
 20
22.0649
 11
191.691
 21
23.25
  0
LINE
  8
0
 10
191.691
 20
23.25
 11
192.333
 21
24.509
  0
LINE
  8
0
 10
192.333
 20
24.509
 11
192.839
 21
25.8283
  0
LINE
  8
0
 10
192.839
 20
25.8283
 11
193.205
 21
27.1932
  0
LINE
  8
0
 10
193.205
 20
27.1932
 11
193.426
 21
28.5889
  0
LINE
  8
0
 10
193.426
 20
28.5889
 11
193.5
 21
30
  0
LINE
  8
0
 10
193.5
 20
30
 11
193.426
 21
31.4111
  0
LINE
  8
0
 10
193.426
 20
31.4111
 11
193.205
 21
32.8068
  0
LINE
  8
0
 10
193.205
 20
32.8068
 11
192.839
 21
34.1717
  0
LINE
  8
0
 10
192.839
 20
34.1717
 11
192.333
 21
35.4909
  0
LINE
  8
0
 10
192.333
 20
35.4909
 11
191.691
 21
36.75
  0
LINE
  8
0
 10
191.691
 20
36.75
 11
190.922
 21
37.9351
  0
LINE
  8
0
 10
190.922
 20
37.9351
 11
190.218
 21
38.8039
  0
LINE
  8
0
 10
190.218
 20
38.8039
 11
191.816
 21
40.4015
  0
LINE
  8
0
 10
191.816
 20
40.4015
 11
192.742
 21
39.2576
  0
LINE
  8
0
 10
192.742
 20
39.2576
 11
193.64
 21
37.875
  0
LINE
  8
0
 10
193.64
 20
37.875
 11
194.388
 21
36.4061
  0
LINE
  8
0
 10
194.388
 20
36.4061
 11
194.979
 21
34.867
  0
LINE
  8
0
 10
194.979
 20
34.867
 11
195.406
 21
33.2746
  0
LINE
  8
0
 10
195.406
 20
33.2746
 11
195.664
 21
31.6463
  0
LINE
  8
0
 10
195.664
 20
31.6463
 11
195.75
 21
30
  0
LINE
  8
0
 10
195.75
 20
30
 11
195.664
 21
28.3537
  0
LINE
  8
0
 10
195.664
 20
28.3537
 11
195.406
 21
26.7254
  0
LINE
  8
0
 10
195.406
 20
26.7254
 11
194.979
 21
25.133
  0
LINE
  8
0
 10
194.979
 20
25.133
 11
194.388
 21
23.5939
  0
LINE
  8
0
 10
194.388
 20
23.5939
 11
193.64
 21
22.125
  0
LINE
  8
0
 10
193.64
 20
22.125
 11
192.742
 21
20.7424
  0
LINE
  8
0
 10
192.742
 20
20.7424
 11
191.816
 21
19.5985
  0
LINE
  8
0
 10
191.816
 20
19.5985
 11
190.218
 21
21.196
  0
LINE
  8
0
 10
187.201
 20
24.2137
 11
187.483
 21
24.563
  0
LINE
  8
0
 10
187.483
 20
24.563
 11
188.011
 21
25.375
  0
LINE
  8
0
 10
188.011
 20
25.375
 11
188.45
 21
26.2377
  0
LINE
  8
0
 10
188.45
 20
26.2377
 11
188.797
 21
27.1416
  0
LINE
  8
0
 10
188.797
 20
27.1416
 11
189.048
 21
28.0768
  0
LINE
  8
0
 10
189.048
 20
28.0768
 11
189.199
 21
29.0331
  0
LINE
  8
0
 10
189.199
 20
29.0331
 11
189.25
 21
30
  0
LINE
  8
0
 10
189.25
 20
30
 11
189.199
 21
30.9669
  0
LINE
  8
0
 10
189.199
 20
30.9669
 11
189.048
 21
31.9232
  0
LINE
  8
0
 10
189.048
 20
31.9232
 11
188.797
 21
32.8584
  0
LINE
  8
0
 10
188.797
 20
32.8584
 11
188.45
 21
33.7623
  0
LINE
  8
0
 10
188.45
 20
33.7623
 11
188.011
 21
34.625
  0
LINE
  8
0
 10
188.011
 20
34.625
 11
187.483
 21
35.437
  0
LINE
  8
0
 10
187.483
 20
35.437
 11
187.201
 21
35.7863
  0
LINE
  8
0
 10
187.201
 20
35.7863
 11
188.798
 21
37.3839
  0
LINE
  8
0
 10
188.798
 20
37.3839
 11
189.304
 21
36.7595
  0
LINE
  8
0
 10
189.304
 20
36.7595
 11
189.959
 21
35.75
  0
LINE
  8
0
 10
189.959
 20
35.75
 11
190.506
 21
34.6775
  0
LINE
  8
0
 10
190.506
 20
34.6775
 11
190.937
 21
33.5537
  0
LINE
  8
0
 10
190.937
 20
33.5537
 11
191.249
 21
32.391
  0
LINE
  8
0
 10
191.249
 20
32.391
 11
191.437
 21
31.2021
  0
LINE
  8
0
 10
191.437
 20
31.2021
 11
191.5
 21
30
  0
LINE
  8
0
 10
191.5
 20
30
 11
191.437
 21
28.7979
  0
LINE
  8
0
 10
191.437
 20
28.7979
 11
191.249
 21
27.609
  0
LINE
  8
0
 10
191.249
 20
27.609
 11
190.937
 21
26.4463
  0
LINE
  8
0
 10
190.937
 20
26.4463
 11
190.506
 21
25.3225
  0
LINE
  8
0
 10
190.506
 20
25.3225
 11
189.959
 21
24.25
  0
LINE
  8
0
 10
189.959
 20
24.25
 11
189.304
 21
23.2405
  0
LINE
  8
0
 10
189.304
 20
23.2405
 11
188.798
 21
22.6161
  0
LINE
  8
0
 10
188.798
 20
22.6161
 11
187.201
 21
24.2137
  0
LINE
  8
0
 10
60.6963
 20
23.2405
 11
60.0407
 21
24.25
  0
LINE
  8
0
 10
60.0407
 20
24.25
 11
59.4942
 21
25.3225
  0
LINE
  8
0
 10
59.4942
 20
25.3225
 11
59.0629
 21
26.4463
  0
LINE
  8
0
 10
59.0629
 20
26.4463
 11
58.7513
 21
27.609
  0
LINE
  8
0
 10
58.7513
 20
27.609
 11
58.563
 21
28.7979
  0
LINE
  8
0
 10
58.563
 20
28.7979
 11
58.5
 21
30
  0
LINE
  8
0
 10
58.5
 20
30
 11
58.563
 21
31.2021
  0
LINE
  8
0
 10
58.563
 20
31.2021
 11
58.7513
 21
32.391
  0
LINE
  8
0
 10
58.7513
 20
32.391
 11
59.0629
 21
33.5537
  0
LINE
  8
0
 10
59.0629
 20
33.5537
 11
59.4942
 21
34.6775
  0
LINE
  8
0
 10
59.4942
 20
34.6775
 11
60.0407
 21
35.75
  0
LINE
  8
0
 10
60.0407
 20
35.75
 11
60.6963
 21
36.7595
  0
LINE
  8
0
 10
60.6963
 20
36.7595
 11
61.2019
 21
37.3839
  0
LINE
  8
0
 10
61.2019
 20
37.3839
 11
62.7995
 21
35.7863
  0
LINE
  8
0
 10
62.7995
 20
35.7863
 11
62.5166
 21
35.437
  0
LINE
  8
0
 10
62.5166
 20
35.437
 11
61.9893
 21
34.625
  0
LINE
  8
0
 10
61.9893
 20
34.625
 11
61.5497
 21
33.7623
  0
LINE
  8
0
 10
61.5497
 20
33.7623
 11
61.2027
 21
32.8584
  0
LINE
  8
0
 10
61.2027
 20
32.8584
 11
60.9521
 21
31.9232
  0
LINE
  8
0
 10
60.9521
 20
31.9232
 11
60.8007
 21
30.9669
  0
LINE
  8
0
 10
60.8007
 20
30.9669
 11
60.75
 21
30
  0
LINE
  8
0
 10
60.75
 20
30
 11
60.8007
 21
29.0331
  0
LINE
  8
0
 10
60.8007
 20
29.0331
 11
60.9521
 21
28.0768
  0
LINE
  8
0
 10
60.9521
 20
28.0768
 11
61.2027
 21
27.1416
  0
LINE
  8
0
 10
61.2027
 20
27.1416
 11
61.5497
 21
26.2377
  0
LINE
  8
0
 10
61.5497
 20
26.2377
 11
61.9893
 21
25.375
  0
LINE
  8
0
 10
61.9893
 20
25.375
 11
62.5166
 21
24.563
  0
LINE
  8
0
 10
62.5166
 20
24.563
 11
62.7995
 21
24.2137
  0
LINE
  8
0
 10
62.7995
 20
24.2137
 11
61.2019
 21
22.6161
  0
LINE
  8
0
 10
61.2019
 20
22.6161
 11
60.6963
 21
23.2405
  0
LINE
  8
0
 10
170.696
 20
23.2405
 11
170.041
 21
24.25
  0
LINE
  8
0
 10
170.041
 20
24.25
 11
169.494
 21
25.3225
  0
LINE
  8
0
 10
169.494
 20
25.3225
 11
169.063
 21
26.4463
  0
LINE
  8
0
 10
169.063
 20
26.4463
 11
168.751
 21
27.609
  0
LINE
  8
0
 10
168.751
 20
27.609
 11
168.563
 21
28.7979
  0
LINE
  8
0
 10
168.563
 20
28.7979
 11
168.5
 21
30
  0
LINE
  8
0
 10
168.5
 20
30
 11
168.563
 21
31.2021
  0
LINE
  8
0
 10
168.563
 20
31.2021
 11
168.751
 21
32.391
  0
LINE
  8
0
 10
168.751
 20
32.391
 11
169.063
 21
33.5537
  0
LINE
  8
0
 10
169.063
 20
33.5537
 11
169.494
 21
34.6775
  0
LINE
  8
0
 10
169.494
 20
34.6775
 11
170.041
 21
35.75
  0
LINE
  8
0
 10
170.041
 20
35.75
 11
170.696
 21
36.7595
  0
LINE
  8
0
 10
170.696
 20
36.7595
 11
171.202
 21
37.3839
  0
LINE
  8
0
 10
171.202
 20
37.3839
 11
172.799
 21
35.7863
  0
LINE
  8
0
 10
172.799
 20
35.7863
 11
172.517
 21
35.437
  0
LINE
  8
0
 10
172.517
 20
35.437
 11
171.989
 21
34.625
  0
LINE
  8
0
 10
171.989
 20
34.625
 11
171.55
 21
33.7623
  0
LINE
  8
0
 10
171.55
 20
33.7623
 11
171.203
 21
32.8584
  0
LINE
  8
0
 10
171.203
 20
32.8584
 11
170.952
 21
31.9232
  0
LINE
  8
0
 10
170.952
 20
31.9232
 11
170.801
 21
30.9669
  0
LINE
  8
0
 10
170.801
 20
30.9669
 11
170.75
 21
30
  0
LINE
  8
0
 10
170.75
 20
30
 11
170.801
 21
29.0331
  0
LINE
  8
0
 10
170.801
 20
29.0331
 11
170.952
 21
28.0768
  0
LINE
  8
0
 10
170.952
 20
28.0768
 11
171.203
 21
27.1416
  0
LINE
  8
0
 10
171.203
 20
27.1416
 11
171.55
 21
26.2377
  0
LINE
  8
0
 10
171.55
 20
26.2377
 11
171.989
 21
25.375
  0
LINE
  8
0
 10
171.989
 20
25.375
 11
172.517
 21
24.563
  0
LINE
  8
0
 10
172.517
 20
24.563
 11
172.799
 21
24.2137
  0
LINE
  8
0
 10
172.799
 20
24.2137
 11
171.202
 21
22.6161
  0
LINE
  8
0
 10
171.202
 20
22.6161
 11
170.696
 21
23.2405
  0
LINE
  8
0
 10
77.2005
 20
24.2137
 11
77.4834
 21
24.563
  0
LINE
  8
0
 10
77.4834
 20
24.563
 11
78.0107
 21
25.375
  0
LINE
  8
0
 10
78.0107
 20
25.375
 11
78.4503
 21
26.2377
  0
LINE
  8
0
 10
78.4503
 20
26.2377
 11
78.7973
 21
27.1416
  0
LINE
  8
0
 10
78.7973
 20
27.1416
 11
79.0479
 21
28.0768
  0
LINE
  8
0
 10
79.0479
 20
28.0768
 11
79.1993
 21
29.0331
  0
LINE
  8
0
 10
79.1993
 20
29.0331
 11
79.25
 21
30
  0
LINE
  8
0
 10
79.25
 20
30
 11
79.1993
 21
30.9669
  0
LINE
  8
0
 10
79.1993
 20
30.9669
 11
79.0479
 21
31.9232
  0
LINE
  8
0
 10
79.0479
 20
31.9232
 11
78.7973
 21
32.8584
  0
LINE
  8
0
 10
78.7973
 20
32.8584
 11
78.4503
 21
33.7623
  0
LINE
  8
0
 10
78.4503
 20
33.7623
 11
78.0107
 21
34.625
  0
LINE
  8
0
 10
78.0107
 20
34.625
 11
77.4834
 21
35.437
  0
LINE
  8
0
 10
77.4834
 20
35.437
 11
77.2005
 21
35.7863
  0
LINE
  8
0
 10
77.2005
 20
35.7863
 11
78.7981
 21
37.3839
  0
LINE
  8
0
 10
78.7981
 20
37.3839
 11
79.3037
 21
36.7595
  0
LINE
  8
0
 10
79.3037
 20
36.7595
 11
79.9593
 21
35.75
  0
LINE
  8
0
 10
79.9593
 20
35.75
 11
80.5058
 21
34.6775
  0
LINE
  8
0
 10
80.5058
 20
34.6775
 11
80.9371
 21
33.5537
  0
LINE
  8
0
 10
80.9371
 20
33.5537
 11
81.2487
 21
32.391
  0
LINE
  8
0
 10
81.2487
 20
32.391
 11
81.437
 21
31.2021
  0
LINE
  8
0
 10
81.437
 20
31.2021
 11
81.5
 21
30
  0
LINE
  8
0
 10
81.5
 20
30
 11
81.437
 21
28.7979
  0
LINE
  8
0
 10
81.437
 20
28.7979
 11
81.2487
 21
27.609
  0
LINE
  8
0
 10
81.2487
 20
27.609
 11
80.9371
 21
26.4463
  0
LINE
  8
0
 10
80.9371
 20
26.4463
 11
80.5058
 21
25.3225
  0
LINE
  8
0
 10
80.5058
 20
25.3225
 11
79.9593
 21
24.25
  0
LINE
  8
0
 10
79.9593
 20
24.25
 11
79.3037
 21
23.2405
  0
LINE
  8
0
 10
79.3037
 20
23.2405
 11
78.7981
 21
22.6161
  0
LINE
  8
0
 10
78.7981
 20
22.6161
 11
77.2005
 21
24.2137
  0
LINE
  8
0
 10
72
 20
33.4641
 11
71.6269
 21
33.6542
  0
LINE
  8
0
 10
71.6269
 20
33.6542
 11
71.2361
 21
33.8042
  0
LINE
  8
0
 10
71.2361
 20
33.8042
 11
70.8316
 21
33.9126
  0
LINE
  8
0
 10
70.8316
 20
33.9126
 11
70.4181
 21
33.9781
  0
LINE
  8
0
 10
70.4181
 20
33.9781
 11
70
 21
34
  0
LINE
  8
0
 10
70
 20
34
 11
69.5819
 21
33.9781
  0
LINE
  8
0
 10
69.5819
 20
33.9781
 11
69.1684
 21
33.9126
  0
LINE
  8
0
 10
69.1684
 20
33.9126
 11
68.7639
 21
33.8042
  0
LINE
  8
0
 10
68.7639
 20
33.8042
 11
68.373
 21
33.6542
  0
LINE
  8
0
 10
68.373
 20
33.6542
 11
68
 21
33.4641
  0
LINE
  8
0
 10
68
 20
33.4641
 11
67.9698
 21
33.4445
  0
LINE
  8
0
 10
67.9698
 20
33.4445
 11
65.6337
 21
35.7805
  0
LINE
  8
0
 10
65.6337
 20
35.7805
 11
65.7386
 21
35.8654
  0
LINE
  8
0
 10
65.7386
 20
35.8654
 11
66.375
 21
36.2787
  0
LINE
  8
0
 10
66.375
 20
36.2787
 11
67.0512
 21
36.6232
  0
LINE
  8
0
 10
67.0512
 20
36.6232
 11
67.7596
 21
36.8952
  0
LINE
  8
0
 10
67.7596
 20
36.8952
 11
68.4926
 21
37.0916
  0
LINE
  8
0
 10
68.4926
 20
37.0916
 11
69.2422
 21
37.2103
  0
LINE
  8
0
 10
69.2422
 20
37.2103
 11
70
 21
37.25
  0
LINE
  8
0
 10
70
 20
37.25
 11
70.7578
 21
37.2103
  0
LINE
  8
0
 10
70.7578
 20
37.2103
 11
71.5074
 21
37.0916
  0
LINE
  8
0
 10
71.5074
 20
37.0916
 11
72.2404
 21
36.8952
  0
LINE
  8
0
 10
72.2404
 20
36.8952
 11
72.9488
 21
36.6232
  0
LINE
  8
0
 10
72.9488
 20
36.6232
 11
73.625
 21
36.2787
  0
LINE
  8
0
 10
73.625
 20
36.2787
 11
74.2614
 21
35.8654
  0
LINE
  8
0
 10
74.2614
 20
35.8654
 11
74.3663
 21
35.7805
  0
LINE
  8
0
 10
74.3663
 20
35.7805
 11
72.0302
 21
33.4445
  0
LINE
  8
0
 10
72.0302
 20
33.4445
 11
72
 21
33.4641
  0
LINE
  8
0
 10
182
 20
33.4641
 11
181.627
 21
33.6542
  0
LINE
  8
0
 10
181.627
 20
33.6542
 11
181.236
 21
33.8042
  0
LINE
  8
0
 10
181.236
 20
33.8042
 11
180.832
 21
33.9126
  0
LINE
  8
0
 10
180.832
 20
33.9126
 11
180.418
 21
33.9781
  0
LINE
  8
0
 10
180.418
 20
33.9781
 11
180
 21
34
  0
LINE
  8
0
 10
180
 20
34
 11
179.582
 21
33.9781
  0
LINE
  8
0
 10
179.582
 20
33.9781
 11
179.168
 21
33.9126
  0
LINE
  8
0
 10
179.168
 20
33.9126
 11
178.764
 21
33.8042
  0
LINE
  8
0
 10
178.764
 20
33.8042
 11
178.373
 21
33.6542
  0
LINE
  8
0
 10
178.373
 20
33.6542
 11
178
 21
33.4641
  0
LINE
  8
0
 10
178
 20
33.4641
 11
177.97
 21
33.4445
  0
LINE
  8
0
 10
177.97
 20
33.4445
 11
175.634
 21
35.7805
  0
LINE
  8
0
 10
175.634
 20
35.7805
 11
175.739
 21
35.8654
  0
LINE
  8
0
 10
175.739
 20
35.8654
 11
176.375
 21
36.2787
  0
LINE
  8
0
 10
176.375
 20
36.2787
 11
177.051
 21
36.6232
  0
LINE
  8
0
 10
177.051
 20
36.6232
 11
177.76
 21
36.8952
  0
LINE
  8
0
 10
177.76
 20
36.8952
 11
178.493
 21
37.0916
  0
LINE
  8
0
 10
178.493
 20
37.0916
 11
179.242
 21
37.2103
  0
LINE
  8
0
 10
179.242
 20
37.2103
 11
180
 21
37.25
  0
LINE
  8
0
 10
180
 20
37.25
 11
180.758
 21
37.2103
  0
LINE
  8
0
 10
180.758
 20
37.2103
 11
181.507
 21
37.0916
  0
LINE
  8
0
 10
181.507
 20
37.0916
 11
182.24
 21
36.8952
  0
LINE
  8
0
 10
182.24
 20
36.8952
 11
182.949
 21
36.6232
  0
LINE
  8
0
 10
182.949
 20
36.6232
 11
183.625
 21
36.2787
  0
LINE
  8
0
 10
183.625
 20
36.2787
 11
184.261
 21
35.8654
  0
LINE
  8
0
 10
184.261
 20
35.8654
 11
184.366
 21
35.7805
  0
LINE
  8
0
 10
184.366
 20
35.7805
 11
182.03
 21
33.4445
  0
LINE
  8
0
 10
182.03
 20
33.4445
 11
182
 21
33.4641
  0
LINE
  8
0
 10
64.1346
 20
25.7386
 11
63.7213
 21
26.375
  0
LINE
  8
0
 10
63.7213
 20
26.375
 11
63.3768
 21
27.0511
  0
LINE
  8
0
 10
63.3768
 20
27.0511
 11
63.1048
 21
27.7596
  0
LINE
  8
0
 10
63.1048
 20
27.7596
 11
62.9084
 21
28.4926
  0
LINE
  8
0
 10
62.9084
 20
28.4926
 11
62.7897
 21
29.2422
  0
LINE
  8
0
 10
62.7897
 20
29.2422
 11
62.75
 21
30
  0
LINE
  8
0
 10
62.75
 20
30
 11
62.7897
 21
30.7578
  0
LINE
  8
0
 10
62.7897
 20
30.7578
 11
62.9084
 21
31.5074
  0
LINE
  8
0
 10
62.9084
 20
31.5074
 11
63.1048
 21
32.2404
  0
LINE
  8
0
 10
63.1048
 20
32.2404
 11
63.3768
 21
32.9488
  0
LINE
  8
0
 10
63.3768
 20
32.9488
 11
63.7213
 21
33.625
  0
LINE
  8
0
 10
63.7213
 20
33.625
 11
64.1346
 21
34.2614
  0
LINE
  8
0
 10
64.1346
 20
34.2614
 11
64.2195
 21
34.3663
  0
LINE
  8
0
 10
64.2195
 20
34.3663
 11
66.5555
 21
32.0302
  0
LINE
  8
0
 10
66.5555
 20
32.0302
 11
66.5359
 21
32
  0
LINE
  8
0
 10
66.5359
 20
32
 11
66.3458
 21
31.6269
  0
LINE
  8
0
 10
66.3458
 20
31.6269
 11
66.1958
 21
31.2361
  0
LINE
  8
0
 10
66.1958
 20
31.2361
 11
66.0874
 21
30.8316
  0
LINE
  8
0
 10
66.0874
 20
30.8316
 11
66.0219
 21
30.4181
  0
LINE
  8
0
 10
66.0219
 20
30.4181
 11
66
 21
30
  0
LINE
  8
0
 10
66
 20
30
 11
66.0219
 21
29.5819
  0
LINE
  8
0
 10
66.0219
 20
29.5819
 11
66.0874
 21
29.1684
  0
LINE
  8
0
 10
66.0874
 20
29.1684
 11
66.1958
 21
28.7639
  0
LINE
  8
0
 10
66.1958
 20
28.7639
 11
66.3458
 21
28.373
  0
LINE
  8
0
 10
66.3458
 20
28.373
 11
66.5359
 21
28
  0
LINE
  8
0
 10
66.5359
 20
28
 11
66.5555
 21
27.9697
  0
LINE
  8
0
 10
66.5555
 20
27.9697
 11
64.2195
 21
25.6337
  0
LINE
  8
0
 10
64.2195
 20
25.6337
 11
64.1346
 21
25.7386
  0
LINE
  8
0
 10
73.4445
 20
27.9697
 11
73.4641
 21
28
  0
LINE
  8
0
 10
73.4641
 20
28
 11
73.6542
 21
28.373
  0
LINE
  8
0
 10
73.6542
 20
28.373
 11
73.8042
 21
28.7639
  0
LINE
  8
0
 10
73.8042
 20
28.7639
 11
73.9126
 21
29.1684
  0
LINE
  8
0
 10
73.9126
 20
29.1684
 11
73.9781
 21
29.5819
  0
LINE
  8
0
 10
73.9781
 20
29.5819
 11
74
 21
30
  0
LINE
  8
0
 10
74
 20
30
 11
73.9781
 21
30.4181
  0
LINE
  8
0
 10
73.9781
 20
30.4181
 11
73.9126
 21
30.8316
  0
LINE
  8
0
 10
73.9126
 20
30.8316
 11
73.8042
 21
31.2361
  0
LINE
  8
0
 10
73.8042
 20
31.2361
 11
73.6542
 21
31.6269
  0
LINE
  8
0
 10
73.6542
 20
31.6269
 11
73.4641
 21
32
  0
LINE
  8
0
 10
73.4641
 20
32
 11
73.4445
 21
32.0302
  0
LINE
  8
0
 10
73.4445
 20
32.0302
 11
75.7805
 21
34.3663
  0
LINE
  8
0
 10
75.7805
 20
34.3663
 11
75.8654
 21
34.2614
  0
LINE
  8
0
 10
75.8654
 20
34.2614
 11
76.2787
 21
33.625
  0
LINE
  8
0
 10
76.2787
 20
33.625
 11
76.6232
 21
32.9488
  0
LINE
  8
0
 10
76.6232
 20
32.9488
 11
76.8952
 21
32.2404
  0
LINE
  8
0
 10
76.8952
 20
32.2404
 11
77.0916
 21
31.5074
  0
LINE
  8
0
 10
77.0916
 20
31.5074
 11
77.2103
 21
30.7578
  0
LINE
  8
0
 10
77.2103
 20
30.7578
 11
77.25
 21
30
  0
LINE
  8
0
 10
77.25
 20
30
 11
77.2103
 21
29.2422
  0
LINE
  8
0
 10
77.2103
 20
29.2422
 11
77.0916
 21
28.4926
  0
LINE
  8
0
 10
77.0916
 20
28.4926
 11
76.8952
 21
27.7596
  0
LINE
  8
0
 10
76.8952
 20
27.7596
 11
76.6232
 21
27.0511
  0
LINE
  8
0
 10
76.6232
 20
27.0511
 11
76.2787
 21
26.375
  0
LINE
  8
0
 10
76.2787
 20
26.375
 11
75.8654
 21
25.7386
  0
LINE
  8
0
 10
75.8654
 20
25.7386
 11
75.7805
 21
25.6337
  0
LINE
  8
0
 10
75.7805
 20
25.6337
 11
73.4445
 21
27.9697
  0
LINE
  8
0
 10
183.444
 20
27.9697
 11
183.464
 21
28
  0
LINE
  8
0
 10
183.464
 20
28
 11
183.654
 21
28.373
  0
LINE
  8
0
 10
183.654
 20
28.373
 11
183.804
 21
28.7639
  0
LINE
  8
0
 10
183.804
 20
28.7639
 11
183.913
 21
29.1684
  0
LINE
  8
0
 10
183.913
 20
29.1684
 11
183.978
 21
29.5819
  0
LINE
  8
0
 10
183.978
 20
29.5819
 11
184
 21
30
  0
LINE
  8
0
 10
184
 20
30
 11
183.978
 21
30.4181
  0
LINE
  8
0
 10
183.978
 20
30.4181
 11
183.913
 21
30.8316
  0
LINE
  8
0
 10
183.913
 20
30.8316
 11
183.804
 21
31.2361
  0
LINE
  8
0
 10
183.804
 20
31.2361
 11
183.654
 21
31.6269
  0
LINE
  8
0
 10
183.654
 20
31.6269
 11
183.464
 21
32
  0
LINE
  8
0
 10
183.464
 20
32
 11
183.444
 21
32.0302
  0
LINE
  8
0
 10
183.444
 20
32.0302
 11
185.78
 21
34.3663
  0
LINE
  8
0
 10
185.78
 20
34.3663
 11
185.865
 21
34.2614
  0
LINE
  8
0
 10
185.865
 20
34.2614
 11
186.279
 21
33.625
  0
LINE
  8
0
 10
186.279
 20
33.625
 11
186.623
 21
32.9488
  0
LINE
  8
0
 10
186.623
 20
32.9488
 11
186.895
 21
32.2404
  0
LINE
  8
0
 10
186.895
 20
32.2404
 11
187.092
 21
31.5074
  0
LINE
  8
0
 10
187.092
 20
31.5074
 11
187.21
 21
30.7578
  0
LINE
  8
0
 10
187.21
 20
30.7578
 11
187.25
 21
30
  0
LINE
  8
0
 10
187.25
 20
30
 11
187.21
 21
29.2422
  0
LINE
  8
0
 10
187.21
 20
29.2422
 11
187.092
 21
28.4926
  0
LINE
  8
0
 10
187.092
 20
28.4926
 11
186.895
 21
27.7596
  0
LINE
  8
0
 10
186.895
 20
27.7596
 11
186.623
 21
27.0511
  0
LINE
  8
0
 10
186.623
 20
27.0511
 11
186.279
 21
26.375
  0
LINE
  8
0
 10
186.279
 20
26.375
 11
185.865
 21
25.7386
  0
LINE
  8
0
 10
185.865
 20
25.7386
 11
185.78
 21
25.6337
  0
LINE
  8
0
 10
185.78
 20
25.6337
 11
183.444
 21
27.9697
  0
LINE
  8
0
 10
174.135
 20
25.7386
 11
173.721
 21
26.375
  0
LINE
  8
0
 10
173.721
 20
26.375
 11
173.377
 21
27.0511
  0
LINE
  8
0
 10
173.377
 20
27.0511
 11
173.105
 21
27.7596
  0
LINE
  8
0
 10
173.105
 20
27.7596
 11
172.908
 21
28.4926
  0
LINE
  8
0
 10
172.908
 20
28.4926
 11
172.79
 21
29.2422
  0
LINE
  8
0
 10
172.79
 20
29.2422
 11
172.75
 21
30
  0
LINE
  8
0
 10
172.75
 20
30
 11
172.79
 21
30.7578
  0
LINE
  8
0
 10
172.79
 20
30.7578
 11
172.908
 21
31.5074
  0
LINE
  8
0
 10
172.908
 20
31.5074
 11
173.105
 21
32.2404
  0
LINE
  8
0
 10
173.105
 20
32.2404
 11
173.377
 21
32.9488
  0
LINE
  8
0
 10
173.377
 20
32.9488
 11
173.721
 21
33.625
  0
LINE
  8
0
 10
173.721
 20
33.625
 11
174.135
 21
34.2614
  0
LINE
  8
0
 10
174.135
 20
34.2614
 11
174.22
 21
34.3663
  0
LINE
  8
0
 10
174.22
 20
34.3663
 11
176.556
 21
32.0302
  0
LINE
  8
0
 10
176.556
 20
32.0302
 11
176.536
 21
32
  0
LINE
  8
0
 10
176.536
 20
32
 11
176.346
 21
31.6269
  0
LINE
  8
0
 10
176.346
 20
31.6269
 11
176.196
 21
31.2361
  0
LINE
  8
0
 10
176.196
 20
31.2361
 11
176.087
 21
30.8316
  0
LINE
  8
0
 10
176.087
 20
30.8316
 11
176.022
 21
30.4181
  0
LINE
  8
0
 10
176.022
 20
30.4181
 11
176
 21
30
  0
LINE
  8
0
 10
176
 20
30
 11
176.022
 21
29.5819
  0
LINE
  8
0
 10
176.022
 20
29.5819
 11
176.087
 21
29.1684
  0
LINE
  8
0
 10
176.087
 20
29.1684
 11
176.196
 21
28.7639
  0
LINE
  8
0
 10
176.196
 20
28.7639
 11
176.346
 21
28.373
  0
LINE
  8
0
 10
176.346
 20
28.373
 11
176.536
 21
28
  0
LINE
  8
0
 10
176.536
 20
28
 11
176.556
 21
27.9697
  0
LINE
  8
0
 10
176.556
 20
27.9697
 11
174.22
 21
25.6337
  0
LINE
  8
0
 10
174.22
 20
25.6337
 11
174.135
 21
25.7386
  0
LINE
  8
0
 10
69.2422
 20
22.7897
 11
68.4926
 21
22.9084
  0
LINE
  8
0
 10
68.4926
 20
22.9084
 11
67.7596
 21
23.1048
  0
LINE
  8
0
 10
67.7596
 20
23.1048
 11
67.0512
 21
23.3768
  0
LINE
  8
0
 10
67.0512
 20
23.3768
 11
66.375
 21
23.7213
  0
LINE
  8
0
 10
66.375
 20
23.7213
 11
65.7386
 21
24.1346
  0
LINE
  8
0
 10
65.7386
 20
24.1346
 11
65.6337
 21
24.2195
  0
LINE
  8
0
 10
65.6337
 20
24.2195
 11
67.9698
 21
26.5555
  0
LINE
  8
0
 10
67.9698
 20
26.5555
 11
68
 21
26.5359
  0
LINE
  8
0
 10
68
 20
26.5359
 11
68.373
 21
26.3458
  0
LINE
  8
0
 10
68.373
 20
26.3458
 11
68.7639
 21
26.1958
  0
LINE
  8
0
 10
68.7639
 20
26.1958
 11
69.1684
 21
26.0874
  0
LINE
  8
0
 10
69.1684
 20
26.0874
 11
69.5819
 21
26.0219
  0
LINE
  8
0
 10
69.5819
 20
26.0219
 11
70
 21
26
  0
LINE
  8
0
 10
70
 20
26
 11
70.4181
 21
26.0219
  0
LINE
  8
0
 10
70.4181
 20
26.0219
 11
70.8316
 21
26.0874
  0
LINE
  8
0
 10
70.8316
 20
26.0874
 11
71.2361
 21
26.1958
  0
LINE
  8
0
 10
71.2361
 20
26.1958
 11
71.6269
 21
26.3458
  0
LINE
  8
0
 10
71.6269
 20
26.3458
 11
72
 21
26.5359
  0
LINE
  8
0
 10
72
 20
26.5359
 11
72.0302
 21
26.5555
  0
LINE
  8
0
 10
72.0302
 20
26.5555
 11
74.3663
 21
24.2195
  0
LINE
  8
0
 10
74.3663
 20
24.2195
 11
74.2614
 21
24.1346
  0
LINE
  8
0
 10
74.2614
 20
24.1346
 11
73.625
 21
23.7213
  0
LINE
  8
0
 10
73.625
 20
23.7213
 11
72.9488
 21
23.3768
  0
LINE
  8
0
 10
72.9488
 20
23.3768
 11
72.2404
 21
23.1048
  0
LINE
  8
0
 10
72.2404
 20
23.1048
 11
71.5074
 21
22.9084
  0
LINE
  8
0
 10
71.5074
 20
22.9084
 11
70.7578
 21
22.7897
  0
LINE
  8
0
 10
70.7578
 20
22.7897
 11
70
 21
22.75
  0
LINE
  8
0
 10
70
 20
22.75
 11
69.2422
 21
22.7897
  0
LINE
  8
0
 10
179.242
 20
22.7897
 11
178.493
 21
22.9084
  0
LINE
  8
0
 10
178.493
 20
22.9084
 11
177.76
 21
23.1048
  0
LINE
  8
0
 10
177.76
 20
23.1048
 11
177.051
 21
23.3768
  0
LINE
  8
0
 10
177.051
 20
23.3768
 11
176.375
 21
23.7213
  0
LINE
  8
0
 10
176.375
 20
23.7213
 11
175.739
 21
24.1346
  0
LINE
  8
0
 10
175.739
 20
24.1346
 11
175.634
 21
24.2195
  0
LINE
  8
0
 10
175.634
 20
24.2195
 11
177.97
 21
26.5555
  0
LINE
  8
0
 10
177.97
 20
26.5555
 11
178
 21
26.5359
  0
LINE
  8
0
 10
178
 20
26.5359
 11
178.373
 21
26.3458
  0
LINE
  8
0
 10
178.373
 20
26.3458
 11
178.764
 21
26.1958
  0
LINE
  8
0
 10
178.764
 20
26.1958
 11
179.168
 21
26.0874
  0
LINE
  8
0
 10
179.168
 20
26.0874
 11
179.582
 21
26.0219
  0
LINE
  8
0
 10
179.582
 20
26.0219
 11
180
 21
26
  0
LINE
  8
0
 10
180
 20
26
 11
180.418
 21
26.0219
  0
LINE
  8
0
 10
180.418
 20
26.0219
 11
180.832
 21
26.0874
  0
LINE
  8
0
 10
180.832
 20
26.0874
 11
181.236
 21
26.1958
  0
LINE
  8
0
 10
181.236
 20
26.1958
 11
181.627
 21
26.3458
  0
LINE
  8
0
 10
181.627
 20
26.3458
 11
182
 21
26.5359
  0
LINE
  8
0
 10
182
 20
26.5359
 11
182.03
 21
26.5555
  0
LINE
  8
0
 10
182.03
 20
26.5555
 11
184.366
 21
24.2195
  0
LINE
  8
0
 10
184.366
 20
24.2195
 11
184.261
 21
24.1346
  0
LINE
  8
0
 10
184.261
 20
24.1346
 11
183.625
 21
23.7213
  0
LINE
  8
0
 10
183.625
 20
23.7213
 11
182.949
 21
23.3768
  0
LINE
  8
0
 10
182.949
 20
23.3768
 11
182.24
 21
23.1048
  0
LINE
  8
0
 10
182.24
 20
23.1048
 11
181.507
 21
22.9084
  0
LINE
  8
0
 10
181.507
 20
22.9084
 11
180.758
 21
22.7897
  0
LINE
  8
0
 10
180.758
 20
22.7897
 11
180
 21
22.75
  0
LINE
  8
0
 10
180
 20
22.75
 11
179.242
 21
22.7897
  0
LINE
  8
0
 10
68.7979
 20
18.563
 11
67.609
 21
18.7513
  0
LINE
  8
0
 10
67.609
 20
18.7513
 11
66.4463
 21
19.0629
  0
LINE
  8
0
 10
66.4463
 20
19.0629
 11
65.3225
 21
19.4942
  0
LINE
  8
0
 10
65.3225
 20
19.4942
 11
64.25
 21
20.0407
  0
LINE
  8
0
 10
64.25
 20
20.0407
 11
63.2405
 21
20.6963
  0
LINE
  8
0
 10
63.2405
 20
20.6963
 11
62.6161
 21
21.2019
  0
LINE
  8
0
 10
62.6161
 20
21.2019
 11
64.2137
 21
22.7995
  0
LINE
  8
0
 10
64.2137
 20
22.7995
 11
64.563
 21
22.5166
  0
LINE
  8
0
 10
64.563
 20
22.5166
 11
65.375
 21
21.9893
  0
LINE
  8
0
 10
65.375
 20
21.9893
 11
66.2377
 21
21.5497
  0
LINE
  8
0
 10
66.2377
 20
21.5497
 11
67.1416
 21
21.2027
  0
LINE
  8
0
 10
67.1416
 20
21.2027
 11
68.0768
 21
20.9521
  0
LINE
  8
0
 10
68.0768
 20
20.9521
 11
69.0331
 21
20.8007
  0
LINE
  8
0
 10
69.0331
 20
20.8007
 11
70
 21
20.75
  0
LINE
  8
0
 10
70
 20
20.75
 11
70.9669
 21
20.8007
  0
LINE
  8
0
 10
70.9669
 20
20.8007
 11
71.9232
 21
20.9521
  0
LINE
  8
0
 10
71.9232
 20
20.9521
 11
72.8584
 21
21.2027
  0
LINE
  8
0
 10
72.8584
 20
21.2027
 11
73.7623
 21
21.5497
  0
LINE
  8
0
 10
73.7623
 20
21.5497
 11
74.625
 21
21.9893
  0
LINE
  8
0
 10
74.625
 20
21.9893
 11
75.437
 21
22.5166
  0
LINE
  8
0
 10
75.437
 20
22.5166
 11
75.7863
 21
22.7995
  0
LINE
  8
0
 10
75.7863
 20
22.7995
 11
77.3839
 21
21.2019
  0
LINE
  8
0
 10
77.3839
 20
21.2019
 11
76.7595
 21
20.6963
  0
LINE
  8
0
 10
76.7595
 20
20.6963
 11
75.75
 21
20.0407
  0
LINE
  8
0
 10
75.75
 20
20.0407
 11
74.6775
 21
19.4942
  0
LINE
  8
0
 10
74.6775
 20
19.4942
 11
73.5537
 21
19.0629
  0
LINE
  8
0
 10
73.5537
 20
19.0629
 11
72.391
 21
18.7513
  0
LINE
  8
0
 10
72.391
 20
18.7513
 11
71.2021
 21
18.563
  0
LINE
  8
0
 10
71.2021
 20
18.563
 11
70
 21
18.5
  0
LINE
  8
0
 10
70
 20
18.5
 11
68.7979
 21
18.563
  0
LINE
  8
0
 10
178.798
 20
18.563
 11
177.609
 21
18.7513
  0
LINE
  8
0
 10
177.609
 20
18.7513
 11
176.446
 21
19.0629
  0
LINE
  8
0
 10
176.446
 20
19.0629
 11
175.323
 21
19.4942
  0
LINE
  8
0
 10
175.323
 20
19.4942
 11
174.25
 21
20.0407
  0
LINE
  8
0
 10
174.25
 20
20.0407
 11
173.24
 21
20.6963
  0
LINE
  8
0
 10
173.24
 20
20.6963
 11
172.616
 21
21.2019
  0
LINE
  8
0
 10
172.616
 20
21.2019
 11
174.214
 21
22.7995
  0
LINE
  8
0
 10
174.214
 20
22.7995
 11
174.563
 21
22.5166
  0
LINE
  8
0
 10
174.563
 20
22.5166
 11
175.375
 21
21.9893
  0
LINE
  8
0
 10
175.375
 20
21.9893
 11
176.238
 21
21.5497
  0
LINE
  8
0
 10
176.238
 20
21.5497
 11
177.142
 21
21.2027
  0
LINE
  8
0
 10
177.142
 20
21.2027
 11
178.077
 21
20.9521
  0
LINE
  8
0
 10
178.077
 20
20.9521
 11
179.033
 21
20.8007
  0
LINE
  8
0
 10
179.033
 20
20.8007
 11
180
 21
20.75
  0
LINE
  8
0
 10
180
 20
20.75
 11
180.967
 21
20.8007
  0
LINE
  8
0
 10
180.967
 20
20.8007
 11
181.923
 21
20.9521
  0
LINE
  8
0
 10
181.923
 20
20.9521
 11
182.858
 21
21.2027
  0
LINE
  8
0
 10
182.858
 20
21.2027
 11
183.762
 21
21.5497
  0
LINE
  8
0
 10
183.762
 20
21.5497
 11
184.625
 21
21.9893
  0
LINE
  8
0
 10
184.625
 20
21.9893
 11
185.437
 21
22.5166
  0
LINE
  8
0
 10
185.437
 20
22.5166
 11
185.786
 21
22.7995
  0
LINE
  8
0
 10
185.786
 20
22.7995
 11
187.384
 21
21.2019
  0
LINE
  8
0
 10
187.384
 20
21.2019
 11
186.76
 21
20.6963
  0
LINE
  8
0
 10
186.76
 20
20.6963
 11
185.75
 21
20.0407
  0
LINE
  8
0
 10
185.75
 20
20.0407
 11
184.677
 21
19.4942
  0
LINE
  8
0
 10
184.677
 20
19.4942
 11
183.554
 21
19.0629
  0
LINE
  8
0
 10
183.554
 20
19.0629
 11
182.391
 21
18.7513
  0
LINE
  8
0
 10
182.391
 20
18.7513
 11
181.202
 21
18.563
  0
LINE
  8
0
 10
181.202
 20
18.563
 11
180
 21
18.5
  0
LINE
  8
0
 10
180
 20
18.5
 11
178.798
 21
18.563
  0
LINE
  8
0
 10
178.354
 20
14.3363
 11
176.725
 21
14.5942
  0
LINE
  8
0
 10
176.725
 20
14.5942
 11
175.133
 21
15.0209
  0
LINE
  8
0
 10
175.133
 20
15.0209
 11
173.594
 21
15.6116
  0
LINE
  8
0
 10
173.594
 20
15.6116
 11
172.125
 21
16.3601
  0
LINE
  8
0
 10
172.125
 20
16.3601
 11
170.742
 21
17.258
  0
LINE
  8
0
 10
170.742
 20
17.258
 11
169.598
 21
18.1843
  0
LINE
  8
0
 10
169.598
 20
18.1843
 11
171.196
 21
19.7818
  0
LINE
  8
0
 10
171.196
 20
19.7818
 11
172.065
 21
19.0783
  0
LINE
  8
0
 10
172.065
 20
19.0783
 11
173.25
 21
18.3087
  0
LINE
  8
0
 10
173.25
 20
18.3087
 11
174.509
 21
17.6671
  0
LINE
  8
0
 10
174.509
 20
17.6671
 11
175.828
 21
17.1607
  0
LINE
  8
0
 10
175.828
 20
17.1607
 11
177.193
 21
16.795
  0
LINE
  8
0
 10
177.193
 20
16.795
 11
178.589
 21
16.5739
  0
LINE
  8
0
 10
178.589
 20
16.5739
 11
180
 21
16.5
  0
LINE
  8
0
 10
180
 20
16.5
 11
181.411
 21
16.5739
  0
LINE
  8
0
 10
181.411
 20
16.5739
 11
182.807
 21
16.795
  0
LINE
  8
0
 10
182.807
 20
16.795
 11
184.172
 21
17.1607
  0
LINE
  8
0
 10
184.172
 20
17.1607
 11
185.491
 21
17.6671
  0
LINE
  8
0
 10
185.491
 20
17.6671
 11
186.75
 21
18.3087
  0
LINE
  8
0
 10
186.75
 20
18.3087
 11
187.935
 21
19.0783
  0
LINE
  8
0
 10
187.935
 20
19.0783
 11
188.804
 21
19.7818
  0
LINE
  8
0
 10
188.804
 20
19.7818
 11
190.402
 21
18.1843
  0
LINE
  8
0
 10
190.402
 20
18.1843
 11
189.258
 21
17.258
  0
LINE
  8
0
 10
189.258
 20
17.258
 11
187.875
 21
16.3601
  0
LINE
  8
0
 10
187.875
 20
16.3601
 11
186.406
 21
15.6116
  0
LINE
  8
0
 10
186.406
 20
15.6116
 11
184.867
 21
15.0209
  0
LINE
  8
0
 10
184.867
 20
15.0209
 11
183.275
 21
14.5942
  0
LINE
  8
0
 10
183.275
 20
14.5942
 11
181.646
 21
14.3363
  0
LINE
  8
0
 10
181.646
 20
14.3363
 11
180
 21
14.25
  0
LINE
  8
0
 10
180
 20
14.25
 11
178.354
 21
14.3363
  0
LINE
  8
0
 10
68.3537
 20
14.3363
 11
66.7254
 21
14.5942
  0
LINE
  8
0
 10
66.7254
 20
14.5942
 11
65.133
 21
15.0209
  0
LINE
  8
0
 10
65.133
 20
15.0209
 11
63.5939
 21
15.6116
  0
LINE
  8
0
 10
63.5939
 20
15.6116
 11
62.125
 21
16.3601
  0
LINE
  8
0
 10
62.125
 20
16.3601
 11
60.7424
 21
17.258
  0
LINE
  8
0
 10
60.7424
 20
17.258
 11
59.5985
 21
18.1843
  0
LINE
  8
0
 10
59.5985
 20
18.1843
 11
61.1961
 21
19.7818
  0
LINE
  8
0
 10
61.1961
 20
19.7818
 11
62.0649
 21
19.0783
  0
LINE
  8
0
 10
62.0649
 20
19.0783
 11
63.25
 21
18.3087
  0
LINE
  8
0
 10
63.25
 20
18.3087
 11
64.509
 21
17.6671
  0
LINE
  8
0
 10
64.509
 20
17.6671
 11
65.8283
 21
17.1607
  0
LINE
  8
0
 10
65.8283
 20
17.1607
 11
67.1932
 21
16.795
  0
LINE
  8
0
 10
67.1932
 20
16.795
 11
68.5889
 21
16.5739
  0
LINE
  8
0
 10
68.5889
 20
16.5739
 11
70
 21
16.5
  0
LINE
  8
0
 10
70
 20
16.5
 11
71.4111
 21
16.5739
  0
LINE
  8
0
 10
71.4111
 20
16.5739
 11
72.8068
 21
16.795
  0
LINE
  8
0
 10
72.8068
 20
16.795
 11
74.1717
 21
17.1607
  0
LINE
  8
0
 10
74.1717
 20
17.1607
 11
75.4909
 21
17.6671
  0
LINE
  8
0
 10
75.4909
 20
17.6671
 11
76.75
 21
18.3087
  0
LINE
  8
0
 10
76.75
 20
18.3087
 11
77.9351
 21
19.0783
  0
LINE
  8
0
 10
77.9351
 20
19.0783
 11
78.8039
 21
19.7818
  0
LINE
  8
0
 10
78.8039
 20
19.7818
 11
80.4015
 21
18.1843
  0
LINE
  8
0
 10
80.4015
 20
18.1843
 11
79.2576
 21
17.258
  0
LINE
  8
0
 10
79.2576
 20
17.258
 11
77.875
 21
16.3601
  0
LINE
  8
0
 10
77.875
 20
16.3601
 11
76.4061
 21
15.6116
  0
LINE
  8
0
 10
76.4061
 20
15.6116
 11
74.867
 21
15.0209
  0
LINE
  8
0
 10
74.867
 20
15.0209
 11
73.2746
 21
14.5942
  0
LINE
  8
0
 10
73.2746
 20
14.5942
 11
71.6463
 21
14.3363
  0
LINE
  8
0
 10
71.6463
 20
14.3363
 11
70
 21
14.25
  0
LINE
  8
0
 10
70
 20
14.25
 11
68.3537
 21
14.3363
  0
LINE
  8
0
 10
67.9094
 20
10.1096
 11
65.8418
 21
10.437
  0
LINE
  8
0
 10
65.8418
 20
10.437
 11
63.8197
 21
10.9789
  0
LINE
  8
0
 10
63.8197
 20
10.9789
 11
61.8653
 21
11.7291
  0
LINE
  8
0
 10
61.8653
 20
11.7291
 11
60
 21
12.6795
  0
LINE
  8
0
 10
60
 20
12.6795
 11
58.2443
 21
13.8197
  0
LINE
  8
0
 10
58.2443
 20
13.8197
 11
56.6174
 21
15.1371
  0
LINE
  8
0
 10
56.6174
 20
15.1371
 11
56.5844
 21
15.1701
  0
LINE
  8
0
 10
56.5844
 20
15.1701
 11
58.1784
 21
16.7642
  0
LINE
  8
0
 10
58.1784
 20
16.7642
 11
59.5668
 21
15.6399
  0
LINE
  8
0
 10
59.5668
 20
15.6399
 11
61.125
 21
14.628
  0
LINE
  8
0
 10
61.125
 20
14.628
 11
62.7804
 21
13.7846
  0
LINE
  8
0
 10
62.7804
 20
13.7846
 11
64.5149
 21
13.1187
  0
LINE
  8
0
 10
64.5149
 20
13.1187
 11
66.3096
 21
12.6379
  0
LINE
  8
0
 10
66.3096
 20
12.6379
 11
68.1446
 21
12.3472
  0
LINE
  8
0
 10
68.1446
 20
12.3472
 11
70
 21
12.25
  0
LINE
  8
0
 10
70
 20
12.25
 11
71.8554
 21
12.3472
  0
LINE
  8
0
 10
71.8554
 20
12.3472
 11
73.6904
 21
12.6379
  0
LINE
  8
0
 10
73.6904
 20
12.6379
 11
75.485
 21
13.1187
  0
LINE
  8
0
 10
75.485
 20
13.1187
 11
77.2196
 21
13.7846
  0
LINE
  8
0
 10
77.2196
 20
13.7846
 11
78.875
 21
14.628
  0
LINE
  8
0
 10
78.875
 20
14.628
 11
80.4332
 21
15.6399
  0
LINE
  8
0
 10
80.4332
 20
15.6399
 11
81.8215
 21
16.7642
  0
LINE
  8
0
 10
81.8215
 20
16.7642
 11
83.4156
 21
15.1701
  0
LINE
  8
0
 10
83.4156
 20
15.1701
 11
83.3826
 21
15.1371
  0
LINE
  8
0
 10
83.3826
 20
15.1371
 11
81.7557
 21
13.8197
  0
LINE
  8
0
 10
81.7557
 20
13.8197
 11
80
 21
12.6795
  0
LINE
  8
0
 10
80
 20
12.6795
 11
78.1347
 21
11.7291
  0
LINE
  8
0
 10
78.1347
 20
11.7291
 11
76.1803
 21
10.9789
  0
LINE
  8
0
 10
76.1803
 20
10.9789
 11
74.1582
 21
10.437
  0
LINE
  8
0
 10
74.1582
 20
10.437
 11
72.0906
 21
10.1096
  0
LINE
  8
0
 10
72.0906
 20
10.1096
 11
70
 21
10
  0
LINE
  8
0
 10
70
 20
10
 11
67.9094
 21
10.1096
  0
LINE
  8
0
 10
177.909
 20
10.1096
 11
175.842
 21
10.437
  0
LINE
  8
0
 10
175.842
 20
10.437
 11
173.82
 21
10.9789
  0
LINE
  8
0
 10
173.82
 20
10.9789
 11
171.865
 21
11.7291
  0
LINE
  8
0
 10
171.865
 20
11.7291
 11
170
 21
12.6795
  0
LINE
  8
0
 10
170
 20
12.6795
 11
168.244
 21
13.8197
  0
LINE
  8
0
 10
168.244
 20
13.8197
 11
166.617
 21
15.1371
  0
LINE
  8
0
 10
166.617
 20
15.1371
 11
166.584
 21
15.1701
  0
LINE
  8
0
 10
166.584
 20
15.1701
 11
168.178
 21
16.7642
  0
LINE
  8
0
 10
168.178
 20
16.7642
 11
169.567
 21
15.6399
  0
LINE
  8
0
 10
169.567
 20
15.6399
 11
171.125
 21
14.628
  0
LINE
  8
0
 10
171.125
 20
14.628
 11
172.78
 21
13.7846
  0
LINE
  8
0
 10
172.78
 20
13.7846
 11
174.515
 21
13.1187
  0
LINE
  8
0
 10
174.515
 20
13.1187
 11
176.31
 21
12.6379
  0
LINE
  8
0
 10
176.31
 20
12.6379
 11
178.145
 21
12.3472
  0
LINE
  8
0
 10
178.145
 20
12.3472
 11
180
 21
12.25
  0
LINE
  8
0
 10
180
 20
12.25
 11
181.855
 21
12.3472
  0
LINE
  8
0
 10
181.855
 20
12.3472
 11
183.69
 21
12.6379
  0
LINE
  8
0
 10
183.69
 20
12.6379
 11
185.485
 21
13.1187
  0
LINE
  8
0
 10
185.485
 20
13.1187
 11
187.22
 21
13.7846
  0
LINE
  8
0
 10
187.22
 20
13.7846
 11
188.875
 21
14.628
  0
LINE
  8
0
 10
188.875
 20
14.628
 11
190.433
 21
15.6399
  0
LINE
  8
0
 10
190.433
 20
15.6399
 11
191.822
 21
16.7642
  0
LINE
  8
0
 10
191.822
 20
16.7642
 11
193.416
 21
15.1701
  0
LINE
  8
0
 10
193.416
 20
15.1701
 11
193.383
 21
15.1371
  0
LINE
  8
0
 10
193.383
 20
15.1371
 11
191.756
 21
13.8197
  0
LINE
  8
0
 10
191.756
 20
13.8197
 11
190
 21
12.6795
  0
LINE
  8
0
 10
190
 20
12.6795
 11
188.135
 21
11.7291
  0
LINE
  8
0
 10
188.135
 20
11.7291
 11
186.18
 21
10.9789
  0
LINE
  8
0
 10
186.18
 20
10.9789
 11
184.158
 21
10.437
  0
LINE
  8
0
 10
184.158
 20
10.437
 11
182.091
 21
10.1096
  0
LINE
  8
0
 10
182.091
 20
10.1096
 11
180
 21
10
  0
LINE
  8
0
 10
180
 20
10
 11
177.909
 21
10.1096
  0
LINE
  8
0
 10
234.091
 20
13.3283
 11
233.851
 21
13.3911
  0
LINE
  8
0
 10
233.851
 20
13.3911
 11
233.623
 21
13.4881
  0
LINE
  8
0
 10
233.623
 20
13.4881
 11
233.411
 21
13.6174
  0
LINE
  8
0
 10
233.411
 20
13.6174
 11
233.22
 21
13.7762
  0
LINE
  8
0
 10
233.22
 20
13.7762
 11
233.054
 21
13.961
  0
LINE
  8
0
 10
233.054
 20
13.961
 11
232.918
 21
14.168
  0
LINE
  8
0
 10
232.918
 20
14.168
 11
232.812
 21
14.3927
  0
LINE
  8
0
 10
232.812
 20
14.3927
 11
232.741
 21
14.6304
  0
LINE
  8
0
 10
232.741
 20
14.6304
 11
232.705
 21
14.8759
  0
LINE
  8
0
 10
232.705
 20
14.8759
 11
232.705
 21
15.1241
  0
LINE
  8
0
 10
232.705
 20
15.1241
 11
232.741
 21
15.3696
  0
LINE
  8
0
 10
232.741
 20
15.3696
 11
232.812
 21
15.6073
  0
LINE
  8
0
 10
232.812
 20
15.6073
 11
232.918
 21
15.832
  0
LINE
  8
0
 10
232.918
 20
15.832
 11
233.054
 21
16.039
  0
LINE
  8
0
 10
233.054
 20
16.039
 11
233.22
 21
16.2238
  0
LINE
  8
0
 10
233.22
 20
16.2238
 11
233.411
 21
16.3826
  0
LINE
  8
0
 10
233.411
 20
16.3826
 11
233.623
 21
16.5119
  0
LINE
  8
0
 10
233.623
 20
16.5119
 11
233.851
 21
16.6089
  0
LINE
  8
0
 10
233.851
 20
16.6089
 11
234.091
 21
16.6717
  0
LINE
  8
0
 10
234.091
 20
16.6717
 11
234.338
 21
16.6989
  0
LINE
  8
0
 10
234.338
 20
16.6989
 11
234.586
 21
16.6898
  0
LINE
  8
0
 10
234.586
 20
16.6898
 11
234.83
 21
16.6447
  0
LINE
  8
0
 10
234.83
 20
16.6447
 11
235.065
 21
16.5646
  0
LINE
  8
0
 10
235.065
 20
16.5646
 11
235.286
 21
16.4511
  0
LINE
  8
0
 10
235.286
 20
16.4511
 11
235.487
 21
16.3067
  0
LINE
  8
0
 10
235.487
 20
16.3067
 11
235.666
 21
16.1344
  0
LINE
  8
0
 10
235.666
 20
16.1344
 11
235.818
 21
15.938
  0
LINE
  8
0
 10
235.818
 20
15.938
 11
235.939
 21
15.7216
  0
LINE
  8
0
 10
235.939
 20
15.7216
 11
236.028
 21
15.4898
  0
LINE
  8
0
 10
236.028
 20
15.4898
 11
236.082
 21
15.2475
  0
LINE
  8
0
 10
236.082
 20
15.2475
 11
236.1
 21
15
  0
LINE
  8
0
 10
236.1
 20
15
 11
236.082
 21
14.7525
  0
LINE
  8
0
 10
236.082
 20
14.7525
 11
236.028
 21
14.5102
  0
LINE
  8
0
 10
236.028
 20
14.5102
 11
235.939
 21
14.2784
  0
LINE
  8
0
 10
235.939
 20
14.2784
 11
235.818
 21
14.062
  0
LINE
  8
0
 10
235.818
 20
14.062
 11
235.666
 21
13.8656
  0
LINE
  8
0
 10
235.666
 20
13.8656
 11
235.487
 21
13.6933
  0
LINE
  8
0
 10
235.487
 20
13.6933
 11
235.286
 21
13.5489
  0
LINE
  8
0
 10
235.286
 20
13.5489
 11
235.065
 21
13.4354
  0
LINE
  8
0
 10
235.065
 20
13.4354
 11
234.83
 21
13.3553
  0
LINE
  8
0
 10
234.83
 20
13.3553
 11
234.586
 21
13.3102
  0
LINE
  8
0
 10
234.586
 20
13.3102
 11
234.338
 21
13.3011
  0
LINE
  8
0
 10
234.338
 20
13.3011
 11
234.091
 21
13.3283
  0
LINE
  8
0
 10
4.31406
 20
13.3102
 11
4.07001
 21
13.3553
  0
LINE
  8
0
 10
4.07001
 20
13.3553
 11
3.83511
 21
13.4354
  0
LINE
  8
0
 10
3.83511
 20
13.4354
 11
3.6144
 21
13.5489
  0
LINE
  8
0
 10
3.6144
 20
13.5489
 11
3.41255
 21
13.6933
  0
LINE
  8
0
 10
3.41255
 20
13.6933
 11
3.23389
 21
13.8656
  0
LINE
  8
0
 10
3.23389
 20
13.8656
 11
3.0822
 21
14.062
  0
LINE
  8
0
 10
3.0822
 20
14.062
 11
2.96072
 21
14.2784
  0
LINE
  8
0
 10
2.96072
 20
14.2784
 11
2.87207
 21
14.5102
  0
LINE
  8
0
 10
2.87207
 20
14.5102
 11
2.81812
 21
14.7525
  0
LINE
  8
0
 10
2.81812
 20
14.7525
 11
2.79999
 21
15
  0
LINE
  8
0
 10
2.79999
 20
15
 11
2.81812
 21
15.2475
  0
LINE
  8
0
 10
2.81812
 20
15.2475
 11
2.87207
 21
15.4898
  0
LINE
  8
0
 10
2.87207
 20
15.4898
 11
2.96072
 21
15.7216
  0
LINE
  8
0
 10
2.96072
 20
15.7216
 11
3.0822
 21
15.938
  0
LINE
  8
0
 10
3.0822
 20
15.938
 11
3.23389
 21
16.1344
  0
LINE
  8
0
 10
3.23389
 20
16.1344
 11
3.41255
 21
16.3067
  0
LINE
  8
0
 10
3.41255
 20
16.3067
 11
3.6144
 21
16.4511
  0
LINE
  8
0
 10
3.6144
 20
16.4511
 11
3.83511
 21
16.5646
  0
LINE
  8
0
 10
3.83511
 20
16.5646
 11
4.07001
 21
16.6447
  0
LINE
  8
0
 10
4.07001
 20
16.6447
 11
4.31406
 21
16.6898
  0
LINE
  8
0
 10
4.31406
 20
16.6898
 11
4.56209
 21
16.6989
  0
LINE
  8
0
 10
4.56209
 20
16.6989
 11
4.80878
 21
16.6717
  0
LINE
  8
0
 10
4.80878
 20
16.6717
 11
5.04889
 21
16.6089
  0
LINE
  8
0
 10
5.04889
 20
16.6089
 11
5.2773
 21
16.5119
  0
LINE
  8
0
 10
5.2773
 20
16.5119
 11
5.48915
 21
16.3826
  0
LINE
  8
0
 10
5.48915
 20
16.3826
 11
5.67992
 21
16.2238
  0
LINE
  8
0
 10
5.67992
 20
16.2238
 11
5.84554
 21
16.039
  0
LINE
  8
0
 10
5.84554
 20
16.039
 11
5.98248
 21
15.832
  0
LINE
  8
0
 10
5.98248
 20
15.832
 11
6.08781
 21
15.6073
  0
LINE
  8
0
 10
6.08781
 20
15.6073
 11
6.15932
 21
15.3696
  0
LINE
  8
0
 10
6.15932
 20
15.3696
 11
6.19547
 21
15.1241
  0
LINE
  8
0
 10
6.19547
 20
15.1241
 11
6.19547
 21
14.8759
  0
LINE
  8
0
 10
6.19547
 20
14.8759
 11
6.15932
 21
14.6304
  0
LINE
  8
0
 10
6.15932
 20
14.6304
 11
6.08781
 21
14.3927
  0
LINE
  8
0
 10
6.08781
 20
14.3927
 11
5.98248
 21
14.168
  0
LINE
  8
0
 10
5.98248
 20
14.168
 11
5.84554
 21
13.961
  0
LINE
  8
0
 10
5.84554
 20
13.961
 11
5.67992
 21
13.7762
  0
LINE
  8
0
 10
5.67992
 20
13.7762
 11
5.48915
 21
13.6174
  0
LINE
  8
0
 10
5.48915
 20
13.6174
 11
5.2773
 21
13.4881
  0
LINE
  8
0
 10
5.2773
 20
13.4881
 11
5.04889
 21
13.3911
  0
LINE
  8
0
 10
5.04889
 20
13.3911
 11
4.80878
 21
13.3283
  0
LINE
  8
0
 10
4.80878
 20
13.3283
 11
4.56209
 21
13.3011
  0
LINE
  8
0
 10
4.56209
 20
13.3011
 11
4.31406
 21
13.3102
  0
LINE
  8
0
 10
163.751
 20
12.2678
 11
163.507
 21
12.3209
  0
LINE
  8
0
 10
163.507
 20
12.3209
 11
163.273
 21
12.4081
  0
LINE
  8
0
 10
163.273
 20
12.4081
 11
163.054
 21
12.5278
  0
LINE
  8
0
 10
163.054
 20
12.5278
 11
162.854
 21
12.6774
  0
LINE
  8
0
 10
162.854
 20
12.6774
 11
162.677
 21
12.854
  0
LINE
  8
0
 10
162.677
 20
12.854
 11
162.528
 21
13.0539
  0
LINE
  8
0
 10
162.528
 20
13.0539
 11
162.408
 21
13.273
  0
LINE
  8
0
 10
162.408
 20
13.273
 11
162.321
 21
13.507
  0
LINE
  8
0
 10
162.321
 20
13.507
 11
162.268
 21
13.7509
  0
LINE
  8
0
 10
162.268
 20
13.7509
 11
162.25
 21
14
  0
LINE
  8
0
 10
162.25
 20
14
 11
162.268
 21
14.249
  0
LINE
  8
0
 10
162.268
 20
14.249
 11
162.321
 21
14.493
  0
LINE
  8
0
 10
162.321
 20
14.493
 11
162.408
 21
14.727
  0
LINE
  8
0
 10
162.408
 20
14.727
 11
162.528
 21
14.9461
  0
LINE
  8
0
 10
162.528
 20
14.9461
 11
162.677
 21
15.146
  0
LINE
  8
0
 10
162.677
 20
15.146
 11
162.854
 21
15.3226
  0
LINE
  8
0
 10
162.854
 20
15.3226
 11
163.054
 21
15.4722
  0
LINE
  8
0
 10
163.054
 20
15.4722
 11
163.273
 21
15.5918
  0
LINE
  8
0
 10
163.273
 20
15.5918
 11
163.507
 21
15.6791
  0
LINE
  8
0
 10
163.507
 20
15.6791
 11
163.751
 21
15.7322
  0
LINE
  8
0
 10
163.751
 20
15.7322
 11
164
 21
15.75
  0
LINE
  8
0
 10
164
 20
15.75
 11
164.249
 21
15.7322
  0
LINE
  8
0
 10
164.249
 20
15.7322
 11
164.493
 21
15.6791
  0
LINE
  8
0
 10
164.493
 20
15.6791
 11
164.727
 21
15.5918
  0
LINE
  8
0
 10
164.727
 20
15.5918
 11
164.946
 21
15.4722
  0
LINE
  8
0
 10
164.946
 20
15.4722
 11
165.146
 21
15.3226
  0
LINE
  8
0
 10
165.146
 20
15.3226
 11
165.323
 21
15.146
  0
LINE
  8
0
 10
165.323
 20
15.146
 11
165.472
 21
14.9461
  0
LINE
  8
0
 10
165.472
 20
14.9461
 11
165.592
 21
14.727
  0
LINE
  8
0
 10
165.592
 20
14.727
 11
165.679
 21
14.493
  0
LINE
  8
0
 10
165.679
 20
14.493
 11
165.732
 21
14.249
  0
LINE
  8
0
 10
165.732
 20
14.249
 11
165.75
 21
14
  0
LINE
  8
0
 10
165.75
 20
14
 11
165.732
 21
13.7509
  0
LINE
  8
0
 10
165.732
 20
13.7509
 11
165.679
 21
13.507
  0
LINE
  8
0
 10
165.679
 20
13.507
 11
165.592
 21
13.273
  0
LINE
  8
0
 10
165.592
 20
13.273
 11
165.472
 21
13.0539
  0
LINE
  8
0
 10
165.472
 20
13.0539
 11
165.323
 21
12.854
  0
LINE
  8
0
 10
165.323
 20
12.854
 11
165.146
 21
12.6774
  0
LINE
  8
0
 10
165.146
 20
12.6774
 11
164.946
 21
12.5278
  0
LINE
  8
0
 10
164.946
 20
12.5278
 11
164.727
 21
12.4081
  0
LINE
  8
0
 10
164.727
 20
12.4081
 11
164.493
 21
12.3209
  0
LINE
  8
0
 10
164.493
 20
12.3209
 11
164.249
 21
12.2678
  0
LINE
  8
0
 10
164.249
 20
12.2678
 11
164
 21
12.25
  0
LINE
  8
0
 10
164
 20
12.25
 11
163.751
 21
12.2678
  0
LINE
  8
0
 10
85.7509
 20
12.2678
 11
85.507
 21
12.3209
  0
LINE
  8
0
 10
85.507
 20
12.3209
 11
85.273
 21
12.4081
  0
LINE
  8
0
 10
85.273
 20
12.4081
 11
85.0539
 21
12.5278
  0
LINE
  8
0
 10
85.0539
 20
12.5278
 11
84.854
 21
12.6774
  0
LINE
  8
0
 10
84.854
 20
12.6774
 11
84.6774
 21
12.854
  0
LINE
  8
0
 10
84.6774
 20
12.854
 11
84.5278
 21
13.0539
  0
LINE
  8
0
 10
84.5278
 20
13.0539
 11
84.4081
 21
13.273
  0
LINE
  8
0
 10
84.4081
 20
13.273
 11
84.3209
 21
13.507
  0
LINE
  8
0
 10
84.3209
 20
13.507
 11
84.2678
 21
13.7509
  0
LINE
  8
0
 10
84.2678
 20
13.7509
 11
84.25
 21
14
  0
LINE
  8
0
 10
84.25
 20
14
 11
84.2678
 21
14.249
  0
LINE
  8
0
 10
84.2678
 20
14.249
 11
84.3209
 21
14.493
  0
LINE
  8
0
 10
84.3209
 20
14.493
 11
84.4081
 21
14.727
  0
LINE
  8
0
 10
84.4081
 20
14.727
 11
84.5278
 21
14.9461
  0
LINE
  8
0
 10
84.5278
 20
14.9461
 11
84.6774
 21
15.146
  0
LINE
  8
0
 10
84.6774
 20
15.146
 11
84.854
 21
15.3226
  0
LINE
  8
0
 10
84.854
 20
15.3226
 11
85.0539
 21
15.4722
  0
LINE
  8
0
 10
85.0539
 20
15.4722
 11
85.273
 21
15.5918
  0
LINE
  8
0
 10
85.273
 20
15.5918
 11
85.507
 21
15.6791
  0
LINE
  8
0
 10
85.507
 20
15.6791
 11
85.7509
 21
15.7322
  0
LINE
  8
0
 10
85.7509
 20
15.7322
 11
86
 21
15.75
  0
LINE
  8
0
 10
86
 20
15.75
 11
86.2491
 21
15.7322
  0
LINE
  8
0
 10
86.2491
 20
15.7322
 11
86.493
 21
15.6791
  0
LINE
  8
0
 10
86.493
 20
15.6791
 11
86.727
 21
15.5918
  0
LINE
  8
0
 10
86.727
 20
15.5918
 11
86.9461
 21
15.4722
  0
LINE
  8
0
 10
86.9461
 20
15.4722
 11
87.146
 21
15.3226
  0
LINE
  8
0
 10
87.146
 20
15.3226
 11
87.3226
 21
15.146
  0
LINE
  8
0
 10
87.3226
 20
15.146
 11
87.4722
 21
14.9461
  0
LINE
  8
0
 10
87.4722
 20
14.9461
 11
87.5919
 21
14.727
  0
LINE
  8
0
 10
87.5919
 20
14.727
 11
87.6791
 21
14.493
  0
LINE
  8
0
 10
87.6791
 20
14.493
 11
87.7322
 21
14.249
  0
LINE
  8
0
 10
87.7322
 20
14.249
 11
87.75
 21
14
  0
LINE
  8
0
 10
87.75
 20
14
 11
87.7322
 21
13.7509
  0
LINE
  8
0
 10
87.7322
 20
13.7509
 11
87.6791
 21
13.507
  0
LINE
  8
0
 10
87.6791
 20
13.507
 11
87.5919
 21
13.273
  0
LINE
  8
0
 10
87.5919
 20
13.273
 11
87.4722
 21
13.0539
  0
LINE
  8
0
 10
87.4722
 20
13.0539
 11
87.3226
 21
12.854
  0
LINE
  8
0
 10
87.3226
 20
12.854
 11
87.146
 21
12.6774
  0
LINE
  8
0
 10
87.146
 20
12.6774
 11
86.9461
 21
12.5278
  0
LINE
  8
0
 10
86.9461
 20
12.5278
 11
86.727
 21
12.4081
  0
LINE
  8
0
 10
86.727
 20
12.4081
 11
86.493
 21
12.3209
  0
LINE
  8
0
 10
86.493
 20
12.3209
 11
86.2491
 21
12.2678
  0
LINE
  8
0
 10
86.2491
 20
12.2678
 11
86
 21
12.25
  0
LINE
  8
0
 10
86
 20
12.25
 11
85.7509
 21
12.2678
  0
LINE
  8
0
 10
53.7509
 20
12.2678
 11
53.507
 21
12.3209
  0
LINE
  8
0
 10
53.507
 20
12.3209
 11
53.273
 21
12.4081
  0
LINE
  8
0
 10
53.273
 20
12.4081
 11
53.0539
 21
12.5278
  0
LINE
  8
0
 10
53.0539
 20
12.5278
 11
52.854
 21
12.6774
  0
LINE
  8
0
 10
52.854
 20
12.6774
 11
52.6774
 21
12.854
  0
LINE
  8
0
 10
52.6774
 20
12.854
 11
52.5278
 21
13.0539
  0
LINE
  8
0
 10
52.5278
 20
13.0539
 11
52.4081
 21
13.273
  0
LINE
  8
0
 10
52.4081
 20
13.273
 11
52.3209
 21
13.507
  0
LINE
  8
0
 10
52.3209
 20
13.507
 11
52.2678
 21
13.7509
  0
LINE
  8
0
 10
52.2678
 20
13.7509
 11
52.25
 21
14
  0
LINE
  8
0
 10
52.25
 20
14
 11
52.2678
 21
14.249
  0
LINE
  8
0
 10
52.2678
 20
14.249
 11
52.3209
 21
14.493
  0
LINE
  8
0
 10
52.3209
 20
14.493
 11
52.4081
 21
14.727
  0
LINE
  8
0
 10
52.4081
 20
14.727
 11
52.5278
 21
14.9461
  0
LINE
  8
0
 10
52.5278
 20
14.9461
 11
52.6774
 21
15.146
  0
LINE
  8
0
 10
52.6774
 20
15.146
 11
52.854
 21
15.3226
  0
LINE
  8
0
 10
52.854
 20
15.3226
 11
53.0539
 21
15.4722
  0
LINE
  8
0
 10
53.0539
 20
15.4722
 11
53.273
 21
15.5918
  0
LINE
  8
0
 10
53.273
 20
15.5918
 11
53.507
 21
15.6791
  0
LINE
  8
0
 10
53.507
 20
15.6791
 11
53.7509
 21
15.7322
  0
LINE
  8
0
 10
53.7509
 20
15.7322
 11
54
 21
15.75
  0
LINE
  8
0
 10
54
 20
15.75
 11
54.249
 21
15.7322
  0
LINE
  8
0
 10
54.249
 20
15.7322
 11
54.493
 21
15.6791
  0
LINE
  8
0
 10
54.493
 20
15.6791
 11
54.727
 21
15.5918
  0
LINE
  8
0
 10
54.727
 20
15.5918
 11
54.9461
 21
15.4722
  0
LINE
  8
0
 10
54.9461
 20
15.4722
 11
55.146
 21
15.3226
  0
LINE
  8
0
 10
55.146
 20
15.3226
 11
55.3226
 21
15.146
  0
LINE
  8
0
 10
55.3226
 20
15.146
 11
55.4722
 21
14.9461
  0
LINE
  8
0
 10
55.4722
 20
14.9461
 11
55.5919
 21
14.727
  0
LINE
  8
0
 10
55.5919
 20
14.727
 11
55.6791
 21
14.493
  0
LINE
  8
0
 10
55.6791
 20
14.493
 11
55.7322
 21
14.249
  0
LINE
  8
0
 10
55.7322
 20
14.249
 11
55.75
 21
14
  0
LINE
  8
0
 10
55.75
 20
14
 11
55.7322
 21
13.7509
  0
LINE
  8
0
 10
55.7322
 20
13.7509
 11
55.6791
 21
13.507
  0
LINE
  8
0
 10
55.6791
 20
13.507
 11
55.5919
 21
13.273
  0
LINE
  8
0
 10
55.5919
 20
13.273
 11
55.4722
 21
13.0539
  0
LINE
  8
0
 10
55.4722
 20
13.0539
 11
55.3226
 21
12.854
  0
LINE
  8
0
 10
55.3226
 20
12.854
 11
55.146
 21
12.6774
  0
LINE
  8
0
 10
55.146
 20
12.6774
 11
54.9461
 21
12.5278
  0
LINE
  8
0
 10
54.9461
 20
12.5278
 11
54.727
 21
12.4081
  0
LINE
  8
0
 10
54.727
 20
12.4081
 11
54.493
 21
12.3209
  0
LINE
  8
0
 10
54.493
 20
12.3209
 11
54.249
 21
12.2678
  0
LINE
  8
0
 10
54.249
 20
12.2678
 11
54
 21
12.25
  0
LINE
  8
0
 10
54
 20
12.25
 11
53.7509
 21
12.2678
  0
LINE
  8
0
 10
195.751
 20
12.2678
 11
195.507
 21
12.3209
  0
LINE
  8
0
 10
195.507
 20
12.3209
 11
195.273
 21
12.4081
  0
LINE
  8
0
 10
195.273
 20
12.4081
 11
195.054
 21
12.5278
  0
LINE
  8
0
 10
195.054
 20
12.5278
 11
194.854
 21
12.6774
  0
LINE
  8
0
 10
194.854
 20
12.6774
 11
194.677
 21
12.854
  0
LINE
  8
0
 10
194.677
 20
12.854
 11
194.528
 21
13.0539
  0
LINE
  8
0
 10
194.528
 20
13.0539
 11
194.408
 21
13.273
  0
LINE
  8
0
 10
194.408
 20
13.273
 11
194.321
 21
13.507
  0
LINE
  8
0
 10
194.321
 20
13.507
 11
194.268
 21
13.7509
  0
LINE
  8
0
 10
194.268
 20
13.7509
 11
194.25
 21
14
  0
LINE
  8
0
 10
194.25
 20
14
 11
194.268
 21
14.249
  0
LINE
  8
0
 10
194.268
 20
14.249
 11
194.321
 21
14.493
  0
LINE
  8
0
 10
194.321
 20
14.493
 11
194.408
 21
14.727
  0
LINE
  8
0
 10
194.408
 20
14.727
 11
194.528
 21
14.9461
  0
LINE
  8
0
 10
194.528
 20
14.9461
 11
194.677
 21
15.146
  0
LINE
  8
0
 10
194.677
 20
15.146
 11
194.854
 21
15.3226
  0
LINE
  8
0
 10
194.854
 20
15.3226
 11
195.054
 21
15.4722
  0
LINE
  8
0
 10
195.054
 20
15.4722
 11
195.273
 21
15.5918
  0
LINE
  8
0
 10
195.273
 20
15.5918
 11
195.507
 21
15.6791
  0
LINE
  8
0
 10
195.507
 20
15.6791
 11
195.751
 21
15.7322
  0
LINE
  8
0
 10
195.751
 20
15.7322
 11
196
 21
15.75
  0
LINE
  8
0
 10
196
 20
15.75
 11
196.249
 21
15.7322
  0
LINE
  8
0
 10
196.249
 20
15.7322
 11
196.493
 21
15.6791
  0
LINE
  8
0
 10
196.493
 20
15.6791
 11
196.727
 21
15.5918
  0
LINE
  8
0
 10
196.727
 20
15.5918
 11
196.946
 21
15.4722
  0
LINE
  8
0
 10
196.946
 20
15.4722
 11
197.146
 21
15.3226
  0
LINE
  8
0
 10
197.146
 20
15.3226
 11
197.323
 21
15.146
  0
LINE
  8
0
 10
197.323
 20
15.146
 11
197.472
 21
14.9461
  0
LINE
  8
0
 10
197.472
 20
14.9461
 11
197.592
 21
14.727
  0
LINE
  8
0
 10
197.592
 20
14.727
 11
197.679
 21
14.493
  0
LINE
  8
0
 10
197.679
 20
14.493
 11
197.732
 21
14.249
  0
LINE
  8
0
 10
197.732
 20
14.249
 11
197.75
 21
14
  0
LINE
  8
0
 10
197.75
 20
14
 11
197.732
 21
13.7509
  0
LINE
  8
0
 10
197.732
 20
13.7509
 11
197.679
 21
13.507
  0
LINE
  8
0
 10
197.679
 20
13.507
 11
197.592
 21
13.273
  0
LINE
  8
0
 10
197.592
 20
13.273
 11
197.472
 21
13.0539
  0
LINE
  8
0
 10
197.472
 20
13.0539
 11
197.323
 21
12.854
  0
LINE
  8
0
 10
197.323
 20
12.854
 11
197.146
 21
12.6774
  0
LINE
  8
0
 10
197.146
 20
12.6774
 11
196.946
 21
12.5278
  0
LINE
  8
0
 10
196.946
 20
12.5278
 11
196.727
 21
12.4081
  0
LINE
  8
0
 10
196.727
 20
12.4081
 11
196.493
 21
12.3209
  0
LINE
  8
0
 10
196.493
 20
12.3209
 11
196.249
 21
12.2678
  0
LINE
  8
0
 10
196.249
 20
12.2678
 11
196
 21
12.25
  0
LINE
  8
0
 10
196
 20
12.25
 11
195.751
 21
12.2678
  0
ENDSEC
  0
SECTION
  2
OBJECTS
  0
DICTIONARY
  0
ENDSEC
  0
EOF
