  0
SECTION
  2
BLOCKS
  0
ENDSEC
  0
SECTION
  2
ENTITIES
  0
LINE
  8
0
 10
238.9
 20
59
 11
0
 21
59
  0
LINE
  8
0
 10
0
 20
59
 11
0
 21
0
  0
LINE
  8
0
 10
0
 20
0
 11
238.9
 21
0
  0
LINE
  8
0
 10
238.9
 20
0
 11
238.9
 21
59
  0
LINE
  8
0
 10
190.091
 20
47.6783
 11
189.851
 21
47.741
  0
LINE
  8
0
 10
189.851
 20
47.741
 11
189.623
 21
47.8381
  0
LINE
  8
0
 10
189.623
 20
47.8381
 11
189.411
 21
47.9674
  0
LINE
  8
0
 10
189.411
 20
47.9674
 11
189.22
 21
48.1262
  0
LINE
  8
0
 10
189.22
 20
48.1262
 11
189.054
 21
48.311
  0
LINE
  8
0
 10
189.054
 20
48.311
 11
188.918
 21
48.518
  0
LINE
  8
0
 10
188.918
 20
48.518
 11
188.812
 21
48.7427
  0
LINE
  8
0
 10
188.812
 20
48.7427
 11
188.741
 21
48.9804
  0
LINE
  8
0
 10
188.741
 20
48.9804
 11
188.705
 21
49.2259
  0
LINE
  8
0
 10
188.705
 20
49.2259
 11
188.705
 21
49.4741
  0
LINE
  8
0
 10
188.705
 20
49.4741
 11
188.741
 21
49.7196
  0
LINE
  8
0
 10
188.741
 20
49.7196
 11
188.812
 21
49.9573
  0
LINE
  8
0
 10
188.812
 20
49.9573
 11
188.918
 21
50.182
  0
LINE
  8
0
 10
188.918
 20
50.182
 11
189.054
 21
50.389
  0
LINE
  8
0
 10
189.054
 20
50.389
 11
189.22
 21
50.5738
  0
LINE
  8
0
 10
189.22
 20
50.5738
 11
189.411
 21
50.7326
  0
LINE
  8
0
 10
189.411
 20
50.7326
 11
189.623
 21
50.8619
  0
LINE
  8
0
 10
189.623
 20
50.8619
 11
189.851
 21
50.9589
  0
LINE
  8
0
 10
189.851
 20
50.9589
 11
190.091
 21
51.0217
  0
LINE
  8
0
 10
190.091
 20
51.0217
 11
190.338
 21
51.0489
  0
LINE
  8
0
 10
190.338
 20
51.0489
 11
190.586
 21
51.0398
  0
LINE
  8
0
 10
190.586
 20
51.0398
 11
190.83
 21
50.9947
  0
LINE
  8
0
 10
190.83
 20
50.9947
 11
191.065
 21
50.9146
  0
LINE
  8
0
 10
191.065
 20
50.9146
 11
191.286
 21
50.8011
  0
LINE
  8
0
 10
191.286
 20
50.8011
 11
191.487
 21
50.6567
  0
LINE
  8
0
 10
191.487
 20
50.6567
 11
191.666
 21
50.4844
  0
LINE
  8
0
 10
191.666
 20
50.4844
 11
191.818
 21
50.288
  0
LINE
  8
0
 10
191.818
 20
50.288
 11
191.939
 21
50.0716
  0
LINE
  8
0
 10
191.939
 20
50.0716
 11
192.028
 21
49.8398
  0
LINE
  8
0
 10
192.028
 20
49.8398
 11
192.082
 21
49.5975
  0
LINE
  8
0
 10
192.082
 20
49.5975
 11
192.1
 21
49.35
  0
LINE
  8
0
 10
192.1
 20
49.35
 11
192.082
 21
49.1025
  0
LINE
  8
0
 10
192.082
 20
49.1025
 11
192.028
 21
48.8602
  0
LINE
  8
0
 10
192.028
 20
48.8602
 11
191.939
 21
48.6284
  0
LINE
  8
0
 10
191.939
 20
48.6284
 11
191.818
 21
48.412
  0
LINE
  8
0
 10
191.818
 20
48.412
 11
191.666
 21
48.2155
  0
LINE
  8
0
 10
191.666
 20
48.2155
 11
191.487
 21
48.0433
  0
LINE
  8
0
 10
191.487
 20
48.0433
 11
191.286
 21
47.8989
  0
LINE
  8
0
 10
191.286
 20
47.8989
 11
191.065
 21
47.7854
  0
LINE
  8
0
 10
191.065
 20
47.7854
 11
190.83
 21
47.7053
  0
LINE
  8
0
 10
190.83
 20
47.7053
 11
190.586
 21
47.6602
  0
LINE
  8
0
 10
190.586
 20
47.6602
 11
190.338
 21
47.6511
  0
LINE
  8
0
 10
190.338
 20
47.6511
 11
190.091
 21
47.6783
  0
LINE
  8
0
 10
234.091
 20
42.3283
 11
233.851
 21
42.3911
  0
LINE
  8
0
 10
233.851
 20
42.3911
 11
233.623
 21
42.4881
  0
LINE
  8
0
 10
233.623
 20
42.4881
 11
233.411
 21
42.6174
  0
LINE
  8
0
 10
233.411
 20
42.6174
 11
233.22
 21
42.7762
  0
LINE
  8
0
 10
233.22
 20
42.7762
 11
233.054
 21
42.961
  0
LINE
  8
0
 10
233.054
 20
42.961
 11
232.918
 21
43.168
  0
LINE
  8
0
 10
232.918
 20
43.168
 11
232.812
 21
43.3927
  0
LINE
  8
0
 10
232.812
 20
43.3927
 11
232.741
 21
43.6304
  0
LINE
  8
0
 10
232.741
 20
43.6304
 11
232.705
 21
43.8759
  0
LINE
  8
0
 10
232.705
 20
43.8759
 11
232.705
 21
44.1241
  0
LINE
  8
0
 10
232.705
 20
44.1241
 11
232.741
 21
44.3696
  0
LINE
  8
0
 10
232.741
 20
44.3696
 11
232.812
 21
44.6073
  0
LINE
  8
0
 10
232.812
 20
44.6073
 11
232.918
 21
44.832
  0
LINE
  8
0
 10
232.918
 20
44.832
 11
233.054
 21
45.039
  0
LINE
  8
0
 10
233.054
 20
45.039
 11
233.22
 21
45.2238
  0
LINE
  8
0
 10
233.22
 20
45.2238
 11
233.411
 21
45.3826
  0
LINE
  8
0
 10
233.411
 20
45.3826
 11
233.623
 21
45.5119
  0
LINE
  8
0
 10
233.623
 20
45.5119
 11
233.851
 21
45.6089
  0
LINE
  8
0
 10
233.851
 20
45.6089
 11
234.091
 21
45.6717
  0
LINE
  8
0
 10
234.091
 20
45.6717
 11
234.338
 21
45.6989
  0
LINE
  8
0
 10
234.338
 20
45.6989
 11
234.586
 21
45.6898
  0
LINE
  8
0
 10
234.586
 20
45.6898
 11
234.83
 21
45.6447
  0
LINE
  8
0
 10
234.83
 20
45.6447
 11
235.065
 21
45.5646
  0
LINE
  8
0
 10
235.065
 20
45.5646
 11
235.286
 21
45.4511
  0
LINE
  8
0
 10
235.286
 20
45.4511
 11
235.487
 21
45.3067
  0
LINE
  8
0
 10
235.487
 20
45.3067
 11
235.666
 21
45.1344
  0
LINE
  8
0
 10
235.666
 20
45.1344
 11
235.818
 21
44.938
  0
LINE
  8
0
 10
235.818
 20
44.938
 11
235.939
 21
44.7216
  0
LINE
  8
0
 10
235.939
 20
44.7216
 11
236.028
 21
44.4898
  0
LINE
  8
0
 10
236.028
 20
44.4898
 11
236.082
 21
44.2475
  0
LINE
  8
0
 10
236.082
 20
44.2475
 11
236.1
 21
44
  0
LINE
  8
0
 10
236.1
 20
44
 11
236.082
 21
43.7525
  0
LINE
  8
0
 10
236.082
 20
43.7525
 11
236.028
 21
43.5102
  0
LINE
  8
0
 10
236.028
 20
43.5102
 11
235.939
 21
43.2784
  0
LINE
  8
0
 10
235.939
 20
43.2784
 11
235.818
 21
43.062
  0
LINE
  8
0
 10
235.818
 20
43.062
 11
235.666
 21
42.8656
  0
LINE
  8
0
 10
235.666
 20
42.8656
 11
235.487
 21
42.6933
  0
LINE
  8
0
 10
235.487
 20
42.6933
 11
235.286
 21
42.5489
  0
LINE
  8
0
 10
235.286
 20
42.5489
 11
235.065
 21
42.4354
  0
LINE
  8
0
 10
235.065
 20
42.4354
 11
234.83
 21
42.3553
  0
LINE
  8
0
 10
234.83
 20
42.3553
 11
234.586
 21
42.3102
  0
LINE
  8
0
 10
234.586
 20
42.3102
 11
234.338
 21
42.3011
  0
LINE
  8
0
 10
234.338
 20
42.3011
 11
234.091
 21
42.3283
  0
LINE
  8
0
 10
4.31406
 20
42.3102
 11
4.07001
 21
42.3553
  0
LINE
  8
0
 10
4.07001
 20
42.3553
 11
3.83511
 21
42.4354
  0
LINE
  8
0
 10
3.83511
 20
42.4354
 11
3.6144
 21
42.5489
  0
LINE
  8
0
 10
3.6144
 20
42.5489
 11
3.41255
 21
42.6933
  0
LINE
  8
0
 10
3.41255
 20
42.6933
 11
3.23389
 21
42.8656
  0
LINE
  8
0
 10
3.23389
 20
42.8656
 11
3.0822
 21
43.062
  0
LINE
  8
0
 10
3.0822
 20
43.062
 11
2.96072
 21
43.2784
  0
LINE
  8
0
 10
2.96072
 20
43.2784
 11
2.87207
 21
43.5102
  0
LINE
  8
0
 10
2.87207
 20
43.5102
 11
2.81812
 21
43.7525
  0
LINE
  8
0
 10
2.81812
 20
43.7525
 11
2.79999
 21
44
  0
LINE
  8
0
 10
2.79999
 20
44
 11
2.81812
 21
44.2475
  0
LINE
  8
0
 10
2.81812
 20
44.2475
 11
2.87207
 21
44.4898
  0
LINE
  8
0
 10
2.87207
 20
44.4898
 11
2.96072
 21
44.7216
  0
LINE
  8
0
 10
2.96072
 20
44.7216
 11
3.0822
 21
44.938
  0
LINE
  8
0
 10
3.0822
 20
44.938
 11
3.23389
 21
45.1344
  0
LINE
  8
0
 10
3.23389
 20
45.1344
 11
3.41255
 21
45.3067
  0
LINE
  8
0
 10
3.41255
 20
45.3067
 11
3.6144
 21
45.4511
  0
LINE
  8
0
 10
3.6144
 20
45.4511
 11
3.83511
 21
45.5646
  0
LINE
  8
0
 10
3.83511
 20
45.5646
 11
4.07001
 21
45.6447
  0
LINE
  8
0
 10
4.07001
 20
45.6447
 11
4.31406
 21
45.6898
  0
LINE
  8
0
 10
4.31406
 20
45.6898
 11
4.56209
 21
45.6989
  0
LINE
  8
0
 10
4.56209
 20
45.6989
 11
4.80878
 21
45.6717
  0
LINE
  8
0
 10
4.80878
 20
45.6717
 11
5.04889
 21
45.6089
  0
LINE
  8
0
 10
5.04889
 20
45.6089
 11
5.2773
 21
45.5119
  0
LINE
  8
0
 10
5.2773
 20
45.5119
 11
5.48915
 21
45.3826
  0
LINE
  8
0
 10
5.48915
 20
45.3826
 11
5.67992
 21
45.2238
  0
LINE
  8
0
 10
5.67992
 20
45.2238
 11
5.84554
 21
45.039
  0
LINE
  8
0
 10
5.84554
 20
45.039
 11
5.98248
 21
44.832
  0
LINE
  8
0
 10
5.98248
 20
44.832
 11
6.08781
 21
44.6073
  0
LINE
  8
0
 10
6.08781
 20
44.6073
 11
6.15932
 21
44.3696
  0
LINE
  8
0
 10
6.15932
 20
44.3696
 11
6.19547
 21
44.1241
  0
LINE
  8
0
 10
6.19547
 20
44.1241
 11
6.19547
 21
43.8759
  0
LINE
  8
0
 10
6.19547
 20
43.8759
 11
6.15932
 21
43.6304
  0
LINE
  8
0
 10
6.15932
 20
43.6304
 11
6.08781
 21
43.3927
  0
LINE
  8
0
 10
6.08781
 20
43.3927
 11
5.98248
 21
43.168
  0
LINE
  8
0
 10
5.98248
 20
43.168
 11
5.84554
 21
42.961
  0
LINE
  8
0
 10
5.84554
 20
42.961
 11
5.67992
 21
42.7762
  0
LINE
  8
0
 10
5.67992
 20
42.7762
 11
5.48915
 21
42.6174
  0
LINE
  8
0
 10
5.48915
 20
42.6174
 11
5.2773
 21
42.4881
  0
LINE
  8
0
 10
5.2773
 20
42.4881
 11
5.04889
 21
42.3911
  0
LINE
  8
0
 10
5.04889
 20
42.3911
 11
4.80878
 21
42.3283
  0
LINE
  8
0
 10
4.80878
 20
42.3283
 11
4.56209
 21
42.3011
  0
LINE
  8
0
 10
4.56209
 20
42.3011
 11
4.31406
 21
42.3102
  0
LINE
  8
0
 10
161.9
 20
15.25
 11
161.9
 21
43.75
  0
LINE
  8
0
 10
161.9
 20
43.75
 11
218.9
 21
43.75
  0
LINE
  8
0
 10
218.9
 20
43.75
 11
218.9
 21
15.25
  0
LINE
  8
0
 10
218.9
 20
15.25
 11
161.9
 21
15.25
  0
LINE
  8
0
 10
4.31406
 20
13.3102
 11
4.07001
 21
13.3553
  0
LINE
  8
0
 10
4.07001
 20
13.3553
 11
3.83511
 21
13.4354
  0
LINE
  8
0
 10
3.83511
 20
13.4354
 11
3.6144
 21
13.5489
  0
LINE
  8
0
 10
3.6144
 20
13.5489
 11
3.41255
 21
13.6933
  0
LINE
  8
0
 10
3.41255
 20
13.6933
 11
3.23389
 21
13.8656
  0
LINE
  8
0
 10
3.23389
 20
13.8656
 11
3.0822
 21
14.062
  0
LINE
  8
0
 10
3.0822
 20
14.062
 11
2.96072
 21
14.2784
  0
LINE
  8
0
 10
2.96072
 20
14.2784
 11
2.87207
 21
14.5102
  0
LINE
  8
0
 10
2.87207
 20
14.5102
 11
2.81812
 21
14.7525
  0
LINE
  8
0
 10
2.81812
 20
14.7525
 11
2.79999
 21
15
  0
LINE
  8
0
 10
2.79999
 20
15
 11
2.81812
 21
15.2475
  0
LINE
  8
0
 10
2.81812
 20
15.2475
 11
2.87207
 21
15.4898
  0
LINE
  8
0
 10
2.87207
 20
15.4898
 11
2.96072
 21
15.7216
  0
LINE
  8
0
 10
2.96072
 20
15.7216
 11
3.0822
 21
15.938
  0
LINE
  8
0
 10
3.0822
 20
15.938
 11
3.23389
 21
16.1344
  0
LINE
  8
0
 10
3.23389
 20
16.1344
 11
3.41255
 21
16.3067
  0
LINE
  8
0
 10
3.41255
 20
16.3067
 11
3.6144
 21
16.4511
  0
LINE
  8
0
 10
3.6144
 20
16.4511
 11
3.83511
 21
16.5646
  0
LINE
  8
0
 10
3.83511
 20
16.5646
 11
4.07001
 21
16.6447
  0
LINE
  8
0
 10
4.07001
 20
16.6447
 11
4.31406
 21
16.6898
  0
LINE
  8
0
 10
4.31406
 20
16.6898
 11
4.56209
 21
16.6989
  0
LINE
  8
0
 10
4.56209
 20
16.6989
 11
4.80878
 21
16.6717
  0
LINE
  8
0
 10
4.80878
 20
16.6717
 11
5.04889
 21
16.6089
  0
LINE
  8
0
 10
5.04889
 20
16.6089
 11
5.2773
 21
16.5119
  0
LINE
  8
0
 10
5.2773
 20
16.5119
 11
5.48915
 21
16.3826
  0
LINE
  8
0
 10
5.48915
 20
16.3826
 11
5.67992
 21
16.2238
  0
LINE
  8
0
 10
5.67992
 20
16.2238
 11
5.84554
 21
16.039
  0
LINE
  8
0
 10
5.84554
 20
16.039
 11
5.98248
 21
15.832
  0
LINE
  8
0
 10
5.98248
 20
15.832
 11
6.08781
 21
15.6073
  0
LINE
  8
0
 10
6.08781
 20
15.6073
 11
6.15932
 21
15.3696
  0
LINE
  8
0
 10
6.15932
 20
15.3696
 11
6.19547
 21
15.1241
  0
LINE
  8
0
 10
6.19547
 20
15.1241
 11
6.19547
 21
14.8759
  0
LINE
  8
0
 10
6.19547
 20
14.8759
 11
6.15932
 21
14.6304
  0
LINE
  8
0
 10
6.15932
 20
14.6304
 11
6.08781
 21
14.3927
  0
LINE
  8
0
 10
6.08781
 20
14.3927
 11
5.98248
 21
14.168
  0
LINE
  8
0
 10
5.98248
 20
14.168
 11
5.84554
 21
13.961
  0
LINE
  8
0
 10
5.84554
 20
13.961
 11
5.67992
 21
13.7762
  0
LINE
  8
0
 10
5.67992
 20
13.7762
 11
5.48915
 21
13.6174
  0
LINE
  8
0
 10
5.48915
 20
13.6174
 11
5.2773
 21
13.4881
  0
LINE
  8
0
 10
5.2773
 20
13.4881
 11
5.04889
 21
13.3911
  0
LINE
  8
0
 10
5.04889
 20
13.3911
 11
4.80878
 21
13.3283
  0
LINE
  8
0
 10
4.80878
 20
13.3283
 11
4.56209
 21
13.3011
  0
LINE
  8
0
 10
4.56209
 20
13.3011
 11
4.31406
 21
13.3102
  0
LINE
  8
0
 10
234.091
 20
13.3283
 11
233.851
 21
13.3911
  0
LINE
  8
0
 10
233.851
 20
13.3911
 11
233.623
 21
13.4881
  0
LINE
  8
0
 10
233.623
 20
13.4881
 11
233.411
 21
13.6174
  0
LINE
  8
0
 10
233.411
 20
13.6174
 11
233.22
 21
13.7762
  0
LINE
  8
0
 10
233.22
 20
13.7762
 11
233.054
 21
13.961
  0
LINE
  8
0
 10
233.054
 20
13.961
 11
232.918
 21
14.168
  0
LINE
  8
0
 10
232.918
 20
14.168
 11
232.812
 21
14.3927
  0
LINE
  8
0
 10
232.812
 20
14.3927
 11
232.741
 21
14.6304
  0
LINE
  8
0
 10
232.741
 20
14.6304
 11
232.705
 21
14.8759
  0
LINE
  8
0
 10
232.705
 20
14.8759
 11
232.705
 21
15.1241
  0
LINE
  8
0
 10
232.705
 20
15.1241
 11
232.741
 21
15.3696
  0
LINE
  8
0
 10
232.741
 20
15.3696
 11
232.812
 21
15.6073
  0
LINE
  8
0
 10
232.812
 20
15.6073
 11
232.918
 21
15.832
  0
LINE
  8
0
 10
232.918
 20
15.832
 11
233.054
 21
16.039
  0
LINE
  8
0
 10
233.054
 20
16.039
 11
233.22
 21
16.2238
  0
LINE
  8
0
 10
233.22
 20
16.2238
 11
233.411
 21
16.3826
  0
LINE
  8
0
 10
233.411
 20
16.3826
 11
233.623
 21
16.5119
  0
LINE
  8
0
 10
233.623
 20
16.5119
 11
233.851
 21
16.6089
  0
LINE
  8
0
 10
233.851
 20
16.6089
 11
234.091
 21
16.6717
  0
LINE
  8
0
 10
234.091
 20
16.6717
 11
234.338
 21
16.6989
  0
LINE
  8
0
 10
234.338
 20
16.6989
 11
234.586
 21
16.6898
  0
LINE
  8
0
 10
234.586
 20
16.6898
 11
234.83
 21
16.6447
  0
LINE
  8
0
 10
234.83
 20
16.6447
 11
235.065
 21
16.5646
  0
LINE
  8
0
 10
235.065
 20
16.5646
 11
235.286
 21
16.4511
  0
LINE
  8
0
 10
235.286
 20
16.4511
 11
235.487
 21
16.3067
  0
LINE
  8
0
 10
235.487
 20
16.3067
 11
235.666
 21
16.1344
  0
LINE
  8
0
 10
235.666
 20
16.1344
 11
235.818
 21
15.938
  0
LINE
  8
0
 10
235.818
 20
15.938
 11
235.939
 21
15.7216
  0
LINE
  8
0
 10
235.939
 20
15.7216
 11
236.028
 21
15.4898
  0
LINE
  8
0
 10
236.028
 20
15.4898
 11
236.082
 21
15.2475
  0
LINE
  8
0
 10
236.082
 20
15.2475
 11
236.1
 21
15
  0
LINE
  8
0
 10
236.1
 20
15
 11
236.082
 21
14.7525
  0
LINE
  8
0
 10
236.082
 20
14.7525
 11
236.028
 21
14.5102
  0
LINE
  8
0
 10
236.028
 20
14.5102
 11
235.939
 21
14.2784
  0
LINE
  8
0
 10
235.939
 20
14.2784
 11
235.818
 21
14.062
  0
LINE
  8
0
 10
235.818
 20
14.062
 11
235.666
 21
13.8656
  0
LINE
  8
0
 10
235.666
 20
13.8656
 11
235.487
 21
13.6933
  0
LINE
  8
0
 10
235.487
 20
13.6933
 11
235.286
 21
13.5489
  0
LINE
  8
0
 10
235.286
 20
13.5489
 11
235.065
 21
13.4354
  0
LINE
  8
0
 10
235.065
 20
13.4354
 11
234.83
 21
13.3553
  0
LINE
  8
0
 10
234.83
 20
13.3553
 11
234.586
 21
13.3102
  0
LINE
  8
0
 10
234.586
 20
13.3102
 11
234.338
 21
13.3011
  0
LINE
  8
0
 10
234.338
 20
13.3011
 11
234.091
 21
13.3283
  0
LINE
  8
0
 10
190.091
 20
7.97827
 11
189.851
 21
8.04105
  0
LINE
  8
0
 10
189.851
 20
8.04105
 11
189.623
 21
8.13811
  0
LINE
  8
0
 10
189.623
 20
8.13811
 11
189.411
 21
8.2674
  0
LINE
  8
0
 10
189.411
 20
8.2674
 11
189.22
 21
8.42616
  0
LINE
  8
0
 10
189.22
 20
8.42616
 11
189.054
 21
8.61099
  0
LINE
  8
0
 10
189.054
 20
8.61099
 11
188.918
 21
8.81798
  0
LINE
  8
0
 10
188.918
 20
8.81798
 11
188.812
 21
9.04269
  0
LINE
  8
0
 10
188.812
 20
9.04269
 11
188.741
 21
9.28036
  0
LINE
  8
0
 10
188.741
 20
9.28036
 11
188.705
 21
9.52589
  0
LINE
  8
0
 10
188.705
 20
9.52589
 11
188.705
 21
9.77408
  0
LINE
  8
0
 10
188.705
 20
9.77408
 11
188.741
 21
10.0196
  0
LINE
  8
0
 10
188.741
 20
10.0196
 11
188.812
 21
10.2573
  0
LINE
  8
0
 10
188.812
 20
10.2573
 11
188.918
 21
10.482
  0
LINE
  8
0
 10
188.918
 20
10.482
 11
189.054
 21
10.689
  0
LINE
  8
0
 10
189.054
 20
10.689
 11
189.22
 21
10.8738
  0
LINE
  8
0
 10
189.22
 20
10.8738
 11
189.411
 21
11.0326
  0
LINE
  8
0
 10
189.411
 20
11.0326
 11
189.623
 21
11.1619
  0
LINE
  8
0
 10
189.623
 20
11.1619
 11
189.851
 21
11.2589
  0
LINE
  8
0
 10
189.851
 20
11.2589
 11
190.091
 21
11.3217
  0
LINE
  8
0
 10
190.091
 20
11.3217
 11
190.338
 21
11.3489
  0
LINE
  8
0
 10
190.338
 20
11.3489
 11
190.586
 21
11.3398
  0
LINE
  8
0
 10
190.586
 20
11.3398
 11
190.83
 21
11.2947
  0
LINE
  8
0
 10
190.83
 20
11.2947
 11
191.065
 21
11.2146
  0
LINE
  8
0
 10
191.065
 20
11.2146
 11
191.286
 21
11.1011
  0
LINE
  8
0
 10
191.286
 20
11.1011
 11
191.487
 21
10.9567
  0
LINE
  8
0
 10
191.487
 20
10.9567
 11
191.666
 21
10.7844
  0
LINE
  8
0
 10
191.666
 20
10.7844
 11
191.818
 21
10.588
  0
LINE
  8
0
 10
191.818
 20
10.588
 11
191.939
 21
10.3716
  0
LINE
  8
0
 10
191.939
 20
10.3716
 11
192.028
 21
10.1398
  0
LINE
  8
0
 10
192.028
 20
10.1398
 11
192.082
 21
9.89751
  0
LINE
  8
0
 10
192.082
 20
9.89751
 11
192.1
 21
9.64999
  0
LINE
  8
0
 10
192.1
 20
9.64999
 11
192.082
 21
9.40247
  0
LINE
  8
0
 10
192.082
 20
9.40247
 11
192.028
 21
9.16022
  0
LINE
  8
0
 10
192.028
 20
9.16022
 11
191.939
 21
8.92842
  0
LINE
  8
0
 10
191.939
 20
8.92842
 11
191.818
 21
8.71199
  0
LINE
  8
0
 10
191.818
 20
8.71199
 11
191.666
 21
8.51555
  0
LINE
  8
0
 10
191.666
 20
8.51555
 11
191.487
 21
8.34329
  0
LINE
  8
0
 10
191.487
 20
8.34329
 11
191.286
 21
8.19888
  0
LINE
  8
0
 10
191.286
 20
8.19888
 11
191.065
 21
8.0854
  0
LINE
  8
0
 10
191.065
 20
8.0854
 11
190.83
 21
8.00526
  0
LINE
  8
0
 10
190.83
 20
8.00526
 11
190.586
 21
7.96019
  0
LINE
  8
0
 10
190.586
 20
7.96019
 11
190.338
 21
7.95113
  0
LINE
  8
0
 10
190.338
 20
7.95113
 11
190.091
 21
7.97827
  0
ENDSEC
  0
SECTION
  2
OBJECTS
  0
DICTIONARY
  0
ENDSEC
  0
EOF
