  0
SECTION
  2
HEADER
  9
$ACADVER
  1
AC1009
  9
$EXTMAX
 10
234.875
 20
107.375
 30
0.0
  9
$EXTMIN
 10
-234.875
 20
-107.375
 30
0.0
  9
$INSUNITS
 70
     4
  9
$LUNITS
 70
     2
  9
$LUPREC
 70
     4
  9
$MEASUREMENT
 70
     1
  0
ENDSEC
  0
SECTION
  2
TABLES
  0
TABLE
  2
LAYER
 70
     1
  0
LAYER
  2
0
 70
     0
 62
    70
  6
Continuous
  0
ENDTAB
  0
TABLE
  2
APPID
 70
     1
  0
APPID
  2
ACAD
 70
     0
  0
ENDTAB
  0
ENDSEC
  0
SECTION
  2
ENTITIES
  0
POLYLINE
  8
0
 66
     1
 10
0.0
 20
0.0
 30
0.0
 70
     1
  0
VERTEX
  8
0
 10
69.8192
 20
-23.2482
 42
0.0209931070906
  0
VERTEX
  8
0
 10
70.2813
 20
-24.4054
 42
0.1829781091006
  0
VERTEX
  8
0
 10
100.666
 20
-54.7507
 42
-0.3539728036326
  0
VERTEX
  8
0
 10
102.504
 20
-56.1841
 42
-0.4778951507018
  0
VERTEX
  8
0
 10
101.038
 20
-58.0
 42
0.0
  0
VERTEX
  8
0
 10
89.1575
 20
-58.0
 42
-0.1449560408001
  0
VERTEX
  8
0
 10
88.3405
 20
-57.758
 42
-0.0262583791174
  0
VERTEX
  8
0
 10
84.6757
 20
-55.3682
 42
-0.0786262687466
  0
VERTEX
  8
0
 10
69.5395
 20
-40.1973
 42
-0.0413765414927
  0
VERTEX
  8
0
 10
67.1247
 20
-36.4413
 42
-0.1029671472084
  0
VERTEX
  8
0
 10
67.0
 20
-35.8425
 42
0.0
  0
VERTEX
  8
0
 10
67.0
 20
-23.9621
 42
-0.778218999138
  0
SEQEND
  0
POLYLINE
  8
0
 66
     1
 10
0.0
 20
0.0
 30
0.0
 70
     1
  0
VERTEX
  8
0
 10
122.134
 20
28.0185
 42
0.1344417433826
  0
VERTEX
  8
0
 10
108.414
 20
22.7626
 42
-0.2543703653241
  0
VERTEX
  8
0
 10
106.308
 20
21.4642
 42
-0.2045782956719
  0
VERTEX
  8
0
 10
105.218
 20
21.9033
 42
0.0
  0
VERTEX
  8
0
 10
101.257
 20
25.8647
 42
-0.4442284732244
  0
VERTEX
  8
0
 10
101.373
 20
28.0911
 42
-0.1511894637062
  0
VERTEX
  8
0
 10
121.237
 20
36.5528
 42
-0.540357710379
  0
VERTEX
  8
0
 10
123.5
 20
35.0907
 42
0.0
  0
VERTEX
  8
0
 10
123.5
 20
29.5115
 42
-0.3986877419962
  0
VERTEX
  8
0
 10
122.134
 20
28.0219
 42
-0.0143248530283
  0
SEQEND
  0
POLYLINE
  8
0
 66
     1
 10
0.0
 20
0.0
 30
0.0
 70
     1
  0
VERTEX
  8
0
 10
226.951
 20
44.1089
 42
-27.5228952261678
  0
VERTEX
  8
0
 10
226.723
 20
44.0119
 42
0.0
  0
SEQEND
  0
POLYLINE
  8
0
 66
     1
 10
0.0
 20
0.0
 30
0.0
 70
     1
  0
VERTEX
  8
0
 10
123.486
 20
45.876
 42
-0.0346290530006
  0
VERTEX
  8
0
 10
123.5
 20
40.0948
 42
-0.3987740198483
  0
VERTEX
  8
0
 10
122.079
 20
38.5969
 42
0.166526883705
  0
VERTEX
  8
0
 10
99.7082
 20
29.3127
 42
-0.3839261460583
  0
VERTEX
  8
0
 10
97.7036
 20
29.4178
 42
0.0
  0
VERTEX
  8
0
 10
93.7422
 20
33.3792
 42
-0.4454271192303
  0
VERTEX
  8
0
 10
93.8589
 20
35.6055
 42
-0.1555603924081
  0
VERTEX
  8
0
 10
120.131
 20
47.0782
 42
-0.2590238737542
  0
VERTEX
  8
0
 10
122.858
 20
46.9044
 42
-0.2088199845915
  0
SEQEND
  0
POLYLINE
  8
0
 66
     1
 10
0.0
 20
0.0
 30
0.0
 70
     1
  0
VERTEX
  8
0
 10
182.987
 20
-23.7684
 42
0.0
  0
VERTEX
  8
0
 10
183.0
 20
-23.9621
 42
0.0
  0
VERTEX
  8
0
 10
183.0
 20
-35.8425
 42
-0.1456371039063
  0
VERTEX
  8
0
 10
182.758
 20
-36.6595
 42
-0.0281081001199
  0
VERTEX
  8
0
 10
180.368
 20
-40.3243
 42
-0.0786245966758
  0
VERTEX
  8
0
 10
165.197
 20
-55.4605
 42
-0.041172012818
  0
VERTEX
  8
0
 10
161.441
 20
-57.8753
 42
-0.103328352863
  0
VERTEX
  8
0
 10
160.843
 20
-58.0
 42
0.0
  0
VERTEX
  8
0
 10
148.962
 20
-58.0
 42
-0.8327023956744
  0
VERTEX
  8
0
 10
148.425
 20
-55.0996
 42
0.0284833676672
  0
VERTEX
  8
0
 10
149.405
 20
-54.7187
 42
0.1047794784022
  0
VERTEX
  8
0
 10
169.499
 20
-40.1199
 42
0.0788462436998
  0
VERTEX
  8
0
 10
179.751
 20
-24.3336
 42
-0.3542627670972
  0
VERTEX
  8
0
 10
181.184
 20
-22.4958
 42
-0.4373239416494
  0
SEQEND
  0
POLYLINE
  8
0
 66
     1
 10
0.0
 20
0.0
 30
0.0
 70
     1
  0
VERTEX
  8
0
 10
127.866
 20
-28.0185
 42
0.1344417433827
  0
VERTEX
  8
0
 10
141.586
 20
-22.7626
 42
-0.254370365324
  0
VERTEX
  8
0
 10
143.692
 20
-21.4642
 42
-0.2045782956725
  0
VERTEX
  8
0
 10
144.782
 20
-21.9033
 42
0.0
  0
VERTEX
  8
0
 10
148.743
 20
-25.8647
 42
-0.4442284732252
  0
VERTEX
  8
0
 10
148.627
 20
-28.0911
 42
-0.1511894637062
  0
VERTEX
  8
0
 10
128.763
 20
-36.5528
 42
-0.5403577103813
  0
VERTEX
  8
0
 10
126.5
 20
-35.0907
 42
0.0
  0
VERTEX
  8
0
 10
126.5
 20
-29.5115
 42
-0.3986877419962
  0
VERTEX
  8
0
 10
127.866
 20
-28.0219
 42
-0.0143248530278
  0
SEQEND
  0
POLYLINE
  8
0
 66
     1
 10
0.0
 20
0.0
 30
0.0
 70
     1
  0
VERTEX
  8
0
 10
130.465
 20
7.82314
 42
-33.1178750688356
  0
VERTEX
  8
0
 10
130.228
 20
7.75941
 42
0.0
  0
SEQEND
  0
POLYLINE
  8
0
 66
     1
 10
0.0
 20
0.0
 30
0.0
 70
     1
  0
VERTEX
  8
0
 10
127.876
 20
47.1689
 42
-0.1705836967524
  0
VERTEX
  8
0
 10
156.141
 20
35.6055
 42
-0.4453561870027
  0
VERTEX
  8
0
 10
156.258
 20
33.3792
 42
0.0
  0
VERTEX
  8
0
 10
152.296
 20
29.4178
 42
-0.3842246008123
  0
VERTEX
  8
0
 10
150.292
 20
29.3127
 42
0.1538939217207
  0
VERTEX
  8
0
 10
129.011
 20
38.5398
 42
-0.3032292917425
  0
VERTEX
  8
0
 10
126.845
 20
39.1381
 42
-0.1739318028915
  0
VERTEX
  8
0
 10
126.5
 20
40.0948
 42
0.0
  0
VERTEX
  8
0
 10
126.5
 20
45.6741
 42
-0.3900372537562
  0
SEQEND
  0
POLYLINE
  8
0
 66
     1
 10
0.0
 20
0.0
 30
0.0
 70
     1
  0
VERTEX
  8
0
 10
-91.0822
 20
-100.938
 42
-27.1187408631866
  0
VERTEX
  8
0
 10
-90.9607
 20
-100.722
 42
0.0
  0
SEQEND
  0
POLYLINE
  8
0
 66
     1
 10
0.0
 20
0.0
 30
0.0
 70
     1
  0
VERTEX
  8
0
 10
178.456
 20
54.4852
 42
-35.3070096128323
  0
VERTEX
  8
0
 10
178.228
 20
54.5798
 42
0.0
  0
SEQEND
  0
POLYLINE
  8
0
 66
     1
 10
0.0
 20
0.0
 30
0.0
 70
     1
  0
VERTEX
  8
0
 10
122.134
 20
-28.0185
 42
-0.3877002097131
  0
VERTEX
  8
0
 10
123.5
 20
-29.5115
 42
0.0
  0
VERTEX
  8
0
 10
123.5
 20
-35.0907
 42
-0.4295549319959
  0
VERTEX
  8
0
 10
121.922
 20
-36.5887
 42
-0.1382630933796
  0
VERTEX
  8
0
 10
103.338
 20
-29.6819
 42
-0.1950659132774
  0
VERTEX
  8
0
 10
100.932
 20
-27.5013
 42
-0.3033839752602
  0
VERTEX
  8
0
 10
101.257
 20
-25.8647
 42
0.0
  0
VERTEX
  8
0
 10
105.218
 20
-21.9033
 42
-0.3839359822772
  0
VERTEX
  8
0
 10
107.223
 20
-21.7982
 42
0.147337276478
  0
SEQEND
  0
POLYLINE
  8
0
 66
     1
 10
0.0
 20
0.0
 30
0.0
 70
     1
  0
VERTEX
  8
0
 10
119.535
 20
7.82314
 42
-32.4544303840793
  0
VERTEX
  8
0
 10
119.291
 20
7.85716
 42
0.0
  0
SEQEND
  0
POLYLINE
  8
0
 66
     1
 10
0.0
 20
0.0
 30
0.0
 70
     1
  0
VERTEX
  8
0
 10
1.41779
 20
-100.938
 42
-27.1746320408365
  0
VERTEX
  8
0
 10
1.53926
 20
-100.722
 42
0.0
  0
SEQEND
  0
POLYLINE
  8
0
 66
     1
 10
0.0
 20
0.0
 30
0.0
 70
     1
  0
VERTEX
  8
0
 10
73.6723
 20
54.3657
 42
-35.6781463089048
  0
VERTEX
  8
0
 10
73.4561
 20
54.4852
 42
0.0
  0
SEQEND
  0
POLYLINE
  8
0
 66
     1
 10
0.0
 20
0.0
 30
0.0
 70
     1
  0
VERTEX
  8
0
 10
93.9178
 20
-100.938
 42
-27.1187408577774
  0
VERTEX
  8
0
 10
94.0393
 20
-100.722
 42
0.0
  0
SEQEND
  0
POLYLINE
  8
0
 66
     1
 10
0.0
 20
0.0
 30
0.0
 70
     1
  0
VERTEX
  8
0
 10
186.418
 20
-100.938
 42
-27.7543847797232
  0
VERTEX
  8
0
 10
186.539
 20
-100.722
 42
0.0
  0
SEQEND
  0
POLYLINE
  8
0
 66
     1
 10
0.0
 20
0.0
 30
0.0
 70
     1
  0
VERTEX
  8
0
 10
127.876
 20
57.7522
 42
-0.0280747147443
  0
VERTEX
  8
0
 10
131.132
 20
57.5871
 42
-0.1576867823358
  0
VERTEX
  8
0
 10
163.656
 20
43.12
 42
-0.4449283222258
  0
VERTEX
  8
0
 10
163.772
 20
40.8936
 42
0.0
  0
VERTEX
  8
0
 10
159.811
 20
36.9322
 42
-0.3839359822776
  0
VERTEX
  8
0
 10
157.806
 20
36.8271
 42
0.1573892662612
  0
VERTEX
  8
0
 10
130.117
 20
49.0651
 42
-0.2643431973541
  0
VERTEX
  8
0
 10
127.018
 20
49.5443
 42
-0.2167820159055
  0
VERTEX
  8
0
 10
126.5
 20
50.6782
 42
0.0
  0
VERTEX
  8
0
 10
126.5
 20
56.2574
 42
-0.3900372537545
  0
SEQEND
  0
POLYLINE
  8
0
 66
     1
 10
0.0
 20
0.0
 30
0.0
 70
     1
  0
VERTEX
  8
0
 10
139.232
 20
10.3218
 42
-0.3693774299626
  0
VERTEX
  8
0
 10
139.385
 20
12.264
 42
0.0
  0
VERTEX
  8
0
 10
143.35
 20
16.2289
 42
-0.4442100172178
  0
VERTEX
  8
0
 10
145.577
 20
16.1122
 42
-0.1412360621711
  0
VERTEX
  8
0
 10
150.944
 20
3.23465
 42
-0.4610416983035
  0
VERTEX
  8
0
 10
149.463
 20
1.5
 42
0.0
  0
VERTEX
  8
0
 10
143.822
 20
1.5
 42
-0.3665817601541
  0
VERTEX
  8
0
 10
142.34
 20
2.76534
 42
0.1351978726996
  0
SEQEND
  0
POLYLINE
  8
0
 66
     1
 10
0.0
 20
0.0
 30
0.0
 70
     1
  0
VERTEX
  8
0
 10
114.678
 20
-14.2324
 42
0.1308886117381
  0
VERTEX
  8
0
 10
122.235
 20
-17.3401
 42
-0.3697276238639
  0
VERTEX
  8
0
 10
123.5
 20
-18.8217
 42
0.0
  0
VERTEX
  8
0
 10
123.5
 20
-24.4627
 42
-0.4609148914696
  0
VERTEX
  8
0
 10
121.765
 20
-25.9442
 42
-0.1282378231612
  0
VERTEX
  8
0
 10
109.559
 20
-21.1198
 42
-0.3475861788585
  0
VERTEX
  8
0
 10
108.34
 20
-19.2582
 42
-0.17279828406
  0
VERTEX
  8
0
 10
108.771
 20
-18.3502
 42
0.0
  0
VERTEX
  8
0
 10
112.736
 20
-14.3854
 42
-0.3582620576946
  0
SEQEND
  0
POLYLINE
  8
0
 66
     1
 10
0.0
 20
0.0
 30
0.0
 70
     1
  0
VERTEX
  8
0
 10
110.768
 20
10.3218
 42
0.1308124813781
  0
VERTEX
  8
0
 10
107.66
 20
2.76534
 42
-0.3691220351005
  0
VERTEX
  8
0
 10
106.178
 20
1.5
 42
0.0
  0
VERTEX
  8
0
 10
100.537
 20
1.5
 42
-0.460855750504
  0
VERTEX
  8
0
 10
99.0558
 20
3.23465
 42
-0.1274599319533
  0
VERTEX
  8
0
 10
103.88
 20
15.4415
 42
-0.34706001213
  0
VERTEX
  8
0
 10
105.742
 20
16.6605
 42
-0.1726861812985
  0
VERTEX
  8
0
 10
106.65
 20
16.2289
 42
0.0
  0
VERTEX
  8
0
 10
110.615
 20
12.264
 42
-0.3812152388511
  0
SEQEND
  0
POLYLINE
  8
0
 66
     1
 10
0.0
 20
0.0
 30
0.0
 70
     1
  0
VERTEX
  8
0
 10
-183.582
 20
-100.938
 42
-27.7543847777151
  0
VERTEX
  8
0
 10
-183.461
 20
-100.722
 42
0.0
  0
SEQEND
  0
POLYLINE
  8
0
 66
     1
 10
0.0
 20
0.0
 30
0.0
 70
     1
  0
VERTEX
  8
0
 10
96.9815
 20
2.866
 42
-0.3885020372556
  0
VERTEX
  8
0
 10
95.4885
 20
1.5
 42
0.0
  0
VERTEX
  8
0
 10
89.9093
 20
1.5
 42
-0.4295432175406
  0
VERTEX
  8
0
 10
88.4113
 20
3.07849
 42
-0.1382604919592
  0
VERTEX
  8
0
 10
95.3181
 20
21.6622
 42
-0.1957991137274
  0
VERTEX
  8
0
 10
97.4987
 20
24.0677
 42
-0.3036502844311
  0
VERTEX
  8
0
 10
99.1353
 20
23.7434
 42
0.0
  0
VERTEX
  8
0
 10
103.097
 20
19.782
 42
-0.3841185049934
  0
VERTEX
  8
0
 10
103.202
 20
17.7773
 42
0.147334788809
  0
SEQEND
  0
POLYLINE
  8
0
 66
     1
 10
0.0
 20
0.0
 30
0.0
 70
     1
  0
VERTEX
  8
0
 10
123.486
 20
56.4593
 42
-0.0346290530006
  0
VERTEX
  8
0
 10
123.5
 20
50.6782
 42
-0.3985780229987
  0
VERTEX
  8
0
 10
122.079
 20
49.1802
 42
0.1709839580776
  0
VERTEX
  8
0
 10
92.1937
 20
36.8271
 42
-0.3839261460584
  0
VERTEX
  8
0
 10
90.1891
 20
36.9322
 42
0.0
  0
VERTEX
  8
0
 10
86.2277
 20
40.8936
 42
-0.445095790233
  0
VERTEX
  8
0
 10
86.3444
 20
43.12
 42
-0.1585362964305
  0
VERTEX
  8
0
 10
119.025
 20
57.6035
 42
-0.0413244597263
  0
VERTEX
  8
0
 10
122.169
 20
57.7478
 42
-0.3423745623547
  0
SEQEND
  0
POLYLINE
  8
0
 66
     1
 10
0.0
 20
0.0
 30
0.0
 70
     1
  0
VERTEX
  8
0
 10
228.659
 20
-103.566
 42
-38.0748149886157
  0
VERTEX
  8
0
 10
229.025
 20
-103.426
 42
0.0
  0
SEQEND
  0
POLYLINE
  8
0
 66
     1
 10
0.0
 20
0.0
 30
0.0
 70
     1
  0
VERTEX
  8
0
 10
135.322
 20
-14.2324
 42
-0.367910810326
  0
VERTEX
  8
0
 10
137.264
 20
-14.3854
 42
0.0
  0
VERTEX
  8
0
 10
141.229
 20
-18.3502
 42
-0.445721909506
  0
VERTEX
  8
0
 10
141.112
 20
-20.5766
 42
-0.1412344280699
  0
VERTEX
  8
0
 10
128.235
 20
-25.9442
 42
-0.4608995817915
  0
VERTEX
  8
0
 10
126.5
 20
-24.4627
 42
0.0
  0
VERTEX
  8
0
 10
126.5
 20
-18.8217
 42
-0.3681008608862
  0
VERTEX
  8
0
 10
127.765
 20
-17.3401
 42
0.1144612137045
  0
SEQEND
  0
POLYLINE
  8
0
 66
     1
 10
0.0
 20
0.0
 30
0.0
 70
     1
  0
VERTEX
  8
0
 10
119.535
 20
-7.82314
 42
-33.1178750683641
  0
VERTEX
  8
0
 10
119.772
 20
-7.75941
 42
0.0
  0
SEQEND
  0
POLYLINE
  8
0
 66
     1
 10
0.0
 20
0.0
 30
0.0
 70
     1
  0
VERTEX
  8
0
 10
79.124
 20
-1.51366
 42
-0.0337900037122
  0
VERTEX
  8
0
 10
84.9052
 20
-1.5
 42
-0.3990445029127
  0
VERTEX
  8
0
 10
86.4031
 20
-2.92149
 42
0.1665556442355
  0
VERTEX
  8
0
 10
95.6873
 20
-25.2918
 42
-0.383926146059
  0
VERTEX
  8
0
 10
95.5822
 20
-27.2964
 42
0.0
  0
VERTEX
  8
0
 10
91.6208
 20
-31.2578
 42
-0.44542711923
  0
VERTEX
  8
0
 10
89.3945
 20
-31.1411
 42
-0.1556132750818
  0
VERTEX
  8
0
 10
77.9218
 20
-4.86909
 42
-0.2588073830875
  0
VERTEX
  8
0
 10
78.0956
 20
-2.14189
 42
-0.2096580680799
  0
SEQEND
  0
POLYLINE
  8
0
 66
     1
 10
0.0
 20
0.0
 30
0.0
 70
     1
  0
VERTEX
  8
0
 10
153.019
 20
2.866
 42
0.1319952627314
  0
VERTEX
  8
0
 10
147.763
 20
16.5865
 42
-0.2551434358694
  0
VERTEX
  8
0
 10
146.464
 20
18.6924
 42
-0.2024557835924
  0
VERTEX
  8
0
 10
146.903
 20
19.782
 42
0.0
  0
VERTEX
  8
0
 10
150.865
 20
23.7434
 42
-0.4455550808831
  0
VERTEX
  8
0
 10
153.091
 20
23.6267
 42
-0.1492977314799
  0
VERTEX
  8
0
 10
161.553
 20
3.76282
 42
-0.5415259097928
  0
VERTEX
  8
0
 10
160.091
 20
1.5
 42
0.0
  0
VERTEX
  8
0
 10
154.511
 20
1.5
 42
-0.4001465772935
  0
VERTEX
  8
0
 10
153.022
 20
2.86635
 42
-0.0128291047683
  0
SEQEND
  0
POLYLINE
  8
0
 66
     1
 10
0.0
 20
0.0
 30
0.0
 70
     1
  0
VERTEX
  8
0
 10
180.181
 20
23.2482
 42
0.0210329401959
  0
VERTEX
  8
0
 10
179.719
 20
24.4054
 42
0.1313203256321
  0
VERTEX
  8
0
 10
160.249
 20
48.4489
 42
0.0504339735532
  0
VERTEX
  8
0
 10
149.334
 20
54.7507
 42
-0.3539728036328
  0
VERTEX
  8
0
 10
147.496
 20
56.1841
 42
-0.4778951507048
  0
VERTEX
  8
0
 10
148.962
 20
58.0
 42
0.0
  0
VERTEX
  8
0
 10
160.843
 20
58.0
 42
-0.1454885798512
  0
VERTEX
  8
0
 10
161.659
 20
57.758
 42
-0.0262712987778
  0
VERTEX
  8
0
 10
165.324
 20
55.3682
 42
-0.0768184268938
  0
VERTEX
  8
0
 10
180.461
 20
40.1973
 42
-0.0418612966835
  0
VERTEX
  8
0
 10
182.875
 20
36.4413
 42
-0.1032164950631
  0
VERTEX
  8
0
 10
183.0
 20
35.8425
 42
0.0
  0
VERTEX
  8
0
 10
183.0
 20
23.9621
 42
-0.7789905223273
  0
SEQEND
  0
POLYLINE
  8
0
 66
     1
 10
0.0
 20
0.0
 30
0.0
 70
     1
  0
VERTEX
  8
0
 10
139.232
 20
-10.3218
 42
0.1308124813781
  0
VERTEX
  8
0
 10
142.34
 20
-2.76534
 42
-0.3691220351005
  0
VERTEX
  8
0
 10
143.822
 20
-1.5
 42
0.0
  0
VERTEX
  8
0
 10
149.463
 20
-1.5
 42
-0.4621392813422
  0
VERTEX
  8
0
 10
150.944
 20
-3.23465
 42
-0.1274672254631
  0
VERTEX
  8
0
 10
146.12
 20
-15.4415
 42
-0.3470600121297
  0
VERTEX
  8
0
 10
144.258
 20
-16.6605
 42
-0.1726861812986
  0
VERTEX
  8
0
 10
143.35
 20
-16.2289
 42
0.0
  0
VERTEX
  8
0
 10
139.385
 20
-12.264
 42
-0.3812152388516
  0
SEQEND
  0
POLYLINE
  8
0
 66
     1
 10
0.0
 20
0.0
 30
0.0
 70
     1
  0
VERTEX
  8
0
 10
226.951
 20
-55.8911
 42
-27.5228952256198
  0
VERTEX
  8
0
 10
226.723
 20
-55.9881
 42
0.0
  0
SEQEND
  0
POLYLINE
  8
0
 66
     1
 10
0.0
 20
0.0
 30
0.0
 70
     1
  0
VERTEX
  8
0
 10
130.465
 20
-7.82314
 42
-32.4544303837497
  0
VERTEX
  8
0
 10
130.709
 20
-7.85716
 42
0.0
  0
SEQEND
  0
POLYLINE
  8
0
 66
     1
 10
0.0
 20
0.0
 30
0.0
 70
     1
  0
VERTEX
  8
0
 10
-226.951
 20
-59.1089
 42
-27.5228952174509
  0
VERTEX
  8
0
 10
-226.723
 20
-59.0119
 42
0.0
  0
SEQEND
  0
POLYLINE
  8
0
 66
     1
 10
0.0
 20
0.0
 30
0.0
 70
     1
  0
VERTEX
  8
0
 10
67.0126
 20
23.7684
 42
0.0
  0
VERTEX
  8
0
 10
67.0
 20
23.9621
 42
0.0
  0
VERTEX
  8
0
 10
67.0
 20
35.8425
 42
-0.1449560407998
  0
VERTEX
  8
0
 10
67.242
 20
36.6595
 42
-0.0262583791174
  0
VERTEX
  8
0
 10
69.6318
 20
40.3243
 42
-0.0786262687466
  0
VERTEX
  8
0
 10
84.8027
 20
55.4605
 42
-0.0413765414927
  0
VERTEX
  8
0
 10
88.5587
 20
57.8753
 42
-0.1029671472081
  0
VERTEX
  8
0
 10
89.1575
 20
58.0
 42
0.0
  0
VERTEX
  8
0
 10
101.038
 20
58.0
 42
-0.8327023956726
  0
VERTEX
  8
0
 10
101.575
 20
55.0996
 42
0.0284833676673
  0
VERTEX
  8
0
 10
100.595
 20
54.7187
 42
0.1851466438771
  0
VERTEX
  8
0
 10
70.2493
 20
24.3336
 42
-0.3541753923053
  0
VERTEX
  8
0
 10
68.8159
 20
22.4958
 42
-0.4385330957012
  0
SEQEND
  0
POLYLINE
  8
0
 66
     1
 10
0.0
 20
0.0
 30
0.0
 70
     1
  0
VERTEX
  8
0
 10
135.322
 20
14.2324
 42
0.1308886117382
  0
VERTEX
  8
0
 10
127.765
 20
17.3401
 42
-0.3697276238633
  0
VERTEX
  8
0
 10
126.5
 20
18.8217
 42
0.0
  0
VERTEX
  8
0
 10
126.5
 20
24.4627
 42
-0.4609148914698
  0
VERTEX
  8
0
 10
128.235
 20
25.9442
 42
-0.1282378231612
  0
VERTEX
  8
0
 10
140.441
 20
21.1198
 42
-0.3475861788583
  0
VERTEX
  8
0
 10
141.66
 20
19.2582
 42
-0.1727982840596
  0
VERTEX
  8
0
 10
141.229
 20
18.3502
 42
0.0
  0
VERTEX
  8
0
 10
137.264
 20
14.3854
 42
-0.3582620576942
  0
SEQEND
  0
POLYLINE
  8
0
 66
     1
 10
0.0
 20
0.0
 30
0.0
 70
     1
  0
VERTEX
  8
0
 10
-226.341
 20
-103.566
 42
-38.0748149807505
  0
VERTEX
  8
0
 10
-225.975
 20
-103.426
 42
0.0
  0
SEQEND
  0
POLYLINE
  8
0
 66
     1
 10
0.0
 20
0.0
 30
0.0
 70
     1
  0
VERTEX
  8
0
 10
172.169
 20
-2.87613
 42
-0.1705172337496
  0
VERTEX
  8
0
 10
160.606
 20
-31.1411
 42
-0.4455641873684
  0
VERTEX
  8
0
 10
158.379
 20
-31.2578
 42
0.0
  0
VERTEX
  8
0
 10
154.418
 20
-27.2964
 42
-0.3841223580812
  0
VERTEX
  8
0
 10
154.313
 20
-25.2918
 42
0.1552318860697
  0
VERTEX
  8
0
 10
163.54
 20
-4.0112
 42
-0.3027766829339
  0
VERTEX
  8
0
 10
164.138
 20
-1.84476
 42
-0.1747600138475
  0
VERTEX
  8
0
 10
165.095
 20
-1.5
 42
0.0
  0
VERTEX
  8
0
 10
170.674
 20
-1.5
 42
-0.3904034112536
  0
SEQEND
  0
POLYLINE
  8
0
 66
     1
 10
0.0
 20
0.0
 30
0.0
 70
     1
  0
VERTEX
  8
0
 10
114.678
 20
14.2324
 42
-0.3679108103261
  0
VERTEX
  8
0
 10
112.736
 20
14.3854
 42
0.0
  0
VERTEX
  8
0
 10
108.771
 20
18.3502
 42
-0.4457219095057
  0
VERTEX
  8
0
 10
108.888
 20
20.5766
 42
-0.14123442807
  0
VERTEX
  8
0
 10
121.765
 20
25.9442
 42
-0.4608995817915
  0
VERTEX
  8
0
 10
123.5
 20
24.4627
 42
0.0
  0
VERTEX
  8
0
 10
123.5
 20
18.8217
 42
-0.3681008608856
  0
VERTEX
  8
0
 10
122.235
 20
17.3401
 42
0.1144612137049
  0
SEQEND
  0
POLYLINE
  8
0
 66
     1
 10
0.0
 20
0.0
 30
0.0
 70
     1
  0
VERTEX
  8
0
 10
1.41779
 20
84.062
 42
-27.3454857701511
  0
VERTEX
  8
0
 10
1.53926
 20
84.2784
 42
0.0
  0
SEQEND
  0
POLYLINE
  8
0
 66
     1
 10
0.0
 20
0.0
 30
0.0
 70
     1
  0
VERTEX
  8
0
 10
178.456
 20
-54.4852
 42
-36.1732959154411
  0
VERTEX
  8
0
 10
178.672
 20
-54.3657
 42
0.0
  0
SEQEND
  0
POLYLINE
  8
0
 66
     1
 10
0.0
 20
0.0
 30
0.0
 70
     1
  0
VERTEX
  8
0
 10
-93.6799
 20
86.2238
 42
-27.3885023884697
  0
VERTEX
  8
0
 10
-93.8455
 20
86.039
 42
0.0
  0
SEQEND
  0
POLYLINE
  8
0
 66
     1
 10
0.0
 20
0.0
 30
0.0
 70
     1
  0
VERTEX
  8
0
 10
153.019
 20
-2.866
 42
-0.3884389239794
  0
VERTEX
  8
0
 10
154.511
 20
-1.5
 42
0.0
  0
VERTEX
  8
0
 10
160.091
 20
-1.5
 42
-0.4298556004935
  0
VERTEX
  8
0
 10
161.589
 20
-3.07849
 42
-0.1374598982435
  0
VERTEX
  8
0
 10
154.682
 20
-21.6622
 42
-0.1956375523561
  0
VERTEX
  8
0
 10
152.501
 20
-24.0677
 42
-0.3038830167597
  0
VERTEX
  8
0
 10
150.865
 20
-23.7434
 42
0.0
  0
VERTEX
  8
0
 10
146.903
 20
-19.782
 42
-0.3841185049933
  0
VERTEX
  8
0
 10
146.798
 20
-17.7773
 42
0.1443089108602
  0
SEQEND
  0
POLYLINE
  8
0
 66
     1
 10
0.0
 20
0.0
 30
0.0
 70
     1
  0
VERTEX
  8
0
 10
73.6723
 20
-54.3657
 42
-35.7689730438484
  0
VERTEX
  8
0
 10
73.8738
 20
-54.2227
 42
0.0
  0
SEQEND
  0
POLYLINE
  8
0
 66
     1
 10
0.0
 20
0.0
 30
0.0
 70
     1
  0
VERTEX
  8
0
 10
182.752
 20
-2.87613
 42
-0.0303752988738
  0
VERTEX
  8
0
 10
182.587
 20
-6.1315
 42
-0.1576805980478
  0
VERTEX
  8
0
 10
168.12
 20
-38.6556
 42
-0.4454134954309
  0
VERTEX
  8
0
 10
165.894
 20
-38.7723
 42
0.0
  0
VERTEX
  8
0
 10
161.932
 20
-34.8109
 42
-0.3842714102943
  0
VERTEX
  8
0
 10
161.827
 20
-32.8063
 42
0.158727126318
  0
VERTEX
  8
0
 10
174.065
 20
-5.11745
 42
-0.2639652127061
  0
VERTEX
  8
0
 10
174.544
 20
-2.01799
 42
-0.2172687178057
  0
VERTEX
  8
0
 10
175.678
 20
-1.5
 42
0.0
  0
VERTEX
  8
0
 10
181.257
 20
-1.5
 42
-0.3904034112538
  0
SEQEND
  0
POLYLINE
  8
0
 66
     1
 10
0.0
 20
0.0
 30
0.0
 70
     1
  0
VERTEX
  8
0
 10
126.514
 20
-45.876
 42
-0.0346290530006
  0
VERTEX
  8
0
 10
126.5
 20
-40.0948
 42
-0.3987740198479
  0
VERTEX
  8
0
 10
127.921
 20
-38.5969
 42
0.1665066568351
  0
VERTEX
  8
0
 10
150.292
 20
-29.3127
 42
-0.3844534001564
  0
VERTEX
  8
0
 10
152.296
 20
-29.4178
 42
0.0
  0
VERTEX
  8
0
 10
156.258
 20
-33.3792
 42
-0.4458745710802
  0
VERTEX
  8
0
 10
156.141
 20
-35.6055
 42
-0.155561113766
  0
VERTEX
  8
0
 10
129.869
 20
-47.0782
 42
-0.2590238737537
  0
VERTEX
  8
0
 10
127.142
 20
-46.9044
 42
-0.2088199845906
  0
SEQEND
  0
POLYLINE
  8
0
 66
     1
 10
0.0
 20
0.0
 30
0.0
 70
     1
  0
VERTEX
  8
0
 10
-185.549
 20
86.6089
 42
-27.5228952278133
  0
VERTEX
  8
0
 10
-185.777
 20
86.5119
 42
0.0
  0
SEQEND
  0
POLYLINE
  8
0
 66
     1
 10
0.0
 20
0.0
 30
0.0
 70
     1
  0
VERTEX
  8
0
 10
77.8311
 20
2.87613
 42
-0.1705667506096
  0
VERTEX
  8
0
 10
89.3945
 20
31.1411
 42
-0.4454622455974
  0
VERTEX
  8
0
 10
91.6208
 20
31.2578
 42
0.0
  0
VERTEX
  8
0
 10
95.5822
 20
27.2964
 42
-0.3839033700759
  0
VERTEX
  8
0
 10
95.6873
 20
25.2918
 42
0.1539319885243
  0
VERTEX
  8
0
 10
86.4602
 20
4.0112
 42
-0.3028783673029
  0
VERTEX
  8
0
 10
85.8619
 20
1.84476
 42
-0.1746613329681
  0
VERTEX
  8
0
 10
84.9052
 20
1.5
 42
0.0
  0
VERTEX
  8
0
 10
79.3259
 20
1.5
 42
-0.3900995847478
  0
SEQEND
  0
POLYLINE
  8
0
 66
     1
 10
0.0
 20
0.0
 30
0.0
 70
     1
  0
VERTEX
  8
0
 10
170.876
 20
1.51366
 42
-0.0337733141139
  0
VERTEX
  8
0
 10
165.095
 20
1.5
 42
-0.3986340970411
  0
VERTEX
  8
0
 10
163.597
 20
2.92149
 42
0.166574973609
  0
VERTEX
  8
0
 10
154.313
 20
25.2918
 42
-0.3848888545671
  0
VERTEX
  8
0
 10
154.418
 20
27.2964
 42
0.0
  0
VERTEX
  8
0
 10
158.379
 20
31.2578
 42
-0.4442100172175
  0
VERTEX
  8
0
 10
160.606
 20
31.1411
 42
-0.1569064617965
  0
VERTEX
  8
0
 10
172.078
 20
4.86909
 42
-0.2600087222276
  0
VERTEX
  8
0
 10
171.904
 20
2.14189
 42
-0.2097276804866
  0
SEQEND
  0
POLYLINE
  8
0
 66
     1
 10
0.0
 20
0.0
 30
0.0
 70
     1
  0
VERTEX
  8
0
 10
122.124
 20
-57.7522
 42
-0.0280747147443
  0
VERTEX
  8
0
 10
118.868
 20
-57.5871
 42
-0.1576843233033
  0
VERTEX
  8
0
 10
86.3444
 20
-43.12
 42
-0.4451325096744
  0
VERTEX
  8
0
 10
86.2277
 20
-40.8936
 42
0.0
  0
VERTEX
  8
0
 10
90.1891
 20
-36.9322
 42
-0.3838023271592
  0
VERTEX
  8
0
 10
92.1937
 20
-36.8271
 42
0.1573872048271
  0
VERTEX
  8
0
 10
119.883
 20
-49.0651
 42
-0.264343197354
  0
VERTEX
  8
0
 10
122.982
 20
-49.5443
 42
-0.216782015904
  0
VERTEX
  8
0
 10
123.5
 20
-50.6782
 42
0.0
  0
VERTEX
  8
0
 10
123.5
 20
-56.2574
 42
-0.3900372537548
  0
SEQEND
  0
POLYLINE
  8
0
 66
     1
 10
0.0
 20
0.0
 30
0.0
 70
     1
  0
VERTEX
  8
0
 10
184.451
 20
86.6089
 42
-27.522895227077
  0
VERTEX
  8
0
 10
184.223
 20
86.5119
 42
0.0
  0
SEQEND
  0
POLYLINE
  8
0
 66
     1
 10
0.0
 20
0.0
 30
0.0
 70
     1
  0
VERTEX
  8
0
 10
93.3856
 20
83.5489
 42
-27.3764059662881
  0
VERTEX
  8
0
 10
93.5874
 20
83.6933
 42
0.0
  0
SEQEND
  0
POLYLINE
  8
0
 66
     1
 10
0.0
 20
0.0
 30
0.0
 70
     1
  0
VERTEX
  8
0
 10
-226.341
 20
88.5665
 42
-38.2100731886309
  0
VERTEX
  8
0
 10
-226.72
 20
88.668
 42
0.0
  0
SEQEND
  0
POLYLINE
  8
0
 66
     1
 10
0.0
 20
0.0
 30
0.0
 70
     1
  0
VERTEX
  8
0
 10
127.866
 20
28.0185
 42
-0.3877002097123
  0
VERTEX
  8
0
 10
126.5
 20
29.5115
 42
0.0
  0
VERTEX
  8
0
 10
126.5
 20
35.0907
 42
-0.4295549319966
  0
VERTEX
  8
0
 10
128.078
 20
36.5887
 42
-0.1382630933796
  0
VERTEX
  8
0
 10
146.662
 20
29.6819
 42
-0.1950659132775
  0
VERTEX
  8
0
 10
149.068
 20
27.5013
 42
-0.30338397526
  0
VERTEX
  8
0
 10
148.743
 20
25.8647
 42
0.0
  0
VERTEX
  8
0
 10
144.782
 20
21.9033
 42
-0.3839359822773
  0
VERTEX
  8
0
 10
142.777
 20
21.7982
 42
0.1473372764781
  0
SEQEND
  0
POLYLINE
  8
0
 66
     1
 10
0.0
 20
0.0
 30
0.0
 70
     1
  0
VERTEX
  8
0
 10
68.5407
 20
-1.51366
 42
-0.0337900037122
  0
VERTEX
  8
0
 10
74.3218
 20
-1.5
 42
-0.3988489348749
  0
VERTEX
  8
0
 10
75.8198
 20
-2.92149
 42
0.1709809064143
  0
VERTEX
  8
0
 10
88.1729
 20
-32.8063
 42
-0.3839261460586
  0
VERTEX
  8
0
 10
88.0678
 20
-34.8109
 42
0.0
  0
VERTEX
  8
0
 10
84.1064
 20
-38.7723
 42
-0.4450957902328
  0
VERTEX
  8
0
 10
81.88
 20
-38.6556
 42
-0.1582416813521
  0
VERTEX
  8
0
 10
67.3965
 20
-5.97536
 42
-0.0413387766199
  0
VERTEX
  8
0
 10
67.2522
 20
-2.83087
 42
-0.3432840155136
  0
SEQEND
  0
POLYLINE
  8
0
 66
     1
 10
0.0
 20
0.0
 30
0.0
 70
     1
  0
VERTEX
  8
0
 10
228.659
 20
88.5665
 42
-38.2100731934672
  0
VERTEX
  8
0
 10
228.28
 20
88.668
 42
0.0
  0
SEQEND
  0
POLYLINE
  8
0
 66
     1
 10
0.0
 20
0.0
 30
0.0
 70
     1
  0
VERTEX
  8
0
 10
126.514
 20
-56.4593
 42
-0.0346290530006
  0
VERTEX
  8
0
 10
126.5
 20
-50.6782
 42
-0.3985780229995
  0
VERTEX
  8
0
 10
127.921
 20
-49.1802
 42
0.1710112274267
  0
VERTEX
  8
0
 10
157.806
 20
-36.8271
 42
-0.3844474010139
  0
VERTEX
  8
0
 10
159.811
 20
-36.9322
 42
0.0
  0
VERTEX
  8
0
 10
163.772
 20
-40.8936
 42
-0.444228473225
  0
VERTEX
  8
0
 10
163.656
 20
-43.12
 42
-0.1585339555306
  0
VERTEX
  8
0
 10
130.975
 20
-57.6035
 42
-0.0413244597263
  0
VERTEX
  8
0
 10
127.831
 20
-57.7478
 42
-0.342374562355
  0
SEQEND
  0
POLYLINE
  8
0
 66
     1
 10
0.0
 20
0.0
 30
0.0
 70
     1
  0
VERTEX
  8
0
 10
122.124
 20
-47.1689
 42
-0.1705675974177
  0
VERTEX
  8
0
 10
93.8589
 20
-35.6055
 42
-0.4454622455965
  0
VERTEX
  8
0
 10
93.7422
 20
-33.3792
 42
0.0
  0
VERTEX
  8
0
 10
97.7036
 20
-29.4178
 42
-0.3839033700753
  0
VERTEX
  8
0
 10
99.7082
 20
-29.3127
 42
0.1538956871717
  0
VERTEX
  8
0
 10
120.989
 20
-38.5398
 42
-0.303229291743
  0
VERTEX
  8
0
 10
123.155
 20
-39.1381
 42
-0.1739318028927
  0
VERTEX
  8
0
 10
123.5
 20
-40.0948
 42
0.0
  0
VERTEX
  8
0
 10
123.5
 20
-45.6741
 42
-0.3900372537554
  0
SEQEND
  0
POLYLINE
  8
0
 66
     1
 10
0.0
 20
0.0
 30
0.0
 70
     1
  0
VERTEX
  8
0
 10
67.2478
 20
2.87613
 42
-0.0283612696621
  0
VERTEX
  8
0
 10
67.4129
 20
6.1315
 42
-0.1576873970846
  0
VERTEX
  8
0
 10
81.88
 20
38.6556
 42
-0.4451325096747
  0
VERTEX
  8
0
 10
84.1064
 20
38.7723
 42
0.0
  0
VERTEX
  8
0
 10
88.0678
 20
34.8109
 42
-0.3838023271597
  0
VERTEX
  8
0
 10
88.1729
 20
32.8063
 42
0.1574247712862
  0
VERTEX
  8
0
 10
75.9349
 20
5.11745
 42
-0.2643139672218
  0
VERTEX
  8
0
 10
75.4557
 20
2.01799
 42
-0.2176070785305
  0
VERTEX
  8
0
 10
74.3218
 20
1.5
 42
0.0
  0
VERTEX
  8
0
 10
68.7426
 20
1.5
 42
-0.3900995847478
  0
SEQEND
  0
POLYLINE
  8
0
 66
     1
 10
0.0
 20
0.0
 30
0.0
 70
     1
  0
VERTEX
  8
0
 10
181.459
 20
1.51366
 42
-0.0337733141139
  0
VERTEX
  8
0
 10
175.678
 20
1.5
 42
-0.3986340970412
  0
VERTEX
  8
0
 10
174.18
 20
2.92149
 42
0.1710125812739
  0
VERTEX
  8
0
 10
161.827
 20
32.8063
 42
-0.3825572995804
  0
VERTEX
  8
0
 10
161.932
 20
34.8109
 42
0.0
  0
VERTEX
  8
0
 10
165.894
 20
38.7723
 42
-0.4455550808823
  0
VERTEX
  8
0
 10
168.12
 20
38.6556
 42
-0.1307354746181
  0
VERTEX
  8
0
 10
181.631
 20
12.1176
 42
-0.0249634316666
  0
VERTEX
  8
0
 10
182.604
 20
5.97536
 42
-0.0401905015406
  0
VERTEX
  8
0
 10
182.748
 20
2.83087
 42
-0.343190891038
  0
SEQEND
  0
POLYLINE
  8
0
 66
     1
 10
0.0
 20
0.0
 30
0.0
 70
     1
  0
VERTEX
  8
0
 10
96.9815
 20
-2.866
 42
0.1320115213755
  0
VERTEX
  8
0
 10
102.237
 20
-16.5865
 42
-0.2551434358696
  0
VERTEX
  8
0
 10
103.536
 20
-18.6924
 42
-0.2024557835922
  0
VERTEX
  8
0
 10
103.097
 20
-19.782
 42
0.0
  0
VERTEX
  8
0
 10
99.1353
 20
-23.7434
 42
-0.4450957902329
  0
VERTEX
  8
0
 10
96.9089
 20
-23.6267
 42
-0.1512465810056
  0
VERTEX
  8
0
 10
88.4472
 20
-3.76282
 42
-0.5414605895466
  0
VERTEX
  8
0
 10
89.9093
 20
-1.5
 42
0.0
  0
VERTEX
  8
0
 10
95.4885
 20
-1.5
 42
-0.3989573261042
  0
VERTEX
  8
0
 10
96.9781
 20
-2.86635
 42
-0.0145238568606
  0
SEQEND
  0
POLYLINE
  8
0
 66
     1
 10
0.0
 20
0.0
 30
0.0
 70
     1
  0
VERTEX
  8
0
 10
110.768
 20
-10.3218
 42
-0.3693774299619
  0
VERTEX
  8
0
 10
110.615
 20
-12.264
 42
0.0
  0
VERTEX
  8
0
 10
106.65
 20
-16.2289
 42
-0.4442100172177
  0
VERTEX
  8
0
 10
104.423
 20
-16.1122
 42
-0.1412165772338
  0
VERTEX
  8
0
 10
99.0558
 20
-3.23465
 42
-0.4609920040463
  0
VERTEX
  8
0
 10
100.537
 20
-1.5
 42
0.0
  0
VERTEX
  8
0
 10
106.178
 20
-1.5
 42
-0.3665817601543
  0
VERTEX
  8
0
 10
107.66
 20
-2.76534
 42
0.1351978726992
  0
SEQEND
  0
POLYLINE
  8
0
 66
     1
 10
0.0
 20
0.0
 30
0.0
 70
     1
  0
VERTEX
  8
0
 10
-226.951
 20
40.8911
 42
-27.5228952302076
  0
VERTEX
  8
0
 10
-226.723
 20
40.9881
 42
0.0
  0
SEQEND
  0
POLYLINE
  8
0
 66
     1
 10
0.0
 20
0.0
 30
0.0
 70
     1
  0
VERTEX
  8
0
 10
230.398
 20
-107.348
 42
0.3843118151416
  0
VERTEX
  8
0
 10
234.875
 20
-102.375
 42
0.0
  0
VERTEX
  8
0
 10
234.875
 20
102.375
 42
0.4147169626956
  0
VERTEX
  8
0
 10
229.875
 20
107.375
 42
0.0
  0
VERTEX
  8
0
 10
-229.875
 20
107.375
 42
0.4147169626951
  0
VERTEX
  8
0
 10
-234.875
 20
102.375
 42
0.0
  0
VERTEX
  8
0
 10
-234.875
 20
-102.375
 42
0.4147169626958
  0
VERTEX
  8
0
 10
-229.875
 20
-107.375
 42
0.0
  0
VERTEX
  8
0
 10
229.875
 20
-107.375
 42
0.0264414779948
  0
SEQEND
  0
ENDSEC
  0
EOF
