  0
SECTION
  2
HEADER
  9
$ACADVER
  1
AC1009
  9
$EXTMAX
 10
234.875
 20
107.375
 30
0.0
  9
$EXTMIN
 10
-234.875
 20
-107.375
 30
0.0
  9
$INSUNITS
 70
     4
  9
$LUNITS
 70
     2
  9
$LUPREC
 70
     4
  9
$MEASUREMENT
 70
     1
  0
ENDSEC
  0
SECTION
  2
TABLES
  0
TABLE
  2
LAYER
 70
     1
  0
LAYER
  2
0
 70
     0
 62
    70
  6
Continuous
  0
ENDTAB
  0
TABLE
  2
APPID
 70
     1
  0
APPID
  2
ACAD
 70
     0
  0
ENDTAB
  0
ENDSEC
  0
SECTION
  2
ENTITIES
  0
POLYLINE
  8
0
 66
     1
 10
0.0
 20
0.0
 30
0.0
 70
     1
  0
VERTEX
  8
0
 10
1.41779
 20
-100.938
 42
-27.1746320408365
  0
VERTEX
  8
0
 10
1.53926
 20
-100.722
 42
0.0
  0
SEQEND
  0
POLYLINE
  8
0
 66
     1
 10
0.0
 20
0.0
 30
0.0
 70
     1
  0
VERTEX
  8
0
 10
93.3856
 20
83.5489
 42
-27.3764059662881
  0
VERTEX
  8
0
 10
93.5874
 20
83.6933
 42
0.0
  0
SEQEND
  0
POLYLINE
  8
0
 66
     1
 10
0.0
 20
0.0
 30
0.0
 70
     1
  0
VERTEX
  8
0
 10
93.9178
 20
-100.938
 42
-27.1187408577774
  0
VERTEX
  8
0
 10
94.0393
 20
-100.722
 42
0.0
  0
SEQEND
  0
POLYLINE
  8
0
 66
     1
 10
0.0
 20
0.0
 30
0.0
 70
     1
  0
VERTEX
  8
0
 10
-93.6799
 20
86.2238
 42
-27.3885023884697
  0
VERTEX
  8
0
 10
-93.8455
 20
86.039
 42
0.0
  0
SEQEND
  0
POLYLINE
  8
0
 66
     1
 10
0.0
 20
0.0
 30
0.0
 70
     1
  0
VERTEX
  8
0
 10
-91.0822
 20
-100.938
 42
-27.1187408631866
  0
VERTEX
  8
0
 10
-90.9607
 20
-100.722
 42
0.0
  0
SEQEND
  0
POLYLINE
  8
0
 66
     1
 10
0.0
 20
0.0
 30
0.0
 70
     1
  0
VERTEX
  8
0
 10
184.451
 20
86.6089
 42
-27.522895227077
  0
VERTEX
  8
0
 10
184.223
 20
86.5119
 42
0.0
  0
SEQEND
  0
POLYLINE
  8
0
 66
     1
 10
0.0
 20
0.0
 30
0.0
 70
     1
  0
VERTEX
  8
0
 10
228.659
 20
-103.566
 42
-38.0748149886157
  0
VERTEX
  8
0
 10
229.025
 20
-103.426
 42
0.0
  0
SEQEND
  0
POLYLINE
  8
0
 66
     1
 10
0.0
 20
0.0
 30
0.0
 70
     1
  0
VERTEX
  8
0
 10
-185.549
 20
86.6089
 42
-27.5228952278133
  0
VERTEX
  8
0
 10
-185.777
 20
86.5119
 42
0.0
  0
SEQEND
  0
POLYLINE
  8
0
 66
     1
 10
0.0
 20
0.0
 30
0.0
 70
     1
  0
VERTEX
  8
0
 10
-226.341
 20
-103.566
 42
-38.0748149807505
  0
VERTEX
  8
0
 10
-225.975
 20
-103.426
 42
0.0
  0
SEQEND
  0
POLYLINE
  8
0
 66
     1
 10
0.0
 20
0.0
 30
0.0
 70
     1
  0
VERTEX
  8
0
 10
186.418
 20
-100.938
 42
-27.7543847797232
  0
VERTEX
  8
0
 10
186.539
 20
-100.722
 42
0.0
  0
SEQEND
  0
POLYLINE
  8
0
 66
     1
 10
0.0
 20
0.0
 30
0.0
 70
     1
  0
VERTEX
  8
0
 10
228.659
 20
88.5665
 42
-38.2100731934672
  0
VERTEX
  8
0
 10
228.28
 20
88.668
 42
0.0
  0
SEQEND
  0
POLYLINE
  8
0
 66
     1
 10
0.0
 20
0.0
 30
0.0
 70
     1
  0
VERTEX
  8
0
 10
-226.951
 20
-59.1089
 42
-27.5228952174509
  0
VERTEX
  8
0
 10
-226.723
 20
-59.0119
 42
0.0
  0
SEQEND
  0
POLYLINE
  8
0
 66
     1
 10
0.0
 20
0.0
 30
0.0
 70
     1
  0
VERTEX
  8
0
 10
-226.341
 20
88.5665
 42
-38.2100731886309
  0
VERTEX
  8
0
 10
-226.72
 20
88.668
 42
0.0
  0
SEQEND
  0
POLYLINE
  8
0
 66
     1
 10
0.0
 20
0.0
 30
0.0
 70
     1
  0
VERTEX
  8
0
 10
-183.582
 20
-100.938
 42
-27.7543847777151
  0
VERTEX
  8
0
 10
-183.461
 20
-100.722
 42
0.0
  0
SEQEND
  0
POLYLINE
  8
0
 66
     1
 10
0.0
 20
0.0
 30
0.0
 70
     1
  0
VERTEX
  8
0
 10
226.951
 20
-55.8911
 42
-27.5228952256198
  0
VERTEX
  8
0
 10
226.723
 20
-55.9881
 42
0.0
  0
SEQEND
  0
POLYLINE
  8
0
 66
     1
 10
0.0
 20
0.0
 30
0.0
 70
     1
  0
VERTEX
  8
0
 10
1.41779
 20
84.062
 42
-27.3454857701511
  0
VERTEX
  8
0
 10
1.53926
 20
84.2784
 42
0.0
  0
SEQEND
  0
POLYLINE
  8
0
 66
     1
 10
0.0
 20
0.0
 30
0.0
 70
     1
  0
VERTEX
  8
0
 10
226.951
 20
44.1089
 42
-27.5228952261678
  0
VERTEX
  8
0
 10
226.723
 20
44.0119
 42
0.0
  0
SEQEND
  0
POLYLINE
  8
0
 66
     1
 10
0.0
 20
0.0
 30
0.0
 70
     1
  0
VERTEX
  8
0
 10
-226.951
 20
40.8911
 42
-27.5228952302076
  0
VERTEX
  8
0
 10
-226.723
 20
40.9881
 42
0.0
  0
SEQEND
  0
POLYLINE
  8
0
 66
     1
 10
0.0
 20
0.0
 30
0.0
 70
     1
  0
VERTEX
  8
0
 10
230.398
 20
-107.348
 42
0.3843118151416
  0
VERTEX
  8
0
 10
234.875
 20
-102.375
 42
0.0
  0
VERTEX
  8
0
 10
234.875
 20
102.375
 42
0.4147169626956
  0
VERTEX
  8
0
 10
229.875
 20
107.375
 42
0.0
  0
VERTEX
  8
0
 10
-229.875
 20
107.375
 42
0.4147169626951
  0
VERTEX
  8
0
 10
-234.875
 20
102.375
 42
0.0
  0
VERTEX
  8
0
 10
-234.875
 20
-102.375
 42
0.4147169626958
  0
VERTEX
  8
0
 10
-229.875
 20
-107.375
 42
0.0
  0
VERTEX
  8
0
 10
229.875
 20
-107.375
 42
0.0264414779948
  0
SEQEND
  0
ENDSEC
  0
EOF
