  0
SECTION
  2
HEADER
  9
$ACADVER
  1
AC1009
  9
$EXTMAX
 10
318.875
 20
116.074996948242
 30
0.0
  9
$EXTMIN
 10
-318.875
 20
-116.074996948242
 30
0.0
  9
$INSUNITS
 70
     4
  9
$LUNITS
 70
     2
  9
$LUPREC
 70
     4
  9
$MEASUREMENT
 70
     1
  0
ENDSEC
  0
SECTION
  2
TABLES
  0
TABLE
  2
LAYER
 70
     1
  0
LAYER
  2
0
 70
     0
 62
    70
  6
Continuous
  0
ENDTAB
  0
TABLE
  2
APPID
 70
     1
  0
APPID
  2
ACAD
 70
     0
  0
ENDTAB
  0
ENDSEC
  0
SECTION
  2
ENTITIES
  0
POLYLINE
  8
0
 66
     1
 10
0.0
 20
0.0
 30
0.0
 70
     1
  0
VERTEX
  8
0
 10
311.746
 20
87.8316
 42
-0.3516931390929
  0
VERTEX
  8
0
 10
313.145
 20
86.3233
 42
0.0
  0
VERTEX
  8
0
 10
313.145
 20
46.0767
 42
-0.9307254327977
  0
VERTEX
  8
0
 10
309.855
 20
46.0767
 42
0.0
  0
VERTEX
  8
0
 10
309.855
 20
86.3233
 42
-0.4366791074655
  0
SEQEND
  0
POLYLINE
  8
0
 66
     1
 10
0.0
 20
0.0
 30
0.0
 70
     1
  0
VERTEX
  8
0
 10
-199.936
 20
-110.236
 42
-0.8002026298456
  0
VERTEX
  8
0
 10
-199.457
 20
-107.055
 42
0.0
  0
VERTEX
  8
0
 10
-159.21
 20
-107.055
 42
-0.9308091961824
  0
VERTEX
  8
0
 10
-159.21
 20
-110.345
 42
0.0
  0
VERTEX
  8
0
 10
-199.457
 20
-110.345
 42
-0.0752564512124
  0
SEQEND
  0
POLYLINE
  8
0
 66
     1
 10
0.0
 20
0.0
 30
0.0
 70
     1
  0
VERTEX
  8
0
 10
199.936
 20
-110.236
 42
-0.0775065044769
  0
VERTEX
  8
0
 10
199.457
 20
-110.345
 42
0.0
  0
VERTEX
  8
0
 10
159.21
 20
-110.345
 42
-0.9308091961852
  0
VERTEX
  8
0
 10
159.21
 20
-107.055
 42
0.0
  0
VERTEX
  8
0
 10
199.457
 20
-107.055
 42
-0.7958845799048
  0
SEQEND
  0
POLYLINE
  8
0
 66
     1
 10
0.0
 20
0.0
 30
0.0
 70
     1
  0
VERTEX
  8
0
 10
-311.254
 20
87.8316
 42
-0.3516931390908
  0
VERTEX
  8
0
 10
-309.855
 20
86.3233
 42
0.0
  0
VERTEX
  8
0
 10
-309.855
 20
46.0767
 42
-0.9307254327996
  0
VERTEX
  8
0
 10
-313.145
 20
46.0767
 42
0.0
  0
VERTEX
  8
0
 10
-313.145
 20
86.3233
 42
-0.4366791074624
  0
SEQEND
  0
POLYLINE
  8
0
 66
     1
 10
0.0
 20
0.0
 30
0.0
 70
     1
  0
VERTEX
  8
0
 10
-247.637
 20
-107.771
 42
-0.5794500087202
  0
VERTEX
  8
0
 10
-248.877
 20
-110.345
 42
0.0
  0
VERTEX
  8
0
 10
-289.123
 20
-110.345
 42
-0.9308091961786
  0
VERTEX
  8
0
 10
-289.123
 20
-107.055
 42
0.0
  0
VERTEX
  8
0
 10
-248.877
 20
-107.055
 42
-0.2266032362101
  0
SEQEND
  0
POLYLINE
  8
0
 66
     1
 10
0.0
 20
0.0
 30
0.0
 70
     1
  0
VERTEX
  8
0
 10
-247.637
 20
107.771
 42
-0.2302215193784
  0
VERTEX
  8
0
 10
-248.877
 20
107.055
 42
0.0
  0
VERTEX
  8
0
 10
-289.123
 20
107.055
 42
-0.9308091961843
  0
VERTEX
  8
0
 10
-289.123
 20
110.345
 42
0.0
  0
VERTEX
  8
0
 10
-248.877
 20
110.345
 42
-0.5756362391844
  0
SEQEND
  0
POLYLINE
  8
0
 66
     1
 10
0.0
 20
0.0
 30
0.0
 70
     1
  0
VERTEX
  8
0
 10
21.6316
 20
-108.946
 42
-0.3516931390927
  0
VERTEX
  8
0
 10
20.1233
 20
-110.345
 42
0.0
  0
VERTEX
  8
0
 10
-20.1233
 20
-110.345
 42
-0.9307254327985
  0
VERTEX
  8
0
 10
-20.1233
 20
-107.055
 42
0.0
  0
VERTEX
  8
0
 10
20.1233
 20
-107.055
 42
-0.436679107464
  0
SEQEND
  0
POLYLINE
  8
0
 66
     1
 10
0.0
 20
0.0
 30
0.0
 70
     1
  0
VERTEX
  8
0
 10
110.034
 20
-110.309
 42
0.0
  0
VERTEX
  8
0
 10
109.79
 20
-110.345
 42
0.0
  0
VERTEX
  8
0
 10
69.5434
 20
-110.345
 42
-0.9307254327996
  0
VERTEX
  8
0
 10
69.5434
 20
-107.055
 42
0.0
  0
VERTEX
  8
0
 10
109.79
 20
-107.055
 42
-0.8632845907869
  0
SEQEND
  0
POLYLINE
  8
0
 66
     1
 10
0.0
 20
0.0
 30
0.0
 70
     1
  0
VERTEX
  8
0
 10
-311.254
 20
-87.8316
 42
-0.4381854381014
  0
VERTEX
  8
0
 10
-313.145
 20
-86.3233
 42
0.0
  0
VERTEX
  8
0
 10
-313.145
 20
-46.0767
 42
-0.9307254327977
  0
VERTEX
  8
0
 10
-309.855
 20
-46.0767
 42
0.0
  0
VERTEX
  8
0
 10
-309.855
 20
-86.3233
 42
-0.3500614398372
  0
SEQEND
  0
POLYLINE
  8
0
 66
     1
 10
0.0
 20
0.0
 30
0.0
 70
     1
  0
VERTEX
  8
0
 10
-110.034
 20
110.309
 42
0.0
  0
VERTEX
  8
0
 10
-109.79
 20
110.345
 42
0.0
  0
VERTEX
  8
0
 10
-69.5434
 20
110.345
 42
-0.9307254327996
  0
VERTEX
  8
0
 10
-69.5434
 20
107.055
 42
0.0
  0
VERTEX
  8
0
 10
-109.79
 20
107.055
 42
-0.8632845907869
  0
SEQEND
  0
POLYLINE
  8
0
 66
     1
 10
0.0
 20
0.0
 30
0.0
 70
     1
  0
VERTEX
  8
0
 10
247.637
 20
107.771
 42
-0.5794500087202
  0
VERTEX
  8
0
 10
248.877
 20
110.345
 42
0.0
  0
VERTEX
  8
0
 10
289.123
 20
110.345
 42
-0.9308091961791
  0
VERTEX
  8
0
 10
289.123
 20
107.055
 42
0.0
  0
VERTEX
  8
0
 10
248.877
 20
107.055
 42
-0.2266032362101
  0
SEQEND
  0
POLYLINE
  8
0
 66
     1
 10
0.0
 20
0.0
 30
0.0
 70
     1
  0
VERTEX
  8
0
 10
311.746
 20
-87.8316
 42
-0.4381854380989
  0
VERTEX
  8
0
 10
309.855
 20
-86.3233
 42
0.0
  0
VERTEX
  8
0
 10
309.855
 20
-46.0767
 42
-0.9307254327996
  0
VERTEX
  8
0
 10
313.145
 20
-46.0767
 42
0.0
  0
VERTEX
  8
0
 10
313.145
 20
-86.3233
 42
-0.35006143984
  0
SEQEND
  0
POLYLINE
  8
0
 66
     1
 10
0.0
 20
0.0
 30
0.0
 70
     1
  0
VERTEX
  8
0
 10
315.066
 20
-109.859
 42
-12.6134939472652
  0
VERTEX
  8
0
 10
315.25
 20
-108.7
 42
-0.0781562977025
  0
SEQEND
  0
POLYLINE
  8
0
 66
     1
 10
0.0
 20
0.0
 30
0.0
 70
     1
  0
VERTEX
  8
0
 10
-307.934
 20
109.859
 42
-38.0748149954713
  0
VERTEX
  8
0
 10
-308.074
 20
110.225
 42
0.0
  0
SEQEND
  0
POLYLINE
  8
0
 66
     1
 10
0.0
 20
0.0
 30
0.0
 70
     1
  0
VERTEX
  8
0
 10
247.637
 20
-107.771
 42
-0.2302215193784
  0
VERTEX
  8
0
 10
248.877
 20
-107.055
 42
0.0
  0
VERTEX
  8
0
 10
289.123
 20
-107.055
 42
-0.9308091961843
  0
VERTEX
  8
0
 10
289.123
 20
-110.345
 42
0.0
  0
VERTEX
  8
0
 10
248.877
 20
-110.345
 42
-0.5756362391844
  0
SEQEND
  0
POLYLINE
  8
0
 66
     1
 10
0.0
 20
0.0
 30
0.0
 70
     1
  0
VERTEX
  8
0
 10
21.6316
 20
108.946
 42
-0.4381854381001
  0
VERTEX
  8
0
 10
20.1233
 20
107.055
 42
0.0
  0
VERTEX
  8
0
 10
-20.1233
 20
107.055
 42
-0.930725432799
  0
VERTEX
  8
0
 10
-20.1233
 20
110.345
 42
0.0
  0
VERTEX
  8
0
 10
20.1233
 20
110.345
 42
-0.3500614398369
  0
SEQEND
  0
POLYLINE
  8
0
 66
     1
 10
0.0
 20
0.0
 30
0.0
 70
     1
  0
VERTEX
  8
0
 10
110.034
 20
110.309
 42
-0.8632845907851
  0
VERTEX
  8
0
 10
109.79
 20
107.055
 42
0.0
  0
VERTEX
  8
0
 10
69.5434
 20
107.055
 42
-0.9307254327991
  0
VERTEX
  8
0
 10
69.5434
 20
110.345
 42
0.0
  0
VERTEX
  8
0
 10
109.79
 20
110.345
 42
-0.0387396694141
  0
SEQEND
  0
POLYLINE
  8
0
 66
     1
 10
0.0
 20
0.0
 30
0.0
 70
     1
  0
VERTEX
  8
0
 10
-110.034
 20
-110.309
 42
-0.8632845907851
  0
VERTEX
  8
0
 10
-109.79
 20
-107.055
 42
0.0
  0
VERTEX
  8
0
 10
-69.5434
 20
-107.055
 42
-0.9307254327991
  0
VERTEX
  8
0
 10
-69.5434
 20
-110.345
 42
0.0
  0
VERTEX
  8
0
 10
-109.79
 20
-110.345
 42
-0.0387396694141
  0
SEQEND
  0
POLYLINE
  8
0
 66
     1
 10
0.0
 20
0.0
 30
0.0
 70
     1
  0
VERTEX
  8
0
 10
-307.934
 20
-109.859
 42
-12.6134939476445
  0
VERTEX
  8
0
 10
-307.75
 20
-108.7
 42
-0.0781562977042
  0
SEQEND
  0
POLYLINE
  8
0
 66
     1
 10
0.0
 20
0.0
 30
0.0
 70
     1
  0
VERTEX
  8
0
 10
315.066
 20
109.859
 42
-38.0748149847808
  0
VERTEX
  8
0
 10
314.926
 20
110.225
 42
0.0
  0
SEQEND
  0
POLYLINE
  8
0
 66
     1
 10
0.0
 20
0.0
 30
0.0
 70
     1
  0
VERTEX
  8
0
 10
-199.936
 20
110.236
 42
-0.0775065044769
  0
VERTEX
  8
0
 10
-199.457
 20
110.345
 42
0.0
  0
VERTEX
  8
0
 10
-159.21
 20
110.345
 42
-0.9308091961854
  0
VERTEX
  8
0
 10
-159.21
 20
107.055
 42
0.0
  0
VERTEX
  8
0
 10
-199.457
 20
107.055
 42
-0.7958845799051
  0
SEQEND
  0
POLYLINE
  8
0
 66
     1
 10
0.0
 20
0.0
 30
0.0
 70
     1
  0
VERTEX
  8
0
 10
-311.254
 20
-21.6316
 42
-0.4381854380999
  0
VERTEX
  8
0
 10
-313.145
 20
-20.1233
 42
0.0
  0
VERTEX
  8
0
 10
-313.145
 20
20.1233
 42
-0.9307254327974
  0
VERTEX
  8
0
 10
-309.855
 20
20.1233
 42
0.0
  0
VERTEX
  8
0
 10
-309.855
 20
-20.1233
 42
-0.3500614398363
  0
SEQEND
  0
POLYLINE
  8
0
 66
     1
 10
0.0
 20
0.0
 30
0.0
 70
     1
  0
VERTEX
  8
0
 10
199.936
 20
110.236
 42
-0.8002026298456
  0
VERTEX
  8
0
 10
199.457
 20
107.055
 42
0.0
  0
VERTEX
  8
0
 10
159.21
 20
107.055
 42
-0.9308091961824
  0
VERTEX
  8
0
 10
159.21
 20
110.345
 42
0.0
  0
VERTEX
  8
0
 10
199.457
 20
110.345
 42
-0.0752564512124
  0
SEQEND
  0
POLYLINE
  8
0
 66
     1
 10
0.0
 20
0.0
 30
0.0
 70
     1
  0
VERTEX
  8
0
 10
311.746
 20
-21.6316
 42
-0.4381854380994
  0
VERTEX
  8
0
 10
309.855
 20
-20.1233
 42
0.0
  0
VERTEX
  8
0
 10
309.855
 20
20.1233
 42
-0.9307254327977
  0
VERTEX
  8
0
 10
313.145
 20
20.1233
 42
0.0
  0
VERTEX
  8
0
 10
313.145
 20
-20.1233
 42
-0.3500614398359
  0
SEQEND
  0
POLYLINE
  8
0
 66
     1
 10
0.0
 20
0.0
 30
0.0
 70
     1
  0
VERTEX
  8
0
 10
314.398
 20
-116.048
 42
0.3843118151434
  0
VERTEX
  8
0
 10
318.875
 20
-111.075
 42
0.0
  0
VERTEX
  8
0
 10
318.875
 20
111.075
 42
0.4147169626965
  0
VERTEX
  8
0
 10
313.875
 20
116.075
 42
0.0
  0
VERTEX
  8
0
 10
-313.875
 20
116.075
 42
0.414716962697
  0
VERTEX
  8
0
 10
-318.875
 20
111.075
 42
0.0
  0
VERTEX
  8
0
 10
-318.875
 20
-111.075
 42
0.4147169626964
  0
VERTEX
  8
0
 10
-313.875
 20
-116.075
 42
0.0
  0
VERTEX
  8
0
 10
313.875
 20
-116.075
 42
0.0264414779951
  0
SEQEND
  0
ENDSEC
  0
EOF
