  0
SECTION
  2
HEADER
  9
$ACADVER
  1
AC1009
  9
$EXTMAX
 10
318.875
 20
107.375
 30
0.0
  9
$EXTMIN
 10
-318.875
 20
-107.375
 30
0.0
  9
$INSUNITS
 70
     4
  9
$LUNITS
 70
     2
  9
$LUPREC
 70
     4
  9
$MEASUREMENT
 70
     1
  0
ENDSEC
  0
SECTION
  2
TABLES
  0
TABLE
  2
LAYER
 70
     1
  0
LAYER
  2
0
 70
     0
 62
    70
  6
Continuous
  0
ENDTAB
  0
TABLE
  2
APPID
 70
     1
  0
APPID
  2
ACAD
 70
     0
  0
ENDTAB
  0
ENDSEC
  0
SECTION
  2
ENTITIES
  0
POLYLINE
  8
0
 66
     1
 10
0.0
 20
0.0
 30
0.0
 70
     1
  0
VERTEX
  8
0
 10
275.21
 20
-86.1223
 42
-0.1889754190648
  0
VERTEX
  8
0
 10
274.123
 20
-86.6454
 42
0.0
  0
VERTEX
  8
0
 10
233.877
 20
-86.6454
 42
-0.9278205856435
  0
VERTEX
  8
0
 10
233.877
 20
-83.3546
 42
0.0
  0
VERTEX
  8
0
 10
274.123
 20
-83.3546
 42
-0.6289653372128
  0
SEQEND
  0
POLYLINE
  8
0
 66
     1
 10
0.0
 20
0.0
 30
0.0
 70
     1
  0
VERTEX
  8
0
 10
21.0287
 20
-86.29
 42
-0.1506719592587
  0
VERTEX
  8
0
 10
20.1233
 20
-86.6454
 42
0.0
  0
VERTEX
  8
0
 10
-20.1233
 20
-86.6454
 42
-0.9277359014303
  0
VERTEX
  8
0
 10
-20.1233
 20
-83.3546
 42
0.0
  0
VERTEX
  8
0
 10
20.1233
 20
-83.3546
 42
-0.6817426347531
  0
SEQEND
  0
POLYLINE
  8
0
 66
     1
 10
0.0
 20
0.0
 30
0.0
 70
     1
  0
VERTEX
  8
0
 10
-296.254
 20
20.8684
 42
-0.4381854381012
  0
VERTEX
  8
0
 10
-298.145
 20
22.3767
 42
0.0
  0
VERTEX
  8
0
 10
-298.145
 20
62.6233
 42
-0.9307254328056
  0
VERTEX
  8
0
 10
-294.855
 20
62.6233
 42
0.0
  0
VERTEX
  8
0
 10
-294.855
 20
22.3767
 42
-0.3500614398357
  0
SEQEND
  0
POLYLINE
  8
0
 66
     1
 10
0.0
 20
0.0
 30
0.0
 70
     1
  0
VERTEX
  8
0
 10
21.0287
 20
83.71
 42
-0.1506719592586
  0
VERTEX
  8
0
 10
20.1233
 20
83.3546
 42
0.0
  0
VERTEX
  8
0
 10
-20.1233
 20
83.3546
 42
-0.9277359014305
  0
VERTEX
  8
0
 10
-20.1233
 20
86.6454
 42
0.0
  0
VERTEX
  8
0
 10
20.1233
 20
86.6454
 42
-0.6817426347535
  0
SEQEND
  0
POLYLINE
  8
0
 66
     1
 10
0.0
 20
0.0
 30
0.0
 70
     1
  0
VERTEX
  8
0
 10
105.695
 20
-86.29
 42
-0.1508540773101
  0
VERTEX
  8
0
 10
104.79
 20
-86.6454
 42
0.0
  0
VERTEX
  8
0
 10
64.5434
 20
-86.6454
 42
-0.9277359014291
  0
VERTEX
  8
0
 10
64.5434
 20
-83.3546
 42
0.0
  0
VERTEX
  8
0
 10
104.79
 20
-83.3546
 42
-0.6806369101972
  0
SEQEND
  0
POLYLINE
  8
0
 66
     1
 10
0.0
 20
0.0
 30
0.0
 70
     1
  0
VERTEX
  8
0
 10
-275.21
 20
83.8777
 42
-0.6281309728276
  0
VERTEX
  8
0
 10
-274.123
 20
86.6454
 42
0.0
  0
VERTEX
  8
0
 10
-233.877
 20
86.6454
 42
-0.9278205856439
  0
VERTEX
  8
0
 10
-233.877
 20
83.3546
 42
0.0
  0
VERTEX
  8
0
 10
-274.123
 20
83.3546
 42
-0.1904535260131
  0
SEQEND
  0
POLYLINE
  8
0
 66
     1
 10
0.0
 20
0.0
 30
0.0
 70
     1
  0
VERTEX
  8
0
 10
-105.695
 20
-83.71
 42
-0.1508540773094
  0
VERTEX
  8
0
 10
-104.79
 20
-83.3546
 42
0.0
  0
VERTEX
  8
0
 10
-64.5434
 20
-83.3546
 42
-0.9277359014302
  0
VERTEX
  8
0
 10
-64.5434
 20
-86.6454
 42
0.0
  0
VERTEX
  8
0
 10
-104.79
 20
-86.6454
 42
-0.6806369101947
  0
SEQEND
  0
POLYLINE
  8
0
 66
     1
 10
0.0
 20
0.0
 30
0.0
 70
     1
  0
VERTEX
  8
0
 10
-189.936
 20
86.5359
 42
-0.0753077523127
  0
VERTEX
  8
0
 10
-189.457
 20
86.6454
 42
0.0
  0
VERTEX
  8
0
 10
-149.21
 20
86.6454
 42
-0.9278205856432
  0
VERTEX
  8
0
 10
-149.21
 20
83.3546
 42
0.0
  0
VERTEX
  8
0
 10
-189.457
 20
83.3546
 42
-0.7968362264936
  0
SEQEND
  0
POLYLINE
  8
0
 66
     1
 10
0.0
 20
0.0
 30
0.0
 70
     1
  0
VERTEX
  8
0
 10
296.746
 20
20.8684
 42
-0.4381854381009
  0
VERTEX
  8
0
 10
294.855
 20
22.3767
 42
0.0
  0
VERTEX
  8
0
 10
294.855
 20
62.6233
 42
-0.9307254327956
  0
VERTEX
  8
0
 10
298.145
 20
62.6233
 42
0.0
  0
VERTEX
  8
0
 10
298.145
 20
22.3767
 42
-0.3500614398371
  0
SEQEND
  0
POLYLINE
  8
0
 66
     1
 10
0.0
 20
0.0
 30
0.0
 70
     1
  0
VERTEX
  8
0
 10
-189.936
 20
-83.4641
 42
-0.0753077523133
  0
VERTEX
  8
0
 10
-189.457
 20
-83.3546
 42
0.0
  0
VERTEX
  8
0
 10
-149.21
 20
-83.3546
 42
-0.9278205856442
  0
VERTEX
  8
0
 10
-149.21
 20
-86.6454
 42
0.0
  0
VERTEX
  8
0
 10
-189.457
 20
-86.6454
 42
-0.7968362264918
  0
SEQEND
  0
POLYLINE
  8
0
 66
     1
 10
0.0
 20
0.0
 30
0.0
 70
     1
  0
VERTEX
  8
0
 10
-105.695
 20
86.29
 42
-0.1508540773101
  0
VERTEX
  8
0
 10
-104.79
 20
86.6454
 42
0.0
  0
VERTEX
  8
0
 10
-64.5434
 20
86.6454
 42
-0.9277359014291
  0
VERTEX
  8
0
 10
-64.5434
 20
83.3546
 42
0.0
  0
VERTEX
  8
0
 10
-104.79
 20
83.3546
 42
-0.6806369101972
  0
SEQEND
  0
POLYLINE
  8
0
 66
     1
 10
0.0
 20
0.0
 30
0.0
 70
     1
  0
VERTEX
  8
0
 10
189.936
 20
-86.5359
 42
-0.0753077523127
  0
VERTEX
  8
0
 10
189.457
 20
-86.6454
 42
0.0
  0
VERTEX
  8
0
 10
149.21
 20
-86.6454
 42
-0.9278205856432
  0
VERTEX
  8
0
 10
149.21
 20
-83.3546
 42
0.0
  0
VERTEX
  8
0
 10
189.457
 20
-83.3546
 42
-0.7968362264936
  0
SEQEND
  0
POLYLINE
  8
0
 66
     1
 10
0.0
 20
0.0
 30
0.0
 70
     1
  0
VERTEX
  8
0
 10
296.746
 20
-20.8684
 42
-0.3516931390931
  0
VERTEX
  8
0
 10
298.145
 20
-22.3767
 42
0.0
  0
VERTEX
  8
0
 10
298.145
 20
-62.6233
 42
-0.9307254328056
  0
VERTEX
  8
0
 10
294.855
 20
-62.6233
 42
0.0
  0
VERTEX
  8
0
 10
294.855
 20
-22.3767
 42
-0.436679107464
  0
SEQEND
  0
POLYLINE
  8
0
 66
     1
 10
0.0
 20
0.0
 30
0.0
 70
     1
  0
VERTEX
  8
0
 10
-295.341
 20
-88.5665
 42
-38.5117111728629
  0
VERTEX
  8
0
 10
-294.975
 20
-88.4258
 42
0.0
  0
SEQEND
  0
POLYLINE
  8
0
 66
     1
 10
0.0
 20
0.0
 30
0.0
 70
     1
  0
VERTEX
  8
0
 10
-275.21
 20
-83.8777
 42
-0.1889754190692
  0
VERTEX
  8
0
 10
-274.123
 20
-83.3546
 42
0.0
  0
VERTEX
  8
0
 10
-233.877
 20
-83.3546
 42
-0.9278205856487
  0
VERTEX
  8
0
 10
-233.877
 20
-86.6454
 42
0.0
  0
VERTEX
  8
0
 10
-274.123
 20
-86.6454
 42
-0.6289653372147
  0
SEQEND
  0
POLYLINE
  8
0
 66
     1
 10
0.0
 20
0.0
 30
0.0
 70
     1
  0
VERTEX
  8
0
 10
297.659
 20
88.5665
 42
-38.2100731858309
  0
VERTEX
  8
0
 10
297.28
 20
88.668
 42
0.0
  0
SEQEND
  0
POLYLINE
  8
0
 66
     1
 10
0.0
 20
0.0
 30
0.0
 70
     1
  0
VERTEX
  8
0
 10
-295.341
 20
88.5665
 42
-38.2100731899814
  0
VERTEX
  8
0
 10
-295.72
 20
88.668
 42
0.0
  0
SEQEND
  0
POLYLINE
  8
0
 66
     1
 10
0.0
 20
0.0
 30
0.0
 70
     1
  0
VERTEX
  8
0
 10
297.659
 20
-88.5665
 42
-38.5117111729012
  0
VERTEX
  8
0
 10
298.025
 20
-88.4258
 42
0.0
  0
SEQEND
  0
POLYLINE
  8
0
 66
     1
 10
0.0
 20
0.0
 30
0.0
 70
     1
  0
VERTEX
  8
0
 10
-296.254
 20
-20.8684
 42
-0.3516931390931
  0
VERTEX
  8
0
 10
-294.855
 20
-22.3767
 42
0.0
  0
VERTEX
  8
0
 10
-294.855
 20
-62.6233
 42
-0.930725432796
  0
VERTEX
  8
0
 10
-298.145
 20
-62.6233
 42
0.0
  0
VERTEX
  8
0
 10
-298.145
 20
-22.3767
 42
-0.4366791074634
  0
SEQEND
  0
POLYLINE
  8
0
 66
     1
 10
0.0
 20
0.0
 30
0.0
 70
     1
  0
VERTEX
  8
0
 10
189.936
 20
86.5359
 42
-0.7975658206557
  0
VERTEX
  8
0
 10
189.457
 20
83.3546
 42
0.0
  0
VERTEX
  8
0
 10
149.21
 20
83.3546
 42
-0.927820585644
  0
VERTEX
  8
0
 10
149.21
 20
86.6454
 42
0.0
  0
VERTEX
  8
0
 10
189.457
 20
86.6454
 42
-0.0749289713592
  0
SEQEND
  0
POLYLINE
  8
0
 66
     1
 10
0.0
 20
0.0
 30
0.0
 70
     1
  0
VERTEX
  8
0
 10
275.21
 20
83.8777
 42
-0.188975419069
  0
VERTEX
  8
0
 10
274.123
 20
83.3546
 42
0.0
  0
VERTEX
  8
0
 10
233.877
 20
83.3546
 42
-0.9278205856487
  0
VERTEX
  8
0
 10
233.877
 20
86.6454
 42
0.0
  0
VERTEX
  8
0
 10
274.123
 20
86.6454
 42
-0.6289653372147
  0
SEQEND
  0
POLYLINE
  8
0
 66
     1
 10
0.0
 20
0.0
 30
0.0
 70
     1
  0
VERTEX
  8
0
 10
105.695
 20
83.71
 42
-0.1508540773094
  0
VERTEX
  8
0
 10
104.79
 20
83.3546
 42
0.0
  0
VERTEX
  8
0
 10
64.5434
 20
83.3546
 42
-0.9277359014302
  0
VERTEX
  8
0
 10
64.5434
 20
86.6454
 42
0.0
  0
VERTEX
  8
0
 10
104.79
 20
86.6454
 42
-0.6806369101948
  0
SEQEND
  0
POLYLINE
  8
0
 66
     1
 10
0.0
 20
0.0
 30
0.0
 70
     1
  0
VERTEX
  8
0
 10
314.398
 20
-107.348
 42
0.384311815142
  0
VERTEX
  8
0
 10
318.875
 20
-102.375
 42
0.0
  0
VERTEX
  8
0
 10
318.875
 20
102.375
 42
0.4147169626951
  0
VERTEX
  8
0
 10
313.875
 20
107.375
 42
0.0
  0
VERTEX
  8
0
 10
-313.875
 20
107.375
 42
0.4147169626952
  0
VERTEX
  8
0
 10
-318.875
 20
102.375
 42
0.0
  0
VERTEX
  8
0
 10
-318.875
 20
-102.375
 42
0.4147169626951
  0
VERTEX
  8
0
 10
-313.875
 20
-107.375
 42
0.0
  0
VERTEX
  8
0
 10
313.875
 20
-107.375
 42
0.0264414779947
  0
SEQEND
  0
ENDSEC
  0
EOF
