  0
SECTION
  2
HEADER
  9
$ACADVER
  1
AC1009
  9
$EXTMAX
 10
324.875
 20
107.375
 30
0.0
  9
$EXTMIN
 10
-324.875
 20
-107.375
 30
0.0
  9
$INSUNITS
 70
     4
  9
$LUNITS
 70
     2
  9
$LUPREC
 70
     4
  9
$MEASUREMENT
 70
     1
  0
ENDSEC
  0
SECTION
  2
TABLES
  0
TABLE
  2
LAYER
 70
     1
  0
LAYER
  2
0
 70
     0
 62
    70
  6
Continuous
  0
ENDTAB
  0
TABLE
  2
APPID
 70
     1
  0
APPID
  2
ACAD
 70
     0
  0
ENDTAB
  0
ENDSEC
  0
SECTION
  2
ENTITIES
  0
POLYLINE
  8
0
 66
     1
 10
0.0
 20
0.0
 30
0.0
 70
     1
  0
VERTEX
  8
0
 10
-90.2489
 20
-100.938
 42
-27.190052128035
  0
VERTEX
  8
0
 10
-90.1274
 20
-100.722
 42
0.0
  0
SEQEND
  0
POLYLINE
  8
0
 66
     1
 10
0.0
 20
0.0
 30
0.0
 70
     1
  0
VERTEX
  8
0
 10
-152.866
 20
-28.0185
 42
-0.3877002097137
  0
VERTEX
  8
0
 10
-151.5
 20
-29.5115
 42
0.0
  0
VERTEX
  8
0
 10
-151.5
 20
-35.0907
 42
-0.4295549319969
  0
VERTEX
  8
0
 10
-153.078
 20
-36.5887
 42
-0.1382630933796
  0
VERTEX
  8
0
 10
-171.662
 20
-29.6819
 42
-0.1950659132774
  0
VERTEX
  8
0
 10
-174.068
 20
-27.5013
 42
-0.3033839752596
  0
VERTEX
  8
0
 10
-173.743
 20
-25.8647
 42
0.0
  0
VERTEX
  8
0
 10
-169.782
 20
-21.9033
 42
-0.3839359822775
  0
VERTEX
  8
0
 10
-167.777
 20
-21.7982
 42
0.1473372764779
  0
SEQEND
  0
POLYLINE
  8
0
 66
     1
 10
0.0
 20
0.0
 30
0.0
 70
     1
  0
VERTEX
  8
0
 10
-151.514
 20
45.876
 42
-0.0346290530006
  0
VERTEX
  8
0
 10
-151.5
 20
40.0948
 42
-0.398774019848
  0
VERTEX
  8
0
 10
-152.921
 20
38.5969
 42
0.1665066568351
  0
VERTEX
  8
0
 10
-175.292
 20
29.3127
 42
-0.3844534001566
  0
VERTEX
  8
0
 10
-177.296
 20
29.4178
 42
0.0
  0
VERTEX
  8
0
 10
-181.258
 20
33.3792
 42
-0.4458745710801
  0
VERTEX
  8
0
 10
-181.141
 20
35.6055
 42
-0.155561113766
  0
VERTEX
  8
0
 10
-154.869
 20
47.0782
 42
-0.2590238737542
  0
VERTEX
  8
0
 10
-152.142
 20
46.9044
 42
-0.2088199845919
  0
SEQEND
  0
POLYLINE
  8
0
 66
     1
 10
0.0
 20
0.0
 30
0.0
 70
     1
  0
VERTEX
  8
0
 10
-144.535
 20
7.82314
 42
-33.1178750682271
  0
VERTEX
  8
0
 10
-144.772
 20
7.75941
 42
0.0
  0
SEQEND
  0
POLYLINE
  8
0
 66
     1
 10
0.0
 20
0.0
 30
0.0
 70
     1
  0
VERTEX
  8
0
 10
93.0845
 20
-100.938
 42
-27.2579422194704
  0
VERTEX
  8
0
 10
93.2059
 20
-100.722
 42
0.0
  0
SEQEND
  0
POLYLINE
  8
0
 66
     1
 10
0.0
 20
0.0
 30
0.0
 70
     1
  0
VERTEX
  8
0
 10
-181.916
 20
-100.938
 42
-27.0666814709562
  0
VERTEX
  8
0
 10
-181.794
 20
-100.722
 42
0.0
  0
SEQEND
  0
POLYLINE
  8
0
 66
     1
 10
0.0
 20
0.0
 30
0.0
 70
     1
  0
VERTEX
  8
0
 10
183.271
 20
-101.699
 42
-27.3631853571474
  0
VERTEX
  8
0
 10
183.519
 20
-101.69
 42
0.0
  0
SEQEND
  0
POLYLINE
  8
0
 66
     1
 10
0.0
 20
0.0
 30
0.0
 70
     1
  0
VERTEX
  8
0
 10
-164.232
 20
10.3218
 42
0.1308124813781
  0
VERTEX
  8
0
 10
-167.34
 20
2.76534
 42
-0.3691220351004
  0
VERTEX
  8
0
 10
-168.822
 20
1.5
 42
0.0
  0
VERTEX
  8
0
 10
-174.463
 20
1.5
 42
-0.4621392813421
  0
VERTEX
  8
0
 10
-175.944
 20
3.23465
 42
-0.1274672254631
  0
VERTEX
  8
0
 10
-171.12
 20
15.4415
 42
-0.3470600121297
  0
VERTEX
  8
0
 10
-169.258
 20
16.6605
 42
-0.1726861812987
  0
VERTEX
  8
0
 10
-168.35
 20
16.2289
 42
0.0
  0
VERTEX
  8
0
 10
-164.385
 20
12.264
 42
-0.3812152388503
  0
SEQEND
  0
POLYLINE
  8
0
 66
     1
 10
0.0
 20
0.0
 30
0.0
 70
     1
  0
VERTEX
  8
0
 10
-98.6723
 20
54.3657
 42
-35.7689730471555
  0
VERTEX
  8
0
 10
-98.8738
 20
54.2227
 42
0.0
  0
SEQEND
  0
POLYLINE
  8
0
 66
     1
 10
0.0
 20
0.0
 30
0.0
 70
     1
  0
VERTEX
  8
0
 10
-147.134
 20
-28.0185
 42
0.1344417433826
  0
VERTEX
  8
0
 10
-133.414
 20
-22.7626
 42
-0.2543703653242
  0
VERTEX
  8
0
 10
-131.308
 20
-21.4642
 42
-0.2045782956714
  0
VERTEX
  8
0
 10
-130.218
 20
-21.9033
 42
0.0
  0
VERTEX
  8
0
 10
-126.257
 20
-25.8647
 42
-0.4442284732238
  0
VERTEX
  8
0
 10
-126.373
 20
-28.0911
 42
-0.1511894637062
  0
VERTEX
  8
0
 10
-146.237
 20
-36.5528
 42
-0.54035771038
  0
VERTEX
  8
0
 10
-148.5
 20
-35.0907
 42
0.0
  0
VERTEX
  8
0
 10
-148.5
 20
-29.5115
 42
-0.3986877419972
  0
VERTEX
  8
0
 10
-147.134
 20
-28.0219
 42
-0.0143248530248
  0
SEQEND
  0
POLYLINE
  8
0
 66
     1
 10
0.0
 20
0.0
 30
0.0
 70
     1
  0
VERTEX
  8
0
 10
276.418
 20
-100.938
 42
-27.7543847756344
  0
VERTEX
  8
0
 10
276.539
 20
-100.722
 42
0.0
  0
SEQEND
  0
POLYLINE
  8
0
 66
     1
 10
0.0
 20
0.0
 30
0.0
 70
     1
  0
VERTEX
  8
0
 10
-201.544
 20
54.4852
 42
-35.3070096219138
  0
VERTEX
  8
0
 10
-201.772
 20
54.5798
 42
0.0
  0
SEQEND
  0
POLYLINE
  8
0
 66
     1
 10
0.0
 20
0.0
 30
0.0
 70
     1
  0
VERTEX
  8
0
 10
-135.768
 20
10.3218
 42
-0.3693774299622
  0
VERTEX
  8
0
 10
-135.615
 20
12.264
 42
0.0
  0
VERTEX
  8
0
 10
-131.65
 20
16.2289
 42
-0.4442100172176
  0
VERTEX
  8
0
 10
-129.423
 20
16.1122
 42
-0.1412360621711
  0
VERTEX
  8
0
 10
-124.056
 20
3.23465
 42
-0.4610416983035
  0
VERTEX
  8
0
 10
-125.537
 20
1.5
 42
0.0
  0
VERTEX
  8
0
 10
-131.178
 20
1.5
 42
-0.3665817601542
  0
VERTEX
  8
0
 10
-132.66
 20
2.76534
 42
0.1351978726993
  0
SEQEND
  0
POLYLINE
  8
0
 66
     1
 10
0.0
 20
0.0
 30
0.0
 70
     1
  0
VERTEX
  8
0
 10
-160.322
 20
-14.2324
 42
0.1308886117381
  0
VERTEX
  8
0
 10
-152.765
 20
-17.3401
 42
-0.3697276238643
  0
VERTEX
  8
0
 10
-151.5
 20
-18.8217
 42
0.0
  0
VERTEX
  8
0
 10
-151.5
 20
-24.4627
 42
-0.4609148914698
  0
VERTEX
  8
0
 10
-153.235
 20
-25.9442
 42
-0.1282378231611
  0
VERTEX
  8
0
 10
-165.441
 20
-21.1198
 42
-0.3475861788585
  0
VERTEX
  8
0
 10
-166.66
 20
-19.2582
 42
-0.1727982840601
  0
VERTEX
  8
0
 10
-166.229
 20
-18.3502
 42
0.0
  0
VERTEX
  8
0
 10
-162.264
 20
-14.3854
 42
-0.3582620576972
  0
SEQEND
  0
POLYLINE
  8
0
 66
     1
 10
0.0
 20
0.0
 30
0.0
 70
     1
  0
VERTEX
  8
0
 10
-273.582
 20
-100.938
 42
-27.7543847763244
  0
VERTEX
  8
0
 10
-273.461
 20
-100.722
 42
0.0
  0
SEQEND
  0
POLYLINE
  8
0
 66
     1
 10
0.0
 20
0.0
 30
0.0
 70
     1
  0
VERTEX
  8
0
 10
-178.019
 20
2.866
 42
-0.3884389239794
  0
VERTEX
  8
0
 10
-179.511
 20
1.5
 42
0.0
  0
VERTEX
  8
0
 10
-185.091
 20
1.5
 42
-0.4298556004936
  0
VERTEX
  8
0
 10
-186.589
 20
3.07849
 42
-0.1374598982435
  0
VERTEX
  8
0
 10
-179.682
 20
21.6622
 42
-0.1956375523561
  0
VERTEX
  8
0
 10
-177.501
 20
24.0677
 42
-0.3038830167586
  0
VERTEX
  8
0
 10
-175.865
 20
23.7434
 42
0.0
  0
VERTEX
  8
0
 10
-171.903
 20
19.782
 42
-0.3841185049942
  0
VERTEX
  8
0
 10
-171.798
 20
17.7773
 42
0.1443089108602
  0
SEQEND
  0
POLYLINE
  8
0
 66
     1
 10
0.0
 20
0.0
 30
0.0
 70
     1
  0
VERTEX
  8
0
 10
-151.514
 20
56.4593
 42
-0.0346290530007
  0
VERTEX
  8
0
 10
-151.5
 20
50.6782
 42
-0.3985780229997
  0
VERTEX
  8
0
 10
-152.921
 20
49.1802
 42
0.1710112274267
  0
VERTEX
  8
0
 10
-182.806
 20
36.8271
 42
-0.3844474010148
  0
VERTEX
  8
0
 10
-184.811
 20
36.9322
 42
0.0
  0
VERTEX
  8
0
 10
-188.772
 20
40.8936
 42
-0.444228473225
  0
VERTEX
  8
0
 10
-188.656
 20
43.12
 42
-0.1585339555307
  0
VERTEX
  8
0
 10
-155.975
 20
57.6035
 42
-0.0413244597262
  0
VERTEX
  8
0
 10
-152.831
 20
57.7478
 42
-0.3423745623537
  0
SEQEND
  0
POLYLINE
  8
0
 66
     1
 10
0.0
 20
0.0
 30
0.0
 70
     1
  0
VERTEX
  8
0
 10
-316.341
 20
-103.566
 42
-38.0748149770532
  0
VERTEX
  8
0
 10
-315.975
 20
-103.426
 42
0.0
  0
SEQEND
  0
POLYLINE
  8
0
 66
     1
 10
0.0
 20
0.0
 30
0.0
 70
     1
  0
VERTEX
  8
0
 10
316.951
 20
44.1089
 42
-27.522895231606
  0
VERTEX
  8
0
 10
316.723
 20
44.0119
 42
0.0
  0
SEQEND
  0
POLYLINE
  8
0
 66
     1
 10
0.0
 20
0.0
 30
0.0
 70
     1
  0
VERTEX
  8
0
 10
-139.678
 20
-14.2324
 42
-0.3679108103257
  0
VERTEX
  8
0
 10
-137.736
 20
-14.3854
 42
0.0
  0
VERTEX
  8
0
 10
-133.771
 20
-18.3502
 42
-0.4457219095064
  0
VERTEX
  8
0
 10
-133.888
 20
-20.5766
 42
-0.14123442807
  0
VERTEX
  8
0
 10
-146.765
 20
-25.9442
 42
-0.4608995817913
  0
VERTEX
  8
0
 10
-148.5
 20
-24.4627
 42
0.0
  0
VERTEX
  8
0
 10
-148.5
 20
-18.8217
 42
-0.368100860886
  0
VERTEX
  8
0
 10
-147.235
 20
-17.3401
 42
0.1144612137044
  0
SEQEND
  0
POLYLINE
  8
0
 66
     1
 10
0.0
 20
0.0
 30
0.0
 70
     1
  0
VERTEX
  8
0
 10
-164.232
 20
-10.3218
 42
-0.3693774299622
  0
VERTEX
  8
0
 10
-164.385
 20
-12.264
 42
0.0
  0
VERTEX
  8
0
 10
-168.35
 20
-16.2289
 42
-0.4442100172177
  0
VERTEX
  8
0
 10
-170.577
 20
-16.1122
 42
-0.1412360621711
  0
VERTEX
  8
0
 10
-175.944
 20
-3.23465
 42
-0.4610416983035
  0
VERTEX
  8
0
 10
-174.463
 20
-1.5
 42
0.0
  0
VERTEX
  8
0
 10
-168.822
 20
-1.5
 42
-0.3665817601542
  0
VERTEX
  8
0
 10
-167.34
 20
-2.76534
 42
0.1351978726997
  0
SEQEND
  0
POLYLINE
  8
0
 66
     1
 10
0.0
 20
0.0
 30
0.0
 70
     1
  0
VERTEX
  8
0
 10
-155.465
 20
-7.82314
 42
-33.117875068408
  0
VERTEX
  8
0
 10
-155.228
 20
-7.75941
 42
0.0
  0
SEQEND
  0
POLYLINE
  8
0
 66
     1
 10
0.0
 20
0.0
 30
0.0
 70
     1
  0
VERTEX
  8
0
 10
318.659
 20
-103.566
 42
-38.0748149791312
  0
VERTEX
  8
0
 10
319.025
 20
-103.426
 42
0.0
  0
SEQEND
  0
POLYLINE
  8
0
 66
     1
 10
0.0
 20
0.0
 30
0.0
 70
     1
  0
VERTEX
  8
0
 10
-147.124
 20
57.7522
 42
-0.0280747147443
  0
VERTEX
  8
0
 10
-143.868
 20
57.5871
 42
-0.1576867823358
  0
VERTEX
  8
0
 10
-111.344
 20
43.12
 42
-0.4449283222252
  0
VERTEX
  8
0
 10
-111.228
 20
40.8936
 42
0.0
  0
VERTEX
  8
0
 10
-115.189
 20
36.9322
 42
-0.383935982276
  0
VERTEX
  8
0
 10
-117.194
 20
36.8271
 42
0.1573892662614
  0
VERTEX
  8
0
 10
-144.883
 20
49.0651
 42
-0.2643431973539
  0
VERTEX
  8
0
 10
-147.982
 20
49.5443
 42
-0.2167820159047
  0
VERTEX
  8
0
 10
-148.5
 20
50.6782
 42
0.0
  0
VERTEX
  8
0
 10
-148.5
 20
56.2574
 42
-0.3900372537561
  0
SEQEND
  0
POLYLINE
  8
0
 66
     1
 10
0.0
 20
0.0
 30
0.0
 70
     1
  0
VERTEX
  8
0
 10
-121.981
 20
2.866
 42
0.1319952627314
  0
VERTEX
  8
0
 10
-127.237
 20
16.5865
 42
-0.2551434358696
  0
VERTEX
  8
0
 10
-128.536
 20
18.6924
 42
-0.2024557835918
  0
VERTEX
  8
0
 10
-128.097
 20
19.782
 42
0.0
  0
VERTEX
  8
0
 10
-124.135
 20
23.7434
 42
-0.4455550808827
  0
VERTEX
  8
0
 10
-121.909
 20
23.6267
 42
-0.1492977314799
  0
VERTEX
  8
0
 10
-113.447
 20
3.76282
 42
-0.5415259097929
  0
VERTEX
  8
0
 10
-114.909
 20
1.5
 42
0.0
  0
VERTEX
  8
0
 10
-120.489
 20
1.5
 42
-0.4001465772935
  0
VERTEX
  8
0
 10
-121.978
 20
2.86635
 42
-0.0128291047683
  0
SEQEND
  0
POLYLINE
  8
0
 66
     1
 10
0.0
 20
0.0
 30
0.0
 70
     1
  0
VERTEX
  8
0
 10
274.451
 20
86.6089
 42
-27.522895236441
  0
VERTEX
  8
0
 10
274.223
 20
86.5119
 42
0.0
  0
SEQEND
  0
POLYLINE
  8
0
 66
     1
 10
0.0
 20
0.0
 30
0.0
 70
     1
  0
VERTEX
  8
0
 10
-316.951
 20
-59.1089
 42
-27.5228952281244
  0
VERTEX
  8
0
 10
-316.723
 20
-59.0119
 42
0.0
  0
SEQEND
  0
POLYLINE
  8
0
 66
     1
 10
0.0
 20
0.0
 30
0.0
 70
     1
  0
VERTEX
  8
0
 10
-144.535
 20
-7.82314
 42
-32.454430384606
  0
VERTEX
  8
0
 10
-144.291
 20
-7.85716
 42
0.0
  0
SEQEND
  0
POLYLINE
  8
0
 66
     1
 10
0.0
 20
0.0
 30
0.0
 70
     1
  0
VERTEX
  8
0
 10
-139.678
 20
14.2324
 42
0.1308886117382
  0
VERTEX
  8
0
 10
-147.235
 20
17.3401
 42
-0.3697276238641
  0
VERTEX
  8
0
 10
-148.5
 20
18.8217
 42
0.0
  0
VERTEX
  8
0
 10
-148.5
 20
24.4627
 42
-0.4609148914698
  0
VERTEX
  8
0
 10
-146.765
 20
25.9442
 42
-0.1282378231612
  0
VERTEX
  8
0
 10
-134.559
 20
21.1198
 42
-0.347586178858
  0
VERTEX
  8
0
 10
-133.34
 20
19.2582
 42
-0.1727982840594
  0
VERTEX
  8
0
 10
-133.771
 20
18.3502
 42
0.0
  0
VERTEX
  8
0
 10
-137.736
 20
14.3854
 42
-0.3582620576957
  0
SEQEND
  0
POLYLINE
  8
0
 66
     1
 10
0.0
 20
0.0
 30
0.0
 70
     1
  0
VERTEX
  8
0
 10
-94.8192
 20
23.2482
 42
0.0209931070905
  0
VERTEX
  8
0
 10
-95.2813
 20
24.4054
 42
0.131325278252
  0
VERTEX
  8
0
 10
-114.751
 20
48.4489
 42
0.0504339735532
  0
VERTEX
  8
0
 10
-125.666
 20
54.7507
 42
-0.3539728036337
  0
VERTEX
  8
0
 10
-127.504
 20
56.1841
 42
-0.477895150703
  0
VERTEX
  8
0
 10
-126.038
 20
58.0
 42
0.0
  0
VERTEX
  8
0
 10
-114.157
 20
58.0
 42
-0.1454885798519
  0
VERTEX
  8
0
 10
-113.341
 20
57.758
 42
-0.0262712987777
  0
VERTEX
  8
0
 10
-109.676
 20
55.3682
 42
-0.0786312849281
  0
VERTEX
  8
0
 10
-94.5395
 20
40.1973
 42
-0.0413765414927
  0
VERTEX
  8
0
 10
-92.1247
 20
36.4413
 42
-0.1029671472087
  0
VERTEX
  8
0
 10
-92.0
 20
35.8425
 42
0.0
  0
VERTEX
  8
0
 10
-92.0
 20
23.9621
 42
-0.7782189991375
  0
SEQEND
  0
POLYLINE
  8
0
 66
     1
 10
0.0
 20
0.0
 30
0.0
 70
     1
  0
VERTEX
  8
0
 10
93.0845
 20
84.062
 42
-27.4298886150138
  0
VERTEX
  8
0
 10
93.2059
 20
84.2784
 42
0.0
  0
SEQEND
  0
POLYLINE
  8
0
 66
     1
 10
0.0
 20
0.0
 30
0.0
 70
     1
  0
VERTEX
  8
0
 10
316.951
 20
-55.8911
 42
-27.5228952307764
  0
VERTEX
  8
0
 10
316.723
 20
-55.9881
 42
0.0
  0
SEQEND
  0
POLYLINE
  8
0
 66
     1
 10
0.0
 20
0.0
 30
0.0
 70
     1
  0
VERTEX
  8
0
 10
-207.987
 20
23.7684
 42
0.0
  0
VERTEX
  8
0
 10
-208.0
 20
23.9621
 42
0.0
  0
VERTEX
  8
0
 10
-208.0
 20
35.8425
 42
-0.1456371039069
  0
VERTEX
  8
0
 10
-207.758
 20
36.6595
 42
-0.0281081001199
  0
VERTEX
  8
0
 10
-205.368
 20
40.3243
 42
-0.0786245966758
  0
VERTEX
  8
0
 10
-190.197
 20
55.4605
 42
-0.0411720128181
  0
VERTEX
  8
0
 10
-186.441
 20
57.8753
 42
-0.1033283528622
  0
VERTEX
  8
0
 10
-185.843
 20
58.0
 42
0.0
  0
VERTEX
  8
0
 10
-173.962
 20
58.0
 42
-0.8327023956754
  0
VERTEX
  8
0
 10
-173.425
 20
55.0996
 42
0.0284833676674
  0
VERTEX
  8
0
 10
-174.405
 20
54.7187
 42
0.1047794784022
  0
VERTEX
  8
0
 10
-194.499
 20
40.1199
 42
0.0788462436998
  0
VERTEX
  8
0
 10
-204.751
 20
24.3336
 42
-0.3542627670968
  0
VERTEX
  8
0
 10
-206.184
 20
22.4958
 42
-0.4373239416485
  0
SEQEND
  0
POLYLINE
  8
0
 66
     1
 10
0.0
 20
0.0
 30
0.0
 70
     1
  0
VERTEX
  8
0
 10
183.271
 20
83.3011
 42
-27.3651805148175
  0
VERTEX
  8
0
 10
183.519
 20
83.3102
 42
0.0
  0
SEQEND
  0
POLYLINE
  8
0
 66
     1
 10
0.0
 20
0.0
 30
0.0
 70
     1
  0
VERTEX
  8
0
 10
-98.6723
 20
-54.3657
 42
-35.6781463097696
  0
VERTEX
  8
0
 10
-98.4561
 20
-54.4852
 42
0.0
  0
SEQEND
  0
POLYLINE
  8
0
 66
     1
 10
0.0
 20
0.0
 30
0.0
 70
     1
  0
VERTEX
  8
0
 10
-135.768
 20
-10.3218
 42
0.1308124813781
  0
VERTEX
  8
0
 10
-132.66
 20
-2.76534
 42
-0.3691220351005
  0
VERTEX
  8
0
 10
-131.178
 20
-1.5
 42
0.0
  0
VERTEX
  8
0
 10
-125.537
 20
-1.5
 42
-0.4621392813421
  0
VERTEX
  8
0
 10
-124.056
 20
-3.23465
 42
-0.1274672254631
  0
VERTEX
  8
0
 10
-128.88
 20
-15.4415
 42
-0.3470600121295
  0
VERTEX
  8
0
 10
-130.742
 20
-16.6605
 42
-0.1726861812985
  0
VERTEX
  8
0
 10
-131.65
 20
-16.2289
 42
0.0
  0
VERTEX
  8
0
 10
-135.615
 20
-12.264
 42
-0.3812152388557
  0
SEQEND
  0
POLYLINE
  8
0
 66
     1
 10
0.0
 20
0.0
 30
0.0
 70
     1
  0
VERTEX
  8
0
 10
-201.544
 20
-54.4852
 42
-36.173295901852
  0
VERTEX
  8
0
 10
-201.328
 20
-54.3657
 42
0.0
  0
SEQEND
  0
POLYLINE
  8
0
 66
     1
 10
0.0
 20
0.0
 30
0.0
 70
     1
  0
VERTEX
  8
0
 10
-182.668
 20
83.4354
 42
-27.7443930533317
  0
VERTEX
  8
0
 10
-182.448
 20
83.5489
 42
0.0
  0
SEQEND
  0
POLYLINE
  8
0
 66
     1
 10
0.0
 20
0.0
 30
0.0
 70
     1
  0
VERTEX
  8
0
 10
-197.169
 20
2.87613
 42
-0.1705172337496
  0
VERTEX
  8
0
 10
-185.606
 20
31.1411
 42
-0.4455641873691
  0
VERTEX
  8
0
 10
-183.379
 20
31.2578
 42
0.0
  0
VERTEX
  8
0
 10
-179.418
 20
27.2964
 42
-0.3841223580806
  0
VERTEX
  8
0
 10
-179.313
 20
25.2918
 42
0.1552318860697
  0
VERTEX
  8
0
 10
-188.54
 20
4.0112
 42
-0.3027766829339
  0
VERTEX
  8
0
 10
-189.138
 20
1.84476
 42
-0.1747600138475
  0
VERTEX
  8
0
 10
-190.095
 20
1.5
 42
0.0
  0
VERTEX
  8
0
 10
-195.674
 20
1.5
 42
-0.3904034112535
  0
SEQEND
  0
POLYLINE
  8
0
 66
     1
 10
0.0
 20
0.0
 30
0.0
 70
     1
  0
VERTEX
  8
0
 10
-160.322
 20
14.2324
 42
-0.3679108103258
  0
VERTEX
  8
0
 10
-162.264
 20
14.3854
 42
0.0
  0
VERTEX
  8
0
 10
-166.229
 20
18.3502
 42
-0.4457219095062
  0
VERTEX
  8
0
 10
-166.112
 20
20.5766
 42
-0.1412344280699
  0
VERTEX
  8
0
 10
-153.235
 20
25.9442
 42
-0.4608995817915
  0
VERTEX
  8
0
 10
-151.5
 20
24.4627
 42
0.0
  0
VERTEX
  8
0
 10
-151.5
 20
18.8217
 42
-0.3681008608854
  0
VERTEX
  8
0
 10
-152.765
 20
17.3401
 42
0.1144612137043
  0
SEQEND
  0
POLYLINE
  8
0
 66
     1
 10
0.0
 20
0.0
 30
0.0
 70
     1
  0
VERTEX
  8
0
 10
-178.019
 20
-2.866
 42
0.1319952627314
  0
VERTEX
  8
0
 10
-172.763
 20
-16.5865
 42
-0.2551434358697
  0
VERTEX
  8
0
 10
-171.464
 20
-18.6924
 42
-0.2024557835919
  0
VERTEX
  8
0
 10
-171.903
 20
-19.782
 42
0.0
  0
VERTEX
  8
0
 10
-175.865
 20
-23.7434
 42
-0.4455550808821
  0
VERTEX
  8
0
 10
-178.091
 20
-23.6267
 42
-0.1492977314799
  0
VERTEX
  8
0
 10
-186.553
 20
-3.76282
 42
-0.5415259097928
  0
VERTEX
  8
0
 10
-185.091
 20
-1.5
 42
0.0
  0
VERTEX
  8
0
 10
-179.511
 20
-1.5
 42
-0.4001465772936
  0
VERTEX
  8
0
 10
-178.022
 20
-2.86635
 42
-0.0128291047684
  0
SEQEND
  0
POLYLINE
  8
0
 66
     1
 10
0.0
 20
0.0
 30
0.0
 70
     1
  0
VERTEX
  8
0
 10
-90.2489
 20
84.062
 42
-27.3611611026671
  0
VERTEX
  8
0
 10
-90.1274
 20
84.2784
 42
0.0
  0
SEQEND
  0
POLYLINE
  8
0
 66
     1
 10
0.0
 20
0.0
 30
0.0
 70
     1
  0
VERTEX
  8
0
 10
-104.124
 20
1.51366
 42
-0.033773314114
  0
VERTEX
  8
0
 10
-109.905
 20
1.5
 42
-0.3986340970411
  0
VERTEX
  8
0
 10
-111.403
 20
2.92149
 42
0.166574973609
  0
VERTEX
  8
0
 10
-120.687
 20
25.2918
 42
-0.3848888545671
  0
VERTEX
  8
0
 10
-120.582
 20
27.2964
 42
0.0
  0
VERTEX
  8
0
 10
-116.621
 20
31.2578
 42
-0.444210017218
  0
VERTEX
  8
0
 10
-114.394
 20
31.1411
 42
-0.1569064617964
  0
VERTEX
  8
0
 10
-102.922
 20
4.86909
 42
-0.2600087222277
  0
VERTEX
  8
0
 10
-103.096
 20
2.14189
 42
-0.2097276804865
  0
SEQEND
  0
POLYLINE
  8
0
 66
     1
 10
0.0
 20
0.0
 30
0.0
 70
     1
  0
VERTEX
  8
0
 10
-152.876
 20
-57.7522
 42
-0.0280747147442
  0
VERTEX
  8
0
 10
-156.132
 20
-57.5871
 42
-0.1576867823358
  0
VERTEX
  8
0
 10
-188.656
 20
-43.12
 42
-0.4449283222267
  0
VERTEX
  8
0
 10
-188.772
 20
-40.8936
 42
0.0
  0
VERTEX
  8
0
 10
-184.811
 20
-36.9322
 42
-0.3839359822779
  0
VERTEX
  8
0
 10
-182.806
 20
-36.8271
 42
0.1573892662613
  0
VERTEX
  8
0
 10
-155.117
 20
-49.0651
 42
-0.2643431973543
  0
VERTEX
  8
0
 10
-152.018
 20
-49.5443
 42
-0.2167820159047
  0
VERTEX
  8
0
 10
-151.5
 20
-50.6782
 42
0.0
  0
VERTEX
  8
0
 10
-151.5
 20
-56.2574
 42
-0.3900372537554
  0
SEQEND
  0
POLYLINE
  8
0
 66
     1
 10
0.0
 20
0.0
 30
0.0
 70
     1
  0
VERTEX
  8
0
 10
-147.134
 20
28.0185
 42
-0.3877002097121
  0
VERTEX
  8
0
 10
-148.5
 20
29.5115
 42
0.0
  0
VERTEX
  8
0
 10
-148.5
 20
35.0907
 42
-0.4295549319969
  0
VERTEX
  8
0
 10
-146.922
 20
36.5887
 42
-0.1382630933796
  0
VERTEX
  8
0
 10
-128.338
 20
29.6819
 42
-0.1950659132773
  0
VERTEX
  8
0
 10
-125.932
 20
27.5013
 42
-0.3033839752598
  0
VERTEX
  8
0
 10
-126.257
 20
25.8647
 42
0.0
  0
VERTEX
  8
0
 10
-130.218
 20
21.9033
 42
-0.3839359822775
  0
VERTEX
  8
0
 10
-132.223
 20
21.7982
 42
0.147337276478
  0
SEQEND
  0
POLYLINE
  8
0
 66
     1
 10
0.0
 20
0.0
 30
0.0
 70
     1
  0
VERTEX
  8
0
 10
1.41779
 20
84.062
 42
-27.3454857701511
  0
VERTEX
  8
0
 10
1.53926
 20
84.2784
 42
0.0
  0
SEQEND
  0
POLYLINE
  8
0
 66
     1
 10
0.0
 20
0.0
 30
0.0
 70
     1
  0
VERTEX
  8
0
 10
-121.981
 20
-2.866
 42
-0.3884389239794
  0
VERTEX
  8
0
 10
-120.489
 20
-1.5
 42
0.0
  0
VERTEX
  8
0
 10
-114.909
 20
-1.5
 42
-0.4298556004936
  0
VERTEX
  8
0
 10
-113.411
 20
-3.07849
 42
-0.1374598982435
  0
VERTEX
  8
0
 10
-120.318
 20
-21.6622
 42
-0.1956375523561
  0
VERTEX
  8
0
 10
-122.499
 20
-24.0677
 42
-0.3038830167591
  0
VERTEX
  8
0
 10
-124.135
 20
-23.7434
 42
0.0
  0
VERTEX
  8
0
 10
-128.097
 20
-19.782
 42
-0.3841185049936
  0
VERTEX
  8
0
 10
-128.202
 20
-17.7773
 42
0.1443089108602
  0
SEQEND
  0
POLYLINE
  8
0
 66
     1
 10
0.0
 20
0.0
 30
0.0
 70
     1
  0
VERTEX
  8
0
 10
-206.459
 20
-1.51366
 42
-0.0337733141139
  0
VERTEX
  8
0
 10
-200.678
 20
-1.5
 42
-0.3986340970411
  0
VERTEX
  8
0
 10
-199.18
 20
-2.92149
 42
0.1710125812739
  0
VERTEX
  8
0
 10
-186.827
 20
-32.8063
 42
-0.3825572995812
  0
VERTEX
  8
0
 10
-186.932
 20
-34.8109
 42
0.0
  0
VERTEX
  8
0
 10
-190.894
 20
-38.7723
 42
-0.4455550808826
  0
VERTEX
  8
0
 10
-193.12
 20
-38.6556
 42
-0.1307354746181
  0
VERTEX
  8
0
 10
-206.631
 20
-12.1176
 42
-0.0249634316666
  0
VERTEX
  8
0
 10
-207.604
 20
-5.97536
 42
-0.0401905015406
  0
VERTEX
  8
0
 10
-207.748
 20
-2.83087
 42
-0.3431908910379
  0
SEQEND
  0
POLYLINE
  8
0
 66
     1
 10
0.0
 20
0.0
 30
0.0
 70
     1
  0
VERTEX
  8
0
 10
-102.831
 20
-2.87613
 42
-0.1705172337496
  0
VERTEX
  8
0
 10
-114.394
 20
-31.1411
 42
-0.4455641873683
  0
VERTEX
  8
0
 10
-116.621
 20
-31.2578
 42
0.0
  0
VERTEX
  8
0
 10
-120.582
 20
-27.2964
 42
-0.3841223580807
  0
VERTEX
  8
0
 10
-120.687
 20
-25.2918
 42
0.1552318860695
  0
VERTEX
  8
0
 10
-111.46
 20
-4.0112
 42
-0.3027766829339
  0
VERTEX
  8
0
 10
-110.862
 20
-1.84476
 42
-0.1747600138474
  0
VERTEX
  8
0
 10
-109.905
 20
-1.5
 42
0.0
  0
VERTEX
  8
0
 10
-104.326
 20
-1.5
 42
-0.3904034112536
  0
SEQEND
  0
POLYLINE
  8
0
 66
     1
 10
0.0
 20
0.0
 30
0.0
 70
     1
  0
VERTEX
  8
0
 10
-148.486
 20
-56.4593
 42
-0.0346290530006
  0
VERTEX
  8
0
 10
-148.5
 20
-50.6782
 42
-0.3985780229989
  0
VERTEX
  8
0
 10
-147.079
 20
-49.1802
 42
0.1710112274267
  0
VERTEX
  8
0
 10
-117.194
 20
-36.8271
 42
-0.3844474010149
  0
VERTEX
  8
0
 10
-115.189
 20
-36.9322
 42
0.0
  0
VERTEX
  8
0
 10
-111.228
 20
-40.8936
 42
-0.4442284732239
  0
VERTEX
  8
0
 10
-111.344
 20
-43.12
 42
-0.1585339555306
  0
VERTEX
  8
0
 10
-144.025
 20
-57.6035
 42
-0.0413244597261
  0
VERTEX
  8
0
 10
-147.169
 20
-57.7478
 42
-0.3423745623585
  0
SEQEND
  0
POLYLINE
  8
0
 66
     1
 10
0.0
 20
0.0
 30
0.0
 70
     1
  0
VERTEX
  8
0
 10
-152.876
 20
-47.1689
 42
-0.1705836967524
  0
VERTEX
  8
0
 10
-181.141
 20
-35.6055
 42
-0.445356187002
  0
VERTEX
  8
0
 10
-181.258
 20
-33.3792
 42
0.0
  0
VERTEX
  8
0
 10
-177.296
 20
-29.4178
 42
-0.3842246008128
  0
VERTEX
  8
0
 10
-175.292
 20
-29.3127
 42
0.1538939217208
  0
VERTEX
  8
0
 10
-154.011
 20
-38.5398
 42
-0.3032292917423
  0
VERTEX
  8
0
 10
-151.845
 20
-39.1381
 42
-0.1739318028916
  0
VERTEX
  8
0
 10
-151.5
 20
-40.0948
 42
0.0
  0
VERTEX
  8
0
 10
-151.5
 20
-45.6741
 42
-0.3900372537557
  0
SEQEND
  0
POLYLINE
  8
0
 66
     1
 10
0.0
 20
0.0
 30
0.0
 70
     1
  0
VERTEX
  8
0
 10
-275.549
 20
86.6089
 42
-27.5228952299418
  0
VERTEX
  8
0
 10
-275.777
 20
86.5119
 42
0.0
  0
SEQEND
  0
POLYLINE
  8
0
 66
     1
 10
0.0
 20
0.0
 30
0.0
 70
     1
  0
VERTEX
  8
0
 10
-207.752
 20
2.87613
 42
-0.0303752988737
  0
VERTEX
  8
0
 10
-207.587
 20
6.1315
 42
-0.1576805980478
  0
VERTEX
  8
0
 10
-193.12
 20
38.6556
 42
-0.4454134954317
  0
VERTEX
  8
0
 10
-190.894
 20
38.7723
 42
0.0
  0
VERTEX
  8
0
 10
-186.932
 20
34.8109
 42
-0.3842714102924
  0
VERTEX
  8
0
 10
-186.827
 20
32.8063
 42
0.158727126318
  0
VERTEX
  8
0
 10
-199.065
 20
5.11745
 42
-0.2639652127062
  0
VERTEX
  8
0
 10
-199.544
 20
2.01799
 42
-0.2172687178057
  0
VERTEX
  8
0
 10
-200.678
 20
1.5
 42
0.0
  0
VERTEX
  8
0
 10
-206.257
 20
1.5
 42
-0.3904034112536
  0
SEQEND
  0
POLYLINE
  8
0
 66
     1
 10
0.0
 20
0.0
 30
0.0
 70
     1
  0
VERTEX
  8
0
 10
-93.5407
 20
1.51366
 42
-0.0337900037122
  0
VERTEX
  8
0
 10
-99.3218
 20
1.5
 42
-0.3986727278576
  0
VERTEX
  8
0
 10
-100.82
 20
2.92149
 42
0.1710125812739
  0
VERTEX
  8
0
 10
-113.173
 20
32.8063
 42
-0.3825572995808
  0
VERTEX
  8
0
 10
-113.068
 20
34.8109
 42
0.0
  0
VERTEX
  8
0
 10
-109.106
 20
38.7723
 42
-0.4455550808834
  0
VERTEX
  8
0
 10
-106.88
 20
38.6556
 42
-0.1582416813521
  0
VERTEX
  8
0
 10
-92.3965
 20
5.97536
 42
-0.0413387766199
  0
VERTEX
  8
0
 10
-92.2522
 20
2.83087
 42
-0.3432840155136
  0
SEQEND
  0
POLYLINE
  8
0
 66
     1
 10
0.0
 20
0.0
 30
0.0
 70
     1
  0
VERTEX
  8
0
 10
-195.876
 20
-1.51366
 42
-0.0337733141139
  0
VERTEX
  8
0
 10
-190.095
 20
-1.5
 42
-0.3986340970412
  0
VERTEX
  8
0
 10
-188.597
 20
-2.92149
 42
0.166574973609
  0
VERTEX
  8
0
 10
-179.313
 20
-25.2918
 42
-0.3848888545671
  0
VERTEX
  8
0
 10
-179.418
 20
-27.2964
 42
0.0
  0
VERTEX
  8
0
 10
-183.379
 20
-31.2578
 42
-0.4442100172168
  0
VERTEX
  8
0
 10
-185.606
 20
-31.1411
 42
-0.1569064617965
  0
VERTEX
  8
0
 10
-197.078
 20
-4.86909
 42
-0.2600087222277
  0
VERTEX
  8
0
 10
-196.904
 20
-2.14189
 42
-0.2097276804866
  0
SEQEND
  0
POLYLINE
  8
0
 66
     1
 10
0.0
 20
0.0
 30
0.0
 70
     1
  0
VERTEX
  8
0
 10
-316.951
 20
40.8911
 42
-27.5228952230478
  0
VERTEX
  8
0
 10
-316.723
 20
40.9881
 42
0.0
  0
SEQEND
  0
POLYLINE
  8
0
 66
     1
 10
0.0
 20
0.0
 30
0.0
 70
     1
  0
VERTEX
  8
0
 10
318.659
 20
88.5665
 42
-38.2100731833615
  0
VERTEX
  8
0
 10
318.28
 20
88.668
 42
0.0
  0
SEQEND
  0
POLYLINE
  8
0
 66
     1
 10
0.0
 20
0.0
 30
0.0
 70
     1
  0
VERTEX
  8
0
 10
-148.486
 20
-45.876
 42
-0.0346290530006
  0
VERTEX
  8
0
 10
-148.5
 20
-40.0948
 42
-0.3987740198475
  0
VERTEX
  8
0
 10
-147.079
 20
-38.5969
 42
0.1665066568351
  0
VERTEX
  8
0
 10
-124.708
 20
-29.3127
 42
-0.3844534001568
  0
VERTEX
  8
0
 10
-122.704
 20
-29.4178
 42
0.0
  0
VERTEX
  8
0
 10
-118.742
 20
-33.3792
 42
-0.4458745710805
  0
VERTEX
  8
0
 10
-118.859
 20
-35.6055
 42
-0.155561113766
  0
VERTEX
  8
0
 10
-145.131
 20
-47.0782
 42
-0.2590238737534
  0
VERTEX
  8
0
 10
-147.858
 20
-46.9044
 42
-0.2088199845913
  0
SEQEND
  0
POLYLINE
  8
0
 66
     1
 10
0.0
 20
0.0
 30
0.0
 70
     1
  0
VERTEX
  8
0
 10
-152.866
 20
28.0185
 42
0.1344417433826
  0
VERTEX
  8
0
 10
-166.586
 20
22.7626
 42
-0.2543703653242
  0
VERTEX
  8
0
 10
-168.692
 20
21.4642
 42
-0.2045782956718
  0
VERTEX
  8
0
 10
-169.782
 20
21.9033
 42
0.0
  0
VERTEX
  8
0
 10
-173.743
 20
25.8647
 42
-0.4442284732241
  0
VERTEX
  8
0
 10
-173.627
 20
28.0911
 42
-0.1511894637061
  0
VERTEX
  8
0
 10
-153.763
 20
36.5528
 42
-0.5403577103796
  0
VERTEX
  8
0
 10
-151.5
 20
35.0907
 42
0.0
  0
VERTEX
  8
0
 10
-151.5
 20
29.5115
 42
-0.398687741996
  0
VERTEX
  8
0
 10
-152.866
 20
28.0219
 42
-0.0143248530255
  0
SEQEND
  0
POLYLINE
  8
0
 66
     1
 10
0.0
 20
0.0
 30
0.0
 70
     1
  0
VERTEX
  8
0
 10
-205.181
 20
-23.2482
 42
0.0210329401959
  0
VERTEX
  8
0
 10
-204.719
 20
-24.4054
 42
0.1313203256321
  0
VERTEX
  8
0
 10
-185.249
 20
-48.4489
 42
0.0504339735532
  0
VERTEX
  8
0
 10
-174.334
 20
-54.7507
 42
-0.3539728036321
  0
VERTEX
  8
0
 10
-172.496
 20
-56.1841
 42
-0.4778951507035
  0
VERTEX
  8
0
 10
-173.962
 20
-58.0
 42
0.0
  0
VERTEX
  8
0
 10
-185.843
 20
-58.0
 42
-0.1454885798511
  0
VERTEX
  8
0
 10
-186.659
 20
-57.758
 42
-0.0262712987778
  0
VERTEX
  8
0
 10
-190.324
 20
-55.3682
 42
-0.0768184268938
  0
VERTEX
  8
0
 10
-205.461
 20
-40.1973
 42
-0.0418612966835
  0
VERTEX
  8
0
 10
-207.875
 20
-36.4413
 42
-0.1032164950632
  0
VERTEX
  8
0
 10
-208.0
 20
-35.8425
 42
0.0
  0
VERTEX
  8
0
 10
-208.0
 20
-23.9621
 42
-0.7789905223277
  0
SEQEND
  0
POLYLINE
  8
0
 66
     1
 10
0.0
 20
0.0
 30
0.0
 70
     1
  0
VERTEX
  8
0
 10
-92.2478
 20
-2.87613
 42
-0.0283612696621
  0
VERTEX
  8
0
 10
-92.4129
 20
-6.1315
 42
-0.157679003047
  0
VERTEX
  8
0
 10
-106.88
 20
-38.6556
 42
-0.4454134954323
  0
VERTEX
  8
0
 10
-109.106
 20
-38.7723
 42
0.0
  0
VERTEX
  8
0
 10
-113.068
 20
-34.8109
 42
-0.3842714102935
  0
VERTEX
  8
0
 10
-113.173
 20
-32.8063
 42
0.1587271263181
  0
VERTEX
  8
0
 10
-100.935
 20
-5.11745
 42
-0.2639652127061
  0
VERTEX
  8
0
 10
-100.456
 20
-2.01799
 42
-0.2175260707014
  0
VERTEX
  8
0
 10
-99.3218
 20
-1.5
 42
0.0
  0
VERTEX
  8
0
 10
-93.7426
 20
-1.5
 42
-0.3900995847478
  0
SEQEND
  0
POLYLINE
  8
0
 66
     1
 10
0.0
 20
0.0
 30
0.0
 70
     1
  0
VERTEX
  8
0
 10
-316.341
 20
88.5665
 42
-38.2100731946827
  0
VERTEX
  8
0
 10
-316.72
 20
88.668
 42
0.0
  0
SEQEND
  0
POLYLINE
  8
0
 66
     1
 10
0.0
 20
0.0
 30
0.0
 70
     1
  0
VERTEX
  8
0
 10
-92.0126
 20
-23.7684
 42
0.0
  0
VERTEX
  8
0
 10
-92.0
 20
-23.9621
 42
0.0
  0
VERTEX
  8
0
 10
-92.0
 20
-35.8425
 42
-0.1449560407995
  0
VERTEX
  8
0
 10
-92.242
 20
-36.6595
 42
-0.0262583791174
  0
VERTEX
  8
0
 10
-94.6318
 20
-40.3243
 42
-0.0786212525689
  0
VERTEX
  8
0
 10
-109.803
 20
-55.4605
 42
-0.041172012818
  0
VERTEX
  8
0
 10
-113.559
 20
-57.8753
 42
-0.1033283528641
  0
VERTEX
  8
0
 10
-114.157
 20
-58.0
 42
0.0
  0
VERTEX
  8
0
 10
-126.038
 20
-58.0
 42
-0.8327023956738
  0
VERTEX
  8
0
 10
-126.575
 20
-55.0996
 42
0.0284833676677
  0
VERTEX
  8
0
 10
-125.595
 20
-54.7187
 42
0.1047794784022
  0
VERTEX
  8
0
 10
-105.501
 20
-40.1199
 42
0.0788394938721
  0
VERTEX
  8
0
 10
-95.2493
 20
-24.3336
 42
-0.3541753923052
  0
VERTEX
  8
0
 10
-93.8159
 20
-22.4958
 42
-0.4385330957014
  0
SEQEND
  0
POLYLINE
  8
0
 66
     1
 10
0.0
 20
0.0
 30
0.0
 70
     1
  0
VERTEX
  8
0
 10
1.41779
 20
-100.938
 42
-27.1746320408365
  0
VERTEX
  8
0
 10
1.53926
 20
-100.722
 42
0.0
  0
SEQEND
  0
POLYLINE
  8
0
 66
     1
 10
0.0
 20
0.0
 30
0.0
 70
     1
  0
VERTEX
  8
0
 10
-147.124
 20
47.1689
 42
-0.1705836967524
  0
VERTEX
  8
0
 10
-118.859
 20
35.6055
 42
-0.4453561870016
  0
VERTEX
  8
0
 10
-118.742
 20
33.3792
 42
0.0
  0
VERTEX
  8
0
 10
-122.704
 20
29.4178
 42
-0.3842246008129
  0
VERTEX
  8
0
 10
-124.708
 20
29.3127
 42
0.1538939217209
  0
VERTEX
  8
0
 10
-145.989
 20
38.5398
 42
-0.3032292917422
  0
VERTEX
  8
0
 10
-148.155
 20
39.1381
 42
-0.1739318028924
  0
VERTEX
  8
0
 10
-148.5
 20
40.0948
 42
0.0
  0
VERTEX
  8
0
 10
-148.5
 20
45.6741
 42
-0.3900372537552
  0
SEQEND
  0
POLYLINE
  8
0
 66
     1
 10
0.0
 20
0.0
 30
0.0
 70
     1
  0
VERTEX
  8
0
 10
-155.465
 20
7.82314
 42
-32.4544303847011
  0
VERTEX
  8
0
 10
-155.709
 20
7.85716
 42
0.0
  0
SEQEND
  0
POLYLINE
  8
0
 66
     1
 10
0.0
 20
0.0
 30
0.0
 70
     1
  0
VERTEX
  8
0
 10
320.398
 20
-107.348
 42
0.3843118151421
  0
VERTEX
  8
0
 10
324.875
 20
-102.375
 42
0.0
  0
VERTEX
  8
0
 10
324.875
 20
102.375
 42
0.4147169626954
  0
VERTEX
  8
0
 10
319.875
 20
107.375
 42
0.0
  0
VERTEX
  8
0
 10
-319.875
 20
107.375
 42
0.4147169626956
  0
VERTEX
  8
0
 10
-324.875
 20
102.375
 42
0.0
  0
VERTEX
  8
0
 10
-324.875
 20
-102.375
 42
0.4147169626952
  0
VERTEX
  8
0
 10
-319.875
 20
-107.375
 42
0.0
  0
VERTEX
  8
0
 10
319.875
 20
-107.375
 42
0.0264414779947
  0
SEQEND
  0
ENDSEC
  0
EOF
