  0
SECTION
  2
HEADER
  9
$ACADVER
  1
AC1009
  9
$INSBASE
 10
0.0
 20
0.0
 30
0.0
  9
$EXTMIN
 10
0.0
 20
0.0
 30
0.0
  9
$EXTMAX
 10
0.0
 20
0.0
 30
0.0
  0
ENDSEC
  0
SECTION
  2
TABLES
  0
TABLE
  2
VPORT
 70
0
  0
ENDTAB
  0
TABLE
  2
LTYPE
 70
1
  0
LTYPE
  2
CONTINUOUS
 70
0
  3
Solid line
 72
65
 73
0
 40
0.0
  0
ENDTAB
  0
TABLE
  2
LAYER
 70
1
  0
LAYER
  2
0
 70
64
 62
7
  6
continuous
  0
ENDTAB
  0
TABLE
  2
STYLE
 70
1
  0
STYLE
  2
STANDARD
 70
0
 40
0
 41
1.0
 50
0.0
 71
0
 42
1
 3
ARIAL.TTF
 4

  0
ENDTAB
  0
TABLE
  2
VIEW
 70
0
  0
ENDTAB
  0
ENDSEC
  0
SECTION
  2
BLOCKS
  0
ENDSEC
  0
SECTION
  2
ENTITIES
  0
POLYLINE
  8
LAYER_1
 62
0
 70
1
 66
1
 10
0.0
 20
0.0
 30
0.0
  0
VERTEX
  8
LAYER_1
 10
2.813535
 20
6.222008
 30
0.0
  0
VERTEX
  8
LAYER_1
 10
-0.257331
 20
6.222008
 30
0.0
  0
VERTEX
  8
LAYER_1
 10
-0.265154
 20
6.222528
 30
0.0
  0
VERTEX
  8
LAYER_1
 10
-0.272736
 20
6.224051
 30
0.0
  0
VERTEX
  8
LAYER_1
 10
-0.28
 20
6.226531
 30
0.0
  0
VERTEX
  8
LAYER_1
 10
-0.286854
 20
6.229921
 30
0.0
  0
VERTEX
  8
LAYER_1
 10
-0.293217
 20
6.234161
 30
0.0
  0
VERTEX
  8
LAYER_1
 10
-0.298996
 20
6.239213
 30
0.0
  0
VERTEX
  8
LAYER_1
 10
-0.30411
 20
6.24502
 30
0.0
  0
VERTEX
  8
LAYER_1
 10
-0.308472
 20
6.251535
 30
0.0
  0
VERTEX
  8
LAYER_1
 10
-0.311933
 20
6.258571
 30
0.0
  0
VERTEX
  8
LAYER_1
 10
-0.314406
 20
6.265902
 30
0.0
  0
VERTEX
  8
LAYER_1
 10
-0.31589
 20
6.273433
 30
0.0
  0
VERTEX
  8
LAYER_1
 10
-0.316382
 20
6.281063
 30
0.0
  0
VERTEX
  8
LAYER_1
 10
-0.31589
 20
6.288693
 30
0.0
  0
VERTEX
  8
LAYER_1
 10
-0.314406
 20
6.296224
 30
0.0
  0
VERTEX
  8
LAYER_1
 10
-0.311933
 20
6.303555
 30
0.0
  0
VERTEX
  8
LAYER_1
 10
-0.308472
 20
6.310591
 30
0.0
  0
VERTEX
  8
LAYER_1
 10
-0.30411
 20
6.317106
 30
0.0
  0
VERTEX
  8
LAYER_1
 10
-0.298996
 20
6.322913
 30
0.0
  0
VERTEX
  8
LAYER_1
 10
-0.293217
 20
6.327965
 30
0.0
  0
VERTEX
  8
LAYER_1
 10
-0.286854
 20
6.332205
 30
0.0
  0
VERTEX
  8
LAYER_1
 10
-0.28
 20
6.335594
 30
0.0
  0
VERTEX
  8
LAYER_1
 10
-0.272736
 20
6.338075
 30
0.0
  0
VERTEX
  8
LAYER_1
 10
-0.265154
 20
6.339598
 30
0.0
  0
VERTEX
  8
LAYER_1
 10
-0.257331
 20
6.340118
 30
0.0
  0
VERTEX
  8
LAYER_1
 10
2.813535
 20
6.340118
 30
0.0
  0
VERTEX
  8
LAYER_1
 10
2.821358
 20
6.339598
 30
0.0
  0
VERTEX
  8
LAYER_1
 10
2.828941
 20
6.338075
 30
0.0
  0
VERTEX
  8
LAYER_1
 10
2.836205
 20
6.335594
 30
0.0
  0
VERTEX
  8
LAYER_1
 10
2.843059
 20
6.332205
 30
0.0
  0
VERTEX
  8
LAYER_1
 10
2.849421
 20
6.327965
 30
0.0
  0
VERTEX
  8
LAYER_1
 10
2.855201
 20
6.322913
 30
0.0
  0
VERTEX
  8
LAYER_1
 10
2.860315
 20
6.317106
 30
0.0
  0
VERTEX
  8
LAYER_1
 10
2.864677
 20
6.310591
 30
0.0
  0
VERTEX
  8
LAYER_1
 10
2.868138
 20
6.303555
 30
0.0
  0
VERTEX
  8
LAYER_1
 10
2.87061
 20
6.296224
 30
0.0
  0
VERTEX
  8
LAYER_1
 10
2.872094
 20
6.288693
 30
0.0
  0
VERTEX
  8
LAYER_1
 10
2.872587
 20
6.281063
 30
0.0
  0
VERTEX
  8
LAYER_1
 10
2.872094
 20
6.273433
 30
0.0
  0
VERTEX
  8
LAYER_1
 10
2.87061
 20
6.265902
 30
0.0
  0
VERTEX
  8
LAYER_1
 10
2.868138
 20
6.258571
 30
0.0
  0
VERTEX
  8
LAYER_1
 10
2.864677
 20
6.251535
 30
0.0
  0
VERTEX
  8
LAYER_1
 10
2.860315
 20
6.24502
 30
0.0
  0
VERTEX
  8
LAYER_1
 10
2.855201
 20
6.239213
 30
0.0
  0
VERTEX
  8
LAYER_1
 10
2.849421
 20
6.234161
 30
0.0
  0
VERTEX
  8
LAYER_1
 10
2.843059
 20
6.229921
 30
0.0
  0
VERTEX
  8
LAYER_1
 10
2.836205
 20
6.226531
 30
0.0
  0
VERTEX
  8
LAYER_1
 10
2.828941
 20
6.224051
 30
0.0
  0
VERTEX
  8
LAYER_1
 10
2.821358
 20
6.222528
 30
0.0
  0
SEQEND
  8
LAYER_1
  0
POLYLINE
  8
LAYER_1
 62
0
 70
1
 66
1
 10
0.0
 20
0.0
 30
0.0
  0
VERTEX
  8
LAYER_1
 10
-5.375406
 20
8.582417
 30
0.0
  0
VERTEX
  8
LAYER_1
 10
-5.318839
 20
8.525724
 30
0.0
  0
VERTEX
  8
LAYER_1
 10
-5.335457
 20
8.495346
 30
0.0
  0
VERTEX
  8
LAYER_1
 10
-5.347303
 20
8.463402
 30
0.0
  0
VERTEX
  8
LAYER_1
 10
-5.354382
 20
8.430413
 30
0.0
  0
VERTEX
  8
LAYER_1
 10
-5.356693
 20
8.396913
 30
0.0
  0
VERTEX
  8
LAYER_1
 10
-5.354228
 20
8.363421
 30
0.0
  0
VERTEX
  8
LAYER_1
 10
-5.346996
 20
8.330472
 30
0.0
  0
VERTEX
  8
LAYER_1
 10
-5.334992
 20
8.298591
 30
0.0
  0
VERTEX
  8
LAYER_1
 10
-5.31822
 20
8.268303
 30
0.0
  0
VERTEX
  8
LAYER_1
 10
-5.374854
 20
8.211795
 30
0.0
  0
VERTEX
  8
LAYER_1
 10
-5.401291
 20
8.254846
 30
0.0
  0
VERTEX
  8
LAYER_1
 10
-5.420193
 20
8.300677
 30
0.0
  0
VERTEX
  8
LAYER_1
 10
-5.431559
 20
8.348366
 30
0.0
  0
VERTEX
  8
LAYER_1
 10
-5.43539
 20
8.396996
 30
0.0
  0
VERTEX
  8
LAYER_1
 10
-5.431689
 20
8.445638
 30
0.0
  0
VERTEX
  8
LAYER_1
 10
-5.420457
 20
8.49337
 30
0.0
  0
VERTEX
  8
LAYER_1
 10
-5.401697
 20
8.539272
 30
0.0
  0
SEQEND
  8
LAYER_1
  0
POLYLINE
  8
LAYER_1
 62
0
 70
1
 66
1
 10
0.0
 20
0.0
 30
0.0
  0
VERTEX
  8
LAYER_1
 10
-4.754142
 20
8.099142
 30
0.0
  0
VERTEX
  8
LAYER_1
 10
-4.810114
 20
8.155236
 30
0.0
  0
VERTEX
  8
LAYER_1
 10
-4.773799
 20
8.210831
 30
0.0
  0
VERTEX
  8
LAYER_1
 10
-4.747791
 20
8.270417
 30
0.0
  0
VERTEX
  8
LAYER_1
 10
-4.732094
 20
8.332673
 30
0.0
  0
VERTEX
  8
LAYER_1
 10
-4.72672
 20
8.396276
 30
0.0
  0
VERTEX
  8
LAYER_1
 10
-4.731677
 20
8.459909
 30
0.0
  0
VERTEX
  8
LAYER_1
 10
-4.746969
 20
8.522252
 30
0.0
  0
VERTEX
  8
LAYER_1
 10
-4.772606
 20
8.58198
 30
0.0
  0
VERTEX
  8
LAYER_1
 10
-4.808594
 20
8.637776
 30
0.0
  0
VERTEX
  8
LAYER_1
 10
-4.752476
 20
8.693776
 30
0.0
  0
VERTEX
  8
LAYER_1
 10
-4.70661
 20
8.625476
 30
0.0
  0
VERTEX
  8
LAYER_1
 10
-4.673929
 20
8.551945
 30
0.0
  0
VERTEX
  8
LAYER_1
 10
-4.654421
 20
8.474937
 30
0.0
  0
VERTEX
  8
LAYER_1
 10
-4.648075
 20
8.396209
 30
0.0
  0
VERTEX
  8
LAYER_1
 10
-4.654886
 20
8.317508
 30
0.0
  0
VERTEX
  8
LAYER_1
 10
-4.674839
 20
8.240598
 30
0.0
  0
VERTEX
  8
LAYER_1
 10
-4.707929
 20
8.167224
 30
0.0
  0
SEQEND
  8
LAYER_1
  0
POLYLINE
  8
LAYER_1
 62
0
 70
1
 66
1
 10
0.0
 20
0.0
 30
0.0
  0
VERTEX
  8
LAYER_1
 10
-5.048417
 20
8.53752
 30
0.0
  0
VERTEX
  8
LAYER_1
 10
-5.110484
 20
8.475591
 30
0.0
  0
VERTEX
  8
LAYER_1
 10
-5.120161
 20
8.476224
 30
0.0
  0
VERTEX
  8
LAYER_1
 10
-5.129843
 20
8.475661
 30
0.0
  0
VERTEX
  8
LAYER_1
 10
-5.191882
 20
8.537835
 30
0.0
  0
VERTEX
  8
LAYER_1
 10
-5.174618
 20
8.545358
 30
0.0
  0
VERTEX
  8
LAYER_1
 10
-5.156776
 20
8.55072
 30
0.0
  0
VERTEX
  8
LAYER_1
 10
-5.138539
 20
8.553921
 30
0.0
  0
VERTEX
  8
LAYER_1
 10
-5.120114
 20
8.554957
 30
0.0
  0
VERTEX
  8
LAYER_1
 10
-5.101693
 20
8.553835
 30
0.0
  0
VERTEX
  8
LAYER_1
 10
-5.083472
 20
8.550555
 30
0.0
  0
VERTEX
  8
LAYER_1
 10
-5.06565
 20
8.545118
 30
0.0
  0
SEQEND
  8
LAYER_1
  0
POLYLINE
  8
LAYER_1
 62
0
 70
1
 66
1
 10
0.0
 20
0.0
 30
0.0
  0
VERTEX
  8
LAYER_1
 10
-4.821854
 20
8.763591
 30
0.0
  0
VERTEX
  8
LAYER_1
 10
-4.877945
 20
8.707622
 30
0.0
  0
VERTEX
  8
LAYER_1
 10
-4.93374
 20
8.74411
 30
0.0
  0
VERTEX
  8
LAYER_1
 10
-4.993555
 20
8.770209
 30
0.0
  0
VERTEX
  8
LAYER_1
 10
-5.056051
 20
8.785917
 30
0.0
  0
VERTEX
  8
LAYER_1
 10
-5.119894
 20
8.791224
 30
0.0
  0
VERTEX
  8
LAYER_1
 10
-5.183748
 20
8.78613
 30
0.0
  0
VERTEX
  8
LAYER_1
 10
-5.24628
 20
8.770626
 30
0.0
  0
VERTEX
  8
LAYER_1
 10
-5.306154
 20
8.744701
 30
0.0
  0
VERTEX
  8
LAYER_1
 10
-5.362031
 20
8.708358
 30
0.0
  0
VERTEX
  8
LAYER_1
 10
-5.418004
 20
8.764453
 30
0.0
  0
VERTEX
  8
LAYER_1
 10
-5.349634
 20
8.810681
 30
0.0
  0
VERTEX
  8
LAYER_1
 10
-5.275965
 20
8.843654
 30
0.0
  0
VERTEX
  8
LAYER_1
 10
-5.198772
 20
8.863382
 30
0.0
  0
VERTEX
  8
LAYER_1
 10
-5.119819
 20
8.86987
 30
0.0
  0
VERTEX
  8
LAYER_1
 10
-5.040882
 20
8.86313
 30
0.0
  0
VERTEX
  8
LAYER_1
 10
-4.963728
 20
8.843161
 30
0.0
  0
VERTEX
  8
LAYER_1
 10
-4.89013
 20
8.80998
 30
0.0
  0
SEQEND
  8
LAYER_1
  0
POLYLINE
  8
LAYER_1
 62
0
 70
1
 66
1
 10
0.0
 20
0.0
 30
0.0
  0
VERTEX
  8
LAYER_1
 10
-5.261256
 20
8.46802
 30
0.0
  0
VERTEX
  8
LAYER_1
 10
-5.198795
 20
8.405421
 30
0.0
  0
VERTEX
  8
LAYER_1
 10
-5.198583
 20
8.387681
 30
0.0
  0
VERTEX
  8
LAYER_1
 10
-5.26065
 20
8.325752
 30
0.0
  0
VERTEX
  8
LAYER_1
 10
-5.268154
 20
8.342835
 30
0.0
  0
VERTEX
  8
LAYER_1
 10
-5.273531
 20
8.3605
 30
0.0
  0
VERTEX
  8
LAYER_1
 10
-5.276791
 20
8.378555
 30
0.0
  0
VERTEX
  8
LAYER_1
 10
-5.277929
 20
8.396811
 30
0.0
  0
VERTEX
  8
LAYER_1
 10
-5.276945
 20
8.415075
 30
0.0
  0
VERTEX
  8
LAYER_1
 10
-5.273839
 20
8.433161
 30
0.0
  0
VERTEX
  8
LAYER_1
 10
-5.26861
 20
8.45087
 30
0.0
  0
SEQEND
  8
LAYER_1
  0
POLYLINE
  8
LAYER_1
 62
0
 70
1
 66
1
 10
0.0
 20
0.0
 30
0.0
  0
VERTEX
  8
LAYER_1
 10
-5.190673
 20
8.256528
 30
0.0
  0
VERTEX
  8
LAYER_1
 10
-5.127961
 20
8.319106
 30
0.0
  0
VERTEX
  8
LAYER_1
 10
-5.112697
 20
8.31913
 30
0.0
  0
VERTEX
  8
LAYER_1
 10
-5.050232
 20
8.256531
 30
0.0
  0
VERTEX
  8
LAYER_1
 10
-5.067146
 20
8.249303
 30
0.0
  0
VERTEX
  8
LAYER_1
 10
-5.084606
 20
8.244142
 30
0.0
  0
VERTEX
  8
LAYER_1
 10
-5.102437
 20
8.241043
 30
0.0
  0
VERTEX
  8
LAYER_1
 10
-5.120449
 20
8.240012
 30
0.0
  0
VERTEX
  8
LAYER_1
 10
-5.138465
 20
8.241043
 30
0.0
  0
VERTEX
  8
LAYER_1
 10
-5.156295
 20
8.244142
 30
0.0
  0
VERTEX
  8
LAYER_1
 10
-5.17376
 20
8.249303
 30
0.0
  0
SEQEND
  8
LAYER_1
  0
POLYLINE
  8
LAYER_1
 62
0
 70
1
 66
1
 10
0.0
 20
0.0
 30
0.0
  0
VERTEX
  8
LAYER_1
 10
-5.417547
 20
8.03015
 30
0.0
  0
VERTEX
  8
LAYER_1
 10
-5.361429
 20
8.086146
 30
0.0
  0
VERTEX
  8
LAYER_1
 10
-5.305835
 20
8.050142
 30
0.0
  0
VERTEX
  8
LAYER_1
 10
-5.246307
 20
8.024406
 30
0.0
  0
VERTEX
  8
LAYER_1
 10
-5.184154
 20
8.008937
 30
0.0
  0
VERTEX
  8
LAYER_1
 10
-5.120689
 20
8.003748
 30
0.0
  0
VERTEX
  8
LAYER_1
 10
-5.05722
 20
8.008835
 30
0.0
  0
VERTEX
  8
LAYER_1
 10
-4.995059
 20
8.024209
 30
0.0
  0
VERTEX
  8
LAYER_1
 10
-4.935516
 20
8.049874
 30
0.0
  0
VERTEX
  8
LAYER_1
 10
-4.879902
 20
8.085831
 30
0.0
  0
VERTEX
  8
LAYER_1
 10
-4.823909
 20
8.029713
 30
0.0
  0
VERTEX
  8
LAYER_1
 10
-4.892028
 20
7.983882
 30
0.0
  0
VERTEX
  8
LAYER_1
 10
-4.96537
 20
7.951173
 30
0.0
  0
VERTEX
  8
LAYER_1
 10
-5.042197
 20
7.931583
 30
0.0
  0
VERTEX
  8
LAYER_1
 10
-5.120764
 20
7.925102
 30
0.0
  0
VERTEX
  8
LAYER_1
 10
-5.199323
 20
7.931724
 30
0.0
  0
VERTEX
  8
LAYER_1
 10
-5.276138
 20
7.951441
 30
0.0
  0
VERTEX
  8
LAYER_1
 10
-5.349461
 20
7.984252
 30
0.0
  0
SEQEND
  8
LAYER_1
  0
POLYLINE
  8
LAYER_1
 62
0
 70
1
 66
1
 10
0.0
 20
0.0
 30
0.0
  0
VERTEX
  8
LAYER_1
 10
-4.934213
 20
8.651476
 30
0.0
  0
VERTEX
  8
LAYER_1
 10
-4.990843
 20
8.594969
 30
0.0
  0
VERTEX
  8
LAYER_1
 10
-5.021256
 20
8.61187
 30
0.0
  0
VERTEX
  8
LAYER_1
 10
-5.053287
 20
8.623965
 30
0.0
  0
VERTEX
  8
LAYER_1
 10
-5.08639
 20
8.631248
 30
0.0
  0
VERTEX
  8
LAYER_1
 10
-5.120039
 20
8.63372
 30
0.0
  0
VERTEX
  8
LAYER_1
 10
-5.153697
 20
8.631378
 30
0.0
  0
VERTEX
  8
LAYER_1
 10
-5.186823
 20
8.624217
 30
0.0
  0
VERTEX
  8
LAYER_1
 10
-5.218886
 20
8.61224
 30
0.0
  0
VERTEX
  8
LAYER_1
 10
-5.249354
 20
8.595437
 30
0.0
  0
VERTEX
  8
LAYER_1
 10
-5.305878
 20
8.652079
 30
0.0
  0
VERTEX
  8
LAYER_1
 10
-5.262646
 20
8.678547
 30
0.0
  0
VERTEX
  8
LAYER_1
 10
-5.21663
 20
8.697421
 30
0.0
  0
VERTEX
  8
LAYER_1
 10
-5.16876
 20
8.708713
 30
0.0
  0
VERTEX
  8
LAYER_1
 10
-5.119969
 20
8.712417
 30
0.0
  0
VERTEX
  8
LAYER_1
 10
-5.071185
 20
8.708539
 30
0.0
  0
VERTEX
  8
LAYER_1
 10
-5.023343
 20
8.697091
 30
0.0
  0
VERTEX
  8
LAYER_1
 10
-4.977374
 20
8.678067
 30
0.0
  0
SEQEND
  8
LAYER_1
  0
POLYLINE
  8
LAYER_1
 62
0
 70
1
 66
1
 10
0.0
 20
0.0
 30
0.0
  0
VERTEX
  8
LAYER_1
 10
-5.305114
 20
8.142339
 30
0.0
  0
VERTEX
  8
LAYER_1
 10
-5.248409
 20
8.198921
 30
0.0
  0
VERTEX
  8
LAYER_1
 10
-5.218248
 20
8.182457
 30
0.0
  0
VERTEX
  8
LAYER_1
 10
-5.186539
 20
8.170685
 30
0.0
  0
VERTEX
  8
LAYER_1
 10
-5.153795
 20
8.163618
 30
0.0
  0
VERTEX
  8
LAYER_1
 10
-5.120535
 20
8.161252
 30
0.0
  0
VERTEX
  8
LAYER_1
 10
-5.087276
 20
8.163587
 30
0.0
  0
VERTEX
  8
LAYER_1
 10
-5.054531
 20
8.170626
 30
0.0
  0
VERTEX
  8
LAYER_1
 10
-5.022819
 20
8.182374
 30
0.0
  0
VERTEX
  8
LAYER_1
 10
-4.992654
 20
8.198827
 30
0.0
  0
VERTEX
  8
LAYER_1
 10
-4.936083
 20
8.142134
 30
0.0
  0
VERTEX
  8
LAYER_1
 10
-4.979035
 20
8.116039
 30
0.0
  0
VERTEX
  8
LAYER_1
 10
-5.024713
 20
8.097409
 30
0.0
  0
VERTEX
  8
LAYER_1
 10
-5.072209
 20
8.086252
 30
0.0
  0
VERTEX
  8
LAYER_1
 10
-5.12061
 20
8.082555
 30
0.0
  0
VERTEX
  8
LAYER_1
 10
-5.169012
 20
8.086315
 30
0.0
  0
VERTEX
  8
LAYER_1
 10
-5.216504
 20
8.097539
 30
0.0
  0
VERTEX
  8
LAYER_1
 10
-5.262173
 20
8.116213
 30
0.0
  0
SEQEND
  8
LAYER_1
  0
POLYLINE
  8
LAYER_1
 62
0
 70
1
 66
1
 10
0.0
 20
0.0
 30
0.0
  0
VERTEX
  8
LAYER_1
 10
-4.642465
 20
7.98722
 30
0.0
  0
VERTEX
  8
LAYER_1
 10
-4.698272
 20
8.04315
 30
0.0
  0
VERTEX
  8
LAYER_1
 10
-4.64202
 20
8.123752
 30
0.0
  0
VERTEX
  8
LAYER_1
 10
-4.601752
 20
8.210898
 30
0.0
  0
VERTEX
  8
LAYER_1
 10
-4.577476
 20
8.302413
 30
0.0
  0
VERTEX
  8
LAYER_1
 10
-4.569213
 20
8.396134
 30
0.0
  0
VERTEX
  8
LAYER_1
 10
-4.576969
 20
8.48989
 30
0.0
  0
VERTEX
  8
LAYER_1
 10
-4.600752
 20
8.581508
 30
0.0
  0
VERTEX
  8
LAYER_1
 10
-4.640583
 20
8.668823
 30
0.0
  0
VERTEX
  8
LAYER_1
 10
-4.696465
 20
8.749661
 30
0.0
  0
VERTEX
  8
LAYER_1
 10
-4.640524
 20
8.80548
 30
0.0
  0
VERTEX
  8
LAYER_1
 10
-4.574713
 20
8.71224
 30
0.0
  0
VERTEX
  8
LAYER_1
 10
-4.527799
 20
8.611177
 30
0.0
  0
VERTEX
  8
LAYER_1
 10
-4.499776
 20
8.504913
 30
0.0
  0
VERTEX
  8
LAYER_1
 10
-4.490622
 20
8.396063
 30
0.0
  0
VERTEX
  8
LAYER_1
 10
-4.500327
 20
8.287248
 30
0.0
  0
VERTEX
  8
LAYER_1
 10
-4.528882
 20
8.181091
 30
0.0
  0
VERTEX
  8
LAYER_1
 10
-4.576264
 20
8.080209
 30
0.0
  0
SEQEND
  8
LAYER_1
  0
POLYLINE
  8
LAYER_1
 62
0
 70
1
 66
1
 10
0.0
 20
0.0
 30
0.0
  0
VERTEX
  8
LAYER_1
 10
-4.980264
 20
8.32576
 30
0.0
  0
VERTEX
  8
LAYER_1
 10
-5.042303
 20
8.387929
 30
0.0
  0
VERTEX
  8
LAYER_1
 10
-5.042063
 20
8.404819
 30
0.0
  0
VERTEX
  8
LAYER_1
 10
-4.97935
 20
8.467394
 30
0.0
  0
VERTEX
  8
LAYER_1
 10
-4.972098
 20
8.450303
 30
0.0
  0
VERTEX
  8
LAYER_1
 10
-4.966957
 20
8.432661
 30
0.0
  0
VERTEX
  8
LAYER_1
 10
-4.963921
 20
8.414654
 30
0.0
  0
VERTEX
  8
LAYER_1
 10
-4.962988
 20
8.396472
 30
0.0
  0
VERTEX
  8
LAYER_1
 10
-4.964157
 20
8.378303
 30
0.0
  0
VERTEX
  8
LAYER_1
 10
-4.967429
 20
8.360335
 30
0.0
  0
VERTEX
  8
LAYER_1
 10
-4.972799
 20
8.34276
 30
0.0
  0
SEQEND
  8
LAYER_1
  0
POLYLINE
  8
LAYER_1
 62
0
 70
1
 66
1
 10
0.0
 20
0.0
 30
0.0
  0
VERTEX
  8
LAYER_1
 10
-5.487583
 20
8.694839
 30
0.0
  0
VERTEX
  8
LAYER_1
 10
-5.431591
 20
8.63872
 30
0.0
  0
VERTEX
  8
LAYER_1
 10
-5.467768
 20
8.582929
 30
0.0
  0
VERTEX
  8
LAYER_1
 10
-5.493594
 20
8.523173
 30
0.0
  0
VERTEX
  8
LAYER_1
 10
-5.509071
 20
8.46078
 30
0.0
  0
VERTEX
  8
LAYER_1
 10
-5.514197
 20
8.397075
 30
0.0
  0
VERTEX
  8
LAYER_1
 10
-5.508969
 20
8.333382
 30
0.0
  0
VERTEX
  8
LAYER_1
 10
-5.493378
 20
8.271031
 30
0.0
  0
VERTEX
  8
LAYER_1
 10
-5.467433
 20
8.211343
 30
0.0
  0
VERTEX
  8
LAYER_1
 10
-5.431122
 20
8.155646
 30
0.0
  0
VERTEX
  8
LAYER_1
 10
-5.487213
 20
8.099681
 30
0.0
  0
VERTEX
  8
LAYER_1
 10
-5.533406
 20
8.16787
 30
0.0
  0
VERTEX
  8
LAYER_1
 10
-5.566406
 20
8.24135
 30
0.0
  0
VERTEX
  8
LAYER_1
 10
-5.586217
 20
8.318362
 30
0.0
  0
VERTEX
  8
LAYER_1
 10
-5.592843
 20
8.39715
 30
0.0
  0
VERTEX
  8
LAYER_1
 10
-5.586287
 20
8.475949
 30
0.0
  0
VERTEX
  8
LAYER_1
 10
-5.566559
 20
8.553004
 30
0.0
  0
VERTEX
  8
LAYER_1
 10
-5.533654
 20
8.626551
 30
0.0
  0
SEQEND
  8
LAYER_1
  0
POLYLINE
  8
LAYER_1
 62
0
 70
1
 66
1
 10
0.0
 20
0.0
 30
0.0
  0
VERTEX
  8
LAYER_1
 10
-5.473874
 20
8.820445
 30
0.0
  0
VERTEX
  8
LAYER_1
 10
-5.529681
 20
8.876374
 30
0.0
  0
VERTEX
  8
LAYER_1
 10
-5.436382
 20
8.942559
 30
0.0
  0
VERTEX
  8
LAYER_1
 10
-5.335193
 20
8.989768
 30
0.0
  0
VERTEX
  8
LAYER_1
 10
-5.228744
 20
9.01802
 30
0.0
  0
VERTEX
  8
LAYER_1
 10
-5.119673
 20
9.027323
 30
0.0
  0
VERTEX
  8
LAYER_1
 10
-5.010622
 20
9.017685
 30
0.0
  0
VERTEX
  8
LAYER_1
 10
-4.904224
 20
8.989122
 30
0.0
  0
VERTEX
  8
LAYER_1
 10
-4.803118
 20
8.941646
 30
0.0
  0
VERTEX
  8
LAYER_1
 10
-4.709937
 20
8.875264
 30
0.0
  0
VERTEX
  8
LAYER_1
 10
-4.765862
 20
8.819457
 30
0.0
  0
VERTEX
  8
LAYER_1
 10
-4.846657
 20
8.87589
 30
0.0
  0
VERTEX
  8
LAYER_1
 10
-4.934031
 20
8.916252
 30
0.0
  0
VERTEX
  8
LAYER_1
 10
-5.025787
 20
8.940535
 30
0.0
  0
VERTEX
  8
LAYER_1
 10
-5.119744
 20
8.948732
 30
0.0
  0
VERTEX
  8
LAYER_1
 10
-5.21372
 20
8.940831
 30
0.0
  0
VERTEX
  8
LAYER_1
 10
-5.305524
 20
8.916823
 30
0.0
  0
VERTEX
  8
LAYER_1
 10
-5.392969
 20
8.876697
 30
0.0
  0
SEQEND
  8
LAYER_1
  0
POLYLINE
  8
LAYER_1
 62
0
 70
1
 66
1
 10
0.0
 20
0.0
 30
0.0
  0
VERTEX
  8
LAYER_1
 10
-4.866268
 20
8.211512
 30
0.0
  0
VERTEX
  8
LAYER_1
 10
-4.922787
 20
8.268157
 30
0.0
  0
VERTEX
  8
LAYER_1
 10
-4.906039
 20
8.298358
 30
0.0
  0
VERTEX
  8
LAYER_1
 10
-4.894028
 20
8.33015
 30
0.0
  0
VERTEX
  8
LAYER_1
 10
-4.886756
 20
8.363012
 30
0.0
  0
VERTEX
  8
LAYER_1
 10
-4.884228
 20
8.396417
 30
0.0
  0
VERTEX
  8
LAYER_1
 10
-4.886445
 20
8.429843
 30
0.0
  0
VERTEX
  8
LAYER_1
 10
-4.893413
 20
8.462764
 30
0.0
  0
VERTEX
  8
LAYER_1
 10
-4.905134
 20
8.494657
 30
0.0
  0
VERTEX
  8
LAYER_1
 10
-4.921614
 20
8.525004
 30
0.0
  0
VERTEX
  8
LAYER_1
 10
-4.864909
 20
8.581587
 30
0.0
  0
VERTEX
  8
LAYER_1
 10
-4.838783
 20
8.538453
 30
0.0
  0
VERTEX
  8
LAYER_1
 10
-4.820181
 20
8.492591
 30
0.0
  0
VERTEX
  8
LAYER_1
 10
-4.809098
 20
8.444917
 30
0.0
  0
VERTEX
  8
LAYER_1
 10
-4.805528
 20
8.39635
 30
0.0
  0
VERTEX
  8
LAYER_1
 10
-4.809465
 20
8.347807
 30
0.0
  0
VERTEX
  8
LAYER_1
 10
-4.820906
 20
8.300209
 30
0.0
  0
VERTEX
  8
LAYER_1
 10
-4.839843
 20
8.254472
 30
0.0
  0
SEQEND
  8
LAYER_1
  0
POLYLINE
  8
LAYER_1
 62
0
 70
1
 66
1
 10
0.0
 20
0.0
 30
0.0
  0
VERTEX
  8
LAYER_1
 10
-5.59913
 20
7.988008
 30
0.0
  0
VERTEX
  8
LAYER_1
 10
-5.665276
 20
8.081122
 30
0.0
  0
VERTEX
  8
LAYER_1
 10
-5.712516
 20
8.182126
 30
0.0
  0
VERTEX
  8
LAYER_1
 10
-5.74085
 20
8.288394
 30
0.0
  0
VERTEX
  8
LAYER_1
 10
-5.750295
 20
8.397295
 30
0.0
  0
VERTEX
  8
LAYER_1
 10
-5.740854
 20
8.506213
 30
0.0
  0
VERTEX
  8
LAYER_1
 10
-5.712535
 20
8.612516
 30
0.0
  0
VERTEX
  8
LAYER_1
 10
-5.665343
 20
8.713583
 30
0.0
  0
VERTEX
  8
LAYER_1
 10
-5.599283
 20
8.806783
 30
0.0
  0
VERTEX
  8
LAYER_1
 10
-5.543469
 20
8.750843
 30
0.0
  0
VERTEX
  8
LAYER_1
 10
-5.599579
 20
8.670031
 30
0.0
  0
VERTEX
  8
LAYER_1
 10
-5.639657
 20
8.582709
 30
0.0
  0
VERTEX
  8
LAYER_1
 10
-5.663701
 20
8.491047
 30
0.0
  0
VERTEX
  8
LAYER_1
 10
-5.671705
 20
8.397224
 30
0.0
  0
VERTEX
  8
LAYER_1
 10
-5.663661
 20
8.303413
 30
0.0
  0
VERTEX
  8
LAYER_1
 10
-5.639567
 20
8.211791
 30
0.0
  0
VERTEX
  8
LAYER_1
 10
-5.599417
 20
8.124531
 30
0.0
  0
VERTEX
  8
LAYER_1
 10
-5.543201
 20
8.043811
 30
0.0
  0
SEQEND
  8
LAYER_1
  0
POLYLINE
  8
LAYER_1
 62
0
 70
1
 66
1
 10
0.0
 20
0.0
 30
0.0
  0
VERTEX
  8
LAYER_1
 10
-4.712205
 20
7.917768
 30
0.0
  0
VERTEX
  8
LAYER_1
 10
-4.80526
 20
7.851992
 30
0.0
  0
VERTEX
  8
LAYER_1
 10
-4.906138
 20
7.805055
 30
0.0
  0
VERTEX
  8
LAYER_1
 10
-5.01222
 20
7.776945
 30
0.0
  0
VERTEX
  8
LAYER_1
 10
-5.120906
 20
7.76765
 30
0.0
  0
VERTEX
  8
LAYER_1
 10
-5.229587
 20
7.777161
 30
0.0
  0
VERTEX
  8
LAYER_1
 10
-5.33565
 20
7.805469
 30
0.0
  0
VERTEX
  8
LAYER_1
 10
-5.436492
 20
7.852567
 30
0.0
  0
VERTEX
  8
LAYER_1
 10
-5.5295
 20
7.918441
 30
0.0
  0
VERTEX
  8
LAYER_1
 10
-5.473559
 20
7.974264
 30
0.0
  0
VERTEX
  8
LAYER_1
 10
-5.392941
 20
7.918335
 30
0.0
  0
VERTEX
  8
LAYER_1
 10
-5.305843
 20
7.878346
 30
0.0
  0
VERTEX
  8
LAYER_1
 10
-5.214421
 20
7.854311
 30
0.0
  0
VERTEX
  8
LAYER_1
 10
-5.120835
 20
7.84624
 30
0.0
  0
VERTEX
  8
LAYER_1
 10
-5.027244
 20
7.854134
 30
0.0
  0
VERTEX
  8
LAYER_1
 10
-4.935807
 20
7.878008
 30
0.0
  0
VERTEX
  8
LAYER_1
 10
-4.848681
 20
7.917862
 30
0.0
  0
VERTEX
  8
LAYER_1
 10
-4.768024
 20
7.973709
 30
0.0
  0
SEQEND
  8
LAYER_1
  0
POLYLINE
  8
LAYER_1
 62
0
 70
0
 66
1
 10
0.0
 20
0.0
 30
0.0
  0
VERTEX
  8
LAYER_1
 10
3.965866
 20
3.123894
 30
0.0
  0
VERTEX
  8
LAYER_1
 10
3.845799
 20
3.123894
 30
0.0
  0
SEQEND
  8
LAYER_1
  0
POLYLINE
  8
LAYER_1
 62
0
 70
0
 66
1
 10
0.0
 20
0.0
 30
0.0
  0
VERTEX
  8
LAYER_1
 10
2.238862
 20
3.123894
 30
0.0
  0
VERTEX
  8
LAYER_1
 10
2.118795
 20
3.123894
 30
0.0
  0
SEQEND
  8
LAYER_1
  0
POLYLINE
  8
LAYER_1
 62
0
 70
0
 66
1
 10
0.0
 20
0.0
 30
0.0
  0
VERTEX
  8
LAYER_1
 10
-8.662843
 20
12.530894
 30
0.0
  0
VERTEX
  8
LAYER_1
 10
-8.662843
 20
-5.973039
 30
0.0
  0
SEQEND
  8
LAYER_1
  0
POLYLINE
  8
LAYER_1
 62
0
 70
0
 66
1
 10
0.0
 20
0.0
 30
0.0
  0
VERTEX
  8
LAYER_1
 10
-8.662843
 20
12.530894
 30
0.0
  0
VERTEX
  8
LAYER_1
 10
-8.659913
 20
12.589295
 30
0.0
  0
VERTEX
  8
LAYER_1
 10
-8.651307
 20
12.646709
 30
0.0
  0
VERTEX
  8
LAYER_1
 10
-8.637189
 20
12.702736
 30
0.0
  0
VERTEX
  8
LAYER_1
 10
-8.617717
 20
12.757
 30
0.0
  0
VERTEX
  8
LAYER_1
 10
-8.593051
 20
12.809106
 30
0.0
  0
VERTEX
  8
LAYER_1
 10
-8.56335
 20
12.858673
 30
0.0
  0
VERTEX
  8
LAYER_1
 10
-8.528783
 20
12.905311
 30
0.0
  0
VERTEX
  8
LAYER_1
 10
-8.4895
 20
12.94863
 30
0.0
  0
VERTEX
  8
LAYER_1
 10
-8.446165
 20
12.987858
 30
0.0
  0
VERTEX
  8
LAYER_1
 10
-8.399567
 20
13.022366
 30
0.0
  0
VERTEX
  8
LAYER_1
 10
-8.350083
 20
13.052004
 30
0.0
  0
VERTEX
  8
LAYER_1
 10
-8.298083
 20
13.076606
 30
0.0
  0
VERTEX
  8
LAYER_1
 10
-8.243933
 20
13.096008
 30
0.0
  0
VERTEX
  8
LAYER_1
 10
-8.188004
 20
13.110059
 30
0.0
  0
VERTEX
  8
LAYER_1
 10
-8.130665
 20
13.118591
 30
0.0
  0
VERTEX
  8
LAYER_1
 10
-8.072291
 20
13.121445
 30
0.0
  0
VERTEX
  8
LAYER_1
 10
4.919835
 20
13.121445
 30
0.0
  0
VERTEX
  8
LAYER_1
 10
4.978236
 20
13.118516
 30
0.0
  0
VERTEX
  8
LAYER_1
 10
5.03565
 20
13.109909
 30
0.0
  0
VERTEX
  8
LAYER_1
 10
5.091677
 20
13.095791
 30
0.0
  0
VERTEX
  8
LAYER_1
 10
5.145941
 20
13.076319
 30
0.0
  0
VERTEX
  8
LAYER_1
 10
5.198047
 20
13.051654
 30
0.0
  0
VERTEX
  8
LAYER_1
 10
5.247614
 20
13.021953
 30
0.0
  0
VERTEX
  8
LAYER_1
 10
5.294252
 20
12.987386
 30
0.0
  0
VERTEX
  8
LAYER_1
 10
5.337571
 20
12.948102
 30
0.0
  0
VERTEX
  8
LAYER_1
 10
5.376799
 20
12.904768
 30
0.0
  0
VERTEX
  8
LAYER_1
 10
5.411307
 20
12.858169
 30
0.0
  0
VERTEX
  8
LAYER_1
 10
5.440945
 20
12.808685
 30
0.0
  0
VERTEX
  8
LAYER_1
 10
5.465547
 20
12.756685
 30
0.0
  0
VERTEX
  8
LAYER_1
 10
5.484949
 20
12.702535
 30
0.0
  0
VERTEX
  8
LAYER_1
 10
5.499
 20
12.646606
 30
0.0
  0
VERTEX
  8
LAYER_1
 10
5.507531
 20
12.589268
 30
0.0
  0
VERTEX
  8
LAYER_1
 10
5.510386
 20
12.530894
 30
0.0
  0
VERTEX
  8
LAYER_1
 10
5.510386
 20
-5.973039
 30
0.0
  0
VERTEX
  8
LAYER_1
 10
5.507457
 20
-6.031445
 30
0.0
  0
VERTEX
  8
LAYER_1
 10
5.49885
 20
-6.088854
 30
0.0
  0
VERTEX
  8
LAYER_1
 10
5.484732
 20
-6.144886
 30
0.0
  0
VERTEX
  8
LAYER_1
 10
5.46526
 20
-6.19915
 30
0.0
  0
VERTEX
  8
LAYER_1
 10
5.440594
 20
-6.251256
 30
0.0
  0
VERTEX
  8
LAYER_1
 10
5.410894
 20
-6.300823
 30
0.0
  0
VERTEX
  8
LAYER_1
 10
5.376327
 20
-6.347461
 30
0.0
  0
VERTEX
  8
LAYER_1
 10
5.337043
 20
-6.39078
 30
0.0
  0
VERTEX
  8
LAYER_1
 10
5.293709
 20
-6.430008
 30
0.0
  0
VERTEX
  8
LAYER_1
 10
5.24711
 20
-6.464516
 30
0.0
  0
VERTEX
  8
LAYER_1
 10
5.197626
 20
-6.494154
 30
0.0
  0
VERTEX
  8
LAYER_1
 10
5.145626
 20
-6.518756
 30
0.0
  0
VERTEX
  8
LAYER_1
 10
5.091476
 20
-6.538157
 30
0.0
  0
VERTEX
  8
LAYER_1
 10
5.035547
 20
-6.552205
 30
0.0
  0
VERTEX
  8
LAYER_1
 10
4.978209
 20
-6.560736
 30
0.0
  0
VERTEX
  8
LAYER_1
 10
4.919835
 20
-6.563591
 30
0.0
  0
VERTEX
  8
LAYER_1
 10
-8.072291
 20
-6.563591
 30
0.0
  0
VERTEX
  8
LAYER_1
 10
-8.130693
 20
-6.560661
 30
0.0
  0
VERTEX
  8
LAYER_1
 10
-8.188106
 20
-6.552059
 30
0.0
  0
VERTEX
  8
LAYER_1
 10
-8.244134
 20
-6.537941
 30
0.0
  0
VERTEX
  8
LAYER_1
 10
-8.298398
 20
-6.518469
 30
0.0
  0
VERTEX
  8
LAYER_1
 10
-8.350504
 20
-6.493803
 30
0.0
  0
VERTEX
  8
LAYER_1
 10
-8.400071
 20
-6.464102
 30
0.0
  0
VERTEX
  8
LAYER_1
 10
-8.446709
 20
-6.429535
 30
0.0
  0
VERTEX
  8
LAYER_1
 10
-8.490028
 20
-6.390252
 30
0.0
  0
VERTEX
  8
LAYER_1
 10
-8.529256
 20
-6.346917
 30
0.0
  0
VERTEX
  8
LAYER_1
 10
-8.563764
 20
-6.300319
 30
0.0
  0
VERTEX
  8
LAYER_1
 10
-8.593402
 20
-6.250835
 30
0.0
  0
VERTEX
  8
LAYER_1
 10
-8.618004
 20
-6.198835
 30
0.0
  0
VERTEX
  8
LAYER_1
 10
-8.637406
 20
-6.144681
 30
0.0
  0
VERTEX
  8
LAYER_1
 10
-8.651457
 20
-6.088752
 30
0.0
  0
VERTEX
  8
LAYER_1
 10
-8.659988
 20
-6.031413
 30
0.0
  0
VERTEX
  8
LAYER_1
 10
-8.662843
 20
-5.973039
 30
0.0
  0
SEQEND
  8
LAYER_1
  0
POLYLINE
  8
LAYER_1
 62
0
 70
0
 66
1
 10
0.0
 20
0.0
 30
0.0
  0
VERTEX
  8
LAYER_1
 10
2.42387
 20
3.273358
 30
0.0
  0
VERTEX
  8
LAYER_1
 10
3.660791
 20
3.273358
 30
0.0
  0
SEQEND
  8
LAYER_1
  0
POLYLINE
  8
LAYER_1
 62
0
 70
0
 66
1
 10
0.0
 20
0.0
 30
0.0
  0
VERTEX
  8
LAYER_1
 10
2.130835
 20
2.631772
 30
0.0
  0
VERTEX
  8
LAYER_1
 10
2.252728
 20
2.631772
 30
0.0
  0
SEQEND
  8
LAYER_1
  0
POLYLINE
  8
LAYER_1
 62
0
 70
0
 66
1
 10
0.0
 20
0.0
 30
0.0
  0
VERTEX
  8
LAYER_1
 10
3.831933
 20
2.631772
 30
0.0
  0
VERTEX
  8
LAYER_1
 10
3.953827
 20
2.631772
 30
0.0
  0
SEQEND
  8
LAYER_1
  0
POLYLINE
  8
LAYER_1
 62
0
 70
0
 66
1
 10
0.0
 20
0.0
 30
0.0
  0
VERTEX
  8
LAYER_1
 10
-6.870925
 20
3.337559
 30
0.0
  0
VERTEX
  8
LAYER_1
 10
-6.871142
 20
3.33139
 30
0.0
  0
VERTEX
  8
LAYER_1
 10
-6.87072
 20
3.32528
 30
0.0
  0
VERTEX
  8
LAYER_1
 10
-6.869673
 20
3.319276
 30
0.0
  0
VERTEX
  8
LAYER_1
 10
-6.868016
 20
3.313429
 30
0.0
  0
VERTEX
  8
LAYER_1
 10
-6.865772
 20
3.307783
 30
0.0
  0
VERTEX
  8
LAYER_1
 10
-6.862945
 20
3.302382
 30
0.0
  0
VERTEX
  8
LAYER_1
 10
-6.859563
 20
3.29728
 30
0.0
  0
VERTEX
  8
LAYER_1
 10
-6.855634
 20
3.292516
 30
0.0
  0
VERTEX
  8
LAYER_1
 10
-6.851232
 20
3.288189
 30
0.0
  0
VERTEX
  8
LAYER_1
 10
-6.846441
 20
3.28437
 30
0.0
  0
VERTEX
  8
LAYER_1
 10
-6.841307
 20
3.281091
 30
0.0
  0
VERTEX
  8
LAYER_1
 10
-6.835878
 20
3.278358
 30
0.0
  0
VERTEX
  8
LAYER_1
 10
-6.830197
 20
3.276201
 30
0.0
  0
VERTEX
  8
LAYER_1
 10
-6.824311
 20
3.274634
 30
0.0
  0
VERTEX
  8
LAYER_1
 10
-6.81826
 20
3.273681
 30
0.0
  0
VERTEX
  8
LAYER_1
 10
-6.812094
 20
3.273358
 30
0.0
  0
SEQEND
  8
LAYER_1
  0
POLYLINE
  8
LAYER_1
 62
0
 70
0
 66
1
 10
0.0
 20
0.0
 30
0.0
  0
VERTEX
  8
LAYER_1
 10
-5.224681
 20
2.677177
 30
0.0
  0
VERTEX
  8
LAYER_1
 10
-5.214319
 20
2.72626
 30
0.0
  0
VERTEX
  8
LAYER_1
 10
-5.206453
 20
2.775709
 30
0.0
  0
VERTEX
  8
LAYER_1
 10
-5.201091
 20
2.825429
 30
0.0
  0
VERTEX
  8
LAYER_1
 10
-5.198228
 20
2.875323
 30
0.0
  0
VERTEX
  8
LAYER_1
 10
-5.197874
 20
2.925295
 30
0.0
  0
VERTEX
  8
LAYER_1
 10
-5.200031
 20
2.97526
 30
0.0
  0
VERTEX
  8
LAYER_1
 10
-5.204697
 20
3.02511
 30
0.0
  0
VERTEX
  8
LAYER_1
 10
-5.211882
 20
3.07476
 30
0.0
  0
SEQEND
  8
LAYER_1
  0
POLYLINE
  8
LAYER_1
 62
0
 70
1
 66
1
 10
0.0
 20
0.0
 30
0.0
  0
VERTEX
  8
LAYER_1
 10
-5.681933
 20
9.538768
 30
0.0
  0
VERTEX
  8
LAYER_1
 10
-5.683335
 20
9.552654
 30
0.0
  0
VERTEX
  8
LAYER_1
 10
-5.687346
 20
9.565587
 30
0.0
  0
VERTEX
  8
LAYER_1
 10
-5.693701
 20
9.577287
 30
0.0
  0
VERTEX
  8
LAYER_1
 10
-5.702114
 20
9.587484
 30
0.0
  0
VERTEX
  8
LAYER_1
 10
-5.712307
 20
9.595898
 30
0.0
  0
VERTEX
  8
LAYER_1
 10
-5.724012
 20
9.602252
 30
0.0
  0
VERTEX
  8
LAYER_1
 10
-5.736941
 20
9.606264
 30
0.0
  0
VERTEX
  8
LAYER_1
 10
-5.750827
 20
9.607665
 30
0.0
  0
VERTEX
  8
LAYER_1
 10
-5.764713
 20
9.606268
 30
0.0
  0
VERTEX
  8
LAYER_1
 10
-5.777646
 20
9.602252
 30
0.0
  0
VERTEX
  8
LAYER_1
 10
-5.789346
 20
9.595902
 30
0.0
  0
VERTEX
  8
LAYER_1
 10
-5.799543
 20
9.587488
 30
0.0
  0
VERTEX
  8
LAYER_1
 10
-5.807957
 20
9.577291
 30
0.0
  0
VERTEX
  8
LAYER_1
 10
-5.814311
 20
9.565591
 30
0.0
  0
VERTEX
  8
LAYER_1
 10
-5.818323
 20
9.552657
 30
0.0
  0
VERTEX
  8
LAYER_1
 10
-5.819724
 20
9.538772
 30
0.0
  0
VERTEX
  8
LAYER_1
 10
-5.818327
 20
9.524886
 30
0.0
  0
VERTEX
  8
LAYER_1
 10
-5.814311
 20
9.511953
 30
0.0
  0
VERTEX
  8
LAYER_1
 10
-5.807961
 20
9.500252
 30
0.0
  0
VERTEX
  8
LAYER_1
 10
-5.799547
 20
9.490055
 30
0.0
  0
VERTEX
  8
LAYER_1
 10
-5.78935
 20
9.481642
 30
0.0
  0
VERTEX
  8
LAYER_1
 10
-5.77765
 20
9.475287
 30
0.0
  0
VERTEX
  8
LAYER_1
 10
-5.764717
 20
9.471276
 30
0.0
  0
VERTEX
  8
LAYER_1
 10
-5.750831
 20
9.469874
 30
0.0
  0
VERTEX
  8
LAYER_1
 10
-5.736945
 20
9.471272
 30
0.0
  0
VERTEX
  8
LAYER_1
 10
-5.724012
 20
9.475287
 30
0.0
  0
VERTEX
  8
LAYER_1
 10
-5.712311
 20
9.481638
 30
0.0
  0
VERTEX
  8
LAYER_1
 10
-5.702114
 20
9.490051
 30
0.0
  0
VERTEX
  8
LAYER_1
 10
-5.693701
 20
9.500248
 30
0.0
  0
VERTEX
  8
LAYER_1
 10
-5.687346
 20
9.511949
 30
0.0
  0
VERTEX
  8
LAYER_1
 10
-5.683335
 20
9.524882
 30
0.0
  0
SEQEND
  8
LAYER_1
  0
POLYLINE
  8
LAYER_1
 62
0
 70
1
 66
1
 10
0.0
 20
0.0
 30
0.0
  0
VERTEX
  8
LAYER_1
 10
-7.94435
 20
12.334039
 30
0.0
  0
VERTEX
  8
LAYER_1
 10
-7.942949
 20
12.347925
 30
0.0
  0
VERTEX
  8
LAYER_1
 10
-7.938937
 20
12.360858
 30
0.0
  0
VERTEX
  8
LAYER_1
 10
-7.932583
 20
12.372559
 30
0.0
  0
VERTEX
  8
LAYER_1
 10
-7.924169
 20
12.382756
 30
0.0
  0
VERTEX
  8
LAYER_1
 10
-7.913972
 20
12.391169
 30
0.0
  0
VERTEX
  8
LAYER_1
 10
-7.902272
 20
12.397524
 30
0.0
  0
VERTEX
  8
LAYER_1
 10
-7.889339
 20
12.401535
 30
0.0
  0
VERTEX
  8
LAYER_1
 10
-7.875453
 20
12.402937
 30
0.0
  0
VERTEX
  8
LAYER_1
 10
-7.861567
 20
12.401539
 30
0.0
  0
VERTEX
  8
LAYER_1
 10
-7.848634
 20
12.397524
 30
0.0
  0
VERTEX
  8
LAYER_1
 10
-7.836933
 20
12.391173
 30
0.0
  0
VERTEX
  8
LAYER_1
 10
-7.826736
 20
12.38276
 30
0.0
  0
VERTEX
  8
LAYER_1
 10
-7.818323
 20
12.372563
 30
0.0
  0
VERTEX
  8
LAYER_1
 10
-7.811969
 20
12.360862
 30
0.0
  0
VERTEX
  8
LAYER_1
 10
-7.807957
 20
12.347929
 30
0.0
  0
VERTEX
  8
LAYER_1
 10
-7.806555
 20
12.334043
 30
0.0
  0
VERTEX
  8
LAYER_1
 10
-7.807957
 20
12.320157
 30
0.0
  0
VERTEX
  8
LAYER_1
 10
-7.811969
 20
12.307224
 30
0.0
  0
VERTEX
  8
LAYER_1
 10
-7.818323
 20
12.295524
 30
0.0
  0
VERTEX
  8
LAYER_1
 10
-7.826736
 20
12.285327
 30
0.0
  0
VERTEX
  8
LAYER_1
 10
-7.836933
 20
12.276909
 30
0.0
  0
VERTEX
  8
LAYER_1
 10
-7.848634
 20
12.270559
 30
0.0
  0
VERTEX
  8
LAYER_1
 10
-7.861567
 20
12.266543
 30
0.0
  0
VERTEX
  8
LAYER_1
 10
-7.875453
 20
12.265142
 30
0.0
  0
VERTEX
  8
LAYER_1
 10
-7.889339
 20
12.266543
 30
0.0
  0
VERTEX
  8
LAYER_1
 10
-7.902272
 20
12.270555
 30
0.0
  0
VERTEX
  8
LAYER_1
 10
-7.913972
 20
12.276909
 30
0.0
  0
VERTEX
  8
LAYER_1
 10
-7.924169
 20
12.285323
 30
0.0
  0
VERTEX
  8
LAYER_1
 10
-7.932583
 20
12.29552
 30
0.0
  0
VERTEX
  8
LAYER_1
 10
-7.938937
 20
12.30722
 30
0.0
  0
VERTEX
  8
LAYER_1
 10
-7.942949
 20
12.320154
 30
0.0
  0
SEQEND
  8
LAYER_1
  0
POLYLINE
  8
LAYER_1
 62
0
 70
1
 66
1
 10
0.0
 20
0.0
 30
0.0
  0
VERTEX
  8
LAYER_1
 10
4.654083
 20
12.334043
 30
0.0
  0
VERTEX
  8
LAYER_1
 10
4.655484
 20
12.347929
 30
0.0
  0
VERTEX
  8
LAYER_1
 10
4.659496
 20
12.360858
 30
0.0
  0
VERTEX
  8
LAYER_1
 10
4.66585
 20
12.372563
 30
0.0
  0
VERTEX
  8
LAYER_1
 10
4.674264
 20
12.38276
 30
0.0
  0
VERTEX
  8
LAYER_1
 10
4.684461
 20
12.391169
 30
0.0
  0
VERTEX
  8
LAYER_1
 10
4.696165
 20
12.397524
 30
0.0
  0
VERTEX
  8
LAYER_1
 10
4.709094
 20
12.401535
 30
0.0
  0
VERTEX
  8
LAYER_1
 10
4.72298
 20
12.402937
 30
0.0
  0
VERTEX
  8
LAYER_1
 10
4.736866
 20
12.401539
 30
0.0
  0
VERTEX
  8
LAYER_1
 10
4.749799
 20
12.397524
 30
0.0
  0
VERTEX
  8
LAYER_1
 10
4.7615
 20
12.391173
 30
0.0
  0
VERTEX
  8
LAYER_1
 10
4.771697
 20
12.38276
 30
0.0
  0
VERTEX
  8
LAYER_1
 10
4.78011
 20
12.372563
 30
0.0
  0
VERTEX
  8
LAYER_1
 10
4.786465
 20
12.360862
 30
0.0
  0
VERTEX
  8
LAYER_1
 10
4.790476
 20
12.347929
 30
0.0
  0
VERTEX
  8
LAYER_1
 10
4.791878
 20
12.334043
 30
0.0
  0
VERTEX
  8
LAYER_1
 10
4.79048
 20
12.320157
 30
0.0
  0
VERTEX
  8
LAYER_1
 10
4.786465
 20
12.307224
 30
0.0
  0
VERTEX
  8
LAYER_1
 10
4.780114
 20
12.295524
 30
0.0
  0
VERTEX
  8
LAYER_1
 10
4.771701
 20
12.285327
 30
0.0
  0
VERTEX
  8
LAYER_1
 10
4.761504
 20
12.276913
 30
0.0
  0
VERTEX
  8
LAYER_1
 10
4.749803
 20
12.270559
 30
0.0
  0
VERTEX
  8
LAYER_1
 10
4.73687
 20
12.266547
 30
0.0
  0
VERTEX
  8
LAYER_1
 10
4.722984
 20
12.265146
 30
0.0
  0
VERTEX
  8
LAYER_1
 10
4.709098
 20
12.266543
 30
0.0
  0
VERTEX
  8
LAYER_1
 10
4.696165
 20
12.270559
 30
0.0
  0
VERTEX
  8
LAYER_1
 10
4.684465
 20
12.276909
 30
0.0
  0
VERTEX
  8
LAYER_1
 10
4.674268
 20
12.285323
 30
0.0
  0
VERTEX
  8
LAYER_1
 10
4.665854
 20
12.29552
 30
0.0
  0
VERTEX
  8
LAYER_1
 10
4.6595
 20
12.30722
 30
0.0
  0
VERTEX
  8
LAYER_1
 10
4.655488
 20
12.320154
 30
0.0
  0
VERTEX
  8
LAYER_1
 10
4.654087
 20
12.334039
 30
0.0
  0
SEQEND
  8
LAYER_1
  0
POLYLINE
  8
LAYER_1
 62
0
 70
0
 66
1
 10
0.0
 20
0.0
 30
0.0
  0
VERTEX
  8
LAYER_1
 10
-6.826465
 20
3.650701
 30
0.0
  0
VERTEX
  8
LAYER_1
 10
-6.830685
 20
3.646736
 30
0.0
  0
VERTEX
  8
LAYER_1
 10
-6.834469
 20
3.642409
 30
0.0
  0
VERTEX
  8
LAYER_1
 10
-6.837803
 20
3.637756
 30
0.0
  0
VERTEX
  8
LAYER_1
 10
-6.840661
 20
3.632815
 30
0.0
  0
VERTEX
  8
LAYER_1
 10
-6.843031
 20
3.627622
 30
0.0
  0
VERTEX
  8
LAYER_1
 10
-6.844894
 20
3.622209
 30
0.0
  0
VERTEX
  8
LAYER_1
 10
-6.846224
 20
3.616618
 30
0.0
  0
VERTEX
  8
LAYER_1
 10
-6.847012
 20
3.610882
 30
0.0
  0
SEQEND
  8
LAYER_1
  0
POLYLINE
  8
LAYER_1
 62
0
 70
0
 66
1
 10
0.0
 20
0.0
 30
0.0
  0
VERTEX
  8
LAYER_1
 10
-5.211886
 20
3.074764
 30
0.0
  0
VERTEX
  8
LAYER_1
 10
-5.214594
 20
3.08502
 30
0.0
  0
VERTEX
  8
LAYER_1
 10
-5.218976
 20
3.094409
 30
0.0
  0
VERTEX
  8
LAYER_1
 10
-5.224843
 20
3.102776
 30
0.0
  0
VERTEX
  8
LAYER_1
 10
-5.232012
 20
3.109969
 30
0.0
  0
VERTEX
  8
LAYER_1
 10
-5.240307
 20
3.115827
 30
0.0
  0
VERTEX
  8
LAYER_1
 10
-5.249539
 20
3.120205
 30
0.0
  0
VERTEX
  8
LAYER_1
 10
-5.259531
 20
3.122941
 30
0.0
  0
VERTEX
  8
LAYER_1
 10
-5.270098
 20
3.12389
 30
0.0
  0
SEQEND
  8
LAYER_1
  0
POLYLINE
  8
LAYER_1
 62
0
 70
0
 66
1
 10
0.0
 20
0.0
 30
0.0
  0
VERTEX
  8
LAYER_1
 10
-5.460984
 20
2.706445
 30
0.0
  0
VERTEX
  8
LAYER_1
 10
-5.462409
 20
2.699736
 30
0.0
  0
VERTEX
  8
LAYER_1
 10
-5.463047
 20
2.692972
 30
0.0
  0
VERTEX
  8
LAYER_1
 10
-5.462906
 20
2.686224
 30
0.0
  0
VERTEX
  8
LAYER_1
 10
-5.462
 20
2.679559
 30
0.0
  0
VERTEX
  8
LAYER_1
 10
-5.460343
 20
2.673035
 30
0.0
  0
VERTEX
  8
LAYER_1
 10
-5.457949
 20
2.666728
 30
0.0
  0
VERTEX
  8
LAYER_1
 10
-5.454823
 20
2.660697
 30
0.0
  0
VERTEX
  8
LAYER_1
 10
-5.450988
 20
2.655012
 30
0.0
  0
VERTEX
  8
LAYER_1
 10
-5.44652
 20
2.649807
 30
0.0
  0
VERTEX
  8
LAYER_1
 10
-5.441531
 20
2.645201
 30
0.0
  0
VERTEX
  8
LAYER_1
 10
-5.436079
 20
2.64122
 30
0.0
  0
VERTEX
  8
LAYER_1
 10
-5.430228
 20
2.637902
 30
0.0
  0
VERTEX
  8
LAYER_1
 10
-5.424039
 20
2.635264
 30
0.0
  0
VERTEX
  8
LAYER_1
 10
-5.417571
 20
2.633343
 30
0.0
  0
VERTEX
  8
LAYER_1
 10
-5.410882
 20
2.632169
 30
0.0
  0
VERTEX
  8
LAYER_1
 10
-5.404031
 20
2.631772
 30
0.0
  0
SEQEND
  8
LAYER_1
  0
POLYLINE
  8
LAYER_1
 62
0
 70
0
 66
1
 10
0.0
 20
0.0
 30
0.0
  0
VERTEX
  8
LAYER_1
 10
-5.540256
 20
3.610882
 30
0.0
  0
VERTEX
  8
LAYER_1
 10
-5.541043
 20
3.616618
 30
0.0
  0
VERTEX
  8
LAYER_1
 10
-5.542374
 20
3.622209
 30
0.0
  0
VERTEX
  8
LAYER_1
 10
-5.544236
 20
3.627622
 30
0.0
  0
VERTEX
  8
LAYER_1
 10
-5.546606
 20
3.632815
 30
0.0
  0
VERTEX
  8
LAYER_1
 10
-5.549465
 20
3.637756
 30
0.0
  0
VERTEX
  8
LAYER_1
 10
-5.552799
 20
3.642409
 30
0.0
  0
VERTEX
  8
LAYER_1
 10
-5.556583
 20
3.646736
 30
0.0
  0
VERTEX
  8
LAYER_1
 10
-5.560803
 20
3.650701
 30
0.0
  0
SEQEND
  8
LAYER_1
  0
POLYLINE
  8
LAYER_1
 62
0
 70
0
 66
1
 10
0.0
 20
0.0
 30
0.0
  0
VERTEX
  8
LAYER_1
 10
-5.460984
 20
2.706445
 30
0.0
  0
VERTEX
  8
LAYER_1
 10
-5.450598
 20
2.749114
 30
0.0
  0
VERTEX
  8
LAYER_1
 10
-5.442713
 20
2.792205
 30
0.0
  0
VERTEX
  8
LAYER_1
 10
-5.437331
 20
2.83561
 30
0.0
  0
VERTEX
  8
LAYER_1
 10
-5.434457
 20
2.879213
 30
0.0
  0
VERTEX
  8
LAYER_1
 10
-5.434094
 20
2.922909
 30
0.0
  0
VERTEX
  8
LAYER_1
 10
-5.436248
 20
2.966594
 30
0.0
  0
VERTEX
  8
LAYER_1
 10
-5.440921
 20
3.01015
 30
0.0
  0
VERTEX
  8
LAYER_1
 10
-5.448118
 20
3.053472
 30
0.0
  0
SEQEND
  8
LAYER_1
  0
POLYLINE
  8
LAYER_1
 62
0
 70
0
 66
1
 10
0.0
 20
0.0
 30
0.0
  0
VERTEX
  8
LAYER_1
 10
-5.282138
 20
2.631772
 30
0.0
  0
VERTEX
  8
LAYER_1
 10
-5.272075
 20
2.63263
 30
0.0
  0
VERTEX
  8
LAYER_1
 10
-5.262508
 20
2.635122
 30
0.0
  0
VERTEX
  8
LAYER_1
 10
-5.253602
 20
2.639118
 30
0.0
  0
VERTEX
  8
LAYER_1
 10
-5.24552
 20
2.644492
 30
0.0
  0
VERTEX
  8
LAYER_1
 10
-5.238425
 20
2.651114
 30
0.0
  0
VERTEX
  8
LAYER_1
 10
-5.23248
 20
2.658854
 30
0.0
  0
VERTEX
  8
LAYER_1
 10
-5.227843
 20
2.667583
 30
0.0
  0
VERTEX
  8
LAYER_1
 10
-5.224681
 20
2.677177
 30
0.0
  0
SEQEND
  8
LAYER_1
  0
POLYLINE
  8
LAYER_1
 62
0
 70
0
 66
1
 10
0.0
 20
0.0
 30
0.0
  0
VERTEX
  8
LAYER_1
 10
-6.93915
 20
3.053476
 30
0.0
  0
VERTEX
  8
LAYER_1
 10
-6.946346
 20
3.010154
 30
0.0
  0
VERTEX
  8
LAYER_1
 10
-6.95102
 20
2.966598
 30
0.0
  0
VERTEX
  8
LAYER_1
 10
-6.953173
 20
2.922913
 30
0.0
  0
VERTEX
  8
LAYER_1
 10
-6.952811
 20
2.879217
 30
0.0
  0
VERTEX
  8
LAYER_1
 10
-6.949937
 20
2.83561
 30
0.0
  0
VERTEX
  8
LAYER_1
 10
-6.944555
 20
2.792209
 30
0.0
  0
VERTEX
  8
LAYER_1
 10
-6.936669
 20
2.749118
 30
0.0
  0
VERTEX
  8
LAYER_1
 10
-6.926283
 20
2.706445
 30
0.0
  0
SEQEND
  8
LAYER_1
  0
POLYLINE
  8
LAYER_1
 62
0
 70
0
 66
1
 10
0.0
 20
0.0
 30
0.0
  0
VERTEX
  8
LAYER_1
 10
-5.560803
 20
3.650701
 30
0.0
  0
VERTEX
  8
LAYER_1
 10
-5.704949
 20
3.752591
 30
0.0
  0
VERTEX
  8
LAYER_1
 10
-5.86115
 20
3.82537
 30
0.0
  0
VERTEX
  8
LAYER_1
 10
-6.025382
 20
3.869039
 30
0.0
  0
VERTEX
  8
LAYER_1
 10
-6.193634
 20
3.883594
 30
0.0
  0
VERTEX
  8
LAYER_1
 10
-6.361886
 20
3.869039
 30
0.0
  0
VERTEX
  8
LAYER_1
 10
-6.526118
 20
3.82537
 30
0.0
  0
VERTEX
  8
LAYER_1
 10
-6.682319
 20
3.752591
 30
0.0
  0
VERTEX
  8
LAYER_1
 10
-6.826465
 20
3.650701
 30
0.0
  0
SEQEND
  8
LAYER_1
  0
POLYLINE
  8
LAYER_1
 62
0
 70
0
 66
1
 10
0.0
 20
0.0
 30
0.0
  0
VERTEX
  8
LAYER_1
 10
-5.575173
 20
3.273358
 30
0.0
  0
VERTEX
  8
LAYER_1
 10
-5.569008
 20
3.273681
 30
0.0
  0
VERTEX
  8
LAYER_1
 10
-5.562957
 20
3.274634
 30
0.0
  0
VERTEX
  8
LAYER_1
 10
-5.557071
 20
3.276201
 30
0.0
  0
VERTEX
  8
LAYER_1
 10
-5.55139
 20
3.278358
 30
0.0
  0
VERTEX
  8
LAYER_1
 10
-5.545961
 20
3.281091
 30
0.0
  0
VERTEX
  8
LAYER_1
 10
-5.540827
 20
3.28437
 30
0.0
  0
VERTEX
  8
LAYER_1
 10
-5.536035
 20
3.288189
 30
0.0
  0
VERTEX
  8
LAYER_1
 10
-5.531634
 20
3.292516
 30
0.0
  0
VERTEX
  8
LAYER_1
 10
-5.527705
 20
3.29728
 30
0.0
  0
VERTEX
  8
LAYER_1
 10
-5.524323
 20
3.302382
 30
0.0
  0
VERTEX
  8
LAYER_1
 10
-5.521496
 20
3.307783
 30
0.0
  0
VERTEX
  8
LAYER_1
 10
-5.519252
 20
3.313429
 30
0.0
  0
VERTEX
  8
LAYER_1
 10
-5.517594
 20
3.319276
 30
0.0
  0
VERTEX
  8
LAYER_1
 10
-5.516547
 20
3.32528
 30
0.0
  0
VERTEX
  8
LAYER_1
 10
-5.516126
 20
3.33139
 30
0.0
  0
VERTEX
  8
LAYER_1
 10
-5.516343
 20
3.337559
 30
0.0
  0
SEQEND
  8
LAYER_1
  0
POLYLINE
  8
LAYER_1
 62
0
 70
0
 66
1
 10
0.0
 20
0.0
 30
0.0
  0
VERTEX
  8
LAYER_1
 10
-5.390165
 20
3.12389
 30
0.0
  0
VERTEX
  8
LAYER_1
 10
-5.396732
 20
3.123524
 30
0.0
  0
VERTEX
  8
LAYER_1
 10
-5.403161
 20
3.122445
 30
0.0
  0
VERTEX
  8
LAYER_1
 10
-5.409394
 20
3.120673
 30
0.0
  0
VERTEX
  8
LAYER_1
 10
-5.415378
 20
3.11824
 30
0.0
  0
VERTEX
  8
LAYER_1
 10
-5.421063
 20
3.115165
 30
0.0
  0
VERTEX
  8
LAYER_1
 10
-5.42639
 20
3.11148
 30
0.0
  0
VERTEX
  8
LAYER_1
 10
-5.431307
 20
3.107205
 30
0.0
  0
VERTEX
  8
LAYER_1
 10
-5.435764
 20
3.102366
 30
0.0
  0
VERTEX
  8
LAYER_1
 10
-5.439654
 20
3.097063
 30
0.0
  0
VERTEX
  8
LAYER_1
 10
-5.442906
 20
3.091413
 30
0.0
  0
VERTEX
  8
LAYER_1
 10
-5.4455
 20
3.085476
 30
0.0
  0
VERTEX
  8
LAYER_1
 10
-5.447421
 20
3.079307
 30
0.0
  0
VERTEX
  8
LAYER_1
 10
-5.448661
 20
3.072965
 30
0.0
  0
VERTEX
  8
LAYER_1
 10
-5.449201
 20
3.066508
 30
0.0
  0
VERTEX
  8
LAYER_1
 10
-5.449024
 20
3.059992
 30
0.0
  0
VERTEX
  8
LAYER_1
 10
-5.448118
 20
3.053476
 30
0.0
  0
SEQEND
  8
LAYER_1
  0
POLYLINE
  8
LAYER_1
 62
0
 70
0
 66
1
 10
0.0
 20
0.0
 30
0.0
  0
VERTEX
  8
LAYER_1
 10
-6.93915
 20
3.053476
 30
0.0
  0
VERTEX
  8
LAYER_1
 10
-6.938244
 20
3.059992
 30
0.0
  0
VERTEX
  8
LAYER_1
 10
-6.938067
 20
3.066508
 30
0.0
  0
VERTEX
  8
LAYER_1
 10
-6.938606
 20
3.072965
 30
0.0
  0
VERTEX
  8
LAYER_1
 10
-6.939846
 20
3.079307
 30
0.0
  0
VERTEX
  8
LAYER_1
 10
-6.941768
 20
3.085476
 30
0.0
  0
VERTEX
  8
LAYER_1
 10
-6.944362
 20
3.091413
 30
0.0
  0
VERTEX
  8
LAYER_1
 10
-6.947614
 20
3.097063
 30
0.0
  0
VERTEX
  8
LAYER_1
 10
-6.951504
 20
3.102366
 30
0.0
  0
VERTEX
  8
LAYER_1
 10
-6.955961
 20
3.107205
 30
0.0
  0
VERTEX
  8
LAYER_1
 10
-6.960878
 20
3.11148
 30
0.0
  0
VERTEX
  8
LAYER_1
 10
-6.966205
 20
3.115165
 30
0.0
  0
VERTEX
  8
LAYER_1
 10
-6.97189
 20
3.11824
 30
0.0
  0
VERTEX
  8
LAYER_1
 10
-6.977874
 20
3.120673
 30
0.0
  0
VERTEX
  8
LAYER_1
 10
-6.984106
 20
3.122445
 30
0.0
  0
VERTEX
  8
LAYER_1
 10
-6.990535
 20
3.123524
 30
0.0
  0
VERTEX
  8
LAYER_1
 10
-6.997102
 20
3.12389
 30
0.0
  0
SEQEND
  8
LAYER_1
  0
POLYLINE
  8
LAYER_1
 62
0
 70
1
 66
1
 10
0.0
 20
0.0
 30
0.0
  0
VERTEX
  8
LAYER_1
 10
-5.818354
 20
10.79861
 30
0.0
  0
VERTEX
  8
LAYER_1
 10
-5.816953
 20
10.812496
 30
0.0
  0
VERTEX
  8
LAYER_1
 10
-5.812941
 20
10.825425
 30
0.0
  0
VERTEX
  8
LAYER_1
 10
-5.806587
 20
10.83713
 30
0.0
  0
VERTEX
  8
LAYER_1
 10
-5.798173
 20
10.847327
 30
0.0
  0
VERTEX
  8
LAYER_1
 10
-5.787976
 20
10.855736
 30
0.0
  0
VERTEX
  8
LAYER_1
 10
-5.776272
 20
10.862091
 30
0.0
  0
VERTEX
  8
LAYER_1
 10
-5.763343
 20
10.866102
 30
0.0
  0
VERTEX
  8
LAYER_1
 10
-5.749457
 20
10.867504
 30
0.0
  0
VERTEX
  8
LAYER_1
 10
-5.735571
 20
10.866106
 30
0.0
  0
VERTEX
  8
LAYER_1
 10
-5.722638
 20
10.862091
 30
0.0
  0
VERTEX
  8
LAYER_1
 10
-5.710937
 20
10.85574
 30
0.0
  0
VERTEX
  8
LAYER_1
 10
-5.70074
 20
10.847327
 30
0.0
  0
VERTEX
  8
LAYER_1
 10
-5.692327
 20
10.83713
 30
0.0
  0
VERTEX
  8
LAYER_1
 10
-5.685972
 20
10.825429
 30
0.0
  0
VERTEX
  8
LAYER_1
 10
-5.681961
 20
10.812496
 30
0.0
  0
VERTEX
  8
LAYER_1
 10
-5.680559
 20
10.79861
 30
0.0
  0
VERTEX
  8
LAYER_1
 10
-5.681957
 20
10.784724
 30
0.0
  0
VERTEX
  8
LAYER_1
 10
-5.685972
 20
10.771791
 30
0.0
  0
VERTEX
  8
LAYER_1
 10
-5.692323
 20
10.760091
 30
0.0
  0
VERTEX
  8
LAYER_1
 10
-5.700736
 20
10.749894
 30
0.0
  0
VERTEX
  8
LAYER_1
 10
-5.710933
 20
10.74148
 30
0.0
  0
VERTEX
  8
LAYER_1
 10
-5.722634
 20
10.735126
 30
0.0
  0
VERTEX
  8
LAYER_1
 10
-5.735567
 20
10.731114
 30
0.0
  0
VERTEX
  8
LAYER_1
 10
-5.749453
 20
10.729713
 30
0.0
  0
VERTEX
  8
LAYER_1
 10
-5.763339
 20
10.73111
 30
0.0
  0
VERTEX
  8
LAYER_1
 10
-5.776272
 20
10.735126
 30
0.0
  0
VERTEX
  8
LAYER_1
 10
-5.787972
 20
10.741476
 30
0.0
  0
VERTEX
  8
LAYER_1
 10
-5.798169
 20
10.74989
 30
0.0
  0
VERTEX
  8
LAYER_1
 10
-5.806583
 20
10.760087
 30
0.0
  0
VERTEX
  8
LAYER_1
 10
-5.812937
 20
10.771787
 30
0.0
  0
VERTEX
  8
LAYER_1
 10
-5.816949
 20
10.78472
 30
0.0
  0
VERTEX
  8
LAYER_1
 10
-5.81835
 20
10.798606
 30
0.0
  0
SEQEND
  8
LAYER_1
  0
POLYLINE
  8
LAYER_1
 62
0
 70
1
 66
1
 10
0.0
 20
0.0
 30
0.0
  0
VERTEX
  8
LAYER_1
 10
-7.944339
 20
-5.756504
 30
0.0
  0
VERTEX
  8
LAYER_1
 10
-7.942937
 20
-5.742618
 30
0.0
  0
VERTEX
  8
LAYER_1
 10
-7.938925
 20
-5.729689
 30
0.0
  0
VERTEX
  8
LAYER_1
 10
-7.932571
 20
-5.717984
 30
0.0
  0
VERTEX
  8
LAYER_1
 10
-7.924157
 20
-5.707791
 30
0.0
  0
VERTEX
  8
LAYER_1
 10
-7.913961
 20
-5.699378
 30
0.0
  0
VERTEX
  8
LAYER_1
 10
-7.902256
 20
-5.693024
 30
0.0
  0
VERTEX
  8
LAYER_1
 10
-7.889327
 20
-5.689012
 30
0.0
  0
VERTEX
  8
LAYER_1
 10
-7.875441
 20
-5.68761
 30
0.0
  0
VERTEX
  8
LAYER_1
 10
-7.861555
 20
-5.689008
 30
0.0
  0
VERTEX
  8
LAYER_1
 10
-7.848622
 20
-5.693024
 30
0.0
  0
VERTEX
  8
LAYER_1
 10
-7.836921
 20
-5.699374
 30
0.0
  0
VERTEX
  8
LAYER_1
 10
-7.826724
 20
-5.707787
 30
0.0
  0
VERTEX
  8
LAYER_1
 10
-7.818311
 20
-5.717984
 30
0.0
  0
VERTEX
  8
LAYER_1
 10
-7.811957
 20
-5.729685
 30
0.0
  0
VERTEX
  8
LAYER_1
 10
-7.807945
 20
-5.742618
 30
0.0
  0
VERTEX
  8
LAYER_1
 10
-7.806543
 20
-5.756504
 30
0.0
  0
VERTEX
  8
LAYER_1
 10
-7.807941
 20
-5.77039
 30
0.0
  0
VERTEX
  8
LAYER_1
 10
-7.811957
 20
-5.783323
 30
0.0
  0
VERTEX
  8
LAYER_1
 10
-7.818307
 20
-5.795024
 30
0.0
  0
VERTEX
  8
LAYER_1
 10
-7.82672
 20
-5.80522
 30
0.0
  0
VERTEX
  8
LAYER_1
 10
-7.836917
 20
-5.813634
 30
0.0
  0
VERTEX
  8
LAYER_1
 10
-7.848618
 20
-5.819988
 30
0.0
  0
VERTEX
  8
LAYER_1
 10
-7.861551
 20
-5.824
 30
0.0
  0
VERTEX
  8
LAYER_1
 10
-7.875437
 20
-5.825402
 30
0.0
  0
VERTEX
  8
LAYER_1
 10
-7.889323
 20
-5.824004
 30
0.0
  0
VERTEX
  8
LAYER_1
 10
-7.902256
 20
-5.819988
 30
0.0
  0
VERTEX
  8
LAYER_1
 10
-7.913957
 20
-5.813638
 30
0.0
  0
VERTEX
  8
LAYER_1
 10
-7.924154
 20
-5.805224
 30
0.0
  0
VERTEX
  8
LAYER_1
 10
-7.932567
 20
-5.795028
 30
0.0
  0
VERTEX
  8
LAYER_1
 10
-7.938921
 20
-5.783327
 30
0.0
  0
VERTEX
  8
LAYER_1
 10
-7.942933
 20
-5.770394
 30
0.0
  0
VERTEX
  8
LAYER_1
 10
-7.944335
 20
-5.756508
 30
0.0
  0
SEQEND
  8
LAYER_1
  0
POLYLINE
  8
LAYER_1
 62
0
 70
1
 66
1
 10
0.0
 20
0.0
 30
0.0
  0
VERTEX
  8
LAYER_1
 10
-5.81835
 20
9.026957
 30
0.0
  0
VERTEX
  8
LAYER_1
 10
-5.816949
 20
9.040843
 30
0.0
  0
VERTEX
  8
LAYER_1
 10
-5.812937
 20
9.053772
 30
0.0
  0
VERTEX
  8
LAYER_1
 10
-5.806583
 20
9.065476
 30
0.0
  0
VERTEX
  8
LAYER_1
 10
-5.798173
 20
9.075673
 30
0.0
  0
VERTEX
  8
LAYER_1
 10
-5.787976
 20
9.084083
 30
0.0
  0
VERTEX
  8
LAYER_1
 10
-5.776272
 20
9.090437
 30
0.0
  0
VERTEX
  8
LAYER_1
 10
-5.763343
 20
9.094449
 30
0.0
  0
VERTEX
  8
LAYER_1
 10
-5.749457
 20
9.09585
 30
0.0
  0
VERTEX
  8
LAYER_1
 10
-5.735571
 20
9.094453
 30
0.0
  0
VERTEX
  8
LAYER_1
 10
-5.722638
 20
9.090437
 30
0.0
  0
VERTEX
  8
LAYER_1
 10
-5.710937
 20
9.084087
 30
0.0
  0
VERTEX
  8
LAYER_1
 10
-5.70074
 20
9.075673
 30
0.0
  0
VERTEX
  8
LAYER_1
 10
-5.692327
 20
9.065476
 30
0.0
  0
VERTEX
  8
LAYER_1
 10
-5.685972
 20
9.053776
 30
0.0
  0
VERTEX
  8
LAYER_1
 10
-5.681961
 20
9.040843
 30
0.0
  0
VERTEX
  8
LAYER_1
 10
-5.680559
 20
9.026957
 30
0.0
  0
VERTEX
  8
LAYER_1
 10
-5.681957
 20
9.013071
 30
0.0
  0
VERTEX
  8
LAYER_1
 10
-5.685972
 20
9.000138
 30
0.0
  0
VERTEX
  8
LAYER_1
 10
-5.692323
 20
8.988437
 30
0.0
  0
VERTEX
  8
LAYER_1
 10
-5.700736
 20
8.97824
 30
0.0
  0
VERTEX
  8
LAYER_1
 10
-5.710933
 20
8.969827
 30
0.0
  0
VERTEX
  8
LAYER_1
 10
-5.722634
 20
8.963472
 30
0.0
  0
VERTEX
  8
LAYER_1
 10
-5.735567
 20
8.959461
 30
0.0
  0
VERTEX
  8
LAYER_1
 10
-5.749453
 20
8.958059
 30
0.0
  0
VERTEX
  8
LAYER_1
 10
-5.763339
 20
8.959457
 30
0.0
  0
VERTEX
  8
LAYER_1
 10
-5.776272
 20
8.963472
 30
0.0
  0
VERTEX
  8
LAYER_1
 10
-5.787972
 20
8.969823
 30
0.0
  0
VERTEX
  8
LAYER_1
 10
-5.798169
 20
8.978236
 30
0.0
  0
VERTEX
  8
LAYER_1
 10
-5.806583
 20
8.988433
 30
0.0
  0
VERTEX
  8
LAYER_1
 10
-5.812937
 20
9.000134
 30
0.0
  0
VERTEX
  8
LAYER_1
 10
-5.816949
 20
9.013067
 30
0.0
  0
VERTEX
  8
LAYER_1
 10
-5.81835
 20
9.026953
 30
0.0
  0
SEQEND
  8
LAYER_1
  0
POLYLINE
  8
LAYER_1
 62
0
 70
0
 66
1
 10
0.0
 20
0.0
 30
0.0
  0
VERTEX
  8
LAYER_1
 10
-6.983236
 20
2.631772
 30
0.0
  0
VERTEX
  8
LAYER_1
 10
-6.976386
 20
2.632169
 30
0.0
  0
VERTEX
  8
LAYER_1
 10
-6.969697
 20
2.633343
 30
0.0
  0
VERTEX
  8
LAYER_1
 10
-6.963228
 20
2.635264
 30
0.0
  0
VERTEX
  8
LAYER_1
 10
-6.957039
 20
2.637902
 30
0.0
  0
VERTEX
  8
LAYER_1
 10
-6.951189
 20
2.64122
 30
0.0
  0
VERTEX
  8
LAYER_1
 10
-6.945736
 20
2.645201
 30
0.0
  0
VERTEX
  8
LAYER_1
 10
-6.940748
 20
2.649807
 30
0.0
  0
VERTEX
  8
LAYER_1
 10
-6.93628
 20
2.655012
 30
0.0
  0
VERTEX
  8
LAYER_1
 10
-6.932445
 20
2.660697
 30
0.0
  0
VERTEX
  8
LAYER_1
 10
-6.929319
 20
2.666728
 30
0.0
  0
VERTEX
  8
LAYER_1
 10
-6.926925
 20
2.673035
 30
0.0
  0
VERTEX
  8
LAYER_1
 10
-6.925268
 20
2.679559
 30
0.0
  0
VERTEX
  8
LAYER_1
 10
-6.924362
 20
2.686224
 30
0.0
  0
VERTEX
  8
LAYER_1
 10
-6.92422
 20
2.692972
 30
0.0
  0
VERTEX
  8
LAYER_1
 10
-6.924858
 20
2.699732
 30
0.0
  0
VERTEX
  8
LAYER_1
 10
-6.926283
 20
2.706441
 30
0.0
  0
SEQEND
  8
LAYER_1
  0
POLYLINE
  8
LAYER_1
 62
0
 70
0
 66
1
 10
0.0
 20
0.0
 30
0.0
  0
VERTEX
  8
LAYER_1
 10
-7.162587
 20
2.677177
 30
0.0
  0
VERTEX
  8
LAYER_1
 10
-7.159425
 20
2.667583
 30
0.0
  0
VERTEX
  8
LAYER_1
 10
-7.154787
 20
2.658854
 30
0.0
  0
VERTEX
  8
LAYER_1
 10
-7.148843
 20
2.651114
 30
0.0
  0
VERTEX
  8
LAYER_1
 10
-7.141748
 20
2.644492
 30
0.0
  0
VERTEX
  8
LAYER_1
 10
-7.133665
 20
2.639118
 30
0.0
  0
VERTEX
  8
LAYER_1
 10
-7.12476
 20
2.635122
 30
0.0
  0
VERTEX
  8
LAYER_1
 10
-7.115193
 20
2.63263
 30
0.0
  0
VERTEX
  8
LAYER_1
 10
-7.10513
 20
2.631772
 30
0.0
  0
SEQEND
  8
LAYER_1
  0
POLYLINE
  8
LAYER_1
 62
0
 70
0
 66
1
 10
0.0
 20
0.0
 30
0.0
  0
VERTEX
  8
LAYER_1
 10
-7.175382
 20
3.074764
 30
0.0
  0
VERTEX
  8
LAYER_1
 10
-7.182567
 20
3.025114
 30
0.0
  0
VERTEX
  8
LAYER_1
 10
-7.187236
 20
2.97526
 30
0.0
  0
VERTEX
  8
LAYER_1
 10
-7.18939
 20
2.925299
 30
0.0
  0
VERTEX
  8
LAYER_1
 10
-7.189039
 20
2.875323
 30
0.0
  0
VERTEX
  8
LAYER_1
 10
-7.186177
 20
2.825429
 30
0.0
  0
VERTEX
  8
LAYER_1
 10
-7.180815
 20
2.775709
 30
0.0
  0
VERTEX
  8
LAYER_1
 10
-7.172949
 20
2.72626
 30
0.0
  0
VERTEX
  8
LAYER_1
 10
-7.162587
 20
2.677177
 30
0.0
  0
SEQEND
  8
LAYER_1
  0
POLYLINE
  8
LAYER_1
 62
0
 70
0
 66
1
 10
0.0
 20
0.0
 30
0.0
  0
VERTEX
  8
LAYER_1
 10
-7.117169
 20
3.12389
 30
0.0
  0
VERTEX
  8
LAYER_1
 10
-7.127736
 20
3.122941
 30
0.0
  0
VERTEX
  8
LAYER_1
 10
-7.137728
 20
3.120205
 30
0.0
  0
VERTEX
  8
LAYER_1
 10
-7.146961
 20
3.115827
 30
0.0
  0
VERTEX
  8
LAYER_1
 10
-7.155256
 20
3.109969
 30
0.0
  0
VERTEX
  8
LAYER_1
 10
-7.162425
 20
3.102776
 30
0.0
  0
VERTEX
  8
LAYER_1
 10
-7.168291
 20
3.094409
 30
0.0
  0
VERTEX
  8
LAYER_1
 10
-7.172673
 20
3.08502
 30
0.0
  0
VERTEX
  8
LAYER_1
 10
-7.175382
 20
3.074764
 30
0.0
  0
SEQEND
  8
LAYER_1
  0
POLYLINE
  8
LAYER_1
 62
0
 70
0
 66
1
 10
0.0
 20
0.0
 30
0.0
  0
VERTEX
  8
LAYER_1
 10
-6.847012
 20
3.610882
 30
0.0
  0
VERTEX
  8
LAYER_1
 10
-6.870925
 20
3.337559
 30
0.0
  0
SEQEND
  8
LAYER_1
  0
POLYLINE
  8
LAYER_1
 62
0
 70
1
 66
1
 10
0.0
 20
0.0
 30
0.0
  0
VERTEX
  8
LAYER_1
 10
4.654087
 20
-5.776189
 30
0.0
  0
VERTEX
  8
LAYER_1
 10
4.655488
 20
-5.762303
 30
0.0
  0
VERTEX
  8
LAYER_1
 10
4.6595
 20
-5.749374
 30
0.0
  0
VERTEX
  8
LAYER_1
 10
4.665854
 20
-5.737669
 30
0.0
  0
VERTEX
  8
LAYER_1
 10
4.674268
 20
-5.727476
 30
0.0
  0
VERTEX
  8
LAYER_1
 10
4.684461
 20
-5.719063
 30
0.0
  0
VERTEX
  8
LAYER_1
 10
4.696165
 20
-5.712709
 30
0.0
  0
VERTEX
  8
LAYER_1
 10
4.709094
 20
-5.708697
 30
0.0
  0
VERTEX
  8
LAYER_1
 10
4.72298
 20
-5.707295
 30
0.0
  0
VERTEX
  8
LAYER_1
 10
4.736866
 20
-5.708693
 30
0.0
  0
VERTEX
  8
LAYER_1
 10
4.749799
 20
-5.712709
 30
0.0
  0
VERTEX
  8
LAYER_1
 10
4.7615
 20
-5.719059
 30
0.0
  0
VERTEX
  8
LAYER_1
 10
4.771697
 20
-5.727472
 30
0.0
  0
VERTEX
  8
LAYER_1
 10
4.78011
 20
-5.737669
 30
0.0
  0
VERTEX
  8
LAYER_1
 10
4.786465
 20
-5.74937
 30
0.0
  0
VERTEX
  8
LAYER_1
 10
4.790476
 20
-5.762303
 30
0.0
  0
VERTEX
  8
LAYER_1
 10
4.791878
 20
-5.776189
 30
0.0
  0
VERTEX
  8
LAYER_1
 10
4.79048
 20
-5.790075
 30
0.0
  0
VERTEX
  8
LAYER_1
 10
4.786465
 20
-5.803008
 30
0.0
  0
VERTEX
  8
LAYER_1
 10
4.780114
 20
-5.814709
 30
0.0
  0
VERTEX
  8
LAYER_1
 10
4.771701
 20
-5.824906
 30
0.0
  0
VERTEX
  8
LAYER_1
 10
4.761504
 20
-5.833319
 30
0.0
  0
VERTEX
  8
LAYER_1
 10
4.749803
 20
-5.839673
 30
0.0
  0
VERTEX
  8
LAYER_1
 10
4.73687
 20
-5.843685
 30
0.0
  0
VERTEX
  8
LAYER_1
 10
4.722984
 20
-5.845087
 30
0.0
  0
VERTEX
  8
LAYER_1
 10
4.709098
 20
-5.843689
 30
0.0
  0
VERTEX
  8
LAYER_1
 10
4.696165
 20
-5.839673
 30
0.0
  0
VERTEX
  8
LAYER_1
 10
4.684465
 20
-5.833323
 30
0.0
  0
VERTEX
  8
LAYER_1
 10
4.674268
 20
-5.824909
 30
0.0
  0
VERTEX
  8
LAYER_1
 10
4.665854
 20
-5.814713
 30
0.0
  0
VERTEX
  8
LAYER_1
 10
4.6595
 20
-5.803012
 30
0.0
  0
VERTEX
  8
LAYER_1
 10
4.655488
 20
-5.790079
 30
0.0
  0
VERTEX
  8
LAYER_1
 10
4.654087
 20
-5.776193
 30
0.0
  0
SEQEND
  8
LAYER_1
  0
POLYLINE
  8
LAYER_1
 62
0
 70
1
 66
1
 10
0.0
 20
0.0
 30
0.0
  0
VERTEX
  8
LAYER_1
 10
2.813535
 20
8.696701
 30
0.0
  0
VERTEX
  8
LAYER_1
 10
-0.257331
 20
8.696701
 30
0.0
  0
VERTEX
  8
LAYER_1
 10
-0.265154
 20
8.69722
 30
0.0
  0
VERTEX
  8
LAYER_1
 10
-0.272736
 20
8.698744
 30
0.0
  0
VERTEX
  8
LAYER_1
 10
-0.28
 20
8.701224
 30
0.0
  0
VERTEX
  8
LAYER_1
 10
-0.286854
 20
8.70461
 30
0.0
  0
VERTEX
  8
LAYER_1
 10
-0.293217
 20
8.708854
 30
0.0
  0
VERTEX
  8
LAYER_1
 10
-0.298996
 20
8.713906
 30
0.0
  0
VERTEX
  8
LAYER_1
 10
-0.30411
 20
8.719713
 30
0.0
  0
VERTEX
  8
LAYER_1
 10
-0.308472
 20
8.726228
 30
0.0
  0
VERTEX
  8
LAYER_1
 10
-0.311933
 20
8.733264
 30
0.0
  0
VERTEX
  8
LAYER_1
 10
-0.314406
 20
8.740594
 30
0.0
  0
VERTEX
  8
LAYER_1
 10
-0.31589
 20
8.748122
 30
0.0
  0
VERTEX
  8
LAYER_1
 10
-0.316382
 20
8.755752
 30
0.0
  0
VERTEX
  8
LAYER_1
 10
-0.31589
 20
8.763382
 30
0.0
  0
VERTEX
  8
LAYER_1
 10
-0.314406
 20
8.770913
 30
0.0
  0
VERTEX
  8
LAYER_1
 10
-0.311933
 20
8.778244
 30
0.0
  0
VERTEX
  8
LAYER_1
 10
-0.308472
 20
8.78528
 30
0.0
  0
VERTEX
  8
LAYER_1
 10
-0.30411
 20
8.791795
 30
0.0
  0
VERTEX
  8
LAYER_1
 10
-0.298996
 20
8.797602
 30
0.0
  0
VERTEX
  8
LAYER_1
 10
-0.293217
 20
8.802654
 30
0.0
  0
VERTEX
  8
LAYER_1
 10
-0.286854
 20
8.806894
 30
0.0
  0
VERTEX
  8
LAYER_1
 10
-0.28
 20
8.810283
 30
0.0
  0
VERTEX
  8
LAYER_1
 10
-0.272736
 20
8.812764
 30
0.0
  0
VERTEX
  8
LAYER_1
 10
-0.265154
 20
8.814287
 30
0.0
  0
VERTEX
  8
LAYER_1
 10
-0.257331
 20
8.814807
 30
0.0
  0
VERTEX
  8
LAYER_1
 10
2.813535
 20
8.814807
 30
0.0
  0
VERTEX
  8
LAYER_1
 10
2.821358
 20
8.814287
 30
0.0
  0
VERTEX
  8
LAYER_1
 10
2.828941
 20
8.812764
 30
0.0
  0
VERTEX
  8
LAYER_1
 10
2.836205
 20
8.810283
 30
0.0
  0
VERTEX
  8
LAYER_1
 10
2.843059
 20
8.806894
 30
0.0
  0
VERTEX
  8
LAYER_1
 10
2.849421
 20
8.802654
 30
0.0
  0
VERTEX
  8
LAYER_1
 10
2.855201
 20
8.797602
 30
0.0
  0
VERTEX
  8
LAYER_1
 10
2.860315
 20
8.791795
 30
0.0
  0
VERTEX
  8
LAYER_1
 10
2.864677
 20
8.78528
 30
0.0
  0
VERTEX
  8
LAYER_1
 10
2.868138
 20
8.778244
 30
0.0
  0
VERTEX
  8
LAYER_1
 10
2.87061
 20
8.770913
 30
0.0
  0
VERTEX
  8
LAYER_1
 10
2.872094
 20
8.763382
 30
0.0
  0
VERTEX
  8
LAYER_1
 10
2.872587
 20
8.755752
 30
0.0
  0
VERTEX
  8
LAYER_1
 10
2.872094
 20
8.748122
 30
0.0
  0
VERTEX
  8
LAYER_1
 10
2.87061
 20
8.740594
 30
0.0
  0
VERTEX
  8
LAYER_1
 10
2.868138
 20
8.733264
 30
0.0
  0
VERTEX
  8
LAYER_1
 10
2.864677
 20
8.726228
 30
0.0
  0
VERTEX
  8
LAYER_1
 10
2.860315
 20
8.719713
 30
0.0
  0
VERTEX
  8
LAYER_1
 10
2.855201
 20
8.713906
 30
0.0
  0
VERTEX
  8
LAYER_1
 10
2.849421
 20
8.708854
 30
0.0
  0
VERTEX
  8
LAYER_1
 10
2.843059
 20
8.70461
 30
0.0
  0
VERTEX
  8
LAYER_1
 10
2.836205
 20
8.701224
 30
0.0
  0
VERTEX
  8
LAYER_1
 10
2.828941
 20
8.698744
 30
0.0
  0
VERTEX
  8
LAYER_1
 10
2.821358
 20
8.69722
 30
0.0
  0
SEQEND
  8
LAYER_1
  0
POLYLINE
  8
LAYER_1
 62
0
 70
1
 66
1
 10
0.0
 20
0.0
 30
0.0
  0
VERTEX
  8
LAYER_1
 10
2.813535
 20
10.552713
 30
0.0
  0
VERTEX
  8
LAYER_1
 10
-0.257331
 20
10.552713
 30
0.0
  0
VERTEX
  8
LAYER_1
 10
-0.265154
 20
10.553232
 30
0.0
  0
VERTEX
  8
LAYER_1
 10
-0.272736
 20
10.554756
 30
0.0
  0
VERTEX
  8
LAYER_1
 10
-0.28
 20
10.557236
 30
0.0
  0
VERTEX
  8
LAYER_1
 10
-0.286854
 20
10.560626
 30
0.0
  0
VERTEX
  8
LAYER_1
 10
-0.293217
 20
10.564866
 30
0.0
  0
VERTEX
  8
LAYER_1
 10
-0.298996
 20
10.569917
 30
0.0
  0
VERTEX
  8
LAYER_1
 10
-0.30411
 20
10.575724
 30
0.0
  0
VERTEX
  8
LAYER_1
 10
-0.308472
 20
10.58224
 30
0.0
  0
VERTEX
  8
LAYER_1
 10
-0.311933
 20
10.589276
 30
0.0
  0
VERTEX
  8
LAYER_1
 10
-0.314406
 20
10.596606
 30
0.0
  0
VERTEX
  8
LAYER_1
 10
-0.31589
 20
10.604138
 30
0.0
  0
VERTEX
  8
LAYER_1
 10
-0.316382
 20
10.611768
 30
0.0
  0
VERTEX
  8
LAYER_1
 10
-0.31589
 20
10.619398
 30
0.0
  0
VERTEX
  8
LAYER_1
 10
-0.314406
 20
10.626929
 30
0.0
  0
VERTEX
  8
LAYER_1
 10
-0.311933
 20
10.63426
 30
0.0
  0
VERTEX
  8
LAYER_1
 10
-0.308472
 20
10.641295
 30
0.0
  0
VERTEX
  8
LAYER_1
 10
-0.30411
 20
10.647811
 30
0.0
  0
VERTEX
  8
LAYER_1
 10
-0.298996
 20
10.653618
 30
0.0
  0
VERTEX
  8
LAYER_1
 10
-0.293217
 20
10.658669
 30
0.0
  0
VERTEX
  8
LAYER_1
 10
-0.286854
 20
10.662909
 30
0.0
  0
VERTEX
  8
LAYER_1
 10
-0.28
 20
10.666299
 30
0.0
  0
VERTEX
  8
LAYER_1
 10
-0.272736
 20
10.66878
 30
0.0
  0
VERTEX
  8
LAYER_1
 10
-0.265154
 20
10.670303
 30
0.0
  0
VERTEX
  8
LAYER_1
 10
-0.257331
 20
10.670823
 30
0.0
  0
VERTEX
  8
LAYER_1
 10
2.813535
 20
10.670823
 30
0.0
  0
VERTEX
  8
LAYER_1
 10
2.821358
 20
10.670303
 30
0.0
  0
VERTEX
  8
LAYER_1
 10
2.828941
 20
10.66878
 30
0.0
  0
VERTEX
  8
LAYER_1
 10
2.836205
 20
10.666299
 30
0.0
  0
VERTEX
  8
LAYER_1
 10
2.843059
 20
10.662909
 30
0.0
  0
VERTEX
  8
LAYER_1
 10
2.849421
 20
10.658669
 30
0.0
  0
VERTEX
  8
LAYER_1
 10
2.855201
 20
10.653618
 30
0.0
  0
VERTEX
  8
LAYER_1
 10
2.860315
 20
10.647811
 30
0.0
  0
VERTEX
  8
LAYER_1
 10
2.864677
 20
10.641295
 30
0.0
  0
VERTEX
  8
LAYER_1
 10
2.868138
 20
10.63426
 30
0.0
  0
VERTEX
  8
LAYER_1
 10
2.87061
 20
10.626929
 30
0.0
  0
VERTEX
  8
LAYER_1
 10
2.872094
 20
10.619398
 30
0.0
  0
VERTEX
  8
LAYER_1
 10
2.872587
 20
10.611768
 30
0.0
  0
VERTEX
  8
LAYER_1
 10
2.872094
 20
10.604138
 30
0.0
  0
VERTEX
  8
LAYER_1
 10
2.87061
 20
10.596606
 30
0.0
  0
VERTEX
  8
LAYER_1
 10
2.868138
 20
10.589276
 30
0.0
  0
VERTEX
  8
LAYER_1
 10
2.864677
 20
10.58224
 30
0.0
  0
VERTEX
  8
LAYER_1
 10
2.860315
 20
10.575724
 30
0.0
  0
VERTEX
  8
LAYER_1
 10
2.855201
 20
10.569917
 30
0.0
  0
VERTEX
  8
LAYER_1
 10
2.849421
 20
10.564866
 30
0.0
  0
VERTEX
  8
LAYER_1
 10
2.843059
 20
10.560626
 30
0.0
  0
VERTEX
  8
LAYER_1
 10
2.836205
 20
10.557236
 30
0.0
  0
VERTEX
  8
LAYER_1
 10
2.828941
 20
10.554756
 30
0.0
  0
VERTEX
  8
LAYER_1
 10
2.821358
 20
10.553232
 30
0.0
  0
SEQEND
  8
LAYER_1
  0
POLYLINE
  8
LAYER_1
 62
0
 70
1
 66
1
 10
0.0
 20
0.0
 30
0.0
  0
VERTEX
  8
LAYER_1
 10
-4.422091
 20
7.765744
 30
0.0
  0
VERTEX
  8
LAYER_1
 10
-4.423492
 20
7.77963
 30
0.0
  0
VERTEX
  8
LAYER_1
 10
-4.427504
 20
7.792563
 30
0.0
  0
VERTEX
  8
LAYER_1
 10
-4.433858
 20
7.804264
 30
0.0
  0
VERTEX
  8
LAYER_1
 10
-4.442272
 20
7.814461
 30
0.0
  0
VERTEX
  8
LAYER_1
 10
-4.452469
 20
7.822874
 30
0.0
  0
VERTEX
  8
LAYER_1
 10
-4.464173
 20
7.829228
 30
0.0
  0
VERTEX
  8
LAYER_1
 10
-4.477102
 20
7.83324
 30
0.0
  0
VERTEX
  8
LAYER_1
 10
-4.490988
 20
7.834642
 30
0.0
  0
VERTEX
  8
LAYER_1
 10
-4.504874
 20
7.83324
 30
0.0
  0
VERTEX
  8
LAYER_1
 10
-4.517807
 20
7.829228
 30
0.0
  0
VERTEX
  8
LAYER_1
 10
-4.529508
 20
7.822874
 30
0.0
  0
VERTEX
  8
LAYER_1
 10
-4.539705
 20
7.814461
 30
0.0
  0
VERTEX
  8
LAYER_1
 10
-4.548118
 20
7.804264
 30
0.0
  0
VERTEX
  8
LAYER_1
 10
-4.554472
 20
7.792563
 30
0.0
  0
VERTEX
  8
LAYER_1
 10
-4.558484
 20
7.77963
 30
0.0
  0
VERTEX
  8
LAYER_1
 10
-4.559886
 20
7.765744
 30
0.0
  0
VERTEX
  8
LAYER_1
 10
-4.558488
 20
7.751858
 30
0.0
  0
VERTEX
  8
LAYER_1
 10
-4.554472
 20
7.738925
 30
0.0
  0
VERTEX
  8
LAYER_1
 10
-4.548122
 20
7.727224
 30
0.0
  0
VERTEX
  8
LAYER_1
 10
-4.539709
 20
7.717028
 30
0.0
  0
VERTEX
  8
LAYER_1
 10
-4.529512
 20
7.708614
 30
0.0
  0
VERTEX
  8
LAYER_1
 10
-4.517811
 20
7.70226
 30
0.0
  0
VERTEX
  8
LAYER_1
 10
-4.504878
 20
7.698248
 30
0.0
  0
VERTEX
  8
LAYER_1
 10
-4.490992
 20
7.696846
 30
0.0
  0
VERTEX
  8
LAYER_1
 10
-4.477106
 20
7.698248
 30
0.0
  0
VERTEX
  8
LAYER_1
 10
-4.464173
 20
7.70226
 30
0.0
  0
VERTEX
  8
LAYER_1
 10
-4.452472
 20
7.708614
 30
0.0
  0
VERTEX
  8
LAYER_1
 10
-4.442276
 20
7.717028
 30
0.0
  0
VERTEX
  8
LAYER_1
 10
-4.433862
 20
7.727224
 30
0.0
  0
VERTEX
  8
LAYER_1
 10
-4.427508
 20
7.738925
 30
0.0
  0
VERTEX
  8
LAYER_1
 10
-4.423496
 20
7.751858
 30
0.0
  0
VERTEX
  8
LAYER_1
 10
-4.422094
 20
7.765744
 30
0.0
  0
SEQEND
  8
LAYER_1
  0
POLYLINE
  8
LAYER_1
 62
0
 70
1
 66
1
 10
0.0
 20
0.0
 30
0.0
  0
VERTEX
  8
LAYER_1
 10
-4.42072
 20
9.025583
 30
0.0
  0
VERTEX
  8
LAYER_1
 10
-4.422122
 20
9.039469
 30
0.0
  0
VERTEX
  8
LAYER_1
 10
-4.426134
 20
9.052402
 30
0.0
  0
VERTEX
  8
LAYER_1
 10
-4.432488
 20
9.064102
 30
0.0
  0
VERTEX
  8
LAYER_1
 10
-4.440902
 20
9.074299
 30
0.0
  0
VERTEX
  8
LAYER_1
 10
-4.451098
 20
9.082713
 30
0.0
  0
VERTEX
  8
LAYER_1
 10
-4.462799
 20
9.089067
 30
0.0
  0
VERTEX
  8
LAYER_1
 10
-4.475732
 20
9.093079
 30
0.0
  0
VERTEX
  8
LAYER_1
 10
-4.489618
 20
9.09448
 30
0.0
  0
VERTEX
  8
LAYER_1
 10
-4.503504
 20
9.093079
 30
0.0
  0
VERTEX
  8
LAYER_1
 10
-4.516437
 20
9.089067
 30
0.0
  0
VERTEX
  8
LAYER_1
 10
-4.528138
 20
9.082713
 30
0.0
  0
VERTEX
  8
LAYER_1
 10
-4.538335
 20
9.074299
 30
0.0
  0
VERTEX
  8
LAYER_1
 10
-4.546748
 20
9.064102
 30
0.0
  0
VERTEX
  8
LAYER_1
 10
-4.553102
 20
9.052402
 30
0.0
  0
VERTEX
  8
LAYER_1
 10
-4.557114
 20
9.039469
 30
0.0
  0
VERTEX
  8
LAYER_1
 10
-4.558516
 20
9.025583
 30
0.0
  0
VERTEX
  8
LAYER_1
 10
-4.557114
 20
9.011697
 30
0.0
  0
VERTEX
  8
LAYER_1
 10
-4.553102
 20
8.998764
 30
0.0
  0
VERTEX
  8
LAYER_1
 10
-4.546748
 20
8.987063
 30
0.0
  0
VERTEX
  8
LAYER_1
 10
-4.538335
 20
8.976866
 30
0.0
  0
VERTEX
  8
LAYER_1
 10
-4.528138
 20
8.968453
 30
0.0
  0
VERTEX
  8
LAYER_1
 10
-4.516437
 20
8.962098
 30
0.0
  0
VERTEX
  8
LAYER_1
 10
-4.503504
 20
8.958087
 30
0.0
  0
VERTEX
  8
LAYER_1
 10
-4.489618
 20
8.956685
 30
0.0
  0
VERTEX
  8
LAYER_1
 10
-4.475732
 20
8.958087
 30
0.0
  0
VERTEX
  8
LAYER_1
 10
-4.462799
 20
8.962098
 30
0.0
  0
VERTEX
  8
LAYER_1
 10
-4.451098
 20
8.968453
 30
0.0
  0
VERTEX
  8
LAYER_1
 10
-4.440902
 20
8.976866
 30
0.0
  0
VERTEX
  8
LAYER_1
 10
-4.432488
 20
8.987063
 30
0.0
  0
VERTEX
  8
LAYER_1
 10
-4.426134
 20
8.998764
 30
0.0
  0
VERTEX
  8
LAYER_1
 10
-4.422122
 20
9.011697
 30
0.0
  0
SEQEND
  8
LAYER_1
  0
POLYLINE
  8
LAYER_1
 62
0
 70
1
 66
1
 10
0.0
 20
0.0
 30
0.0
  0
VERTEX
  8
LAYER_1
 10
2.813535
 20
6.531346
 30
0.0
  0
VERTEX
  8
LAYER_1
 10
-0.257331
 20
6.531346
 30
0.0
  0
VERTEX
  8
LAYER_1
 10
-0.265154
 20
6.531866
 30
0.0
  0
VERTEX
  8
LAYER_1
 10
-0.272736
 20
6.53339
 30
0.0
  0
VERTEX
  8
LAYER_1
 10
-0.28
 20
6.53587
 30
0.0
  0
VERTEX
  8
LAYER_1
 10
-0.286854
 20
6.539256
 30
0.0
  0
VERTEX
  8
LAYER_1
 10
-0.293217
 20
6.5435
 30
0.0
  0
VERTEX
  8
LAYER_1
 10
-0.298996
 20
6.548551
 30
0.0
  0
VERTEX
  8
LAYER_1
 10
-0.30411
 20
6.554358
 30
0.0
  0
VERTEX
  8
LAYER_1
 10
-0.308472
 20
6.560874
 30
0.0
  0
VERTEX
  8
LAYER_1
 10
-0.311933
 20
6.567909
 30
0.0
  0
VERTEX
  8
LAYER_1
 10
-0.314406
 20
6.57524
 30
0.0
  0
VERTEX
  8
LAYER_1
 10
-0.31589
 20
6.582772
 30
0.0
  0
VERTEX
  8
LAYER_1
 10
-0.316382
 20
6.590402
 30
0.0
  0
VERTEX
  8
LAYER_1
 10
-0.31589
 20
6.598031
 30
0.0
  0
VERTEX
  8
LAYER_1
 10
-0.314406
 20
6.605563
 30
0.0
  0
VERTEX
  8
LAYER_1
 10
-0.311933
 20
6.612894
 30
0.0
  0
VERTEX
  8
LAYER_1
 10
-0.308472
 20
6.619929
 30
0.0
  0
VERTEX
  8
LAYER_1
 10
-0.30411
 20
6.626445
 30
0.0
  0
VERTEX
  8
LAYER_1
 10
-0.298996
 20
6.632252
 30
0.0
  0
VERTEX
  8
LAYER_1
 10
-0.293217
 20
6.637303
 30
0.0
  0
VERTEX
  8
LAYER_1
 10
-0.286854
 20
6.641543
 30
0.0
  0
VERTEX
  8
LAYER_1
 10
-0.28
 20
6.644933
 30
0.0
  0
VERTEX
  8
LAYER_1
 10
-0.272736
 20
6.647413
 30
0.0
  0
VERTEX
  8
LAYER_1
 10
-0.265154
 20
6.648937
 30
0.0
  0
VERTEX
  8
LAYER_1
 10
-0.257331
 20
6.649457
 30
0.0
  0
VERTEX
  8
LAYER_1
 10
2.813535
 20
6.649457
 30
0.0
  0
VERTEX
  8
LAYER_1
 10
2.821358
 20
6.648937
 30
0.0
  0
VERTEX
  8
LAYER_1
 10
2.828941
 20
6.647413
 30
0.0
  0
VERTEX
  8
LAYER_1
 10
2.836205
 20
6.644933
 30
0.0
  0
VERTEX
  8
LAYER_1
 10
2.843059
 20
6.641543
 30
0.0
  0
VERTEX
  8
LAYER_1
 10
2.849421
 20
6.637303
 30
0.0
  0
VERTEX
  8
LAYER_1
 10
2.855201
 20
6.632252
 30
0.0
  0
VERTEX
  8
LAYER_1
 10
2.860315
 20
6.626445
 30
0.0
  0
VERTEX
  8
LAYER_1
 10
2.864677
 20
6.619929
 30
0.0
  0
VERTEX
  8
LAYER_1
 10
2.868138
 20
6.612894
 30
0.0
  0
VERTEX
  8
LAYER_1
 10
2.87061
 20
6.605563
 30
0.0
  0
VERTEX
  8
LAYER_1
 10
2.872094
 20
6.598031
 30
0.0
  0
VERTEX
  8
LAYER_1
 10
2.872587
 20
6.590402
 30
0.0
  0
VERTEX
  8
LAYER_1
 10
2.872094
 20
6.582772
 30
0.0
  0
VERTEX
  8
LAYER_1
 10
2.87061
 20
6.57524
 30
0.0
  0
VERTEX
  8
LAYER_1
 10
2.868138
 20
6.567909
 30
0.0
  0
VERTEX
  8
LAYER_1
 10
2.864677
 20
6.560874
 30
0.0
  0
VERTEX
  8
LAYER_1
 10
2.860315
 20
6.554358
 30
0.0
  0
VERTEX
  8
LAYER_1
 10
2.855201
 20
6.548551
 30
0.0
  0
VERTEX
  8
LAYER_1
 10
2.849421
 20
6.5435
 30
0.0
  0
VERTEX
  8
LAYER_1
 10
2.843059
 20
6.539256
 30
0.0
  0
VERTEX
  8
LAYER_1
 10
2.836205
 20
6.53587
 30
0.0
  0
VERTEX
  8
LAYER_1
 10
2.828941
 20
6.53339
 30
0.0
  0
VERTEX
  8
LAYER_1
 10
2.821358
 20
6.531866
 30
0.0
  0
SEQEND
  8
LAYER_1
  0
POLYLINE
  8
LAYER_1
 62
0
 70
1
 66
1
 10
0.0
 20
0.0
 30
0.0
  0
VERTEX
  8
LAYER_1
 10
2.813535
 20
10.243378
 30
0.0
  0
VERTEX
  8
LAYER_1
 10
-0.257331
 20
10.243378
 30
0.0
  0
VERTEX
  8
LAYER_1
 10
-0.265154
 20
10.243898
 30
0.0
  0
VERTEX
  8
LAYER_1
 10
-0.272736
 20
10.245421
 30
0.0
  0
VERTEX
  8
LAYER_1
 10
-0.28
 20
10.247902
 30
0.0
  0
VERTEX
  8
LAYER_1
 10
-0.286854
 20
10.251291
 30
0.0
  0
VERTEX
  8
LAYER_1
 10
-0.293217
 20
10.255531
 30
0.0
  0
VERTEX
  8
LAYER_1
 10
-0.298996
 20
10.260583
 30
0.0
  0
VERTEX
  8
LAYER_1
 10
-0.30411
 20
10.26639
 30
0.0
  0
VERTEX
  8
LAYER_1
 10
-0.308472
 20
10.272906
 30
0.0
  0
VERTEX
  8
LAYER_1
 10
-0.311933
 20
10.279941
 30
0.0
  0
VERTEX
  8
LAYER_1
 10
-0.314406
 20
10.287272
 30
0.0
  0
VERTEX
  8
LAYER_1
 10
-0.31589
 20
10.294803
 30
0.0
  0
VERTEX
  8
LAYER_1
 10
-0.316382
 20
10.302433
 30
0.0
  0
VERTEX
  8
LAYER_1
 10
-0.31589
 20
10.310063
 30
0.0
  0
VERTEX
  8
LAYER_1
 10
-0.314406
 20
10.317594
 30
0.0
  0
VERTEX
  8
LAYER_1
 10
-0.311933
 20
10.324925
 30
0.0
  0
VERTEX
  8
LAYER_1
 10
-0.308472
 20
10.331961
 30
0.0
  0
VERTEX
  8
LAYER_1
 10
-0.30411
 20
10.338476
 30
0.0
  0
VERTEX
  8
LAYER_1
 10
-0.298996
 20
10.344283
 30
0.0
  0
VERTEX
  8
LAYER_1
 10
-0.293217
 20
10.349335
 30
0.0
  0
VERTEX
  8
LAYER_1
 10
-0.286854
 20
10.353575
 30
0.0
  0
VERTEX
  8
LAYER_1
 10
-0.28
 20
10.356965
 30
0.0
  0
VERTEX
  8
LAYER_1
 10
-0.272736
 20
10.359445
 30
0.0
  0
VERTEX
  8
LAYER_1
 10
-0.265154
 20
10.360969
 30
0.0
  0
VERTEX
  8
LAYER_1
 10
-0.257331
 20
10.361488
 30
0.0
  0
VERTEX
  8
LAYER_1
 10
2.813535
 20
10.361488
 30
0.0
  0
VERTEX
  8
LAYER_1
 10
2.821358
 20
10.360969
 30
0.0
  0
VERTEX
  8
LAYER_1
 10
2.828941
 20
10.359445
 30
0.0
  0
VERTEX
  8
LAYER_1
 10
2.836205
 20
10.356965
 30
0.0
  0
VERTEX
  8
LAYER_1
 10
2.843059
 20
10.353575
 30
0.0
  0
VERTEX
  8
LAYER_1
 10
2.849421
 20
10.349335
 30
0.0
  0
VERTEX
  8
LAYER_1
 10
2.855201
 20
10.344283
 30
0.0
  0
VERTEX
  8
LAYER_1
 10
2.860315
 20
10.338476
 30
0.0
  0
VERTEX
  8
LAYER_1
 10
2.864677
 20
10.331961
 30
0.0
  0
VERTEX
  8
LAYER_1
 10
2.868138
 20
10.324925
 30
0.0
  0
VERTEX
  8
LAYER_1
 10
2.87061
 20
10.317594
 30
0.0
  0
VERTEX
  8
LAYER_1
 10
2.872094
 20
10.310063
 30
0.0
  0
VERTEX
  8
LAYER_1
 10
2.872587
 20
10.302433
 30
0.0
  0
VERTEX
  8
LAYER_1
 10
2.872094
 20
10.294803
 30
0.0
  0
VERTEX
  8
LAYER_1
 10
2.87061
 20
10.287272
 30
0.0
  0
VERTEX
  8
LAYER_1
 10
2.868138
 20
10.279941
 30
0.0
  0
VERTEX
  8
LAYER_1
 10
2.864677
 20
10.272906
 30
0.0
  0
VERTEX
  8
LAYER_1
 10
2.860315
 20
10.26639
 30
0.0
  0
VERTEX
  8
LAYER_1
 10
2.855201
 20
10.260583
 30
0.0
  0
VERTEX
  8
LAYER_1
 10
2.849421
 20
10.255531
 30
0.0
  0
VERTEX
  8
LAYER_1
 10
2.843059
 20
10.251291
 30
0.0
  0
VERTEX
  8
LAYER_1
 10
2.836205
 20
10.247902
 30
0.0
  0
VERTEX
  8
LAYER_1
 10
2.828941
 20
10.245421
 30
0.0
  0
VERTEX
  8
LAYER_1
 10
2.821358
 20
10.243898
 30
0.0
  0
SEQEND
  8
LAYER_1
  0
POLYLINE
  8
LAYER_1
 62
0
 70
1
 66
1
 10
0.0
 20
0.0
 30
0.0
  0
VERTEX
  8
LAYER_1
 10
2.813535
 20
9.934039
 30
0.0
  0
VERTEX
  8
LAYER_1
 10
-0.257331
 20
9.934039
 30
0.0
  0
VERTEX
  8
LAYER_1
 10
-0.265154
 20
9.934559
 30
0.0
  0
VERTEX
  8
LAYER_1
 10
-0.272736
 20
9.936083
 30
0.0
  0
VERTEX
  8
LAYER_1
 10
-0.28
 20
9.938563
 30
0.0
  0
VERTEX
  8
LAYER_1
 10
-0.286854
 20
9.941953
 30
0.0
  0
VERTEX
  8
LAYER_1
 10
-0.293217
 20
9.946193
 30
0.0
  0
VERTEX
  8
LAYER_1
 10
-0.298996
 20
9.951244
 30
0.0
  0
VERTEX
  8
LAYER_1
 10
-0.30411
 20
9.957051
 30
0.0
  0
VERTEX
  8
LAYER_1
 10
-0.308472
 20
9.963567
 30
0.0
  0
VERTEX
  8
LAYER_1
 10
-0.311933
 20
9.970602
 30
0.0
  0
VERTEX
  8
LAYER_1
 10
-0.314406
 20
9.977933
 30
0.0
  0
VERTEX
  8
LAYER_1
 10
-0.31589
 20
9.985465
 30
0.0
  0
VERTEX
  8
LAYER_1
 10
-0.316382
 20
9.993094
 30
0.0
  0
VERTEX
  8
LAYER_1
 10
-0.31589
 20
10.000724
 30
0.0
  0
VERTEX
  8
LAYER_1
 10
-0.314406
 20
10.008256
 30
0.0
  0
VERTEX
  8
LAYER_1
 10
-0.311933
 20
10.015587
 30
0.0
  0
VERTEX
  8
LAYER_1
 10
-0.308472
 20
10.022622
 30
0.0
  0
VERTEX
  8
LAYER_1
 10
-0.30411
 20
10.029138
 30
0.0
  0
VERTEX
  8
LAYER_1
 10
-0.298996
 20
10.034945
 30
0.0
  0
VERTEX
  8
LAYER_1
 10
-0.293217
 20
10.039996
 30
0.0
  0
VERTEX
  8
LAYER_1
 10
-0.286854
 20
10.044236
 30
0.0
  0
VERTEX
  8
LAYER_1
 10
-0.28
 20
10.047626
 30
0.0
  0
VERTEX
  8
LAYER_1
 10
-0.272736
 20
10.050106
 30
0.0
  0
VERTEX
  8
LAYER_1
 10
-0.265154
 20
10.05163
 30
0.0
  0
VERTEX
  8
LAYER_1
 10
-0.257331
 20
10.05215
 30
0.0
  0
VERTEX
  8
LAYER_1
 10
2.813535
 20
10.05215
 30
0.0
  0
VERTEX
  8
LAYER_1
 10
2.821358
 20
10.05163
 30
0.0
  0
VERTEX
  8
LAYER_1
 10
2.828941
 20
10.050106
 30
0.0
  0
VERTEX
  8
LAYER_1
 10
2.836205
 20
10.047626
 30
0.0
  0
VERTEX
  8
LAYER_1
 10
2.843059
 20
10.044236
 30
0.0
  0
VERTEX
  8
LAYER_1
 10
2.849421
 20
10.039996
 30
0.0
  0
VERTEX
  8
LAYER_1
 10
2.855201
 20
10.034945
 30
0.0
  0
VERTEX
  8
LAYER_1
 10
2.860315
 20
10.029138
 30
0.0
  0
VERTEX
  8
LAYER_1
 10
2.864677
 20
10.022622
 30
0.0
  0
VERTEX
  8
LAYER_1
 10
2.868138
 20
10.015587
 30
0.0
  0
VERTEX
  8
LAYER_1
 10
2.87061
 20
10.008256
 30
0.0
  0
VERTEX
  8
LAYER_1
 10
2.872094
 20
10.000724
 30
0.0
  0
VERTEX
  8
LAYER_1
 10
2.872587
 20
9.993094
 30
0.0
  0
VERTEX
  8
LAYER_1
 10
2.872094
 20
9.985465
 30
0.0
  0
VERTEX
  8
LAYER_1
 10
2.87061
 20
9.977933
 30
0.0
  0
VERTEX
  8
LAYER_1
 10
2.868138
 20
9.970602
 30
0.0
  0
VERTEX
  8
LAYER_1
 10
2.864677
 20
9.963567
 30
0.0
  0
VERTEX
  8
LAYER_1
 10
2.860315
 20
9.957051
 30
0.0
  0
VERTEX
  8
LAYER_1
 10
2.855201
 20
9.951244
 30
0.0
  0
VERTEX
  8
LAYER_1
 10
2.849421
 20
9.946193
 30
0.0
  0
VERTEX
  8
LAYER_1
 10
2.843059
 20
9.941953
 30
0.0
  0
VERTEX
  8
LAYER_1
 10
2.836205
 20
9.938563
 30
0.0
  0
VERTEX
  8
LAYER_1
 10
2.828941
 20
9.936083
 30
0.0
  0
VERTEX
  8
LAYER_1
 10
2.821358
 20
9.934559
 30
0.0
  0
SEQEND
  8
LAYER_1
  0
POLYLINE
  8
LAYER_1
 62
0
 70
1
 66
1
 10
0.0
 20
0.0
 30
0.0
  0
VERTEX
  8
LAYER_1
 10
-5.681933
 20
7.767114
 30
0.0
  0
VERTEX
  8
LAYER_1
 10
-5.683335
 20
7.781
 30
0.0
  0
VERTEX
  8
LAYER_1
 10
-5.687346
 20
7.793933
 30
0.0
  0
VERTEX
  8
LAYER_1
 10
-5.693701
 20
7.805634
 30
0.0
  0
VERTEX
  8
LAYER_1
 10
-5.702114
 20
7.815831
 30
0.0
  0
VERTEX
  8
LAYER_1
 10
-5.712307
 20
7.824244
 30
0.0
  0
VERTEX
  8
LAYER_1
 10
-5.724012
 20
7.830598
 30
0.0
  0
VERTEX
  8
LAYER_1
 10
-5.736941
 20
7.83461
 30
0.0
  0
VERTEX
  8
LAYER_1
 10
-5.750827
 20
7.836012
 30
0.0
  0
VERTEX
  8
LAYER_1
 10
-5.764713
 20
7.834614
 30
0.0
  0
VERTEX
  8
LAYER_1
 10
-5.777646
 20
7.830598
 30
0.0
  0
VERTEX
  8
LAYER_1
 10
-5.789346
 20
7.824248
 30
0.0
  0
VERTEX
  8
LAYER_1
 10
-5.799543
 20
7.815835
 30
0.0
  0
VERTEX
  8
LAYER_1
 10
-5.807957
 20
7.805638
 30
0.0
  0
VERTEX
  8
LAYER_1
 10
-5.814311
 20
7.793937
 30
0.0
  0
VERTEX
  8
LAYER_1
 10
-5.818323
 20
7.781004
 30
0.0
  0
VERTEX
  8
LAYER_1
 10
-5.819724
 20
7.767118
 30
0.0
  0
VERTEX
  8
LAYER_1
 10
-5.818327
 20
7.753232
 30
0.0
  0
VERTEX
  8
LAYER_1
 10
-5.814311
 20
7.740299
 30
0.0
  0
VERTEX
  8
LAYER_1
 10
-5.807961
 20
7.728598
 30
0.0
  0
VERTEX
  8
LAYER_1
 10
-5.799547
 20
7.718402
 30
0.0
  0
VERTEX
  8
LAYER_1
 10
-5.78935
 20
7.709988
 30
0.0
  0
VERTEX
  8
LAYER_1
 10
-5.77765
 20
7.703634
 30
0.0
  0
VERTEX
  8
LAYER_1
 10
-5.764717
 20
7.699622
 30
0.0
  0
VERTEX
  8
LAYER_1
 10
-5.750831
 20
7.69822
 30
0.0
  0
VERTEX
  8
LAYER_1
 10
-5.736945
 20
7.699618
 30
0.0
  0
VERTEX
  8
LAYER_1
 10
-5.724012
 20
7.703634
 30
0.0
  0
VERTEX
  8
LAYER_1
 10
-5.712311
 20
7.709984
 30
0.0
  0
VERTEX
  8
LAYER_1
 10
-5.702114
 20
7.718398
 30
0.0
  0
VERTEX
  8
LAYER_1
 10
-5.693701
 20
7.728594
 30
0.0
  0
VERTEX
  8
LAYER_1
 10
-5.687346
 20
7.740295
 30
0.0
  0
VERTEX
  8
LAYER_1
 10
-5.683335
 20
7.753228
 30
0.0
  0
SEQEND
  8
LAYER_1
  0
POLYLINE
  8
LAYER_1
 62
0
 70
1
 66
1
 10
0.0
 20
0.0
 30
0.0
  0
VERTEX
  8
LAYER_1
 10
-4.754142
 20
9.870795
 30
0.0
  0
VERTEX
  8
LAYER_1
 10
-4.810114
 20
9.92689
 30
0.0
  0
VERTEX
  8
LAYER_1
 10
-4.773799
 20
9.982484
 30
0.0
  0
VERTEX
  8
LAYER_1
 10
-4.747791
 20
10.042071
 30
0.0
  0
VERTEX
  8
LAYER_1
 10
-4.732094
 20
10.104327
 30
0.0
  0
VERTEX
  8
LAYER_1
 10
-4.72672
 20
10.167929
 30
0.0
  0
VERTEX
  8
LAYER_1
 10
-4.731677
 20
10.231563
 30
0.0
  0
VERTEX
  8
LAYER_1
 10
-4.746969
 20
10.293906
 30
0.0
  0
VERTEX
  8
LAYER_1
 10
-4.772606
 20
10.353634
 30
0.0
  0
VERTEX
  8
LAYER_1
 10
-4.808594
 20
10.409429
 30
0.0
  0
VERTEX
  8
LAYER_1
 10
-4.752476
 20
10.465429
 30
0.0
  0
VERTEX
  8
LAYER_1
 10
-4.70661
 20
10.39713
 30
0.0
  0
VERTEX
  8
LAYER_1
 10
-4.673929
 20
10.323598
 30
0.0
  0
VERTEX
  8
LAYER_1
 10
-4.654421
 20
10.246591
 30
0.0
  0
VERTEX
  8
LAYER_1
 10
-4.648075
 20
10.167862
 30
0.0
  0
VERTEX
  8
LAYER_1
 10
-4.654886
 20
10.089161
 30
0.0
  0
VERTEX
  8
LAYER_1
 10
-4.674839
 20
10.012252
 30
0.0
  0
VERTEX
  8
LAYER_1
 10
-4.707929
 20
9.938878
 30
0.0
  0
SEQEND
  8
LAYER_1
  0
POLYLINE
  8
LAYER_1
 62
0
 70
1
 66
1
 10
0.0
 20
0.0
 30
0.0
  0
VERTEX
  8
LAYER_1
 10
2.813535
 20
7.768689
 30
0.0
  0
VERTEX
  8
LAYER_1
 10
-0.257331
 20
7.768689
 30
0.0
  0
VERTEX
  8
LAYER_1
 10
-0.265154
 20
7.769209
 30
0.0
  0
VERTEX
  8
LAYER_1
 10
-0.272736
 20
7.770732
 30
0.0
  0
VERTEX
  8
LAYER_1
 10
-0.28
 20
7.773213
 30
0.0
  0
VERTEX
  8
LAYER_1
 10
-0.286854
 20
7.776602
 30
0.0
  0
VERTEX
  8
LAYER_1
 10
-0.293217
 20
7.780843
 30
0.0
  0
VERTEX
  8
LAYER_1
 10
-0.298996
 20
7.785894
 30
0.0
  0
VERTEX
  8
LAYER_1
 10
-0.30411
 20
7.791701
 30
0.0
  0
VERTEX
  8
LAYER_1
 10
-0.308472
 20
7.798217
 30
0.0
  0
VERTEX
  8
LAYER_1
 10
-0.311933
 20
7.805252
 30
0.0
  0
VERTEX
  8
LAYER_1
 10
-0.314406
 20
7.812583
 30
0.0
  0
VERTEX
  8
LAYER_1
 10
-0.31589
 20
7.820114
 30
0.0
  0
VERTEX
  8
LAYER_1
 10
-0.316382
 20
7.827744
 30
0.0
  0
VERTEX
  8
LAYER_1
 10
-0.31589
 20
7.835374
 30
0.0
  0
VERTEX
  8
LAYER_1
 10
-0.314406
 20
7.842906
 30
0.0
  0
VERTEX
  8
LAYER_1
 10
-0.311933
 20
7.850236
 30
0.0
  0
VERTEX
  8
LAYER_1
 10
-0.308472
 20
7.857272
 30
0.0
  0
VERTEX
  8
LAYER_1
 10
-0.30411
 20
7.863787
 30
0.0
  0
VERTEX
  8
LAYER_1
 10
-0.298996
 20
7.869594
 30
0.0
  0
VERTEX
  8
LAYER_1
 10
-0.293217
 20
7.874646
 30
0.0
  0
VERTEX
  8
LAYER_1
 10
-0.286854
 20
7.878886
 30
0.0
  0
VERTEX
  8
LAYER_1
 10
-0.28
 20
7.882276
 30
0.0
  0
VERTEX
  8
LAYER_1
 10
-0.272736
 20
7.884756
 30
0.0
  0
VERTEX
  8
LAYER_1
 10
-0.265154
 20
7.88628
 30
0.0
  0
VERTEX
  8
LAYER_1
 10
-0.257331
 20
7.886799
 30
0.0
  0
VERTEX
  8
LAYER_1
 10
2.813535
 20
7.886799
 30
0.0
  0
VERTEX
  8
LAYER_1
 10
2.821358
 20
7.88628
 30
0.0
  0
VERTEX
  8
LAYER_1
 10
2.828941
 20
7.884756
 30
0.0
  0
VERTEX
  8
LAYER_1
 10
2.836205
 20
7.882276
 30
0.0
  0
VERTEX
  8
LAYER_1
 10
2.843059
 20
7.878886
 30
0.0
  0
VERTEX
  8
LAYER_1
 10
2.849421
 20
7.874646
 30
0.0
  0
VERTEX
  8
LAYER_1
 10
2.855201
 20
7.869594
 30
0.0
  0
VERTEX
  8
LAYER_1
 10
2.860315
 20
7.863787
 30
0.0
  0
VERTEX
  8
LAYER_1
 10
2.864677
 20
7.857272
 30
0.0
  0
VERTEX
  8
LAYER_1
 10
2.868138
 20
7.850236
 30
0.0
  0
VERTEX
  8
LAYER_1
 10
2.87061
 20
7.842906
 30
0.0
  0
VERTEX
  8
LAYER_1
 10
2.872094
 20
7.835374
 30
0.0
  0
VERTEX
  8
LAYER_1
 10
2.872587
 20
7.827744
 30
0.0
  0
VERTEX
  8
LAYER_1
 10
2.872094
 20
7.820114
 30
0.0
  0
VERTEX
  8
LAYER_1
 10
2.87061
 20
7.812583
 30
0.0
  0
VERTEX
  8
LAYER_1
 10
2.868138
 20
7.805252
 30
0.0
  0
VERTEX
  8
LAYER_1
 10
2.864677
 20
7.798217
 30
0.0
  0
VERTEX
  8
LAYER_1
 10
2.860315
 20
7.791701
 30
0.0
  0
VERTEX
  8
LAYER_1
 10
2.855201
 20
7.785894
 30
0.0
  0
VERTEX
  8
LAYER_1
 10
2.849421
 20
7.780843
 30
0.0
  0
VERTEX
  8
LAYER_1
 10
2.843059
 20
7.776602
 30
0.0
  0
VERTEX
  8
LAYER_1
 10
2.836205
 20
7.773213
 30
0.0
  0
VERTEX
  8
LAYER_1
 10
2.828941
 20
7.770732
 30
0.0
  0
VERTEX
  8
LAYER_1
 10
2.821358
 20
7.769209
 30
0.0
  0
SEQEND
  8
LAYER_1
  0
POLYLINE
  8
LAYER_1
 62
0
 70
1
 66
1
 10
0.0
 20
0.0
 30
0.0
  0
VERTEX
  8
LAYER_1
 10
2.813535
 20
9.006031
 30
0.0
  0
VERTEX
  8
LAYER_1
 10
-0.257331
 20
9.006031
 30
0.0
  0
VERTEX
  8
LAYER_1
 10
-0.265154
 20
9.006551
 30
0.0
  0
VERTEX
  8
LAYER_1
 10
-0.272736
 20
9.008075
 30
0.0
  0
VERTEX
  8
LAYER_1
 10
-0.28
 20
9.010555
 30
0.0
  0
VERTEX
  8
LAYER_1
 10
-0.286854
 20
9.013945
 30
0.0
  0
VERTEX
  8
LAYER_1
 10
-0.293217
 20
9.018185
 30
0.0
  0
VERTEX
  8
LAYER_1
 10
-0.298996
 20
9.023236
 30
0.0
  0
VERTEX
  8
LAYER_1
 10
-0.30411
 20
9.029043
 30
0.0
  0
VERTEX
  8
LAYER_1
 10
-0.308472
 20
9.035559
 30
0.0
  0
VERTEX
  8
LAYER_1
 10
-0.311933
 20
9.042594
 30
0.0
  0
VERTEX
  8
LAYER_1
 10
-0.314406
 20
9.049925
 30
0.0
  0
VERTEX
  8
LAYER_1
 10
-0.31589
 20
9.057457
 30
0.0
  0
VERTEX
  8
LAYER_1
 10
-0.316382
 20
9.065087
 30
0.0
  0
VERTEX
  8
LAYER_1
 10
-0.31589
 20
9.072717
 30
0.0
  0
VERTEX
  8
LAYER_1
 10
-0.314406
 20
9.080248
 30
0.0
  0
VERTEX
  8
LAYER_1
 10
-0.311933
 20
9.087579
 30
0.0
  0
VERTEX
  8
LAYER_1
 10
-0.308472
 20
9.094614
 30
0.0
  0
VERTEX
  8
LAYER_1
 10
-0.30411
 20
9.10113
 30
0.0
  0
VERTEX
  8
LAYER_1
 10
-0.298996
 20
9.106937
 30
0.0
  0
VERTEX
  8
LAYER_1
 10
-0.293217
 20
9.111988
 30
0.0
  0
VERTEX
  8
LAYER_1
 10
-0.286854
 20
9.116228
 30
0.0
  0
VERTEX
  8
LAYER_1
 10
-0.28
 20
9.119618
 30
0.0
  0
VERTEX
  8
LAYER_1
 10
-0.272736
 20
9.122098
 30
0.0
  0
VERTEX
  8
LAYER_1
 10
-0.265154
 20
9.123622
 30
0.0
  0
VERTEX
  8
LAYER_1
 10
-0.257331
 20
9.124142
 30
0.0
  0
VERTEX
  8
LAYER_1
 10
2.813535
 20
9.124142
 30
0.0
  0
VERTEX
  8
LAYER_1
 10
2.821358
 20
9.123622
 30
0.0
  0
VERTEX
  8
LAYER_1
 10
2.828941
 20
9.122098
 30
0.0
  0
VERTEX
  8
LAYER_1
 10
2.836205
 20
9.119618
 30
0.0
  0
VERTEX
  8
LAYER_1
 10
2.843059
 20
9.116228
 30
0.0
  0
VERTEX
  8
LAYER_1
 10
2.849421
 20
9.111988
 30
0.0
  0
VERTEX
  8
LAYER_1
 10
2.855201
 20
9.106937
 30
0.0
  0
VERTEX
  8
LAYER_1
 10
2.860315
 20
9.10113
 30
0.0
  0
VERTEX
  8
LAYER_1
 10
2.864677
 20
9.094614
 30
0.0
  0
VERTEX
  8
LAYER_1
 10
2.868138
 20
9.087579
 30
0.0
  0
VERTEX
  8
LAYER_1
 10
2.87061
 20
9.080248
 30
0.0
  0
VERTEX
  8
LAYER_1
 10
2.872094
 20
9.072717
 30
0.0
  0
VERTEX
  8
LAYER_1
 10
2.872587
 20
9.065087
 30
0.0
  0
VERTEX
  8
LAYER_1
 10
2.872094
 20
9.057457
 30
0.0
  0
VERTEX
  8
LAYER_1
 10
2.87061
 20
9.049925
 30
0.0
  0
VERTEX
  8
LAYER_1
 10
2.868138
 20
9.042594
 30
0.0
  0
VERTEX
  8
LAYER_1
 10
2.864677
 20
9.035559
 30
0.0
  0
VERTEX
  8
LAYER_1
 10
2.860315
 20
9.029043
 30
0.0
  0
VERTEX
  8
LAYER_1
 10
2.855201
 20
9.023236
 30
0.0
  0
VERTEX
  8
LAYER_1
 10
2.849421
 20
9.018185
 30
0.0
  0
VERTEX
  8
LAYER_1
 10
2.843059
 20
9.013945
 30
0.0
  0
VERTEX
  8
LAYER_1
 10
2.836205
 20
9.010555
 30
0.0
  0
VERTEX
  8
LAYER_1
 10
2.828941
 20
9.008075
 30
0.0
  0
VERTEX
  8
LAYER_1
 10
2.821358
 20
9.006551
 30
0.0
  0
SEQEND
  8
LAYER_1
  0
POLYLINE
  8
LAYER_1
 62
0
 70
1
 66
1
 10
0.0
 20
0.0
 30
0.0
  0
VERTEX
  8
LAYER_1
 10
2.813535
 20
7.459354
 30
0.0
  0
VERTEX
  8
LAYER_1
 10
-0.257331
 20
7.459354
 30
0.0
  0
VERTEX
  8
LAYER_1
 10
-0.265154
 20
7.459874
 30
0.0
  0
VERTEX
  8
LAYER_1
 10
-0.272736
 20
7.461398
 30
0.0
  0
VERTEX
  8
LAYER_1
 10
-0.28
 20
7.463878
 30
0.0
  0
VERTEX
  8
LAYER_1
 10
-0.286854
 20
7.467268
 30
0.0
  0
VERTEX
  8
LAYER_1
 10
-0.293217
 20
7.471508
 30
0.0
  0
VERTEX
  8
LAYER_1
 10
-0.298996
 20
7.476559
 30
0.0
  0
VERTEX
  8
LAYER_1
 10
-0.30411
 20
7.482366
 30
0.0
  0
VERTEX
  8
LAYER_1
 10
-0.308472
 20
7.488882
 30
0.0
  0
VERTEX
  8
LAYER_1
 10
-0.311933
 20
7.495917
 30
0.0
  0
VERTEX
  8
LAYER_1
 10
-0.314406
 20
7.503248
 30
0.0
  0
VERTEX
  8
LAYER_1
 10
-0.31589
 20
7.51078
 30
0.0
  0
VERTEX
  8
LAYER_1
 10
-0.316382
 20
7.518409
 30
0.0
  0
VERTEX
  8
LAYER_1
 10
-0.31589
 20
7.526039
 30
0.0
  0
VERTEX
  8
LAYER_1
 10
-0.314406
 20
7.533571
 30
0.0
  0
VERTEX
  8
LAYER_1
 10
-0.311933
 20
7.540902
 30
0.0
  0
VERTEX
  8
LAYER_1
 10
-0.308472
 20
7.547937
 30
0.0
  0
VERTEX
  8
LAYER_1
 10
-0.30411
 20
7.554453
 30
0.0
  0
VERTEX
  8
LAYER_1
 10
-0.298996
 20
7.56026
 30
0.0
  0
VERTEX
  8
LAYER_1
 10
-0.293217
 20
7.565311
 30
0.0
  0
VERTEX
  8
LAYER_1
 10
-0.286854
 20
7.569551
 30
0.0
  0
VERTEX
  8
LAYER_1
 10
-0.28
 20
7.572941
 30
0.0
  0
VERTEX
  8
LAYER_1
 10
-0.272736
 20
7.575421
 30
0.0
  0
VERTEX
  8
LAYER_1
 10
-0.265154
 20
7.576945
 30
0.0
  0
VERTEX
  8
LAYER_1
 10
-0.257331
 20
7.577465
 30
0.0
  0
VERTEX
  8
LAYER_1
 10
2.813535
 20
7.577465
 30
0.0
  0
VERTEX
  8
LAYER_1
 10
2.821358
 20
7.576945
 30
0.0
  0
VERTEX
  8
LAYER_1
 10
2.828941
 20
7.575421
 30
0.0
  0
VERTEX
  8
LAYER_1
 10
2.836205
 20
7.572941
 30
0.0
  0
VERTEX
  8
LAYER_1
 10
2.843059
 20
7.569551
 30
0.0
  0
VERTEX
  8
LAYER_1
 10
2.849421
 20
7.565311
 30
0.0
  0
VERTEX
  8
LAYER_1
 10
2.855201
 20
7.56026
 30
0.0
  0
VERTEX
  8
LAYER_1
 10
2.860315
 20
7.554453
 30
0.0
  0
VERTEX
  8
LAYER_1
 10
2.864677
 20
7.547937
 30
0.0
  0
VERTEX
  8
LAYER_1
 10
2.868138
 20
7.540902
 30
0.0
  0
VERTEX
  8
LAYER_1
 10
2.87061
 20
7.533571
 30
0.0
  0
VERTEX
  8
LAYER_1
 10
2.872094
 20
7.526039
 30
0.0
  0
VERTEX
  8
LAYER_1
 10
2.872587
 20
7.518409
 30
0.0
  0
VERTEX
  8
LAYER_1
 10
2.872094
 20
7.51078
 30
0.0
  0
VERTEX
  8
LAYER_1
 10
2.87061
 20
7.503248
 30
0.0
  0
VERTEX
  8
LAYER_1
 10
2.868138
 20
7.495917
 30
0.0
  0
VERTEX
  8
LAYER_1
 10
2.864677
 20
7.488882
 30
0.0
  0
VERTEX
  8
LAYER_1
 10
2.860315
 20
7.482366
 30
0.0
  0
VERTEX
  8
LAYER_1
 10
2.855201
 20
7.476559
 30
0.0
  0
VERTEX
  8
LAYER_1
 10
2.849421
 20
7.471508
 30
0.0
  0
VERTEX
  8
LAYER_1
 10
2.843059
 20
7.467268
 30
0.0
  0
VERTEX
  8
LAYER_1
 10
2.836205
 20
7.463878
 30
0.0
  0
VERTEX
  8
LAYER_1
 10
2.828941
 20
7.461398
 30
0.0
  0
VERTEX
  8
LAYER_1
 10
2.821358
 20
7.459874
 30
0.0
  0
SEQEND
  8
LAYER_1
  0
POLYLINE
  8
LAYER_1
 62
0
 70
1
 66
1
 10
0.0
 20
0.0
 30
0.0
  0
VERTEX
  8
LAYER_1
 10
-4.642465
 20
9.758874
 30
0.0
  0
VERTEX
  8
LAYER_1
 10
-4.698272
 20
9.814803
 30
0.0
  0
VERTEX
  8
LAYER_1
 10
-4.64202
 20
9.895406
 30
0.0
  0
VERTEX
  8
LAYER_1
 10
-4.601752
 20
9.982551
 30
0.0
  0
VERTEX
  8
LAYER_1
 10
-4.577476
 20
10.074067
 30
0.0
  0
VERTEX
  8
LAYER_1
 10
-4.569213
 20
10.167787
 30
0.0
  0
VERTEX
  8
LAYER_1
 10
-4.576969
 20
10.261543
 30
0.0
  0
VERTEX
  8
LAYER_1
 10
-4.600752
 20
10.353161
 30
0.0
  0
VERTEX
  8
LAYER_1
 10
-4.640583
 20
10.440476
 30
0.0
  0
VERTEX
  8
LAYER_1
 10
-4.696465
 20
10.521315
 30
0.0
  0
VERTEX
  8
LAYER_1
 10
-4.640524
 20
10.577134
 30
0.0
  0
VERTEX
  8
LAYER_1
 10
-4.574713
 20
10.483894
 30
0.0
  0
VERTEX
  8
LAYER_1
 10
-4.527799
 20
10.382831
 30
0.0
  0
VERTEX
  8
LAYER_1
 10
-4.499776
 20
10.276567
 30
0.0
  0
VERTEX
  8
LAYER_1
 10
-4.490622
 20
10.167717
 30
0.0
  0
VERTEX
  8
LAYER_1
 10
-4.500327
 20
10.058902
 30
0.0
  0
VERTEX
  8
LAYER_1
 10
-4.528882
 20
9.952744
 30
0.0
  0
VERTEX
  8
LAYER_1
 10
-4.576264
 20
9.851862
 30
0.0
  0
SEQEND
  8
LAYER_1
  0
POLYLINE
  8
LAYER_1
 62
0
 70
1
 66
1
 10
0.0
 20
0.0
 30
0.0
  0
VERTEX
  8
LAYER_1
 10
2.813535
 20
9.315366
 30
0.0
  0
VERTEX
  8
LAYER_1
 10
-0.257331
 20
9.315366
 30
0.0
  0
VERTEX
  8
LAYER_1
 10
-0.265154
 20
9.315886
 30
0.0
  0
VERTEX
  8
LAYER_1
 10
-0.272736
 20
9.317409
 30
0.0
  0
VERTEX
  8
LAYER_1
 10
-0.28
 20
9.31989
 30
0.0
  0
VERTEX
  8
LAYER_1
 10
-0.286854
 20
9.32328
 30
0.0
  0
VERTEX
  8
LAYER_1
 10
-0.293217
 20
9.32752
 30
0.0
  0
VERTEX
  8
LAYER_1
 10
-0.298996
 20
9.332571
 30
0.0
  0
VERTEX
  8
LAYER_1
 10
-0.30411
 20
9.338378
 30
0.0
  0
VERTEX
  8
LAYER_1
 10
-0.308472
 20
9.344894
 30
0.0
  0
VERTEX
  8
LAYER_1
 10
-0.311933
 20
9.351929
 30
0.0
  0
VERTEX
  8
LAYER_1
 10
-0.314406
 20
9.35926
 30
0.0
  0
VERTEX
  8
LAYER_1
 10
-0.31589
 20
9.366791
 30
0.0
  0
VERTEX
  8
LAYER_1
 10
-0.316382
 20
9.374421
 30
0.0
  0
VERTEX
  8
LAYER_1
 10
-0.31589
 20
9.382051
 30
0.0
  0
VERTEX
  8
LAYER_1
 10
-0.314406
 20
9.389583
 30
0.0
  0
VERTEX
  8
LAYER_1
 10
-0.311933
 20
9.396913
 30
0.0
  0
VERTEX
  8
LAYER_1
 10
-0.308472
 20
9.403949
 30
0.0
  0
VERTEX
  8
LAYER_1
 10
-0.30411
 20
9.410465
 30
0.0
  0
VERTEX
  8
LAYER_1
 10
-0.298996
 20
9.416272
 30
0.0
  0
VERTEX
  8
LAYER_1
 10
-0.293217
 20
9.421323
 30
0.0
  0
VERTEX
  8
LAYER_1
 10
-0.286854
 20
9.425563
 30
0.0
  0
VERTEX
  8
LAYER_1
 10
-0.28
 20
9.428953
 30
0.0
  0
VERTEX
  8
LAYER_1
 10
-0.272736
 20
9.431433
 30
0.0
  0
VERTEX
  8
LAYER_1
 10
-0.265154
 20
9.432957
 30
0.0
  0
VERTEX
  8
LAYER_1
 10
-0.257331
 20
9.433476
 30
0.0
  0
VERTEX
  8
LAYER_1
 10
2.813535
 20
9.433476
 30
0.0
  0
VERTEX
  8
LAYER_1
 10
2.821358
 20
9.432957
 30
0.0
  0
VERTEX
  8
LAYER_1
 10
2.828941
 20
9.431433
 30
0.0
  0
VERTEX
  8
LAYER_1
 10
2.836205
 20
9.428953
 30
0.0
  0
VERTEX
  8
LAYER_1
 10
2.843059
 20
9.425563
 30
0.0
  0
VERTEX
  8
LAYER_1
 10
2.849421
 20
9.421323
 30
0.0
  0
VERTEX
  8
LAYER_1
 10
2.855201
 20
9.416272
 30
0.0
  0
VERTEX
  8
LAYER_1
 10
2.860315
 20
9.410465
 30
0.0
  0
VERTEX
  8
LAYER_1
 10
2.864677
 20
9.403949
 30
0.0
  0
VERTEX
  8
LAYER_1
 10
2.868138
 20
9.396913
 30
0.0
  0
VERTEX
  8
LAYER_1
 10
2.87061
 20
9.389583
 30
0.0
  0
VERTEX
  8
LAYER_1
 10
2.872094
 20
9.382051
 30
0.0
  0
VERTEX
  8
LAYER_1
 10
2.872587
 20
9.374421
 30
0.0
  0
VERTEX
  8
LAYER_1
 10
2.872094
 20
9.366791
 30
0.0
  0
VERTEX
  8
LAYER_1
 10
2.87061
 20
9.35926
 30
0.0
  0
VERTEX
  8
LAYER_1
 10
2.868138
 20
9.351929
 30
0.0
  0
VERTEX
  8
LAYER_1
 10
2.864677
 20
9.344894
 30
0.0
  0
VERTEX
  8
LAYER_1
 10
2.860315
 20
9.338378
 30
0.0
  0
VERTEX
  8
LAYER_1
 10
2.855201
 20
9.332571
 30
0.0
  0
VERTEX
  8
LAYER_1
 10
2.849421
 20
9.32752
 30
0.0
  0
VERTEX
  8
LAYER_1
 10
2.843059
 20
9.32328
 30
0.0
  0
VERTEX
  8
LAYER_1
 10
2.836205
 20
9.31989
 30
0.0
  0
VERTEX
  8
LAYER_1
 10
2.828941
 20
9.317409
 30
0.0
  0
VERTEX
  8
LAYER_1
 10
2.821358
 20
9.315886
 30
0.0
  0
SEQEND
  8
LAYER_1
  0
POLYLINE
  8
LAYER_1
 62
0
 70
1
 66
1
 10
0.0
 20
0.0
 30
0.0
  0
VERTEX
  8
LAYER_1
 10
2.813535
 20
8.078028
 30
0.0
  0
VERTEX
  8
LAYER_1
 10
-0.257331
 20
8.078028
 30
0.0
  0
VERTEX
  8
LAYER_1
 10
-0.265154
 20
8.078547
 30
0.0
  0
VERTEX
  8
LAYER_1
 10
-0.272736
 20
8.080071
 30
0.0
  0
VERTEX
  8
LAYER_1
 10
-0.28
 20
8.082551
 30
0.0
  0
VERTEX
  8
LAYER_1
 10
-0.286854
 20
8.085941
 30
0.0
  0
VERTEX
  8
LAYER_1
 10
-0.293217
 20
8.090181
 30
0.0
  0
VERTEX
  8
LAYER_1
 10
-0.298996
 20
8.095232
 30
0.0
  0
VERTEX
  8
LAYER_1
 10
-0.30411
 20
8.101039
 30
0.0
  0
VERTEX
  8
LAYER_1
 10
-0.308472
 20
8.107555
 30
0.0
  0
VERTEX
  8
LAYER_1
 10
-0.311933
 20
8.114591
 30
0.0
  0
VERTEX
  8
LAYER_1
 10
-0.314406
 20
8.121921
 30
0.0
  0
VERTEX
  8
LAYER_1
 10
-0.31589
 20
8.129453
 30
0.0
  0
VERTEX
  8
LAYER_1
 10
-0.316382
 20
8.137083
 30
0.0
  0
VERTEX
  8
LAYER_1
 10
-0.31589
 20
8.144713
 30
0.0
  0
VERTEX
  8
LAYER_1
 10
-0.314406
 20
8.152244
 30
0.0
  0
VERTEX
  8
LAYER_1
 10
-0.311933
 20
8.159575
 30
0.0
  0
VERTEX
  8
LAYER_1
 10
-0.308472
 20
8.16661
 30
0.0
  0
VERTEX
  8
LAYER_1
 10
-0.30411
 20
8.173126
 30
0.0
  0
VERTEX
  8
LAYER_1
 10
-0.298996
 20
8.178933
 30
0.0
  0
VERTEX
  8
LAYER_1
 10
-0.293217
 20
8.183984
 30
0.0
  0
VERTEX
  8
LAYER_1
 10
-0.286854
 20
8.188224
 30
0.0
  0
VERTEX
  8
LAYER_1
 10
-0.28
 20
8.191614
 30
0.0
  0
VERTEX
  8
LAYER_1
 10
-0.272736
 20
8.194094
 30
0.0
  0
VERTEX
  8
LAYER_1
 10
-0.265154
 20
8.195618
 30
0.0
  0
VERTEX
  8
LAYER_1
 10
-0.257331
 20
8.196138
 30
0.0
  0
VERTEX
  8
LAYER_1
 10
2.813535
 20
8.196138
 30
0.0
  0
VERTEX
  8
LAYER_1
 10
2.821358
 20
8.195618
 30
0.0
  0
VERTEX
  8
LAYER_1
 10
2.828941
 20
8.194094
 30
0.0
  0
VERTEX
  8
LAYER_1
 10
2.836205
 20
8.191614
 30
0.0
  0
VERTEX
  8
LAYER_1
 10
2.843059
 20
8.188224
 30
0.0
  0
VERTEX
  8
LAYER_1
 10
2.849421
 20
8.183984
 30
0.0
  0
VERTEX
  8
LAYER_1
 10
2.855201
 20
8.178933
 30
0.0
  0
VERTEX
  8
LAYER_1
 10
2.860315
 20
8.173126
 30
0.0
  0
VERTEX
  8
LAYER_1
 10
2.864677
 20
8.16661
 30
0.0
  0
VERTEX
  8
LAYER_1
 10
2.868138
 20
8.159575
 30
0.0
  0
VERTEX
  8
LAYER_1
 10
2.87061
 20
8.152244
 30
0.0
  0
VERTEX
  8
LAYER_1
 10
2.872094
 20
8.144713
 30
0.0
  0
VERTEX
  8
LAYER_1
 10
2.872587
 20
8.137083
 30
0.0
  0
VERTEX
  8
LAYER_1
 10
2.872094
 20
8.129453
 30
0.0
  0
VERTEX
  8
LAYER_1
 10
2.87061
 20
8.121921
 30
0.0
  0
VERTEX
  8
LAYER_1
 10
2.868138
 20
8.114591
 30
0.0
  0
VERTEX
  8
LAYER_1
 10
2.864677
 20
8.107555
 30
0.0
  0
VERTEX
  8
LAYER_1
 10
2.860315
 20
8.101039
 30
0.0
  0
VERTEX
  8
LAYER_1
 10
2.855201
 20
8.095232
 30
0.0
  0
VERTEX
  8
LAYER_1
 10
2.849421
 20
8.090181
 30
0.0
  0
VERTEX
  8
LAYER_1
 10
2.843059
 20
8.085941
 30
0.0
  0
VERTEX
  8
LAYER_1
 10
2.836205
 20
8.082551
 30
0.0
  0
VERTEX
  8
LAYER_1
 10
2.828941
 20
8.080071
 30
0.0
  0
VERTEX
  8
LAYER_1
 10
2.821358
 20
8.078547
 30
0.0
  0
SEQEND
  8
LAYER_1
  0
POLYLINE
  8
LAYER_1
 62
0
 70
1
 66
1
 10
0.0
 20
0.0
 30
0.0
  0
VERTEX
  8
LAYER_1
 10
2.813535
 20
8.387362
 30
0.0
  0
VERTEX
  8
LAYER_1
 10
-0.257331
 20
8.387362
 30
0.0
  0
VERTEX
  8
LAYER_1
 10
-0.265154
 20
8.387882
 30
0.0
  0
VERTEX
  8
LAYER_1
 10
-0.272736
 20
8.389406
 30
0.0
  0
VERTEX
  8
LAYER_1
 10
-0.28
 20
8.391886
 30
0.0
  0
VERTEX
  8
LAYER_1
 10
-0.286854
 20
8.395276
 30
0.0
  0
VERTEX
  8
LAYER_1
 10
-0.293217
 20
8.399516
 30
0.0
  0
VERTEX
  8
LAYER_1
 10
-0.298996
 20
8.404567
 30
0.0
  0
VERTEX
  8
LAYER_1
 10
-0.30411
 20
8.410374
 30
0.0
  0
VERTEX
  8
LAYER_1
 10
-0.308472
 20
8.41689
 30
0.0
  0
VERTEX
  8
LAYER_1
 10
-0.311933
 20
8.423925
 30
0.0
  0
VERTEX
  8
LAYER_1
 10
-0.314406
 20
8.431256
 30
0.0
  0
VERTEX
  8
LAYER_1
 10
-0.31589
 20
8.438787
 30
0.0
  0
VERTEX
  8
LAYER_1
 10
-0.316382
 20
8.446417
 30
0.0
  0
VERTEX
  8
LAYER_1
 10
-0.31589
 20
8.454047
 30
0.0
  0
VERTEX
  8
LAYER_1
 10
-0.314406
 20
8.461579
 30
0.0
  0
VERTEX
  8
LAYER_1
 10
-0.311933
 20
8.468909
 30
0.0
  0
VERTEX
  8
LAYER_1
 10
-0.308472
 20
8.475945
 30
0.0
  0
VERTEX
  8
LAYER_1
 10
-0.30411
 20
8.482461
 30
0.0
  0
VERTEX
  8
LAYER_1
 10
-0.298996
 20
8.488268
 30
0.0
  0
VERTEX
  8
LAYER_1
 10
-0.293217
 20
8.493319
 30
0.0
  0
VERTEX
  8
LAYER_1
 10
-0.286854
 20
8.497559
 30
0.0
  0
VERTEX
  8
LAYER_1
 10
-0.28
 20
8.500949
 30
0.0
  0
VERTEX
  8
LAYER_1
 10
-0.272736
 20
8.503429
 30
0.0
  0
VERTEX
  8
LAYER_1
 10
-0.265154
 20
8.504953
 30
0.0
  0
VERTEX
  8
LAYER_1
 10
-0.257331
 20
8.505472
 30
0.0
  0
VERTEX
  8
LAYER_1
 10
2.813535
 20
8.505472
 30
0.0
  0
VERTEX
  8
LAYER_1
 10
2.821358
 20
8.504953
 30
0.0
  0
VERTEX
  8
LAYER_1
 10
2.828941
 20
8.503429
 30
0.0
  0
VERTEX
  8
LAYER_1
 10
2.836205
 20
8.500949
 30
0.0
  0
VERTEX
  8
LAYER_1
 10
2.843059
 20
8.497559
 30
0.0
  0
VERTEX
  8
LAYER_1
 10
2.849421
 20
8.493319
 30
0.0
  0
VERTEX
  8
LAYER_1
 10
2.855201
 20
8.488268
 30
0.0
  0
VERTEX
  8
LAYER_1
 10
2.860315
 20
8.482461
 30
0.0
  0
VERTEX
  8
LAYER_1
 10
2.864677
 20
8.475945
 30
0.0
  0
VERTEX
  8
LAYER_1
 10
2.868138
 20
8.468909
 30
0.0
  0
VERTEX
  8
LAYER_1
 10
2.87061
 20
8.461579
 30
0.0
  0
VERTEX
  8
LAYER_1
 10
2.872094
 20
8.454047
 30
0.0
  0
VERTEX
  8
LAYER_1
 10
2.872587
 20
8.446417
 30
0.0
  0
VERTEX
  8
LAYER_1
 10
2.872094
 20
8.438787
 30
0.0
  0
VERTEX
  8
LAYER_1
 10
2.87061
 20
8.431256
 30
0.0
  0
VERTEX
  8
LAYER_1
 10
2.868138
 20
8.423925
 30
0.0
  0
VERTEX
  8
LAYER_1
 10
2.864677
 20
8.41689
 30
0.0
  0
VERTEX
  8
LAYER_1
 10
2.860315
 20
8.410374
 30
0.0
  0
VERTEX
  8
LAYER_1
 10
2.855201
 20
8.404567
 30
0.0
  0
VERTEX
  8
LAYER_1
 10
2.849421
 20
8.399516
 30
0.0
  0
VERTEX
  8
LAYER_1
 10
2.843059
 20
8.395276
 30
0.0
  0
VERTEX
  8
LAYER_1
 10
2.836205
 20
8.391886
 30
0.0
  0
VERTEX
  8
LAYER_1
 10
2.828941
 20
8.389406
 30
0.0
  0
VERTEX
  8
LAYER_1
 10
2.821358
 20
8.387882
 30
0.0
  0
SEQEND
  8
LAYER_1
  0
POLYLINE
  8
LAYER_1
 62
0
 70
1
 66
1
 10
0.0
 20
0.0
 30
0.0
  0
VERTEX
  8
LAYER_1
 10
2.813535
 20
7.150016
 30
0.0
  0
VERTEX
  8
LAYER_1
 10
-0.257331
 20
7.150016
 30
0.0
  0
VERTEX
  8
LAYER_1
 10
-0.265154
 20
7.150535
 30
0.0
  0
VERTEX
  8
LAYER_1
 10
-0.272736
 20
7.152059
 30
0.0
  0
VERTEX
  8
LAYER_1
 10
-0.28
 20
7.154539
 30
0.0
  0
VERTEX
  8
LAYER_1
 10
-0.286854
 20
7.157929
 30
0.0
  0
VERTEX
  8
LAYER_1
 10
-0.293217
 20
7.162169
 30
0.0
  0
VERTEX
  8
LAYER_1
 10
-0.298996
 20
7.16722
 30
0.0
  0
VERTEX
  8
LAYER_1
 10
-0.30411
 20
7.173028
 30
0.0
  0
VERTEX
  8
LAYER_1
 10
-0.308472
 20
7.179543
 30
0.0
  0
VERTEX
  8
LAYER_1
 10
-0.311933
 20
7.186579
 30
0.0
  0
VERTEX
  8
LAYER_1
 10
-0.314406
 20
7.193909
 30
0.0
  0
VERTEX
  8
LAYER_1
 10
-0.31589
 20
7.201441
 30
0.0
  0
VERTEX
  8
LAYER_1
 10
-0.316382
 20
7.209071
 30
0.0
  0
VERTEX
  8
LAYER_1
 10
-0.31589
 20
7.216701
 30
0.0
  0
VERTEX
  8
LAYER_1
 10
-0.314406
 20
7.224232
 30
0.0
  0
VERTEX
  8
LAYER_1
 10
-0.311933
 20
7.231563
 30
0.0
  0
VERTEX
  8
LAYER_1
 10
-0.308472
 20
7.238598
 30
0.0
  0
VERTEX
  8
LAYER_1
 10
-0.30411
 20
7.245114
 30
0.0
  0
VERTEX
  8
LAYER_1
 10
-0.298996
 20
7.250921
 30
0.0
  0
VERTEX
  8
LAYER_1
 10
-0.293217
 20
7.255972
 30
0.0
  0
VERTEX
  8
LAYER_1
 10
-0.286854
 20
7.260213
 30
0.0
  0
VERTEX
  8
LAYER_1
 10
-0.28
 20
7.263602
 30
0.0
  0
VERTEX
  8
LAYER_1
 10
-0.272736
 20
7.266083
 30
0.0
  0
VERTEX
  8
LAYER_1
 10
-0.265154
 20
7.267606
 30
0.0
  0
VERTEX
  8
LAYER_1
 10
-0.257331
 20
7.268126
 30
0.0
  0
VERTEX
  8
LAYER_1
 10
2.813535
 20
7.268126
 30
0.0
  0
VERTEX
  8
LAYER_1
 10
2.821358
 20
7.267606
 30
0.0
  0
VERTEX
  8
LAYER_1
 10
2.828941
 20
7.266083
 30
0.0
  0
VERTEX
  8
LAYER_1
 10
2.836205
 20
7.263602
 30
0.0
  0
VERTEX
  8
LAYER_1
 10
2.843059
 20
7.260213
 30
0.0
  0
VERTEX
  8
LAYER_1
 10
2.849421
 20
7.255972
 30
0.0
  0
VERTEX
  8
LAYER_1
 10
2.855201
 20
7.250921
 30
0.0
  0
VERTEX
  8
LAYER_1
 10
2.860315
 20
7.245114
 30
0.0
  0
VERTEX
  8
LAYER_1
 10
2.864677
 20
7.238598
 30
0.0
  0
VERTEX
  8
LAYER_1
 10
2.868138
 20
7.231563
 30
0.0
  0
VERTEX
  8
LAYER_1
 10
2.87061
 20
7.224232
 30
0.0
  0
VERTEX
  8
LAYER_1
 10
2.872094
 20
7.216701
 30
0.0
  0
VERTEX
  8
LAYER_1
 10
2.872587
 20
7.209071
 30
0.0
  0
VERTEX
  8
LAYER_1
 10
2.872094
 20
7.201441
 30
0.0
  0
VERTEX
  8
LAYER_1
 10
2.87061
 20
7.193909
 30
0.0
  0
VERTEX
  8
LAYER_1
 10
2.868138
 20
7.186579
 30
0.0
  0
VERTEX
  8
LAYER_1
 10
2.864677
 20
7.179543
 30
0.0
  0
VERTEX
  8
LAYER_1
 10
2.860315
 20
7.173028
 30
0.0
  0
VERTEX
  8
LAYER_1
 10
2.855201
 20
7.16722
 30
0.0
  0
VERTEX
  8
LAYER_1
 10
2.849421
 20
7.162169
 30
0.0
  0
VERTEX
  8
LAYER_1
 10
2.843059
 20
7.157929
 30
0.0
  0
VERTEX
  8
LAYER_1
 10
2.836205
 20
7.154539
 30
0.0
  0
VERTEX
  8
LAYER_1
 10
2.828941
 20
7.152059
 30
0.0
  0
VERTEX
  8
LAYER_1
 10
2.821358
 20
7.150535
 30
0.0
  0
SEQEND
  8
LAYER_1
  0
POLYLINE
  8
LAYER_1
 62
0
 70
1
 66
1
 10
0.0
 20
0.0
 30
0.0
  0
VERTEX
  8
LAYER_1
 10
-5.473874
 20
10.592098
 30
0.0
  0
VERTEX
  8
LAYER_1
 10
-5.529681
 20
10.648028
 30
0.0
  0
VERTEX
  8
LAYER_1
 10
-5.436382
 20
10.714213
 30
0.0
  0
VERTEX
  8
LAYER_1
 10
-5.335193
 20
10.761421
 30
0.0
  0
VERTEX
  8
LAYER_1
 10
-5.228744
 20
10.789673
 30
0.0
  0
VERTEX
  8
LAYER_1
 10
-5.119673
 20
10.798976
 30
0.0
  0
VERTEX
  8
LAYER_1
 10
-5.010622
 20
10.789339
 30
0.0
  0
VERTEX
  8
LAYER_1
 10
-4.904224
 20
10.760776
 30
0.0
  0
VERTEX
  8
LAYER_1
 10
-4.803118
 20
10.713299
 30
0.0
  0
VERTEX
  8
LAYER_1
 10
-4.709937
 20
10.646917
 30
0.0
  0
VERTEX
  8
LAYER_1
 10
-4.765862
 20
10.59111
 30
0.0
  0
VERTEX
  8
LAYER_1
 10
-4.846657
 20
10.647543
 30
0.0
  0
VERTEX
  8
LAYER_1
 10
-4.934031
 20
10.687906
 30
0.0
  0
VERTEX
  8
LAYER_1
 10
-5.025787
 20
10.712189
 30
0.0
  0
VERTEX
  8
LAYER_1
 10
-5.119744
 20
10.720386
 30
0.0
  0
VERTEX
  8
LAYER_1
 10
-5.21372
 20
10.712484
 30
0.0
  0
VERTEX
  8
LAYER_1
 10
-5.305524
 20
10.688476
 30
0.0
  0
VERTEX
  8
LAYER_1
 10
-5.392969
 20
10.64835
 30
0.0
  0
SEQEND
  8
LAYER_1
  0
POLYLINE
  8
LAYER_1
 62
0
 70
1
 66
1
 10
0.0
 20
0.0
 30
0.0
  0
VERTEX
  8
LAYER_1
 10
2.813535
 20
6.840681
 30
0.0
  0
VERTEX
  8
LAYER_1
 10
-0.257331
 20
6.840681
 30
0.0
  0
VERTEX
  8
LAYER_1
 10
-0.265154
 20
6.841201
 30
0.0
  0
VERTEX
  8
LAYER_1
 10
-0.272736
 20
6.842724
 30
0.0
  0
VERTEX
  8
LAYER_1
 10
-0.28
 20
6.845205
 30
0.0
  0
VERTEX
  8
LAYER_1
 10
-0.286854
 20
6.848594
 30
0.0
  0
VERTEX
  8
LAYER_1
 10
-0.293217
 20
6.852835
 30
0.0
  0
VERTEX
  8
LAYER_1
 10
-0.298996
 20
6.857886
 30
0.0
  0
VERTEX
  8
LAYER_1
 10
-0.30411
 20
6.863693
 30
0.0
  0
VERTEX
  8
LAYER_1
 10
-0.308472
 20
6.870209
 30
0.0
  0
VERTEX
  8
LAYER_1
 10
-0.311933
 20
6.877244
 30
0.0
  0
VERTEX
  8
LAYER_1
 10
-0.314406
 20
6.884575
 30
0.0
  0
VERTEX
  8
LAYER_1
 10
-0.31589
 20
6.892106
 30
0.0
  0
VERTEX
  8
LAYER_1
 10
-0.316382
 20
6.899736
 30
0.0
  0
VERTEX
  8
LAYER_1
 10
-0.31589
 20
6.907366
 30
0.0
  0
VERTEX
  8
LAYER_1
 10
-0.314406
 20
6.914898
 30
0.0
  0
VERTEX
  8
LAYER_1
 10
-0.311933
 20
6.922228
 30
0.0
  0
VERTEX
  8
LAYER_1
 10
-0.308472
 20
6.929264
 30
0.0
  0
VERTEX
  8
LAYER_1
 10
-0.30411
 20
6.93578
 30
0.0
  0
VERTEX
  8
LAYER_1
 10
-0.298996
 20
6.941587
 30
0.0
  0
VERTEX
  8
LAYER_1
 10
-0.293217
 20
6.946638
 30
0.0
  0
VERTEX
  8
LAYER_1
 10
-0.286854
 20
6.950878
 30
0.0
  0
VERTEX
  8
LAYER_1
 10
-0.28
 20
6.954268
 30
0.0
  0
VERTEX
  8
LAYER_1
 10
-0.272736
 20
6.956748
 30
0.0
  0
VERTEX
  8
LAYER_1
 10
-0.265154
 20
6.958272
 30
0.0
  0
VERTEX
  8
LAYER_1
 10
-0.257331
 20
6.958791
 30
0.0
  0
VERTEX
  8
LAYER_1
 10
2.813535
 20
6.958791
 30
0.0
  0
VERTEX
  8
LAYER_1
 10
2.821358
 20
6.958272
 30
0.0
  0
VERTEX
  8
LAYER_1
 10
2.828941
 20
6.956748
 30
0.0
  0
VERTEX
  8
LAYER_1
 10
2.836205
 20
6.954268
 30
0.0
  0
VERTEX
  8
LAYER_1
 10
2.843059
 20
6.950878
 30
0.0
  0
VERTEX
  8
LAYER_1
 10
2.849421
 20
6.946638
 30
0.0
  0
VERTEX
  8
LAYER_1
 10
2.855201
 20
6.941587
 30
0.0
  0
VERTEX
  8
LAYER_1
 10
2.860315
 20
6.93578
 30
0.0
  0
VERTEX
  8
LAYER_1
 10
2.864677
 20
6.929264
 30
0.0
  0
VERTEX
  8
LAYER_1
 10
2.868138
 20
6.922228
 30
0.0
  0
VERTEX
  8
LAYER_1
 10
2.87061
 20
6.914898
 30
0.0
  0
VERTEX
  8
LAYER_1
 10
2.872094
 20
6.907366
 30
0.0
  0
VERTEX
  8
LAYER_1
 10
2.872587
 20
6.899736
 30
0.0
  0
VERTEX
  8
LAYER_1
 10
2.872094
 20
6.892106
 30
0.0
  0
VERTEX
  8
LAYER_1
 10
2.87061
 20
6.884575
 30
0.0
  0
VERTEX
  8
LAYER_1
 10
2.868138
 20
6.877244
 30
0.0
  0
VERTEX
  8
LAYER_1
 10
2.864677
 20
6.870209
 30
0.0
  0
VERTEX
  8
LAYER_1
 10
2.860315
 20
6.863693
 30
0.0
  0
VERTEX
  8
LAYER_1
 10
2.855201
 20
6.857886
 30
0.0
  0
VERTEX
  8
LAYER_1
 10
2.849421
 20
6.852835
 30
0.0
  0
VERTEX
  8
LAYER_1
 10
2.843059
 20
6.848594
 30
0.0
  0
VERTEX
  8
LAYER_1
 10
2.836205
 20
6.845205
 30
0.0
  0
VERTEX
  8
LAYER_1
 10
2.828941
 20
6.842724
 30
0.0
  0
VERTEX
  8
LAYER_1
 10
2.821358
 20
6.841201
 30
0.0
  0
SEQEND
  8
LAYER_1
  0
POLYLINE
  8
LAYER_1
 62
0
 70
1
 66
1
 10
0.0
 20
0.0
 30
0.0
  0
VERTEX
  8
LAYER_1
 10
2.813535
 20
9.624705
 30
0.0
  0
VERTEX
  8
LAYER_1
 10
-0.257331
 20
9.624705
 30
0.0
  0
VERTEX
  8
LAYER_1
 10
-0.265154
 20
9.625224
 30
0.0
  0
VERTEX
  8
LAYER_1
 10
-0.272736
 20
9.626748
 30
0.0
  0
VERTEX
  8
LAYER_1
 10
-0.28
 20
9.629228
 30
0.0
  0
VERTEX
  8
LAYER_1
 10
-0.286854
 20
9.632618
 30
0.0
  0
VERTEX
  8
LAYER_1
 10
-0.293217
 20
9.636858
 30
0.0
  0
VERTEX
  8
LAYER_1
 10
-0.298996
 20
9.641909
 30
0.0
  0
VERTEX
  8
LAYER_1
 10
-0.30411
 20
9.647717
 30
0.0
  0
VERTEX
  8
LAYER_1
 10
-0.308472
 20
9.654232
 30
0.0
  0
VERTEX
  8
LAYER_1
 10
-0.311933
 20
9.661268
 30
0.0
  0
VERTEX
  8
LAYER_1
 10
-0.314406
 20
9.668598
 30
0.0
  0
VERTEX
  8
LAYER_1
 10
-0.31589
 20
9.67613
 30
0.0
  0
VERTEX
  8
LAYER_1
 10
-0.316382
 20
9.68376
 30
0.0
  0
VERTEX
  8
LAYER_1
 10
-0.31589
 20
9.69139
 30
0.0
  0
VERTEX
  8
LAYER_1
 10
-0.314406
 20
9.698921
 30
0.0
  0
VERTEX
  8
LAYER_1
 10
-0.311933
 20
9.706252
 30
0.0
  0
VERTEX
  8
LAYER_1
 10
-0.308472
 20
9.713287
 30
0.0
  0
VERTEX
  8
LAYER_1
 10
-0.30411
 20
9.719803
 30
0.0
  0
VERTEX
  8
LAYER_1
 10
-0.298996
 20
9.72561
 30
0.0
  0
VERTEX
  8
LAYER_1
 10
-0.293217
 20
9.730661
 30
0.0
  0
VERTEX
  8
LAYER_1
 10
-0.286854
 20
9.734902
 30
0.0
  0
VERTEX
  8
LAYER_1
 10
-0.28
 20
9.738291
 30
0.0
  0
VERTEX
  8
LAYER_1
 10
-0.272736
 20
9.740772
 30
0.0
  0
VERTEX
  8
LAYER_1
 10
-0.265154
 20
9.742295
 30
0.0
  0
VERTEX
  8
LAYER_1
 10
-0.257331
 20
9.742815
 30
0.0
  0
VERTEX
  8
LAYER_1
 10
2.813535
 20
9.742815
 30
0.0
  0
VERTEX
  8
LAYER_1
 10
2.821358
 20
9.742295
 30
0.0
  0
VERTEX
  8
LAYER_1
 10
2.828941
 20
9.740772
 30
0.0
  0
VERTEX
  8
LAYER_1
 10
2.836205
 20
9.738291
 30
0.0
  0
VERTEX
  8
LAYER_1
 10
2.843059
 20
9.734902
 30
0.0
  0
VERTEX
  8
LAYER_1
 10
2.849421
 20
9.730661
 30
0.0
  0
VERTEX
  8
LAYER_1
 10
2.855201
 20
9.72561
 30
0.0
  0
VERTEX
  8
LAYER_1
 10
2.860315
 20
9.719803
 30
0.0
  0
VERTEX
  8
LAYER_1
 10
2.864677
 20
9.713287
 30
0.0
  0
VERTEX
  8
LAYER_1
 10
2.868138
 20
9.706252
 30
0.0
  0
VERTEX
  8
LAYER_1
 10
2.87061
 20
9.698921
 30
0.0
  0
VERTEX
  8
LAYER_1
 10
2.872094
 20
9.69139
 30
0.0
  0
VERTEX
  8
LAYER_1
 10
2.872587
 20
9.68376
 30
0.0
  0
VERTEX
  8
LAYER_1
 10
2.872094
 20
9.67613
 30
0.0
  0
VERTEX
  8
LAYER_1
 10
2.87061
 20
9.668598
 30
0.0
  0
VERTEX
  8
LAYER_1
 10
2.868138
 20
9.661268
 30
0.0
  0
VERTEX
  8
LAYER_1
 10
2.864677
 20
9.654232
 30
0.0
  0
VERTEX
  8
LAYER_1
 10
2.860315
 20
9.647717
 30
0.0
  0
VERTEX
  8
LAYER_1
 10
2.855201
 20
9.641909
 30
0.0
  0
VERTEX
  8
LAYER_1
 10
2.849421
 20
9.636858
 30
0.0
  0
VERTEX
  8
LAYER_1
 10
2.843059
 20
9.632618
 30
0.0
  0
VERTEX
  8
LAYER_1
 10
2.836205
 20
9.629228
 30
0.0
  0
VERTEX
  8
LAYER_1
 10
2.828941
 20
9.626748
 30
0.0
  0
VERTEX
  8
LAYER_1
 10
2.821358
 20
9.625224
 30
0.0
  0
SEQEND
  8
LAYER_1
  0
POLYLINE
  8
LAYER_1
 62
0
 70
1
 66
1
 10
0.0
 20
0.0
 30
0.0
  0
VERTEX
  8
LAYER_1
 10
-4.866268
 20
9.983165
 30
0.0
  0
VERTEX
  8
LAYER_1
 10
-4.922787
 20
10.039811
 30
0.0
  0
VERTEX
  8
LAYER_1
 10
-4.906039
 20
10.070012
 30
0.0
  0
VERTEX
  8
LAYER_1
 10
-4.894028
 20
10.101803
 30
0.0
  0
VERTEX
  8
LAYER_1
 10
-4.886756
 20
10.134665
 30
0.0
  0
VERTEX
  8
LAYER_1
 10
-4.884228
 20
10.168071
 30
0.0
  0
VERTEX
  8
LAYER_1
 10
-4.886445
 20
10.201496
 30
0.0
  0
VERTEX
  8
LAYER_1
 10
-4.893413
 20
10.234417
 30
0.0
  0
VERTEX
  8
LAYER_1
 10
-4.905134
 20
10.266311
 30
0.0
  0
VERTEX
  8
LAYER_1
 10
-4.921614
 20
10.296657
 30
0.0
  0
VERTEX
  8
LAYER_1
 10
-4.864909
 20
10.35324
 30
0.0
  0
VERTEX
  8
LAYER_1
 10
-4.838783
 20
10.310106
 30
0.0
  0
VERTEX
  8
LAYER_1
 10
-4.820181
 20
10.264244
 30
0.0
  0
VERTEX
  8
LAYER_1
 10
-4.809098
 20
10.216571
 30
0.0
  0
VERTEX
  8
LAYER_1
 10
-4.805528
 20
10.168004
 30
0.0
  0
VERTEX
  8
LAYER_1
 10
-4.809465
 20
10.119461
 30
0.0
  0
VERTEX
  8
LAYER_1
 10
-4.820906
 20
10.071862
 30
0.0
  0
VERTEX
  8
LAYER_1
 10
-4.839843
 20
10.026126
 30
0.0
  0
SEQEND
  8
LAYER_1
  0
POLYLINE
  8
LAYER_1
 62
0
 70
1
 66
1
 10
0.0
 20
0.0
 30
0.0
  0
VERTEX
  8
LAYER_1
 10
-0.257331
 20
10.980161
 30
0.0
  0
VERTEX
  8
LAYER_1
 10
2.813535
 20
10.980161
 30
0.0
  0
VERTEX
  8
LAYER_1
 10
2.821358
 20
10.979642
 30
0.0
  0
VERTEX
  8
LAYER_1
 10
2.828941
 20
10.978118
 30
0.0
  0
VERTEX
  8
LAYER_1
 10
2.836205
 20
10.975638
 30
0.0
  0
VERTEX
  8
LAYER_1
 10
2.843059
 20
10.972248
 30
0.0
  0
VERTEX
  8
LAYER_1
 10
2.849421
 20
10.968008
 30
0.0
  0
VERTEX
  8
LAYER_1
 10
2.855201
 20
10.962957
 30
0.0
  0
VERTEX
  8
LAYER_1
 10
2.860315
 20
10.95715
 30
0.0
  0
VERTEX
  8
LAYER_1
 10
2.864677
 20
10.950634
 30
0.0
  0
VERTEX
  8
LAYER_1
 10
2.868138
 20
10.943598
 30
0.0
  0
VERTEX
  8
LAYER_1
 10
2.87061
 20
10.936268
 30
0.0
  0
VERTEX
  8
LAYER_1
 10
2.872094
 20
10.928736
 30
0.0
  0
VERTEX
  8
LAYER_1
 10
2.872587
 20
10.921106
 30
0.0
  0
VERTEX
  8
LAYER_1
 10
2.872094
 20
10.913476
 30
0.0
  0
VERTEX
  8
LAYER_1
 10
2.87061
 20
10.905945
 30
0.0
  0
VERTEX
  8
LAYER_1
 10
2.868138
 20
10.898614
 30
0.0
  0
VERTEX
  8
LAYER_1
 10
2.864677
 20
10.891579
 30
0.0
  0
VERTEX
  8
LAYER_1
 10
2.860315
 20
10.885063
 30
0.0
  0
VERTEX
  8
LAYER_1
 10
2.855201
 20
10.879256
 30
0.0
  0
VERTEX
  8
LAYER_1
 10
2.849421
 20
10.874205
 30
0.0
  0
VERTEX
  8
LAYER_1
 10
2.843059
 20
10.869961
 30
0.0
  0
VERTEX
  8
LAYER_1
 10
2.836205
 20
10.866575
 30
0.0
  0
VERTEX
  8
LAYER_1
 10
2.828941
 20
10.864094
 30
0.0
  0
VERTEX
  8
LAYER_1
 10
2.821358
 20
10.862571
 30
0.0
  0
VERTEX
  8
LAYER_1
 10
2.813535
 20
10.862051
 30
0.0
  0
VERTEX
  8
LAYER_1
 10
-0.257331
 20
10.862051
 30
0.0
  0
VERTEX
  8
LAYER_1
 10
-0.265154
 20
10.862571
 30
0.0
  0
VERTEX
  8
LAYER_1
 10
-0.272736
 20
10.864094
 30
0.0
  0
VERTEX
  8
LAYER_1
 10
-0.28
 20
10.866575
 30
0.0
  0
VERTEX
  8
LAYER_1
 10
-0.286854
 20
10.869961
 30
0.0
  0
VERTEX
  8
LAYER_1
 10
-0.293217
 20
10.874205
 30
0.0
  0
VERTEX
  8
LAYER_1
 10
-0.298996
 20
10.879256
 30
0.0
  0
VERTEX
  8
LAYER_1
 10
-0.30411
 20
10.885063
 30
0.0
  0
VERTEX
  8
LAYER_1
 10
-0.308472
 20
10.891579
 30
0.0
  0
VERTEX
  8
LAYER_1
 10
-0.311933
 20
10.898614
 30
0.0
  0
VERTEX
  8
LAYER_1
 10
-0.314406
 20
10.905945
 30
0.0
  0
VERTEX
  8
LAYER_1
 10
-0.31589
 20
10.913476
 30
0.0
  0
VERTEX
  8
LAYER_1
 10
-0.316382
 20
10.921106
 30
0.0
  0
VERTEX
  8
LAYER_1
 10
-0.31589
 20
10.928736
 30
0.0
  0
VERTEX
  8
LAYER_1
 10
-0.314406
 20
10.936268
 30
0.0
  0
VERTEX
  8
LAYER_1
 10
-0.311933
 20
10.943598
 30
0.0
  0
VERTEX
  8
LAYER_1
 10
-0.308472
 20
10.950634
 30
0.0
  0
VERTEX
  8
LAYER_1
 10
-0.30411
 20
10.95715
 30
0.0
  0
VERTEX
  8
LAYER_1
 10
-0.298996
 20
10.962957
 30
0.0
  0
VERTEX
  8
LAYER_1
 10
-0.293217
 20
10.968008
 30
0.0
  0
VERTEX
  8
LAYER_1
 10
-0.286854
 20
10.972248
 30
0.0
  0
VERTEX
  8
LAYER_1
 10
-0.28
 20
10.975638
 30
0.0
  0
VERTEX
  8
LAYER_1
 10
-0.272736
 20
10.978118
 30
0.0
  0
VERTEX
  8
LAYER_1
 10
-0.265154
 20
10.979642
 30
0.0
  0
SEQEND
  8
LAYER_1
  0
POLYLINE
  8
LAYER_1
 62
0
 70
1
 66
1
 10
0.0
 20
0.0
 30
0.0
  0
VERTEX
  8
LAYER_1
 10
-5.59913
 20
9.759661
 30
0.0
  0
VERTEX
  8
LAYER_1
 10
-5.665276
 20
9.852776
 30
0.0
  0
VERTEX
  8
LAYER_1
 10
-5.712516
 20
9.95378
 30
0.0
  0
VERTEX
  8
LAYER_1
 10
-5.74085
 20
10.060047
 30
0.0
  0
VERTEX
  8
LAYER_1
 10
-5.750295
 20
10.168949
 30
0.0
  0
VERTEX
  8
LAYER_1
 10
-5.740854
 20
10.277866
 30
0.0
  0
VERTEX
  8
LAYER_1
 10
-5.712535
 20
10.384169
 30
0.0
  0
VERTEX
  8
LAYER_1
 10
-5.665343
 20
10.485236
 30
0.0
  0
VERTEX
  8
LAYER_1
 10
-5.599283
 20
10.578437
 30
0.0
  0
VERTEX
  8
LAYER_1
 10
-5.543469
 20
10.522496
 30
0.0
  0
VERTEX
  8
LAYER_1
 10
-5.599579
 20
10.441685
 30
0.0
  0
VERTEX
  8
LAYER_1
 10
-5.639657
 20
10.354362
 30
0.0
  0
VERTEX
  8
LAYER_1
 10
-5.663701
 20
10.262701
 30
0.0
  0
VERTEX
  8
LAYER_1
 10
-5.671705
 20
10.168878
 30
0.0
  0
VERTEX
  8
LAYER_1
 10
-5.663661
 20
10.075067
 30
0.0
  0
VERTEX
  8
LAYER_1
 10
-5.639567
 20
9.983445
 30
0.0
  0
VERTEX
  8
LAYER_1
 10
-5.599417
 20
9.896185
 30
0.0
  0
VERTEX
  8
LAYER_1
 10
-5.543201
 20
9.815465
 30
0.0
  0
SEQEND
  8
LAYER_1
  0
POLYLINE
  8
LAYER_1
 62
0
 70
1
 66
1
 10
0.0
 20
0.0
 30
0.0
  0
VERTEX
  8
LAYER_1
 10
-4.712205
 20
9.689421
 30
0.0
  0
VERTEX
  8
LAYER_1
 10
-4.80526
 20
9.623646
 30
0.0
  0
VERTEX
  8
LAYER_1
 10
-4.906138
 20
9.576709
 30
0.0
  0
VERTEX
  8
LAYER_1
 10
-5.01222
 20
9.548598
 30
0.0
  0
VERTEX
  8
LAYER_1
 10
-5.120906
 20
9.539303
 30
0.0
  0
VERTEX
  8
LAYER_1
 10
-5.229587
 20
9.548815
 30
0.0
  0
VERTEX
  8
LAYER_1
 10
-5.33565
 20
9.577122
 30
0.0
  0
VERTEX
  8
LAYER_1
 10
-5.436492
 20
9.62422
 30
0.0
  0
VERTEX
  8
LAYER_1
 10
-5.5295
 20
9.690094
 30
0.0
  0
VERTEX
  8
LAYER_1
 10
-5.473559
 20
9.745917
 30
0.0
  0
VERTEX
  8
LAYER_1
 10
-5.392941
 20
9.689988
 30
0.0
  0
VERTEX
  8
LAYER_1
 10
-5.305843
 20
9.65
 30
0.0
  0
VERTEX
  8
LAYER_1
 10
-5.214421
 20
9.625965
 30
0.0
  0
VERTEX
  8
LAYER_1
 10
-5.120835
 20
9.617894
 30
0.0
  0
VERTEX
  8
LAYER_1
 10
-5.027244
 20
9.625787
 30
0.0
  0
VERTEX
  8
LAYER_1
 10
-4.935807
 20
9.649661
 30
0.0
  0
VERTEX
  8
LAYER_1
 10
-4.848681
 20
9.689516
 30
0.0
  0
VERTEX
  8
LAYER_1
 10
-4.768024
 20
9.745362
 30
0.0
  0
SEQEND
  8
LAYER_1
  0
POLYLINE
  8
LAYER_1
 62
0
 70
0
 66
1
 10
0.0
 20
0.0
 30
0.0
  0
VERTEX
  8
LAYER_1
 10
3.675161
 20
3.650701
 30
0.0
  0
VERTEX
  8
LAYER_1
 10
3.531016
 20
3.752591
 30
0.0
  0
VERTEX
  8
LAYER_1
 10
3.374815
 20
3.82537
 30
0.0
  0
VERTEX
  8
LAYER_1
 10
3.210583
 20
3.869039
 30
0.0
  0
VERTEX
  8
LAYER_1
 10
3.042331
 20
3.883594
 30
0.0
  0
VERTEX
  8
LAYER_1
 10
2.874079
 20
3.869039
 30
0.0
  0
VERTEX
  8
LAYER_1
 10
2.709846
 20
3.82537
 30
0.0
  0
VERTEX
  8
LAYER_1
 10
2.553646
 20
3.752591
 30
0.0
  0
VERTEX
  8
LAYER_1
 10
2.4095
 20
3.650701
 30
0.0
  0
SEQEND
  8
LAYER_1
  0
POLYLINE
  8
LAYER_1
 62
0
 70
0
 66
1
 10
0.0
 20
0.0
 30
0.0
  0
VERTEX
  8
LAYER_1
 10
-5.516343
 20
3.337559
 30
0.0
  0
VERTEX
  8
LAYER_1
 10
-5.540256
 20
3.610882
 30
0.0
  0
SEQEND
  8
LAYER_1
  0
POLYLINE
  8
LAYER_1
 62
0
 70
0
 66
1
 10
0.0
 20
0.0
 30
0.0
  0
VERTEX
  8
LAYER_1
 10
-6.997102
 20
3.123894
 30
0.0
  0
VERTEX
  8
LAYER_1
 10
-7.117169
 20
3.123894
 30
0.0
  0
SEQEND
  8
LAYER_1
  0
POLYLINE
  8
LAYER_1
 62
0
 70
0
 66
1
 10
0.0
 20
0.0
 30
0.0
  0
VERTEX
  8
LAYER_1
 10
2.365039
 20
3.337559
 30
0.0
  0
VERTEX
  8
LAYER_1
 10
2.364823
 20
3.33139
 30
0.0
  0
VERTEX
  8
LAYER_1
 10
2.365244
 20
3.32528
 30
0.0
  0
VERTEX
  8
LAYER_1
 10
2.366291
 20
3.319276
 30
0.0
  0
VERTEX
  8
LAYER_1
 10
2.367949
 20
3.313429
 30
0.0
  0
VERTEX
  8
LAYER_1
 10
2.370193
 20
3.307783
 30
0.0
  0
VERTEX
  8
LAYER_1
 10
2.37302
 20
3.302382
 30
0.0
  0
VERTEX
  8
LAYER_1
 10
2.376402
 20
3.29728
 30
0.0
  0
VERTEX
  8
LAYER_1
 10
2.380331
 20
3.292516
 30
0.0
  0
VERTEX
  8
LAYER_1
 10
2.384732
 20
3.288189
 30
0.0
  0
VERTEX
  8
LAYER_1
 10
2.389524
 20
3.28437
 30
0.0
  0
VERTEX
  8
LAYER_1
 10
2.394657
 20
3.281091
 30
0.0
  0
VERTEX
  8
LAYER_1
 10
2.400087
 20
3.278358
 30
0.0
  0
VERTEX
  8
LAYER_1
 10
2.405768
 20
3.276201
 30
0.0
  0
VERTEX
  8
LAYER_1
 10
2.411654
 20
3.274634
 30
0.0
  0
VERTEX
  8
LAYER_1
 10
2.417705
 20
3.273681
 30
0.0
  0
VERTEX
  8
LAYER_1
 10
2.42387
 20
3.273358
 30
0.0
  0
SEQEND
  8
LAYER_1
  0
POLYLINE
  8
LAYER_1
 62
0
 70
0
 66
1
 10
0.0
 20
0.0
 30
0.0
  0
VERTEX
  8
LAYER_1
 10
3.695709
 20
3.610882
 30
0.0
  0
VERTEX
  8
LAYER_1
 10
3.694921
 20
3.616618
 30
0.0
  0
VERTEX
  8
LAYER_1
 10
3.693591
 20
3.622209
 30
0.0
  0
VERTEX
  8
LAYER_1
 10
3.691728
 20
3.627622
 30
0.0
  0
VERTEX
  8
LAYER_1
 10
3.689358
 20
3.632815
 30
0.0
  0
VERTEX
  8
LAYER_1
 10
3.6865
 20
3.637756
 30
0.0
  0
VERTEX
  8
LAYER_1
 10
3.683165
 20
3.642409
 30
0.0
  0
VERTEX
  8
LAYER_1
 10
3.679382
 20
3.646736
 30
0.0
  0
VERTEX
  8
LAYER_1
 10
3.675161
 20
3.650701
 30
0.0
  0
SEQEND
  8
LAYER_1
  0
POLYLINE
  8
LAYER_1
 62
0
 70
0
 66
1
 10
0.0
 20
0.0
 30
0.0
  0
VERTEX
  8
LAYER_1
 10
3.660791
 20
3.273358
 30
0.0
  0
VERTEX
  8
LAYER_1
 10
3.666957
 20
3.273681
 30
0.0
  0
VERTEX
  8
LAYER_1
 10
3.673008
 20
3.274634
 30
0.0
  0
VERTEX
  8
LAYER_1
 10
3.678894
 20
3.276201
 30
0.0
  0
VERTEX
  8
LAYER_1
 10
3.684575
 20
3.278358
 30
0.0
  0
VERTEX
  8
LAYER_1
 10
3.690004
 20
3.281091
 30
0.0
  0
VERTEX
  8
LAYER_1
 10
3.695138
 20
3.28437
 30
0.0
  0
VERTEX
  8
LAYER_1
 10
3.699929
 20
3.288189
 30
0.0
  0
VERTEX
  8
LAYER_1
 10
3.704331
 20
3.292516
 30
0.0
  0
VERTEX
  8
LAYER_1
 10
3.70826
 20
3.29728
 30
0.0
  0
VERTEX
  8
LAYER_1
 10
3.711642
 20
3.302382
 30
0.0
  0
VERTEX
  8
LAYER_1
 10
3.714469
 20
3.307783
 30
0.0
  0
VERTEX
  8
LAYER_1
 10
3.716713
 20
3.313429
 30
0.0
  0
VERTEX
  8
LAYER_1
 10
3.71837
 20
3.319276
 30
0.0
  0
VERTEX
  8
LAYER_1
 10
3.719417
 20
3.32528
 30
0.0
  0
VERTEX
  8
LAYER_1
 10
3.719839
 20
3.33139
 30
0.0
  0
VERTEX
  8
LAYER_1
 10
3.719622
 20
3.337559
 30
0.0
  0
SEQEND
  8
LAYER_1
  0
POLYLINE
  8
LAYER_1
 62
0
 70
0
 66
1
 10
0.0
 20
0.0
 30
0.0
  0
VERTEX
  8
LAYER_1
 10
3.77498
 20
2.706445
 30
0.0
  0
VERTEX
  8
LAYER_1
 10
3.785366
 20
2.749114
 30
0.0
  0
VERTEX
  8
LAYER_1
 10
3.793252
 20
2.792205
 30
0.0
  0
VERTEX
  8
LAYER_1
 10
3.798634
 20
2.83561
 30
0.0
  0
VERTEX
  8
LAYER_1
 10
3.801508
 20
2.879213
 30
0.0
  0
VERTEX
  8
LAYER_1
 10
3.80187
 20
2.922909
 30
0.0
  0
VERTEX
  8
LAYER_1
 10
3.799717
 20
2.966594
 30
0.0
  0
VERTEX
  8
LAYER_1
 10
3.795043
 20
3.01015
 30
0.0
  0
VERTEX
  8
LAYER_1
 10
3.787846
 20
3.053472
 30
0.0
  0
SEQEND
  8
LAYER_1
  0
POLYLINE
  8
LAYER_1
 62
0
 70
0
 66
1
 10
0.0
 20
0.0
 30
0.0
  0
VERTEX
  8
LAYER_1
 10
4.024079
 20
3.074764
 30
0.0
  0
VERTEX
  8
LAYER_1
 10
4.02137
 20
3.08502
 30
0.0
  0
VERTEX
  8
LAYER_1
 10
4.016988
 20
3.094409
 30
0.0
  0
VERTEX
  8
LAYER_1
 10
4.011122
 20
3.102776
 30
0.0
  0
VERTEX
  8
LAYER_1
 10
4.003953
 20
3.109969
 30
0.0
  0
VERTEX
  8
LAYER_1
 10
3.995657
 20
3.115827
 30
0.0
  0
VERTEX
  8
LAYER_1
 10
3.986425
 20
3.120205
 30
0.0
  0
VERTEX
  8
LAYER_1
 10
3.976433
 20
3.122941
 30
0.0
  0
VERTEX
  8
LAYER_1
 10
3.965866
 20
3.12389
 30
0.0
  0
SEQEND
  8
LAYER_1
  0
POLYLINE
  8
LAYER_1
 62
0
 70
0
 66
1
 10
0.0
 20
0.0
 30
0.0
  0
VERTEX
  8
LAYER_1
 10
3.953827
 20
2.631772
 30
0.0
  0
VERTEX
  8
LAYER_1
 10
3.96389
 20
2.63263
 30
0.0
  0
VERTEX
  8
LAYER_1
 10
3.973457
 20
2.635122
 30
0.0
  0
VERTEX
  8
LAYER_1
 10
3.982362
 20
2.639118
 30
0.0
  0
VERTEX
  8
LAYER_1
 10
3.990445
 20
2.644492
 30
0.0
  0
VERTEX
  8
LAYER_1
 10
3.997539
 20
2.651114
 30
0.0
  0
VERTEX
  8
LAYER_1
 10
4.003484
 20
2.658854
 30
0.0
  0
VERTEX
  8
LAYER_1
 10
4.008122
 20
2.667583
 30
0.0
  0
VERTEX
  8
LAYER_1
 10
4.011283
 20
2.677177
 30
0.0
  0
SEQEND
  8
LAYER_1
  0
POLYLINE
  8
LAYER_1
 62
0
 70
0
 66
1
 10
0.0
 20
0.0
 30
0.0
  0
VERTEX
  8
LAYER_1
 10
2.296815
 20
3.053476
 30
0.0
  0
VERTEX
  8
LAYER_1
 10
2.29772
 20
3.059992
 30
0.0
  0
VERTEX
  8
LAYER_1
 10
2.297898
 20
3.066508
 30
0.0
  0
VERTEX
  8
LAYER_1
 10
2.297358
 20
3.072965
 30
0.0
  0
VERTEX
  8
LAYER_1
 10
2.296118
 20
3.079307
 30
0.0
  0
VERTEX
  8
LAYER_1
 10
2.294197
 20
3.085476
 30
0.0
  0
VERTEX
  8
LAYER_1
 10
2.291602
 20
3.091413
 30
0.0
  0
VERTEX
  8
LAYER_1
 10
2.28835
 20
3.097063
 30
0.0
  0
VERTEX
  8
LAYER_1
 10
2.284461
 20
3.102366
 30
0.0
  0
VERTEX
  8
LAYER_1
 10
2.280004
 20
3.107205
 30
0.0
  0
VERTEX
  8
LAYER_1
 10
2.275087
 20
3.11148
 30
0.0
  0
VERTEX
  8
LAYER_1
 10
2.26976
 20
3.115165
 30
0.0
  0
VERTEX
  8
LAYER_1
 10
2.264075
 20
3.11824
 30
0.0
  0
VERTEX
  8
LAYER_1
 10
2.258091
 20
3.120673
 30
0.0
  0
VERTEX
  8
LAYER_1
 10
2.251858
 20
3.122445
 30
0.0
  0
VERTEX
  8
LAYER_1
 10
2.245429
 20
3.123524
 30
0.0
  0
VERTEX
  8
LAYER_1
 10
2.238862
 20
3.12389
 30
0.0
  0
SEQEND
  8
LAYER_1
  0
POLYLINE
  8
LAYER_1
 62
0
 70
0
 66
1
 10
0.0
 20
0.0
 30
0.0
  0
VERTEX
  8
LAYER_1
 10
3.77498
 20
2.706445
 30
0.0
  0
VERTEX
  8
LAYER_1
 10
3.773555
 20
2.699736
 30
0.0
  0
VERTEX
  8
LAYER_1
 10
3.772917
 20
2.692972
 30
0.0
  0
VERTEX
  8
LAYER_1
 10
3.773059
 20
2.686224
 30
0.0
  0
VERTEX
  8
LAYER_1
 10
3.773965
 20
2.679559
 30
0.0
  0
VERTEX
  8
LAYER_1
 10
3.775622
 20
2.673035
 30
0.0
  0
VERTEX
  8
LAYER_1
 10
3.778016
 20
2.666728
 30
0.0
  0
VERTEX
  8
LAYER_1
 10
3.781142
 20
2.660697
 30
0.0
  0
VERTEX
  8
LAYER_1
 10
3.784976
 20
2.655012
 30
0.0
  0
VERTEX
  8
LAYER_1
 10
3.789445
 20
2.649807
 30
0.0
  0
VERTEX
  8
LAYER_1
 10
3.794433
 20
2.645201
 30
0.0
  0
VERTEX
  8
LAYER_1
 10
3.799886
 20
2.64122
 30
0.0
  0
VERTEX
  8
LAYER_1
 10
3.805736
 20
2.637902
 30
0.0
  0
VERTEX
  8
LAYER_1
 10
3.811925
 20
2.635264
 30
0.0
  0
VERTEX
  8
LAYER_1
 10
3.818394
 20
2.633343
 30
0.0
  0
VERTEX
  8
LAYER_1
 10
3.825083
 20
2.632169
 30
0.0
  0
VERTEX
  8
LAYER_1
 10
3.831933
 20
2.631772
 30
0.0
  0
SEQEND
  8
LAYER_1
  0
POLYLINE
  8
LAYER_1
 62
0
 70
0
 66
1
 10
0.0
 20
0.0
 30
0.0
  0
VERTEX
  8
LAYER_1
 10
2.073378
 20
2.677177
 30
0.0
  0
VERTEX
  8
LAYER_1
 10
2.076539
 20
2.667583
 30
0.0
  0
VERTEX
  8
LAYER_1
 10
2.081177
 20
2.658854
 30
0.0
  0
VERTEX
  8
LAYER_1
 10
2.087122
 20
2.651114
 30
0.0
  0
VERTEX
  8
LAYER_1
 10
2.094217
 20
2.644492
 30
0.0
  0
VERTEX
  8
LAYER_1
 10
2.102299
 20
2.639118
 30
0.0
  0
VERTEX
  8
LAYER_1
 10
2.111205
 20
2.635122
 30
0.0
  0
VERTEX
  8
LAYER_1
 10
2.120772
 20
2.63263
 30
0.0
  0
VERTEX
  8
LAYER_1
 10
2.130835
 20
2.631772
 30
0.0
  0
SEQEND
  8
LAYER_1
  0
POLYLINE
  8
LAYER_1
 62
0
 70
0
 66
1
 10
0.0
 20
0.0
 30
0.0
  0
VERTEX
  8
LAYER_1
 10
3.719622
 20
3.337559
 30
0.0
  0
VERTEX
  8
LAYER_1
 10
3.695709
 20
3.610882
 30
0.0
  0
SEQEND
  8
LAYER_1
  0
POLYLINE
  8
LAYER_1
 62
0
 70
0
 66
1
 10
0.0
 20
0.0
 30
0.0
  0
VERTEX
  8
LAYER_1
 10
-5.270098
 20
3.123894
 30
0.0
  0
VERTEX
  8
LAYER_1
 10
-5.390165
 20
3.123894
 30
0.0
  0
SEQEND
  8
LAYER_1
  0
POLYLINE
  8
LAYER_1
 62
0
 70
0
 66
1
 10
0.0
 20
0.0
 30
0.0
  0
VERTEX
  8
LAYER_1
 10
2.296815
 20
3.053476
 30
0.0
  0
VERTEX
  8
LAYER_1
 10
2.289618
 20
3.010154
 30
0.0
  0
VERTEX
  8
LAYER_1
 10
2.284945
 20
2.966598
 30
0.0
  0
VERTEX
  8
LAYER_1
 10
2.282791
 20
2.922913
 30
0.0
  0
VERTEX
  8
LAYER_1
 10
2.283154
 20
2.879217
 30
0.0
  0
VERTEX
  8
LAYER_1
 10
2.286028
 20
2.83561
 30
0.0
  0
VERTEX
  8
LAYER_1
 10
2.291409
 20
2.792209
 30
0.0
  0
VERTEX
  8
LAYER_1
 10
2.299295
 20
2.749118
 30
0.0
  0
VERTEX
  8
LAYER_1
 10
2.309681
 20
2.706445
 30
0.0
  0
SEQEND
  8
LAYER_1
  0
POLYLINE
  8
LAYER_1
 62
0
 70
0
 66
1
 10
0.0
 20
0.0
 30
0.0
  0
VERTEX
  8
LAYER_1
 10
2.060583
 20
3.074764
 30
0.0
  0
VERTEX
  8
LAYER_1
 10
2.053398
 20
3.025114
 30
0.0
  0
VERTEX
  8
LAYER_1
 10
2.048728
 20
2.97526
 30
0.0
  0
VERTEX
  8
LAYER_1
 10
2.046575
 20
2.925299
 30
0.0
  0
VERTEX
  8
LAYER_1
 10
2.046925
 20
2.875323
 30
0.0
  0
VERTEX
  8
LAYER_1
 10
2.049787
 20
2.825429
 30
0.0
  0
VERTEX
  8
LAYER_1
 10
2.05515
 20
2.775709
 30
0.0
  0
VERTEX
  8
LAYER_1
 10
2.063016
 20
2.72626
 30
0.0
  0
VERTEX
  8
LAYER_1
 10
2.073378
 20
2.677177
 30
0.0
  0
SEQEND
  8
LAYER_1
  0
POLYLINE
  8
LAYER_1
 62
0
 70
0
 66
1
 10
0.0
 20
0.0
 30
0.0
  0
VERTEX
  8
LAYER_1
 10
-5.404031
 20
2.631772
 30
0.0
  0
VERTEX
  8
LAYER_1
 10
-5.282138
 20
2.631772
 30
0.0
  0
SEQEND
  8
LAYER_1
  0
POLYLINE
  8
LAYER_1
 62
0
 70
0
 66
1
 10
0.0
 20
0.0
 30
0.0
  0
VERTEX
  8
LAYER_1
 10
2.4095
 20
3.650701
 30
0.0
  0
VERTEX
  8
LAYER_1
 10
2.40528
 20
3.646736
 30
0.0
  0
VERTEX
  8
LAYER_1
 10
2.401496
 20
3.642409
 30
0.0
  0
VERTEX
  8
LAYER_1
 10
2.398161
 20
3.637756
 30
0.0
  0
VERTEX
  8
LAYER_1
 10
2.395303
 20
3.632815
 30
0.0
  0
VERTEX
  8
LAYER_1
 10
2.392933
 20
3.627622
 30
0.0
  0
VERTEX
  8
LAYER_1
 10
2.391071
 20
3.622209
 30
0.0
  0
VERTEX
  8
LAYER_1
 10
2.38974
 20
3.616618
 30
0.0
  0
VERTEX
  8
LAYER_1
 10
2.388953
 20
3.610882
 30
0.0
  0
SEQEND
  8
LAYER_1
  0
POLYLINE
  8
LAYER_1
 62
0
 70
0
 66
1
 10
0.0
 20
0.0
 30
0.0
  0
VERTEX
  8
LAYER_1
 10
-6.812094
 20
3.273358
 30
0.0
  0
VERTEX
  8
LAYER_1
 10
-5.575173
 20
3.273358
 30
0.0
  0
SEQEND
  8
LAYER_1
  0
POLYLINE
  8
LAYER_1
 62
0
 70
0
 66
1
 10
0.0
 20
0.0
 30
0.0
  0
VERTEX
  8
LAYER_1
 10
3.845799
 20
3.12389
 30
0.0
  0
VERTEX
  8
LAYER_1
 10
3.839232
 20
3.123524
 30
0.0
  0
VERTEX
  8
LAYER_1
 10
3.832803
 20
3.122445
 30
0.0
  0
VERTEX
  8
LAYER_1
 10
3.826571
 20
3.120673
 30
0.0
  0
VERTEX
  8
LAYER_1
 10
3.820587
 20
3.11824
 30
0.0
  0
VERTEX
  8
LAYER_1
 10
3.814902
 20
3.115165
 30
0.0
  0
VERTEX
  8
LAYER_1
 10
3.809575
 20
3.11148
 30
0.0
  0
VERTEX
  8
LAYER_1
 10
3.804657
 20
3.107205
 30
0.0
  0
VERTEX
  8
LAYER_1
 10
3.800201
 20
3.102366
 30
0.0
  0
VERTEX
  8
LAYER_1
 10
3.796311
 20
3.097063
 30
0.0
  0
VERTEX
  8
LAYER_1
 10
3.793059
 20
3.091413
 30
0.0
  0
VERTEX
  8
LAYER_1
 10
3.790465
 20
3.085476
 30
0.0
  0
VERTEX
  8
LAYER_1
 10
3.788543
 20
3.079307
 30
0.0
  0
VERTEX
  8
LAYER_1
 10
3.787303
 20
3.072965
 30
0.0
  0
VERTEX
  8
LAYER_1
 10
3.786764
 20
3.066508
 30
0.0
  0
VERTEX
  8
LAYER_1
 10
3.786941
 20
3.059992
 30
0.0
  0
VERTEX
  8
LAYER_1
 10
3.787846
 20
3.053476
 30
0.0
  0
SEQEND
  8
LAYER_1
  0
POLYLINE
  8
LAYER_1
 62
0
 70
0
 66
1
 10
0.0
 20
0.0
 30
0.0
  0
VERTEX
  8
LAYER_1
 10
4.011283
 20
2.677177
 30
0.0
  0
VERTEX
  8
LAYER_1
 10
4.021646
 20
2.72626
 30
0.0
  0
VERTEX
  8
LAYER_1
 10
4.029512
 20
2.775709
 30
0.0
  0
VERTEX
  8
LAYER_1
 10
4.034874
 20
2.825429
 30
0.0
  0
VERTEX
  8
LAYER_1
 10
4.037736
 20
2.875323
 30
0.0
  0
VERTEX
  8
LAYER_1
 10
4.038091
 20
2.925295
 30
0.0
  0
VERTEX
  8
LAYER_1
 10
4.035933
 20
2.97526
 30
0.0
  0
VERTEX
  8
LAYER_1
 10
4.031268
 20
3.02511
 30
0.0
  0
VERTEX
  8
LAYER_1
 10
4.024083
 20
3.07476
 30
0.0
  0
SEQEND
  8
LAYER_1
  0
POLYLINE
  8
LAYER_1
 62
0
 70
0
 66
1
 10
0.0
 20
0.0
 30
0.0
  0
VERTEX
  8
LAYER_1
 10
2.118795
 20
3.12389
 30
0.0
  0
VERTEX
  8
LAYER_1
 10
2.108228
 20
3.122941
 30
0.0
  0
VERTEX
  8
LAYER_1
 10
2.098236
 20
3.120205
 30
0.0
  0
VERTEX
  8
LAYER_1
 10
2.089004
 20
3.115827
 30
0.0
  0
VERTEX
  8
LAYER_1
 10
2.080709
 20
3.109969
 30
0.0
  0
VERTEX
  8
LAYER_1
 10
2.073539
 20
3.102776
 30
0.0
  0
VERTEX
  8
LAYER_1
 10
2.067673
 20
3.094409
 30
0.0
  0
VERTEX
  8
LAYER_1
 10
2.063291
 20
3.08502
 30
0.0
  0
VERTEX
  8
LAYER_1
 10
2.060583
 20
3.074764
 30
0.0
  0
SEQEND
  8
LAYER_1
  0
POLYLINE
  8
LAYER_1
 62
0
 70
0
 66
1
 10
0.0
 20
0.0
 30
0.0
  0
VERTEX
  8
LAYER_1
 10
-7.10513
 20
2.631772
 30
0.0
  0
VERTEX
  8
LAYER_1
 10
-6.983236
 20
2.631772
 30
0.0
  0
SEQEND
  8
LAYER_1
  0
POLYLINE
  8
LAYER_1
 62
0
 70
0
 66
1
 10
0.0
 20
0.0
 30
0.0
  0
VERTEX
  8
LAYER_1
 10
2.252728
 20
2.631772
 30
0.0
  0
VERTEX
  8
LAYER_1
 10
2.259579
 20
2.632169
 30
0.0
  0
VERTEX
  8
LAYER_1
 10
2.266268
 20
2.633343
 30
0.0
  0
VERTEX
  8
LAYER_1
 10
2.272736
 20
2.635264
 30
0.0
  0
VERTEX
  8
LAYER_1
 10
2.278925
 20
2.637902
 30
0.0
  0
VERTEX
  8
LAYER_1
 10
2.284776
 20
2.64122
 30
0.0
  0
VERTEX
  8
LAYER_1
 10
2.290228
 20
2.645201
 30
0.0
  0
VERTEX
  8
LAYER_1
 10
2.295217
 20
2.649807
 30
0.0
  0
VERTEX
  8
LAYER_1
 10
2.299685
 20
2.655012
 30
0.0
  0
VERTEX
  8
LAYER_1
 10
2.30352
 20
2.660697
 30
0.0
  0
VERTEX
  8
LAYER_1
 10
2.306646
 20
2.666728
 30
0.0
  0
VERTEX
  8
LAYER_1
 10
2.309039
 20
2.673035
 30
0.0
  0
VERTEX
  8
LAYER_1
 10
2.310697
 20
2.679559
 30
0.0
  0
VERTEX
  8
LAYER_1
 10
2.311602
 20
2.686224
 30
0.0
  0
VERTEX
  8
LAYER_1
 10
2.311744
 20
2.692972
 30
0.0
  0
VERTEX
  8
LAYER_1
 10
2.311106
 20
2.699732
 30
0.0
  0
VERTEX
  8
LAYER_1
 10
2.309681
 20
2.706441
 30
0.0
  0
SEQEND
  8
LAYER_1
  0
POLYLINE
  8
LAYER_1
 62
0
 70
0
 66
1
 10
0.0
 20
0.0
 30
0.0
  0
VERTEX
  8
LAYER_1
 10
2.388953
 20
3.610882
 30
0.0
  0
VERTEX
  8
LAYER_1
 10
2.365039
 20
3.337559
 30
0.0
  0
SEQEND
  8
LAYER_1
  0
POLYLINE
  8
LAYER_1
 62
0
 70
1
 66
1
 10
0.0
 20
0.0
 30
0.0
  0
VERTEX
  8
LAYER_1
 10
-4.934213
 20
10.42313
 30
0.0
  0
VERTEX
  8
LAYER_1
 10
-4.990843
 20
10.366622
 30
0.0
  0
VERTEX
  8
LAYER_1
 10
-5.021256
 20
10.383524
 30
0.0
  0
VERTEX
  8
LAYER_1
 10
-5.053287
 20
10.395618
 30
0.0
  0
VERTEX
  8
LAYER_1
 10
-5.08639
 20
10.402902
 30
0.0
  0
VERTEX
  8
LAYER_1
 10
-5.120039
 20
10.405374
 30
0.0
  0
VERTEX
  8
LAYER_1
 10
-5.153697
 20
10.403031
 30
0.0
  0
VERTEX
  8
LAYER_1
 10
-5.186823
 20
10.39587
 30
0.0
  0
VERTEX
  8
LAYER_1
 10
-5.218886
 20
10.383894
 30
0.0
  0
VERTEX
  8
LAYER_1
 10
-5.249354
 20
10.367091
 30
0.0
  0
VERTEX
  8
LAYER_1
 10
-5.305878
 20
10.423732
 30
0.0
  0
VERTEX
  8
LAYER_1
 10
-5.262646
 20
10.450201
 30
0.0
  0
VERTEX
  8
LAYER_1
 10
-5.21663
 20
10.469075
 30
0.0
  0
VERTEX
  8
LAYER_1
 10
-5.16876
 20
10.480366
 30
0.0
  0
VERTEX
  8
LAYER_1
 10
-5.119969
 20
10.484071
 30
0.0
  0
VERTEX
  8
LAYER_1
 10
-5.071185
 20
10.480193
 30
0.0
  0
VERTEX
  8
LAYER_1
 10
-5.023343
 20
10.468744
 30
0.0
  0
VERTEX
  8
LAYER_1
 10
-4.977374
 20
10.44972
 30
0.0
  0
SEQEND
  8
LAYER_1
  0
POLYLINE
  8
LAYER_1
 62
0
 70
1
 66
1
 10
0.0
 20
0.0
 30
0.0
  0
VERTEX
  8
LAYER_1
 10
-5.048417
 20
10.309173
 30
0.0
  0
VERTEX
  8
LAYER_1
 10
-5.110484
 20
10.247244
 30
0.0
  0
VERTEX
  8
LAYER_1
 10
-5.120161
 20
10.247878
 30
0.0
  0
VERTEX
  8
LAYER_1
 10
-5.129843
 20
10.247315
 30
0.0
  0
VERTEX
  8
LAYER_1
 10
-5.191882
 20
10.309488
 30
0.0
  0
VERTEX
  8
LAYER_1
 10
-5.174618
 20
10.317012
 30
0.0
  0
VERTEX
  8
LAYER_1
 10
-5.156776
 20
10.322374
 30
0.0
  0
VERTEX
  8
LAYER_1
 10
-5.138539
 20
10.325575
 30
0.0
  0
VERTEX
  8
LAYER_1
 10
-5.120114
 20
10.32661
 30
0.0
  0
VERTEX
  8
LAYER_1
 10
-5.101693
 20
10.325488
 30
0.0
  0
VERTEX
  8
LAYER_1
 10
-5.083472
 20
10.322209
 30
0.0
  0
VERTEX
  8
LAYER_1
 10
-5.06565
 20
10.316772
 30
0.0
  0
SEQEND
  8
LAYER_1
  0
POLYLINE
  8
LAYER_1
 62
0
 70
1
 66
1
 10
0.0
 20
0.0
 30
0.0
  0
VERTEX
  8
LAYER_1
 10
-4.821854
 20
10.535244
 30
0.0
  0
VERTEX
  8
LAYER_1
 10
-4.877945
 20
10.479276
 30
0.0
  0
VERTEX
  8
LAYER_1
 10
-4.93374
 20
10.515764
 30
0.0
  0
VERTEX
  8
LAYER_1
 10
-4.993555
 20
10.541862
 30
0.0
  0
VERTEX
  8
LAYER_1
 10
-5.056051
 20
10.557571
 30
0.0
  0
VERTEX
  8
LAYER_1
 10
-5.119894
 20
10.562878
 30
0.0
  0
VERTEX
  8
LAYER_1
 10
-5.183748
 20
10.557783
 30
0.0
  0
VERTEX
  8
LAYER_1
 10
-5.24628
 20
10.54228
 30
0.0
  0
VERTEX
  8
LAYER_1
 10
-5.306154
 20
10.516354
 30
0.0
  0
VERTEX
  8
LAYER_1
 10
-5.362031
 20
10.480012
 30
0.0
  0
VERTEX
  8
LAYER_1
 10
-5.418004
 20
10.536106
 30
0.0
  0
VERTEX
  8
LAYER_1
 10
-5.349634
 20
10.582335
 30
0.0
  0
VERTEX
  8
LAYER_1
 10
-5.275965
 20
10.615307
 30
0.0
  0
VERTEX
  8
LAYER_1
 10
-5.198772
 20
10.635035
 30
0.0
  0
VERTEX
  8
LAYER_1
 10
-5.119819
 20
10.641524
 30
0.0
  0
VERTEX
  8
LAYER_1
 10
-5.040882
 20
10.634783
 30
0.0
  0
VERTEX
  8
LAYER_1
 10
-4.963728
 20
10.614815
 30
0.0
  0
VERTEX
  8
LAYER_1
 10
-4.89013
 20
10.581634
 30
0.0
  0
SEQEND
  8
LAYER_1
  0
POLYLINE
  8
LAYER_1
 62
0
 70
1
 66
1
 10
0.0
 20
0.0
 30
0.0
  0
VERTEX
  8
LAYER_1
 10
-5.261256
 20
10.239673
 30
0.0
  0
VERTEX
  8
LAYER_1
 10
-5.198795
 20
10.177075
 30
0.0
  0
VERTEX
  8
LAYER_1
 10
-5.198583
 20
10.159335
 30
0.0
  0
VERTEX
  8
LAYER_1
 10
-5.26065
 20
10.097406
 30
0.0
  0
VERTEX
  8
LAYER_1
 10
-5.268154
 20
10.114488
 30
0.0
  0
VERTEX
  8
LAYER_1
 10
-5.273531
 20
10.132154
 30
0.0
  0
VERTEX
  8
LAYER_1
 10
-5.276791
 20
10.150209
 30
0.0
  0
VERTEX
  8
LAYER_1
 10
-5.277929
 20
10.168465
 30
0.0
  0
VERTEX
  8
LAYER_1
 10
-5.276945
 20
10.186728
 30
0.0
  0
VERTEX
  8
LAYER_1
 10
-5.273839
 20
10.204815
 30
0.0
  0
VERTEX
  8
LAYER_1
 10
-5.26861
 20
10.222524
 30
0.0
  0
SEQEND
  8
LAYER_1
  0
POLYLINE
  8
LAYER_1
 62
0
 70
1
 66
1
 10
0.0
 20
0.0
 30
0.0
  0
VERTEX
  8
LAYER_1
 10
-4.422091
 20
9.537398
 30
0.0
  0
VERTEX
  8
LAYER_1
 10
-4.423492
 20
9.551283
 30
0.0
  0
VERTEX
  8
LAYER_1
 10
-4.427504
 20
9.564217
 30
0.0
  0
VERTEX
  8
LAYER_1
 10
-4.433858
 20
9.575917
 30
0.0
  0
VERTEX
  8
LAYER_1
 10
-4.442272
 20
9.586114
 30
0.0
  0
VERTEX
  8
LAYER_1
 10
-4.452469
 20
9.594528
 30
0.0
  0
VERTEX
  8
LAYER_1
 10
-4.464173
 20
9.600882
 30
0.0
  0
VERTEX
  8
LAYER_1
 10
-4.477102
 20
9.604894
 30
0.0
  0
VERTEX
  8
LAYER_1
 10
-4.490988
 20
9.606295
 30
0.0
  0
VERTEX
  8
LAYER_1
 10
-4.504874
 20
9.604894
 30
0.0
  0
VERTEX
  8
LAYER_1
 10
-4.517807
 20
9.600882
 30
0.0
  0
VERTEX
  8
LAYER_1
 10
-4.529508
 20
9.594528
 30
0.0
  0
VERTEX
  8
LAYER_1
 10
-4.539705
 20
9.586114
 30
0.0
  0
VERTEX
  8
LAYER_1
 10
-4.548118
 20
9.575917
 30
0.0
  0
VERTEX
  8
LAYER_1
 10
-4.554472
 20
9.564217
 30
0.0
  0
VERTEX
  8
LAYER_1
 10
-4.558484
 20
9.551283
 30
0.0
  0
VERTEX
  8
LAYER_1
 10
-4.559886
 20
9.537398
 30
0.0
  0
VERTEX
  8
LAYER_1
 10
-4.558488
 20
9.523512
 30
0.0
  0
VERTEX
  8
LAYER_1
 10
-4.554472
 20
9.510579
 30
0.0
  0
VERTEX
  8
LAYER_1
 10
-4.548122
 20
9.498878
 30
0.0
  0
VERTEX
  8
LAYER_1
 10
-4.539709
 20
9.488681
 30
0.0
  0
VERTEX
  8
LAYER_1
 10
-4.529512
 20
9.480268
 30
0.0
  0
VERTEX
  8
LAYER_1
 10
-4.517811
 20
9.473913
 30
0.0
  0
VERTEX
  8
LAYER_1
 10
-4.504878
 20
9.469902
 30
0.0
  0
VERTEX
  8
LAYER_1
 10
-4.490992
 20
9.4685
 30
0.0
  0
VERTEX
  8
LAYER_1
 10
-4.477106
 20
9.469902
 30
0.0
  0
VERTEX
  8
LAYER_1
 10
-4.464173
 20
9.473913
 30
0.0
  0
VERTEX
  8
LAYER_1
 10
-4.452472
 20
9.480268
 30
0.0
  0
VERTEX
  8
LAYER_1
 10
-4.442276
 20
9.488681
 30
0.0
  0
VERTEX
  8
LAYER_1
 10
-4.433862
 20
9.498878
 30
0.0
  0
VERTEX
  8
LAYER_1
 10
-4.427508
 20
9.510579
 30
0.0
  0
VERTEX
  8
LAYER_1
 10
-4.423496
 20
9.523512
 30
0.0
  0
VERTEX
  8
LAYER_1
 10
-4.422094
 20
9.537398
 30
0.0
  0
SEQEND
  8
LAYER_1
  0
POLYLINE
  8
LAYER_1
 62
0
 70
1
 66
1
 10
0.0
 20
0.0
 30
0.0
  0
VERTEX
  8
LAYER_1
 10
-4.42072
 20
10.797236
 30
0.0
  0
VERTEX
  8
LAYER_1
 10
-4.422122
 20
10.811122
 30
0.0
  0
VERTEX
  8
LAYER_1
 10
-4.426134
 20
10.824055
 30
0.0
  0
VERTEX
  8
LAYER_1
 10
-4.432488
 20
10.835756
 30
0.0
  0
VERTEX
  8
LAYER_1
 10
-4.440902
 20
10.845953
 30
0.0
  0
VERTEX
  8
LAYER_1
 10
-4.451098
 20
10.854366
 30
0.0
  0
VERTEX
  8
LAYER_1
 10
-4.462799
 20
10.86072
 30
0.0
  0
VERTEX
  8
LAYER_1
 10
-4.475732
 20
10.864732
 30
0.0
  0
VERTEX
  8
LAYER_1
 10
-4.489618
 20
10.866134
 30
0.0
  0
VERTEX
  8
LAYER_1
 10
-4.503504
 20
10.864732
 30
0.0
  0
VERTEX
  8
LAYER_1
 10
-4.516437
 20
10.86072
 30
0.0
  0
VERTEX
  8
LAYER_1
 10
-4.528138
 20
10.854366
 30
0.0
  0
VERTEX
  8
LAYER_1
 10
-4.538335
 20
10.845953
 30
0.0
  0
VERTEX
  8
LAYER_1
 10
-4.546748
 20
10.835756
 30
0.0
  0
VERTEX
  8
LAYER_1
 10
-4.553102
 20
10.824055
 30
0.0
  0
VERTEX
  8
LAYER_1
 10
-4.557114
 20
10.811122
 30
0.0
  0
VERTEX
  8
LAYER_1
 10
-4.558516
 20
10.797236
 30
0.0
  0
VERTEX
  8
LAYER_1
 10
-4.557114
 20
10.78335
 30
0.0
  0
VERTEX
  8
LAYER_1
 10
-4.553102
 20
10.770417
 30
0.0
  0
VERTEX
  8
LAYER_1
 10
-4.546748
 20
10.758717
 30
0.0
  0
VERTEX
  8
LAYER_1
 10
-4.538335
 20
10.74852
 30
0.0
  0
VERTEX
  8
LAYER_1
 10
-4.528138
 20
10.740106
 30
0.0
  0
VERTEX
  8
LAYER_1
 10
-4.516437
 20
10.733752
 30
0.0
  0
VERTEX
  8
LAYER_1
 10
-4.503504
 20
10.72974
 30
0.0
  0
VERTEX
  8
LAYER_1
 10
-4.489618
 20
10.728339
 30
0.0
  0
VERTEX
  8
LAYER_1
 10
-4.475732
 20
10.72974
 30
0.0
  0
VERTEX
  8
LAYER_1
 10
-4.462799
 20
10.733752
 30
0.0
  0
VERTEX
  8
LAYER_1
 10
-4.451098
 20
10.740106
 30
0.0
  0
VERTEX
  8
LAYER_1
 10
-4.440902
 20
10.74852
 30
0.0
  0
VERTEX
  8
LAYER_1
 10
-4.432488
 20
10.758717
 30
0.0
  0
VERTEX
  8
LAYER_1
 10
-4.426134
 20
10.770417
 30
0.0
  0
VERTEX
  8
LAYER_1
 10
-4.422122
 20
10.78335
 30
0.0
  0
SEQEND
  8
LAYER_1
  0
POLYLINE
  8
LAYER_1
 62
0
 70
1
 66
1
 10
0.0
 20
0.0
 30
0.0
  0
VERTEX
  8
LAYER_1
 10
-4.980264
 20
10.097413
 30
0.0
  0
VERTEX
  8
LAYER_1
 10
-5.042303
 20
10.159583
 30
0.0
  0
VERTEX
  8
LAYER_1
 10
-5.042063
 20
10.176472
 30
0.0
  0
VERTEX
  8
LAYER_1
 10
-4.97935
 20
10.239047
 30
0.0
  0
VERTEX
  8
LAYER_1
 10
-4.972098
 20
10.221957
 30
0.0
  0
VERTEX
  8
LAYER_1
 10
-4.966957
 20
10.204315
 30
0.0
  0
VERTEX
  8
LAYER_1
 10
-4.963921
 20
10.186307
 30
0.0
  0
VERTEX
  8
LAYER_1
 10
-4.962988
 20
10.168126
 30
0.0
  0
VERTEX
  8
LAYER_1
 10
-4.964157
 20
10.149957
 30
0.0
  0
VERTEX
  8
LAYER_1
 10
-4.967429
 20
10.131988
 30
0.0
  0
VERTEX
  8
LAYER_1
 10
-4.972799
 20
10.114413
 30
0.0
  0
SEQEND
  8
LAYER_1
  0
POLYLINE
  8
LAYER_1
 62
0
 70
1
 66
1
 10
0.0
 20
0.0
 30
0.0
  0
VERTEX
  8
LAYER_1
 10
-5.375406
 20
10.354071
 30
0.0
  0
VERTEX
  8
LAYER_1
 10
-5.318839
 20
10.297378
 30
0.0
  0
VERTEX
  8
LAYER_1
 10
-5.335457
 20
10.267
 30
0.0
  0
VERTEX
  8
LAYER_1
 10
-5.347303
 20
10.235055
 30
0.0
  0
VERTEX
  8
LAYER_1
 10
-5.354382
 20
10.202067
 30
0.0
  0
VERTEX
  8
LAYER_1
 10
-5.356693
 20
10.168567
 30
0.0
  0
VERTEX
  8
LAYER_1
 10
-5.354228
 20
10.135075
 30
0.0
  0
VERTEX
  8
LAYER_1
 10
-5.346996
 20
10.102126
 30
0.0
  0
VERTEX
  8
LAYER_1
 10
-5.334992
 20
10.070244
 30
0.0
  0
VERTEX
  8
LAYER_1
 10
-5.31822
 20
10.039957
 30
0.0
  0
VERTEX
  8
LAYER_1
 10
-5.374854
 20
9.983449
 30
0.0
  0
VERTEX
  8
LAYER_1
 10
-5.401291
 20
10.0265
 30
0.0
  0
VERTEX
  8
LAYER_1
 10
-5.420193
 20
10.072331
 30
0.0
  0
VERTEX
  8
LAYER_1
 10
-5.431559
 20
10.12002
 30
0.0
  0
VERTEX
  8
LAYER_1
 10
-5.43539
 20
10.16865
 30
0.0
  0
VERTEX
  8
LAYER_1
 10
-5.431689
 20
10.217291
 30
0.0
  0
VERTEX
  8
LAYER_1
 10
-5.420457
 20
10.265024
 30
0.0
  0
VERTEX
  8
LAYER_1
 10
-5.401697
 20
10.310925
 30
0.0
  0
SEQEND
  8
LAYER_1
  0
POLYLINE
  8
LAYER_1
 62
0
 70
1
 66
1
 10
0.0
 20
0.0
 30
0.0
  0
VERTEX
  8
LAYER_1
 10
-5.487583
 20
10.466492
 30
0.0
  0
VERTEX
  8
LAYER_1
 10
-5.431591
 20
10.410374
 30
0.0
  0
VERTEX
  8
LAYER_1
 10
-5.467768
 20
10.354583
 30
0.0
  0
VERTEX
  8
LAYER_1
 10
-5.493594
 20
10.294827
 30
0.0
  0
VERTEX
  8
LAYER_1
 10
-5.509071
 20
10.232433
 30
0.0
  0
VERTEX
  8
LAYER_1
 10
-5.514197
 20
10.168728
 30
0.0
  0
VERTEX
  8
LAYER_1
 10
-5.508969
 20
10.105035
 30
0.0
  0
VERTEX
  8
LAYER_1
 10
-5.493378
 20
10.042685
 30
0.0
  0
VERTEX
  8
LAYER_1
 10
-5.467433
 20
9.982996
 30
0.0
  0
VERTEX
  8
LAYER_1
 10
-5.431122
 20
9.927299
 30
0.0
  0
VERTEX
  8
LAYER_1
 10
-5.487213
 20
9.871335
 30
0.0
  0
VERTEX
  8
LAYER_1
 10
-5.533406
 20
9.939524
 30
0.0
  0
VERTEX
  8
LAYER_1
 10
-5.566406
 20
10.013004
 30
0.0
  0
VERTEX
  8
LAYER_1
 10
-5.586217
 20
10.090016
 30
0.0
  0
VERTEX
  8
LAYER_1
 10
-5.592843
 20
10.168803
 30
0.0
  0
VERTEX
  8
LAYER_1
 10
-5.586287
 20
10.247602
 30
0.0
  0
VERTEX
  8
LAYER_1
 10
-5.566559
 20
10.324657
 30
0.0
  0
VERTEX
  8
LAYER_1
 10
-5.533654
 20
10.398205
 30
0.0
  0
SEQEND
  8
LAYER_1
  0
POLYLINE
  8
LAYER_1
 62
0
 70
1
 66
1
 10
0.0
 20
0.0
 30
0.0
  0
VERTEX
  8
LAYER_1
 10
-5.417547
 20
9.801803
 30
0.0
  0
VERTEX
  8
LAYER_1
 10
-5.361429
 20
9.857799
 30
0.0
  0
VERTEX
  8
LAYER_1
 10
-5.305835
 20
9.821795
 30
0.0
  0
VERTEX
  8
LAYER_1
 10
-5.246307
 20
9.796059
 30
0.0
  0
VERTEX
  8
LAYER_1
 10
-5.184154
 20
9.780591
 30
0.0
  0
VERTEX
  8
LAYER_1
 10
-5.120689
 20
9.775402
 30
0.0
  0
VERTEX
  8
LAYER_1
 10
-5.05722
 20
9.780488
 30
0.0
  0
VERTEX
  8
LAYER_1
 10
-4.995059
 20
9.795862
 30
0.0
  0
VERTEX
  8
LAYER_1
 10
-4.935516
 20
9.821528
 30
0.0
  0
VERTEX
  8
LAYER_1
 10
-4.879902
 20
9.857484
 30
0.0
  0
VERTEX
  8
LAYER_1
 10
-4.823909
 20
9.801366
 30
0.0
  0
VERTEX
  8
LAYER_1
 10
-4.892028
 20
9.755535
 30
0.0
  0
VERTEX
  8
LAYER_1
 10
-4.96537
 20
9.722827
 30
0.0
  0
VERTEX
  8
LAYER_1
 10
-5.042197
 20
9.703236
 30
0.0
  0
VERTEX
  8
LAYER_1
 10
-5.120764
 20
9.696756
 30
0.0
  0
VERTEX
  8
LAYER_1
 10
-5.199323
 20
9.703378
 30
0.0
  0
VERTEX
  8
LAYER_1
 10
-5.276138
 20
9.723094
 30
0.0
  0
VERTEX
  8
LAYER_1
 10
-5.349461
 20
9.755906
 30
0.0
  0
SEQEND
  8
LAYER_1
  0
POLYLINE
  8
LAYER_1
 62
0
 70
1
 66
1
 10
0.0
 20
0.0
 30
0.0
  0
VERTEX
  8
LAYER_1
 10
-5.190673
 20
10.028181
 30
0.0
  0
VERTEX
  8
LAYER_1
 10
-5.127961
 20
10.09076
 30
0.0
  0
VERTEX
  8
LAYER_1
 10
-5.112697
 20
10.090783
 30
0.0
  0
VERTEX
  8
LAYER_1
 10
-5.050232
 20
10.028185
 30
0.0
  0
VERTEX
  8
LAYER_1
 10
-5.067146
 20
10.020957
 30
0.0
  0
VERTEX
  8
LAYER_1
 10
-5.084606
 20
10.015795
 30
0.0
  0
VERTEX
  8
LAYER_1
 10
-5.102437
 20
10.012697
 30
0.0
  0
VERTEX
  8
LAYER_1
 10
-5.120449
 20
10.011665
 30
0.0
  0
VERTEX
  8
LAYER_1
 10
-5.138465
 20
10.012697
 30
0.0
  0
VERTEX
  8
LAYER_1
 10
-5.156295
 20
10.015795
 30
0.0
  0
VERTEX
  8
LAYER_1
 10
-5.17376
 20
10.020957
 30
0.0
  0
SEQEND
  8
LAYER_1
  0
POLYLINE
  8
LAYER_1
 62
0
 70
1
 66
1
 10
0.0
 20
0.0
 30
0.0
  0
VERTEX
  8
LAYER_1
 10
-5.305114
 20
9.913992
 30
0.0
  0
VERTEX
  8
LAYER_1
 10
-5.248409
 20
9.970575
 30
0.0
  0
VERTEX
  8
LAYER_1
 10
-5.218248
 20
9.95411
 30
0.0
  0
VERTEX
  8
LAYER_1
 10
-5.186539
 20
9.942339
 30
0.0
  0
VERTEX
  8
LAYER_1
 10
-5.153795
 20
9.935272
 30
0.0
  0
VERTEX
  8
LAYER_1
 10
-5.120535
 20
9.932906
 30
0.0
  0
VERTEX
  8
LAYER_1
 10
-5.087276
 20
9.93524
 30
0.0
  0
VERTEX
  8
LAYER_1
 10
-5.054531
 20
9.94228
 30
0.0
  0
VERTEX
  8
LAYER_1
 10
-5.022819
 20
9.954028
 30
0.0
  0
VERTEX
  8
LAYER_1
 10
-4.992654
 20
9.97048
 30
0.0
  0
VERTEX
  8
LAYER_1
 10
-4.936083
 20
9.913787
 30
0.0
  0
VERTEX
  8
LAYER_1
 10
-4.979035
 20
9.887693
 30
0.0
  0
VERTEX
  8
LAYER_1
 10
-5.024713
 20
9.869063
 30
0.0
  0
VERTEX
  8
LAYER_1
 10
-5.072209
 20
9.857906
 30
0.0
  0
VERTEX
  8
LAYER_1
 10
-5.12061
 20
9.854209
 30
0.0
  0
VERTEX
  8
LAYER_1
 10
-5.169012
 20
9.857969
 30
0.0
  0
VERTEX
  8
LAYER_1
 10
-5.216504
 20
9.869193
 30
0.0
  0
VERTEX
  8
LAYER_1
 10
-5.262173
 20
9.887866
 30
0.0
  0
SEQEND
  8
LAYER_1
  0
ENDSEC
  0
EOF
