0
SECTION
2
HEADER
9
$INSUNITS
70
4
9
$ACADVER
1
AC1014
9
$HANDSEED
5
FFFF
0
ENDSEC
0
SECTION
2
TABLES
0
TABLE
2
VPORT
5
8
100
AcDbSymbolTable
0
ENDTAB
0
TABLE
2
LTYPE
5
5
100
AcDbSymbolTable
0
LTYPE
5
14
100
AcDbSymbolTableRecord
100
AcDbLinetypeTableRecord
2
BYBLOCK
70
0
0
LTYPE
5
15
100
AcDbSymbolTableRecord
100
AcDbLinetypeTableRecord
2
BYLAYER
70
0
0
ENDTAB
0
TABLE
2
LAYER
5
2
100
AcDbSymbolTable
70
2
0
LAYER
5
50
100
AcDbSymbolTableRecord
100
AcDbLayerTableRecord
2
0
70
0
6
CONTINUOUS
0
ENDTAB
0
TABLE
2
STYLE
5
3
100
AcDbSymbolTable
70
1
0
STYLE
5
11
100
AcDbSymbolTableRecord
100
AcDbTextStyleTableRecord
2
STANDARD
70
0
0
ENDTAB
0
TABLE
2
VIEW
5
6
100
AcDbSymbolTable
70
0
0
ENDTAB
0
TABLE
2
UCS
5
7
100
AcDbSymbolTable
70
0
0
ENDTAB
0
TABLE
2
APPID
5
9
100
AcDbSymbolTable
70
2
0
APPID
5
12
100
AcDbSymbolTableRecord
100
AcDbRegAppTableRecord
2
ACAD
70
0
0
ENDTAB
0
TABLE
2
DIMSTYLE
5
A
100
AcDbSymbolTable
70
1
0
ENDTAB
0
TABLE
2
BLOCK_RECORD
5
1
100
AcDbSymbolTable
70
1
0
BLOCK_RECORD
5
1F
100
AcDbSymbolTableRecord
100
AcDbBlockTableRecord
2
*MODEL_SPACE
0
BLOCK_RECORD
5
1B
100
AcDbSymbolTableRecord
100
AcDbBlockTableRecord
2
*PAPER_SPACE
0
ENDTAB
0
ENDSEC
0
SECTION
2
BLOCKS
0
BLOCK
5
20
100
AcDbEntity
100
AcDbBlockBegin
2
*MODEL_SPACE
0
ENDBLK
5
21
100
AcDbEntity
100
AcDbBlockEnd
0
BLOCK
5
1C
100
AcDbEntity
100
AcDbBlockBegin
2
*PAPER_SPACE
0
ENDBLK
5
1D
100
AcDbEntity
100
AcDbBlockEnd
0
ENDSEC
0
SECTION
2
ENTITIES
0
CIRCLE
5
100
100
AcDbEntity
8
0
100
AcDbCircle
10
-80.692147195967095
20
-49.530331415094381
30
0
40
1.7500000000000071
210
0
220
-0
230
1
0
CIRCLE
5
101
100
AcDbEntity
8
0
100
AcDbCircle
10
-48.692147195967067
20
75.803001918238934
30
0
40
1.7500000000000071
210
0
220
-0
230
1
0
CIRCLE
5
102
100
AcDbEntity
8
0
100
AcDbCircle
10
-79.692147195967081
20
148.13633525157226
30
0
40
1.7500000000000071
210
0
220
-0
230
1
0
CIRCLE
5
103
100
AcDbEntity
8
0
100
AcDbCircle
10
-49.692147195967074
20
148.13633525157226
30
0
40
1.749999999999998
210
0
220
-0
230
1
0
LWPOLYLINE
5
104
100
AcDbEntity
8
0
100
AcDbPolyline
90
4
70
1
43
0.0
10
-66.192147195967109
20
-44.427578773946081
42
-0.33617310544418683
10
-75.589394554818767
20
-35.030331415094381
10
-67.854424856135466
20
-35.030331415094381
42
0.1729372986389833
10
-66.192147195967109
20
-36.692609075262752
0
LWPOLYLINE
5
105
100
AcDbEntity
8
0
100
AcDbPolyline
90
4
70
1
43
0.0
10
-75.589394554818739
20
-32.030331415094395
42
-0.33617310544418694
10
-66.192147195967109
20
-22.633084056242708
10
-66.192147195967095
20
-30.36805375492602
42
0.17293729863898391
10
-67.854424856135452
20
-32.030331415094388
0
LWPOLYLINE
5
106
100
AcDbEntity
8
0
100
AcDbPolyline
90
4
70
1
43
0.0
10
-66.192147195967095
20
-51.467722529746496
42
-0.36614405327977045
10
-82.629538310619196
20
-35.030331415094395
10
-77.605318766112049
20
-35.030331415094381
42
0.34798431937134428
10
-66.192147195967095
20
-46.443502985239348
0
LWPOLYLINE
5
107
100
AcDbEntity
8
0
100
AcDbPolyline
90
4
70
1
43
0.0
10
-63.192147195967081
20
-46.443502985239348
10
-63.192147195967081
20
-51.467722529746496
42
0.36614405327977118
10
-46.75475608131498
20
-35.030331415094395
10
-51.778975625822099
20
-35.030331415094388
42
-0.34798431937134505
0
CIRCLE
5
108
100
AcDbEntity
8
0
100
AcDbCircle
10
-80.692147195967081
20
43.803001918238934
30
0
40
1.7500000000000071
210
0
220
-0
230
1
0
LWPOLYLINE
5
109
100
AcDbEntity
8
0
100
AcDbPolyline
90
4
70
1
43
0.0
10
-82.629538310619196
20
-32.030331415094388
10
-77.605318766112021
20
-32.030331415094395
42
-0.34798431937134455
10
-66.192147195967095
20
-20.617159844949434
10
-66.192147195967109
20
-15.59294030044228
42
0.36614405327977051
0
LWPOLYLINE
5
110
100
AcDbEntity
8
0
100
AcDbPolyline
90
4
70
1
43
0.0
10
-63.192147195967088
20
56.640724258070549
10
-63.192147195967088
20
48.905754559387248
42
0.33617310544418777
10
-53.794899837115402
20
58.303001918238934
10
-61.529869535798703
20
58.30300191823892
42
-0.17293729863898527
0
LWPOLYLINE
5
111
100
AcDbEntity
8
0
100
AcDbPolyline
90
4
70
1
43
0.0
10
-75.589394554818767
20
61.303001918238927
42
-0.33617310544418755
10
-66.192147195967095
20
70.70024927709062
10
-66.192147195967095
20
62.965279578407305
42
0.17293729863898469
10
-67.854424856135452
20
61.303001918238934
0
LWPOLYLINE
5
112
100
AcDbEntity
8
0
100
AcDbPolyline
90
4
70
1
43
0.0
10
-61.52986953579871
20
61.303001918238934
10
-53.794899837115402
20
61.303001918238934
42
0.33617310544418755
10
-63.192147195967081
20
70.70024927709062
10
-63.192147195967081
20
62.965279578407305
42
-0.17293729863898469
0
LWPOLYLINE
5
113
100
AcDbEntity
8
0
100
AcDbPolyline
90
4
70
1
43
0.0
10
-63.192147195967081
20
-36.692609075262766
10
-63.192147195967081
20
-44.427578773946067
42
0.33617310544418777
10
-53.794899837115402
20
-35.030331415094388
10
-61.529869535798696
20
-35.030331415094395
42
-0.17293729863898538
0
LWPOLYLINE
5
114
100
AcDbEntity
8
0
100
AcDbPolyline
90
4
70
1
43
0.0
10
-51.778975625822135
20
-32.030331415094381
10
-46.75475608131498
20
-32.030331415094381
42
0.36614405327977156
10
-63.192147195967088
20
-15.592940300442283
10
-63.192147195967088
20
-20.617159844949448
42
-0.34798431937134527
0
LWPOLYLINE
5
115
100
AcDbEntity
8
0
100
AcDbPolyline
90
4
70
1
43
0.0
10
-61.52986953579871
20
-32.030331415094381
10
-53.794899837115402
20
-32.030331415094381
42
0.33617310544418827
10
-63.192147195967088
20
-22.633084056242705
10
-63.192147195967088
20
-30.368053754926017
42
-0.17293729863898571
0
CIRCLE
5
116
100
AcDbEntity
8
0
100
AcDbCircle
10
-48.692147195967088
20
43.803001918238934
30
0
40
1.7499999999999893
210
0
220
-0
230
1
0
CIRCLE
5
117
100
AcDbEntity
8
0
100
AcDbCircle
10
-80.692147195967081
20
75.803001918238934
30
0
40
1.7499999999999893
210
0
220
-0
230
1
0
CIRCLE
5
118
100
AcDbEntity
8
0
100
AcDbCircle
10
-49.692147195967074
20
-121.86366474842772
30
0
40
1.749999999999998
210
0
220
-0
230
1
0
CIRCLE
5
119
100
AcDbEntity
8
0
100
AcDbCircle
10
-48.692147195967088
20
-17.530331415094384
30
0
40
1.7500000000000071
210
0
220
-0
230
1
0
CIRCLE
5
120
100
AcDbEntity
8
0
100
AcDbCircle
10
-79.692147195967081
20
-121.86366474842772
30
0
40
1.7500000000000071
210
0
220
-0
230
1
0
CIRCLE
5
121
100
AcDbEntity
8
0
100
AcDbCircle
10
-48.692147195967088
20
-49.530331415094381
30
0
40
1.7499999999999893
210
0
220
-0
230
1
0
CIRCLE
5
122
100
AcDbEntity
8
0
100
AcDbCircle
10
-80.692147195967095
20
-17.530331415094384
30
0
40
1.7499999999999893
210
0
220
-0
230
1
0
LWPOLYLINE
5
123
100
AcDbEntity
8
0
100
AcDbPolyline
90
4
70
1
43
0.0
10
-82.629538310619196
20
61.303001918238934
10
-77.605318766112035
20
61.303001918238927
42
-0.34798431937134477
10
-66.192147195967095
20
72.716173488383888
10
-66.192147195967095
20
77.740393032891035
42
0.3661440532797709
0
LWPOLYLINE
5
124
100
AcDbEntity
8
0
100
AcDbPolyline
90
4
70
1
43
0.0
10
-66.192147195967095
20
48.905754559387248
42
-0.3361731054441866
10
-75.589394554818753
20
58.303001918238905
10
-67.854424856135452
20
58.303001918238934
42
0.1729372986389841
10
-66.192147195967095
20
56.640724258070563
0
LWPOLYLINE
5
125
100
AcDbEntity
8
0
100
AcDbPolyline
90
4
70
1
43
0.0
10
-63.192147195967088
20
46.88983034809398
10
-63.192147195967088
20
41.865610803586847
42
0.36614405327977118
10
-46.75475608131498
20
58.303001918238934
10
-51.778975625822135
20
58.30300191823892
42
-0.34798431937134472
0
LWPOLYLINE
5
126
100
AcDbEntity
8
0
100
AcDbPolyline
90
4
70
1
43
0.0
10
-51.778975625822135
20
61.303001918238934
10
-46.75475608131498
20
61.303001918238934
42
0.36614405327977101
10
-63.192147195967081
20
77.740393032891021
10
-63.192147195967081
20
72.716173488383888
42
-0.34798431937134461
0
LWPOLYLINE
5
127
100
AcDbEntity
8
0
100
AcDbPolyline
90
4
70
1
43
0.0
10
-66.192147195967095
20
41.865610803586826
42
-0.36614405327977056
10
-82.629538310619196
20
58.303001918238913
10
-77.605318766112035
20
58.303001918238913
42
0.34798431937134422
10
-66.192147195967095
20
46.889830348093973
0
LWPOLYLINE
5
128
100
AcDbEntity
8
0
100
AcDbPolyline
90
4
70
1
43
0.0
10
-94.692147195967081
20
153.13633525157226
10
-34.692147195967074
20
153.13633525157226
10
-34.692147195967074
20
-126.86366474842772
10
-94.692147195967081
20
-126.86366474842772
0
ENDSEC
0
SECTION
2
OBJECTS
0
DICTIONARY
5
C
100
AcDbDictionary
3
ACAD_GROUP
350
D
3
ACAD_MLINESTYLE
350
17
0
DICTIONARY
5
D
100
AcDbDictionary
0
DICTIONARY
5
1A
330
C
100
AcDbDictionary
0
DICTIONARY
5
17
100
AcDbDictionary
0
ENDSEC
0
EOF
