0
SECTION
2
HEADER
9
$INSUNITS
70
4
9
$ACADVER
1
AC1014
9
$HANDSEED
5
FFFF
0
ENDSEC
0
SECTION
2
TABLES
0
TABLE
2
VPORT
5
8
100
AcDbSymbolTable
0
ENDTAB
0
TABLE
2
LTYPE
5
5
100
AcDbSymbolTable
0
LTYPE
5
14
100
AcDbSymbolTableRecord
100
AcDbLinetypeTableRecord
2
BYBLOCK
70
0
0
LTYPE
5
15
100
AcDbSymbolTableRecord
100
AcDbLinetypeTableRecord
2
BYLAYER
70
0
0
ENDTAB
0
TABLE
2
LAYER
5
2
100
AcDbSymbolTable
70
2
0
LAYER
5
50
100
AcDbSymbolTableRecord
100
AcDbLayerTableRecord
2
0
70
0
6
CONTINUOUS
0
ENDTAB
0
TABLE
2
STYLE
5
3
100
AcDbSymbolTable
70
1
0
STYLE
5
11
100
AcDbSymbolTableRecord
100
AcDbTextStyleTableRecord
2
STANDARD
70
0
0
ENDTAB
0
TABLE
2
VIEW
5
6
100
AcDbSymbolTable
70
0
0
ENDTAB
0
TABLE
2
UCS
5
7
100
AcDbSymbolTable
70
0
0
ENDTAB
0
TABLE
2
APPID
5
9
100
AcDbSymbolTable
70
2
0
APPID
5
12
100
AcDbSymbolTableRecord
100
AcDbRegAppTableRecord
2
ACAD
70
0
0
ENDTAB
0
TABLE
2
DIMSTYLE
5
A
100
AcDbSymbolTable
70
1
0
ENDTAB
0
TABLE
2
BLOCK_RECORD
5
1
100
AcDbSymbolTable
70
1
0
BLOCK_RECORD
5
1F
100
AcDbSymbolTableRecord
100
AcDbBlockTableRecord
2
*MODEL_SPACE
0
BLOCK_RECORD
5
1B
100
AcDbSymbolTableRecord
100
AcDbBlockTableRecord
2
*PAPER_SPACE
0
ENDTAB
0
ENDSEC
0
SECTION
2
BLOCKS
0
BLOCK
5
20
100
AcDbEntity
100
AcDbBlockBegin
2
*MODEL_SPACE
0
ENDBLK
5
21
100
AcDbEntity
100
AcDbBlockEnd
0
BLOCK
5
1C
100
AcDbEntity
100
AcDbBlockBegin
2
*PAPER_SPACE
0
ENDBLK
5
1D
100
AcDbEntity
100
AcDbBlockEnd
0
ENDSEC
0
SECTION
2
ENTITIES
0
LWPOLYLINE
5
100
100
AcDbEntity
8
0
100
AcDbPolyline
90
4
70
1
43
0.0
10
-235.30785280403296
20
-38.631437376242935
10
-198.55645236820601
20
-75.382837812069909
42
0.99999999999999989
10
-196.30785280403279
20
-73.13423824789669
10
-233.05925323985974
20
-36.382837812069738
42
0.99999999999999989
0
LWPOLYLINE
5
101
100
AcDbEntity
8
0
100
AcDbPolyline
90
4
70
1
43
0.0
10
-235.30785280403296
20
4.7971340523285022
10
-198.55645236820601
20
-31.954266383498471
42
0.99999999999999989
10
-196.30785280403279
20
-29.705666819325252
10
-233.05925323985974
20
7.0457336165016926
42
0.99999999999999989
0
LWPOLYLINE
5
102
100
AcDbEntity
8
0
100
AcDbPolyline
90
4
70
1
43
0.0
10
-235.30785280403296
20
-6.0600088048143652
10
-198.5564523675838
20
-42.811409241263547
42
0.99999999999999989
10
-196.30785280403279
20
-40.56280967646812
10
-233.05925323985974
20
-3.8114092406411713
42
0.99999999999999989
0
LWPOLYLINE
5
103
100
AcDbEntity
8
0
100
AcDbPolyline
90
4
70
1
43
0.0
10
-235.30785280403296
20
-49.488580233385804
10
-198.55645236820601
20
-86.239980669212756
42
0.99999999999999989
10
-196.30785280403279
20
-83.991381105039551
10
-233.05925323985974
20
-47.239980669212606
42
0.99999999999999989
0
LWPOLYLINE
5
104
100
AcDbEntity
8
0
100
AcDbPolyline
90
4
70
1
43
0.0
10
-235.30785280403296
20
-27.774294519100074
10
-198.55645236820601
20
-64.525694954927047
42
0.99999999999999989
10
-196.30785280403279
20
-62.277095390753828
10
-233.05925323985974
20
-25.525694954926877
42
0.99999999999999989
0
LWPOLYLINE
5
105
100
AcDbEntity
8
0
100
AcDbPolyline
90
4
70
1
43
0.0
10
-235.30785280403296
20
15.654276909471365
10
-198.55645236820601
20
-21.09712352635561
42
0.99999999999999989
10
-196.30785280403279
20
-18.848523962182391
10
-233.05925323985974
20
17.902876473644554
42
0.99999999999999989
0
LWPOLYLINE
5
106
100
AcDbEntity
8
0
100
AcDbPolyline
90
4
70
1
43
0.0
10
-235.30785280403296
20
-16.917151661957213
10
-198.55645236820601
20
-53.668552097784186
42
0.99999999999999989
10
-196.30785280403279
20
-51.419952533610967
10
-233.05925323985974
20
-14.668552097784024
42
0.99999999999999989
0
LWPOLYLINE
5
107
100
AcDbEntity
8
0
100
AcDbPolyline
90
4
70
1
43
0.0
10
-235.30785280403293
20
-60.345723090528679
10
-198.55645236820601
20
-97.097123526355617
42
0.99999999999999989
10
-196.30785280403279
20
-94.848523962182412
10
-233.05925323985974
20
-58.09712352635546
42
0.99999999999999989
0
LWPOLYLINE
5
108
100
AcDbEntity
8
0
100
AcDbPolyline
90
4
70
1
43
0.0
10
-245.30785280403296
20
-119.49999999999994
10
-245.30785280403296
20
119.40231476648462
10
-186.30785280403279
20
119.40231476648462
10
-186.30785280403279
20
-119.49999999999994
0
CIRCLE
5
109
100
AcDbEntity
8
0
100
AcDbCircle
10
-200.80785280403296
20
114.90231677814157
30
0
40
1.7500000000000071
210
0
220
-4.9303806576313238e-32
230
1
0
CIRCLE
5
110
100
AcDbEntity
8
0
100
AcDbCircle
10
-200.80785280403279
20
-115.0000006705522
30
0
40
1.7500000000000071
210
0
220
-4.9303806576313238e-32
230
1
0
CIRCLE
5
111
100
AcDbEntity
8
0
100
AcDbCircle
10
-230.80785280403279
20
-115.0000006705522
30
0
40
1.7500000000000071
210
0
220
-4.9303806576313238e-32
230
1
0
CIRCLE
5
112
100
AcDbEntity
8
0
100
AcDbCircle
10
-230.80785280403296
20
114.90231677814157
30
0
40
1.7500000000000071
210
0
220
-4.9303806576313238e-32
230
1
0
CIRCLE
5
113
100
AcDbEntity
8
0
100
AcDbCircle
10
-215.80785280403319
20
35.151476037817801
30
0
40
1.7500000000000071
210
0
220
4.9303806576313238e-32
230
1
0
CIRCLE
5
114
100
AcDbEntity
8
0
100
AcDbCircle
10
-215.80785280403316
20
107.1514760378178
30
0
40
1.7500000000000071
210
0
220
-4.9303806576313238e-32
230
1
0
LWPOLYLINE
5
115
100
AcDbEntity
8
0
100
AcDbPolyline
90
4
70
1
43
0.0
10
-200.30785280403279
20
40.151476037817787
10
-200.30785280403279
20
102.1514760378178
10
-231.30785280403279
20
102.1514760378178
10
-231.30785280403279
20
40.151476037817801
0
ENDSEC
0
SECTION
2
OBJECTS
0
DICTIONARY
5
C
100
AcDbDictionary
3
ACAD_GROUP
350
D
3
ACAD_MLINESTYLE
350
17
0
DICTIONARY
5
D
100
AcDbDictionary
0
DICTIONARY
5
1A
330
C
100
AcDbDictionary
0
DICTIONARY
5
17
100
AcDbDictionary
0
ENDSEC
0
EOF
