  0
SECTION
  2
HEADER
  9
$ACADVER
  1
AC1009
  9
$EXTMAX
 10
-10.667405128479
 20
13.1705198287964
 30
0.0
  9
$EXTMIN
 10
-24.840633392334
 20
1.3595000505447
 30
0.0
  9
$INSUNITS
 70
     4
  9
$LUNITS
 70
     2
  9
$LUPREC
 70
     4
  9
$MEASUREMENT
 70
     1
  0
ENDSEC
  0
SECTION
  2
TABLES
  0
TABLE
  2
LAYER
 70
     1
  0
LAYER
  2
0
 70
     0
 62
     7
  6
Continuous
  0
LAYER
  2
Default
 70
     0
 62
    70
  6
Continuous
  0
ENDTAB
  0
TABLE
  2
APPID
 70
     1
  0
APPID
  2
ACAD
 70
     0
  0
ENDTAB
  0
ENDSEC
  0
SECTION
  2
ENTITIES
  0
POLYLINE
  8
Default
 66
     1
 10
0.0
 20
0.0
 30
0.0
 70
     0
  0
VERTEX
  8
Default
 10
-24.8406338582677
 20
12.579968503937
 42
0.0
  0
VERTEX
  8
Default
 10
-24.8406338582677
 20
1.9500511811024
 42
0.0
  0
SEQEND
  0
POLYLINE
  8
Default
 66
     1
 10
0.0
 20
0.0
 30
0.0
 70
     0
  0
VERTEX
  8
Default
 10
-24.8406338582677
 20
12.579968503937
 42
-0.4146106635085
  0
VERTEX
  8
Default
 10
-24.2500826771654
 20
13.1705196850394
 42
0.0
  0
VERTEX
  8
Default
 10
-11.2579566929134
 20
13.1705196850394
 42
-0.4146106635077
  0
VERTEX
  8
Default
 10
-10.667405511811
 20
12.579968503937
 42
0.0
  0
VERTEX
  8
Default
 10
-10.667405511811
 20
1.9500511811024
 42
-0.414610663508
  0
VERTEX
  8
Default
 10
-11.2579566929134
 20
1.3595
 42
0.0
  0
VERTEX
  8
Default
 10
-24.2500826771654
 20
1.3595
 42
-0.4146147479462
  0
VERTEX
  8
Default
 10
-24.8406338582677
 20
1.9500511811024
 42
0.0
  0
SEQEND
  0
POLYLINE
  8
Default
 66
     1
 10
0.0
 20
0.0
 30
0.0
 70
     1
  0
VERTEX
  8
Default
 10
-21.9961417322835
 20
9.076031496063
 42
0.0
  0
VERTEX
  8
Default
 10
-21.9961417322835
 20
9.0760275590551
 42
0.0
  0
SEQEND
  0
POLYLINE
  8
Default
 66
     1
 10
0.0
 20
0.0
 30
0.0
 70
     1
  0
VERTEX
  8
Default
 10
-21.9961456692913
 20
10.8476850393701
 42
-19.687483308766
  0
VERTEX
  8
Default
 10
-21.9947401574803
 20
10.8337952755905
 42
-0.0504109803332
  0
SEQEND
  0
POLYLINE
  8
Default
 66
     1
 10
0.0
 20
0.0
 30
0.0
 70
     1
  0
VERTEX
  8
Default
 10
-11.5237086614173
 20
12.3831181102362
 42
-19.6874833259956
  0
VERTEX
  8
Default
 10
-11.5223031496063
 20
12.3692283464567
 42
-0.0504109803051
  0
SEQEND
  0
POLYLINE
  8
Default
 66
     1
 10
0.0
 20
0.0
 30
0.0
 70
     1
  0
VERTEX
  8
Default
 10
-24.1221417322835
 20
12.3831141732283
 42
-19.6656368639066
  0
VERTEX
  8
Default
 10
-24.1207401574803
 20
12.3692283464567
 42
0.0
  0
SEQEND
  0
POLYLINE
  8
Default
 66
     1
 10
0.0
 20
0.0
 30
0.0
 70
     1
  0
VERTEX
  8
Default
 10
-24.1221299212598
 20
2.1665866141732
 42
-19.6874833211394
  0
VERTEX
  8
Default
 10
-24.1207244094488
 20
2.1526968503937
 42
-0.0504109803172
  0
SEQEND
  0
POLYLINE
  8
Default
 66
     1
 10
0.0
 20
0.0
 30
0.0
 70
     1
  0
VERTEX
  8
Default
 10
-21.8597244094488
 20
9.587842519685
 42
19.6656368481146
  0
VERTEX
  8
Default
 10
-21.861125984252
 20
9.5739566929134
 42
0.0
  0
SEQEND
  0
POLYLINE
  8
Default
 66
     1
 10
0.0
 20
0.0
 30
0.0
 70
     1
  0
VERTEX
  8
Default
 10
-20.5985118110236
 20
10.8463110236221
 42
19.6656368558193
  0
VERTEX
  8
Default
 10
-20.5999133858268
 20
10.8324251968504
 42
0.0
  0
SEQEND
  0
POLYLINE
  8
Default
 66
     1
 10
0.0
 20
0.0
 30
0.0
 70
     1
  0
VERTEX
  8
Default
 10
-20.5998818897638
 20
9.5864724409449
 42
19.6930197498332
  0
VERTEX
  8
Default
 10
-20.6012874015748
 20
9.5725866141732
 42
0.0504109903889
  0
SEQEND
  0
POLYLINE
  8
Default
 66
     1
 10
0.0
 20
0.0
 30
0.0
 70
     1
  0
VERTEX
  8
Default
 10
-21.482905511811
 20
9.9630669291339
 42
0.0
  0
VERTEX
  8
Default
 10
-21.4262007874016
 20
10.0196496062992
 42
0.2943545544109
  0
VERTEX
  8
Default
 10
-21.1704448818898
 20
10.0195551181102
 42
0.0
  0
VERTEX
  8
Default
 10
-21.113874015748
 20
9.9628622047244
 42
-0.3235884835075
  0
SEQEND
  0
POLYLINE
  8
Default
 66
     1
 10
0.0
 20
0.0
 30
0.0
 70
     1
  0
VERTEX
  8
Default
 10
-21.3684645669291
 20
10.0772559055118
 42
0.0
  0
VERTEX
  8
Default
 10
-21.3057519685039
 20
10.1398346456693
 42
0.0
  0
VERTEX
  8
Default
 10
-21.2904881889764
 20
10.1398582677165
 42
0.0
  0
VERTEX
  8
Default
 10
-21.2280236220472
 20
10.0772598425197
 42
-0.2352683762691
  0
SEQEND
  0
POLYLINE
  8
Default
 66
     1
 10
0.0
 20
0.0
 30
0.0
 70
     1
  0
VERTEX
  8
Default
 10
-21.4390472440945
 20
10.2887480314961
 42
0.0
  0
VERTEX
  8
Default
 10
-21.3765866141732
 20
10.2261496062992
 42
0.0
  0
VERTEX
  8
Default
 10
-21.376374015748
 20
10.2084094488189
 42
0.0
  0
VERTEX
  8
Default
 10
-21.4384409448819
 20
10.1464803149606
 42
-0.2387115485166
  0
SEQEND
  0
POLYLINE
  8
Default
 66
     1
 10
0.0
 20
0.0
 30
0.0
 70
     1
  0
VERTEX
  8
Default
 10
-21.1120039370079
 20
10.4722047244094
 42
0.0
  0
VERTEX
  8
Default
 10
-21.1686338582677
 20
10.4156968503937
 42
0.2981854470863
  0
VERTEX
  8
Default
 10
-21.4271456692913
 20
10.4161653543307
 42
0.0
  0
VERTEX
  8
Default
 10
-21.4836692913386
 20
10.4728070866142
 42
-0.3264578940905
  0
SEQEND
  0
POLYLINE
  8
Default
 66
     1
 10
0.0
 20
0.0
 30
0.0
 70
     1
  0
VERTEX
  8
Default
 10
-20.9996456692913
 20
10.5843188976378
 42
0.0
  0
VERTEX
  8
Default
 10
-21.0557362204724
 20
10.5283503937008
 42
0.3442156823002
  0
VERTEX
  8
Default
 10
-21.5398228346457
 20
10.5290866141732
 42
0.0
  0
VERTEX
  8
Default
 10
-21.5957952755906
 20
10.5851811023622
 42
-0.3553318293547
  0
SEQEND
  0
POLYLINE
  8
Default
 66
     1
 10
0.0
 20
0.0
 30
0.0
 70
     1
  0
VERTEX
  8
Default
 10
-21.2262086614173
 20
10.3582480314961
 42
0.0
  0
VERTEX
  8
Default
 10
-21.2882755905512
 20
10.2963188976378
 42
0.0618262328655
  0
VERTEX
  8
Default
 10
-21.3076338582677
 20
10.2963897637795
 42
0.0
  0
VERTEX
  8
Default
 10
-21.3696732283465
 20
10.358562992126
 42
-0.2409733403938
  0
SEQEND
  0
POLYLINE
  8
Default
 66
     1
 10
0.0
 20
0.0
 30
0.0
 70
     1
  0
VERTEX
  8
Default
 10
-21.5953385826772
 20
9.8508779527559
 42
0.0
  0
VERTEX
  8
Default
 10
-21.5392204724409
 20
9.906874015748
 42
0.3419076005411
  0
VERTEX
  8
Default
 10
-21.0576929133858
 20
9.9065590551181
 42
0.0
  0
VERTEX
  8
Default
 10
-21.0017007874016
 20
9.8504409448819
 42
-0.3534116103802
  0
SEQEND
  0
POLYLINE
  8
Default
 66
     1
 10
0.0
 20
0.0
 30
0.0
 70
     1
  0
VERTEX
  8
Default
 10
-21.665374015748
 20
10.5155669291339
 42
0.0
  0
VERTEX
  8
Default
 10
-21.6093818897638
 20
10.4594488188976
 42
0.3433118443208
  0
VERTEX
  8
Default
 10
-21.6089133858268
 20
9.976374015748
 42
0.0
  0
VERTEX
  8
Default
 10
-21.6650039370079
 20
9.9204094488189
 42
-0.3545441829076
  0
SEQEND
  0
POLYLINE
  8
Default
 66
     1
 10
0.0
 20
0.0
 30
0.0
 70
     1
  0
VERTEX
  8
Default
 10
-21.5531968503937
 20
10.4031456692913
 42
0.0
  0
VERTEX
  8
Default
 10
-21.4966299212598
 20
10.3464527559055
 42
0.2966261790921
  0
VERTEX
  8
Default
 10
-21.4960118110236
 20
10.089031496063
 42
0.0
  0
VERTEX
  8
Default
 10
-21.5526456692913
 20
10.0325236220472
 42
-0.3253296151458
  0
SEQEND
  0
POLYLINE
  8
Default
 66
     1
 10
0.0
 20
0.0
 30
0.0
 70
     1
  0
VERTEX
  8
Default
 10
-21.1580551181102
 20
10.1464881889764
 42
0.0
  0
VERTEX
  8
Default
 10
-21.220094488189
 20
10.208657480315
 42
0.0
  0
VERTEX
  8
Default
 10
-21.2198543307087
 20
10.2255472440945
 42
0.0
  0
VERTEX
  8
Default
 10
-21.1571417322835
 20
10.2881220472441
 42
-0.2374479853455
  0
SEQEND
  0
POLYLINE
  8
Default
 66
     1
 10
0.0
 20
0.0
 30
0.0
 70
     1
  0
VERTEX
  8
Default
 10
-20.9319330708661
 20
9.9198700787402
 42
0.0
  0
VERTEX
  8
Default
 10
-20.987905511811
 20
9.9759645669291
 42
0.3428171182974
  0
VERTEX
  8
Default
 10
-20.9863858267716
 20
10.4585039370079
 42
0.0
  0
VERTEX
  8
Default
 10
-20.9302677165354
 20
10.5145039370079
 42
-0.354151677302
  0
SEQEND
  0
POLYLINE
  8
Default
 66
     1
 10
0.0
 20
0.0
 30
0.0
 70
     1
  0
VERTEX
  8
Default
 10
-20.8202559055118
 20
9.8079488188976
 42
0.0
  0
VERTEX
  8
Default
 10
-20.876062992126
 20
9.8638779527559
 42
0.3632112487934
  0
VERTEX
  8
Default
 10
-20.8742559055118
 20
10.5703897637795
 42
0.0
  0
VERTEX
  8
Default
 10
-20.8183149606299
 20
10.6262086614173
 42
-0.3690318113292
  0
SEQEND
  0
POLYLINE
  8
Default
 66
     1
 10
0.0
 20
0.0
 30
0.0
 70
     1
  0
VERTEX
  8
Default
 10
-21.7769212598425
 20
9.8087362204724
 42
-0.3693402988464
  0
VERTEX
  8
Default
 10
-21.7770748031496
 20
10.6275118110236
 42
0.0
  0
VERTEX
  8
Default
 10
-21.7212598425197
 20
10.5715708661417
 42
0.3635691930819
  0
VERTEX
  8
Default
 10
-21.7209921259843
 20
9.8645393700787
 42
0.0
  0
SEQEND
  0
POLYLINE
  8
Default
 66
     1
 10
0.0
 20
0.0
 30
0.0
 70
     1
  0
VERTEX
  8
Default
 10
-21.0440590551181
 20
10.0322401574803
 42
0.0
  0
VERTEX
  8
Default
 10
-21.1005787401575
 20
10.0888858267716
 42
0.295851008697
  0
VERTEX
  8
Default
 10
-21.099405511811
 20
10.3457322834646
 42
0.0
  0
VERTEX
  8
Default
 10
-21.0427007874016
 20
10.4023149606299
 42
-0.3247057543841
  0
SEQEND
  0
POLYLINE
  8
Default
 66
     1
 10
0.0
 20
0.0
 30
0.0
 70
     1
  0
VERTEX
  8
Default
 10
-21.6516653543307
 20
10.6411732283465
 42
0.0
  0
VERTEX
  8
Default
 10
-21.7074724409449
 20
10.6971023622047
 42
-0.3699052051939
  0
VERTEX
  8
Default
 10
-20.8877283464567
 20
10.6959921259842
 42
0.0
  0
VERTEX
  8
Default
 10
-20.9436535433071
 20
10.6401850393701
 42
0.3642215119792
  0
SEQEND
  0
POLYLINE
  8
Default
 66
     1
 10
0.0
 20
0.0
 30
0.0
 70
     1
  0
VERTEX
  8
Default
 10
-20.8899960629921
 20
9.7384960629921
 42
-0.3684481919876
  0
VERTEX
  8
Default
 10
-21.7072913385827
 20
9.7391692913386
 42
0.0
  0
VERTEX
  8
Default
 10
-21.6513503937008
 20
9.7949921259843
 42
0.3625468122143
  0
VERTEX
  8
Default
 10
-20.9458149606299
 20
9.794437007874
 42
0.0
  0
SEQEND
  0
POLYLINE
  8
Default
 66
     1
 10
0.0
 20
0.0
 30
0.0
 70
     1
  0
VERTEX
  8
Default
 10
-16.4351220472441
 20
11.0292362204724
 42
0.0
  0
VERTEX
  8
Default
 10
-13.3642559055118
 20
11.0292362204724
 42
-1.000093830914
  0
VERTEX
  8
Default
 10
-13.3642559055118
 20
10.911125984252
 42
0.0
  0
VERTEX
  8
Default
 10
-16.4351220472441
 20
10.911125984252
 42
-1.0000938309418
  0
SEQEND
  0
POLYLINE
  8
Default
 66
     1
 10
0.0
 20
0.0
 30
0.0
 70
     1
  0
VERTEX
  8
Default
 10
-13.3642559055118
 20
9.6737795275591
 42
0.0
  0
VERTEX
  8
Default
 10
-16.4351220472441
 20
9.6737795275591
 42
-1.0000938309527
  0
VERTEX
  8
Default
 10
-16.4351220472441
 20
9.7918897637795
 42
0.0
  0
VERTEX
  8
Default
 10
-13.3642559055118
 20
9.7918897637795
 42
-1.00009383097
  0
SEQEND
  0
POLYLINE
  8
Default
 66
     1
 10
0.0
 20
0.0
 30
0.0
 70
     1
  0
VERTEX
  8
Default
 10
-13.3642559055118
 20
8.436437007874
 42
0.0
  0
VERTEX
  8
Default
 10
-16.4351220472441
 20
8.436437007874
 42
-1.0000938309823
  0
VERTEX
  8
Default
 10
-16.4351220472441
 20
8.5545472440945
 42
0.0
  0
VERTEX
  8
Default
 10
-13.3642559055118
 20
8.5545472440945
 42
-1.000093830941
  0
SEQEND
  0
POLYLINE
  8
Default
 66
     1
 10
0.0
 20
0.0
 30
0.0
 70
     1
  0
VERTEX
  8
Default
 10
-13.3642559055118
 20
7.1990905511811
 42
0.0
  0
VERTEX
  8
Default
 10
-16.4351220472441
 20
7.1990905511811
 42
-1.0000938309338
  0
VERTEX
  8
Default
 10
-16.4351220472441
 20
7.3172007874016
 42
0.0
  0
VERTEX
  8
Default
 10
-13.3642559055118
 20
7.3172007874016
 42
-1.0000938309635
  0
SEQEND
  0
POLYLINE
  8
Default
 66
     1
 10
0.0
 20
0.0
 30
0.0
 70
     1
  0
VERTEX
  8
Default
 10
-13.3642559055118
 20
8.1271023622047
 42
0.0
  0
VERTEX
  8
Default
 10
-16.4351220472441
 20
8.1271023622047
 42
-1.0000938309367
  0
VERTEX
  8
Default
 10
-16.4351220472441
 20
8.2452125984252
 42
0.0
  0
VERTEX
  8
Default
 10
-13.3642559055118
 20
8.2452125984252
 42
-1.0000938309289
  0
SEQEND
  0
POLYLINE
  8
Default
 66
     1
 10
0.0
 20
0.0
 30
0.0
 70
     1
  0
VERTEX
  8
Default
 10
-13.3642559055118
 20
9.3644409448819
 42
0.0
  0
VERTEX
  8
Default
 10
-16.4351220472441
 20
9.3644409448819
 42
-1.0000938309421
  0
VERTEX
  8
Default
 10
-16.4351220472441
 20
9.4825511811024
 42
0.0
  0
VERTEX
  8
Default
 10
-13.3642559055118
 20
9.4825511811024
 42
-1.000093830918
  0
SEQEND
  0
POLYLINE
  8
Default
 66
     1
 10
0.0
 20
0.0
 30
0.0
 70
     1
  0
VERTEX
  8
Default
 10
-13.3642559055118
 20
10.6017874015748
 42
0.0
  0
VERTEX
  8
Default
 10
-16.4351220472441
 20
10.6017874015748
 42
-1.0000938309306
  0
VERTEX
  8
Default
 10
-16.4351220472441
 20
10.7198976377953
 42
0.0
  0
VERTEX
  8
Default
 10
-13.3642559055118
 20
10.7198976377953
 42
-1.0000938309229
  0
SEQEND
  0
POLYLINE
  8
Default
 66
     1
 10
0.0
 20
0.0
 30
0.0
 70
     1
  0
VERTEX
  8
Default
 10
-13.3642559055118
 20
9.9831141732284
 42
0.0
  0
VERTEX
  8
Default
 10
-16.4351220472441
 20
9.9831141732284
 42
-1.0000938309381
  0
VERTEX
  8
Default
 10
-16.4351220472441
 20
10.1012244094488
 42
0.0
  0
VERTEX
  8
Default
 10
-13.3642559055118
 20
10.1012244094488
 42
-1.0000938309837
  0
SEQEND
  0
POLYLINE
  8
Default
 66
     1
 10
0.0
 20
0.0
 30
0.0
 70
     1
  0
VERTEX
  8
Default
 10
-13.3642559055118
 20
8.7457755905512
 42
0.0
  0
VERTEX
  8
Default
 10
-16.4351220472441
 20
8.7457755905512
 42
-1.0000960487759
  0
VERTEX
  8
Default
 10
-16.4351220472441
 20
8.8638818897638
 42
0.0
  0
VERTEX
  8
Default
 10
-13.3642559055118
 20
8.8638818897638
 42
-1.0000960487376
  0
SEQEND
  0
POLYLINE
  8
Default
 66
     1
 10
0.0
 20
0.0
 30
0.0
 70
     1
  0
VERTEX
  8
Default
 10
-13.3642559055118
 20
7.5084291338583
 42
0.0
  0
VERTEX
  8
Default
 10
-16.4351220472441
 20
7.5084291338583
 42
-1.0000938309421
  0
VERTEX
  8
Default
 10
-16.4351220472441
 20
7.6265393700787
 42
0.0
  0
VERTEX
  8
Default
 10
-13.3642559055118
 20
7.6265393700787
 42
-1.0000938309264
  0
SEQEND
  0
POLYLINE
  8
Default
 66
     1
 10
0.0
 20
0.0
 30
0.0
 70
     1
  0
VERTEX
  8
Default
 10
-13.3642559055118
 20
7.8177637795276
 42
0.0
  0
VERTEX
  8
Default
 10
-16.4351220472441
 20
7.8177637795276
 42
-1.0000938309274
  0
VERTEX
  8
Default
 10
-16.4351220472441
 20
7.935874015748
 42
0.0
  0
VERTEX
  8
Default
 10
-13.3642559055118
 20
7.935874015748
 42
-1.0000938309374
  0
SEQEND
  0
POLYLINE
  8
Default
 66
     1
 10
0.0
 20
0.0
 30
0.0
 70
     1
  0
VERTEX
  8
Default
 10
-13.3642559055118
 20
9.0551062992126
 42
0.0
  0
VERTEX
  8
Default
 10
-16.4351220472441
 20
9.0551062992126
 42
-1.0000938309569
  0
VERTEX
  8
Default
 10
-16.4351220472441
 20
9.1732165354331
 42
0.0
  0
VERTEX
  8
Default
 10
-13.3642559055118
 20
9.1732165354331
 42
-1.0000938309364
  0
SEQEND
  0
POLYLINE
  8
Default
 66
     1
 10
0.0
 20
0.0
 30
0.0
 70
     1
  0
VERTEX
  8
Default
 10
-13.3642559055118
 20
10.2924527559055
 42
0.0
  0
VERTEX
  8
Default
 10
-16.4351220472441
 20
10.2924527559055
 42
-1.0000938309465
  0
VERTEX
  8
Default
 10
-16.4351220472441
 20
10.410562992126
 42
0.0
  0
VERTEX
  8
Default
 10
-13.3642559055118
 20
10.410562992126
 42
-1.0000938309741
  0
SEQEND
  0
POLYLINE
  8
Default
 66
     1
 10
0.0
 20
0.0
 30
0.0
 70
     1
  0
VERTEX
  8
Default
 10
-21.8597244094488
 20
7.816188976378
 42
19.6656368404864
  0
VERTEX
  8
Default
 10
-21.861125984252
 20
7.8023031496063
 42
0.0
  0
SEQEND
  0
POLYLINE
  8
Default
 66
     1
 10
0.0
 20
0.0
 30
0.0
 70
     1
  0
VERTEX
  8
Default
 10
-20.5985118110236
 20
9.074657480315
 42
19.6656368598837
  0
VERTEX
  8
Default
 10
-20.5999133858268
 20
9.0607716535433
 42
0.0
  0
SEQEND
  0
POLYLINE
  8
Default
 66
     1
 10
0.0
 20
0.0
 30
0.0
 70
     1
  0
VERTEX
  8
Default
 10
-20.5998818897638
 20
7.8148188976378
 42
19.6930197647422
  0
VERTEX
  8
Default
 10
-20.6012874015748
 20
7.8009330708661
 42
0.0504109903806
  0
SEQEND
  0
POLYLINE
  8
Default
 66
     1
 10
0.0
 20
0.0
 30
0.0
 70
     1
  0
VERTEX
  8
Default
 10
-21.482905511811
 20
8.1914133858268
 42
0.0
  0
VERTEX
  8
Default
 10
-21.4262007874016
 20
8.2479960629921
 42
0.2943545544092
  0
VERTEX
  8
Default
 10
-21.1704448818898
 20
8.2479015748032
 42
0.0
  0
VERTEX
  8
Default
 10
-21.113874015748
 20
8.1912086614173
 42
-0.3235884835073
  0
SEQEND
  0
POLYLINE
  8
Default
 66
     1
 10
0.0
 20
0.0
 30
0.0
 70
     1
  0
VERTEX
  8
Default
 10
-21.3684645669291
 20
8.3056023622047
 42
0.0
  0
VERTEX
  8
Default
 10
-21.3057519685039
 20
8.3681811023622
 42
0.0
  0
VERTEX
  8
Default
 10
-21.2904881889764
 20
8.3682047244095
 42
0.0
  0
VERTEX
  8
Default
 10
-21.2280236220472
 20
8.3056062992126
 42
-0.2352683762721
  0
SEQEND
  0
POLYLINE
  8
Default
 66
     1
 10
0.0
 20
0.0
 30
0.0
 70
     1
  0
VERTEX
  8
Default
 10
-21.4390472440945
 20
8.517094488189
 42
0.0
  0
VERTEX
  8
Default
 10
-21.3765866141732
 20
8.4544960629921
 42
0.0
  0
VERTEX
  8
Default
 10
-21.376374015748
 20
8.4367559055118
 42
0.0
  0
VERTEX
  8
Default
 10
-21.4384409448819
 20
8.3748267716535
 42
-0.2387115485166
  0
SEQEND
  0
POLYLINE
  8
Default
 66
     1
 10
0.0
 20
0.0
 30
0.0
 70
     1
  0
VERTEX
  8
Default
 10
-21.1120039370079
 20
8.7005511811024
 42
0.0
  0
VERTEX
  8
Default
 10
-21.1686338582677
 20
8.6440433070866
 42
0.2981854470852
  0
VERTEX
  8
Default
 10
-21.4271456692913
 20
8.6445118110236
 42
0.0
  0
VERTEX
  8
Default
 10
-21.4836692913386
 20
8.7011535433071
 42
-0.3264578940894
  0
SEQEND
  0
POLYLINE
  8
Default
 66
     1
 10
0.0
 20
0.0
 30
0.0
 70
     1
  0
VERTEX
  8
Default
 10
-20.9996456692913
 20
8.8126653543307
 42
0.0
  0
VERTEX
  8
Default
 10
-21.0557362204724
 20
8.7566968503937
 42
0.3442156822994
  0
VERTEX
  8
Default
 10
-21.5398228346457
 20
8.7574330708661
 42
0.0
  0
VERTEX
  8
Default
 10
-21.5957952755906
 20
8.8135275590551
 42
-0.3553318293547
  0
SEQEND
  0
POLYLINE
  8
Default
 66
     1
 10
0.0
 20
0.0
 30
0.0
 70
     1
  0
VERTEX
  8
Default
 10
-21.2262086614173
 20
8.586594488189
 42
0.0
  0
VERTEX
  8
Default
 10
-21.2882755905512
 20
8.5246653543307
 42
0.0618262328478
  0
VERTEX
  8
Default
 10
-21.3076338582677
 20
8.5247362204724
 42
0.0
  0
VERTEX
  8
Default
 10
-21.3696732283465
 20
8.5869094488189
 42
-0.2409733404012
  0
SEQEND
  0
POLYLINE
  8
Default
 66
     1
 10
0.0
 20
0.0
 30
0.0
 70
     1
  0
VERTEX
  8
Default
 10
-21.5953385826772
 20
8.0792244094488
 42
0.0
  0
VERTEX
  8
Default
 10
-21.5392204724409
 20
8.135220472441
 42
0.3419076005403
  0
VERTEX
  8
Default
 10
-21.0576929133858
 20
8.134905511811
 42
0.0
  0
VERTEX
  8
Default
 10
-21.0017007874016
 20
8.0787874015748
 42
-0.3534116103805
  0
SEQEND
  0
POLYLINE
  8
Default
 66
     1
 10
0.0
 20
0.0
 30
0.0
 70
     1
  0
VERTEX
  8
Default
 10
-21.665374015748
 20
8.7439133858268
 42
0.0
  0
VERTEX
  8
Default
 10
-21.6093818897638
 20
8.6877952755906
 42
0.34331184432
  0
VERTEX
  8
Default
 10
-21.6089133858268
 20
8.204720472441
 42
0.0
  0
VERTEX
  8
Default
 10
-21.6650039370079
 20
8.1487559055118
 42
-0.3545441829078
  0
SEQEND
  0
POLYLINE
  8
Default
 66
     1
 10
0.0
 20
0.0
 30
0.0
 70
     1
  0
VERTEX
  8
Default
 10
-21.5531968503937
 20
8.6314921259843
 42
0.0
  0
VERTEX
  8
Default
 10
-21.4966299212598
 20
8.5747992125984
 42
0.2966261790913
  0
VERTEX
  8
Default
 10
-21.4960118110236
 20
8.3173779527559
 42
0.0
  0
VERTEX
  8
Default
 10
-21.5526456692913
 20
8.2608700787402
 42
-0.3253296151459
  0
SEQEND
  0
POLYLINE
  8
Default
 66
     1
 10
0.0
 20
0.0
 30
0.0
 70
     1
  0
VERTEX
  8
Default
 10
-21.1580551181102
 20
8.3748346456693
 42
0.0
  0
VERTEX
  8
Default
 10
-21.220094488189
 20
8.4370039370079
 42
0.0
  0
VERTEX
  8
Default
 10
-21.2198543307087
 20
8.4538937007874
 42
0.0
  0
VERTEX
  8
Default
 10
-21.1571417322835
 20
8.516468503937
 42
-0.2374479853487
  0
SEQEND
  0
POLYLINE
  8
Default
 66
     1
 10
0.0
 20
0.0
 30
0.0
 70
     1
  0
VERTEX
  8
Default
 10
-20.9319330708661
 20
8.1482165354331
 42
0.0
  0
VERTEX
  8
Default
 10
-20.987905511811
 20
8.2043110236221
 42
0.3428171182978
  0
VERTEX
  8
Default
 10
-20.9863858267716
 20
8.6868503937008
 42
0.0
  0
VERTEX
  8
Default
 10
-20.9302677165354
 20
8.7428503937008
 42
-0.3541516773017
  0
SEQEND
  0
POLYLINE
  8
Default
 66
     1
 10
0.0
 20
0.0
 30
0.0
 70
     1
  0
VERTEX
  8
Default
 10
-20.8202559055118
 20
8.0362952755906
 42
0.0
  0
VERTEX
  8
Default
 10
-20.876062992126
 20
8.0922244094488
 42
0.3632112487934
  0
VERTEX
  8
Default
 10
-20.8742559055118
 20
8.7987362204724
 42
0.0
  0
VERTEX
  8
Default
 10
-20.8183149606299
 20
8.8545551181102
 42
-0.369031811329
  0
SEQEND
  0
POLYLINE
  8
Default
 66
     1
 10
0.0
 20
0.0
 30
0.0
 70
     1
  0
VERTEX
  8
Default
 10
-21.7769212598425
 20
8.0370826771654
 42
-0.3693402988462
  0
VERTEX
  8
Default
 10
-21.7770748031496
 20
8.8558582677165
 42
0.0
  0
VERTEX
  8
Default
 10
-21.7212598425197
 20
8.7999173228347
 42
0.3635691930819
  0
VERTEX
  8
Default
 10
-21.7209921259843
 20
8.0928858267717
 42
0.0
  0
SEQEND
  0
POLYLINE
  8
Default
 66
     1
 10
0.0
 20
0.0
 30
0.0
 70
     1
  0
VERTEX
  8
Default
 10
-21.0440590551181
 20
8.2605866141732
 42
0.0
  0
VERTEX
  8
Default
 10
-21.1005787401575
 20
8.3172322834646
 42
0.2958510086962
  0
VERTEX
  8
Default
 10
-21.099405511811
 20
8.5740787401575
 42
0.0
  0
VERTEX
  8
Default
 10
-21.0427007874016
 20
8.6306614173228
 42
-0.3247057543847
  0
SEQEND
  0
POLYLINE
  8
Default
 66
     1
 10
0.0
 20
0.0
 30
0.0
 70
     1
  0
VERTEX
  8
Default
 10
-21.6516653543307
 20
8.8695196850394
 42
0.0
  0
VERTEX
  8
Default
 10
-21.7074724409449
 20
8.9254488188976
 42
-0.3699052051939
  0
VERTEX
  8
Default
 10
-20.8877283464567
 20
8.9243385826772
 42
0.0
  0
VERTEX
  8
Default
 10
-20.9436535433071
 20
8.868531496063
 42
0.3642215119791
  0
SEQEND
  0
POLYLINE
  8
Default
 66
     1
 10
0.0
 20
0.0
 30
0.0
 70
     1
  0
VERTEX
  8
Default
 10
-20.8899960629921
 20
7.966842519685
 42
-0.3684481919877
  0
VERTEX
  8
Default
 10
-21.7072913385827
 20
7.9675157480315
 42
0.0
  0
VERTEX
  8
Default
 10
-21.6513503937008
 20
8.0233385826772
 42
0.3625468122142
  0
VERTEX
  8
Default
 10
-20.9458149606299
 20
8.0227834645669
 42
0.0
  0
SEQEND
  0
POLYLINE
  8
Default
 66
     1
 10
0.0
 20
0.0
 30
0.0
 70
     1
  0
VERTEX
  8
Default
 10
-11.5237047244095
 20
2.1469015748032
 42
-19.6601194457795
  0
VERTEX
  8
Default
 10
-11.5223031496063
 20
2.1330118110236
 42
0.0
  0
VERTEX
  8
Default
 10
-11.5237047244095
 20
2.1468976377953
 42
0.0
  0
SEQEND
  0
ENDSEC
  0
EOF
